<?xml version="1.0" encoding="utf-8"?>
<!-- Generator: Adobe Illustrator 16.2.1, SVG Export Plug-In . SVG Version: 6.00 Build 0)  -->
<!DOCTYPE svg PUBLIC "-//W3C//DTD SVG 1.1//EN" "http://www.w3.org/Graphics/SVG/1.1/DTD/svg11.dtd">
<svg version="1.1" id="svg2367" xmlns:svg="http://www.w3.org/2000/svg"
	 xmlns="http://www.w3.org/2000/svg" xmlns:xlink="http://www.w3.org/1999/xlink" x="0px" y="0px" width="50px" height="50px"
	 viewBox="-24.5 40.5 50 50" enable-background="new -24.5 40.5 50 50" xml:space="preserve">
<path id="path3253_1_" fill="#637CA4" d="M-24.466,67.409c-0.659,0.123,8.492-2.759,15.931-4.066
	c6.381-1.114,10.511-1.264,10.716,0.647c0.216,2.037-6.965,3.384-7.089,4.231c-0.351,2.472,13.865-1.877,23.829-2.598
	c7.404-0.539-2.572-0.09-13.701,3.05c-9.065,2.556-14.811,2.825-14.676,0.358c0.101-1.891,8.849-3.296,8.343-4.648
	c-0.629-1.683-7.587-0.551-13.767,0.767C-21.059,66.468-23.664,67.262-24.466,67.409"/>
<path id="path3257_1_" fill="#E22526" d="M-20.438,64.392c-0.659,0.119,8.491-2.764,15.932-4.071
	c6.383-1.116,10.51-1.267,10.714,0.651c0.215,2.034-6.964,3.383-7.087,4.232c-0.353,2.467,13.865-1.878,23.823-2.604
	c7.411-0.539-2.566-0.092-13.699,3.053C0.18,68.211-5.562,68.479-5.429,66.01c0.105-1.893,8.856-3.295,8.344-4.652
	c-0.627-1.675-7.589-0.548-13.766,0.774C-17.03,63.443-19.635,64.238-20.438,64.392"/>
</svg>
