<?xml version="1.0" encoding="utf-8"?>
<!-- Generator: Adobe Illustrator 16.2.1, SVG Export Plug-In . SVG Version: 6.00 Build 0)  -->
<!DOCTYPE svg PUBLIC "-//W3C//DTD SVG 1.1//EN" "http://www.w3.org/Graphics/SVG/1.1/DTD/svg11.dtd">
<svg version="1.1" id="svg2367" xmlns:svg="http://www.w3.org/2000/svg"
	 xmlns="http://www.w3.org/2000/svg" xmlns:xlink="http://www.w3.org/1999/xlink" x="0px" y="0px" width="50px" height="50px"
	 viewBox="0 0 50 50" enable-background="new 0 0 50 50" xml:space="preserve">
<g id="_x23_e11b25ff">
	<path fill="#E11B25" d="M36.182,0.179c0.328,0.148,0.657,0.31,0.931,0.549c0.149,0.162,0.262,0.396,0.481,0.47
		c0.382,0.107,0.591-0.29,0.84-0.494C38.463,0.468,38.505,0.234,38.543,0c0.144,0.511,0.284,1.022,0.408,1.539
		c0.258-0.022,0.517-0.045,0.774-0.072c0.306-0.203,0.544-0.602,0.935-0.631l-0.224,0.123c0.023,0.37,0.053,0.74,0.088,1.113
		c0.218-0.089,0.399-0.225,0.535-0.408l0.081,0.003c0.019-0.104,0.048-0.311,0.065-0.413c0.023,0.088,0.076,0.264,0.1,0.351
		c0.095,0.164,0.164,0.346,0.288,0.492c0.382,0.037,0.775,0.048,1.134,0.207c0,0.083,0.005,0.248,0.005,0.333
		c0.341,0.162,0.635,0.399,0.888,0.675c0.111,0.547,0.581,0.876,0.91,1.292c0.262,0.68,0.423,1.391,0.47,2.119
		c-0.029,0.596-0.19,1.165-0.408,1.716l-0.164-0.005c0.021,0.076,0.059,0.225,0.079,0.302l-0.135,0.026
		c-0.253,0.423-0.623,0.749-0.964,1.095c-0.793,0.244-1.606,0.429-2.388,0.71c-0.173,0.999-0.525,1.953-0.696,2.95h-0.179
		c0.012,0.056,0.038,0.17,0.05,0.228c-0.129,0.121-0.258,0.244-0.382,0.367c-0.135,0.115-0.258,0.23-0.387,0.347
		c-0.327-0.035-0.646-0.089-0.97-0.138l0.01-0.106c-0.314-0.208-0.635-0.414-1.02-0.448c0.012,0.194,0.026,0.386,0.041,0.58
		c0.303,0.514,0.805,0.865,1.104,1.38c0.335,0.79,0.399,1.658,0.311,2.505c-0.311,0.473-0.749,0.884-0.934,1.427
		c-0.053,0.646-0.117,1.292-0.291,1.922c-0.349,0.344-0.534,0.812-0.701,1.267c0.314-0.223,0.616-0.461,0.916-0.701
		c0.032,0.237,0.059,0.479,0.094,0.719c0.484,0.324,0.811,0.815,0.928,1.39c-0.3-0.139-0.616-0.436-0.969-0.281
		c-0.846,0.276-1.01,1.368-1.818,1.706c-0.461,0.186-0.728-0.297-0.986-0.578c-0.449-0.22-0.942-0.467-1.143-0.958
		c-0.158-0.446-0.278-0.909-0.514-1.318c-0.026-0.425,0.191-0.785,0.432-1.107c0.265,0.05,0.525,0.103,0.788,0.157
		c0.24-0.949,0.719-1.818,1.344-2.562c-0.093-0.677-0.199-1.357-0.155-2.042c0.026-0.781,0.203-1.555,0.094-2.338
		c-0.79,1.037-0.678,2.423-0.702,3.653c-1.133,0.841-1.711,2.193-2.331,3.417c-0.247,0.495-0.752,0.758-1.228,0.971
		c-0.399,0.908-1.209,1.729-2.249,1.779c-1.089-0.646-2.038-1.629-3.296-1.956c-1.106-0.155-2.326-0.238-3.348,0.307
		c-0.279,0.157-0.623,0.345-0.591,0.716c0.502,0.372,1.153,0.207,1.702,0.048c1.147-0.328,2.326,0.096,3.395,0.5
		c0.675,0.294,1.488,0.608,1.75,1.377c0.27,0.835,0.353,1.756,0.135,2.613c-0.202,0.787-0.252,1.621-0.057,2.414
		c0.01,0.276-0.034,0.757,0.332,0.792c0.605-0.064,1.1-0.596,1.733-0.516c0.479,0.029,0.822,0.404,1.183,0.681
		c-0.473,0.129-0.986,0.241-1.342,0.611c-0.369,0.316-0.467,0.815-0.555,1.271c0.45-0.262,0.825-0.673,1.336-0.819
		c0.816,0.034,1.599,0.347,2.396,0.517c-0.499,0.064-1.021,0.141-1.433,0.452c-0.552,0.388-1.189,0.61-1.783,0.91
		c0.315,0.341,0.755,0.631,0.814,1.128c0.188,1.033-0.365,1.979-0.841,2.849c0.101-0.958-0.014-1.921-0.276-2.849
		c-0.862,0.517-1.778,1.004-2.801,1.093c-0.716-0.092-1.409-0.471-1.659-1.182c-0.742-1.967-0.252-4.099,0.035-6.102
		c-1.691,0.341-3.639,0.229-4.959-1.007c-0.488,0-1.07,0.267-1.482-0.104c-0.146-0.458,0.082-0.904,0.161-1.346
		c-0.594,0.642-0.897,1.476-1.141,2.297c-0.159,0.576-0.331,1.16-0.313,1.763c0.178,4.161,1.854,8.24,4.675,11.309
		c0.389,0.108,0.773,0.24,1.15,0.391c0.085,0.173,0.167,0.349,0.258,0.528c0.508,0.229,0.891,0.637,1.016,1.192
		c0.838,0.155,1.531,0.623,2.256,1.021c0.003-0.108,0.003-0.334,0.006-0.443c0.062,0.136,0.123,0.276,0.186,0.415
		c1.262,0.164,2.52,0.41,3.734,0.786c0.496,0.141,0.94,0.408,1.354,0.711c0.073-0.101,0.22-0.299,0.297-0.402
		c0.146,0.053,0.299,0.108,0.446,0.164c0.325-0.375,0.722-0.722,1.251-0.528c0.081-0.062,0.24-0.182,0.317-0.241
		c0.069,0.033,0.21,0.098,0.284,0.13c0.231-0.249,0.467-0.499,0.719-0.731c0.649-0.284,1.36-0.467,2.074-0.429
		c0.035-0.073,0.105-0.223,0.141-0.294c-0.006,0.165-0.018,0.496-0.021,0.664c0.156-0.041,0.479-0.12,0.644-0.158
		c0.017,0.146,0.035,0.287,0.058,0.432l-0.217-0.038c0.006,0.108,0.023,0.328,0.029,0.435c-0.259,0.152-0.517,0.306-0.766,0.47
		c-0.156,0.111-0.312,0.22-0.462,0.335c-0.335,0.22-0.752,0.372-0.934,0.751c-1.011,0.711-1.968,1.554-3.166,1.918
		c-1.58,0.511-3.342,0.556-4.909-0.012c-0.949-0.264-1.869-0.623-2.762-1.037c-0.234-0.123-0.466-0.24-0.695-0.369
		c-0.17-0.118-0.355-0.218-0.549-0.288l-0.026-0.062c-0.288-0.13-0.562-0.288-0.816-0.47c-1.198-0.723-2.242-1.659-3.36-2.487
		c-0.396-0.364-0.777-0.74-1.155-1.122c-0.125-0.124-0.27-0.227-0.429-0.3c-0.623-0.584-1.226-1.187-1.809-1.809
		c-0.094-0.156-0.188-0.294-0.301-0.436c-0.494-0.48-1.06-0.945-1.266-1.632c-0.974-2.736-1.104-5.685-1.219-8.569
		c-0.13-1.163,0.015-2.337-0.126-3.5c-0.097-0.155-0.182-0.327-0.292-0.473c-0.387-0.119-0.794-0.06-1.188-0.028
		c0.24,1.529,0.508,3.144-0.111,4.618c-0.179,0.258-0.364,0.522-0.565,0.764c-0.095,0.023-0.293,0.064-0.395,0.084
		c0.022,0.198,0.044,0.392,0.071,0.588c-0.025,0.149-0.073,0.45-0.096,0.599c-0.197,0.124-0.423,0.222-0.642,0.086
		c-0.916-0.417-1.52-1.272-2.222-1.956c-0.403,0.5-0.659,1.092-0.754,1.727c-0.138-0.337-0.317-0.663-0.355-1.033
		c-0.007-0.604,0.366-1.104,0.678-1.592c-0.251-0.775-0.358-1.614-0.747-2.338c-0.83-0.581-1.917-0.355-2.674,0.235
		c0.125-0.558,0.107-1.412,0.816-1.564c0.966-0.177,1.784,0.492,2.584,0.912c-0.267-0.492-0.514-1.045-0.998-1.375
		c-0.419-0.323-0.975-0.279-1.473-0.284c0.255-0.396,0.561-0.986,1.141-0.807c1.021,0.307,1.539,1.317,2.26,2.017
		c-0.085-0.934-0.72-1.63-1.17-2.397c0.015-0.049,0.05-0.152,0.066-0.201c0.273,0.195,0.277,0.729,0.634,0.901
		c0.236,0.139,0.454,0.306,0.66,0.487c0.111,0.354,0.233,0.702,0.355,1.055c0.097,0,0.291-0.003,0.388-0.006
		c0.131-1.221,0.497-2.406,0.971-3.534c0.195-0.567,0.436-1.122,0.729-1.645c0.345-0.328,0.645-0.716,1.072-0.942l0.032-0.137
		c0.076,0.019,0.226,0.054,0.304,0.074l-0.006-0.244c0.08,0.025,0.233,0.069,0.314,0.091l0.008-0.168
		c0.362-0.107,0.744-0.181,1.075-0.366c0.219-0.243,0.365-0.543,0.53-0.824c0.473-0.579,1.116-0.972,1.655-1.481
		c0.276-0.173,0.576-0.318,0.819-0.534c0.2-0.415,0.323-0.862,0.508-1.283c0.226-0.331,0.465-0.651,0.675-0.986
		c0.514-0.52,0.986-1.092,1.608-1.487c0.192-0.093,0.226-0.301,0.292-0.479l0.062-0.038c0.426-0.764,0.993-1.479,1.697-1.997
		c0.349-0.368,0.757-0.666,1.205-0.902l0.049-0.063c0.603-0.301,1.172-0.68,1.812-0.896c0.552-0.26,1.271-0.332,1.562-0.942
		c0.164-0.541,0.082-1.119,0.176-1.672c0.082,0.144,0.162,0.289,0.241,0.439C27.883,7.526,27.962,7.559,28,7.575l-0.091,0.244
		c0.064,0.015,0.182,0.042,0.247,0.056l-0.077,0.289l0.435-0.006c-0.023-0.563-0.047-1.13-0.208-1.674
		c0.473,0.323,1.019,0.593,1.349,1.086c0.123,0.188,0.325,0.293,0.516,0.407c0.064-0.634-0.053-1.26-0.167-1.882
		c-0.067-0.138-0.138-0.276-0.203-0.413c0.218,0.222,0.423,0.454,0.611,0.701c0.196,0.315,0.358,0.653,0.452,1.017
		c0.161-0.021,0.323-0.036,0.488-0.053c-0.021-0.064-0.06-0.188-0.083-0.252l0.19-0.035c-0.012-0.366-0.012-0.733-0.003-1.1
		c0.065,0.208,0.127,0.421,0.186,0.634l0.323-0.011c0.005-0.289,0.015-0.577,0.021-0.864c0.252,0.226,0.587,0.25,0.91,0.252
		c0.105-0.343,0.17-0.696,0.218-1.054c0.009,0.006,0.028,0.021,0.04,0.026c0.13,0.224,0.276,0.439,0.399,0.668
		c0.112,0.003,0.341,0.013,0.458,0.019c0.01-0.37,0.021-0.739,0.012-1.105c0.165-0.074,0.329-0.141,0.494-0.204l-0.103-0.156
		l0.249,0.047l-0.047-0.256l0.234,0.107c-0.031-0.467-0.246-0.879-0.563-1.212c0.224,0.079,0.452,0.161,0.681,0.241l-0.052,0.102
		c0.27,0.11,0.487,0.307,0.734,0.455c0.41-0.271,0.249-0.843,0.279-1.263c0.131,0.194,0.337,0.287,0.561,0.345
		c-0.06-0.268-0.118-0.533-0.194-0.796c-0.429-0.502-0.875-1.022-1.488-1.299c0.319,0.031,0.637,0.096,0.942,0.21l-0.03,0.11
		c0.317,0.132,0.605,0.376,0.694,0.725l0.185-0.094l-0.115,0.241c0.145-0.003,0.435-0.003,0.582-0.003
		c-0.064-0.407-0.229-0.783-0.394-1.154l-0.064-0.013C36.472,0.495,36.325,0.339,36.182,0.179z"/>
</g>
</svg>
