<?xml version="1.0" encoding="utf-8"?>
<!-- Generator: Adobe Illustrator 16.2.1, SVG Export Plug-In . SVG Version: 6.00 Build 0)  -->
<!DOCTYPE svg PUBLIC "-//W3C//DTD SVG 1.1//EN" "http://www.w3.org/Graphics/SVG/1.1/DTD/svg11.dtd">
<svg version="1.1"
	 id="svg10898" xmlns:dc="http://purl.org/dc/elements/1.1/" xmlns:cc="http://creativecommons.org/ns#" xmlns:rdf="http://www.w3.org/1999/02/22-rdf-syntax-ns#" xmlns:svg="http://www.w3.org/2000/svg"
	 xmlns="http://www.w3.org/2000/svg" xmlns:xlink="http://www.w3.org/1999/xlink" x="0px" y="0px" width="50px" height="50px"
	 viewBox="396.957 113.65 50 50" enable-background="new 396.957 113.65 50 50" xml:space="preserve">
<g id="layer1" transform="translate(37.390924,-399.75523)">
	<g id="g10979" transform="matrix(7.7174913,0,0,7.7174913,-7550.9751,-3213.6961)">
		<g id="g10059" transform="matrix(1.25,0,0,-1.25,1076.7619,483.00326)">
			<path id="path10061" fill="#EE2722" d="M-41.398-4.24c0-0.467,0.388-0.85,0.867-0.85h3.448c0.479,0,0.868,0.383,0.868,0.85v3.395
				c0,0.468-0.389,0.85-0.868,0.85h-3.448c-0.478,0-0.867-0.382-0.867-0.85V-4.24z"/>
		</g>
		<g id="g10063" transform="matrix(1.25,0,0,-1.25,1081.0776,475.41476)">
			<path id="path10065" fill="#FFFFFF" d="M-42.995-7.049c0,0,0.436-1.253,0.474-1.36c-0.106-0.004-0.502-0.026-0.502-0.026
				c-0.004-0.001-0.617-0.066-0.728-0.079l-0.409,0.42l-0.28-0.027l0.211-0.542l-0.21-0.549l0.28-0.028l0.404,0.415l0.728-0.072
				c0.002,0,0.329-0.021,0.506-0.027c-0.038-0.107-0.497-1.426-0.497-1.426l0.358,0.026l1.035,1.427h0.986l0.244,0.02
				c0.138,0.02,0.344,0.167,0.352,0.174l0.052,0.037l-0.052,0.037c-0.008,0.006-0.214,0.153-0.353,0.174l-0.244,0.021h-0.986
				L-42.66-7.01l-0.358,0.027L-42.995-7.049z"/>
		</g>
	</g>
</g>
</svg>
