<?xml version="1.0" encoding="utf-8"?>
<!-- Generator: Adobe Illustrator 16.2.1, SVG Export Plug-In . SVG Version: 6.00 Build 0)  -->
<!DOCTYPE svg PUBLIC "-//W3C//DTD SVG 1.1//EN" "http://www.w3.org/Graphics/SVG/1.1/DTD/svg11.dtd">
<svg version="1.1" id="Layer_1" xmlns="http://www.w3.org/2000/svg" xmlns:xlink="http://www.w3.org/1999/xlink" x="0px" y="0px"
	 width="50px" height="50px" viewBox="209.849 66.686 50 50" enable-background="new 209.849 66.686 50 50" xml:space="preserve">
<g>
	<polygon fill="#2E378F" points="209.849,105.945 238.533,105.945 243.644,77.426 	"/>
	<path fill="#F6B624" d="M239.694,89.884l0.238-9.325l-0.785,0.662l-0.218,8.743l-1.057,3.88h0.001
		c-0.001,0.001-0.002,0.001-0.004,0.001l0.002-0.001l-1.811-3.308l-0.965-5.897l-0.681,0.574l0.852,5.323v4.163l0.023-0.009
		c-0.014,0.007-0.027,0.014-0.041,0.02l0.018-0.01l-2.497-2.927l-2.148-3.358l-0.577,0.485l2.054,3.214l0.977,3.74l0.026-0.015
		c-0.019,0.014-0.037,0.024-0.053,0.035l0.026-0.021l-3.335-2.254l-2.108-2.663l-0.565,0.477l2.088,2.639l1.881,3.359l-3.832-1.533
		l-2.806-2.213l-0.565,0.479l2.889,2.281l2.65,2.797l0.026-0.027c-0.015,0.017-0.028,0.034-0.041,0.052l0.015-0.024l-4.156-0.718
		l-4.305-1.896l-0.604,0.51l4.547,2.005l3.175,2.233l0.023-0.037c-0.014,0.028-0.026,0.055-0.04,0.082l0.017-0.045l-4.089-0.285
		l-6.297-1.702l-0.654,0.552l6.71,1.815l3.462,1.854l-4.055,0.479l-10.337-0.59l-0.775,0.656l11.009,0.625l3.746,1.046l14.099-11.68
		L239.694,89.884L239.694,89.884z"/>
	<polygon fill="#EE272B" points="226.055,105.945 254.738,105.945 259.849,77.426 	"/>
</g>
</svg>
