<?xml version="1.0" encoding="utf-8"?>
<!-- Generator: Adobe Illustrator 16.2.1, SVG Export Plug-In . SVG Version: 6.00 Build 0)  -->
<!DOCTYPE svg PUBLIC "-//W3C//DTD SVG 1.1//EN" "http://www.w3.org/Graphics/SVG/1.1/DTD/svg11.dtd">
<svg version="1.1" id="Layer_1" xmlns="http://www.w3.org/2000/svg" xmlns:xlink="http://www.w3.org/1999/xlink" x="0px" y="0px"
	 width="50px" height="50px" viewBox="0 0 50 50" enable-background="new 0 0 50 50" xml:space="preserve">
<g id="_x39_0YoTz.tif">
	<g>
		<path fill-rule="evenodd" clip-rule="evenodd" fill="#ED2325" d="M5.561,20.356c-0.363,1.246-0.517,2.522-0.531,3.816
			c-0.048,4.272,1.3,8.109,3.692,11.597c2.736,3.987,6.361,6.861,10.909,8.538c2.218,0.82,4.516,1.217,6.883,1.154
			c0.714-0.02,1.425-0.093,2.131-0.215c0.703-0.121,1.393-0.289,2.093-0.444c-0.302,0.099-0.6,0.208-0.905,0.295
			c-2.449,0.694-4.938,0.865-7.462,0.569c-4.477-0.522-8.46-2.255-12.022-4.967c-4.1-3.124-7.101-7.091-8.92-11.926
			c-1.065-2.83-1.568-5.762-1.393-8.783C0.269,15.93,1.615,12.3,4.426,9.295C6.63,6.94,9.348,5.46,12.471,4.696
			c1.433-0.351,2.894-0.508,4.365-0.503c3.179,0.011,6.21,0.726,9.11,2.01c2.096,0.929,4.037,2.117,5.817,3.562
			c0.107,0.087,0.228,0.155,0.032,0.269c-0.893-0.618-1.797-1.213-2.757-1.725c-2.479-1.32-5.108-2.147-7.913-2.341
			c-1.503-0.104-3.009-0.038-4.496,0.277c-2.418,0.513-4.588,1.535-6.435,3.185c-2.098,1.875-3.454,4.209-4.145,6.934
			C5.717,17.676,5.59,19.01,5.561,20.356z"/>
		<path fill-rule="evenodd" clip-rule="evenodd" fill="#3E5CAA" d="M50,33.515c-0.295,0.08-0.506-0.077-0.729-0.164
			c-0.478-0.188-0.552-0.165-0.746,0.299c-0.237-0.146-0.486-0.274-0.703-0.442c-0.223-0.174-0.419-0.127-0.575,0.043
			c-0.144,0.16-0.221,0.088-0.331-0.017c-0.196-0.183-0.399-0.357-0.595-0.54c-0.117-0.111-0.241-0.13-0.38-0.055
			c-0.291,0.159-0.534,0.062-0.757-0.14c-0.133-0.12-0.255-0.252-0.392-0.366c-0.151-0.127-0.314-0.189-0.523-0.113
			c-0.206,0.075-0.416,0.038-0.599-0.086c-0.173-0.115-0.345-0.233-0.505-0.367c-0.188-0.157-0.352-0.284-0.629-0.152
			c-0.221,0.104-0.446-0.033-0.637-0.164c-0.13-0.09-0.252-0.193-0.368-0.303c-0.167-0.157-0.326-0.267-0.575-0.14
			c-0.2,0.101-0.385-0.016-0.547-0.138c-0.085-0.066-0.172-0.144-0.233-0.231c-0.168-0.24-0.374-0.352-0.679-0.304
			c-0.258,0.041-0.491-0.065-0.688-0.228c-0.215-0.177-0.416-0.369-0.621-0.557c-0.274-0.25-0.568-0.372-0.952-0.255
			c-0.218,0.065-0.468,0.107-0.538-0.254c-0.03-0.165-0.21-0.259-0.372-0.316c-0.177-0.065-0.358-0.118-0.538-0.176
			c-0.152-0.049-0.358-0.097-0.401-0.231c-0.117-0.366-0.416-0.411-0.71-0.491c-0.037-0.011-0.098-0.025-0.103-0.048
			c-0.07-0.405-0.433-0.282-0.674-0.366c-0.172-0.06-0.262-0.128-0.281-0.321c-0.039-0.359-0.191-0.521-0.546-0.576
			c-0.186-0.029-0.284-0.067-0.26-0.286c0.021-0.195-0.106-0.331-0.27-0.429c-0.199-0.118-0.422-0.17-0.637-0.245
			c-0.159-0.056-0.352-0.082-0.462-0.189c-0.248-0.24-0.498-0.225-0.811-0.176c-0.815,0.125-1.517-0.2-2.16-0.663
			c-0.13-0.094-0.253-0.133-0.409-0.132c-1.012,0.003-2.026,0.003-3.039,0.062c-0.083,0.005-0.173,0.049-0.284-0.071
			c0.615-0.019,1.168-0.186,1.738-0.269c0.833-0.12,1.672-0.217,2.463-0.532c0.372-0.149,0.708-0.352,0.98-0.653
			c0.13-0.144,0.152-0.268,0.021-0.413c-0.109-0.118-0.206-0.243-0.185-0.42c0.013-0.105-0.079-0.134-0.143-0.168
			c-0.141-0.072-0.284-0.149-0.435-0.191c-0.198-0.054-0.312-0.142-0.268-0.366c0.029-0.156-0.032-0.243-0.206-0.242
			c-0.088,0-0.175-0.034-0.261-0.055c-0.456-0.11-0.481-0.159-0.25-0.56c0.069-0.12,0.066-0.172-0.067-0.213
			c-0.095-0.027-0.185-0.072-0.278-0.104c-0.257-0.089-0.523-0.144-0.589-0.485c-0.025-0.139-0.196-0.216-0.314-0.307
			c-0.109-0.085-0.226-0.166-0.314-0.271c-0.166-0.196-0.202-0.398,0.016-0.601c0.21-0.196,0.423-0.393,0.528-0.674
			c0.064-0.178,0.06-0.303-0.183-0.313c-0.176-0.007-0.351-0.047-0.547-0.076c0.173-0.459,0.126-0.893-0.14-1.299
			c-0.026-0.038-0.088-0.097-0.032-0.124c0.324-0.157,0.119-0.606,0.458-0.787c0.114-0.061,0.056-0.378,0.004-0.568
			c-0.043-0.16-0.001-0.202,0.143-0.183c0.164,0.023,0.202-0.052,0.191-0.201c-0.015-0.186,0.064-0.344,0.164-0.499
			c0.076-0.115,0.146-0.243,0.173-0.375c0.031-0.14,0.01-0.247,0.227-0.244c0.135,0.002,0.107-0.212,0.131-0.325
			c0.029-0.127,0.05-0.208,0.196-0.185c0.278,0.047,0.408-0.061,0.348-0.377c0.223,0.108,0.393,0.249,0.604,0.311
			c0.274,0.081,0.549,0.131,0.792-0.069c0.097-0.079,0.17-0.032,0.243,0.01c0.231,0.134,0.456,0.279,0.685,0.417
			c0.056,0.034,0.107,0.117,0.176,0.074c0.072-0.044,0.074-0.137,0.061-0.218c-0.014-0.088-0.037-0.175,0.002-0.291
			c0.135,0.068,0.186,0.201,0.263,0.304c0.244,0.327,0.483,0.658,0.794,0.925c0.392,0.337,0.395,0.334,0.679-0.11
			c0.183,0.347,0.362,0.683,0.538,1.021c0.303,0.586,0.731,1.05,1.296,1.402c0.411,0.257,0.825,0.523,1.089,0.954
			c0.048,0.079,0.119,0.091,0.203,0.101c0.595,0.068,0.964,0.416,1.184,0.953c0.197,0.479,0.271,0.992,0.413,1.486
			c0.058,0.2,0.12,0.398,0.192,0.594c0.188,0.497,0.559,0.779,1.065,0.903c0.711,0.175,1.443,0.22,2.158,0.131
			c1.517-0.185,2.938,0.058,4.302,0.736c0.54,0.268,1.12,0.44,1.725,0.566c-0.362,0.079-0.729,0.149-1.088,0.241
			c-1.338,0.34-2.492,1.061-3.636,1.796c-0.244,0.155-0.096,0.356,0.032,0.506c0.114,0.135,0.27,0.229,0.263,0.44
			c-0.003,0.126,0.114,0.081,0.183,0.086c0.35,0.022,0.676,0.08,0.843,0.448c0.016,0.037,0.07,0.063,0.112,0.086
			c1.353,0.686,2.322,1.78,3.184,2.988c0.82,1.147,1.52,2.377,2.372,3.502C49.334,32.786,49.665,33.14,50,33.515z"/>
		<path fill-rule="evenodd" clip-rule="evenodd" fill="#3E5CAA" d="M5.561,20.356c0.029-1.347,0.156-2.681,0.488-3.991
			c0.691-2.725,2.047-5.059,4.145-6.934c1.847-1.649,4.017-2.672,6.435-3.185c1.487-0.315,2.993-0.382,4.496-0.277
			c2.805,0.194,5.434,1.021,7.913,2.341c0.959,0.511,1.864,1.106,2.757,1.725c-0.047,0.075-0.093,0.15-0.14,0.225
			c-2.627-1.712-5.491-2.713-8.637-2.853c-1.282-0.058-2.546,0.074-3.79,0.395c-3.685,0.949-6.324,3.14-7.871,6.63
			c-0.267,0.604-0.429,1.243-0.658,1.858c-0.99,1.424-1.621,2.998-1.897,4.702c-0.691,4.245,0.361,8.118,2.68,11.66
			c2.577,3.938,6.109,6.653,10.646,8.009c0.151,0.045,0.302,0.085,0.462,0.13c-0.081,0.076-0.164,0.024-0.234,0.009
			c-3.469-0.851-6.523-2.496-9.202-4.844c-2.734-2.396-4.815-5.262-6.173-8.643c-0.868-2.166-1.327-4.417-1.404-6.748
			C5.574,20.495,5.566,20.426,5.561,20.356z"/>
		<path fill-rule="evenodd" clip-rule="evenodd" fill="#1B7D3F" d="M10.699,16.289c0.229-0.616,0.392-1.254,0.658-1.858
			c1.547-3.49,4.187-5.681,7.871-6.63c1.244-0.32,2.508-0.453,3.79-0.395c3.146,0.14,6.01,1.141,8.637,2.853
			c-0.21,0.327-0.263,0.689-0.223,1.14c-0.185-0.203-0.241-0.388-0.303-0.567c-0.08-0.232-0.151-0.47-0.283-0.68
			c-0.119-0.195-0.279-0.336-0.529-0.319c-0.252,0.017-0.416,0.157-0.51,0.385c-0.061,0.145-0.119,0.292-0.114,0.454
			c0.004,0.165-0.074,0.168-0.177,0.08c-0.127-0.112-0.242-0.234-0.364-0.352c-0.212-0.203-0.435-0.363-0.757-0.338
			c-0.196,0.014-0.263,0.09-0.258,0.274c0.005,0.205-0.016,0.412,0.074,0.638c-0.117-0.075-0.233-0.151-0.35-0.224
			c-0.168-0.104-0.337-0.202-0.544-0.203c-0.401,0-0.557,0.226-0.354,0.567c0.145,0.247,0.066,0.297-0.167,0.267
			c-0.175-0.023-0.216,0.045-0.215,0.211c0.001,0.172,0.056,0.331,0.091,0.493c0.022,0.102,0.056,0.205-0.03,0.277
			c-0.067,0.057-0.149-0.015-0.217-0.039c-1.537-0.55-3.121-0.811-4.751-0.758c-4.739,0.152-8.622,3.077-9.659,7.843
			c-0.642,2.948-0.127,5.745,1.123,8.44c0.867,1.866,2.073,3.491,3.562,4.908c0.116,0.109,0.226,0.222,0.337,0.333
			c0.003,0.005-0.003,0.018-0.011,0.065c-0.234-0.202-0.46-0.385-0.672-0.586c-2.701-2.545-4.617-5.565-5.538-9.186
			c-0.586-2.305-0.669-4.62-0.122-6.947C10.704,16.391,10.698,16.339,10.699,16.289z"/>
		<path fill-rule="evenodd" clip-rule="evenodd" fill="#1B7D3F" d="M38.05,32.706c-0.882,1.152-1.905,2.153-3.146,2.919
			c-1.547,0.953-3.227,1.52-5.033,1.741c-2.847,0.347-5.552-0.167-8.166-1.287c-0.005-0.003-0.003-0.02-0.01-0.053
			c0.333,0.117,0.655,0.23,0.977,0.342c1.594,0.545,3.235,0.786,4.912,0.68c2.526-0.157,4.772-1.03,6.611-2.81
			c1.16-1.123,1.961-2.48,2.458-4.017c0.146-0.447,0.408-0.568,0.867-0.396c0.289,0.107,0.498,0.324,0.711,0.528
			c0.255,0.244,0.521,0.457,0.887,0.502C38.82,31.506,38.429,32.103,38.05,32.706z"/>
		<path fill-rule="evenodd" clip-rule="evenodd" fill="#1B7D3F" d="M32.743,10.731c0.804,0.666,1.513,1.375,2.187,2.116
			c1.91,2.1,3.425,4.463,4.625,7.03c0.156,0.331,0.156,0.339-0.199,0.355c-0.207,0.01-0.416-0.011-0.623-0.021
			c-0.2-0.011-0.305-0.143-0.401-0.303c-0.292-0.498-0.403-1.055-0.504-1.605c-0.159-0.861-0.606-1.445-1.387-1.873
			c-1.268-0.697-2.353-1.618-3.023-2.947c-0.337-0.666-0.464-1.383-0.56-2.111C32.833,11.177,32.79,10.984,32.743,10.731z"/>
		<path fill-rule="evenodd" clip-rule="evenodd" fill="#3E5CAA" d="M38.05,32.706c0.379-0.604,0.771-1.2,1.069-1.851
			c0.514-0.083,0.761,0.309,1.058,0.604c0.071,0.069,0.018,0.167-0.011,0.252c-1.635,4.852-4.952,7.889-9.896,9.166
			c-0.632,0.164-1.284,0.229-1.922,0.35c0.01-0.036,0.021-0.073,0.031-0.11c0.995-0.09,1.946-0.361,2.864-0.74
			c3.468-1.43,5.705-3.978,6.796-7.552C38.048,32.786,38.045,32.746,38.05,32.706z"/>
		<path fill-rule="evenodd" clip-rule="evenodd" fill="#ED2325" d="M35.767,41.865c1.239-1.131,2.219-2.431,2.954-3.913
			c0.86-1.743,1.348-3.587,1.488-5.525c0.011-0.167,0.064-0.342,0.037-0.502c-0.064-0.361,0.146-0.392,0.409-0.394
			c0.629-0.003,0.679,0.057,0.568,0.703c-0.456,2.672-1.47,5.104-3.11,7.27c-0.637,0.841-1.361,1.604-2.159,2.296
			C35.913,41.835,35.882,41.901,35.767,41.865z"/>
	</g>
</g>
</svg>
