<?xml version="1.0" encoding="utf-8"?>
<!-- Generator: Adobe Illustrator 16.2.1, SVG Export Plug-In . SVG Version: 6.00 Build 0)  -->
<!DOCTYPE svg PUBLIC "-//W3C//DTD SVG 1.1//EN" "http://www.w3.org/Graphics/SVG/1.1/DTD/svg11.dtd">
<svg version="1.1" id="Layer_1" xmlns="http://www.w3.org/2000/svg" xmlns:xlink="http://www.w3.org/1999/xlink" x="0px" y="0px"
	 width="50px" height="50px" viewBox="201.798 161.928 50 50" enable-background="new 201.798 161.928 50 50" xml:space="preserve">
<path fill="#006BB6" d="M220.508,197.193c1.238-0.926,2.258-2.178,2.782-3.559c1.379-0.144,2.496-0.146,2.496-0.146
	s-1.12-0.009-2.395-0.158c0.411-1.284,0.332-2.518-0.224-3.464c1.255-1.072,2.386-1.898,2.386-1.898s-1.136,0.817-2.527,1.669
	c-0.563-0.798-1.451-1.291-2.537-1.427c0.325-1.212,0.742-2.61,1.196-4.063l-0.295-0.672c-0.691,1.686-1.39,3.322-2.032,4.718
	c-1.229,0.113-2.489,0.627-3.597,1.401c-0.736-0.836-1.248-1.626-1.248-1.626s0.494,0.803,0.941,1.849
	c-1.209,0.922-2.204,2.155-2.717,3.513c-1.41,0.153-2.564,0.159-2.564,0.159s1.149,0.046,2.441,0.217
	c-0.378,1.24-0.297,2.429,0.228,3.349c-1.277,1.099-2.441,1.953-2.441,1.953s1.191-0.819,2.614-1.672
	c0.608,0.85,1.584,1.35,2.778,1.436c-0.334,1.357-0.723,2.524-0.723,2.524s0.431-1.153,1.087-2.507c0.002,0,0.005,0,0.007,0
	c1.345,0,2.76-0.516,3.997-1.353c0.741,0.815,1.278,1.572,1.278,1.572S220.954,198.223,220.508,197.193 M220.242,196.536
	c-0.103-0.282-0.195-0.573-0.271-0.864c0.571-0.49,1.052-1.087,1.367-1.741c0.383-0.079,0.776-0.146,1.16-0.199
	C222.014,194.807,221.207,195.781,220.242,196.536 M214.799,194.142c0.255,0.078,0.487,0.164,0.685,0.261
	c-0.188,0.25-0.411,0.511-0.656,0.776C214.743,194.864,214.732,194.516,214.799,194.142 M221.211,192.907
	c-0.284-0.089-0.542-0.191-0.76-0.311c0.208-0.279,0.46-0.573,0.739-0.871C221.296,192.079,221.303,192.479,221.211,192.907
	 M219.827,191.287c0.023-0.218,0.062-0.469,0.115-0.754c0.288,0.082,0.538,0.214,0.742,0.395
	C220.385,191.066,220.097,191.19,219.827,191.287 M217.77,191.282c-0.168-0.084-0.336-0.178-0.502-0.293
	c0.29-0.16,0.591-0.287,0.896-0.381C218.025,190.861,217.895,191.084,217.77,191.282 M216.163,192.603
	c-0.272,0.105-0.567,0.199-0.876,0.281c0.22-0.37,0.496-0.715,0.81-1.023C216.141,192.115,216.162,192.364,216.163,192.603
	 M216.264,195.669c0.008,0.236-0.006,0.504-0.036,0.79c-0.335-0.072-0.626-0.21-0.859-0.408
	C215.686,195.9,215.988,195.769,216.264,195.669 M218.042,195.661c0.199,0.099,0.402,0.22,0.606,0.368
	c-0.385,0.199-0.786,0.346-1.188,0.424C217.649,196.168,217.844,195.901,218.042,195.661 M219.79,194.375
	c0.297-0.116,0.62-0.218,0.958-0.306c-0.237,0.4-0.54,0.772-0.887,1.099C219.812,194.896,219.789,194.631,219.79,194.375
	 M222.695,193.237c-0.357-0.057-0.712-0.125-1.046-0.207c0.131-0.605,0.093-1.18-0.11-1.666c0.348-0.35,0.723-0.699,1.1-1.034
	C223.057,191.123,223.077,192.136,222.695,193.237 M222.43,189.996c-0.433,0.253-0.876,0.5-1.309,0.719
	c-0.285-0.301-0.656-0.513-1.089-0.628c0.078-0.366,0.172-0.768,0.283-1.202C221.227,188.978,221.964,189.365,222.43,189.996
	 M218.452,190.067c-0.537,0.11-1.071,0.329-1.572,0.629c-0.224-0.185-0.443-0.387-0.65-0.596c0.866-0.591,1.827-1.004,2.781-1.163
	C218.817,189.344,218.63,189.722,218.452,190.067 M215.718,190.477c0.104,0.285,0.197,0.579,0.271,0.872
	c-0.54,0.478-0.994,1.051-1.295,1.678c-0.383,0.081-0.776,0.148-1.163,0.204C214.004,192.179,214.784,191.225,215.718,190.477
	 M213.308,193.809c0.361,0.061,0.72,0.131,1.055,0.213c-0.104,0.551-0.065,1.074,0.112,1.525c-0.347,0.352-0.723,0.705-1.102,1.044
	C212.983,195.826,212.963,194.856,213.308,193.809 M213.619,196.981c0.438-0.252,0.884-0.499,1.314-0.717
	c0.32,0.328,0.742,0.55,1.239,0.649c-0.055,0.379-0.132,0.777-0.218,1.174C214.944,198.04,214.125,197.653,213.619,196.981
	 M216.515,198.079c0.196-0.377,0.406-0.757,0.627-1.121c0.638-0.06,1.287-0.284,1.891-0.626c0.224,0.188,0.445,0.392,0.656,0.604
	C218.697,197.586,217.59,198.005,216.515,198.079 M216.352,193.478c0.342-0.919,1.365-1.663,2.284-1.663
	c0.918,0,1.386,0.744,1.044,1.663c-0.342,0.919-1.365,1.664-2.283,1.664C216.478,195.142,216.01,194.397,216.352,193.478"/>
<path fill="#006BB6" d="M201.798,184.708l3.873-6.238h1.993l-0.304,6.239h-2.253l0.069-1.248h-1.741l-0.771,1.248 M205.219,182.689
	l0.172-2.435l-1.48,2.435H205.219z"/>
<polyline fill="#006BB6" points="207.55,184.708 209.577,178.469 211.83,178.469 209.803,184.708 "/>
<path fill="#006BB6" d="M210.425,184.708l2.027-6.238h3.077c0.164,0,1.084,0.044,1.429,0.312c0.605,0.478,0.624,1.457-0.22,2.201
	c-0.355,0.312-0.769,0.512-1.195,0.572c0.066,0.018,0.133,0.035,0.198,0.061c0.553,0.217,0.696,0.503,0.594,1.066
	c-0.012,0.068-0.032,0.138-0.052,0.207l-0.281,0.953c-0.112,0.416-0.117,0.65-0.049,0.866h-2.331
	c-0.034-0.26,0.003-0.433,0.233-1.136l0.311-0.926c0.02-0.07,0.04-0.14,0.059-0.2c0.138-0.562,0.045-0.736-0.38-0.736h-0.208
	l-0.976,2.998 M214.081,181.069c0.468,0,0.761-0.199,0.969-0.668c0.39-0.883,0.235-1.256-0.242-1.256h-0.329l-0.624,1.924H214.081
	L214.081,181.069z"/>
<path fill="#006BB6" d="M232.025,178.365c1.708,0.348,2.368,1.543,1.202,3.917c-0.801,1.629-2.354,2.678-4.048,2.556
	c-2.226-0.164-2.264-2.062-1.565-3.656C228.464,179.241,230.533,178.062,232.025,178.365 M229.857,181.597
	c-0.349,0.997-0.912,2.505-0.363,2.591c0.896,0.139,1.177-1.343,1.566-2.322c0.443-1.1,0.984-2.842,0.396-2.902
	C230.572,178.869,230.239,180.497,229.857,181.597"/>
<path fill="#006BB6" d="M233.021,184.708l2.026-6.238h3.077c0.165,0,1.084,0.044,1.429,0.312c0.605,0.478,0.624,1.457-0.219,2.201
	c-0.355,0.312-0.771,0.512-1.197,0.572c0.067,0.018,0.134,0.035,0.198,0.061c0.554,0.217,0.696,0.503,0.593,1.066
	c-0.011,0.068-0.031,0.138-0.051,0.207l-0.28,0.953c-0.113,0.416-0.118,0.65-0.049,0.866h-2.331
	c-0.035-0.26,0.002-0.433,0.232-1.136l0.311-0.926c0.021-0.07,0.041-0.14,0.06-0.2c0.137-0.562,0.044-0.736-0.38-0.736h-0.209
	l-0.975,2.998 M236.676,181.069c0.468,0,0.761-0.199,0.969-0.668c0.389-0.883,0.235-1.256-0.242-1.256h-0.329l-0.623,1.924H236.676
	L236.676,181.069z"/>
<polyline fill="#006BB6" points="240.213,179.241 240.462,178.469 245.852,178.469 245.602,179.25 244.033,179.25 242.257,184.708 
	239.995,184.708 241.772,179.241 "/>
<polyline fill="#006BB6" points="244.2,184.708 246.228,178.469 248.489,178.469 247.693,180.905 248.742,180.905 249.538,178.469 
	251.798,178.469 249.771,184.708 247.519,184.708 248.513,181.649 247.448,181.649 246.453,184.708 "/>
<path fill="#006BB6" d="M223.257,178.787c1.342-3.458,2.352-6.226,2.352-6.226s-1.042,2.886-2.243,6.443"/>
<path fill="#7FB5DA" d="M217.114,192.109c0.109-0.079,0.236-0.222,0.376-0.41c-1.058-0.716-2.013-2.196-2.013-2.196
	s0.955,1.55,1.154,2.895C216.808,192.308,216.971,192.214,217.114,192.109"/>
<path fill="#7FB5DA" d="M219.874,192.109c0.064,0.103,0.155,0.196,0.265,0.283c1.201-1.349,3.311-2.89,3.311-2.89
	s-2.057,1.479-3.647,2.195C219.803,191.886,219.824,192.03,219.874,192.109"/>
<path fill="#7FB5DA" d="M218.846,194.869c-0.152,0.111-0.305,0.249-0.457,0.403c1.033,0.715,2.09,2.202,2.09,2.202
	s-0.961-1.542-1.158-2.891C219.148,194.672,218.987,194.766,218.846,194.869"/>
<path fill="#7FB5DA" d="M216.086,194.869c-0.062-0.1-0.158-0.19-0.279-0.277c-1.202,1.343-3.299,2.883-3.299,2.883
	s2.154-1.481,3.719-2.197C216.197,195.113,216.152,194.973,216.086,194.869"/>
<path fill="#006BB6" d="M219.589,177.975c-0.057-0.51-0.42-1.019-0.781-1.433c-0.512-0.242-0.76-0.428-1.628-0.461l-0.062-0.574
	h4.126c1.12,2.904,2.637,5.647,3.868,8.438c0.466-1.197,2.334-7.71,5.838-8.584c0.473-0.112,0.667-0.22,1.521-0.16
	c0.686,0.048,1.334,0.553,1.334,1.298s-0.516,1.346-1.346,1.346c-0.829,0-1.297-0.576-1.297-1.105c0-0.396,0.167-0.601,0.167-0.601
	c-0.72-0.12-1.917,0.832-3.049,2.523c-0.928,1.386-2.761,6.046-3.487,9.061l-0.961,0.009c-1.312-2.863-2.438-5.801-3.82-8.641
	c-0.466,1.197-2.334,7.71-5.838,8.583c-0.474,0.112-0.668,0.221-1.522,0.161c-0.686-0.049-1.334-0.554-1.334-1.298
	c0-0.745,0.517-1.346,1.346-1.346c0.829,0,1.298,0.576,1.298,1.105c0,0.396-0.169,0.601-0.169,0.601
	c0.722,0.12,1.918-0.832,3.05-2.523C216.842,184.375,218.447,181.734,219.589,177.975"/>
<path fill="#F15D2A" d="M227.222,189.648c0.003-0.034,0.003-0.056,0.003-0.062l0.022-0.052c0.026-0.105,0.026-0.105,0.026-0.114
	l0.049-0.031c0.017,0.005,0.021,0.005,0.03,0.018c0.04,0,0.036,0.005,0.075-0.03l0.04-0.031l0.071-0.088
	c0.057-0.062,0.083-0.097,0.083-0.097c0.005-0.003,0.066-0.084,0.071-0.088l0.066-0.078l0.026-0.044l0.127-0.153
	c0.005-0.036,0.009-0.045,0.036-0.062c0-0.021,0-0.027-0.018-0.04c-0.031,0.013-0.052,0.021-0.064,0.025
	c-0.106,0.045-0.115,0.045-0.186,0.045c-0.057,0-0.087-0.005-0.149-0.027c-0.004-0.024-0.008-0.034-0.035-0.052
	c-0.008-0.048-0.013-0.062-0.036-0.097c0.018-0.018-0.004,0-0.004-0.171c0-0.014-0.004-0.07-0.007-0.158
	c-0.006-0.026-0.006-0.053-0.006-0.083c0-0.022,0-0.045,0.006-0.07l0.017-0.452l0.044-0.356l0.083-0.43v-0.044l-0.013,0.004v-0.013
	c-0.022,0.009-0.036,0.013-0.045,0.017c-0.039,0.015-0.047,0.018-0.065,0.04c-0.021,0-0.035,0-0.043,0.004l-0.018,0.015
	c-0.008,0.004-0.013,0.004-0.022,0.004c-0.012,0-0.031-0.004-0.052-0.022h-0.018l0.013-0.035l0.321-0.272
	c0.048-0.043,0.145-0.092,0.185-0.092c0.009,0,0.013,0,0.021,0.004l0.044,0.027c0.045,0.021,0.045,0.026,0.049,0.058
	c0.004,0.008,0.008,0.025,0.013,0.044c-0.035,0.039-0.048,0.057-0.057,0.069c-0.031,0.044-0.083,0.168-0.1,0.229l-0.022,0.088
	c-0.063,0.24-0.126,0.599-0.137,0.838l-0.017,0.189c-0.005,0.039-0.009,0.078-0.009,0.109c0,0.03,0.004,0.053,0.004,0.079
	l0.009,0.079l0.006,0.123l0.021,0.07l0.005,0.03c0.004,0.013,0.012,0.026,0.021,0.04l0.035,0.053
	c0.019,0.013,0.052,0.025,0.088,0.025c0.019,0,0.07-0.013,0.075-0.03c0.092-0.025,0.167-0.084,0.254-0.197l0.101-0.128
	c0.224-0.262,0.39-0.562,0.584-0.846l0.048-0.097c0.013-0.022,0.026-0.045,0.07-0.105c0.012-0.014,0.018-0.022,0.039-0.066
	l0.036-0.044l0.017-0.044l0.128-0.22l0.043-0.096c0.022-0.031,0.053-0.142,0.053-0.137c0-0.009-0.004-0.021-0.008-0.039
	c0.04-0.054,0.118-0.088,0.206-0.088c0.022,0,0.035,0.008,0.048,0.026c0.009,0.008,0.021,0.025,0.036,0.048
	c0.017,0.036,0.021,0.044,0.021,0.062c0,0.017-0.025,0.061-0.065,0.122l-0.298,0.456l-0.053,0.08l-0.249,0.373l-0.022,0.034
	l-0.285,0.396l-0.027,0.048c-0.008,0.009-0.022,0.014-0.079,0.11l-0.084,0.096c-0.013,0.018-0.035,0.05-0.065,0.093
	c-0.03,0.04-0.061,0.083-0.092,0.127c-0.048,0.08-0.057,0.102-0.127,0.197l-0.07,0.088l-0.07,0.109
	c-0.018,0.015-0.034,0.041-0.062,0.075l-0.17,0.229l-0.028,0.035l-0.031,0.049l-0.214,0.289c-0.065,0.088-0.07,0.097-0.075,0.119
	c-0.049,0.018-0.062,0.021-0.079,0.021c-0.013,0-0.009,0-0.075-0.044c-0.005-0.005-0.013-0.009-0.027-0.014
	C227.217,189.688,227.222,189.662,227.222,189.648"/>
<path fill="#F15D2A" d="M228.943,189.021l0.101-0.338c0.097-0.272,0.191-0.5,0.299-0.765l0.197-0.421
	c0.004-0.004,0.031-0.057,0.075-0.136c0.013-0.019,0.017-0.031,0.022-0.04l0.056-0.127c0.004-0.014,0.049-0.058,0.097-0.105
	c0.017-0.014,0.03-0.018,0.04-0.018c0.013,0,0.03,0.014,0.075,0.052c0.008,0.01,0.021,0.022,0.039,0.036l-0.009,0.053
	c-0.026,0.043-0.03,0.053-0.052,0.079l-0.04,0.062c-0.095,0.115-0.084,0.157-0.159,0.254l-0.047,0.114
	c-0.045,0.04-0.049,0.088-0.066,0.119l-0.018,0.039c-0.078,0.13-0.161,0.345-0.219,0.492l-0.022,0.053
	c-0.048,0.132-0.035,0.109-0.057,0.171l-0.018,0.039c-0.031,0.08-0.052,0.137-0.065,0.181l-0.039,0.126
	c-0.014,0.05-0.022,0.084-0.022,0.093v0.079c0,0.014,0.008,0.026,0.026,0.049c0.008,0,0.013,0.004,0.022,0.004
	c0.004,0,0.018-0.004,0.026-0.008l0.048-0.022l0.026-0.026l0.083-0.062l0.113-0.117l0.137-0.146l0.039-0.058
	c0.005-0.012,0.041-0.052,0.088-0.118c0.018-0.021,0.052-0.07,0.101-0.132l0.206-0.29c0.027-0.052,0.036-0.065,0.084-0.117
	l0.04-0.088c0.009-0.005,0.018-0.019,0.031-0.027c0-0.017,0.013-0.048,0.061-0.136l0.041-0.074l0.087-0.162l0.08-0.15
	c0.049-0.083,0.08-0.14,0.083-0.144c0.045-0.059,0.114-0.137,0.127-0.142c0.005-0.026,0.019-0.035,0.031-0.035
	c0.014,0,0.023,0.009,0.036,0.022l0.052,0.062c0,0.005,0.008,0.013,0.021,0.022c-0.003,0.034-0.013,0.053-0.017,0.064
	c-0.065,0.132-0.145,0.242-0.131,0.238l-0.019,0.009l-0.035,0.057l-0.021,0.026l-0.009,0.031l-0.044,0.066
	c-0.025,0.052,0.008,0-0.096,0.188l-0.026,0.053c-0.065,0.157-0.157,0.321-0.202,0.479l-0.031,0.058
	c-0.004,0.008-0.004,0.018-0.004,0.035l-0.009,0.004l-0.044,0.137L230.009,189v0.04c0,0.008-0.004,0.021-0.013,0.039l0.017,0.004
	c0.006,0.018,0.013,0.03,0.027,0.03c0.013,0,0.034-0.013,0.061-0.034l0.107-0.097l0.056-0.07l0.093-0.105l0.044-0.062l0.083-0.109
	l0.197-0.286c0.124-0.145,0.137-0.162,0.137-0.167l0.044-0.043l0.013-0.022c0.009-0.008,0.025-0.018,0.048-0.026
	c-0.017,0.019-0.026,0.036-0.026,0.044l-0.008,0.03l-0.021,0.032l-0.189,0.293l-0.032,0.04c-0.013,0.013-0.026,0.034-0.048,0.07
	c-0.031,0.057-0.061,0.101-0.083,0.127l-0.009,0.009l-0.202,0.281c-0.04,0.053-0.056,0.074-0.095,0.109v0.013l-0.071,0.07
	c-0.009,0.015-0.017,0.022-0.017,0.027c-0.088,0.092-0.106,0.096-0.136,0.122c-0.022,0.014-0.045,0.019-0.057,0.019
	c-0.014,0-0.031-0.005-0.053-0.014l-0.021-0.014c-0.049-0.039-0.062-0.057-0.062-0.083v-0.03l0.026-0.185c0,0,0-0.018,0.003-0.04
	c0.01-0.048,0.018-0.083,0.026-0.105l0.127-0.417l0.026-0.065l-0.039-0.009l-0.026,0.039c-0.022,0.035-0.035,0.049-0.065,0.088
	l-0.005,0.014c0,0-0.035,0.048-0.088,0.118l-0.114,0.149l-0.145,0.162l-0.079,0.093c-0.013,0.013-0.193,0.18-0.221,0.192
	c-0.021,0.014-0.025,0.014-0.034,0.031c-0.026,0.017-0.052,0.026-0.066,0.026h-0.035c-0.004,0-0.018,0.004-0.032,0.008
	c-0.013-0.018-0.017-0.018-0.04-0.021c-0.062-0.013-0.096-0.03-0.096-0.057c0-0.009,0-0.018,0.005-0.031l-0.013-0.013"/>
<path fill="#F15D2A" d="M230.647,189.17l0.013-0.026l0.03-0.101l0.045-0.105c0.004-0.022,0.009-0.035,0.009-0.035l0.135-0.368
	l0.019-0.031v-0.018l0.157-0.369l0.019-0.03l0.039-0.109l0.08-0.18c0.009-0.04,0.013-0.066,0.017-0.07l0.026-0.031
	c0.05-0.161,0.197-0.451,0.273-0.605l0.022-0.065c0.004,0,0.013-0.01,0.083-0.168c0.009-0.022,0.053-0.078,0.058-0.082l0.043-0.098
	l0.097-0.162c0.008-0.014,0.013-0.026,0.021-0.048c0.018-0.027,0.021-0.044,0.105-0.163l0.021-0.035l0.022-0.03
	c0.018-0.027,0.018-0.03,0.039-0.039v-0.014l0.058-0.044c0.039,0.004,0.044,0.008,0.071,0.062c0.008,0.013,0.021,0.03,0.043,0.053
	c-0.004,0.013-0.009,0.021-0.013,0.025l-0.026,0.031c-0.004,0.005-0.026,0.07-0.062,0.114l-0.075,0.101l-0.043,0.075l-0.058,0.088
	l-0.013,0.03l-0.07,0.118l-0.088,0.172c-0.013,0.021-0.052,0.109-0.083,0.167l-0.052,0.109c-0.067,0.124-0.114,0.257-0.171,0.386
	l-0.031,0.048c0,0.006-0.005,0.015-0.005,0.027c-0.021,0.039-0.026,0.058-0.03,0.061l-0.03,0.054l-0.014,0.044l-0.044,0.07v0.04
	c0.005,0.004,0.01,0.004,0.01,0.004c0.007,0,0.021-0.009,0.035-0.022l0.057-0.065c0.045-0.054,0.097-0.119,0.137-0.153l0.097-0.109
	c0.004,0,0.043-0.041,0.105-0.097l0.148-0.153c0.018-0.014,0.04-0.032,0.123-0.094c0.101-0.074,0.127-0.092,0.142-0.1l0.065-0.053
	c0.048-0.018,0.083-0.014,0.092-0.014c0.017,0,0.044,0.03,0.069,0.066c0.013,0.018,0.045,0.052,0.045,0.052l0.008,0.048l0.013,0.071
	l-0.013,0.093v0.033l-0.035,0.089l-0.005,0.039c-0.035,0.097-0.074,0.18-0.1,0.229l-0.031,0.07
	c-0.045,0.066-0.049,0.105-0.088,0.154c-0.018,0.026-0.036,0.043-0.036,0.048l-0.056,0.093c-0.071,0.078-0.062,0.096-0.211,0.197
	c-0.009,0-0.017,0-0.017,0.004l-0.032,0.025l-0.034,0.005l-0.066,0.018l-0.049-0.004l-0.048,0.004c-0.012,0-0.031-0.004-0.053-0.008
	l-0.004,0.018l0.079,0.346l0.045,0.168l0.018,0.065c0.018,0.065,0.047,0.097,0.087,0.097c0.031,0,0.101-0.031,0.145-0.07
	l0.061-0.058l0.115-0.109l0.148-0.171c0.01-0.01,0.022-0.022,0.045-0.039c0.021-0.036,0.144-0.203,0.17-0.212
	c0.013-0.021,0.019-0.026,0.04-0.039l0.009-0.014l0.026,0.004c0,0.019-0.004,0.032-0.008,0.036l-0.039,0.049l-0.102,0.148
	c-0.004,0.013-0.013,0.027-0.021,0.053c-0.009,0.004-0.018,0.009-0.018,0.014l-0.03,0.044c-0.036,0.044-0.039,0.048-0.053,0.057
	l-0.04,0.062l-0.053,0.062l-0.06,0.079l-0.076,0.079l-0.034,0.044l-0.094,0.088c-0.021,0.026-0.035,0.044-0.039,0.048l-0.027,0.018
	c-0.004,0.005-0.008,0.014-0.017,0.022c-0.022,0.008-0.035,0.013-0.048,0.018c-0.031,0.013-0.057,0.018-0.07,0.018
	c-0.008,0-0.014,0-0.044-0.022l-0.031-0.017c0-0.005-0.008-0.019-0.021-0.036l-0.026-0.039l-0.058-0.162l-0.03-0.088l-0.009-0.062
	l-0.062-0.2c0-0.031,0.013,0.013-0.034-0.137l-0.018-0.109l-0.035-0.097c-0.018-0.084-0.027-0.098-0.035-0.101l-0.028-0.015
	l-0.007-0.026h-0.009l-0.013-0.012h-0.018l-0.012-0.01c-0.005-0.004-0.009-0.004-0.015-0.004c-0.013,0-0.017,0.004-0.034,0.052
	l-0.032,0.049l-0.026,0.049l-0.03,0.048c0,0-0.014,0.053-0.031,0.092c-0.004,0.014,0.005-0.022-0.066,0.176l-0.03,0.053
	c-0.043,0.125-0.078,0.253-0.132,0.373l-0.022,0.058c-0.021,0.057-0.021,0.053-0.021,0.092l-0.022,0.018
	c0.004,0.014,0.004,0.026,0.004,0.031c0,0.025-0.04,0.057-0.074,0.057c-0.044,0-0.092-0.053-0.092-0.102v-0.013l0.022-0.034
	l0.003-0.026c0-0.005,0.006-0.01,0.014-0.015C230.634,189.201,230.638,189.179,230.647,189.17 M231.23,188.235
	c0.065-0.066,0.114-0.101,0.15-0.101c0.008,0,0.021,0.009,0.026,0.018l0.083,0.132l0.031,0.034c0.04,0.044,0.044,0.044,0.114,0.066
	c0.096,0,0.131-0.009,0.189-0.062c0.075-0.061,0.124-0.123,0.153-0.18l0.105-0.193l0.025-0.044l0.049-0.127
	c0.004-0.014,0.014-0.036,0.022-0.062c0.003-0.025,0.008-0.048,0.013-0.061l0.044-0.146l-0.005-0.039l0.013-0.079
	c-0.004-0.035-0.04-0.057-0.092-0.057c-0.013,0-0.022,0.004-0.026,0.008l-0.075,0.044l-0.066,0.032
	c-0.008,0.009-0.026,0.025-0.044,0.048h-0.013c-0.018,0.017-0.03,0.03-0.035,0.034l-0.167,0.159l-0.07,0.065l-0.074,0.079
	c-0.013,0.018-0.027,0.004-0.215,0.245l-0.036,0.044l-0.039,0.04l-0.026,0.035l-0.018,0.017c-0.009,0.01-0.018,0.022-0.027,0.045
	L231.23,188.235z"/>
<path fill="#F15D2A" d="M232.834,187.651l0.022-0.04l0.03-0.025c0.009-0.009,0.032-0.062,0.058-0.092l0.03-0.036l0.019-0.021
	l0.009-0.005c0.003,0,0.017-0.012,0.031-0.03l0.056-0.035l0.11-0.075l0.088-0.043c0.03-0.019,0.052-0.031,0.062-0.036l0.149-0.049
	l0.184-0.104c0.009-0.005,0.022-0.005,0.031-0.005c0.035,0,0.054,0.019,0.075,0.066c0.008,0.004,0.014,0.009,0.018,0.009
	s0.007-0.005,0.017-0.013l0.018,0.018h0.012c0.019,0,0.067,0.018,0.097,0.039c0.044,0.022,0.11,0.083,0.128,0.109l0.031,0.058
	l0.007,0.018c0.006,0.005,0.009,0.026,0.013,0.057l0.014,0.083l0.008,0.04c0,0.004,0.004,0.009,0.009,0.014l0.004-0.014
	c0.009,0.004,0.022,0.014,0.026,0.014c0.013,0,0.041-0.01,0.058-0.018l0.069-0.044l0.168-0.083c0.021-0.015,0.052-0.031,0.087-0.058
	l0.04-0.031l0.007,0.009c-0.07,0.098-0.1,0.132-0.144,0.158l-0.303,0.197l-0.036,0.022l-0.017,0.083l-0.036,0.114v0.026
	c0,0.009-0.009,0.039-0.03,0.084l-0.019,0.035l-0.225,0.43l-0.152,0.232c0,0.009-0.036,0.053-0.093,0.118l-0.057,0.075
	c-0.097,0.127-0.202,0.233-0.302,0.316l-0.084,0.065c-0.071,0.058-0.096,0.07-0.163,0.088l-0.075,0.022
	c-0.004,0.004-0.013,0.004-0.026,0.004h-0.021l-0.003,0.008l-0.041-0.021v0.014c-0.104-0.044-0.127-0.053-0.153-0.074l-0.049-0.04
	l-0.018-0.009c-0.012-0.013-0.021-0.03-0.044-0.088c-0.021-0.07-0.021-0.07-0.021-0.088c0-0.039,0.008-0.114,0.021-0.197
	l0.032-0.163c0.012-0.073,0.043-0.161,0.083-0.258l0.12-0.277l0.034-0.088l0.048-0.087c0.022-0.04,0.04-0.07,0.04-0.07l0.045-0.062
	v-0.003c0-0.01,0-0.019-0.005-0.021l-0.101-0.063c-0.012-0.008-0.031-0.039-0.031-0.062c0-0.017,0.009-0.034,0.022-0.061
	C232.825,187.665,232.834,187.656,232.834,187.651 M232.878,189.223c0.018,0,0.048-0.009,0.115-0.036
	c0.06-0.026,0.122-0.057,0.135-0.066l0.045-0.038l0.026-0.01c0,0,0.039-0.034,0.091-0.083l0.08-0.075l0.083-0.105
	c0.026-0.029,0.052-0.061,0.065-0.092l0.066-0.109l0.035-0.035l0.048-0.105l0.114-0.219c0.013-0.026,0.022-0.053,0.03-0.074
	l0.04-0.133l0.041-0.104l0.004-0.07c0.003-0.01,0.003-0.018,0.003-0.022c0-0.014-0.007-0.018-0.021-0.018h-0.022
	c-0.031,0.004-0.052,0.009-0.062,0.013l-0.241,0.066c-0.071,0.018-0.251,0.039-0.334,0.039c-0.005,0-0.008,0.005-0.018,0
	c-0.035-0.004-0.062-0.004-0.065-0.004c-0.022,0-0.031,0.018-0.062,0.083c-0.004,0.014-0.017,0.036-0.036,0.066
	c-0.056,0.092-0.153,0.312-0.227,0.509c-0.076,0.211-0.11,0.378-0.11,0.521C232.703,189.205,232.733,189.223,232.878,189.223
	 M233.106,187.475c-0.012,0.009-0.021,0.014-0.035,0.019l-0.026,0.048l-0.041,0.044c-0.003,0.004-0.003,0.018-0.003,0.031
	c0,0.039,0.021,0.064,0.051,0.064c0.009,0,0.019-0.004,0.022-0.009l0.11-0.144l0.087-0.105c0.005-0.004,0.014-0.021,0.031-0.054
	C233.194,187.41,233.15,187.436,233.106,187.475 M233.294,187.76l0.106,0.005h0.053c0.008,0,0.039-0.005,0.091-0.013l0.141-0.026
	l0.105-0.031c0.123-0.022,0.145-0.039,0.145-0.118c0-0.18-0.088-0.285-0.246-0.285c-0.065,0-0.092,0.018-0.192,0.14l-0.145,0.172
	c-0.017,0.018-0.03,0.039-0.04,0.053c-0.022,0.035-0.035,0.057-0.04,0.061c-0.018,0.019-0.021,0.022-0.021,0.04
	C233.277,187.76,233.29,187.76,233.294,187.76"/>
<path fill="#F15D2A" d="M233.936,189.302l0.017-0.034l0.044-0.106c0.04-0.034,0.083-0.149,0.119-0.25l0.079-0.162
	c0.005-0.01,0.009-0.021,0.013-0.049l0.018-0.004c0.009-0.026,0.013-0.048,0.018-0.062c0.026-0.078,0.052-0.131,0.07-0.157
	c0.041-0.066,0.041-0.074,0.044-0.11c0.017-0.034,0.022-0.052,0.026-0.061l0.026-0.034l0.018-0.062l0.018-0.018l0.021-0.062
	l0.066-0.149l0.036-0.097c0.013-0.021,0.021-0.039,0.021-0.053c0-0.004-0.003-0.008-0.012-0.018l0.009-0.026l-0.036-0.018
	c0.009-0.049,0.019-0.078,0.027-0.097l0.083-0.18l0.018-0.035l0.08-0.114c0.04-0.062,0.043-0.066,0.096-0.066
	c0.014,0,0.031,0.01,0.039,0.014l0.053,0.057c0.005,0.006,0.018,0.015,0.035,0.027c-0.008,0.017-0.012,0.031-0.012,0.034
	c0,0.01,0.004,0.022,0.008,0.036c-0.019,0.018-0.031,0.03-0.035,0.039l-0.017,0.049l-0.022,0.021l-0.192,0.435l-0.066,0.127
	l-0.119,0.286c-0.013,0.018-0.021,0.025-0.021,0.035c0,0.009,0.004,0.026,0.012,0.039l0.355-0.412l0.066-0.066
	c0-0.004,0.004-0.014,0.004-0.021c0.027-0.014,0.027-0.014,0.045-0.045c0,0,0.022-0.025,0.056-0.064c0.005,0,0.018-0.019,0.04-0.049
	c0.032-0.039,0.094-0.102,0.264-0.264c0.075-0.075,0.163-0.149,0.251-0.215c0.039-0.031,0.07-0.049,0.14-0.079
	c0.062,0.035,0.114,0.097,0.114,0.123c0,0.004-0.005,0.021-0.013,0.039l-0.017,0.053l-0.036,0.048l-0.031,0.075
	c-0.102,0.198-0.083,0.162-0.092,0.185l-0.079,0.14l-0.013,0.036c0,0.004-0.005,0.004-0.014,0.008
	c-0.003,0.027-0.008,0.044-0.012,0.049l-0.049,0.078c-0.049,0.146-0.151,0.268-0.189,0.418l-0.035,0.088
	c-0.013,0.044-0.017,0.062-0.022,0.065l-0.021,0.018l-0.026,0.105l-0.04,0.118l-0.017,0.088l-0.018,0.045
	c-0.005,0.004-0.005,0.008-0.005,0.017c0,0.014,0.01,0.026,0.027,0.026c0.021,0,0.04-0.013,0.109-0.075l0.114-0.105l0.29-0.294
	c0.008-0.013,0.144-0.18,0.148-0.192c0.053-0.079,0.066-0.101,0.08-0.101c0,0,0.008,0.004,0.013,0.004
	c0,0.058-0.005,0.07-0.045,0.109l0.005,0.009l-0.039,0.022c0,0.022-0.005,0.034-0.093,0.136l-0.025,0.044l-0.037,0.031
	c-0.008,0.009-0.013,0.025-0.018,0.052c-0.017,0.021-0.03,0.036-0.033,0.04l-0.168,0.206l-0.048,0.049l-0.027,0.044l-0.039,0.031
	c-0.013,0.008-0.036,0.034-0.065,0.083c-0.013,0.018-0.036,0.039-0.114,0.114c-0.026,0.025-0.052,0.053-0.079,0.079
	c-0.009,0.004-0.019,0.017-0.036,0.03c-0.11-0.048-0.127-0.065-0.127-0.127c0-0.058,0.026-0.198,0.062-0.308l0.01-0.044
	c0.021-0.074,0.038-0.127,0.046-0.158l0.137-0.355l0.194-0.421c0.021-0.04,0.051-0.102,0.096-0.18
	c0.039-0.07,0.048-0.097,0.07-0.158c-0.013-0.019-0.027-0.026-0.036-0.026c-0.013,0-0.031,0.013-0.105,0.074l-0.048,0.04
	l-0.074,0.078l-0.114,0.119l-0.066,0.079c-0.044,0.044-0.075,0.075-0.079,0.083c-0.018,0.04-0.146,0.162-0.154,0.189
	c-0.044,0.039-0.044,0.039-0.092,0.113c-0.013,0.022-0.052,0.074-0.114,0.145c-0.04,0.049-0.071,0.088-0.097,0.124l-0.421,0.662
	l-0.009,0.026l-0.036,0.035c-0.012,0.022-0.03,0.031-0.043,0.031c-0.053,0-0.079-0.026-0.075-0.075l-0.035-0.018
	C233.931,189.31,233.931,189.302,233.936,189.302"/>
<path fill="#F15D2A" d="M236.259,187.221c0.045,0,0.123-0.058,0.185-0.123c0.104-0.128,0.104-0.123,0.17-0.26
	c-0.036,0.01-0.049,0.014-0.075,0.031c-0.018-0.013-0.031-0.021-0.043-0.025c-0.04-0.018-0.058-0.032-0.058-0.04
	c0-0.014,0.01-0.044,0.026-0.079l0.084-0.171l0.048-0.062c0.008-0.022,0.022-0.032,0.031-0.032h0.013l0.065,0.032l0.071,0.026
	c0.022,0.018,0.035,0.057,0.035,0.109c0,0.162-0.109,0.364-0.25,0.465l-0.053,0.035l-0.031,0.026l-0.079,0.04
	c-0.009,0.009-0.022,0.013-0.031,0.018c-0.021,0.017-0.04,0.026-0.043,0.03l-0.049,0.009l-0.014,0.009
	c-0.003,0-0.008,0.005-0.008,0.005c-0.012,0-0.026-0.01-0.035-0.022c-0.004-0.004-0.009-0.009-0.009-0.014v-0.004l0.018-0.013
	C236.246,187.217,236.254,187.221,236.259,187.221"/>
<path fill="#F15D2A" d="M236.215,188.397c0.035-0.061,0.047-0.083,0.079-0.101l-0.004-0.019c0.027-0.007,0.031-0.017,0.036-0.048
	c0.039-0.034,0.047-0.044,0.079-0.109l0.021-0.022l0.045-0.043l0.28-0.399l0.224-0.303c0.114-0.158,0.123-0.172,0.158-0.268
	c0.035-0.105,0.058-0.149,0.092-0.216l0.035,0.008l0.031,0.036c0.039,0.044,0.061,0.083,0.061,0.105v0.013l-0.035,0.079
	l-0.026,0.079l-0.027,0.07c-0.004,0.005-0.008,0.035-0.013,0.079c-0.003,0.014-0.008,0.03-0.013,0.057l-0.013,0.01
	c0,0.022,0,0.039-0.004,0.044l-0.018,0.057c-0.057,0.351-0.095,0.696-0.132,1.05v0.056c0.049-0.038,0.075-0.061,0.114-0.104
	l0.11-0.123c0.031-0.035,0.048-0.057,0.056-0.069l0.309-0.436l0.1-0.158c0.009-0.013,0.021-0.03,0.041-0.052l0.003-0.035
	l0.026-0.005l0.022,0.031l-0.052,0.092l-0.186,0.298l-0.091,0.128l-0.198,0.289l-0.018,0.022l-0.233,0.268
	c-0.026,0.03-0.035,0.053-0.044,0.102l-0.031,0.206l-0.031,0.114c-0.009,0.025-0.013,0.048-0.017,0.052l-0.018,0.031l-0.054,0.114
	c-0.004,0.009-0.026,0.03-0.07,0.062c-0.013-0.018-0.018-0.018-0.036-0.018c-0.025-0.031-0.039-0.04-0.065-0.04
	c-0.022-0.018-0.035-0.03-0.04-0.034l-0.119-0.088l-0.044-0.035l-0.061-0.044l-0.036-0.04c-0.005,0-0.057-0.022-0.101-0.07
	c-0.04-0.018-0.057-0.03-0.065-0.052h-0.013c-0.032-0.032-0.044-0.04-0.088-0.05c-0.004-0.009-0.004-0.017-0.004-0.021
	c0-0.006,0-0.014,0.004-0.027c0.004-0.004,0.013-0.021,0.021-0.039c0.022-0.054,0.031-0.066,0.088-0.105
	c0.005-0.004,0.018-0.018,0.035-0.026c0.019,0.004,0.031,0.009,0.036,0.009l0.036,0.004l0.097,0.053l0.047,0.005l0.053,0.013
	c0.008,0,0.031,0,0.052-0.004l0.079-0.014l0.084-0.03c0.066-0.022,0.083-0.035,0.088-0.058l0.083-0.711l0.021-0.141l0.062-0.338
	c0-0.014,0.005-0.026,0.005-0.04c0-0.025-0.009-0.03-0.031-0.034l-0.053,0.057l-0.285,0.378l-0.29,0.391l-0.228,0.29l-0.009-0.009
	l-0.013,0.004l-0.013-0.026C236.158,188.485,236.194,188.432,236.215,188.397 M236.641,189.073l0.062,0.058
	c0.009,0.009,0.022,0.018,0.031,0.018c0.04,0,0.08-0.083,0.096-0.207c0-0.008,0.005-0.025,0.009-0.043l-0.022-0.018l-0.004,0.018
	c-0.018,0.004-0.031,0.009-0.04,0.014c-0.013,0.004-0.021,0.008-0.025,0.008l-0.019,0.018c-0.008,0.01-0.026,0.014-0.144,0.048
	C236.588,189.025,236.584,189.025,236.641,189.073"/>
<path fill="#F15D2A" d="M238.998,188.372h-0.005l-0.123,0.021h-0.005c-0.008,0-0.014,0-0.014-0.005l-0.048-0.039l-0.044-0.035
	c-0.004-0.004-0.004-0.009-0.004-0.014c0-0.017,0.012-0.039,0.026-0.044l0.03-0.004l0.058-0.008l0.127-0.015l0.118-0.009
	c0.036-0.009,0.071-0.021,0.084-0.035l0.083-0.101l0.058-0.065l0.07-0.102l0.132-0.18l0.228-0.311
	c0.052-0.059,0.07-0.103,0.07-0.103l0.025-0.026l0.225-0.303l0.198-0.298c0.03-0.044,0.048-0.075,0.052-0.084l0.026-0.066
	l0.013-0.021c0.004-0.008,0.009-0.017,0.009-0.034h0.013l-0.013-0.044c0.017-0.019,0.026-0.031,0.03-0.036l0.053-0.034l0.08-0.059
	c0.021-0.012,0.04-0.017,0.056-0.017c0.019,0,0.036,0.009,0.065,0.044l0.058,0.044l0.009,0.026l0.026,0.018l0.017,0.035l0.013,0.013
	l-0.008,0.062l0.008,0.036l-0.003,0.104c0,0.005,0.003,0.018,0.007,0.035l-0.007,0.005v0.035c-0.026,0.386-0.053,0.773-0.133,1.154
	v0.052c-0.013,0.105-0.04,0.189-0.034,0.198c-0.022,0.065-0.027,0.092-0.027,0.119c0,0.017,0.005,0.03,0.008,0.048l0.022,0.074
	c0.004,0.005,0.004,0.018,0.004,0.04v0.021c-0.013,0.014-0.017,0.018-0.022,0.031l-0.012,0.009c-0.008,0.021-0.018,0.03-0.039,0.048
	c-0.005,0.014-0.009,0.026-0.009,0.03c-0.009,0.036-0.013,0.062-0.013,0.075c0-0.044-0.022,0.137-0.028,0.162l-0.03,0.177
	l-0.026,0.104l-0.009,0.062l-0.008,0.044l-0.005,0.03l-0.021,0.102c0,0.009,0,0.026,0.007,0.049
	c-0.039,0.034-0.062,0.043-0.088,0.043c-0.018,0-0.035-0.004-0.039-0.013l-0.021-0.026l-0.018-0.018l-0.004-0.022l-0.013-0.021
	v-0.014c0-0.009,0-0.026,0.005-0.048l0.013-0.079c0.033-0.196,0.084-0.397,0.11-0.593l0.013-0.079c0-0.083-0.075-0.158-0.172-0.171
	l-0.092-0.009l-0.097-0.009c-0.021-0.005-0.035-0.005-0.056-0.005h-0.026c-0.009,0-0.022,0.005-0.026,0.005
	c-0.01,0-0.013-0.005-0.019-0.005l-0.026-0.004l-0.434,0.009c-0.101,0.005-0.124,0.009-0.153,0.04
	c-0.041,0.034-0.08,0.078-0.107,0.113l-0.065,0.097l-0.079,0.105l-0.048,0.066l-0.021,0.034l-0.031,0.035l-0.048,0.075
	c0,0-0.009,0.013-0.026,0.035c-0.013,0.018-0.039,0.053-0.069,0.105l-0.255,0.412l-0.022,0.039
	c-0.004,0.005-0.008,0.005-0.012,0.005c-0.005,0-0.009-0.005-0.019-0.008c-0.061-0.005-0.082-0.027-0.082-0.089
	c0-0.018,0.003-0.044,0.013-0.057c0.017-0.044,0.04-0.083,0.118-0.206c0.03-0.044,0.062-0.089,0.092-0.128l0.133-0.185l0.043-0.062
	l0.026-0.044l0.045-0.052c0,0,0.004-0.01,0.008-0.022c0.005-0.01,0.022-0.04,0.088-0.128c0.021-0.025,0.044-0.052,0.065-0.083
	c0.004-0.004,0.014-0.018,0.027-0.035C239.028,188.381,239.011,188.372,238.998,188.372 M239.432,188.214l0.07-0.014l0.08,0.004
	c0,0,0.026-0.004,0.069-0.008c0.014,0,0.062-0.005,0.129,0h0.294c0.082,0,0.135,0,0.152,0.004l0.066,0.014l0.065,0.004h0.026
	c0.009,0,0.022,0,0.035-0.009l0.018-0.079l0.052-0.351l0.044-0.413l0.009-0.141c0-0.014,0.004-0.021,0.004-0.021l-0.004-0.04
	l0.013-0.057c0-0.009,0.004-0.031,0.004-0.062l0.004-0.212l-0.004-0.065c0-0.035-0.008-0.057-0.026-0.057
	c-0.004,0-0.013,0.004-0.013,0.004l-0.065,0.097l-0.225,0.295l-0.062,0.07l-0.074,0.109l-0.07,0.075
	c-0.026,0.039-0.045,0.065-0.097,0.126l-0.026,0.022l-0.043,0.079l-0.054,0.062l-0.052,0.069c-0.017,0.022-0.03,0.036-0.03,0.04
	l-0.026,0.048l-0.013,0.015l-0.014,0.021c-0.052,0.062-0.104,0.145-0.145,0.184l-0.056,0.07l-0.032,0.049
	c-0.017,0.027-0.026,0.039-0.026,0.049v0.008C239.422,188.209,239.428,188.214,239.432,188.214"/>
<path fill="#F15D2A" d="M240.848,189.083c-0.004-0.01-0.004-0.018-0.004-0.018l0.008-0.058l-0.004-0.022l0.013-0.057l0.009-0.04
	l0.017-0.048l0.006-0.048c0-0.005,0.003-0.014,0.007-0.026l0.019-0.071c0.013-0.025,0.017-0.052,0.021-0.065
	c0.026-0.092,0.044-0.153,0.044-0.153c0.026-0.062,0.057-0.149,0.079-0.198l0.009-0.039l0.017-0.039l0.019-0.044
	c0-0.005,0.004-0.009,0.008-0.009c0.004-0.031,0.009-0.049,0.035-0.079c0.01-0.021,0.017-0.04,0.022-0.049l0.01-0.035
	c0.017-0.039,0.03-0.074,0.046-0.092c0.019-0.025,0.032-0.044,0.032-0.048c0.01-0.018,0.062-0.136,0.066-0.142l0.091-0.148
	l0.022-0.054l0.031-0.025l0.009-0.022c0.009-0.013,0.022-0.025,0.031-0.025h0.004c0.013,0.004,0.022,0.004,0.022,0.004l0.04-0.004
	l0.021,0.03l0.035,0.043c0.005,0.005,0.014,0.019,0.019,0.04l-0.013,0.01c-0.005,0.03-0.009,0.056-0.019,0.065l-0.026,0.048
	l-0.009,0.027l-0.007,0.012c-0.018,0.031-0.15,0.176-0.176,0.229l-0.022,0.062l-0.069,0.14l-0.062,0.141
	c-0.013,0.018-0.019,0.026-0.019,0.035c0,0.005,0,0.009,0.006,0.013c-0.019,0.031-0.022,0.044-0.022,0.049l-0.065,0.181
	l-0.009,0.039c0,0-0.004,0.009-0.013,0.013l0.004,0.019l-0.009,0.004c-0.004,0.022-0.008,0.04-0.012,0.053l-0.019,0.036
	l-0.013,0.065l-0.017,0.061l-0.009,0.053l-0.017,0.079l-0.005,0.053c0,0.009-0.004,0.021-0.008,0.04
	c0.008,0.034,0.021,0.052,0.047,0.052c0.022,0,0.036-0.008,0.101-0.074l0.097-0.096c0.026-0.022,0.049-0.049,0.065-0.075
	c0.018-0.026,0.032-0.04,0.04-0.044c0.075-0.057,0.075-0.084,0.092-0.092l0.036-0.04l0.087-0.093l0.032-0.044l0.056-0.078
	c0.009-0.018,0.013-0.027,0.013-0.031l0.032-0.035l0.026-0.049l0.049-0.052c0.003-0.009,0.012-0.022,0.017-0.036
	c0.026,0,0.036,0.006,0.052,0.032l-0.039,0.073l-0.238,0.348c-0.039,0.057-0.069,0.097-0.091,0.123l-0.079,0.079l-0.058,0.069
	l-0.043,0.044c-0.014,0.019-0.036,0.045-0.062,0.074c-0.036,0.04-0.062,0.071-0.084,0.084c-0.021,0.019-0.039,0.031-0.043,0.035
	l-0.009,0.022c-0.008,0.009-0.026,0.018-0.053,0.03c-0.013,0.031-0.013,0.031-0.105,0.07c-0.087-0.013-0.126-0.039-0.126-0.092
	v-0.132c0-0.008,0.004-0.026,0.004-0.048 M241.761,186.813l0.005-0.009h0.012c0.009-0.019,0.015-0.019,0.027-0.022
	c0.018,0.018,0.027,0.026,0.035,0.031l0.042,0.013c0.007,0.004,0.017,0.019,0.034,0.04c0.009,0.008,0.018,0.021,0.035,0.034
	c-0.031,0.066-0.043,0.085-0.114,0.181c-0.008,0.021-0.017,0.043-0.062,0.101l-0.038,0.026l-0.054,0.058h-0.004
	c-0.021,0-0.04-0.014-0.07-0.049c0-0.004-0.003-0.004-0.003-0.009c-0.027-0.026-0.031-0.035-0.031-0.048
	c0-0.019,0.004-0.036,0.009-0.048l0.091-0.172l0.019-0.04l0.034-0.044c0.004-0.008,0.013-0.021,0.018-0.044L241.761,186.813
	L241.761,186.813z"/>
<path fill="#F15D2A" d="M241.894,188.656c0.013-0.048,0.026-0.078,0.031-0.093l0.057-0.121c0.097-0.281,0.229-0.542,0.338-0.804
	l0.053-0.097c0.008-0.009,0.013-0.022,0.013-0.03c0.007-0.022,0.013-0.022,0.052-0.124l0.092-0.148
	c0.009-0.013,0.019-0.04,0.026-0.079c0.045-0.022,0.071-0.031,0.084-0.031c0.021,0,0.043,0.022,0.083,0.075
	c0.004,0.009,0.018,0.022,0.026,0.035l-0.004,0.044c-0.021,0.013-0.035,0.021-0.04,0.031l-0.036,0.061l-0.056,0.083
	c-0.009,0.015-0.026,0.044-0.048,0.093l-0.347,0.75c-0.004,0.005-0.004,0.01-0.004,0.01c0,0.005,0.009,0.008,0.026,0.013
	l0.378-0.536l0.092-0.118l0.137-0.167l0.118-0.127c0.032-0.039,0.053-0.065,0.067-0.07c0.039-0.035,0.043-0.048,0.087-0.075
	c0,0,0.027-0.021,0.066-0.052c0.013-0.014,0.026-0.018,0.039-0.018c0.017,0,0.053,0.009,0.088,0.03
	c0.013,0.005,0.022,0.01,0.022,0.01l0.07,0.083l0.035,0.039l0.03,0.053c0.036,0.062,0.032,0.044,0.036,0.114
	c0,0.009,0.005,0.022,0.005,0.04h-0.065c-0.009-0.018-0.014-0.027-0.018-0.027l-0.057-0.021c-0.008-0.005-0.022-0.018-0.053-0.035
	c-0.013-0.035-0.03-0.043-0.075-0.043c-0.013,0-0.025,0-0.035,0.008l-0.057,0.026l-0.039,0.014l-0.062,0.052l-0.022,0.01
	L243,187.546c0,0.005-0.017,0.018-0.043,0.036c-0.013,0.008-0.036,0.025-0.058,0.053c-0.026,0.026-0.044,0.048-0.062,0.064
	c-0.052,0.054-0.083,0.088-0.095,0.103l-0.045,0.061l-0.079,0.11c-0.004,0.017,0.036-0.031-0.148,0.229l-0.041,0.048l-0.018,0.04
	l-0.057,0.07l-0.043,0.065c-0.018,0.018-0.026,0.035-0.026,0.044v0.004c-0.019,0.021-0.027,0.035-0.032,0.04l-0.03,0.058
	l-0.066,0.104l-0.035,0.075l-0.036,0.065l-0.039,0.101c-0.032,0.065-0.032,0.065-0.036,0.105c-0.013,0.014-0.022,0.026-0.022,0.03
	l-0.013,0.044l-0.031,0.097c-0.005,0.049,0,0.045-0.012,0.062c0.007,0.031,0.012,0.049,0.012,0.062c0,0.044-0.061,0.093-0.117,0.093
	c-0.014,0-0.032-0.009-0.045-0.018l-0.044-0.031c-0.031-0.026-0.047-0.044-0.053-0.053l0.009-0.057l0.153-0.488
	C241.864,188.721,241.884,188.67,241.894,188.656"/>
<path fill="#F15D2A" d="M243.211,188.854l0.003-0.005c0.009-0.021,0.014-0.044,0.014-0.052c0.008-0.031,0.012-0.054,0.018-0.062
	l0.013-0.04l0.022-0.079l0.17-0.435l0.145-0.342c0.031-0.071,0.052-0.114,0.057-0.128l0.066-0.123l0.044-0.101l0.057-0.097
	c0.021-0.035,0.039-0.075,0.057-0.127c0.013-0.036,0.035-0.04,0.035-0.066c0-0.009,0.008-0.03,0.021-0.053l0.049-0.088l0.039-0.052
	l0.022-0.059l0.237-0.377c0.022-0.022,0.058-0.104,0.088-0.132c0.027-0.021,0.088-0.097,0.123-0.153h0.014
	c0.087-0.109,0.158-0.158,0.22-0.158c0.026,0,0.056,0.014,0.07,0.031l0.047,0.069c0.053,0.084,0.058,0.088,0.058,0.146
	c0,0.026-0.005,0.049-0.009,0.07c-0.008,0.049-0.018,0.078-0.018,0.083c0,0.027-0.005,0.031-0.018,0.044
	c-0.017,0.062-0.026,0.093-0.035,0.105l-0.035,0.058c0,0.008-0.009,0.021-0.019,0.044c-0.021,0.056-0.18,0.268-0.228,0.329
	c-0.035,0.044-0.04,0.079-0.144,0.197l-0.071,0.075l-0.031,0.044l-0.017,0.013l-0.053,0.07c-0.013,0.013-0.026,0.026-0.056,0.048
	l-0.013,0.031c-0.066,0.057-0.114,0.109-0.146,0.149c-0.04,0.052-0.049,0.062-0.097,0.078l-0.012-0.043l0.06-0.066
	c0.019-0.026,0.019-0.026,0.062-0.07l0.093-0.118l0.119-0.146l0.157-0.229c0.027-0.039,0.049-0.069,0.053-0.078l0.018-0.035
	l0.091-0.15l0.049-0.096l0.026-0.053c0.039-0.074,0.071-0.185,0.071-0.246c0-0.03-0.022-0.057-0.053-0.057s-0.044,0.009-0.105,0.07
	c-0.035,0.03-0.079,0.079-0.083,0.088l-0.061,0.088l-0.014,0.018l-0.035,0.057l-0.053,0.07c0,0.005-0.013,0.021-0.025,0.057
	c-0.009,0.022-0.013,0.026-0.036,0.03l0.004,0.019l-0.017,0.018l0.004,0.018c-0.021,0.027-0.036,0.044-0.036,0.049l-0.095,0.175
	c-0.106,0.215-0.075,0.154-0.088,0.172l-0.146,0.324l-0.03,0.053l-0.005,0.035l-0.031,0.054l-0.013,0.034
	c0,0.004-0.004,0.014-0.013,0.019c0,0.025-0.07,0.179-0.07,0.192c-0.009,0.018-0.018,0.026-0.018,0.026l-0.062,0.158
	c-0.004,0.004-0.008,0.018-0.017,0.039l-0.136,0.399c-0.03,0.093-0.049,0.149-0.053,0.158l-0.013,0.102l-0.026,0.082
	c-0.005,0.014-0.005,0.032-0.005,0.044c0,0.044,0.018,0.075,0.048,0.075c0.006,0,0.009-0.005,0.019-0.009l0.039-0.026l0.027-0.009
	l0.036-0.026l0.026-0.013l0.056-0.053l0.058-0.044c0.026-0.031,0.101-0.119,0.091-0.109l0.049-0.045l0.052-0.065l0.044-0.049
	l0.224-0.298l0.019-0.018c0.021,0.018,0.03,0.031,0.03,0.044c0,0.004-0.004,0.009-0.004,0.009l-0.198,0.272l-0.083,0.122
	c-0.035,0.049-0.067,0.08-0.08,0.098l-0.04,0.029l-0.127,0.154c-0.057,0.062-0.114,0.11-0.158,0.141
	c-0.017,0.03-0.031,0.039-0.04,0.048c-0.062,0.053-0.052,0.049-0.153,0.097l-0.009-0.018c-0.021,0.009-0.039,0.014-0.053,0.014
	c-0.007,0-0.03-0.005-0.056-0.018l-0.004-0.014c-0.009-0.009-0.019-0.013-0.019-0.013l-0.004-0.018l-0.018-0.022
	c-0.008-0.009-0.008-0.021-0.008-0.044c0-0.092,0.003-0.146,0.017-0.193l0.009-0.03l0.026-0.105c0.005-0.018,0.013-0.04,0.026-0.07"
	/>
<path fill="#F15D2A" d="M244.12,189.083c-0.005-0.01-0.005-0.018-0.005-0.018l0.008-0.058l-0.003-0.022l0.013-0.057l0.01-0.04
	l0.017-0.048l0.005-0.048c0-0.005,0.004-0.014,0.008-0.026l0.017-0.071c0.014-0.025,0.019-0.052,0.022-0.065
	c0.026-0.092,0.045-0.153,0.045-0.153c0.025-0.062,0.056-0.149,0.079-0.198l0.008-0.039l0.018-0.039l0.017-0.044
	c0-0.005,0.005-0.009,0.009-0.009c0.004-0.031,0.01-0.049,0.036-0.079c0.008-0.021,0.017-0.04,0.021-0.049l0.009-0.035
	c0.018-0.039,0.032-0.074,0.048-0.092c0.018-0.025,0.031-0.044,0.031-0.048c0.009-0.018,0.061-0.136,0.065-0.142l0.093-0.148
	l0.021-0.054l0.031-0.025l0.01-0.022c0.007-0.013,0.022-0.025,0.03-0.025h0.004c0.013,0.004,0.022,0.004,0.022,0.004l0.04-0.004
	l0.021,0.03l0.036,0.043c0.003,0.005,0.013,0.019,0.017,0.04l-0.013,0.01c-0.003,0.03-0.008,0.056-0.017,0.065l-0.026,0.048
	l-0.009,0.027l-0.008,0.012c-0.018,0.031-0.149,0.176-0.175,0.229l-0.022,0.062l-0.071,0.14l-0.061,0.141
	c-0.013,0.018-0.018,0.026-0.018,0.035c0,0.005,0,0.009,0.005,0.013c-0.018,0.031-0.021,0.044-0.021,0.049l-0.066,0.181
	l-0.009,0.039c0,0-0.005,0.009-0.012,0.013l0.003,0.019l-0.009,0.004c-0.004,0.022-0.008,0.04-0.013,0.053l-0.017,0.036
	l-0.013,0.065l-0.018,0.061l-0.009,0.053l-0.018,0.079l-0.005,0.053c0,0.009-0.004,0.021-0.009,0.04
	c0.009,0.034,0.022,0.052,0.049,0.052c0.022,0,0.036-0.008,0.101-0.074l0.097-0.096c0.026-0.022,0.048-0.049,0.065-0.075
	c0.017-0.026,0.031-0.04,0.04-0.044c0.075-0.057,0.075-0.084,0.091-0.092l0.036-0.04l0.088-0.092l0.031-0.045l0.057-0.078
	c0.009-0.018,0.013-0.027,0.013-0.031l0.031-0.034l0.026-0.05l0.048-0.052c0.005-0.009,0.013-0.021,0.018-0.036
	c0.026,0,0.036,0.006,0.052,0.032l-0.039,0.073l-0.238,0.349c-0.039,0.056-0.07,0.096-0.092,0.122l-0.079,0.079l-0.057,0.069
	l-0.044,0.044c-0.014,0.019-0.037,0.045-0.062,0.074c-0.036,0.04-0.062,0.071-0.084,0.084c-0.021,0.019-0.04,0.031-0.043,0.035
	l-0.01,0.022c-0.009,0.009-0.026,0.018-0.052,0.03c-0.013,0.031-0.013,0.031-0.106,0.07c-0.086-0.013-0.127-0.039-0.127-0.092
	v-0.132c0-0.008,0.005-0.026,0.005-0.048 M245.033,186.813l0.004-0.009h0.013c0.009-0.019,0.013-0.019,0.027-0.022
	c0.018,0.018,0.025,0.026,0.035,0.031l0.04,0.013c0.009,0.004,0.019,0.019,0.035,0.04c0.01,0.008,0.017,0.021,0.036,0.034
	c-0.032,0.066-0.045,0.085-0.114,0.181c-0.01,0.021-0.019,0.043-0.062,0.101l-0.039,0.026l-0.053,0.058h-0.004
	c-0.023,0-0.041-0.014-0.07-0.049c0-0.004-0.004-0.004-0.004-0.009c-0.027-0.026-0.031-0.035-0.031-0.048
	c0-0.019,0.004-0.036,0.009-0.048l0.092-0.172l0.017-0.04l0.035-0.044c0.006-0.008,0.013-0.021,0.018-0.044L245.033,186.813
	L245.033,186.813z"/>
<path fill="#F15D2A" d="M244.879,189.302l0.018-0.034l0.044-0.106c0.039-0.034,0.083-0.149,0.118-0.25l0.081-0.162
	c0.003-0.01,0.008-0.021,0.013-0.049l0.017-0.004c0.009-0.026,0.013-0.048,0.018-0.062c0.025-0.078,0.053-0.131,0.07-0.157
	c0.039-0.066,0.039-0.074,0.043-0.11c0.019-0.034,0.022-0.052,0.028-0.061l0.025-0.034l0.018-0.062l0.017-0.018l0.022-0.062
	l0.065-0.149l0.036-0.097c0.013-0.021,0.022-0.039,0.022-0.053c0-0.004-0.005-0.008-0.013-0.018l0.008-0.026l-0.034-0.018
	c0.007-0.049,0.017-0.078,0.026-0.097l0.083-0.18l0.018-0.035l0.079-0.114c0.039-0.062,0.044-0.066,0.096-0.066
	c0.014,0,0.031,0.01,0.041,0.014l0.052,0.057c0.004,0.006,0.017,0.015,0.036,0.027c-0.009,0.017-0.014,0.031-0.014,0.034
	c0,0.01,0.005,0.022,0.008,0.036c-0.017,0.018-0.03,0.03-0.034,0.039l-0.019,0.049l-0.022,0.021l-0.193,0.435l-0.065,0.127
	l-0.119,0.286c-0.012,0.018-0.021,0.025-0.021,0.035c0,0.009,0.004,0.026,0.013,0.039l0.355-0.412l0.065-0.066
	c0-0.004,0.005-0.014,0.005-0.021c0.025-0.014,0.025-0.014,0.043-0.045c0,0,0.022-0.025,0.057-0.064
	c0.005,0,0.018-0.019,0.041-0.049c0.03-0.039,0.091-0.102,0.262-0.264c0.076-0.075,0.163-0.149,0.25-0.215
	c0.04-0.031,0.071-0.049,0.142-0.079c0.061,0.035,0.113,0.097,0.113,0.123c0,0.004-0.003,0.021-0.012,0.039l-0.018,0.053
	l-0.036,0.048l-0.03,0.075c-0.101,0.198-0.084,0.162-0.092,0.185l-0.08,0.14l-0.012,0.036c0,0.004-0.005,0.004-0.014,0.008
	c-0.004,0.027-0.008,0.044-0.013,0.049l-0.048,0.078c-0.049,0.146-0.15,0.268-0.189,0.418l-0.034,0.088
	c-0.015,0.044-0.019,0.062-0.022,0.065l-0.022,0.018l-0.026,0.105l-0.039,0.118l-0.018,0.088l-0.018,0.045
	c-0.004,0.004-0.004,0.008-0.004,0.017c0,0.014,0.008,0.026,0.026,0.026c0.021,0,0.039-0.013,0.108-0.075l0.116-0.105l0.289-0.294
	c0.009-0.013,0.145-0.18,0.149-0.192c0.052-0.079,0.066-0.101,0.08-0.101c0,0,0.008,0.004,0.013,0.004
	c0,0.058-0.005,0.07-0.044,0.109l0.003,0.009l-0.039,0.022c0,0.022-0.004,0.034-0.092,0.136l-0.026,0.044l-0.035,0.031
	c-0.009,0.009-0.013,0.025-0.017,0.052c-0.019,0.021-0.032,0.036-0.036,0.04l-0.167,0.206l-0.048,0.049l-0.026,0.044l-0.04,0.031
	c-0.012,0.008-0.035,0.034-0.065,0.083c-0.014,0.018-0.035,0.039-0.114,0.114c-0.027,0.025-0.052,0.053-0.08,0.079
	c-0.009,0.004-0.018,0.017-0.036,0.03c-0.108-0.048-0.127-0.065-0.127-0.127c0-0.058,0.027-0.198,0.062-0.308l0.009-0.044
	c0.022-0.074,0.04-0.127,0.049-0.158l0.135-0.355l0.194-0.421c0.021-0.04,0.053-0.102,0.097-0.18c0.039-0.07,0.047-0.097,0.07-0.158
	c-0.013-0.019-0.026-0.026-0.035-0.026c-0.013,0-0.03,0.013-0.105,0.074l-0.049,0.04l-0.075,0.078l-0.114,0.119l-0.065,0.079
	c-0.045,0.044-0.075,0.075-0.079,0.083c-0.019,0.04-0.146,0.162-0.154,0.189c-0.044,0.039-0.044,0.039-0.092,0.113
	c-0.013,0.022-0.053,0.074-0.114,0.145c-0.039,0.049-0.069,0.088-0.095,0.124l-0.423,0.662l-0.008,0.026l-0.035,0.035
	c-0.013,0.022-0.031,0.031-0.044,0.031c-0.054,0-0.08-0.026-0.075-0.075l-0.035-0.018
	C244.875,189.31,244.875,189.302,244.879,189.302"/>
<path fill="#F15D2A" d="M247.857,187.146l0.07-0.035l0.053-0.009c0.013-0.004,0.026-0.009,0.035-0.009
	c0.036,0,0.053,0.022,0.062,0.066c0.057,0.026,0.074,0.039,0.079,0.062l0.013,0.03l0.053,0.074c0.003,0.014,0.008,0.027,0.008,0.04
	v0.018l-0.008,0.036l-0.01,0.056c-0.003,0.026-0.017,0.054-0.039,0.075l-0.043,0.053l-0.027,0.04l-0.088,0.088
	c-0.018,0.038-0.018,0.038-0.048,0.044c-0.026,0.048-0.034,0.065-0.048,0.074l-0.031,0.025c-0.031,0.026-0.048,0.036-0.07,0.044
	c0,0.01,0,0.014-0.036,0.036l-0.043,0.034c-0.022,0.014-0.036,0.027-0.036,0.027l-0.052,0.049l-0.018,0.018l-0.08,0.043l-0.04,0.035
	l-0.065,0.025c-0.009,0.006-0.018,0.015-0.026,0.032c-0.019,0-0.032,0.004-0.036,0.008l-0.036,0.03l-0.031,0.006
	c-0.004,0.005-0.008,0.009-0.012,0.022c-0.032,0.017-0.04,0.021-0.062,0.034c-0.031,0.009-0.04,0.014-0.044,0.014h-0.043
	c-0.009,0-0.022,0.005-0.039,0.008c-0.009-0.013-0.013-0.021-0.013-0.03c0-0.004,0-0.009,0.004-0.018
	c0.031-0.018,0.052-0.025,0.07-0.036c0.075-0.038,0.128-0.064,0.132-0.07l0.136-0.092l0.048-0.025
	c0.005-0.004,0.039-0.03,0.093-0.074l0.101-0.079l0.062-0.066c0.048-0.044,0.074-0.074,0.079-0.08l0.07-0.078
	c0.022-0.021,0.044-0.053,0.066-0.092l0.053-0.093l0.008-0.034c0.008-0.022,0.013-0.036,0.013-0.036l-0.008-0.044
	c0,0,0-0.004,0.008-0.013c-0.031-0.036-0.052-0.044-0.087-0.044c-0.062,0-0.114,0.018-0.198,0.074
	c-0.056,0.04-0.137,0.102-0.163,0.132l-0.062,0.07l-0.157,0.176l-0.039,0.062c-0.006,0.008-0.014,0.019-0.026,0.03
	c0,0.01-0.005,0.018-0.005,0.018l-0.018,0.026c-0.018,0.026-0.08,0.124-0.062,0.102c-0.004,0-0.018,0.03-0.039,0.069
	c-0.022,0.036-0.036,0.062-0.036,0.066c-0.008,0.026-0.018,0.044-0.021,0.044l-0.031,0.035l-0.009,0.035l-0.026,0.044l-0.008,0.03
	l-0.026,0.062c-0.008,0.027-0.013,0.031-0.026,0.04c0,0.004,0.004,0.009,0.004,0.014c0,0.004-0.009,0.025-0.022,0.052l-0.026,0.074
	l-0.036,0.115c-0.018,0.039-0.022,0.039-0.022,0.065c0,0.005-0.004,0.018-0.007,0.032c-0.005,0.007-0.01,0.024-0.014,0.047
	c-0.008,0.035-0.008,0.053-0.021,0.105c-0.005,0.004-0.005,0.026-0.005,0.058c0,0-0.004,0.043-0.008,0.097v0.012
	c0,0.018,0.004,0.032,0.008,0.036l0.026,0.021l0.021,0.022h0.027c0.08,0,0.142-0.026,0.269-0.118l0.06-0.044l0.141-0.109l0.07-0.058
	c0.013-0.009,0.031-0.022,0.062-0.053c0.04-0.049,0.052-0.039,0.189-0.186l0.026-0.021c0.009-0.009,0.017-0.022,0.03-0.039
	l0.032-0.031c0.004-0.013,0.009-0.017,0.009-0.017l0.039-0.036l0.018-0.025c0.004-0.014,0.017-0.026,0.036-0.04
	c0.004,0.009,0.004,0.009,0.017,0.009c-0.022,0.044-0.03,0.057-0.056,0.083c-0.066,0.08-0.11,0.132-0.11,0.132l-0.018,0.031
	l-0.074,0.079l-0.018,0.026l-0.115,0.109l-0.108,0.113l-0.146,0.128c-0.008,0.004-0.017,0.019-0.036,0.03
	c-0.025,0.022-0.035,0.027-0.061,0.044c-0.027,0.018-0.048,0.032-0.057,0.04l-0.031,0.026l-0.061,0.039
	c-0.005,0.005-0.009,0.01-0.013,0.021c-0.005,0-0.009-0.003-0.009-0.003c-0.004,0-0.008,0.003-0.013,0.013
	c-0.022,0.005-0.039,0.009-0.049,0.014l-0.034,0.013c-0.021,0.009-0.044,0.014-0.066,0.014c-0.122,0-0.193-0.102-0.193-0.276
	c0-0.044,0.005-0.084,0.005-0.097l0.031-0.128l0.017-0.101l0.079-0.242c0.006-0.021,0.006-0.034,0.009-0.034l0.036-0.079
	l0.131-0.285c0.045-0.097,0.171-0.308,0.238-0.395c0.008-0.01,0.052-0.066,0.118-0.146c0.041-0.044,0.062-0.074,0.066-0.08
	l0.126-0.126l0.081-0.075c0.022-0.018,0.047-0.035,0.074-0.053c0.071-0.048,0.115-0.074,0.119-0.074
	c0.022-0.014,0.022-0.014,0.031-0.035C247.841,187.155,247.853,187.151,247.857,187.146"/>
</svg>
