<?xml version="1.0" encoding="utf-8"?>
<!-- Generator: Adobe Illustrator 16.2.1, SVG Export Plug-In . SVG Version: 6.00 Build 0)  -->
<!DOCTYPE svg PUBLIC "-//W3C//DTD SVG 1.1//EN" "http://www.w3.org/Graphics/SVG/1.1/DTD/svg11.dtd">
<svg version="1.1" id="Layer_1" xmlns="http://www.w3.org/2000/svg" xmlns:xlink="http://www.w3.org/1999/xlink" x="0px" y="0px"
	 width="50px" height="50px" viewBox="0 0 50 50" enable-background="new 0 0 50 50" xml:space="preserve">
<g>
	<g>
		<path fill-rule="evenodd" clip-rule="evenodd" fill="#00B9F2" d="M0,25.001L0,25.001c0-1.481,1.185-2.665,2.667-2.665h15.818
			L7.288,11.138c-1.008-1.067-1.008-2.785,0-3.792l0,0c1.066-1.065,2.783-1.065,3.791,0l11.197,11.198V2.725
			C22.275,1.245,23.52,0,25,0l0,0c1.423,0,2.667,1.245,2.667,2.725v15.819L38.863,7.346c1.007-1.065,2.726-1.065,3.792,0l0,0
			c1.007,1.008,1.007,2.726,0,3.792L31.458,22.336h15.819c1.48,0,2.665,1.184,2.665,2.665l0,0c0,1.481-1.185,2.664-2.665,2.664
			H31.458l11.198,11.199c1.007,1.066,1.007,2.726,0,3.789l0,0c-1.066,1.067-2.785,1.067-3.792,0L27.667,31.457v15.819
			C27.667,48.758,26.423,50,25,50l0,0c-1.48,0-2.725-1.242-2.725-2.724V31.457L11.078,42.653c-1.007,1.067-2.725,1.067-3.791,0l0,0
			c-1.008-1.063-1.008-2.723,0-3.789l11.197-11.199H2.667C1.185,27.665,0,26.482,0,25.001z"/>
		<path fill-rule="evenodd" clip-rule="evenodd" fill="#004896" d="M7.821,25.001L7.821,25.001v-0.06l0,0
			c0-1.481,1.184-2.605,2.666-2.605h13.447l10.31-10.369c1.007-1.066,2.725-1.066,3.792,0l0,0c1.006,1.008,1.006,2.726,0,3.792
			l-6.518,6.516h7.939c1.481,0,2.665,1.185,2.665,2.666l0,0v0.06l0,0l0,0c0,1.481-1.184,2.664-2.665,2.664h-7.939l6.518,6.519
			c1.006,1.066,1.006,2.785,0,3.789l0,0c-1.067,1.069-2.785,1.069-3.792,0l-10.31-10.308H10.486
			C9.005,27.665,7.821,26.482,7.821,25.001L7.821,25.001L7.821,25.001z"/>
	</g>
</g>
</svg>
