<?xml version="1.0" encoding="utf-8"?>
<!-- Generator: Adobe Illustrator 16.2.1, SVG Export Plug-In . SVG Version: 6.00 Build 0)  -->
<!DOCTYPE svg PUBLIC "-//W3C//DTD SVG 1.1//EN" "http://www.w3.org/Graphics/SVG/1.1/DTD/svg11.dtd">
<svg version="1.1" id="Layer_1" xmlns="http://www.w3.org/2000/svg" xmlns:xlink="http://www.w3.org/1999/xlink" x="0px" y="0px"
	 width="50px" height="50px" viewBox="0 0 50 50" enable-background="new 0 0 50 50" xml:space="preserve">
<g>
	<path fill-rule="evenodd" clip-rule="evenodd" fill="#CC3333" d="M44.238,7.776L44.238,7.776c-0.013-0.035-0.03-0.07-0.039-0.107
		c-0.187-0.733-0.521-1.398-0.931-2.031c-0.167-0.304-0.366-0.589-0.595-0.853c-0.647-0.848-1.418-1.566-2.305-2.16
		c-0.49-0.344-0.975-0.694-1.549-0.891c-0.005-0.044-0.029-0.07-0.069-0.088c-0.486-0.226-0.97-0.458-1.482-0.619
		c-0.079-0.009-0.157-0.014-0.23-0.053c-0.402-0.219-0.847-0.309-1.283-0.419c-1.05-0.267-2.117-0.44-3.201-0.494
		c-0.92-0.083-1.84-0.083-2.761,0.001c-0.648,0.013-1.288,0.103-1.927,0.202c-0.27,0.043-0.542,0.07-0.806,0.133
		c-0.227,0.055-0.478,0.032-0.681,0.18c-0.18,0.028-0.364,0.044-0.54,0.088c-2.707,0.674-5.224,1.776-7.517,3.369
		c-2.636,1.833-4.764,4.1-6.07,7.069c-0.519,1.213-0.764,2.508-1.087,3.777c-0.334,1.309-0.656,2.621-0.983,3.932
		c-0.01,0.038-0.007,0.079-0.011,0.118c-0.009,0.054-0.009,0.1-0.003,0.139c-0.005-0.039-0.005-0.086,0.003-0.139
		c-0.127,0.333-0.127,0.335,0.216,0.333c0.249-0.002,0.498-0.006,0.746-0.011c0.074,0.09,0.015,0.201,0.05,0.297
		c-0.017,1.104-0.021,2.211,0.003,3.316c0,0.124,0,0.248,0,0.418c0.165-0.182,0.312-0.321,0.475-0.447
		c0.284-0.224,0.606-0.324,0.963-0.346c0.501-0.031,0.987,0.062,1.469,0.19c0.429,0.194,0.818,0.447,1.152,0.782
		c0.347,0.477,0.603,0.99,0.685,1.579c0.32,1.35-0.263,2.871-1.365,3.572c-0.296,0.188-0.628,0.282-0.958,0.379
		c-0.504,0.047-1.008,0.064-1.499-0.094c-0.336-0.154-0.637-0.359-0.932-0.675c0,0.199-0.01,0.34,0.002,0.477
		c0.016,0.159-0.041,0.205-0.2,0.201C10.31,28.895,9.642,28.9,8.974,28.9c-0.004-1.286-0.008-2.572-0.011-3.856
		c0-0.393,0-0.783,0-1.175c-0.074,0.113-0.106,0.231-0.113,0.355c-0.075,0.273-0.15,0.546-0.225,0.819
		c-0.331,1.334-0.659,2.67-0.989,4.006c-0.695,2.803-1.391,5.607-2.084,8.413c-0.123,0.498-0.154,1.011-0.218,1.521l0,0
		c-0.001,0.286-0.009,0.573-0.001,0.858c0.016,0.614,0.079,1.223,0.243,1.816c0.236,1.117,0.71,2.131,1.353,3.07
		c0.964,1.411,2.238,2.485,3.724,3.317c0.756,0.423,1.542,0.789,2.378,1.031c0.839,0.317,1.708,0.52,2.593,0.652
		c0.65,0.111,1.301,0.207,1.962,0.211c0.86,0.085,1.72,0.076,2.581-0.004c0.022,0,0.047,0,0.071-0.002
		c0.335-0.009,0.672-0.018,1.001-0.09c0.377-0.011,0.75-0.074,1.119-0.146c0.739-0.137,1.495-0.211,2.192-0.522
		c0.154,0.019,0.302-0.014,0.448-0.061c0.297-0.093,0.597-0.177,0.892-0.277c0.711-0.24,1.422-0.483,2.094-0.822
		c1.369-0.583,2.66-1.301,3.863-2.175c0.066-0.023,0.121-0.06,0.161-0.115l-0.001-0.015l0.002,0.015
		c0.227-0.139,0.443-0.287,0.626-0.481c-0.001,0,0.001-0.002,0.001-0.002c0.458-0.307,0.863-0.676,1.256-1.06l0,0
		c0.021-0.012,0.047-0.015,0.063-0.031c0.616-0.566,1.178-1.179,1.708-1.821c0.041-0.051,0.092-0.096,0.064-0.169
		c0.071-0.062,0.155-0.116,0.211-0.189c0.708-0.926,1.308-1.917,1.766-2.988h0c0.127-0.301,0.265-0.596,0.338-0.914
		c0.243-0.593,0.359-1.223,0.515-1.841c0.359-1.441,0.715-2.883,1.073-4.325c0.004-0.033,0.008-0.068,0.011-0.102
		c0.016-0.036,0.039-0.071,0.048-0.109c0.292-1.17,0.583-2.339,0.873-3.51c0.194-0.789,0.384-1.581,0.576-2.37v0.001
		c0.065-0.257,0.13-0.515,0.195-0.771c0.033-0.115,0.066-0.23,0.098-0.345c0.025-0.095,0.008-0.154-0.11-0.152
		c-0.383,0.006-0.747,0.062-1.035,0.35c-0.017,0-0.027,0.01-0.028,0.025c-0.038,0.01-0.067,0.025-0.077,0.067
		c-0.019,0.018-0.038,0.036-0.057,0.055c-0.016,0-0.032,0-0.048,0c-0.357,0.567-0.388,1.199-0.375,1.845
		c0.011,0.608-0.002,1.217,0.005,1.825c0.002,0.143-0.029,0.194-0.184,0.192c-0.699-0.012-1.398-0.006-2.098-0.008
		c-0.003-1.286-0.007-2.57-0.01-3.854c0.002-0.818,0.005-1.637,0.008-2.455c0.699-0.002,1.397,0.001,2.097-0.008
		c0.146-0.002,0.199,0.04,0.189,0.189c-0.013,0.171-0.002,0.345-0.002,0.569c0.108-0.103,0.177-0.175,0.252-0.242
		c0.505-0.436,1.109-0.558,1.751-0.494c0.208,0.021,0.27-0.022,0.251-0.216c0.097-0.098,0.1-0.231,0.129-0.354
		c0.2-0.813,0.398-1.628,0.595-2.443h0.001c0.281-1.022,0.533-2.052,0.769-3.086c0.002-0.019,0.006-0.035,0.007-0.053
		c-0.004-0.396,0.083-0.774,0.196-1.146c-0.113,0.373-0.2,0.751-0.196,1.148c0.287-1.005,0.523-2.023,0.766-3.039
		c0.004-0.028,0.007-0.055,0.011-0.083c0.228-0.726,0.362-1.467,0.385-2.228c0.016,0,0.033,0,0.049,0
		c-0.009-0.371-0.009-0.742-0.028-1.113C44.603,9.237,44.505,8.49,44.238,7.776z M44.239,7.825c0.001-0.016-0.001-0.033-0.001-0.049
		c-0.012,0-0.016-0.004-0.025-0.003c0.01-0.001,0.014,0.004,0.025,0.003l0,0l0,0C44.237,7.792,44.24,7.809,44.239,7.825z
		 M16.414,25.044c0.015,0,0.033,0,0.048,0c0.178-1.028,0.767-1.759,1.687-2.216c1.015-0.504,2.074-0.485,3.142-0.167
		c1.114,0.417,1.889,1.15,2.196,2.325c0.007,0.021,0.027,0.038,0.041,0.058c0.034,0.335,0.094,0.666,0.094,1.005
		c0,0.188-0.063,0.225-0.238,0.225c-1.467-0.007-2.935-0.007-4.402-0.003c-0.082,0-0.197-0.05-0.242,0.042
		c-0.046,0.094,0.031,0.181,0.083,0.263c0.372,0.587,0.816,0.773,1.524,0.646c0.031-0.006,0.064-0.003,0.096-0.006
		c0.291,0.021,0.466-0.185,0.647-0.354c0.098-0.092,0.188-0.123,0.314-0.123c0.658,0.002,1.318-0.003,1.977-0.007
		c0.14,0.026,0.07,0.107,0.047,0.178c-0.232,0.723-0.722,1.229-1.364,1.606c-0.419,0.246-0.881,0.373-1.349,0.485
		c-0.666,0.078-1.324,0.041-1.978-0.11c-0.085-0.058-0.18-0.082-0.281-0.09c-0.029-0.048-0.083-0.042-0.126-0.059
		c-0.986-0.396-1.646-1.079-1.896-2.127c-0.104-0.428-0.054-0.861-0.067-1.289C16.383,25.231,16.398,25.138,16.414,25.044z
		 M26.238,19.253c0.097,0.06,0.062,0.157,0.062,0.24c0.001,1.81,0,3.621-0.001,5.432c0,0.04-0.009,0.08-0.014,0.119
		c0.005,1.072,0.011,2.146,0.013,3.216c0,0.207,0.086,0.476-0.038,0.603c-0.127,0.127-0.396,0.038-0.603,0.038
		c-0.531,0.004-1.061,0-1.591,0c-0.001-1.286-0.005-2.572-0.007-3.856c-0.001-1.914-0.002-3.827-0.003-5.741
		c0.018-0.017,0.036-0.034,0.054-0.051C24.818,19.275,25.528,19.271,26.238,19.253z M31.638,22.752
		c-0.009-0.121,0.018-0.171,0.153-0.17c0.692,0.01,1.385,0.011,2.078,0.014c0.004,0.817,0.008,1.633,0.012,2.448
		c-0.003,1.283-0.005,2.565-0.006,3.848c-0.699,0.003-1.396,0.003-2.094,0.013c-0.151,0.004-0.14-0.075-0.143-0.177
		c-0.005-0.133,0.06-0.337-0.031-0.386c-0.114-0.062-0.208,0.129-0.316,0.2c-0.222,0.148-0.462,0.257-0.703,0.366
		c-0.07,0.015-0.142,0.022-0.21,0.04c-0.593,0.157-1.169,0.097-1.736-0.119c-0.404-0.154-0.733-0.414-1.046-0.702c0,0,0,0,0.001,0
		c-0.033-0.046-0.064-0.09-0.098-0.134c-0.657-0.889-0.838-1.877-0.632-2.949c0.046-0.389,0.188-0.744,0.377-1.082
		c0.342-0.615,0.869-1.017,1.51-1.282c-0.001,0-0.001,0-0.001,0c0.69-0.176,1.381-0.281,2.074-0.01
		c0.293,0.136,0.536,0.341,0.814,0.601C31.64,23.062,31.647,22.905,31.638,22.752z M36.877,19.933
		c0.231,0.591,0.009,1.247-0.53,1.568c-0.533,0.317-1.242,0.201-1.647-0.267c-0.393-0.455-0.403-1.175-0.021-1.645
		c0.218-0.269,0.515-0.403,0.844-0.478c0.547-0.022,0.982,0.176,1.284,0.642C36.831,19.812,36.854,19.871,36.877,19.933z
		 M27.593,28.127c0,0.002,0,0.003,0,0.005C27.593,28.13,27.593,28.129,27.593,28.127L27.593,28.127z M36.82,28.729
		c0.001,0.136-0.038,0.18-0.176,0.176c-0.725-0.007-1.449-0.006-2.175-0.011c-0.175-0.022-0.099-0.161-0.099-0.246
		c-0.006-1.201-0.005-2.402-0.006-3.604c0.033,0,0.064,0,0.096,0c0.002-0.818,0.004-1.635,0.005-2.452
		c0.725-0.002,1.449,0,2.175-0.01c0.163-0.003,0.18,0.067,0.18,0.2c-0.006,0.667-0.003,1.332-0.002,1.999
		c0,0.087,0.009,0.174,0.014,0.263c-0.003,0.577-0.011,1.155-0.014,1.734C36.815,27.427,36.814,28.078,36.82,28.729z"/>
	<path fill-rule="evenodd" clip-rule="evenodd" fill="#CC3333" d="M31.51,24.91c-0.422-0.573-1.204-0.714-1.753-0.314v-0.002
		c-0.066,0.008-0.113,0.046-0.148,0.101c-0.118,0.096-0.227,0.199-0.275,0.35c-0.016,0-0.032,0-0.049,0
		c-0.022,0.067-0.042,0.134-0.064,0.201c-0.157,0.48-0.127,0.936,0.199,1.347c0.539,0.697,1.474,0.728,2.034,0.053
		c0.408-0.491,0.414-1.037,0.154-1.601C31.575,25,31.542,24.955,31.51,24.91z M29.893,24.586c-0.038,0.019-0.091,0.008-0.137,0.011
		l0,0C29.802,24.594,29.855,24.604,29.893,24.586z"/>
	<path fill-rule="evenodd" clip-rule="evenodd" fill="#CC3333" d="M18.852,24.947c0.723,0.002,1.445-0.002,2.166-0.006
		c0.027,0,0.053,0,0.08,0c0.052,0.01,0.104,0.005,0.073-0.063c-0.043-0.095-0.068-0.203-0.162-0.271
		c-0.298-0.431-0.728-0.591-1.231-0.532c-0.489,0.06-0.844,0.323-1.042,0.781C18.675,25.009,18.807,24.947,18.852,24.947z"/>
	<path fill-rule="evenodd" clip-rule="evenodd" fill="#CC3333" d="M11.655,26.883c0.371,0.261,0.768,0.27,1.18,0.119
		c0.457-0.148,0.693-0.491,0.826-0.927c0.11-0.358-0.002-0.694-0.102-1.031c-0.016,0-0.032,0-0.048,0
		c-0.242-0.446-0.62-0.677-1.126-0.685c-0.521-0.011-0.896,0.236-1.148,0.685c-0.017,0-0.033,0-0.048,0
		c-0.022,0.084-0.041,0.17-0.067,0.252C10.932,25.899,11.14,26.526,11.655,26.883z"/>
</g>
</svg>
