<?xml version="1.0" encoding="utf-8"?>
<!-- Generator: Adobe Illustrator 16.2.1, SVG Export Plug-In . SVG Version: 6.00 Build 0)  -->
<!DOCTYPE svg PUBLIC "-//W3C//DTD SVG 1.1//EN" "http://www.w3.org/Graphics/SVG/1.1/DTD/svg11.dtd">
<svg version="1.1" id="svg2367" xmlns:svg="http://www.w3.org/2000/svg"
	 xmlns="http://www.w3.org/2000/svg" xmlns:xlink="http://www.w3.org/1999/xlink" x="0px" y="0px" width="50px" height="50px"
	 viewBox="393.414 106.031 50 50" enable-background="new 393.414 106.031 50 50" xml:space="preserve">
<g id="g3467" transform="matrix(1.25,0,0,-1.25,343.58985,477.75288)">
	<path id="path3469" fill="#FBBA00" d="M53.074,270.826c-0.259,0.318-0.533,0.709-0.948,1.434c-0.38,0.659-3.907,6.765-4.61,7.983
		c-0.701,1.216-1.614,2.703-5.172,2.703c-0.752,0-1.609,0-2.484-0.086c0.672-0.752,1.317-1.781,2.049-3.05
		c2.007-3.474,4.896-8.48,5.09-8.816c0.128-0.223,0.557-0.992,0.831-1.368C48.843,268.993,51.6,268.968,53.074,270.826"/>
</g>
<g id="g3471" transform="matrix(1.25,0,0,-1.25,358.01798,459.50776)">
	<path id="path3473" fill="#7F103F" d="M55.34,273.693c-3.556,0-4.467-1.487-5.17-2.705c-0.703-1.216-7.316-12.664-7.691-13.323
		c-0.42-0.725-0.689-1.116-0.946-1.434c1.472-1.859,4.228-1.833,5.243-1.2c0.274,0.376,0.703,1.145,0.831,1.37
		c0.192,0.334,6.164,10.681,8.169,14.156c0.734,1.268,1.377,2.296,2.049,3.048C56.952,273.693,56.094,273.693,55.34,273.693"/>
</g>
<g id="g3475" transform="matrix(1.25,0,0,-1.25,343.58985,477.75288)">
	<path id="path3477" fill="#AB0051" d="M53.074,270.826c-1.474-1.859-4.23-1.833-5.245-1.2c1.176-1.645,3.086-2.714,5.245-2.714
		s4.069,1.07,5.247,2.714C57.302,268.993,54.548,268.968,53.074,270.826"/>
</g>
<g id="g3479" transform="matrix(1.25,0,0,-1.25,354.5516,477.75288)">
	<path id="path3481" fill="#FBBA00" d="M54.796,270.826c-0.259,0.318-0.53,0.709-0.95,1.434c-0.376,0.659-3.908,6.765-4.611,7.983
		c-0.698,1.216-1.609,2.703-5.168,2.703c-0.751,0-1.611,0-2.484-0.086c0.67-0.752,1.312-1.781,2.046-3.05
		c2.005-3.474,4.898-8.48,5.092-8.816c0.126-0.223,0.557-0.992,0.827-1.368C50.566,268.993,53.324,268.968,54.796,270.826"/>
</g>
<g id="g3483" transform="matrix(1.25,0,0,-1.25,368.9786,459.50776)">
	<path id="path3485" fill="#7F103F" d="M57.064,273.693c-3.558,0-4.469-1.487-5.172-2.705c-0.698-1.216-7.311-12.664-7.689-13.323
		c-0.418-0.725-0.688-1.116-0.948-1.434c1.472-1.859,4.23-1.833,5.247-1.2c0.27,0.376,0.701,1.145,0.831,1.37
		c0.19,0.334,6.162,10.681,8.169,14.156c0.731,1.268,1.375,2.296,2.046,3.048C58.675,273.693,57.815,273.693,57.064,273.693"/>
</g>
<g id="g3487" transform="matrix(1.25,0,0,-1.25,354.5516,477.75288)">
	<path id="path3489" fill="#AB0051" d="M54.796,270.826c-1.472-1.859-4.23-1.833-5.247-1.2c1.176-1.645,3.086-2.714,5.247-2.714
		c2.157,0,4.071,1.07,5.247,2.714C59.026,268.993,56.268,268.968,54.796,270.826"/>
</g>
<g id="g3491" transform="matrix(1.25,0,0,-1.25,352.1306,473.77651)">
	<path id="path3493" fill="#AB0051" d="M54.417,271.451c-0.999,1.727-2.277,3.937-2.931,5.073c-1.034-1.795-2.113-3.655-2.929-5.073
		c1.11-1.92,1.996-3.456,2.102-3.635c0.128-0.226,0.557-0.995,0.827-1.37c0.272,0.376,0.703,1.145,0.831,1.37
		C52.388,267.937,53.254,269.437,54.417,271.451"/>
</g>
</svg>
