<?xml version="1.0" encoding="utf-8"?>
<!-- Generator: Adobe Illustrator 16.2.1, SVG Export Plug-In . SVG Version: 6.00 Build 0)  -->
<!DOCTYPE svg PUBLIC "-//W3C//DTD SVG 1.1//EN" "http://www.w3.org/Graphics/SVG/1.1/DTD/svg11.dtd">
<svg version="1.1" id="Layer_1" xmlns="http://www.w3.org/2000/svg" xmlns:xlink="http://www.w3.org/1999/xlink" x="0px" y="0px"
	 width="50px" height="50px" viewBox="76 58.5 50 50" enable-background="new 76 58.5 50 50" xml:space="preserve">
<path fill="#E60004" d="M77.139,80.356c0,0,0.714-3.622,2.94-2.58c0.07,0.048,2.968,0.73-2.696,11.212
	c0,0,5.381-15.464,8.649-13.052c1.759,1.297-3.329,6.683-2.463,11.738c0,0,2.734-3.564,3.293-4.392
	c1.046-1.544,3.101-2.446,3.599,1.026c0,0-1.007-3.187-2.725-0.941c-1.364,1.78-1.137,3.985-0.719,3.864
	c0.415-0.121,1.667-2.548,1.667-2.548s0.276-0.063,0.791,0.374c0,0-0.78,1.187-0.177,2.011c0,0,2.303-2.896,3.059-6.428
	c0,0-6.52,0.151-3.971-1.775c0,0-1.112,1.417,4.036,0.994c0,0,0.562-3.47,0.418-4.833c0,0,0.781,0.067,0.784,1.404
	c0.004,1.337-0.257,3.352-0.255,3.379c0.001,0.028,7.456-0.645,9.046-0.57c0,0,0.168,0.107,0.562,0.183c0,0-7.229,0.808-9.675,1.199
	c0,0-0.132,1.118-0.235,1.512c0,0-0.098,2.174-0.295,3.294c0,0,0.979-0.575,1.769-3.135c0.026-0.085-0.001-0.056-0.001-0.056
	l0.756,0.206c0,0-0.79,1.914-0.612,3.664c0,0,1.723-1.514,2.267-4.54l0.788,0.318c0,0-0.882,1.637-0.951,3.533
	c0,0,2.69-1.79,3.297-4.536l0.718-0.295c0,0,2.121,1.289,1.376,2.867c-0.745,1.579-3.087,3.975-1.745,4.167
	c1.342,0.191,2.105-1.034,2.597-1.407c0,0-1.07,2.405-2.947,1.889c-1.88-0.514,0.155-2.958,0.805-3.752
	c0.65-0.796,1.658-1.798-0.324-3.229c0,0-0.825,4.201-4.09,5.251c0,0-1.029,0.163-0.314-1.58c0,0-0.519,1.711-1.644,2.435
	l-0.509-0.269c0,0-0.433-0.631-0.096-1.781c0,0-0.232,0.896-1.523,1.651l-0.565-0.266c0,0,0.389-2.575,0.277-3.741
	c0,0-2.658,8.116-3.51,3.76c0,0-2.537,3.683-2.527-0.806c0,0-3.205,4.924-3.509,2.617c0,0-0.614-3.639,1.501-7.505
	c0,0,2.324-4.412,1.235-4.463c0,0-2.521,0.755-5.459,8.741c0,0-2.653,8.339-3.809,6.555c-0.342-1.23,3.214-9.158,3.27-9.216
	c0,0,1.722-3.569,0.257-4.313C79.55,78.193,78.105,77.704,77.139,80.356"/>
<path fill="#E60004" d="M103.791,84.632c0,0,4.22,0.142,2.727-3.114c-1.589-3.461-7.066,6.595-2.866,6.402
	c0,0,1.706-0.042,2.364-1.035c0,0-5.16,3.353-1.754-3.93c0,0,1.589-2.658,1.75,0.009C106.082,84.11,104.303,84.62,103.791,84.632"/>
<path fill="#E60004" d="M117.252,78.784c0,0-0.033-5.081-4.121-3.303c-4.086,1.779-7.072,11.085-3.385,11.45
	c0,0,1.686,0.129,3-2.482c0,0-1.398,6.347,3.388-0.442c0,0-1.103,5.029,2.277,1.332c0,0,1.447-1.895,2.009-3.992
	c-0.036,0.134,1.888,1.145,0.853,2.651c-1.331,1.94-4.197,5.544,2.188,3.63c0,0-4.828,1.231-2.986-1.729
	c1.84-2.963,2.706-3.236,0.078-5.168l-0.5,0.263c0,0-1.046,3.31-2.374,4.268c-1.324,0.957-1.623,0.263-0.783-2.396l-0.627-0.352
	c0,0-2.411,3.873-3.001,3.803c-0.591-0.069,0.642-5.04,1.952-7.963l-0.657-0.406c0,0-1.968,6.051-3.668,7.722
	c-1.789,1.756-1.758-1.205-1.35-3.143c0.464-2.194,1.573-5.37,4.659-6.731C114.205,75.795,116.6,74.784,117.252,78.784"/>
<path fill="#E60004" d="M116.551,81.299c0,0,0.575,0.522,1.194,0.703c0,0-0.515-0.521-0.247-1.003
	C117.499,80.999,116.223,80.465,116.551,81.299"/>
<path fill="#E60004" d="M126,87.069l-0.327,0.008l-0.016-0.614l-0.356,0.374l-0.09,0.002l-0.367-0.353l0.012,0.609l-0.259,0.007
	l-0.026-1.155l0.183-0.006l0.568,0.542l0.53-0.565l0.122-0.002L126,87.069z M124.426,86.18l-0.38,0.011l0.022,0.924l-0.295,0.006
	l-0.023-0.925l-0.373,0.008l-0.006-0.229l1.047-0.024L124.426,86.18z"/>
</svg>
