<?xml version="1.0" encoding="utf-8"?>
<!-- Generator: Adobe Illustrator 16.2.1, SVG Export Plug-In . SVG Version: 6.00 Build 0)  -->
<!DOCTYPE svg PUBLIC "-//W3C//DTD SVG 1.1//EN" "http://www.w3.org/Graphics/SVG/1.1/DTD/svg11.dtd">
<svg version="1.1" id="Layer_1" xmlns="http://www.w3.org/2000/svg" xmlns:xlink="http://www.w3.org/1999/xlink" x="0px" y="0px"
	 width="50px" height="50px" viewBox="140 59.5 50 50" enable-background="new 140 59.5 50 50" xml:space="preserve">
<g id="_x23_006a4fff">
	<path fill="#006A4F" d="M149.709,71.926c-0.159-1.47,0.652-2.768,1.228-4.047c1.255,4.561,6.285,6.479,10.604,6.449
		c5.815,0.404,11.375-2.383,17.19-1.516c1.926,0.254,3.584,1.337,5.195,2.338c-3.339-0.355-6.468,1.8-9.762,0.842
		c-7.512,3.408-12.167,10.744-19.224,14.812c-4.414,2.729-10.413,0.339-13.048-3.777c-0.912-1.355-0.881-2.987-0.412-4.497
		c1.64,1.982,3.465,3.978,5.992,4.79c4.41,1.633,9.318,0.221,12.985-2.473c-4.757,1.794-10.616,1.725-14.454-2.012
		c1.241,0.111,2.476,0.266,3.712,0.404c-2.237-1.014-4.308-2.35-5.866-4.268c-0.552-1.907-1.097-3.884-0.836-5.887
		c0.469-1.273,1.311-2.356,2.103-3.433c-0.164,2.521,0.152,5.295,2.237,7.019c5.662,5.048,14.891,5.688,21.143,1.318
		c-6.169,1.272-13.466,1.88-18.56-2.598c0.551,0.083,1.654,0.241,2.205,0.317C151.159,74.588,149.721,73.567,149.709,71.926z"/>
</g>
<g id="_x23_0064b2ff">
	<path fill="#0064B2" d="M149.506,75.057c-1.704-1.921-1.799-4.757,0.115-6.581C149.126,70.646,149.266,72.863,149.506,75.057z"/>
	<path fill="#0064B2" d="M145.959,82.67c-4.181-1.763-5.372-6.943-3.688-10.876c0.481,2.355-0.228,5.271,1.578,7.178
		C144.458,80.256,145.294,81.415,145.959,82.67z"/>
	<path fill="#0064B2" d="M147.783,74.904c2.509,1.209,4.631,3.216,7.392,3.882c2.585,0.817,5.328,0.424,7.975,0.817
		C157.848,80.845,150.678,80.225,147.783,74.904z"/>
	<path fill="#0064B2" d="M174.05,78.793c4.237-2.204,9.444-3.528,14.055-1.711c1.533,0.476,1.685,2.135,1.895,3.473
		c-2.021-0.819-4.244-1.072-6.322-0.286c-8.36,2.698-15.366,8.559-20.812,15.323c0.645-2.053,1.406-4.054,2.223-6.044
		c-2.375,2.021-4.764,4.054-6.766,6.461c-1.063,1.286-2.267,2.643-2.369,4.396c-0.177,0.179-0.533,0.533-0.709,0.717
		c-0.203-0.128-0.608-0.369-0.812-0.489C158.412,91.505,165.252,83.543,174.05,78.793z"/>
	<path fill="#0064B2" d="M143.426,82.429c1.57,0.677,3.041,1.552,4.478,2.49c2.173,1.432,4.89,1.321,7.291,2.152
		C150.785,88.085,145.56,86.71,143.426,82.429z"/>
	<path fill="#0064B2" d="M140.182,82.936c0.564,1.843,0.583,3.933,1.87,5.479c1.709,2.128,4.25,3.515,6.891,4.104
		c2.851,0.614,5.479-1.065,8.089-1.874c-4.174,4.022-12.047,4.554-15.67-0.438C139.625,88.186,139.961,85.386,140.182,82.936z"/>
</g>
</svg>
