<?xml version="1.0" encoding="utf-8"?>
<!-- Generator: Adobe Illustrator 16.2.1, SVG Export Plug-In . SVG Version: 6.00 Build 0)  -->
<!DOCTYPE svg PUBLIC "-//W3C//DTD SVG 1.1//EN" "http://www.w3.org/Graphics/SVG/1.1/DTD/svg11.dtd">
<svg version="1.1" id="Layer_1" xmlns="http://www.w3.org/2000/svg" xmlns:xlink="http://www.w3.org/1999/xlink" x="0px" y="0px"
	 width="50px" height="50px" viewBox="268.5 70.167 50 50" enable-background="new 268.5 70.167 50 50" xml:space="preserve">
<g id="Layer_2">
</g>
<g id="Layer_1_1_">
	<path fill="#FFD503" d="M316.681,93.225l-0.086-0.108c-0.004-0.007-0.013-0.011-0.018-0.017c-0.027-0.025-0.059-0.044-0.097-0.042
		c-1.179,0.052-2.317,0.658-3.418,1.244c-0.506,0.271-1.004,0.535-1.502,0.749c-0.981,0.216-2.05,0.336-3.146,0.271
		c-0.339-0.126-0.685-0.308-1.04-0.568c-7.792-5.725-12.144-3.445-15.321-1.781c-2.024,1.062-3.487,1.828-5.078,0.134
		c-1.846-1.966-5.477-2.712-10.794-2.217c-1.602,0.149-3.123,0.396-4.366,0.635c-1.753,0.271-2.973,0.593-3.209,0.707
		c-0.113,0.055-0.109,0.138-0.102,0.171c0.004,0.018,0.029,0.108,0.15,0.111l0.824,0.014c2.01,0.027,5.373,0.075,8.199,1.024
		c3.37,1.132,5.158,3.276,5.313,6.375c0.084,1.67,0.602,2.715,1.539,3.109c2.513,1.055,7.203-3.02,7.729-3.487
		c-0.007,0.006,0.086-0.066,0.086-0.066c2.923-2.267,3.299-2.557,9.293-0.146c5.11,2.057,8.935,0.322,11.243-1.496
		c2.494-1.965,3.8-4.448,3.814-4.473C316.718,93.322,316.714,93.266,316.681,93.225"/>
	<path fill="#00458B" d="M313.061,96.86c-2.75,2.111-5.31,2.539-7.401,1.232c-2.076-1.297-2.976-2.047-3.635-2.592
		c-0.776-0.646-1.202-1.001-2.877-1.653c-3.609-1.405-6.277,1.321-8.421,3.513c-1.422,1.453-2.651,2.71-3.81,2.355
		c-1.349-0.41-1.404-1.319-1.47-2.373c-0.049-0.782-0.104-1.67-0.673-2.595c-1.969-3.2-10.437-2.81-14.176-2.466
		c2.023,0.049,4.775,0.215,7.166,1.017c3.483,1.173,5.333,3.396,5.494,6.615c0.077,1.558,0.54,2.527,1.375,2.877
		c1.918,0.804,5.585-1.784,7.457-3.446l0.092-0.071c2.965-2.298,3.42-2.651,9.557-0.182c4.004,1.611,7.695,1.122,10.972-1.454
		c1.592-1.252,2.686-2.714,3.265-3.594C315.357,94.771,314.321,95.891,313.061,96.86"/>
	<path fill="#0077C1" d="M286.781,93.291c1.729,1.842,3.347,0.993,5.395-0.079c3.116-1.633,7.382-3.868,15.041,1.759
		c2.17,1.596,4.102,0.564,5.973-0.433c0.977-0.521,1.986-1.054,3.002-1.184c-1.022,1.293-6.055,7.219-10.39,4.511
		c-2.062-1.286-2.955-2.029-3.607-2.57c-0.797-0.662-1.235-1.027-2.952-1.696c-3.773-1.47-6.509,1.327-8.708,3.574
		c-1.362,1.391-2.537,2.594-3.542,2.287c-1.171-0.357-1.217-1.103-1.281-2.133c-0.051-0.815-0.108-1.738-0.711-2.719
		c-2.004-3.258-10.087-2.982-14.042-2.635C274.972,91.13,283.542,89.838,286.781,93.291"/>
	<path fill="#00458B" d="M300.382,95.166c0,4.88,4.063,8.849,9.059,8.849c4.996,0,9.059-3.969,9.059-8.849
		c0-4.879-4.062-8.847-9.059-8.847C304.446,86.319,300.382,90.287,300.382,95.166"/>
	<path fill="#FFD503" d="M301.042,95.166c0-4.514,3.767-8.187,8.399-8.187c4.632,0,8.401,3.673,8.401,8.187
		c0,4.515-3.769,8.188-8.401,8.188C304.809,103.354,301.042,99.68,301.042,95.166"/>
	<path fill="#00458B" d="M317.534,100.99c-0.633-0.825-1.109-1.68-1.023-1.829l-0.001,0.003l0.033-0.042l0.002-0.062
		c-0.009-0.111-0.216-2.682-1.599-3.326c-1.189-3.103-7.963-2.475-8.749-2.391c-0.191-0.166-0.706-0.333-1.548-0.498l-0.009-0.002
		c0,0-0.443-0.025-0.473-0.028c-0.028-0.009-0.266-0.08-0.266-0.08c-0.005-0.001-0.428-0.113-0.428-0.113
		c0.004,0.001-0.276-0.083-0.276-0.083l-0.012-0.004l-0.28-0.031c0,0-0.219,0.021-0.281,0.025c-0.031-0.016-0.063-0.034-0.119-0.065
		c0.007-0.033,0.011-0.062,0.011-0.09c0-0.096-0.035-0.163-0.072-0.209c-0.158-0.188-0.521-0.153-0.697-0.124
		c-0.066-0.081-0.222-0.271-0.222-0.271l-0.396-0.181c0.004,0.001-0.334-0.168-0.334-0.168l-0.025-0.013
		c0,0-0.392-0.028-0.411-0.029c-0.02-0.005-0.243-0.055-0.244-0.055l-0.291-0.09l-0.094-0.045c-0.224-0.093-0.644,0.048-0.912,0.16
		c-0.046,0-0.933,0-0.933,0c-0.195,0-0.463,0.022-0.532,0.214c-0.01,0.027-0.014,0.055-0.014,0.08c0,0.168,0.166,0.314,0.204,0.346
		l0.007,0.005c0,0,0.012,0.007,0.021,0.012c0.021,0.024,0.037,0.124,0.037,0.226c0,0.021,0,0.043-0.002,0.063l0.013-0.047
		c-0.016,0.035-0.023,0.071-0.023,0.11c0,0.366,0.641,0.923,1.051,1.24l0.031,0.024c0,0,0.014,0,0.021,0
		c0.078,0.066,0.289,0.417,0.445,0.72l0.066,0.127l0.125-0.07c0.228-0.128,0.713,0.434,0.971,0.854l0.049,0.082l0.095-0.019
		c0.228-0.045,0.688,0.459,0.93,0.814l0.035,0.054l0.063,0.007c0.335,0.039,0.688,0.534,0.798,0.721l0.065,0.113l0.117-0.059
		c0.039-0.019,0.059-0.015,0.074-0.007c0.088,0.042,0.167,0.232,0.2,0.365c-0.032,0.107-0.048,0.211-0.048,0.31
		c0,0.482,0.331,0.839,0.564,0.995c0.562,0.966,0.845,1.766,0.845,2.391c0,0.293-0.061,0.544-0.183,0.758
		c-0.429,0.751-1.503,0.762-1.514,0.762h-0.01l-0.009,0.002c-0.239,0.034-0.423,0.141-0.549,0.319
		c-0.146,0.205-0.18,0.465-0.18,0.663c0,0.167,0.024,0.291,0.027,0.301l0.023,0.111l4.394,0.018l-0.083-0.194
		c-0.041-0.098-0.059-0.186-0.059-0.261c0-0.268,0.201-0.406,0.251-0.437c0.535-0.051,0.721-0.77,0.728-0.803l0.008-0.029
		l-0.008-0.032c-0.004-0.027-0.007-0.057-0.007-0.09c0-0.269,0.185-0.686,0.296-0.9c0.117-0.013,0.195-0.068,0.239-0.12
		c0.089-0.108,0.119-0.27,0.119-0.43c0-0.174-0.034-0.345-0.061-0.456c0.479-0.315,1.073-0.062,1.145-0.028
		c0.257,0.298,0.877,0.318,1.181,0.31c0.006,0.451,0.289,1.314,0.439,1.74c-1.598,0.493-1.642,1.525-1.644,1.571l-0.002,0.142
		l4.107,0.009l0.843-0.81l-0.037-0.087c-0.19-0.458-0.262-0.865-0.262-1.219c0-0.532,0.162-0.943,0.331-1.228
		c0.176,0.17,0.42,0.37,0.624,0.401c0.199,0.106,0.692,0.437,0.722,0.77c0,0.01,0.002,0.021,0.002,0.03
		c0,0.134-0.079,0.26-0.234,0.386c-0.375,0.121-1.144,0.415-1.144,0.794c0,0.021,0.002,0.045,0.008,0.067l0.013,0.054l0.729,0.473
		l1.618,0.002l1.535-0.621l0.023-0.04C317.541,102.873,318.145,101.814,317.534,100.99"/>
	<path fill="#FFFFFF" d="M317.291,101.156c-0.431-0.563-1.077-1.487-1.077-1.966c0-0.057,0.013-0.103,0.03-0.145
		c-0.027-0.286-0.251-2.242-1.227-2.934c0.045,0.518,0.106,1.561-0.23,1.639c-0.062,0.014-0.127,0.004-0.199-0.053
		c0.013,0.118,0.021,0.242,0.021,0.371c0,0.6-0.144,1.311-0.614,2.035l-0.011,0.017l-0.017,0.013
		c-0.013,0.012-0.103,0.092-0.214,0.235c0.198,0.197,0.415,0.367,0.519,0.367h0.034l0.031,0.015c0.034,0.018,0.829,0.438,0.88,0.996
		c0.001,0.02,0.002,0.039,0.002,0.06c0,0.224-0.118,0.431-0.354,0.615l-0.018,0.015l-0.027,0.008
		c-0.496,0.157-0.902,0.388-0.966,0.504c0.106,0.067,0.489,0.315,0.542,0.351c0.077,0.002,1.433,0.003,1.483,0.003
		c0.047-0.02,1.308-0.528,1.395-0.564c0.06-0.115,0.231-0.483,0.231-0.895C317.505,101.612,317.451,101.372,317.291,101.156"/>
	<path fill="#FFFFFF" d="M314.748,95.997c-0.954-3.22-8.511-2.381-8.586-2.371l-0.102-0.005l-0.039-0.073
		c-0.089-0.108-0.8-0.309-1.416-0.43c-0.019-0.001-0.486-0.028-0.486-0.028l-0.293-0.088c0,0-0.423-0.113-0.427-0.113
		c0,0-0.248-0.076-0.269-0.081c-0.023-0.003-0.206-0.021-0.229-0.026c-0.025,0.002-0.339,0.031-0.339,0.031l-0.153-0.085
		c-0.149,0.249-0.515,0.488-0.646,0.568l-0.145-0.237c0.25-0.151,0.478-0.347,0.553-0.463l-0.008-0.005l0.049-0.116
		c0.026-0.063,0.034-0.113,0.018-0.132c-0.053-0.062-0.312-0.061-0.508-0.018l-0.084,0.02c0,0-0.254-0.31-0.287-0.352
		c-0.084-0.038-0.34-0.155-0.342-0.156c0,0-0.272-0.138-0.314-0.157c-0.048-0.004-0.379-0.027-0.379-0.027l-0.009-0.003
		c0,0-0.254-0.056-0.264-0.059l-0.366-0.112l-0.044-0.023c0,0-0.008-0.007-0.015-0.014c-0.073-0.039-0.417,0.043-0.72,0.173
		l-0.026,0.011h-0.978c-0.016,0.069-0.045,0.172-0.09,0.232c0.066,0.104,0.08,0.249,0.081,0.354
		c0.477,0.195,0.511,0.283,0.527,0.331l-0.185,0.054l-0.121-0.048c-0.036-0.018-0.1-0.027-0.18-0.047
		c0.127,0.202,0.466,0.544,0.855,0.85c0.092,0.027,0.242,0.177,0.552,0.759c0.47-0.08,0.99,0.657,1.165,0.932
		c0.44,0.023,0.934,0.681,1.081,0.894c0.409,0.095,0.749,0.55,0.878,0.747c0.081-0.011,0.148,0.006,0.195,0.028
		c0.246,0.118,0.34,0.505,0.358,0.582l0.008,0.037l-0.012,0.036c-0.032,0.097-0.047,0.188-0.047,0.271
		c0,0.482,0.445,0.767,0.467,0.778l0.03,0.02l0.016,0.029c0.596,1.02,0.895,1.875,0.895,2.562c0,0.34-0.073,0.637-0.219,0.892
		c-0.494,0.862-1.621,0.897-1.737,0.898c-0.16,0.023-0.276,0.091-0.357,0.204c-0.104,0.146-0.129,0.345-0.129,0.501
		c0,0.053,0.003,0.099,0.006,0.139c0.218,0.001,3.424,0.012,3.76,0.013c-0.013-0.06-0.02-0.117-0.02-0.174
		c0-0.355,0.24-0.596,0.405-0.688l0.03-0.017h0.037c0.334,0,0.484-0.494,0.51-0.582c-0.005-0.031-0.011-0.064-0.011-0.1
		c0-0.436,0.327-1.035,0.367-1.108l0.045-0.081l0.092,0.011c0.068,0.007,0.087-0.016,0.098-0.027
		c0.095-0.112,0.043-0.501-0.022-0.729l-0.006-0.024l-0.416-1.382l0.362,0.251l0.273,0.899c0.622-0.352,1.333-0.005,1.365,0.011
		l0.031,0.016l0.021,0.029c0.12,0.174,0.539,0.229,0.885,0.229c-0.298-0.539-0.061-1.032,0.059-1.322l0.323-0.098
		c-0.004,0.011-0.424,0.972-0.019,1.462l-0.001,0.002l0.001,0.001l0.022,0.134c-0.008,0.021-0.011,0.049-0.011,0.088
		c0,0.297,0.23,1.111,0.476,1.791l0.05,0.142l-0.144,0.038c-1.188,0.322-1.483,0.938-1.556,1.215
		c0.295,0.001,3.586,0.008,3.69,0.009c0.066-0.063,0.528-0.507,0.629-0.605c-0.174-0.449-0.246-0.858-0.246-1.218
		c0-1.144,0.672-1.808,0.775-1.903c0.426-0.66,0.557-1.313,0.557-1.867c0-0.487-0.1-0.891-0.188-1.154
		c-0.007-0.018-0.029-0.073-0.082-0.209l0.199-0.242c0.011,0.018,0.08,0.158,0.153,0.378c0.159,0.375,0.259,0.531,0.311,0.594
		c0.035-0.103,0.052-0.317,0.052-0.587C314.79,96.591,314.775,96.284,314.748,95.997"/>
	<path fill="#00458B" d="M299.238,91.662c-0.029,0.011-0.05,0.032-0.059,0.061l-0.01,0.11l0.083,0.114l0.015,0.011
		c0.072,0.056,0.247,0.121,0.393-0.023l0.061-0.06l-0.07-0.047C299.51,91.734,299.328,91.631,299.238,91.662"/>
</g>
</svg>
