<?xml version="1.0" encoding="utf-8"?>
<!-- Generator: Adobe Illustrator 16.2.1, SVG Export Plug-In . SVG Version: 6.00 Build 0)  -->
<!DOCTYPE svg PUBLIC "-//W3C//DTD SVG 1.1//EN" "http://www.w3.org/Graphics/SVG/1.1/DTD/svg11.dtd">
<svg version="1.1" id="Layer_1" xmlns="http://www.w3.org/2000/svg" xmlns:xlink="http://www.w3.org/1999/xlink" x="0px" y="0px"
	 width="50px" height="50px" viewBox="17.833 40.333 50 50" enable-background="new 17.833 40.333 50 50" xml:space="preserve">
<g>
	<path fill="#0054A4" d="M17.833,66.344l6.159-2.483c0,0,12.661-1.522,15.512,2.337l-5.616,2.807
		C33.888,69.004,30.702,64.805,17.833,66.344"/>
	<path fill="#0054A4" d="M26.844,62.691l5.453-2.244c0,0,8.295-1.266,15.336,1.871l-5.53,2.688
		C42.103,65.006,39.714,61.154,26.844,62.691"/>
	<path fill="#EF3E33" d="M44.534,67.58c0,0,8.384,0.797,18.023-0.541l-3.438,2.367c0,0-10.227,1.59-20.12,0.889L44.534,67.58z"/>
	<path fill="#EF3E33" d="M52.499,63.651c0,0,5.695,1.32,15.335-0.016l-3.431,2.236c0,0-7.462,1.149-17.355,0.443L52.499,63.651z"/>
</g>
</svg>
