<?xml version="1.0" encoding="utf-8"?>
<!-- Generator: Adobe Illustrator 16.2.1, SVG Export Plug-In . SVG Version: 6.00 Build 0)  -->
<!DOCTYPE svg PUBLIC "-//W3C//DTD SVG 1.1//EN" "http://www.w3.org/Graphics/SVG/1.1/DTD/svg11.dtd">
<svg version="1.1" id="Layer_1" xmlns="http://www.w3.org/2000/svg" xmlns:xlink="http://www.w3.org/1999/xlink" x="0px" y="0px"
	 width="50px" height="50px" viewBox="78 54 50 50" enable-background="new 78 54 50 50" xml:space="preserve">
<g transform="translate(0.000000,77.000000) scale(0.100000,-0.100000)">
	<path fill="#000080" d="M1096.958,49.248c-20.342-5.186-37.778-19.717-46.704-39.229c-4.36-9.131-5.396-14.736-5.605-27.197
		c0-27.393,14.531-50.02,39.438-61.436c14.736-6.855,30.513-8.301,46.289-4.15c30.303,7.676,47.534,28.438,49.814,59.775
		l1.04,14.121h-32.593h-32.378v-8.311v-8.301h22.832c21.587,0,22.832-0.205,22.832-4.15c0-6.23-5.605-18.887-11.001-24.697
		c-12.451-13.496-40.889-18.896-58.535-10.791c-10.581,4.766-24.492,20.332-27.603,30.918c-5.811,18.896-1.87,37.363,10.791,51.689
		c10.171,11.621,21.587,17.021,36.118,17.227c12.451,0,21.587-3.32,34.663-12.656l9.341-6.855l6.436,6.23l6.226,6.016l-6.851,5.811
		C1145.317,47.168,1116.885,54.229,1096.958,49.248z"/>
	<path fill="#000080" d="M780-17.178v-66.416h8.306h8.301v66.416v66.426h-8.301H780V-17.178z"/>
	<path fill="#000080" d="M973.037,3.584c0-49.404-1.035-54.805-10.996-64.141c-3.325-3.115-8.926-5.186-14.741-5.811
		c-29.683-3.535-45.454,29.678-23.872,50.439c5.605,5.4,7.681,6.016,19.097,6.016c7.061,0,15.571-0.83,18.682-1.865
		c5.815-1.66,5.815-1.66,5.19,6.23c-0.62,7.471-1.245,8.096-9.961,10.791c-20.137,6.016-43.174-2.285-52.93-19.102
		c-6.436-11.201-7.061-30.928-1.245-43.789c13.491-29.893,60.4-34.463,78.457-7.471c7.891,11.621,8.926,19.922,8.926,68.281v46.084
		h-8.301h-8.306V3.584z"/>
	<path fill="#000080" d="M836.665,5.449c-9.961-2.9-20.342-14.316-23.247-25.322c-1.245-5.186-2.28-21.797-2.28-36.533v-27.188
		h8.096h8.301l0.625,31.338l0.62,31.348l6.851,6.016c7.886,7.061,19.302,8.096,27.192,2.705
		c8.511-6.025,10.586-14.951,10.586-44.424v-26.982h7.266h7.261v32.168c0,35.498-1.035,40.059-12.451,49.404
		C865.102,6.904,850.781,9.6,836.665,5.449z"/>
	<path fill="#000080" d="M1220.249,5.654c-10.581-2.49-23.242-12.451-28.848-22.832c-3.945-7.676-4.775-11.621-4.15-23.037
		c1.45-25.742,18.887-41.924,45.039-42.139c18.682-0.205,31.968,6.436,40.479,20.137C1294.98-26.103,1262.803,15.625,1220.249,5.654
		z M1254.917-17.793c7.056-7.266,7.681-8.721,7.681-20.137s-0.625-12.871-7.681-19.932c-6.436-6.641-9.136-7.881-18.682-8.506
		c-13.491-1.035-23.457,3.73-29.062,14.111c-7.471,13.906-3.525,30.723,9.136,39.023c5.605,3.74,9.131,4.365,18.887,3.74
		C1245.781-10.117,1248.066-11.152,1254.917-17.793z"/>
	<path fill="#000080" d="M1010.4-38.965v-44.629h8.306h8.301v44.629V5.654h-8.301h-8.306V-38.965z"/>
</g>
</svg>
