<?xml version="1.0" encoding="utf-8"?>
<!-- Generator: Adobe Illustrator 16.2.1, SVG Export Plug-In . SVG Version: 6.00 Build 0)  -->
<!DOCTYPE svg PUBLIC "-//W3C//DTD SVG 1.1//EN" "http://www.w3.org/Graphics/SVG/1.1/DTD/svg11.dtd">
<svg version="1.1"
	 id="Ebene_1" sodipodi:version="0.32" inkscape:output_extension="org.inkscape.output.svg.inkscape" sodipodi:docname="Israir.svg" inkscape:version="0.45.1" xmlns:dc="http://purl.org/dc/elements/1.1/" xmlns:cc="http://web.resource.org/cc/" xmlns:rdf="http://www.w3.org/1999/02/22-rdf-syntax-ns#" xmlns:svg="http://www.w3.org/2000/svg" xmlns:sodipodi="http://sodipodi.sourceforge.net/DTD/sodipodi-0.dtd" xmlns:inkscape="http://www.inkscape.org/namespaces/inkscape" sodipodi:docbase="C:\Dokumente und Einstellungen\Christian Bier.MEDIACENTERPC\Desktop"
	 xmlns="http://www.w3.org/2000/svg" xmlns:xlink="http://www.w3.org/1999/xlink" x="0px" y="0px" width="50px" height="50px"
	 viewBox="170.185 84.293 50 50" enable-background="new 170.185 84.293 50 50" xml:space="preserve">
<sodipodi:namedview  inkscape:current-layer="Ebene_1" inkscape:window-height="575" inkscape:window-x="154" inkscape:pageopacity="0.0" inkscape:pageshadow="2" inkscape:window-width="825" inkscape:window-y="196" pagecolor="#ffffff" borderopacity="1.0" bordercolor="#666666" inkscape:cy="68.793503" gridtolerance="10.0" objecttolerance="10.0" inkscape:zoom="1.6842297" inkscape:cx="413.10017" guidetolerance="10.0" id="base">
	</sodipodi:namedview>
<path id="path3" fill="#F4AA47" d="M173.925,97.037h21.271V84.293c0,0,6.532,10.892,6.823,12.598
	c0.658,3.68-2.363,7.869-8.918,13.644c-5.604,4.948-19.833,12.086-19.833,12.086s10.111-17.201,10.5-18.639
	C184.158,102.544,173.925,97.037,173.925,97.037L173.925,97.037z"/>
<path id="path5" fill="#F4AA47" d="M185.353,118.674l9.577,15.619v-12.062h22.051l-10.77-6.822l10.892-18.25l-10.624,5.652
	c0,0-0.78,0.513-0.926-0.413c-0.122-0.903,1.852-6.554-0.391-9.966c-1.534-2.363-5.774-2.096-6.432-1.583
	c-0.658,0.534-1.048,2.898-1.048,2.898s1.852-1.583,3.801-1.315c1.974,0.268,2.462,2.583,2.631,4.727
	c0.269,3.144-2.631,7.481-4.189,9.577C198.339,108.831,192.175,115.653,185.353,118.674L185.353,118.674z"/>
</svg>
