<?xml version="1.0" encoding="utf-8"?>
<!-- Generator: Adobe Illustrator 16.2.1, SVG Export Plug-In . SVG Version: 6.00 Build 0)  -->
<!DOCTYPE svg PUBLIC "-//W3C//DTD SVG 1.1//EN" "http://www.w3.org/Graphics/SVG/1.1/DTD/svg11.dtd">
<svg version="1.1" id="svg13681" xmlns:svg="http://www.w3.org/2000/svg"
	 xmlns="http://www.w3.org/2000/svg" xmlns:xlink="http://www.w3.org/1999/xlink" x="0px" y="0px" width="50px" height="50px"
	 viewBox="462.5 143 50 50" enable-background="new 462.5 143 50 50" xml:space="preserve">
<path id="path11420" fill="#C5D700" d="M506.219,164.459c2.002,1.336,3.131,4.027,2.221,7.592
	c-1.749,6.995-7.256,13.006-10.532,15.454c-5.929,4.546-13.83,5.849-18.057,5.417c-4.679-0.477-8.532-2.714-10.712-5.333
	c3.755,2.687,8.191,1.623,12.228,0.089c4.958-1.882,7.827-4.656,10.34-8.639c3.127-4.951,3.333-10.48,5.51-13.007
	C499.946,162.858,503.653,162.795,506.219,164.459 M503.572,151.252c-0.983,4.146-5.133,7.188-9.266,6.796
	c-4.129-0.395-6.684-4.072-5.698-8.218c0.982-4.146,5.129-7.188,9.263-6.796C502.002,143.427,504.557,147.106,503.572,151.252"/>
<path id="path11422" fill="#6DB327" d="M466.696,166.256c-0.795-2.351,0.482-5.104,2.859-6.148c2.376-1.047,4.947,0.006,5.743,2.353
	c0.795,2.349-0.483,5.102-2.859,6.149C470.062,169.656,467.494,168.604,466.696,166.256 M473.599,179.358
	c-0.64-1.834-2.407-2.408-3.849-2.264c-2.479,0.251-3.948,2.714-3.391,4.938c0.558,2.218,1.585,4.121,2.781,5.557
	c3.757,2.686,8.193,1.641,12.324,0.054C476.529,186.926,474.312,181.4,473.599,179.358"/>
</svg>
