<?xml version="1.0" encoding="utf-8"?>
<!-- Generator: Adobe Illustrator 16.2.1, SVG Export Plug-In . SVG Version: 6.00 Build 0)  -->
<!DOCTYPE svg PUBLIC "-//W3C//DTD SVG 1.1//EN" "http://www.w3.org/Graphics/SVG/1.1/DTD/svg11.dtd">
<svg version="1.1" id="Ebene_1" xmlns="http://www.w3.org/2000/svg" xmlns:xlink="http://www.w3.org/1999/xlink" x="0px" y="0px"
	 width="50px" height="50px" viewBox="275.5 71.143 50 50" enable-background="new 275.5 71.143 50 50" xml:space="preserve">
<path fill="#A90B4D" d="M293.869,80.483L275.5,111.802h31.63l18.37-31.318H293.869z"/>
<path fill="none" d="M305.363,87.445c-0.417,0-0.891-0.086-1.121-0.215c0.403-0.646,2.128-1.809,2.371-1.767
	C306.613,85.593,305.565,86.871,305.363,87.445 M310.634,84.44c-0.532-0.127-0.702-0.106-0.352-0.342
	c0.352-0.233,2.117-1.732,4.626-1.16c1.266,0.32,1.542,1.744,1.104,2.733c-0.242,0.587-0.573,0.927-0.827,1.043
	c-0.255,0.116-0.276,0.19-0.192,0.329c0.085,0.139,0.681,0.311,1.33-0.042c0.648-0.352,1.999-1.596,1.403-3.211
	c-0.596-1.618-2.946-1.967-4.455-1.841c-1.512,0.126-3.829,0.704-5.551,2.339c-2.074,0.298-3.808,1.363-5.359,2.872
	c-0.276,0.277-0.597,0.287-0.903,0.319c-0.31,0.032-2.915,0.521-4.563,2.02c-1.649,1.501-2.254,2.817-2.615,5.064
	c-0.363,2.242,0.138,3.944,0.329,5.941c0.19,1.999-0.255,2.966-0.829,3.305c-0.116-0.02-0.085-0.349-0.214-0.434
	c-0.126-0.084-0.244-0.116-0.244,0.043c0,0.16-0.021,0.436-0.383,0.448c-0.362,0.007-0.733-0.151-0.744-0.258
	c0.191-0.139,0.574-0.733,0.139-1.031c-0.097-0.062-0.055,0.053-0.118,0.169c-0.063,0.119-0.117,0.235-0.425,0.055
	c-0.31-0.181-0.214-0.427-0.426-0.53c-0.075-0.064-0.032-0.139,0.063-0.213c0.096-0.074,0.277-0.362,0.234-0.808
	c-0.042-0.446-0.116-0.733-0.329-0.694c-0.17,0.064-0.003,0.24-0.212,0.384c-0.222,0.156-0.244,0.256-0.5,0.171
	c-0.022-0.181,0.106-0.213,0.106-0.371c0-0.161-0.021-0.382-0.16-0.342c-0.14,0.044-0.087,0.158-0.127,0.235
	c-0.045,0.074-0.192,0.292-0.638,0.436c-0.392,0.124-0.767-0.042-1.116,0.521c-0.119,0.203-0.055,0.437-0.171,0.458
	c-0.116,0.022-0.883,0.022-1.021-0.01c-0.139-0.034-0.394-0.139-0.447-0.129c-0.053,0.011-0.139,0.053-0.106,0.117
	s0.286,0.381,0.362,0.455c0.074,0.077,0.404,0.3,0.872,0.353c0.468,0.055,0.948,0.129,1.202,0.745
	c0.138,0.34,0.128,0.701-0.127,1.222s-0.436,1.289,0.063,2.01c1.129,0.032,2.308-0.34,3.097-0.691
	c0.785-0.35,2.458-1.561,3.252-3.722c0.862-2.339,0.692-4.423,0.725-5.73c0.031-1.309,0.106-2.637,0.818-4.294
	c0.713-1.66,1.753-3.075,3.499-3.712c0.34-0.106,0.36-0.044,0.223,0.104c-0.137,0.151-1.011,1.149-1.765,3.266
	c-0.755,2.115-0.809,4.412-0.946,5.743c-0.139,1.328-0.625,4.926-2.617,7.113c-1.449,1.591-3.573,2.51-5.711,3.05
	c0,0,0.394,0.617,0.449,0.63c0.052,0.01,0.052,0.029,0.478-0.074c0.425-0.109,2.51-0.714,4.348-2.076
	c1.842-1.358,2.926-2.783,3.979-5.062c0.891-1.925,1.489-4.847,1.659-6.293c0.171-1.447,0.936-4.232,1.989-5.806
	c0,0,0.642-1.065,0.798-1.125c0.105-0.044,1.264,0.084,1.274,0.224c-0.011,0.071-0.104,0.252-0.212,0.487
	c-0.106,0.233-0.872,2.084-1.149,3.18c-0.274,1.095-1.03,4.477-1.21,5.136c-0.181,0.659-0.788,3.741-3.021,6.646
	c-2.232,2.901-6.625,5.263-8.506,5.389c0,0,0.403,0.684,0.521,0.704c0.436,0.01,1.908-0.511,2.297-0.691
	c1.807-0.83,3.829-2.106,4.871-3.053c1.041-0.946,3.52-3.156,5.146-6.623c1.098-2.339,2.307-7.168,2.775-8.751
	c0.329-1.075,0.383-1.311,0.468-1.341c0.085-0.032,0.182-0.032,0.553,0.637c0.373,0.672,0.543,1.692,0.395,2.488
	c-0.149,0.798-0.299,2.17-2.447,4.212c-0.265,0.232-0.084,0.479-0.042,0.521s0.383,0.171,0.926-0.095
	c0.542-0.268,1.468-0.82,1.989-1.712c0.519-0.895,1.158-1.754,1.052-3.967c-0.009-1.016-1.249-2.73-1.979-3.043
	c-0.174-0.071,0.021-0.391,0.021-0.391c0.66-1.512,1.585-2.937,1.988-3.095c0.404-0.161,2.043,0.371,2.575,1.072
	c0.531,0.701,1.107,1.559,0.19,3.393c-0.745,1.488-1.616,1.573-1.384,2.031c0.15,0.223,0.906,0.062,1.459-0.243
	c0.554-0.31,1.584-1.226,1.744-3.022C314.038,86.43,312.655,84.993,310.634,84.44"/>
<linearGradient id="SVGID_1_" gradientUnits="userSpaceOnUse" x1="582.6577" y1="-372.5806" x2="569.4423" y2="-385.796" gradientTransform="matrix(1 0 0 -1 -281 -278.7148)">
	<stop  offset="0" style="stop-color:#FFFFFF"/>
	<stop  offset="0.0849" style="stop-color:#FFECA2"/>
	<stop  offset="0.1621" style="stop-color:#FFDC55"/>
	<stop  offset="0.2166" style="stop-color:#FFD225"/>
	<stop  offset="0.2437" style="stop-color:#FFCE12"/>
</linearGradient>
<path fill="url(#SVGID_1_)" d="M295.661,102.401c0.862-2.342,0.692-4.426,0.723-5.733c0.033-1.306,0.106-2.637,0.819-4.294
	c0.293-0.684,0.646-1.32,1.078-1.883l-1.17-1.172c-0.074,0.059-0.148,0.118-0.217,0.183c-1.649,1.499-2.255,2.817-2.615,5.062
	c-0.362,2.242,0.138,3.944,0.329,5.943c0.19,1.997-0.255,2.966-0.83,3.306c-0.116-0.02-0.084-0.352-0.213-0.437
	c-0.126-0.084-0.244-0.116-0.244,0.043c0,0.16-0.021,0.436-0.383,0.448c-0.362,0.01-0.733-0.151-0.744-0.256
	c0.191-0.139,0.573-0.735,0.138-1.03c-0.097-0.064-0.053,0.052-0.116,0.169c-0.064,0.116-0.118,0.232-0.425,0.054
	c-0.31-0.183-0.214-0.429-0.426-0.532c-0.075-0.064-0.032-0.139,0.063-0.213c0.096-0.074,0.276-0.362,0.234-0.808
	c-0.042-0.446-0.116-0.733-0.329-0.691c-0.171,0.062-0.003,0.237-0.212,0.384c-0.222,0.153-0.246,0.253-0.5,0.168
	c-0.022-0.181,0.106-0.21,0.106-0.371s-0.022-0.382-0.161-0.34c-0.139,0.042-0.086,0.159-0.128,0.233
	c-0.043,0.074-0.191,0.292-0.638,0.436c-0.391,0.124-0.766-0.042-1.116,0.521c-0.118,0.203-0.054,0.437-0.171,0.458
	c-0.115,0.022-0.882,0.022-1.02-0.01c-0.139-0.032-0.394-0.139-0.447-0.129c-0.053,0.011-0.14,0.053-0.106,0.117
	c0.031,0.064,0.286,0.384,0.362,0.455c0.074,0.077,0.404,0.3,0.872,0.353c0.468,0.055,0.947,0.129,1.202,0.745
	c0.138,0.34,0.128,0.701-0.127,1.222c-0.255,0.523-0.436,1.289,0.063,2.01c1.127,0.032,2.308-0.34,3.095-0.688
	C293.194,105.771,294.867,104.56,295.661,102.401z M302.797,95.008c-0.223,0.966-0.427,1.849-0.51,2.15
	c-0.182,0.659-0.788,3.741-3.022,6.646c-2.232,2.901-6.625,5.263-8.506,5.389c0,0,0.403,0.684,0.52,0.704
	c0.436,0.01,1.909-0.511,2.297-0.691c1.808-0.828,3.828-2.106,4.871-3.05c1.041-0.947,3.52-3.159,5.146-6.626
	c0.338-0.721,0.688-1.68,1.022-2.705L302.797,95.008z M295.161,106.418c1.842-1.358,2.926-2.783,3.979-5.062
	c0.891-1.925,1.489-4.847,1.659-6.293c0.055-0.464,0.171-1.065,0.337-1.72l-1.789-1.789c-0.062,0.156-0.124,0.31-0.186,0.479
	c-0.755,2.115-0.809,4.412-0.946,5.743c-0.139,1.328-0.625,4.926-2.617,7.113c-1.449,1.591-3.573,2.51-5.711,3.05
	c0,0,0.394,0.617,0.449,0.63c0.052,0.01,0.052,0.029,0.478-0.074C291.238,108.385,293.322,107.78,295.161,106.418z"/>
<linearGradient id="SVGID_2_" gradientUnits="userSpaceOnUse" x1="582.4683" y1="-372.3906" x2="595.6789" y2="-359.18" gradientTransform="matrix(1 0 0 -1 -281 -278.7148)">
	<stop  offset="0" style="stop-color:#FFFFFF"/>
	<stop  offset="0.0849" style="stop-color:#FFECA2"/>
	<stop  offset="0.1621" style="stop-color:#FFDC55"/>
	<stop  offset="0.2166" style="stop-color:#FFD225"/>
	<stop  offset="0.2437" style="stop-color:#FFCE12"/>
</linearGradient>
<path fill="url(#SVGID_2_)" d="M317.726,83.791c-0.595-1.618-2.945-1.967-4.455-1.841c-1.511,0.129-3.828,0.704-5.552,2.339
	c-2.072,0.3-3.806,1.363-5.357,2.872c-0.276,0.277-0.597,0.287-0.904,0.319c-0.297,0.029-2.696,0.483-4.346,1.839l1.17,1.169
	c0.616-0.803,1.394-1.452,2.421-1.826c0.34-0.106,0.36-0.042,0.223,0.104c-0.126,0.139-0.873,1.006-1.579,2.787l1.789,1.789
	c0.354-1.388,0.937-3.018,1.652-4.086c0,0,0.642-1.065,0.797-1.127c0.106-0.042,1.265,0.084,1.275,0.223
	c-0.011,0.074-0.104,0.255-0.213,0.488c-0.105,0.235-0.871,2.086-1.148,3.182c-0.148,0.589-0.438,1.848-0.7,2.982l1.819,1.819
	c0.751-2.302,1.428-4.951,1.753-6.046c0.329-1.075,0.383-1.311,0.468-1.341c0.085-0.032,0.182-0.032,0.553,0.637
	c0.373,0.672,0.543,1.692,0.395,2.488c-0.149,0.798-0.299,2.17-2.447,4.212c-0.265,0.232-0.084,0.479-0.042,0.521
	s0.383,0.171,0.926-0.095c0.542-0.268,1.468-0.82,1.989-1.712c0.519-0.895,1.158-1.754,1.052-3.967
	c-0.009-1.016-1.249-2.73-1.979-3.043c-0.174-0.071,0.021-0.391,0.021-0.391c0.66-1.512,1.585-2.937,1.988-3.095
	c0.404-0.161,2.043,0.371,2.575,1.072c0.531,0.701,1.107,1.559,0.19,3.393c-0.745,1.488-1.616,1.573-1.384,2.031
	c0.15,0.223,0.906,0.062,1.459-0.243c0.554-0.31,1.584-1.226,1.744-3.022c0.159-1.796-1.225-3.23-3.243-3.786
	c-0.533-0.126-0.703-0.106-0.353-0.339c0.353-0.233,2.117-1.734,4.626-1.16c1.265,0.32,1.543,1.744,1.106,2.733
	c-0.244,0.585-0.575,0.927-0.829,1.04c-0.255,0.119-0.276,0.193-0.191,0.332c0.084,0.137,0.681,0.308,1.329-0.042
	C316.972,86.653,318.323,85.409,317.726,83.791z M305.363,87.445c-0.417,0-0.891-0.086-1.121-0.215
	c0.403-0.646,2.128-1.809,2.371-1.767C306.613,85.593,305.565,86.871,305.363,87.445z"/>
</svg>
