<?xml version="1.0" encoding="utf-8"?>
<!-- Generator: Adobe Illustrator 16.2.1, SVG Export Plug-In . SVG Version: 6.00 Build 0)  -->
<!DOCTYPE svg PUBLIC "-//W3C//DTD SVG 1.1//EN" "http://www.w3.org/Graphics/SVG/1.1/DTD/svg11.dtd">
<svg version="1.1" id="Layer_1" xmlns="http://www.w3.org/2000/svg" xmlns:xlink="http://www.w3.org/1999/xlink" x="0px" y="0px"
	 width="50px" height="50px" viewBox="0 0 50 50" enable-background="new 0 0 50 50" xml:space="preserve">
<g>
	<g>
		<path fill="#868A8B" d="M11.003,38.411l4.992-4.737l-0.306-4.789l3.388,1.911l4.916-4.738l-2.878,5.885l1.63,0.866
			c0,0,9.909-4.075,15.41-2.955c5.502,1.121,11.055,9.628,11.819,11.971c0,0-5.558-9.85-11.87-10.291
			c-6.572-0.458-11.487,1.248-18.747,4.025l-2.954,5.858l-0.255-4.84L11.003,38.411z"/>
		<path fill="#868A8B" d="M22.223,31.407c0,0,9.361-3.936,14.71-3.209c5.349,0.726,10.125,4.89,13.067,10.43
			c0,0-5.464-11.653-13.144-12.188c-5.425-0.378-13.678,3.095-13.678,3.095L22.223,31.407z"/>
		<path fill="#868A8B" d="M24.172,27.637c0,0,8.708-3.287,12.66-2.725c4.304,0.611,8.405,2.623,13.143,10.596
			c0,0-5.783-12.404-13.907-12.252c-5.426,0.103-11.054,2.497-11.054,2.497L24.172,27.637z"/>
	</g>
	<g>
		<path fill="#868A8B" d="M38.996,11.588l-4.992,4.738l0.306,4.788l-3.388-1.91l-4.916,4.737l2.878-5.884l-1.63-0.866
			c0,0-9.908,4.075-15.41,2.955S0.789,10.518,0.025,8.175c0,0,5.558,9.85,11.87,10.29c6.571,0.459,11.487-1.248,18.746-4.024
			l2.955-5.859l0.255,4.84L38.996,11.588z"/>
		<path fill="#868A8B" d="M27.776,18.593c0,0-9.36,3.935-14.709,3.209S2.942,16.912,0,11.372c0,0,5.463,11.653,13.143,12.188
			c5.426,0.378,13.678-3.095,13.678-3.095L27.776,18.593z"/>
		<path fill="#868A8B" d="M25.828,22.362c0,0-8.708,3.287-12.66,2.726c-4.304-0.611-8.405-2.624-13.143-10.596
			c0,0,5.783,12.404,13.908,12.251c5.425-0.102,11.054-2.496,11.054-2.496L25.828,22.362z"/>
	</g>
</g>
</svg>
