<?xml version="1.0" encoding="utf-8"?>
<!-- Generator: Adobe Illustrator 16.2.1, SVG Export Plug-In . SVG Version: 6.00 Build 0)  -->
<!DOCTYPE svg PUBLIC "-//W3C//DTD SVG 1.1//EN" "http://www.w3.org/Graphics/SVG/1.1/DTD/svg11.dtd">
<svg version="1.1"
	 id="svg2960" xmlns:dc="http://purl.org/dc/elements/1.1/" xmlns:cc="http://creativecommons.org/ns#" xmlns:rdf="http://www.w3.org/1999/02/22-rdf-syntax-ns#" xmlns:sodipodi="http://sodipodi.sourceforge.net/DTD/sodipodi-0.dtd" xmlns:inkscape="http://www.inkscape.org/namespaces/inkscape" sodipodi:version="0.32" inkscape:output_extension="org.inkscape.output.svg.inkscape" sodipodi:docname="Windrose-Airline-Logo.svg" inkscape:version="0.46" xmlns:svg="http://www.w3.org/2000/svg"
	 xmlns="http://www.w3.org/2000/svg" xmlns:xlink="http://www.w3.org/1999/xlink" x="0px" y="0px" width="50px" height="50px"
	 viewBox="0 0 50 50" enable-background="new 0 0 50 50" xml:space="preserve">
<defs>
	
	
		<inkscape:perspective  inkscape:vp_z="744.09448 : 526.18109 : 1" inkscape:vp_y="0 : 1000 : 0" inkscape:vp_x="0 : 526.18109 : 1" sodipodi:type="inkscape:persp3d" id="perspective2968" inkscape:persp3d-origin="372.04724 : 350.78739 : 1">
		</inkscape:perspective>
</defs>
<sodipodi:namedview  pagecolor="#ffffff" showgrid="false" inkscape:cy="46.619423" inkscape:cx="54.62566" inkscape:zoom="5.1807154" borderopacity="1.0" bordercolor="#666666" id="base" inkscape:window-x="-4" inkscape:pageshadow="2" inkscape:window-width="1152" inkscape:current-layer="layer1" inkscape:window-height="804" inkscape:document-units="px" inkscape:pageopacity="0.0" inkscape:window-y="-4">
	</sodipodi:namedview>
<g id="layer1" transform="translate(-225.37434,-207.46292)" inkscape:label="Ebene 1" inkscape:groupmode="layer">
	<path id="path315" d="M269.49,245.441v-1.226l-4.268-3.036L269.49,245.441"/>
	<path id="path317" d="M269.49,245.441h-1.22l-3.042,4.272L269.49,245.441"/>
	<path id="path319" d="M269.49,245.441v1.226l4.271,3.037L269.49,245.441"/>
	<path id="path321" d="M269.49,245.441h1.226l3.036-4.273L269.49,245.441"/>
	<path id="path323" d="M269.495,244.221l0.669-0.668l-0.675-3.978L269.495,244.221"/>
	<path id="path325" d="M268.252,245.438l-0.667-0.669l-3.978,0.673L268.252,245.438"/>
	<path id="path327" d="M270.726,245.446l0.666,0.668l3.98-0.675L270.726,245.446"/>
	<path id="path329" d="M269.49,246.678l-0.668,0.668l0.668,3.983V246.678"/>
	<path id="path345" fill="#901A28" d="M225.374,213.597l5.439,15.323l6.846-15.323H225.374"/>
	<path id="path383" fill="#901A28" d="M239.228,250.697l-5.515-15.501l9.629-21.6h12.391L239.228,250.697"/>
	<g id="g397" transform="matrix(1.25,0,0,-1.25,201.81939,1206.6755)">
		<g>
			<g>
				<defs>
					<polyline id="SVGID_1_" points="50.722,772.397 54.136,768.988 54.136,768.988 54.136,769.968 50.722,772.397 					"/>
				</defs>
				<clipPath id="SVGID_2_">
					<use xlink:href="#SVGID_1_"  overflow="visible"/>
				</clipPath>
				<g id="g399" clip-path="url(#SVGID_2_)">
					<g id="g405" transform="matrix(8.5,0,0,8.5,88.29855,734.31488)">
						
							<image overflow="visible" enable-background="new    " width="11" height="9" id="image407" xlink:href="A3FF09213861DE2.png"  transform="matrix(0.0466 0 0 -0.0466 -4.4752 4.4928)">
						</image>
					</g>
				</g>
			</g>
		</g>
	</g>
	<g id="g421" transform="matrix(1.25,0,0,-1.25,201.81939,1206.6755)">
		<g>
			<g>
				<defs>
					<polyline id="SVGID_3_" points="54.136,768.988 53.159,768.988 50.727,765.57 54.136,768.988 					"/>
				</defs>
				<clipPath id="SVGID_4_">
					<use xlink:href="#SVGID_3_"  overflow="visible"/>
				</clipPath>
				<g id="g423" clip-path="url(#SVGID_4_)">
					<g id="g429" transform="matrix(8.5,0,0,8.5,88.29855,726.81488)">
						
							<image overflow="visible" enable-background="new    " width="11" height="11" id="image431" xlink:href="A3FF09213861DE6.png"  transform="matrix(0.0426 0 0 -0.0426 -4.4531 4.9872)">
						</image>
					</g>
				</g>
			</g>
		</g>
	</g>
	<g id="g433" transform="matrix(1.25,0,0,-1.25,201.81939,1206.6755)">
		<g>
			<g>
				<defs>
					<polyline id="SVGID_5_" points="54.136,768.988 54.136,768.007 57.553,765.578 54.136,768.988 					"/>
				</defs>
				<clipPath id="SVGID_6_">
					<use xlink:href="#SVGID_5_"  overflow="visible"/>
				</clipPath>
				<g id="g435" clip-path="url(#SVGID_6_)">
					<g id="g441" transform="matrix(8,0,0,8.5,95.79855,726.81488)">
						
							<image overflow="visible" enable-background="new    " width="9" height="11" id="image443" xlink:href="A3FF09213861DE1.png"  transform="matrix(0.0495 0 0 -0.0441 -5.2194 4.9955)">
						</image>
					</g>
				</g>
			</g>
		</g>
	</g>
	<g id="g445" transform="matrix(1.25,0,0,-1.25,201.81939,1206.6755)">
		<g>
			<g>
				<defs>
					<polyline id="SVGID_7_" points="57.546,772.405 54.136,768.988 55.115,768.988 57.546,772.405 					"/>
				</defs>
				<clipPath id="SVGID_8_">
					<use xlink:href="#SVGID_7_"  overflow="visible"/>
				</clipPath>
				<g id="g447" clip-path="url(#SVGID_8_)">
					<g id="g453" transform="matrix(8,0,0,8.5,95.79855,734.31488)">
						
							<image overflow="visible" enable-background="new    " width="9" height="9" id="image455" xlink:href="A3FF09213861DE3.png"  transform="matrix(0.0553 0 0 -0.0492 -5.2453 4.5047)">
						</image>
					</g>
				</g>
			</g>
		</g>
	</g>
	<g id="g457" transform="matrix(1.25,0,0,-1.25,201.81939,1206.6755)">
		<g>
			<g>
				<defs>
					<polyline id="SVGID_9_" points="54.136,773.68 54.141,769.964 54.674,770.498 54.136,773.68 					"/>
				</defs>
				<clipPath id="SVGID_10_">
					<use xlink:href="#SVGID_9_"  overflow="visible"/>
				</clipPath>
				<g id="g459" clip-path="url(#SVGID_10_)">
					<g id="g465" transform="matrix(2,0,0,9,95.79855,736.31488)">
						
							<image overflow="visible" enable-background="new    " width="4" height="11" id="image467" xlink:href="A3FF09213861DE0.png"  transform="matrix(0.1842 0 0 -0.041 -21.0562 4.1653)">
						</image>
					</g>
				</g>
			</g>
		</g>
	</g>
	<g id="g469" transform="matrix(1.25,0,0,-1.25,201.81939,1206.6755)">
		<g>
			<g>
				<defs>
					<polyline id="SVGID_11_" points="52.611,769.526 49.431,768.988 53.146,768.991 52.611,769.526 					"/>
				</defs>
				<clipPath id="SVGID_12_">
					<use xlink:href="#SVGID_11_"  overflow="visible"/>
				</clipPath>
				<g id="g471" clip-path="url(#SVGID_12_)">
					<g id="g477" transform="matrix(9,0,0,2,85.79855,734.31488)">
						
							<image overflow="visible" enable-background="new    " width="11" height="4" id="image479" xlink:href="A3FF09213861DEE.png"  transform="matrix(0.041 0 0 -0.1842 -4.0491 17.8136)">
						</image>
					</g>
				</g>
			</g>
		</g>
	</g>
	<g id="g481" transform="matrix(1.25,0,0,-1.25,201.81939,1206.6755)">
		<g>
			<g>
				<defs>
					<polyline id="SVGID_13_" points="58.844,768.988 55.125,768.983 55.66,768.448 58.844,768.988 					"/>
				</defs>
				<clipPath id="SVGID_14_">
					<use xlink:href="#SVGID_13_"  overflow="visible"/>
				</clipPath>
				<g id="g483" clip-path="url(#SVGID_14_)">
					<g id="g489" transform="matrix(9,0,0,2,97.79855,733.31488)">
						
							<image overflow="visible" enable-background="new    " width="11" height="4" id="image491" xlink:href="A3FF09213861DE5.png"  transform="matrix(0.041 0 0 -0.1842 -4.7587 18.0792)">
						</image>
					</g>
				</g>
			</g>
		</g>
	</g>
	<g id="g493" transform="matrix(1.25,0,0,-1.25,201.81939,1206.6755)">
		<g>
			<g>
				<defs>
					<polyline id="SVGID_15_" points="54.136,767.999 53.6,767.464 54.136,764.277 54.136,767.999 					"/>
				</defs>
				<clipPath id="SVGID_16_">
					<use xlink:href="#SVGID_15_"  overflow="visible"/>
				</clipPath>
				<g id="g495" clip-path="url(#SVGID_16_)">
					<g id="g501" transform="matrix(2.5,0,0,9,94.29855,724.31488)">
						
							<image overflow="visible" enable-background="new    " width="4" height="13" id="image503" xlink:href="A3FF09213861DE7.png"  transform="matrix(0.1088 0 0 -0.0363 -16.4018 4.8857)">
						</image>
					</g>
				</g>
			</g>
		</g>
	</g>
	<path id="path529" fill="#901A28" d="M256.987,250.679h-11.986l16.515-37.08h12.086L256.987,250.679z"/>
</g>
</svg>
