<?xml version="1.0" encoding="utf-8"?>
<!-- Generator: Adobe Illustrator 16.2.1, SVG Export Plug-In . SVG Version: 6.00 Build 0)  -->
<!DOCTYPE svg PUBLIC "-//W3C//DTD SVG 1.1//EN" "http://www.w3.org/Graphics/SVG/1.1/DTD/svg11.dtd">
<svg version="1.1"
	 id="Layer_1" xmlns:dc="http://purl.org/dc/elements/1.1/" xmlns:cc="http://web.resource.org/cc/" xmlns:rdf="http://www.w3.org/1999/02/22-rdf-syntax-ns#" xmlns:svg="http://www.w3.org/2000/svg" xmlns:sodipodi="http://sodipodi.sourceforge.net/DTD/sodipodi-0.dtd" xmlns:inkscape="http://www.inkscape.org/namespaces/inkscape" inkscape:version="0.45.1" sodipodi:version="0.32"
	 xmlns="http://www.w3.org/2000/svg" xmlns:xlink="http://www.w3.org/1999/xlink" x="0px" y="0px" width="50px" height="50px"
	 viewBox="350 96.5 50 50" enable-background="new 350 96.5 50 50" xml:space="preserve">
<path id="path194" fill="#019901" d="M396.811,118.381c2.678,31.201-38.874,32.348-43.107,7.659
	c14.076-3.958,13.82,11.141,15.992,11.779c3.058,1.146,1.532-14.717,12.655-15.353C388.567,122.969,393.39,121.607,396.811,118.381
	 M396.424,115.686c-13.568,9.843-18.03-12.656-26.859,13.819c-6.017-15.992-9.975-8.698-15.992-6.531
	C350.643,98.417,386.321,87.677,396.424,115.686 M400,121.309c0-13.698-11.194-24.809-24.997-24.809
	C361.194,96.5,350,107.61,350,121.309s11.194,24.808,25.003,24.808C388.806,146.116,400,135.007,400,121.309"/>
</svg>
