<?xml version="1.0" encoding="utf-8"?>
<!-- Generator: Adobe Illustrator 16.2.1, SVG Export Plug-In . SVG Version: 6.00 Build 0)  -->
<!DOCTYPE svg PUBLIC "-//W3C//DTD SVG 1.1//EN" "http://www.w3.org/Graphics/SVG/1.1/DTD/svg11.dtd">
<svg version="1.1" id="Ebene_1" xmlns="http://www.w3.org/2000/svg" xmlns:xlink="http://www.w3.org/1999/xlink" x="0px" y="0px"
	 width="50px" height="50px" viewBox="0.5 30.5 50 50" enable-background="new 0.5 30.5 50 50" xml:space="preserve">
<path fill="#FEE407" d="M26.584,32.238c-11.043,0-19.998,8.951-19.998,19.996c0,11.044,8.954,19.999,19.998,19.999
	c11.042,0,19.998-8.955,19.998-19.999C46.582,41.189,37.629,32.238,26.584,32.238z"/>
<path fill="#015396" d="M6.43,43.235c0.871,0.059,2.148,0.718,2.49,3.304c0.342,2.583,1.245,4.793,2.741,6.566
	c1.494,1.776,1.991,1.274,4.075,2.581c1.183,0.743,7.241,3.815,9.93,6.385c1.229,1.174,0.345,1.091,1.682,2.552
	c1.34,1.467,3.332,2.616,3.332,2.616s2.934,3.903,5.507,6.756c3.324,3.681,6.416,6.227,8.312,6.505l-0.963-3.552
	c0,0-1.556,0.253-2.552-0.619c-0.962-0.84-2.709-2.427-2.709-2.427s-0.374-0.968-0.963-2.523c-0.593-1.556-1.992-4.017-2.739-4.079
	c0,0,0.9-2.614,0.749-5.727c0,0,2.098,0.432,4.264-0.062c2.851-0.651,2.959-2.647,2.585-4.295c0.805-0.155,2.801-0.843,2.519-2.708
	c-0.166-1.12-0.867-3.764-0.465-4.544c0,0-1.747,0.88-2.602,2.322c-0.759,1.288-0.635,3.156-0.635,3.156s-0.751-1.092-3.239-1.994
	c-2.158-0.782-4.453,0.093-4.453,0.093s0.595,0.49,1.554,1.214c1.278,0.965,0.627,0.936,1.523,1.961
	c1.559,1.778,3.428,1.463,4.552,0.936c0,0,0.291,1.701-0.697,2.125c-1.274,0.548-3.971-0.225-4.816-1.066
	c-1.151-3.459-3.674-4.986-5.195-5.449c0.122-1.279,0.902-2.056,2.581-1.898c0.875,0.079,4.142,0.686,6.538,0.096
	c2.398-0.593,2.647-2.087,2.647-2.087s-2.025,0-2.552-0.561c1.709-0.282,7.407-0.934,8.183-7.193c0,0-1.722,1.087-3.266,0.843
	c4.981-3.366,4.204-10.026,4.204-10.026s-1.556,1.552-4.357,3.797c-2.805,2.241-7.457,4.855-9.901,5.511
	c-2.73,0.73-3.299,0.154-7.254,1.059c-3.325,0.76-4.883,2.398-4.883,4.079c0,1.93,1.149,3.299,1.149,3.299s-1.174-0.917-1.929-2.428
	c-1.087-2.178-0.514-3.764,2.073-5.129c3.292,0.137,3.661-0.913,3.661-0.913s-2.167,0.029-2.379-0.842c0,0,0.56-0.116,1.544-0.398
	c0.979-0.278,2.685-1.07,2.799-1.938c0,0-1.799,0.49-4.228,0.378l0.958-1.494c0,0-2.942,1.025-3.104,0.324l1.121-0.561
	c0,0-0.446-0.349-1.45-0.908c-1.003-0.562-2.382-0.562-2.871-0.424c-0.491,0.142-0.56,0.236-1.072-0.046
	c-0.513-0.277-0.678-0.747-0.399-1.12c0.28-0.373,0.63-0.469,1.259-0.817c0.632-0.351,0.865-1.262,0.444-1.843
	c-0.418-0.581-1.119-1.519-1.119-1.519s-0.164,0.489-0.047,0.795c0,0-0.561-0.023-0.912,0.139c0,0,0.459,0.222,0.678,0.675
	c0.327,0.676-0.933,1.236-1.423,1.637c-0.68,0.55-0.747,1.142-0.747,1.142s-1.82-0.911-2.289-2.077
	c0.091,3.035,2.31,3.873,2.31,3.873s0,1.101,0.117,1.847l2.614,0.254c0,0-0.138,0.867-0.699,0.867s-1.028-0.07-1.637-0.515
	c0,0-0.304,1.282-0.862,2.029c0,0,0.746-0.216,1.307-0.216c0.678,0,1.035,0.481,0.523,1.328c-0.472,0.775-1.132,1.282-2.307,1.074
	c-1.619-0.278-2.8,0-4.419,1.714c0,0-1.184-1.9-1.184-3.365l-5.729-0.092c0,0-1.277,3.304-2.054,3.984l3.642-0.374
	C4.5,43.355,5.558,43.173,6.43,43.235z M18.633,37.318c0-0.254,0.207-0.461,0.459-0.461c0.255,0,0.46,0.207,0.46,0.461
	c0,0.253-0.205,0.46-0.46,0.46C18.839,37.778,18.633,37.571,18.633,37.318z"/>
</svg>
