<?xml version="1.0" encoding="utf-8"?>
<!-- Generator: Adobe Illustrator 16.2.1, SVG Export Plug-In . SVG Version: 6.00 Build 0)  -->
<!DOCTYPE svg PUBLIC "-//W3C//DTD SVG 1.1//EN" "http://www.w3.org/Graphics/SVG/1.1/DTD/svg11.dtd">
<svg version="1.1" id="svg2816" xmlns:svg="http://www.w3.org/2000/svg"
	 xmlns="http://www.w3.org/2000/svg" xmlns:xlink="http://www.w3.org/1999/xlink" x="0px" y="0px" width="50px" height="50px"
	 viewBox="150.5 70.5 50 50" enable-background="new 150.5 70.5 50 50" xml:space="preserve">
<g id="g2826" transform="matrix(1.25,0,0,-1.25,-33.704125,982.06625)">
	<g id="g2874" transform="matrix(0.59398701,0,0,0.59398701,18.947451,291.94276)">
		<path id="path2830" fill="#2D1B85" d="M274.863,679.799c5.772,5.719,8.672,12.624,8.672,20.715c0,8.145-2.9,15.051-8.672,20.717
			c-5.825,5.72-12.836,8.593-21.059,8.593c-8.25,0-15.314-2.873-21.191-8.593c-5.904-5.719-8.856-12.625-8.856-20.717
			c0-8.092,2.952-14.997,8.856-20.715c5.877-5.72,12.941-8.593,21.191-8.593C262.027,671.206,269.038,674.078,274.863,679.799z
			 M273.229,719.545c5.403-5.272,8.118-11.624,8.118-19.031c0-7.406-2.715-13.705-8.118-18.95
			c-5.35-5.272-11.834-7.906-19.424-7.906c-7.538,0-13.969,2.635-19.294,7.906c-5.297,5.245-7.959,11.544-7.959,18.95
			c0,7.459,2.662,13.785,7.959,19.031c5.324,5.218,11.755,7.827,19.294,7.827C261.395,727.372,267.879,724.762,273.229,719.545"/>
		<path id="path2832" fill="#E60003" d="M241.074,699.303l-24.881-2.874h56.562l-32.498,37.48h-13.969L241.074,699.303"/>
	</g>
</g>
</svg>
