<?xml version="1.0" encoding="utf-8"?>
<!-- Generator: Adobe Illustrator 16.2.1, SVG Export Plug-In . SVG Version: 6.00 Build 0)  -->
<!DOCTYPE svg PUBLIC "-//W3C//DTD SVG 1.1//EN" "http://www.w3.org/Graphics/SVG/1.1/DTD/svg11.dtd">
<svg version="1.1"
	 id="svg2" xmlns:svg="http://www.w3.org/2000/svg" xmlns:rdf="http://www.w3.org/1999/02/22-rdf-syntax-ns#" xmlns:cc="http://creativecommons.org/ns#" xmlns:dc="http://purl.org/dc/elements/1.1/" xmlns:sodipodi="http://sodipodi.sourceforge.net/DTD/sodipodi-0.dtd" xmlns:inkscape="http://www.inkscape.org/namespaces/inkscape" inkscape:version="0.48.1 " sodipodi:docname="AJAX.svg"
	 xmlns="http://www.w3.org/2000/svg" xmlns:xlink="http://www.w3.org/1999/xlink" x="0px" y="0px" width="50px" height="50px"
	 viewBox="44.126 62.415 50 50" enable-background="new 44.126 62.415 50 50" xml:space="preserve">
<g id="g34" transform="matrix(1.25,0,0,-1.25,-363.74887,853.375)">
	<g id="g36" transform="matrix(0.43721701,0,0,0.43721701,167.7039,344.15755)">
		<g id="path38">
			<path inkscape:connector-curvature="0" fill="#1F4FA2" d="M441.313,627.163c-0.19,0-1.176-0.195-1.176-0.418
				c0-0.32,0.32-0.288,0.32-0.958c0-0.543-0.702-0.858-2.043-0.858h-5.452c-9.059,0-13.114-5.262-13.114-8.74
				c0-1.149,0.417-1.948,1.215-1.948c0.735,0,1.463,0.477,1.463,0.797c0,0.511-0.824,1.276-0.824,2.805
				c0,2.841,3.697,6.445,11.99,6.445c1.595,0,1.723-0.127,1.723-0.318c0-0.256-3.508-7.019-7.018-11.613
				c-1.787-2.328-5.487-6.317-7.687-6.317c-1.244,0-2.008,0.293-2.327,1.408c-0.224,0.831-0.32,1.052-0.607,1.052
				c-0.223,0-1.629-0.543-1.629-1.117c0-1.499,0.99-2.616,2.52-2.616c4.052,0,7.432,3.89,10.812,7.782
				c0.672,0.032,1.246,0.068,2.523,0.068c1.913,0,2.075-0.036,2.075-0.195c0-0.35-0.896-6.156-0.896-6.856
				c0-0.095,0.639-0.799,0.83-0.799c0.573,0,3.117,0.806,4.675,1.258c0.008-0.884,0.238-1.131,0.957-1.131
				c0.606,0,1.307,0.286,2.774,0.89c1.819,0.736,2.072,0.768,2.072,0.96c0,0.095-0.03,0.193-0.125,0.193
				c-0.125,0-1.308-0.579-2.075-0.579c-0.859,0-1.117,0.354-1.117,1.789c0,1.723,1.857,9.887,1.857,10.269
				c0,0.223-0.098,0.32-0.194,0.32c-0.255,0-0.924-0.193-2.327-0.447c-2.265-0.415-2.361-0.411-2.361-0.572
				c0-0.159,0.096-0.193,1.083-0.193c1.18,0,1.305-0.188,1.305-1.017c0-1.051-1.547-8.282-1.81-10.069
				c-0.438-0.048-0.892-0.08-1.395-0.08c-1.277,0-1.404,0.229-1.404,2.494c0,3.892,1.049,10.267,1.941,15.435
				c2.074,0,3.922,0.988,3.922,2.008C441.792,626.936,441.6,627.163,441.313,627.163z M375.454,625.249
				c-1.882,0-3.576-0.159-6.159-1.658c-4.146-2.423-6.251-7.212-6.251-12.635c0-3.892,1.593-6.186,6.218-6.186
				c3.158,0,5.424,1.178,7.848,2.262l-0.027,0.579c-1.69-0.734-4.087-1.756-6.065-1.756c-3.35,0-5.361,2.68-5.361,6.602
				c0,8.709,5.108,12.026,8.552,12.026c1.564,0,4.596-1.117,4.596-2.041c0-0.127-0.036-0.575-0.099-1.405h0.352
				c0.447,2.586,0.858,2.2,0.858,2.773C379.916,624.259,378.229,625.249,375.454,625.249z M443.282,624.542
				c-1.084,0-1.308-0.824-1.308-1.78c0-0.447,0.221-0.706,0.636-0.706c0.992,0,1.531,0.829,1.531,1.723
				C444.142,624.449,444.016,624.542,443.282,624.542z M435.541,622.953l0.066-0.066c-0.414-3.031-1.279-8.866-1.342-9.251
				c-0.031-0.191-0.157-0.252-2.134-0.252c-1.499,0-1.949-0.002-1.949,0.127C430.182,613.67,433.916,619.381,435.541,622.953z
				 M389.127,619.317c-0.16,0-1.245-0.322-1.596-0.96c-0.989,0-0.705,0.381-2.427,0.381c-1.34,0-4.273-1.876-4.816-2.993
				c-2.36-4.85-2.453-6.922-2.453-8.806c0-1.724,0.346-2.042,0.984-2.042c1.595,0,4.119,1.276,5.873,1.849
				c0-0.35-0.093-0.699-0.093-1.017c0-0.64,0.221-0.833,0.572-0.833c0.351,0,0.767-0.004,3.797,1.145
				c0.767,0.286,1.118,0.354,1.118,0.545c0,0.095-0.064,0.159-0.159,0.159c-0.096,0-1.438-0.445-1.949-0.445
				c-0.509,0-0.731,0.348-0.731,1.53c0,2.2,2.201,10.971,2.201,11.1C389.446,619.09,389.351,619.317,389.127,619.317z
				 M409.766,618.931c-2.489,0-5.23-2.614-5.741-3.858c-1.244-3.061-1.629-5.457-1.629-7.083c0-2.105,1.147-3.093,2.805-3.093
				c2.234,0,2.299,0.604,5.968,2.9c0,0.254,0.002,0.386-0.094,0.386c-0.256,0-2.203-1.689-3.957-1.689
				c-1.691,0-2.235,1.589-2.235,3.152c0,0.541,0.038,1.12,0.132,1.696c1.628,0.733,3.219,1.499,5.707,2.841
				c0.414,0.222,1.083,2.039,1.083,3.09C411.805,618.359,411.294,618.931,409.766,618.931z M394.979,618.738
				c-0.223,0-1.211-0.382-2.486-0.572c-1.914-0.288-2.202-0.127-2.202-0.413c0-0.382,2.135-0.002,2.135-0.672
				c0-3.892-2.999-20.029-2.999-20.922c0-0.223,0.066-0.449,0.194-0.64c0.925,0.255,1.821,0.636,2.746,0.733v0.252
				c-0.223,0.032-0.452,0.42-0.452,1.537c0,0.861,0.769,5.706,1.024,7.428c0.447-0.318,0.96-0.572,1.312-0.572
				c0.478,0,2.387,0.572,4.588,1.622c1.052,0.513,2.966,4.885,2.966,9.512c0,2.073-0.572,2.707-1.974,2.707
				c-1.052,0-1.275-0.411-4.816-1.59c0,0.511,0.16,1.179,0.16,1.403C395.173,618.645,395.14,618.738,394.979,618.738z
				 M448.913,618.738c-0.157,0-0.698-0.22-2.486-0.506c-1.882-0.288-2.133-0.1-2.133-0.42c0-0.255,0.155-0.252,1.019-0.252
				c1.21,0,1.335-0.066,1.335-0.992c0-2.775-2.386-11.095-2.386-11.479c0-0.159,0.122-0.193,0.344-0.193
				c0.161,0,0.358,0.22,1.251,0.379c0.702,0.129,0.826,0.07,0.893,0.611c0.063,0.575,1.048,5.963,1.813,9.472
				c0.064,0.288,1.307,1.656,2.329,1.656c1.085,0,1.531-0.441,1.789-1.431l0.511,0.093c0.257,0.479,0.732,1.63,0.732,2.076
				c0,0.095-0.192,0.282-0.478,0.538c-0.191,0.159-0.445,0.259-1.177,0.259c-1.179,0-0.768-0.227-3.446-2.141
				c0,0.35,0.346,1.917,0.346,2.109C449.168,618.645,449.043,618.738,448.913,618.738z M408.586,618.166
				c0.959,0,1.12-0.767,1.12-1.564c0-2.455-1.087-3.095-4.597-4.564C405.206,613.828,406.355,618.166,408.586,618.166z
				 M384.398,617.973c0.044,0,0.088,0.002,0.134,0c0.51,0,2.42-0.543,2.42-0.958c0-0.255-2.034-8.454-2.195-9.538
				c-0.063-0.415-1.915-0.983-3.318-0.983c-0.765,0-1.118,0.382-1.118,1.882C380.322,610.448,381.649,617.864,384.398,617.973z
				 M397.561,617.467c1.18,0,1.756-0.577,1.756-2.907c0-6.474-2.041-8.647-3.764-8.647c-1.085,0-1.66,0.865-1.916,1.664
				l-0.313-0.159c0.064,0.893,1.275,7.748,1.53,9.185C395.332,616.89,397.209,617.467,397.561,617.467z"/>
			<path fill="#1F4FA2" d="M389.489,595.167l-0.122,0.184c-0.159,0.239-0.244,0.518-0.244,0.808c0,0.3,0.255,1.846,0.744,4.782
				c0.898,5.391,2.255,13.534,2.255,16.141c-0.091,0.1-0.706,0.136-1.002,0.154c-0.608,0.036-1.134,0.064-1.134,0.518
				s0.375,0.484,0.893,0.531c0.327,0.027,0.823,0.07,1.567,0.182c0.773,0.114,1.446,0.306,1.891,0.431
				c0.357,0.1,0.52,0.145,0.641,0.145c0.298,0,0.498-0.197,0.498-0.491c0-0.114-0.027-0.279-0.06-0.488
				c-0.022-0.148-0.049-0.315-0.07-0.481c1.264,0.431,2.065,0.754,2.612,0.972c0.831,0.336,1.211,0.488,1.869,0.488
				c1.639,0,2.278-0.843,2.278-3.011c0-4.562-1.899-9.185-3.137-9.785c-2.257-1.079-4.192-1.653-4.721-1.653
				c-0.356,0-0.765,0.186-1.079,0.366c-0.037-0.241-0.078-0.513-0.123-0.806c-0.309-2.033-0.828-5.437-0.828-6.113
				c0-1.06,0.215-1.242,0.217-1.244l0.262-0.038l-0.027-0.255v-0.527l-0.273-0.029c-0.603-0.063-1.195-0.252-1.82-0.454
				c-0.291-0.093-0.583-0.186-0.876-0.268L389.489,595.167z M391.879,617.775c0.465-0.077,0.851-0.248,0.851-0.693
				c0-2.657-1.362-10.832-2.264-16.241c-0.394-2.371-0.735-4.417-0.735-4.682c0-0.095,0.016-0.189,0.046-0.277
				c0.205,0.061,0.41,0.127,0.614,0.191c0.492,0.159,0.996,0.322,1.512,0.418c-0.195,0.295-0.292,0.813-0.292,1.549
				c0,0.722,0.502,4.02,0.835,6.204c0.077,0.504,0.143,0.942,0.192,1.27l0.073,0.49l0.405-0.289
				c0.438-0.311,0.883-0.513,1.134-0.513c0.211,0,0.81,0.143,1.651,0.432c-0.117-0.016-0.232-0.025-0.348-0.025
				c-0.921,0-1.665,0.557-2.082,1.54l-0.488-0.248l0.038,0.54c0.07,0.96,1.385,8.373,1.534,9.213l0.024,0.138l0.119,0.072
				c0.004,0.002,0.008,0.005,0.013,0.007v0.277c0,0.331,0.06,0.708,0.106,1.01c0.015,0.088,0.029,0.175,0.039,0.25
				c-0.098-0.025-0.23-0.063-0.351-0.096c-0.461-0.129-1.156-0.325-1.966-0.447C392.293,617.826,392.075,617.8,391.879,617.775z
				 M397.635,617.771c1.428-0.03,1.986-0.94,1.986-3.211c0-5.08-1.245-7.642-2.716-8.554c0.551,0.218,1.16,0.481,1.802,0.788
				c0.804,0.391,2.792,4.496,2.792,9.236c0,2.042-0.538,2.402-1.67,2.402c-0.541,0-0.841-0.12-1.642-0.441
				C398.026,617.927,397.845,617.853,397.635,617.771z M393.818,608.013l0.109-0.343c0.173-0.541,0.615-1.451,1.625-1.451
				c1.597,0,3.46,2.185,3.46,8.341c0,2.412-0.63,2.603-1.452,2.603c-0.252,0-1.847-0.477-2.433-0.759
				c-0.178-1.004-1.158-6.547-1.432-8.456L393.818,608.013z M434.013,604.466c-0.348,0-1.135,0.82-1.135,1.102
				c0,0.4,0.245,2.155,0.566,4.406c0.135,0.947,0.273,1.923,0.318,2.3c-0.339,0.039-1.206,0.039-1.757,0.039
				c-1.144,0-1.709-0.027-2.31-0.057l-0.066-0.002c-3.341-3.847-6.803-7.789-10.96-7.789c-1.663,0-2.824,1.201-2.824,2.92
				c0,0.831,1.613,1.419,1.933,1.419c0.555,0,0.693-0.506,0.898-1.274c0.251-0.874,0.784-1.185,2.035-1.185
				c1.974,0,5.537,3.706,7.447,6.199c3.242,4.246,6.479,10.359,6.915,11.366c-0.154,0.034-0.514,0.075-1.38,0.075
				c-7.592,0-11.685-3.163-11.685-6.141c0-0.899,0.298-1.499,0.541-1.98c0.157-0.318,0.282-0.566,0.282-0.826
				c0-0.536-0.908-1.101-1.768-1.101c-0.937,0-1.52,0.863-1.52,2.251c0,2.028,1.221,4.238,3.269,5.907
				c1.756,1.431,4.941,3.136,10.149,3.136h5.452c1.058,0,1.739,0.218,1.739,0.554c0,0.295-0.066,0.386-0.145,0.49
				c-0.073,0.1-0.175,0.238-0.175,0.468c0,0.613,1.465,0.724,1.48,0.724c0.293,0,0.784-0.154,0.784-1.17
				c0-1.183-1.828-2.228-3.97-2.307c-0.991-5.741-1.895-11.52-1.895-15.137c0-2.191,0.083-2.191,1.101-2.191
				c0.368,0,0.733,0.018,1.131,0.055c0.128,0.784,0.405,2.203,0.698,3.699c0.477,2.443,1.071,5.482,1.071,6.091
				c0,0.659,0,0.713-1.001,0.713c-0.952,0-1.388,0-1.388,0.497c0,0.397,0.038,0.402,1.934,0.747l0.678,0.123
				c0.657,0.122,1.149,0.227,1.517,0.304c0.451,0.096,0.696,0.148,0.863,0.148c0.239,0,0.496-0.195,0.496-0.624
				c0-0.141-0.112-0.692-0.455-2.357c-0.522-2.532-1.4-6.772-1.4-7.912c0-1.485,0.289-1.485,0.812-1.485
				c0.49,0,1.227,0.286,1.628,0.441c0.358,0.139,0.421,0.157,0.549,0.127c0.694,2.718,1.876,7.419,1.876,9.336
				c0,0.686,0,0.686-1.03,0.686c-0.896,0-1.323,0-1.323,0.557c0,0.474,0.362,0.504,0.863,0.545c0.32,0.025,0.801,0.064,1.529,0.175
				c1.18,0.189,1.807,0.348,2.145,0.432c0.2,0.052,0.298,0.077,0.387,0.077c0.309,0,0.559-0.234,0.559-0.524
				c0-0.1-0.038-0.311-0.14-0.845c-0.032-0.179-0.072-0.391-0.11-0.595c0.633,0.474,1.045,0.818,1.337,1.065
				c0.703,0.588,0.879,0.711,1.709,0.711c0.72,0,1.081-0.086,1.371-0.329c0.417-0.372,0.589-0.557,0.589-0.772
				c0-0.554-0.541-1.796-0.767-2.218l-0.07-0.13l-0.935-0.17l-0.071,0.273c-0.234,0.91-0.599,1.201-1.494,1.201
				c-0.851,0-1.948-1.201-2.033-1.431c-0.743-3.404-1.741-8.843-1.807-9.424c-0.08-0.672-0.35-0.745-0.901-0.836l-0.239-0.041
				c-0.541-0.098-0.799-0.213-0.968-0.288c-0.117-0.052-0.215-0.096-0.338-0.096c-0.538,0-0.649,0.27-0.649,0.497
				c0,0.098,0.051,0.327,0.239,1.076c-0.144-0.061-0.323-0.129-0.538-0.214c-0.283-0.109-0.65-0.254-1.126-0.447
				c-1.472-0.608-2.211-0.911-2.888-0.911c-0.866,0-1.161,0.4-1.238,1.036c-0.232-0.07-0.479-0.143-0.735-0.22
				C435.819,604.857,434.473,604.466,434.013,604.466z M417.799,608.199c-0.323-0.032-1.348-0.549-1.348-0.813
				c0-1.381,0.893-2.31,2.218-2.31c1.529,0,2.977,0.593,4.369,1.542c-0.821-0.532-1.625-0.881-2.327-0.881
				c-1.119,0-2.21,0.197-2.62,1.631C418.022,607.618,417.886,608.131,417.799,608.199z M433.489,605.636
				c0.103-0.145,0.425-0.481,0.563-0.559c0.472,0.029,2.185,0.54,3.446,0.917c0.08,0.023,0.158,0.046,0.236,0.07
				c-0.136-0.004-0.27-0.007-0.401-0.007c-1.636,0-1.708,0.625-1.708,2.798c0,3.715,0.935,9.638,1.945,15.489l0.045,0.252h0.256
				c0.213,0,0.423,0.011,0.625,0.03c-0.026,0-0.054-0.002-0.08-0.002h-5.452c-8.739,0-12.811-5.032-12.811-8.434
				c0-0.386,0.066-1.644,0.912-1.644c0.613,0,1.122,0.379,1.162,0.509c-0.004,0.1-0.109,0.311-0.222,0.536
				c-0.256,0.511-0.606,1.211-0.606,2.253c0,1.656,1.101,3.313,3.024,4.544c1.571,1.008,4.454,2.207,9.27,2.207
				c1.41,0,2.028-0.059,2.028-0.624c0-0.063-0.076-0.256-0.212-0.554l0.421-0.422l-0.02-0.15c-0.415-3.029-1.282-8.888-1.345-9.26
				c-0.084-0.49-0.496-0.507-2.435-0.507h-0.051c-1.957,0-2.202,0-2.202,0.432c0,0.127,0,0.13,0.867,1.546
				c0.381,0.622,0.868,1.417,1.39,2.293c-1.079-1.762-2.299-3.609-3.494-5.175c-0.079-0.1-0.834-1.081-1.904-2.244
				c0.851,0.904,1.688,1.867,2.518,2.821l0.084,0.098l0.325,0.016c0.608,0.027,1.183,0.057,2.34,0.057c2.062,0,2.379,0,2.379-0.499
				c0-0.15-0.098-0.851-0.338-2.536C433.821,608.31,433.517,606.173,433.489,605.636z M438.991,606.164v-0.132
				c0.009-0.792,0.164-0.829,0.654-0.829c0.532,0,1.191,0.261,2.624,0.854c-1.176,0.009-1.4,0.743-1.4,2.092
				c0,1.201,0.851,5.316,1.413,8.034c0.224,1.076,0.433,2.089,0.445,2.239c-0.135-0.02-0.352-0.066-0.624-0.121
				c-0.371-0.082-0.872-0.188-1.539-0.309l-0.678-0.122c-0.092-0.018-0.18-0.034-0.265-0.05c0.959-0.057,1.221-0.375,1.221-1.31
				c0-0.668-0.552-3.484-1.084-6.208c-0.323-1.653-0.626-3.211-0.73-3.906L438.991,606.164z M444.587,605.202
				c0.003,0,0.003,0,0.005,0c0.028,0.007,0.06,0.023,0.102,0.043c0.185,0.082,0.493,0.222,1.108,0.331l0.247,0.043
				c0.147,0.023,0.314,0.05,0.349,0.077c0,0.004,0.025,0.043,0.046,0.227c0.069,0.604,1.054,5.986,1.822,9.501
				c0.02,0.102,0.113,0.257,0.254,0.436v0.55c0,0.214,0.086,0.704,0.215,1.376c0.042,0.223,0.092,0.486,0.116,0.634
				c-0.042-0.009-0.101-0.025-0.176-0.045c-0.348-0.086-0.993-0.248-2.198-0.443c-0.222-0.034-0.423-0.061-0.6-0.084
				c0.805-0.057,1.075-0.3,1.075-1.279c0-2.06-1.278-7.071-1.965-9.763C444.813,606.126,444.647,605.477,444.587,605.202z
				 M430.632,613.702c0.296-0.014,0.791-0.014,1.4-0.014h0.099c0.478,0,1.552,0,1.845,0.066c0.099,0.638,0.686,4.599,1.109,7.575
				c-1.203-2.316-2.852-5.009-3.822-6.59C431.012,614.328,430.778,613.949,430.632,613.702z M450.891,617.319
				c1.081,0,1.679-0.406,2.004-1.387l0.096,0.018c0.257,0.522,0.594,1.392,0.627,1.749c-0.042,0.054-0.14,0.155-0.373,0.365
				c-0.11,0.089-0.281,0.182-0.977,0.182c-0.636,0-0.675-0.032-1.317-0.57c-0.14-0.118-0.307-0.259-0.511-0.422
				C450.593,617.294,450.742,617.319,450.891,617.319z M440.484,626.659c0.003-0.007,0.009-0.013,0.015-0.02
				c0.105-0.143,0.263-0.356,0.263-0.852c0-0.184-0.051-0.381-0.194-0.557c0.573,0.318,0.922,0.711,0.922,1.069
				c0,0.17-0.018,0.561-0.177,0.561C441.18,626.859,440.702,626.752,440.484,626.659z M369.262,604.466
				c-4.449,0-6.522,2.062-6.522,6.49c0,5.818,2.334,10.519,6.402,12.899c2.705,1.569,4.459,1.698,6.312,1.698
				c2.684,0,4.766-0.936,4.766-1.742c0-0.291-0.091-0.436-0.186-0.586c-0.14-0.223-0.399-0.634-0.677-2.237l-0.043-0.252h-0.937
				l0.051,0.663c0.045,0.568,0.073,0.945,0.073,1.044c0,0.583-2.608,1.737-4.292,1.737c-6.008,0-8.248-7.189-8.248-11.722
				c0-3.826,1.985-6.297,5.057-6.297c1.957,0,4.453,1.081,5.944,1.73l0.405,0.175l0.056-1.224l-0.868-0.393
				C374.41,605.474,372.189,604.466,369.262,604.466z M375.454,624.944c-1.764,0-3.432-0.12-6.006-1.615
				c-3.877-2.266-6.1-6.776-6.1-12.372c0-4.069,1.824-5.881,5.914-5.881c2.285,0,4.08,0.625,5.852,1.394
				c-1.315-0.491-2.782-0.918-4.096-0.918c-3.441,0-5.665,2.712-5.665,6.906c0,4.996,1.664,7.914,3.062,9.481
				c1.588,1.785,3.755,2.85,5.795,2.85c1.511,0,4.641-1.026,4.884-2.201c0.17,0.556,0.319,0.792,0.425,0.961
				c0.079,0.123,0.093,0.148,0.093,0.263C379.515,624.064,378.07,624.944,375.454,624.944z M405.201,604.593
				c-1.947,0-3.11,1.27-3.11,3.397c0,1.428,0.287,3.836,1.652,7.198c0.584,1.422,3.459,4.047,6.023,4.047
				c1.599,0,2.344-0.624,2.344-1.962c0-1.061-0.667-3.048-1.243-3.359c-2.461-1.324-4.026-2.08-5.577-2.78
				c-0.069-0.468-0.103-0.967-0.103-1.487c0-0.856,0.188-2.85,1.931-2.85c1.179,0,2.516,0.863,3.232,1.326
				c0.409,0.264,0.565,0.365,0.725,0.365c0.145,0,0.332-0.089,0.381-0.339c0.013-0.075,0.015-0.186,0.015-0.332v-0.168l-0.142-0.107
				c-0.978-0.615-1.698-1.104-2.277-1.497C407.464,604.957,406.929,604.593,405.201,604.593z M406.772,617.546
				c-1.238-0.838-2.208-1.962-2.466-2.589c-1.328-3.268-1.606-5.593-1.606-6.967c0-1.798,0.889-2.788,2.502-2.788
				c1.531,0,1.953,0.281,3.48,1.322c-0.504-0.197-1.038-0.336-1.563-0.336c-1.59,0-2.54,1.292-2.54,3.458
				c0,0.611,0.046,1.199,0.137,1.746l0.028,0.161l0.146,0.064l-0.109-0.045l0.026,0.484
				C404.87,613.247,405.465,616.074,406.772,617.546z M408.586,617.862c-1.706,0-2.873-3.281-3.128-5.346
				c3.182,1.354,3.942,1.973,3.942,4.087C409.399,617.65,409.089,617.862,408.586,617.862z M408.678,618.466
				c1.329-0.057,1.329-1.412,1.329-1.864c0-1.635-0.493-2.537-1.615-3.302c0.65,0.332,1.369,0.709,2.185,1.149
				c0.26,0.161,0.923,1.798,0.923,2.823c0,0.836-0.289,1.354-1.735,1.354C409.404,618.627,409.04,618.568,408.678,618.466z
				 M385.179,604.593h-0.004c-0.404,0-0.881,0.197-0.881,1.136c0,0.175,0.025,0.354,0.048,0.525c0.003,0.016,0.004,0.034,0.007,0.05
				c-0.409-0.146-0.851-0.322-1.311-0.504c-1.5-0.595-3.051-1.208-4.22-1.208c-1.073,0-1.287,0.897-1.287,2.346
				c0,2.098,0.186,4.219,2.485,8.938c0.616,1.272,3.66,3.165,5.088,3.165c1.035,0,1.404-0.138,1.701-0.248
				c0.173-0.064,0.306-0.113,0.564-0.127c0.485,0.645,1.53,0.954,1.758,0.954c0.39,0,0.625-0.35,0.625-0.69
				c0-0.059,0-0.061-0.226-1.013c-0.541-2.282-1.976-8.35-1.976-10.087c0-1.226,0.247-1.226,0.427-1.226
				c0.315,0,1.082,0.218,1.495,0.336c0.331,0.095,0.388,0.109,0.455,0.109c0.264,0,0.464-0.2,0.464-0.463
				c0-0.365-0.323-0.477-0.858-0.667c-0.131-0.045-0.283-0.098-0.457-0.164C386.006,604.593,385.566,604.593,385.179,604.593z
				 M384.996,607.166v-0.42c0-0.2-0.026-0.39-0.051-0.574c-0.021-0.159-0.043-0.309-0.043-0.443c0-0.527,0.143-0.527,0.268-0.527
				h0.009c0.269,0,0.626,0,2.798,0.793c-0.001,0-0.001,0-0.001,0c-0.91,0-1.035,0.881-1.035,1.835c0,1.808,1.396,7.709,1.993,10.228
				c0.121,0.513,0.2,0.845,0.211,0.91c-0.002,0.002-0.019,0.039-0.03,0.048c-0.164-0.023-1.052-0.323-1.316-0.806l-0.087-0.157
				h-0.18c-0.482,0-0.714,0.086-0.938,0.17c-0.264,0.098-0.565,0.209-1.489,0.209c-0.216,0-0.487-0.059-0.79-0.161
				c0.024,0.002,0.049,0.004,0.072,0.005l0.083,0.002l0.076-0.002l0,0c0.353,0,2.711-0.477,2.711-1.262
				c0-0.125-0.135-0.718-0.854-3.729c-0.559-2.343-1.256-5.259-1.343-5.854c-0.017-0.105-0.077-0.207-0.171-0.3L384.996,607.166z
				 M383.044,617.691c-1.093-0.609-2.183-1.463-2.481-2.08c-2.423-4.978-2.423-7.026-2.423-8.672c0-1.737,0.346-1.737,0.679-1.737
				c1.011,0,2.497,0.572,3.836,1.102c-0.447-0.075-0.878-0.116-1.216-0.116c-1.18,0-1.421,0.876-1.421,2.187
				C380.018,609.768,380.866,615.777,383.044,617.691z M384.47,617.671l-0.061-0.004c-2.399-0.095-3.784-7.089-3.784-9.292
				c0-1.58,0.396-1.58,0.814-1.58c1.332,0,2.87,0.522,3.031,0.767c0.079,0.581,0.749,3.386,1.34,5.865
				c0.375,1.572,0.762,3.191,0.83,3.55c-0.251,0.254-1.646,0.69-2.108,0.69L384.47,617.671z M442.61,621.752
				c-0.58,0-0.941,0.386-0.941,1.01c0,0.516,0,2.085,1.613,2.085c0.821,0,1.161-0.148,1.161-1.069
				C444.444,622.771,443.813,621.752,442.61,621.752z M443.282,624.24c-0.603,0-1.003-0.252-1.003-1.478
				c0-0.354,0.158-0.402,0.331-0.402c0.842,0,1.227,0.736,1.227,1.419C443.837,624.24,443.837,624.24,443.282,624.24z"/>
		</g>
		<g id="path42">
			<path inkscape:connector-curvature="0" fill="#FFFFFF" d="M398.66,640.902c0.124-0.082,0.261-0.206,0.403-0.284
				c0.159-0.107,0.278-0.231,0.45-0.384c0.415-0.289,0.877-0.629,1.274-0.985c0.428-0.284,0.724-0.634,1.174-0.906
				c0.95-0.659,1.749-1.465,2.526-2.325c0.267-0.327,0.658-0.552,0.954-0.908c0.096-0.023,0.119-0.172,0.202-0.248
				c0.255-0.325,0.444-0.67,0.551-1.072c0.029-0.114,0.077-0.225,0.119-0.332c0.059-0.297,0.207-0.552,0.284-0.836
				c0.285-0.647,0.469-1.335,0.919-1.91c0.308-0.586,0.848-1.083,1.323-1.558c0.028-0.059,0.028-0.102-0.018-0.148
				c-0.051-0.059-0.168-0.011-0.168-0.118c-0.065-0.046-0.134-0.238-0.248-0.166c-0.047-0.125-0.249-0.082-0.237-0.236
				c-0.054-0.05-0.155-0.096-0.148-0.186c0.018-0.059,0.101-0.036,0.148-0.064c0.035,0.079,0.058,0.2,0.166,0.2
				c0.03-0.052,0.101-0.046,0.137-0.034c0.011,0.113,0.129,0.105,0.218,0.102c0.107-0.027,0.078,0.195,0.202,0.118
				c0.042-0.061,0.1-0.154,0.184-0.154c0.054,0.023,0.035,0.088,0.012,0.118c-0.054,0.064-0.125,0.1-0.13,0.164
				c0.064-0.005,0.14,0.007,0.13,0.091c-0.018,0.054,0.071,0.036,0.089,0.011c0.048-0.054,0.022-0.273,0.148-0.166
				c0.005,0.046,0.04,0.082,0.099,0.064c0.108-0.111,0.174,0.073,0.268,0.091c0,0.082,0.136,0.029,0.1,0.129
				c-0.112,0.043-0.325-0.166-0.349,0.066c0.071,0.048,0.149-0.03,0.183,0.071c-0.04,0.088,0.048,0.179,0.148,0.113
				c0.06-0.036,0.036,0.082,0.018,0.102c-0.018,0.021-0.037,0.064-0.018,0.088c0.024,0.005,0.071,0.048,0.12,0.03
				c-0.006-0.018,0.012-0.043,0.036-0.03c0.041-0.013,0.071,0.013,0.083,0.048c-0.054,0-0.036,0.057-0.018,0.082
				c0.018,0.011,0.018,0.029,0.018,0.054c0.106,0.059,0.106-0.172,0.182-0.054c0.155,0.011,0.089-0.197,0.204-0.166
				c0.029-0.052,0.047,0.023,0.081-0.018c0.03,0.023,0.013,0.066,0.018,0.102c-0.081,0.047-0.07,0.129-0.154,0.136
				c-0.018,0.059,0.126-0.061,0.084,0.064c-0.061,0.077-0.131-0.077-0.215,0c-0.018,0.03-0.07,0.041-0.052,0.082
				c0.13-0.07,0.1,0.227,0.201,0.048c0.066-0.023,0.09-0.107,0.184-0.095c0.034,0.005,0.058,0.036,0.082,0.064
				c-0.018,0.025-0.036,0.066-0.018,0.084c-0.071,0.018-0.148-0.005-0.212,0.046c-0.025,0.114,0.081,0.168,0.165,0.186
				c0.22,0.159,0.491,0.195,0.768,0.22c0.108-0.05,0.228-0.12,0.352-0.066c0.385,0.177,0.688,0.425,1.073,0.604
				c0.076,0,0.164,0,0.202-0.071c-0.038-0.077-0.113-0.154-0.154-0.213c-0.198-0.184-0.445-0.325-0.69-0.44
				c-0.082-0.123-0.224-0.284-0.314-0.432c-0.177-0.307-0.314-0.652-0.47-0.936c-0.039-0.325-0.253-0.575-0.265-0.908
				c-0.023-0.036-0.018-0.089-0.071-0.118c0.011-0.077-0.006-0.191-0.047-0.266c-0.137-0.949,0.552-1.583,0.973-2.294
				c0.557-0.665,1.226-1.392,1.974-1.921c-0.047-0.007,0.197-0.202,0.415-0.272c0.665-0.654,1.27-1.245,1.761-1.994
				c0.094-0.223,0.136-0.461,0.315-0.65c0.004-0.013-0.006-0.025-0.013-0.03c0.391-0.497,0.581-1.074,0.866-1.606
				c0.07-0.391,0.32-0.752,0.438-1.138c0.096-0.168,0.143-0.363,0.249-0.504c0.09-0.218,0.231-0.432,0.267-0.652
				c0.173-0.184,0.142-0.481,0.285-0.688c0.1-0.32,0.13-0.665,0.302-0.954c0.065-0.207,0.004-0.468,0.118-0.652
				c-0.013-0.025-0.024-0.052-0.018-0.084c0.043-0.029,0.023-0.172,0.054-0.218c-0.036-0.309,0.059-0.79,0.046-1.104
				c0.038-0.1-0.095-0.064-0.129-0.052c-0.018,0.225-0.19,0.379-0.203,0.606c-0.046,0.057-0.124,0.082-0.1,0.164
				c0.029,0.013,0.054,0.041,0.083,0.071c-0.012,0.1-0.101,0.161-0.154,0.266c-0.154,0.018,0.018,0.266-0.13,0.302
				c-0.179,0.132-0.19,0.314-0.268,0.499c-0.158,0.07,0.029,0.255-0.1,0.356c0.053-0.123-0.112-0.295,0.018-0.373
				c-0.048-0.213,0.142-0.361,0.028-0.581c0.037-0.077,0.138-0.172,0.055-0.255c0.036-0.036,0.071-0.088,0.029-0.13
				c-0.04-0.088-0.147-0.077-0.23-0.1c0.018,0.041-0.084,0.041-0.036,0.1c0.012,0.079-0.089,0.059-0.102,0.13
				c-0.076,0.138,0.024,0.373-0.147,0.44c-0.022,0.059-0.018,0.13-0.018,0.202c-0.1-0.007-0.148,0.052-0.203,0.13
				c0.012,0.064-0.059,0.046-0.035,0.118c0.096,0.007,0.155,0.107,0.238,0.13c-0.082,0.238-0.173,0.468-0.203,0.724
				c-0.053,0.095-0.029,0.214-0.099,0.302c-0.19-0.207,0.018-0.481-0.049-0.722c-0.009-0.197,0.113-0.423-0.051-0.6
				c-0.012-0.013-0.025-0.023-0.029-0.036c-0.048-0.195,0.2-0.515-0.102-0.568c-0.054,0.141-0.102,0.295-0.154,0.422
				c-0.036,0.152-0.119,0.3-0.22,0.415c-0.083-0.107-0.189,0.023-0.283,0.052c-0.006,0.138-0.173,0.197-0.197,0.334
				c-0.09,0.123-0.242,0.2-0.172,0.366c0.047,0.036,0.183-0.013,0.136,0.1c-0.037,0.114,0.209,0.043,0.102,0.184
				c-0.06,0.023-0.03,0.089-0.066,0.12c0.024,0.229-0.054,0.443,0,0.668c-0.065,0.043-0.079,0.102-0.072,0.166
				c0.096,0.013,0.037,0.113,0.055,0.168c-0.043,0.011-0.112,0.039-0.082,0.1c-0.036,0.071,0.071,0.08,0,0.136
				c-0.071,0.082,0.064,0.166-0.018,0.231c-0.04,0.12,0.147,0.184,0.028,0.286c-0.088-0.089-0.17-0.255-0.11-0.381
				c0.117-0.018-0.018-0.141,0-0.218c-0.042-0.025,0.018-0.1-0.054-0.1c-0.042-0.138,0.018-0.334-0.048-0.44
				c-0.096-0.041,0.148,0.052,0-0.25c-0.059-0.147-0.036-0.343-0.018-0.504c-0.079-0.005,0.113,0.066-0.018-0.148
				c-0.029-0.013-0.118-0.118-0.101-0.148c-0.046-0.059-0.088-0.041-0.147-0.018c-0.013,0.166-0.18,0.268-0.185,0.432
				c0.064,0.066,0.319,0.02,0.203,0.204c-0.132,0.057,0.04,0.213-0.089,0.284c0.012,0.029-0.024,0.107,0.034,0.082
				c0.02,0.011,0.02,0.025,0,0.036c-0.011,0-0.022,0-0.034,0c0.012,0.118-0.024,0.332,0.034,0.416
				c-0.058,0.039-0.089,0.123-0.101,0.2c0.138,0.077-0.095,0.289,0.101,0.284c-0.077,0.15,0.142,0.189,0.066,0.338
				c-0.077,0.036-0.113,0.12-0.113,0.204c0.142-0.014,0.084,0.147,0.102,0.229c-0.102,0.043,0,0.179-0.102,0.202
				c-0.191-0.166,0.053-0.445-0.155-0.586c0.013-0.118-0.112-0.184-0.065-0.314c-0.046-0.059-0.118-0.125-0.064-0.202
				c-0.018-0.029,0.036-0.072,0.013-0.118c-0.125-0.073-0.025-0.232-0.149-0.302c-0.042-0.102-0.078-0.361-0.048-0.368
				c0.055-0.125-0.054-0.195-0.137-0.266c-0.035-0.007-0.053-0.054-0.1-0.036c-0.036,0.029-0.036,0.071-0.046,0.118
				c0.106,0.03,0.154,0.213,0.112,0.218c-0.018,0.102,0.024,0.198,0.1,0.25c0.054,0.243-0.172,0.475,0,0.67
				c0.054,0.214-0.188,0.474,0.084,0.606c0.088,0.064,0.06,0.213,0.138,0.295c-0.138,0.041,0.016,0.327-0.15,0.22
				c0.018-0.1-0.029-0.189-0.089-0.248c0.013-0.107-0.006-0.202-0.047-0.284c-0.04,0.011-0.071-0.018-0.083-0.054
				c-0.01-0.232-0.248-0.309-0.183-0.588c0.03-0.064-0.054-0.041-0.054-0.095c-0.1-0.172,0.166-0.243,0-0.386
				c0.012-0.064-0.042-0.105-0.046-0.172c-0.113-0.046-0.125,0.138-0.183,0.204c0.012,0.062-0.032,0.118,0.029,0.136
				c0.078,0.093,0,0.254,0.071,0.348c-0.053,0.066-0.106,0.125-0.082,0.22c0.018,0.047,0.105,0.082,0.029,0.13
				c-0.029,0.023-0.036,0.054-0.029,0.089c0.022-0.013,0.029,0.018,0.046,0.03c0.013,0.141,0.037,0.18,0.137,0.266
				c0.161-0.013,0.018,0.231,0.185,0.218c0.104,0.043,0.011,0.125,0.018,0.184c-0.113,0.059,0.147,0.273-0.071,0.304
				c-0.102-0.061-0.078-0.227-0.084-0.35c-0.018-0.077-0.101,0.005-0.118-0.071c0.046-0.136-0.06-0.202-0.147-0.268
				c-0.197-0.005,0.036-0.256-0.138-0.313c-0.041-0.018-0.077-0.071-0.113-0.102c-0.046-0.118,0.106-0.35-0.069-0.32
				c-0.084,0.082-0.066,0.197-0.15,0.266c-0.012,0.054,0.012,0.089,0.048,0.12c-0.018,0.084-0.043,0.238,0.088,0.247
				c0.036,0.066-0.076,0.073-0.036,0.138c-0.04,0.03-0.089-0.018-0.118-0.052c-0.013-0.077-0.013-0.161-0.084-0.213
				c-0.071-0.036-0.071,0.052-0.1,0.082c-0.071,0.141,0.082,0.325-0.119,0.402c0.047,0.079,0.137,0.125,0.101,0.248
				c-0.016,0.03-0.054,0.013-0.085,0.018c-0.08-0.046-0.063-0.214-0.182-0.218c-0.106,0.036-0.131,0.118-0.182,0.2
				c0.023,0.077,0.147,0.048,0.147,0.15c0.071,0.039,0.191,0.045,0.202,0.154c-0.023,0.266,0.35,0.277,0.285,0.568
				c0.029,0.03,0.119,0.023,0.083,0.1c-0.071-0.041-0.289,0.025-0.267-0.152c-0.065-0.079-0.136-0.189-0.165-0.304
				c-0.126-0.059-0.162-0.136-0.284-0.23c0.006-0.055,0-0.107-0.048-0.136c-0.077,0-0.143,0.029-0.222,0.018
				c-0.079,0.093-0.235,0.241-0.033,0.3c0.231-0.029,0.076,0.286,0.267,0.322c0.075-0.005,0.075,0.059,0.136,0.1
				c0.011,0.041-0.018,0.071-0.054,0.082c-0.135,0.043-0.099-0.13-0.248-0.07c-0.042-0.172-0.172-0.245-0.218-0.398
				c-0.12-0.088-0.204,0.036-0.331,0.066c-0.06-0.018-0.138,0.018-0.186,0.082c-0.005,0.036,0,0.066,0.035,0.084
				c0.038,0.005,0.083-0.013,0.113,0.018c0.013,0.095-0.16,0.018-0.202,0.066c-0.042-0.013-0.071-0.071-0.13-0.048
				c-0.071,0.082,0.16,0.184-0.018,0.232c0.089,0.057,0.012,0.136,0.082,0.18c-0.022,0.037-0.064,0.013-0.099,0.018
				c-0.072-0.057-0.113-0.213-0.221-0.182c0.029,0.084-0.071,0.071-0.096,0.12c-0.14-0.073-0.171,0.129-0.32,0.082
				c0.013,0.148-0.379,0.184-0.164,0.284c0.08,0.043,0.04,0.166,0.097,0.238c-0.063,0.046-0.05-0.071-0.117-0.071
				c-0.106-0.061-0.209,0.03-0.267,0.102c-0.069,0.039-0.024,0.136-0.082,0.184c-0.082-0.048-0.16-0.048-0.238,0
				c-0.046,0.054-0.142,0.105-0.082,0.18c0.071,0.096,0.189,0.091,0.284,0.138c-0.088,0.245-0.202-0.118-0.338,0.048
				c-0.054-0.054-0.131-0.107-0.196-0.084c-0.102,0.066-0.189,0.13-0.154,0.255c0.022,0.03,0.088-0.011,0.082,0.048
				c-0.071,0.021-0.16-0.018-0.23,0.036c-0.071,0.052-0.125,0.123-0.101,0.213c-0.138,0.1-0.314,0.13-0.356,0.318
				c-0.024,0.038-0.084,0-0.113,0.038c-0.142,0.082,0.096,0.422-0.218,0.332c-0.042,0.023-0.102,0.066-0.102,0.12
				c0.036,0.029-0.036,0.052-0.047,0.082c-0.096,0.029-0.136,0.105-0.184,0.164c-0.076,0.197-0.367,0.286-0.356,0.506
				c-0.148-0.023-0.095,0.177-0.249,0.136c-0.118,0.089-0.086,0.104-0.136,0.184c-0.029,0.077,0.005,0.207-0.113,0.213
				c-0.119,0.166-0.321,0.22-0.421,0.422c-0.16-0.102-0.308-0.243-0.268-0.468c-0.077-0.071-0.004-0.416,0.019-0.422
				c-0.082-0.172,0.018-0.356-0.088-0.515c0.011-0.089-0.007-0.214-0.048-0.302c0.089-0.243-0.172-0.457-0.036-0.718
				c-0.03-0.07,0.012-0.225-0.101-0.272c-0.154,0.093-0.278-0.045-0.432,0.052c-0.035-0.052-0.113-0.096-0.183-0.1
				c-0.113,0.1-0.095,0.331-0.339,0.266c-0.018-0.054-0.1-0.13-0.147-0.048c-0.066-0.052-0.125,0.025-0.202,0
				c-0.054,0.077-0.083,0.25-0.202,0.102c-0.047,0.018-0.059-0.054-0.101-0.054c-0.083,0.195-0.397,0.013-0.366,0.302
				c-0.06,0.054-0.024,0.143-0.03,0.22c0.03,0.029,0.107,0.029,0.1,0.1c-0.064,0.054-0.112-0.036-0.172-0.036
				c0.006-0.07-0.06-0.123-0.13-0.1c-0.071,0.011-0.125,0.079-0.203,0.1c0.007,0.089-0.07,0.084-0.118,0.036
				c0.006-0.057-0.095-0.064-0.137-0.036c-0.029,0.013-0.053,0.043-0.082,0.066c0.064,0.102-0.113,0.136-0.065,0.238
				c-0.178,0.059-0.381,0.07-0.534,0.184c-0.106-0.089-0.119,0.075-0.183,0.1c-0.013,0.1,0.124,0.046,0.112,0.148
				c-0.077,0.064-0.094,0.123-0.195,0.166c-0.113-0.03-0.184-0.018-0.272,0.052c0.012,0.096-0.036,0.138,0.035,0.232
				c-0.148,0.077,0.09,0.231-0.082,0.273c-0.006,0.071-0.047,0.172-0.137,0.111c-0.065-0.011-0.137,0.007-0.131,0.102
				c-0.088,0.148,0.09,0.232,0.03,0.386c0.054,0.095,0.231,0.077,0.256,0.154c0.017,0.102,0.136,0.054,0.183,0.129
				c-0.053,0.038-0.124,0.073-0.183,0.038c-0.124-0.059-0.238-0.191-0.368-0.064c-0.077,0.105-0.183,0.159-0.183,0.295
				c0.082,0.018,0.13,0.096,0.165,0.172c-0.024,0.018-0.036,0.043-0.071,0.03c-0.007-0.048-0.042-0.12-0.095-0.066
				c0.023,0.084-0.071,0.066-0.089,0.138c0.071,0.105,0.059,0.243,0.172,0.331c-0.047,0.066-0.124,0.138-0.071,0.22
				c0.042,0.077,0.054,0.179,0.119,0.232c-0.018,0.095,0.012,0.195,0.136,0.202c0.19,0.093,0.386,0.011,0.57,0.136
				c0.13,0.059,0.184-0.161,0.302-0.036c0.118-0.089,0.196,0.077,0.25-0.118c0.081,0.054,0.182,0.123,0.302,0.118
				c0.041-0.054,0.035-0.161,0.13-0.164c0.006,0.046,0.048,0.082,0.101,0.064c0.036-0.036,0.042-0.1,0.101-0.12
				c0.012,0.036-0.024,0.202,0.083,0.12c0.042-0.232,0.362,0.189,0.219-0.168c-0.018-0.016-0.041-0.034-0.035-0.064
				c0.012-0.036,0.047-0.013,0.071-0.018c0.046,0.279,0.385,0.082,0.385,0.386c0.16,0.023,0.178,0.195,0.283,0.284
				c-0.005,0.107-0.135,0.184-0.088,0.315c-0.29,0.138-0.421,0.402-0.498,0.706c-0.196,0.148-0.486,0.218-0.468,0.504
				c0,0.136-0.125,0.261-0.219,0.331c-0.06,0.096-0.19,0.184-0.238,0.268c0.06,0.048-0.029,0.07-0.012,0.118
				c0.012,0.107-0.006,0.261-0.155,0.266c-0.124,0.007-0.012,0.232-0.184,0.238c-0.065,0.036-0.106,0.118-0.065,0.202
				c0.06,0.023,0.024,0.095,0.018,0.13c-0.059,0.036-0.178-0.007-0.183,0.084c0.024,0.129,0.029,0.23-0.054,0.336
				c-0.054,0.013-0.142-0.036-0.148,0.048c-0.106,0.143,0.29,0.325-0.053,0.284c-0.024,0.054-0.089,0.03-0.101,0.084
				c-0.13,0.184,0.184,0.231,0.053,0.373c-0.071-0.025-0.147-0.118-0.219-0.036c-0.059,0.064-0.024,0.213-0.065,0.284
				c0.207,0.025,0.106,0.261,0.314,0.284c0.023,0.03,0.064,0.048,0.071,0.084c-0.207,0.095-0.214-0.238-0.385-0.238
				c-0.023-0.03-0.066-0.005-0.101-0.013c-0.065,0.054-0.083,0.154-0.054,0.232c0.119,0.018,0.184,0.166,0.285,0.22
				c0.113,0.054,0.178,0.136,0.202,0.248c-0.148,0.154-0.262-0.159-0.433-0.148c-0.047-0.046-0.113-0.059-0.166-0.082
				c-0.082,0.071,0.005,0.147,0.029,0.213c0.089-0.036,0.054,0.071,0.083,0.1c0.101,0.186,0.474,0.096,0.404,0.404
				c-0.06,0.036-0.148,0.088-0.202,0c-0.101-0.118-0.237-0.225-0.397-0.232c-0.042,0.043-0.119,0.03-0.137,0.084
				c-0.025,0.113,0.113,0.13,0.165,0.202c0.16,0.018,0.273,0.225,0.451,0.231c0.03,0.077-0.036,0.13-0.101,0.084
				c-0.142-0.13-0.368-0.066-0.516-0.184c-0.065-0.007-0.107,0.046-0.166,0.054c-0.029,0.071-0.029,0.202,0.064,0.213
				c0.066-0.005,0.125,0.013,0.167,0.054c0.018,0.046-0.077,0.214,0.054,0.148c0-0.036,0.041-0.054,0.064-0.084
				c0.113-0.041,0.148,0.096,0.202,0.156c-0.006,0.036,0.047,0.088-0.018,0.113c-0.189-0.025-0.338-0.148-0.533-0.148
				c-0.078,0.048,0,0.123,0,0.184c0.113,0.041,0.207,0.066,0.285,0.148c0.053,0.018,0.113-0.054,0.147,0.018
				c-0.005,0.041,0,0.093,0.054,0.1c0.059-0.007,0.119-0.059,0.184-0.018c0.053,0.089-0.018,0.113-0.071,0.154
				c-0.017,0.02-0.041,0.041-0.065,0.066c-0.297,0-0.563-0.238-0.853-0.102c-0.043,0.102,0.071,0.066,0.101,0.118
				c0.088,0.084,0.26-0.07,0.331,0.102c0.119-0.071,0.183,0.148,0.272,0c0.101,0.011,0.148,0.043,0.249,0.046
				c0.101,0.114,0.22,0.186,0.249,0.356c-0.154,0.007-0.321,0.132-0.469,0.014c-0.119,0.039-0.172-0.073-0.284-0.048
				c-0.119-0.136-0.303-0.118-0.486-0.118c-0.024,0.029-0.077,0.064-0.03,0.1c0.125,0.102,0.332,0,0.433,0.166
				c0.107,0.146,0.504-0.13,0.403,0.2c-0.214,0.036-0.487,0.138-0.688,0c-0.118-0.005-0.272,0.066-0.367-0.029
				c-0.106,0.082-0.296-0.089-0.349,0.095c-0.065,0.154,0.1,0.154,0.165,0.22c0.143-0.084,0.262,0.013,0.403-0.018
				c0.03,0.023,0.036,0.054,0.03,0.084c-0.243,0.188-0.587,0.07-0.854,0.1c0.013,0.136-0.201,0.064-0.148,0.202
				c0.083,0.004,0.179,0.075,0.249,0c0.155,0.023,0.272-0.036,0.422-0.018c0.113-0.061,0.206-0.013,0.319-0.084
				c0.29,0.102-0.012-0.243,0.25-0.214c0.219,0.066,0.379-0.052,0.604-0.07c0.023,0.1,0.13,0.023,0.196,0.034
				c-0.047,0.066,0.107,0.256-0.029,0.22c-0.06-0.016-0.089-0.105-0.155-0.1c-0.03,0.041-0.006,0.107-0.065,0.13
				c-0.064,0.005-0.059-0.059-0.119-0.082c-0.064-0.007-0.106,0.046-0.165,0.052c-0.137,0.161,0.273,0.155,0.036,0.286
				c0,0.166-0.374-0.007-0.284,0.266c0.063,0.136,0.337-0.077,0.23,0.184c-0.137,0.189-0.344,0.052-0.533,0.118
				c-0.036,0.084-0.202,0.036-0.249,0.114c-0.059,0.105-0.137,0.004-0.202,0.088c-0.088-0.088-0.201,0.023-0.284,0
				c-0.125,0.159-0.403,0.018-0.54,0.184c-0.201,0.113-0.408,0.054-0.634,0.113c-0.023,0.064-0.119,0.1-0.083,0.184
				c0.065,0.048,0.178-0.005,0.267-0.013c0.154-0.046,0.331,0.036,0.45-0.136c0.243-0.041,0.51-0.029,0.724-0.148
				c0.207,0.177,0.356-0.197,0.599-0.136c0.088-0.061,0.214-0.025,0.319-0.036c0.03,0.029,0.013,0.082,0.019,0.118
				c-0.155,0.195-0.45,0.195-0.652,0.35c-0.154,0.016-0.302,0.03-0.421,0.118c-0.096,0.048-0.214,0.048-0.314,0.071
				c-0.083,0.1-0.244-0.071-0.273,0.082c-0.159-0.011-0.255,0.036-0.367,0.15c-0.118,0.021-0.219,0.082-0.35,0.082
				c-0.071-0.036-0.154-0.029-0.237-0.048c0,0.048-0.024,0.084-0.065,0.113c-0.261,0-0.166,0.298-0.302,0.42
				c0.046,0.107,0.095,0,0.154,0c0.071-0.093,0.242-0.011,0.315-0.136c0.071,0,0.105-0.095,0.172-0.113
				c0.142-0.071,0.32-0.071,0.451-0.182c0.183-0.043,0.355-0.096,0.504-0.22c0.088,0.123,0.189-0.025,0.296,0
				c0.189-0.107,0.427-0.118,0.587-0.25c0.089,0.043,0.314-0.093,0.303,0.048c-0.048,0.048-0.03,0.172-0.137,0.148
				c-0.119,0.202-0.403,0.077-0.481,0.302c-0.155-0.054-0.255,0.125-0.42,0.082c-0.048,0.071-0.143,0.014-0.202,0.054
				c-0.124,0.202-0.386,0.109-0.487,0.334c-0.195-0.054-0.266,0.241-0.45,0.07c-0.136,0.036-0.249,0.136-0.421,0.102
				c-0.065-0.048-0.065-0.168-0.166-0.154c-0.047,0.021-0.035,0.123-0.118,0.118c-0.018,0.189-0.208,0.272-0.297,0.42
				c0.018,0.036,0.059,0.018,0.083,0.048c0.148-0.036,0.432,0.082,0.516-0.102c0.142-0.041,0.231-0.159,0.385-0.118
				c0.096-0.064,0.231-0.071,0.321-0.113c0.13-0.105,0.266-0.066,0.402-0.172c0.048,0.018,0.113,0.059,0.167,0.018
				c0.065-0.1,0.183-0.071,0.248-0.166c0.137-0.059,0.291-0.071,0.403-0.184c0.12,0.029,0.167-0.113,0.285-0.138
				c0.13-0.004,0.224-0.136,0.368-0.064c-0.137,0.13-0.279,0.363-0.533,0.32c-0.084,0.018-0.043,0.154-0.155,0.132
				c-0.101,0.057-0.219,0.259-0.367,0.236c-0.338-0.118-0.421,0.415-0.77,0.266c-0.16,0.12-0.261,0.302-0.499,0.302
				c-0.13,0.243-0.468,0.043-0.557,0.304c-0.214-0.023-0.185,0.213-0.367,0.266c0.011,0.113-0.155,0.107-0.119,0.231
				c-0.042,0.025-0.03,0.066-0.03,0.102c0.041,0.016,0.066,0.041,0.119,0.016c0.059-0.07,0.243,0.12,0.249-0.064
				c0.083-0.023,0.177-0.077,0.201-0.172c0.125-0.023,0.226-0.159,0.35-0.13c0.071-0.025,0.166-0.025,0.238,0
				c-0.155,0.118-0.309,0.309-0.504,0.35c-0.054,0.03-0.155,0.077-0.149,0.118c-0.077,0.089-0.243,0.125-0.272,0.25
				c-0.165,0.141-0.243,0.366-0.432,0.502c0.036,0.089-0.148,0.214,0.036,0.238c0.077-0.012,0.124,0.013,0.183,0
				c-0.172,0.125-0.189,0.332-0.367,0.397c-0.096,0.043-0.029,0.197-0.119,0.238c0.005,0.046-0.029,0.184,0.083,0.184
				C398.441,640.991,398.618,641.04,398.66,640.902"/>
		</g>
		<g id="path46">
			<path inkscape:connector-curvature="0" fill="#FFFFFF" d="M401.055,635.466c0.006-0.036,0-0.064-0.035-0.082
				c-0.172-0.054-0.321,0.172-0.468,0c-0.071,0.007-0.13,0.043-0.184,0.095c-0.042,0.189,0.136,0.054,0.219,0.12
				c0.148,0.018,0.308,0.064,0.385-0.102C401.007,635.502,401.013,635.443,401.055,635.466"/>
		</g>
		<g id="path50">
			<path inkscape:connector-curvature="0" fill="#FFFFFF" d="M402.01,635.349c0.047-0.059-0.024-0.107-0.066-0.154
				c-0.088,0.046-0.248-0.089-0.302,0.054c-0.059-0.059-0.095,0.041-0.148,0.036c-0.088,0-0.183-0.013-0.255,0.029
				c-0.03,0.013-0.012,0.071-0.018,0.1c0.137,0.018,0.29-0.021,0.439-0.029c0.036,0.036,0.036,0.113,0.119,0.082
				C401.837,635.397,401.909,635.349,402.01,635.349"/>
		</g>
		<g id="path54">
			<path inkscape:connector-curvature="0" fill="#FFFFFF" d="M410.812,629.504c-0.076,0-0.119,0.071-0.147,0.118
				c0.041,0.143,0.054-0.064,0.131-0.029C410.79,629.557,410.866,629.539,410.812,629.504"/>
		</g>
		<g id="path58">
			<path inkscape:connector-curvature="0" fill="#FFFFFF" d="M407.884,627.997c-0.071,0.079-0.112-0.071-0.184,0
				c0.059,0.096,0.255,0.013,0.249,0.172C407.962,628.097,407.944,628.04,407.884,627.997"/>
		</g>
		<g id="path62">
			<path inkscape:connector-curvature="0" fill="#FFFFFF" d="M407.636,627.767c-0.047,0.005-0.047,0.088-0.071,0.13
				c0.036,0,0.065,0.005,0.088,0.034C407.647,627.874,407.73,627.803,407.636,627.767"/>
		</g>
		<g id="path66">
			<path inkscape:connector-curvature="0" fill="#1F4FA2" d="M398.565,640.879c0.124-0.084,0.261-0.207,0.403-0.286
				c0.16-0.105,0.278-0.231,0.45-0.384c0.415-0.291,0.876-0.627,1.274-0.983c0.425-0.284,0.723-0.636,1.173-0.908
				c0.946-0.656,1.747-1.463,2.523-2.321c0.266-0.325,0.658-0.55,0.953-0.906c0.096-0.025,0.119-0.172,0.202-0.25
				c0.255-0.325,0.444-0.668,0.551-1.072c0.029-0.113,0.077-0.225,0.118-0.331c0.06-0.297,0.207-0.552,0.284-0.836
				c0.284-0.645,0.468-1.333,0.918-1.908c0.307-0.586,0.848-1.083,1.32-1.558c0.029-0.059,0.029-0.1-0.018-0.147
				c-0.046-0.059-0.164-0.013-0.164-0.12c-0.066-0.047-0.137-0.236-0.249-0.164c-0.047-0.125-0.249-0.084-0.237-0.238
				c-0.054-0.046-0.154-0.095-0.148-0.184c0.017-0.059,0.101-0.034,0.148-0.066c0.036,0.079,0.06,0.204,0.165,0.204
				c0.03-0.054,0.101-0.048,0.136-0.036c0.013,0.111,0.131,0.105,0.221,0.1c0.105-0.025,0.078,0.195,0.199,0.118
				c0.043-0.059,0.102-0.154,0.184-0.154c0.055,0.023,0.036,0.089,0.013,0.118c-0.054,0.066-0.125,0.102-0.131,0.166
				c0.066-0.005,0.144,0.007,0.131,0.089c-0.018,0.054,0.071,0.036,0.088,0.011c0.046-0.054,0.021-0.272,0.147-0.164
				c0.006,0.046,0.042,0.082,0.102,0.064c0.105-0.113,0.171,0.07,0.266,0.089c0,0.082,0.137,0.029,0.1,0.13
				c-0.113,0.041-0.324-0.166-0.348,0.064c0.07,0.048,0.147-0.029,0.182,0.071c-0.042,0.088,0.048,0.179,0.149,0.113
				c0.057-0.036,0.035,0.084,0.017,0.102c-0.017,0.021-0.035,0.064-0.017,0.088c0.024,0.005,0.07,0.048,0.117,0.03
				c-0.004-0.018,0.013-0.043,0.036-0.03c0.042-0.013,0.071,0.013,0.083,0.048c-0.054,0-0.036,0.057-0.018,0.082
				c0.018,0.011,0.018,0.029,0.018,0.054c0.108,0.059,0.108-0.172,0.184-0.054c0.154,0.011,0.089-0.197,0.202-0.166
				c0.029-0.052,0.047,0.023,0.082-0.016c0.031,0.021,0.012,0.064,0.018,0.1c-0.082,0.046-0.071,0.129-0.155,0.136
				c-0.018,0.059,0.125-0.059,0.084,0.064c-0.06,0.077-0.131-0.077-0.212,0c-0.02,0.03-0.072,0.041-0.055,0.084
				c0.131-0.072,0.1,0.225,0.201,0.046c0.066-0.023,0.09-0.107,0.186-0.095c0.034,0.005,0.058,0.036,0.082,0.064
				c-0.02,0.025-0.037,0.066-0.02,0.084c-0.069,0.018-0.147-0.005-0.212,0.046c-0.024,0.114,0.082,0.168,0.167,0.186
				c0.218,0.159,0.49,0.195,0.768,0.218c0.105-0.048,0.226-0.118,0.35-0.066c0.384,0.179,0.688,0.427,1.072,0.606
				c0.076,0,0.165,0,0.201-0.071c-0.036-0.077-0.113-0.154-0.154-0.213c-0.196-0.184-0.443-0.325-0.688-0.44
				c-0.082-0.123-0.224-0.284-0.314-0.431c-0.177-0.309-0.314-0.654-0.468-0.936c-0.041-0.327-0.255-0.575-0.267-0.908
				c-0.023-0.036-0.018-0.089-0.072-0.118c0.013-0.077-0.004-0.189-0.045-0.266c-0.138-0.949,0.549-1.581,0.97-2.293
				c0.556-0.665,1.225-1.394,1.973-1.921c-0.047-0.004,0.196-0.2,0.413-0.272c0.666-0.652,1.27-1.244,1.76-1.991
				c0.096-0.225,0.137-0.463,0.315-0.652c0.007-0.011-0.006-0.023-0.011-0.029c0.39-0.499,0.579-1.072,0.863-1.606
				c0.071-0.391,0.32-0.75,0.439-1.136c0.095-0.168,0.141-0.361,0.248-0.504c0.089-0.218,0.232-0.432,0.267-0.652
				c0.172-0.184,0.142-0.479,0.285-0.686c0.1-0.32,0.129-0.665,0.301-0.954c0.066-0.207,0.005-0.47,0.119-0.652
				c-0.011-0.023-0.022-0.054-0.018-0.082c0.04-0.03,0.025-0.172,0.054-0.218c-0.036-0.309,0.058-0.79,0.046-1.104
				c0.036-0.1-0.093-0.064-0.129-0.052c-0.018,0.225-0.191,0.379-0.203,0.602c-0.046,0.061-0.124,0.084-0.1,0.168
				c0.029,0.011,0.054,0.041,0.083,0.07c-0.012,0.102-0.101,0.163-0.154,0.268c-0.155,0.018,0.018,0.266-0.131,0.302
				c-0.176,0.129-0.189,0.313-0.265,0.497c-0.162,0.071,0.029,0.255-0.102,0.357c0.054-0.125-0.113-0.298,0.018-0.375
				c-0.048-0.214,0.142-0.359,0.029-0.581c0.037-0.077,0.136-0.17,0.055-0.254c0.036-0.036,0.069-0.089,0.029-0.13
				c-0.042-0.089-0.149-0.077-0.231-0.1c0.018,0.041-0.082,0.041-0.036,0.1c0.012,0.079-0.088,0.061-0.1,0.13
				c-0.078,0.136,0.022,0.373-0.149,0.438c-0.024,0.059-0.018,0.13-0.018,0.2c-0.1-0.004-0.147,0.055-0.2,0.132
				c0.012,0.064-0.06,0.046-0.036,0.118c0.096,0.005,0.153,0.107,0.236,0.13c-0.083,0.238-0.171,0.468-0.2,0.724
				c-0.054,0.095-0.03,0.213-0.102,0.302c-0.189-0.207,0.018-0.479-0.047-0.724c-0.013-0.195,0.113-0.42-0.055-0.599
				c-0.01-0.011-0.022-0.023-0.029-0.036c-0.046-0.195,0.203-0.515-0.098-0.566c-0.054,0.141-0.102,0.295-0.155,0.418
				c-0.037,0.155-0.118,0.304-0.218,0.416c-0.084-0.107-0.191,0.023-0.285,0.052c-0.006,0.138-0.173,0.197-0.196,0.332
				c-0.088,0.125-0.242,0.2-0.171,0.368c0.046,0.036,0.182-0.013,0.135,0.1c-0.037,0.113,0.207,0.041,0.101,0.184
				c-0.06,0.023-0.03,0.088-0.065,0.118c0.022,0.23-0.053,0.445,0,0.67c-0.066,0.041-0.078,0.1-0.072,0.164
				c0.095,0.013,0.037,0.113,0.055,0.168c-0.042,0.011-0.113,0.041-0.084,0.1c-0.036,0.071,0.071,0.082,0,0.136
				c-0.069,0.082,0.066,0.166-0.018,0.231c-0.04,0.118,0.148,0.184,0.031,0.286c-0.089-0.089-0.172-0.256-0.112-0.381
				c0.116-0.018-0.02-0.141,0-0.218c-0.042-0.025,0.018-0.1-0.054-0.1c-0.043-0.138,0.018-0.332-0.049-0.44
				c-0.095-0.041,0.148,0.054,0-0.248c-0.059-0.148-0.035-0.345-0.017-0.504c-0.078-0.007,0.113,0.064-0.018-0.148
				c-0.03-0.013-0.12-0.118-0.1-0.148c-0.049-0.059-0.089-0.041-0.149-0.018c-0.013,0.166-0.178,0.266-0.184,0.434
				c0.066,0.064,0.32,0.016,0.202,0.2c-0.13,0.059,0.042,0.213-0.088,0.284c0.013,0.03-0.023,0.107,0.036,0.082
				c0.016,0.013,0.016,0.025,0,0.036c-0.012,0-0.023,0-0.036,0c0.013,0.118-0.023,0.332,0.036,0.416
				c-0.059,0.041-0.089,0.123-0.101,0.2c0.136,0.077-0.096,0.289,0.101,0.284c-0.078,0.15,0.142,0.189,0.066,0.338
				c-0.078,0.036-0.113,0.118-0.113,0.202c0.142-0.013,0.082,0.148,0.1,0.23c-0.1,0.043,0,0.179-0.1,0.202
				c-0.191-0.166,0.053-0.445-0.154-0.586c0.01-0.118-0.114-0.184-0.066-0.315c-0.048-0.059-0.118-0.125-0.065-0.202
				c-0.017-0.029,0.035-0.07,0.013-0.118c-0.126-0.071-0.024-0.231-0.149-0.302c-0.042-0.1-0.078-0.361-0.048-0.368
				c0.054-0.123-0.054-0.195-0.136-0.266c-0.034-0.005-0.053-0.054-0.1-0.036c-0.036,0.03-0.036,0.071-0.047,0.118
				c0.107,0.03,0.154,0.214,0.113,0.22c-0.019,0.1,0.023,0.197,0.098,0.248c0.054,0.243-0.171,0.475,0,0.67
				c0.054,0.214-0.189,0.474,0.083,0.606c0.09,0.064,0.06,0.213,0.137,0.295c-0.137,0.041,0.019,0.325-0.148,0.22
				c0.018-0.102-0.029-0.189-0.09-0.25c0.014-0.105-0.004-0.2-0.046-0.282c-0.04,0.009-0.071-0.018-0.082-0.055
				c-0.012-0.23-0.249-0.307-0.185-0.586c0.029-0.064-0.051-0.039-0.051-0.095c-0.103-0.172,0.164-0.243,0-0.384
				c0.011-0.066-0.043-0.107-0.047-0.172c-0.114-0.048-0.126,0.136-0.186,0.202c0.013,0.063-0.029,0.118,0.03,0.136
				c0.078,0.095,0,0.254,0.071,0.348c-0.054,0.066-0.107,0.123-0.084,0.22c0.018,0.048,0.108,0.082,0.03,0.13
				c-0.03,0.023-0.036,0.054-0.03,0.088c0.024-0.011,0.03,0.018,0.048,0.03c0.012,0.143,0.036,0.182,0.136,0.266
				c0.16-0.011,0.018,0.23,0.183,0.22c0.108,0.041,0.013,0.123,0.019,0.184c-0.113,0.059,0.147,0.272-0.072,0.302
				c-0.098-0.061-0.077-0.225-0.083-0.35c-0.015-0.075-0.099,0.007-0.117-0.072c0.048-0.136-0.06-0.2-0.149-0.266
				c-0.194-0.005,0.036-0.255-0.136-0.314c-0.04-0.016-0.076-0.07-0.112-0.1c-0.048-0.118,0.105-0.35-0.071-0.32
				c-0.084,0.084-0.066,0.197-0.148,0.266c-0.012,0.054,0.011,0.089,0.046,0.12c-0.018,0.084-0.04,0.238,0.089,0.247
				c0.036,0.066-0.078,0.073-0.037,0.138c-0.041,0.03-0.088-0.018-0.117-0.054c-0.012-0.075-0.012-0.159-0.082-0.213
				c-0.071-0.034-0.071,0.054-0.103,0.084c-0.071,0.141,0.085,0.325-0.118,0.402c0.047,0.077,0.137,0.125,0.1,0.248
				c-0.017,0.03-0.053,0.013-0.082,0.018c-0.082-0.046-0.064-0.214-0.182-0.22c-0.107,0.036-0.131,0.118-0.185,0.202
				c0.023,0.077,0.148,0.048,0.148,0.148c0.072,0.041,0.19,0.046,0.201,0.154c-0.024,0.266,0.349,0.279,0.285,0.568
				c0.031,0.03,0.118,0.023,0.082,0.102c-0.069-0.041-0.289,0.021-0.267-0.154c-0.064-0.079-0.136-0.191-0.164-0.304
				c-0.125-0.057-0.16-0.136-0.285-0.229c0.007-0.055,0-0.107-0.046-0.138c-0.076,0-0.143,0.03-0.22,0.018
				c-0.082,0.095-0.239,0.243-0.036,0.3c0.233-0.027,0.078,0.286,0.267,0.322c0.076-0.005,0.076,0.061,0.136,0.1
				c0.012,0.043-0.018,0.071-0.054,0.084c-0.136,0.041-0.1-0.132-0.247-0.071c-0.042-0.172-0.173-0.243-0.22-0.397
				c-0.118-0.091-0.202,0.036-0.331,0.064c-0.059-0.018-0.136,0.018-0.184,0.084c-0.005,0.034,0,0.064,0.036,0.082
				c0.037,0.005,0.081-0.013,0.113,0.018c0.012,0.096-0.16,0.018-0.202,0.066c-0.042-0.013-0.071-0.071-0.13-0.048
				c-0.071,0.082,0.161,0.184-0.018,0.232c0.088,0.059,0.012,0.136,0.083,0.182c-0.024,0.036-0.065,0.013-0.1,0.018
				c-0.071-0.059-0.113-0.213-0.22-0.182c0.029,0.082-0.072,0.07-0.096,0.118c-0.14-0.071-0.17,0.129-0.318,0.082
				c0.01,0.148-0.381,0.182-0.167,0.282c0.083,0.045,0.042,0.168,0.1,0.239c-0.064,0.047-0.051-0.071-0.117-0.071
				c-0.108-0.059-0.207,0.029-0.268,0.1c-0.069,0.041-0.022,0.138-0.081,0.184c-0.084-0.046-0.161-0.046-0.239,0
				c-0.045,0.054-0.14,0.107-0.08,0.184c0.069,0.095,0.188,0.089,0.283,0.136c-0.089,0.243-0.203-0.118-0.337,0.048
				c-0.055-0.054-0.132-0.107-0.197-0.084c-0.098,0.066-0.189,0.13-0.154,0.256c0.024,0.029,0.089-0.011,0.083,0.046
				c-0.071,0.025-0.159-0.018-0.231,0.036c-0.071,0.054-0.123,0.125-0.101,0.214c-0.135,0.1-0.314,0.13-0.356,0.32
				c-0.023,0.036-0.08,0-0.111,0.036c-0.143,0.082,0.093,0.42-0.222,0.331c-0.039,0.025-0.099,0.064-0.099,0.118
				c0.036,0.03-0.035,0.054-0.048,0.084c-0.094,0.03-0.136,0.105-0.184,0.166c-0.075,0.195-0.366,0.284-0.354,0.502
				c-0.148-0.023-0.096,0.179-0.248,0.136c-0.119,0.091-0.087,0.104-0.137,0.184c-0.03,0.079,0.005,0.207-0.113,0.214
				c-0.118,0.166-0.319,0.22-0.42,0.42c-0.16-0.1-0.308-0.243-0.266-0.468c-0.077-0.07-0.006-0.413,0.017-0.42
				c-0.082-0.172,0.018-0.356-0.088-0.516c0.012-0.088-0.005-0.213-0.046-0.302c0.088-0.243-0.172-0.456-0.037-0.717
				c-0.029-0.071,0.012-0.225-0.101-0.272c-0.154,0.095-0.278-0.041-0.432,0.052c-0.036-0.052-0.113-0.093-0.185-0.1
				c-0.112,0.1-0.094,0.332-0.336,0.266c-0.019-0.054-0.102-0.13-0.148-0.047c-0.065-0.054-0.125,0.023-0.202,0
				c-0.054,0.079-0.083,0.25-0.202,0.1c-0.047,0.018-0.059-0.054-0.1-0.054c-0.083,0.195-0.398,0.013-0.368,0.304
				c-0.059,0.054-0.023,0.141-0.03,0.22c0.03,0.029,0.107,0.029,0.101,0.1c-0.064,0.054-0.113-0.038-0.172-0.038
				c0.005-0.07-0.059-0.123-0.13-0.1c-0.071,0.013-0.124,0.077-0.201,0.1c0.005,0.091-0.071,0.084-0.12,0.038
				c0.006-0.061-0.094-0.064-0.135-0.038c-0.03,0.013-0.054,0.043-0.084,0.066c0.065,0.1-0.113,0.136-0.064,0.238
				c-0.178,0.059-0.381,0.07-0.533,0.182c-0.106-0.088-0.119,0.077-0.184,0.102c-0.013,0.102,0.125,0.048,0.113,0.148
				c-0.076,0.064-0.094,0.123-0.195,0.166c-0.113-0.03-0.184-0.018-0.273,0.052c0.013,0.095-0.035,0.136,0.036,0.232
				c-0.148,0.077,0.088,0.23-0.083,0.272c-0.005,0.071-0.046,0.172-0.137,0.114c-0.064-0.013-0.135,0.004-0.13,0.1
				c-0.089,0.146,0.088,0.23,0.029,0.384c0.054,0.096,0.231,0.079,0.255,0.154c0.018,0.1,0.136,0.054,0.184,0.132
				c-0.054,0.034-0.125,0.07-0.184,0.034c-0.124-0.059-0.237-0.189-0.367-0.066c-0.077,0.107-0.183,0.161-0.183,0.298
				c0.082,0.018,0.13,0.093,0.165,0.172c-0.024,0.018-0.036,0.041-0.071,0.029c-0.006-0.046-0.042-0.12-0.095-0.064
				c0.023,0.082-0.071,0.064-0.089,0.136c0.071,0.105,0.059,0.243,0.172,0.332c-0.046,0.064-0.124,0.136-0.071,0.218
				c0.041,0.077,0.053,0.179,0.118,0.232c-0.017,0.093,0.012,0.195,0.137,0.2c0.189,0.095,0.385,0.013,0.568,0.136
				c0.13,0.061,0.183-0.159,0.302-0.034c0.119-0.089,0.196,0.077,0.249-0.12c0.083,0.054,0.184,0.125,0.302,0.12
				c0.042-0.054,0.036-0.161,0.13-0.166c0.006,0.046,0.047,0.082,0.101,0.064c0.035-0.036,0.041-0.1,0.101-0.12
				c0.012,0.037-0.024,0.204,0.082,0.12c0.042-0.231,0.362,0.189,0.219-0.164c-0.018-0.018-0.04-0.036-0.035-0.066
				c0.013-0.036,0.047-0.012,0.071-0.018c0.046,0.279,0.385,0.084,0.385,0.384c0.16,0.025,0.178,0.197,0.283,0.284
				c-0.005,0.107-0.137,0.186-0.088,0.315c-0.289,0.138-0.421,0.404-0.498,0.706c-0.196,0.148-0.486,0.22-0.468,0.504
				c0,0.136-0.124,0.261-0.218,0.331c-0.059,0.096-0.19,0.186-0.238,0.268c0.059,0.046-0.03,0.071-0.012,0.118
				c0.012,0.105-0.004,0.261-0.154,0.266c-0.124,0.007-0.012,0.232-0.183,0.238c-0.065,0.034-0.106,0.118-0.065,0.2
				c0.059,0.023,0.024,0.096,0.018,0.132c-0.059,0.034-0.179-0.007-0.184,0.082c0.023,0.129,0.029,0.231-0.054,0.336
				c-0.053,0.013-0.141-0.034-0.147,0.048c-0.107,0.143,0.29,0.327-0.054,0.286c-0.024,0.052-0.088,0.029-0.101,0.082
				c-0.13,0.184,0.183,0.231,0.054,0.373c-0.071-0.025-0.147-0.118-0.219-0.036c-0.06,0.064-0.024,0.213-0.065,0.284
				c0.207,0.023,0.105,0.261,0.314,0.284c0.023,0.03,0.065,0.048,0.071,0.084c-0.207,0.093-0.214-0.238-0.385-0.238
				c-0.024-0.03-0.065-0.005-0.101-0.013c-0.065,0.054-0.083,0.154-0.054,0.232c0.119,0.018,0.184,0.166,0.284,0.22
				c0.113,0.052,0.178,0.136,0.202,0.247c-0.148,0.154-0.26-0.159-0.432-0.147c-0.048-0.048-0.113-0.061-0.166-0.084
				c-0.082,0.071,0.006,0.148,0.03,0.213c0.088-0.036,0.053,0.071,0.082,0.102c0.101,0.182,0.474,0.095,0.403,0.404
				c-0.059,0.034-0.148,0.088-0.202,0c-0.1-0.12-0.237-0.227-0.396-0.232c-0.042,0.041-0.119,0.029-0.137,0.082
				c-0.024,0.114,0.113,0.132,0.166,0.202c0.16,0.018,0.272,0.225,0.449,0.232c0.029,0.075-0.035,0.129-0.1,0.082
				c-0.142-0.13-0.367-0.064-0.516-0.184c-0.064-0.005-0.106,0.046-0.165,0.054c-0.03,0.07-0.03,0.202,0.064,0.213
				c0.065-0.005,0.124,0.013,0.166,0.054c0.018,0.046-0.077,0.213,0.053,0.148c0-0.036,0.042-0.054,0.065-0.084
				c0.113-0.039,0.148,0.096,0.202,0.154c-0.005,0.036,0.047,0.091-0.018,0.113c-0.19-0.021-0.338-0.147-0.532-0.147
				c-0.077,0.046,0,0.125,0,0.182c0.112,0.043,0.206,0.066,0.283,0.15c0.055,0.018,0.113-0.054,0.148,0.018
				c-0.006,0.039,0,0.093,0.054,0.1c0.06-0.007,0.118-0.061,0.184-0.018c0.054,0.088-0.018,0.113-0.071,0.154
				c-0.019,0.018-0.042,0.041-0.065,0.066c-0.296,0-0.563-0.238-0.853-0.1c-0.041,0.1,0.071,0.064,0.1,0.118
				c0.091,0.082,0.262-0.073,0.332,0.1c0.119-0.071,0.184,0.147,0.272,0c0.101,0.011,0.148,0.041,0.249,0.046
				c0.1,0.114,0.219,0.184,0.248,0.356c-0.154,0.007-0.319,0.132-0.467,0.013c-0.119,0.041-0.172-0.07-0.285-0.048
				c-0.119-0.136-0.302-0.118-0.486-0.118c-0.023,0.03-0.077,0.064-0.029,0.1c0.123,0.102,0.331,0,0.432,0.168
				c0.107,0.146,0.504-0.132,0.403,0.2c-0.213,0.036-0.486,0.136-0.687,0c-0.119-0.007-0.272,0.064-0.367-0.029
				c-0.106,0.082-0.297-0.089-0.349,0.093c-0.065,0.155,0.101,0.155,0.165,0.22c0.142-0.082,0.261,0.013,0.404-0.018
				c0.029,0.025,0.035,0.054,0.029,0.082c-0.243,0.191-0.586,0.072-0.852,0.102c0.012,0.136-0.202,0.066-0.148,0.202
				c0.082,0.005,0.178,0.077,0.249,0c0.154,0.023,0.272-0.036,0.42-0.018c0.113-0.061,0.207-0.013,0.321-0.084
				c0.29,0.102-0.013-0.241,0.248-0.213c0.22,0.064,0.379-0.054,0.604-0.071c0.024,0.1,0.13,0.025,0.196,0.036
				c-0.047,0.064,0.107,0.254-0.029,0.22c-0.059-0.018-0.088-0.107-0.155-0.102c-0.029,0.043-0.005,0.107-0.065,0.13
				c-0.065,0.005-0.059-0.059-0.118-0.082c-0.065-0.005-0.107,0.048-0.166,0.054c-0.137,0.161,0.272,0.154,0.036,0.284
				c0,0.166-0.373-0.005-0.284,0.266c0.064,0.138,0.338-0.077,0.231,0.184c-0.137,0.189-0.344,0.054-0.533,0.118
				c-0.036,0.082-0.202,0.036-0.249,0.113c-0.059,0.107-0.137,0.005-0.201,0.089c-0.089-0.089-0.202,0.023-0.285,0
				c-0.124,0.161-0.403,0.018-0.539,0.182c-0.202,0.114-0.409,0.054-0.633,0.114c-0.024,0.064-0.119,0.1-0.084,0.182
				c0.065,0.048,0.178-0.005,0.267-0.011c0.154-0.047,0.332,0.036,0.45-0.136c0.243-0.043,0.509-0.03,0.723-0.15
				c0.206,0.179,0.355-0.195,0.598-0.136c0.089-0.059,0.214-0.023,0.32-0.034c0.029,0.029,0.013,0.082,0.019,0.118
				c-0.155,0.195-0.45,0.195-0.652,0.348c-0.155,0.018-0.302,0.03-0.421,0.118c-0.095,0.048-0.213,0.048-0.314,0.073
				c-0.083,0.1-0.243-0.073-0.273,0.082c-0.161-0.011-0.255,0.036-0.367,0.148c-0.119,0.023-0.219,0.084-0.35,0.084
				c-0.071-0.036-0.154-0.032-0.237-0.05c0,0.05-0.024,0.084-0.065,0.114c-0.26,0-0.165,0.295-0.301,0.42
				c0.046,0.107,0.094,0,0.154,0c0.071-0.095,0.242-0.011,0.314-0.136c0.071,0,0.106-0.095,0.172-0.113
				c0.141-0.071,0.319-0.071,0.449-0.184c0.184-0.041,0.356-0.095,0.504-0.22c0.088,0.125,0.189-0.023,0.297,0
				c0.189-0.107,0.426-0.118,0.586-0.248c0.088,0.041,0.314-0.095,0.301,0.046c-0.046,0.048-0.029,0.173-0.136,0.148
				c-0.119,0.202-0.402,0.079-0.48,0.304c-0.154-0.054-0.255,0.123-0.42,0.082c-0.047,0.071-0.142,0.011-0.201,0.054
				c-0.125,0.202-0.386,0.105-0.486,0.331c-0.196-0.054-0.267,0.245-0.451,0.073c-0.136,0.034-0.248,0.136-0.42,0.1
				c-0.065-0.048-0.065-0.166-0.166-0.155c-0.047,0.025-0.035,0.125-0.118,0.118c-0.018,0.191-0.207,0.273-0.298,0.422
				c0.019,0.036,0.06,0.018,0.084,0.048c0.147-0.036,0.432,0.082,0.515-0.1c0.142-0.043,0.231-0.161,0.386-0.12
				c0.095-0.066,0.23-0.071,0.319-0.113c0.131-0.107,0.267-0.064,0.404-0.172c0.046,0.018,0.113,0.059,0.165,0.018
				c0.066-0.102,0.184-0.072,0.248-0.166c0.137-0.059,0.291-0.071,0.405-0.182c0.118,0.029,0.164-0.114,0.283-0.138
				c0.13-0.007,0.225-0.136,0.366-0.066c-0.136,0.132-0.277,0.363-0.532,0.322c-0.083,0.018-0.041,0.154-0.154,0.129
				c-0.101,0.061-0.219,0.263-0.368,0.238c-0.337-0.12-0.42,0.415-0.769,0.266c-0.16,0.118-0.261,0.304-0.499,0.304
				c-0.13,0.241-0.468,0.039-0.556,0.302c-0.214-0.025-0.184,0.213-0.367,0.264c0.011,0.114-0.155,0.107-0.119,0.232
				c-0.042,0.023-0.029,0.066-0.029,0.1c0.04,0.02,0.065,0.041,0.118,0.02c0.06-0.072,0.244,0.118,0.249-0.066
				c0.082-0.025,0.177-0.079,0.201-0.172c0.125-0.025,0.226-0.161,0.349-0.132c0.071-0.021,0.166-0.021,0.238,0
				c-0.154,0.12-0.308,0.309-0.504,0.35c-0.053,0.029-0.154,0.077-0.147,0.12c-0.078,0.088-0.243,0.123-0.273,0.248
				c-0.165,0.143-0.243,0.368-0.432,0.504c0.035,0.088-0.149,0.213,0.035,0.238c0.077-0.014,0.124,0.011,0.183,0
				c-0.172,0.123-0.189,0.331-0.367,0.395c-0.095,0.043-0.029,0.197-0.118,0.238c0.006,0.048-0.029,0.184,0.082,0.184
				C398.345,640.968,398.523,641.015,398.565,640.879"/>
		</g>
		<g id="path70">
			<path inkscape:connector-curvature="0" fill="#1F4FA2" d="M400.957,635.447c0.006-0.036,0-0.066-0.035-0.084
				c-0.172-0.054-0.32,0.172-0.469,0c-0.07,0.005-0.13,0.041-0.182,0.095c-0.042,0.189,0.136,0.054,0.219,0.118
				c0.148,0.018,0.308,0.066,0.385-0.1C400.911,635.483,400.916,635.422,400.957,635.447"/>
		</g>
		<g id="path74">
			<path inkscape:connector-curvature="0" fill="#1F4FA2" d="M401.912,635.327c0.047-0.059-0.023-0.107-0.064-0.154
				c-0.09,0.046-0.249-0.089-0.303,0.054c-0.06-0.061-0.095,0.041-0.148,0.036c-0.088,0-0.183-0.013-0.255,0.029
				c-0.03,0.013-0.012,0.071-0.017,0.1c0.136,0.02,0.29-0.023,0.438-0.029c0.036,0.036,0.036,0.113,0.118,0.084
				C401.74,635.374,401.811,635.327,401.912,635.327"/>
		</g>
		<g id="path78">
			<path inkscape:connector-curvature="0" fill="#1F4FA2" d="M410.708,629.486c-0.077,0-0.119,0.071-0.148,0.118
				c0.042,0.143,0.054-0.064,0.13-0.029C410.684,629.539,410.763,629.522,410.708,629.486"/>
		</g>
		<g id="path82">
			<path inkscape:connector-curvature="0" fill="#1F4FA2" d="M407.781,627.981c-0.07,0.077-0.112-0.071-0.182,0
				c0.06,0.095,0.255,0.013,0.248,0.172C407.859,628.081,407.841,628.022,407.781,627.981"/>
		</g>
		<g id="path86">
			<path inkscape:connector-curvature="0" fill="#1F4FA2" d="M407.534,627.751c-0.047,0.005-0.047,0.089-0.071,0.129
				c0.036,0,0.065,0.007,0.088,0.036C407.546,627.858,407.629,627.786,407.534,627.751"/>
		</g>
		<g id="path90">
			<path inkscape:connector-curvature="0" fill="#1F4FA2" d="M406.332,602.643c-0.2,0-0.288-0.155-0.325-0.281l-0.572-1.815
				l0.133-0.047l0.93,1.576c0.052,0.096,0.113,0.193,0.113,0.313C406.612,602.57,406.452,602.643,406.332,602.643z M436.913,602.643
				c-0.209,0-0.381-0.172-0.381-0.381c0-0.207,0.172-0.379,0.381-0.379c0.208,0,0.379,0.172,0.379,0.379
				C437.292,602.472,437.121,602.643,436.913,602.643z M394.482,602.549c0.29-0.788,1.363-4.33,1.609-5.141
				c0.089,0.023,0.17,0.034,0.259,0.034s0.17-0.011,0.259-0.034c0.463,1.392,1.219,3.586,1.457,4.271h0.013
				c0.491-1.476,0.938-2.879,1.37-4.271c0.081,0.023,0.172,0.034,0.253,0.034c0.082,0,0.171-0.011,0.253-0.034
				c0.261,0.792,1.492,4.442,1.782,5.141c-0.089-0.023-0.17-0.039-0.259-0.039c-0.089,0-0.171,0.016-0.26,0.039
				c-0.142-0.647-1.113-3.745-1.337-4.408h-0.013c-0.261,0.776-1.2,3.604-1.423,4.408c-0.082-0.023-0.164-0.039-0.246-0.039
				c-0.082,0-0.164,0.016-0.247,0.039c-0.186-0.767-1.155-3.588-1.423-4.408h-0.013c-0.597,1.885-0.911,2.896-1.29,4.408
				c-0.127-0.023-0.246-0.039-0.373-0.039C394.727,602.509,394.609,602.526,394.482,602.549z M403.3,601.041
				c-1.094,0-1.702-0.75-1.702-1.957c0-0.99,0.736-1.748,1.808-1.748c0.462,0,0.945,0.213,1.244,0.45l0.046,0.366l-0.04,0.02
				c-0.26-0.297-0.722-0.524-1.118-0.524c-0.826,0-1.29,0.6-1.29,1.376c0,0.066,0.007,0.13,0.013,0.206
				c0.329,0.007,0.645,0.027,0.972,0.027c0.529,0,1.06-0.02,1.596-0.027c0.008,0.096,0.013,0.195,0.013,0.293
				C404.843,600.351,404.343,601.041,403.3,601.041L403.3,601.041z M408.195,601.041c-0.342,0-0.701-0.27-0.985-0.806l-0.013,0.014
				c0,0.186,0.002,0.359,0.039,0.718c-0.096-0.023-0.202-0.032-0.299-0.032c-0.104,0-0.201,0.009-0.313,0.032
				c0.029-0.642,0.027-1.156,0.027-1.544v-0.239c0-0.834,0.003-1.412-0.027-1.776c0.112,0.023,0.209,0.034,0.313,0.034
				c0.097,0,0.203-0.011,0.299-0.034c-0.029,0.343-0.033,0.738-0.033,2.035c0,0.583,0.281,1.031,0.758,1.031
				c0.149,0,0.314-0.059,0.365-0.12l0.055,0.041c0,0.2,0,0.484,0.053,0.604C408.337,601.037,408.284,601.041,408.195,601.041z
				 M410.503,601.041c-1.095,0-1.705-0.75-1.705-1.957c0-0.99,0.739-1.748,1.811-1.748c0.462,0,0.945,0.213,1.244,0.45l0.039,0.366
				l-0.033,0.02c-0.26-0.297-0.723-0.524-1.117-0.524c-0.827,0-1.29,0.6-1.29,1.376c0,0.066,0,0.13,0.006,0.206
				c0.328,0.007,0.65,0.027,0.979,0.027c0.529,0,1.059-0.02,1.595-0.027c0.009,0.096,0.013,0.195,0.013,0.293
				C412.046,600.351,411.545,601.041,410.503,601.041L410.503,601.041z M419.768,601.041c-0.865,0-1.81-0.5-1.81-1.857
				c0-1.356,0.945-1.848,1.81-1.848c0.864,0,1.809,0.491,1.809,1.848C421.577,600.54,420.632,601.041,419.768,601.041z
				 M427.82,601.041c-0.342,0-0.7-0.27-0.984-0.806l-0.013,0.014c0,0.186-0.004,0.359,0.034,0.718
				c-0.097-0.023-0.197-0.032-0.293-0.032c-0.105,0-0.207,0.009-0.319,0.032c0.029-0.642,0.033-1.156,0.033-1.544v-0.239
				c0-0.834-0.004-1.412-0.033-1.776c0.112,0.023,0.214,0.034,0.319,0.034c0.096,0,0.196-0.011,0.293-0.034
				c-0.029,0.343-0.027,0.738-0.027,2.035c0,0.583,0.281,1.031,0.758,1.031c0.15,0,0.314-0.059,0.365-0.12l0.054,0.041
				c0,0.2,0,0.484,0.054,0.604C427.962,601.037,427.909,601.041,427.82,601.041z M440.029,601.041c-0.533,0-0.912-0.241-1.187-0.667
				h-0.021c0,0.202,0.012,0.391,0.027,0.593c-0.113-0.023-0.224-0.032-0.298-0.032c-0.114,0-0.222,0.009-0.335,0.032
				c0.045-0.424,0.06-0.943,0.06-1.39v-0.779c0-0.447-0.015-0.965-0.06-1.39c0.113,0.023,0.221,0.034,0.335,0.034
				c0.11,0,0.218-0.011,0.331-0.034c-0.045,0.425-0.06,0.943-0.06,1.39v0.633c0,0.774,0.318,1.222,1.009,1.222
				c0.491,0,0.811-0.4,0.811-1.129v-0.452c0-0.574-0.038-1.119-0.053-1.664c0.105,0.023,0.203,0.034,0.307,0.034
				c0.104,0,0.2-0.011,0.311-0.034c-0.015,0.32-0.013,0.629-0.013,0.96c0,0.504,0.028,0.951,0.028,1.376
				C441.222,600.771,440.582,601.041,440.029,601.041L440.029,601.041z M443.508,601.041c-0.773,0-1.421-0.384-1.421-1.211
				c0-0.543,0.274-0.902,0.729-1.103v-0.014c-0.247-0.045-0.532-0.291-0.532-0.618c0-0.291,0.167-0.511,0.472-0.599v-0.014
				c-0.395-0.118-0.798-0.447-0.798-0.983c0-0.665,0.602-1.07,1.555-1.07c1.252,0,1.763,0.824,1.763,1.508
				c0,0.529-0.362,0.936-1.27,0.958c-0.274,0.007-0.543,0.013-0.819,0.02c-0.333,0.009-0.438,0.118-0.438,0.381
				c0,0.193,0.182,0.345,0.358,0.345c0.144,0,0.281-0.021,0.411-0.021c0.843,0,1.387,0.454,1.387,1.199
				c0,0.372-0.209,0.772-0.513,0.936l0.012,0.014c0.272-0.007,0.549-0.038,0.833-0.061c-0.005,0.054-0.021,0.1-0.021,0.155
				c0,0.05,0.015,0.105,0.021,0.157c-0.099-0.021-0.313-0.039-0.606-0.039c-0.105,0-0.296,0.018-0.516,0.034
				C443.846,601.026,443.694,601.041,443.508,601.041z M446.866,601.041c-0.699-0.055-1.096-0.516-1.096-1.124
				c0-1.26,1.763-0.713,1.763-1.635c0-0.441-0.353-0.674-0.726-0.674c-0.415,0-0.738,0.311-0.842,0.511h-0.087
				c0-0.147-0.08-0.411-0.141-0.538c0.21-0.118,0.506-0.245,0.959-0.245c0.825,0,1.345,0.609,1.345,1.176
				c0,1.26-1.757,0.661-1.757,1.63c0,0.44,0.341,0.625,0.631,0.625c0.334,0,0.576-0.227,0.65-0.466h0.095
				c0.015,0.113,0.096,0.391,0.18,0.534c-0.233,0.071-0.47,0.206-0.834,0.206C446.959,601.041,446.914,601.044,446.866,601.041z
				 M414.493,600.967c0.209-0.47,1.147-2.671,1.489-3.567c-0.275-0.647-0.602-1.306-0.996-1.955c0.08,0.023,0.169,0.041,0.251,0.041
				c0.083,0,0.172-0.018,0.253-0.041c0.314,1.015,2.133,4.976,2.402,5.521c-0.08-0.023-0.165-0.032-0.246-0.032
				c-0.082,0-0.164,0.009-0.247,0.032c-0.297-0.938-0.7-2.005-1.111-2.859c-0.409,0.99-0.806,1.921-1.111,2.859
				c-0.11-0.023-0.226-0.032-0.338-0.032C414.728,600.935,414.605,600.944,414.493,600.967z M422.261,600.967
				c0.007-0.418,0.021-0.833,0.021-1.185c0-0.366-0.027-0.709-0.027-1.229c0-0.776,0.469-1.217,1.243-1.217
				c0.47,0,0.91,0.248,1.164,0.709h0.013c0-0.209,0.002-0.422-0.013-0.638c0.096,0.023,0.196,0.034,0.293,0.034
				c0.095,0,0.188-0.011,0.285-0.034c-0.022,0.418-0.025,0.858-0.025,1.297c0,0.79,0.007,1.487,0.052,2.262
				c-0.097-0.023-0.194-0.032-0.306-0.032c-0.11,0-0.207,0.009-0.312,0.032c0.015-0.359,0.013-0.824,0.013-1.224
				c0-1.17-0.004-1.222-0.152-1.544c-0.13-0.268-0.416-0.479-0.834-0.479c-0.289,0-0.496,0.116-0.636,0.273
				c-0.129,0.141-0.235,0.391-0.235,0.904c0,0.729,0.029,1.488,0.074,2.069c-0.105-0.023-0.209-0.032-0.305-0.032
				C422.475,600.935,422.366,600.944,422.261,600.967L422.261,600.967z M430.36,600.967c0.493-1.187,1.073-2.777,1.305-3.559
				c0.064,0.016,0.145,0.034,0.212,0.034c0.067,0,0.14-0.018,0.206-0.034c0.273,0.901,0.739,2.164,0.985,2.761
				c0.394-0.968,0.697-1.86,0.95-2.761c0.054,0.016,0.125,0.034,0.194,0.034c0.065,0,0.14-0.018,0.2-0.034
				c0.423,1.185,0.917,2.368,1.474,3.559c-0.066-0.023-0.144-0.032-0.22-0.032c-0.08,0-0.155,0.009-0.239,0.032
				c-0.326-0.938-0.805-2.214-1.058-2.854c-0.356,0.99-0.699,1.916-0.943,2.854c-0.075-0.023-0.138-0.032-0.214-0.032
				c-0.073,0-0.145,0.009-0.221,0.032c-0.273-0.933-0.751-2.287-0.983-2.854c-0.387,0.99-0.698,1.921-0.952,2.854
				c-0.11-0.023-0.232-0.032-0.347-0.032C430.594,600.935,430.48,600.944,430.36,600.967z M436.572,600.967
				c0.045-0.424,0.06-0.943,0.06-1.39v-0.779c0-0.447-0.015-0.965-0.06-1.39c0.113,0.023,0.229,0.034,0.34,0.034
				c0.111,0,0.22-0.011,0.331-0.034c-0.044,0.425-0.06,0.943-0.06,1.39v0.779c0,0.447,0.016,0.967,0.06,1.39
				c-0.112-0.023-0.221-0.032-0.331-0.032C436.801,600.935,436.686,600.944,436.572,600.967z M443.514,600.826
				c0.484,0,0.813-0.354,0.813-0.965c0-0.55-0.254-1.049-0.819-1.049c-0.573,0-0.844,0.406-0.844,1.017
				C442.664,600.433,442.98,600.826,443.514,600.826z M403.32,600.807c0.775,0,0.912-0.761,0.912-1.29
				c-0.314-0.007-0.664-0.027-0.992-0.027c-0.313,0-0.658,0.02-0.965,0.027C402.313,600.052,402.59,600.807,403.32,600.807z
				 M410.515,600.807c0.776,0,0.918-0.761,0.918-1.29c-0.313-0.007-0.663-0.027-0.99-0.027c-0.314,0-0.667,0.02-0.971,0.027
				C409.508,600.052,409.786,600.807,410.515,600.807z M419.768,600.807c0.877,0,1.157-0.79,1.157-1.622
				c0-0.834-0.28-1.615-1.157-1.615c-0.88,0-1.152,0.781-1.152,1.615C418.616,600.017,418.888,600.807,419.768,600.807z
				 M449.07,598.208c-0.233,0-0.421-0.197-0.421-0.427c0-0.23,0.188-0.427,0.421-0.427c0.23,0,0.424,0.197,0.424,0.427
				C449.494,598.012,449.3,598.208,449.07,598.208z M443.602,597.442c0.788,0,1.132-0.243,1.132-0.824
				c0-0.672-0.601-0.979-1.205-0.979c-0.617,0-1.092,0.261-1.092,0.938C442.437,597.21,442.872,597.442,443.602,597.442z"/>
		</g>
	</g>
</g>
</svg>
