<?xml version="1.0" encoding="utf-8"?>
<!-- Generator: Adobe Illustrator 16.2.1, SVG Export Plug-In . SVG Version: 6.00 Build 0)  -->
<!DOCTYPE svg PUBLIC "-//W3C//DTD SVG 1.1//EN" "http://www.w3.org/Graphics/SVG/1.1/DTD/svg11.dtd">
<svg version="1.1" id="Layer_1" xmlns="http://www.w3.org/2000/svg" xmlns:xlink="http://www.w3.org/1999/xlink" x="0px" y="0px"
	 width="50px" height="50px" viewBox="134.479 50.579 50 50" enable-background="new 134.479 50.579 50 50" xml:space="preserve">
<g>
	<path fill="#F9D814" d="M169.95,83.742c0,0,0.127-0.451,0.136-0.492c0.393-1.769,0.667-3.547,0.575-5.369
		c-0.098-1.9-0.51-3.901-1.165-5.686c-1.798-4.895-5.934-8.854-10.814-10.615c-2.821-1.018-5.902-1.307-8.863-0.817
		c-3.05,0.505-5.886,1.719-8.342,3.622c-1.457,1.13-3.013,2.741-4.013,4.323c-0.086,0.135-0.199,0.293-0.228,0.343
		c-0.004,0.006,1.086,0.614,2.152,1.274c0.653,0.404,1.309,0.817,1.958,1.234c-0.037-0.048-0.431-0.565-0.576-0.779
		c-0.153-0.225-0.624-0.867-0.789-1.101c-0.167-0.234-0.706-1.039-0.803-1.231c-0.302-0.6,0.166-0.68,0.635-0.46
		c0.233,0.117,0.392,0.203,0.585,0.314c0.243,0.14,0.37,0.212,0.631,0.376c0,0,0.783,0.443,1.681,1.084
		c0.808,0.578,1.707,1.319,2.305,1.877c0.33,0.307,0.775,0.742,1.299,1.271c1.45,1.462,3.216,3.712,4.388,5.868
		c0.408,0.752,0.701,1.22,0.958,1.641c0.143,0.232,0.272,0.448,0.409,0.657c0.119,0.181,0.243,0.353,0.372,0.545
		c0.096,0.143,0.23,0.304,0.369,0.471c0.337,0.402,0.813,0.858,1.59,1.292c0.05,0.027,0.103,0.041,0.148,0.057
		c0.081,0.025,0.149,0.048,0.223,0.065c0.135,0.031,0.269,0.068,0.43,0.099c0.468,0.092,1.072,0.169,1.767,0.189
		c0.926,0.027,1.68,0.029,2.425,0.019c0.494-0.006,0.984-0.016,1.519-0.039c1.439-0.063,2.162-0.106,2.763-0.106
		c0.359,0,0.81-0.021,1.506-0.031c0.546-0.009,1.02-0.019,1.568-0.024c0.64-0.008,1.155,0.011,1.66,0.035
		c0.311,0.014,0.623,0.033,0.933,0.053C169.545,83.714,169.749,83.729,169.95,83.742L169.95,83.742z"/>
	<path fill="#F7F9DC" d="M142.955,68.039c0,0,0.589,0.183,1.371,0.658c1.593,0.972,3.148,2.075,4.547,3.364
		c0.587,0.542,1.911,1.856,2.431,2.457c0.52,0.601,1.73,2.099,2.341,3.104c0.61,1.004,0.896,1.47,1.229,2.027
		c0.332,0.556,0.896,1.389,1.184,1.767c0.287,0.376,0.886,1.012,1.423,1.333c0.196,0.118,0.081,0.075-0.114,0.042
		c-0.356-0.056-0.788-0.15-1.327-0.434c-0.493-0.26-1.023-0.664-1.48-1.211c-0.257-0.308-0.836-1.053-1.256-1.754
		c-0.782-1.312-1.561-2.651-2.457-3.888c-0.26-0.359-1.435-1.803-1.893-2.313s-1.812-1.901-2.673-2.637
		C145.419,69.818,144.056,68.742,142.955,68.039z"/>
	<path fill="#BA0F2B" d="M172.741,84.62c-0.051-0.043-0.452-0.354-1.169-0.604c-0.425-0.147-0.651-0.189-0.827-0.213
		c-0.174-0.024-0.297-0.034-0.535-0.046c-0.476-0.028-1.866-0.135-2.959-0.145c-1.095-0.009-5.283,0.09-5.992,0.145
		c-0.709,0.053-2.484,0.062-3.346,0.062c-0.858,0-2.369-0.037-3.484-0.418c-0.135-0.077-0.27-0.156-0.408-0.246
		c-1.381-0.917-1.919-1.956-3.695-5.023c-1.776-3.066-4.054-5.363-5.758-6.889c-1.593-1.425-3.296-2.442-3.782-2.7
		c0.097,0.049,0.187,0.099,0.246,0.136c-0.101-0.069-0.869-0.521-1.194-0.68c-0.479-0.232-0.966-0.159-0.66,0.449
		c0.097,0.192,0.637,0.997,0.804,1.231c0.166,0.233,0.636,0.876,0.789,1.101c0.15,0.222,0.565,0.764,0.577,0.779
		c-0.001,0-0.001,0-0.001,0c-1.049-0.669-3.045-1.929-3.849-2.358c-0.113-0.062-0.185-0.107-0.221-0.127
		c-0.01-0.005-0.025-0.015-0.033-0.019c-0.002-0.002-0.004-0.004-0.005-0.005c0,0-0.001,0-0.001,0
		c-0.007,0.012-0.024,0.045-0.064,0.106c-0.291,0.451-0.702,1.258-1.024,1.973c-0.34,0.755-0.586,1.41-0.586,1.41
		c0.148,0.146,0.297,0.3,0.444,0.459c0.154,0.168,0.31,0.346,0.464,0.525c0.255,0.296,0.513,0.605,0.756,0.93
		c0.148,0.194,0.297,0.392,0.437,0.596c0.067,0.098,0.13,0.192,0.194,0.285c-0.003-0.002-0.002,0.001,0.004,0.016
		c0.096,0.193,0.537,0.952,0.904,1.732c0.368,0.78,0.485,1.642,0.547,2.287c0.063,0.646-0.134,1.256-0.287,1.713
		c-0.152,0.459-0.708,1.121-0.906,1.337c-0.198,0.215-0.888,0.743-1.319,0.986c-0.43,0.243-1.471,0.7-1.471,0.7
		c0.522,1.626,1.258,3.018,2.126,4.479c0.52,0.877,1.27,1.67,1.471,1.866c0.189,0.185,0.442,0.175,0.474,0.174l0,0
		c0.001,0.001,0.017,0.003,0.047,0.001c0.109-0.006,0.225-0.012,0.348-0.021c0.814-0.065,1.655-0.243,2.458-0.367
		c7.328-1.127,11.14-3.052,16.969-3.208c2.009-0.055,5.632,0.501,7.444,0.699c1.812,0.197,3.632,0.358,5.022,0.287
		c1.392-0.071,5.186-0.27,7.409-0.412c1.604-0.104,3.707-0.07,4.746-0.124c0.403-0.021,0.646-0.017,0.636-0.029
		c-0.215-0.312-0.542-0.505-0.905-0.632c0.021,0.006,0.035,0.011,0.035,0.011c-0.543-0.544-1.485-0.668-2.169-0.742
		c-2.216-0.243-4.445-0.226-6.656-0.521c-0.383-0.05-0.824-0.166-0.932-0.198c-0.021-0.006-0.05-0.016-0.054-0.013
		c-0.002-0.001-0.002-0.001-0.003-0.003c-0.32-0.232-0.548-0.466-0.937-0.651L172.741,84.62z"/>
	<path fill="#F9D814" d="M138.817,77.196c-0.122-0.277-0.269-0.556-0.315-0.647c-0.029-0.058-0.11-0.226-0.216-0.42
		c-0.172-0.312-0.384-0.695-0.438-0.797c-0.093-0.177-0.619-0.872-0.705-0.99c-0.085-0.116-0.799-0.966-0.935-1.122
		c-0.138-0.158-0.577-0.616-0.647-0.679c0,0-0.223,0.426-0.626,2.167c-0.657,2.829-0.614,5.872,0.189,8.681
		c0.232,0.816,0.205,0.713,0.205,0.713s0.439-0.193,0.51-0.227c0.071-0.032,0.509-0.236,0.585-0.273
		c0.475-0.228,1.001-0.56,1.438-0.945c0.249-0.22,0.453-0.468,0.641-0.698c0.34-0.42,0.547-0.926,0.603-1.119
		c0.028-0.097,0.1-0.349,0.152-0.589c0.051-0.241,0.061-0.476,0.065-0.55c0.012-0.209-0.053-0.711-0.082-0.933L138.817,77.196z"/>
</g>
</svg>
