<?xml version="1.0" encoding="utf-8"?>
<!-- Generator: Adobe Illustrator 16.2.1, SVG Export Plug-In . SVG Version: 6.00 Build 0)  -->
<!DOCTYPE svg PUBLIC "-//W3C//DTD SVG 1.1//EN" "http://www.w3.org/Graphics/SVG/1.1/DTD/svg11.dtd">
<svg version="1.1" id="svg2367" xmlns:svg="http://www.w3.org/2000/svg"
	 xmlns="http://www.w3.org/2000/svg" xmlns:xlink="http://www.w3.org/1999/xlink" x="0px" y="0px" width="50px" height="50px"
	 viewBox="393.414 106.031 50 50" enable-background="new 393.414 106.031 50 50" xml:space="preserve">
<path fill="#004595" d="M399.949,132.259c0,0-6.087,8.439-6.535,9.036c0.934-0.149,3.547-0.709,5.639-3.398l4.108-5.229
	c0.074-0.073,1.232-1.529,2.987-1.828l17.812-3.287c4.295-0.821,8.851-2.613,13.555-5.414c2.875-1.718,4.968-3.323,5.9-4.107
	c-1.605,0.41-35.138,8.627-35.138,8.627C402.6,128.039,399.986,132.221,399.949,132.259L399.949,132.259z"/>
<path fill="#E53138" d="M397.111,141.108c1.531-0.036,5.489-0.186,5.489-0.186c4.593-0.149,8.178-2.987,9.261-3.958
	c-1.232,0.112-9.186,0.821-9.186,0.821s-1.867,0.148-1.979,0.186C399.165,139.839,397.932,140.698,397.111,141.108L397.111,141.108z
	"/>
<path fill="#FFED00" d="M404.206,133.603c0,0-1.792,2.204-2.203,2.726c0.747-0.074,9.484-1.008,9.484-1.008
	c2.951-0.337,6.012-1.419,9.149-3.286c1.829-1.083,3.137-2.129,3.771-2.65c-2.054,0.336-17.737,2.912-17.737,2.912
	C405.102,132.557,404.243,133.566,404.206,133.603L404.206,133.603z"/>
</svg>
