<?xml version="1.0" encoding="utf-8"?>
<!-- Generator: Adobe Illustrator 16.2.1, SVG Export Plug-In . SVG Version: 6.00 Build 0)  -->
<!DOCTYPE svg PUBLIC "-//W3C//DTD SVG 1.1//EN" "http://www.w3.org/Graphics/SVG/1.1/DTD/svg11.dtd">
<svg version="1.1" id="svg2367" xmlns:svg="http://www.w3.org/2000/svg"
	 xmlns="http://www.w3.org/2000/svg" xmlns:xlink="http://www.w3.org/1999/xlink" x="0px" y="0px" width="50px" height="50px"
	 viewBox="393.414 106.031 50 50" enable-background="new 393.414 106.031 50 50" xml:space="preserve">
<path fill="#0A2663" d="M405.639,140.204c-0.054-0.012-0.119-0.045-0.143-0.075c-0.055-0.065-0.324-1.375-0.479-2.329
	c-0.145-0.897-0.248-1.825-0.249-2.248v-0.333l0.642,0.032c0.354,0.02,0.845,0.059,1.093,0.087l0.451,0.052l0.036,0.36
	c0.112,1.126,0.378,2.636,0.668,3.801c0.104,0.421,0.126,0.569,0.087,0.608C407.693,140.211,405.86,140.249,405.639,140.204
	L405.639,140.204z"/>
<path fill="#0A2663" d="M434.362,140.134c-0.01-0.032,0.01-0.147,0.043-0.26c0.119-0.389,0.422-1.81,0.552-2.583
	c0.19-1.133,0.241-1.756,0.205-2.496l-0.031-0.64l0.15-0.023c1.03-0.159,1.896-0.305,1.946-0.323
	c0.095-0.036,0.116,0.105,0.146,1.019c0.032,0.948-0.029,1.683-0.256,3.063c-0.162,0.984-0.389,2.101-0.451,2.217
	c-0.041,0.075-0.128,0.081-1.166,0.081c-0.852,0-1.125-0.013-1.139-0.057V140.134z"/>
<path fill="#0A2663" d="M412.784,137.863c0.59-0.609,0.74-1.005,0.483-1.273c-0.171-0.179-1.289-0.668-2.275-0.997
	c-1.409-0.467-2.945-0.794-4.602-0.978c-0.586-0.063-1.092-0.081-2.388-0.078c-2.483,0.003-3.901,0.154-6.939,0.746
	c-2.299,0.447-3.031,0.544-3.439,0.449c-0.407-0.094-0.279-0.162,0.903-0.473c3.142-0.829,6.292-1.698,7.786-2.15
	c1.768-0.535,2.226-0.604,4.01-0.599c1.338,0.003,2.039,0.054,3.379,0.247c1.908,0.274,4.143,0.773,6.517,1.455l0.973,0.281
	l0.664-0.15c0.611-0.139,0.727-0.182,1.481-0.56c2.516-1.26,6.153-2.899,7.443-3.358c0.778-0.277,1.439-0.257,3.346,0.099
	c3.447,0.646,4.216,0.769,5.216,0.834c0.396,0.025,2.161,0.065,3.921,0.087c3.053,0.039,3.215,0.046,3.555,0.137
	c0.394,0.106,0.627,0.211,0.593,0.266c-0.013,0.021-0.17,0.05-0.35,0.065c-0.651,0.055-1.714,0.267-4.317,0.859
	c-3.456,0.787-5.414,0.975-7.819,0.75c-1.451-0.135-1.887-0.151-2.454-0.095c-1.03,0.102-1.421,0.226-3.786,1.199
	c-2.866,1.18-3.907,1.63-4.505,1.955c-1.564,0.85-2.981,1.235-5.228,1.426c-0.458,0.038-0.945,0.102-1.082,0.139
	c-0.136,0.038-0.523,0.079-0.861,0.093l-0.614,0.023L412.784,137.863z"/>
<path fill="#0A2663" d="M405.173,131.739c0-0.098,0.22-0.905,0.389-1.431c0.215-0.667,0.462-1.289,0.77-1.934l0.251-0.527
	l0.219-0.047c0.359-0.077,1.745-0.27,2.175-0.302l0.402-0.031l-0.138,0.201c-0.618,0.897-1.358,2.533-1.723,3.809l-0.092,0.321
	l-1.126-0.002C405.428,131.795,405.173,131.782,405.173,131.739L405.173,131.739z"/>
<path fill="#0A2663" d="M435.702,130.68c-0.768-0.037-1.248-0.084-1.321-0.13c-0.028-0.017-0.154-0.282-0.28-0.593
	c-0.421-1.025-1.009-2.07-1.652-2.935l-0.338-0.454l0.264,0.028c0.145,0.017,0.775,0.043,1.4,0.059l1.137,0.027l0.266,0.456
	c0.326,0.56,0.657,1.219,0.896,1.785c0.193,0.457,0.565,1.474,0.613,1.679c0.028,0.118,0.023,0.122-0.141,0.117
	C436.455,130.714,436.074,130.698,435.702,130.68z"/>
<path fill="#0A2663" d="M417.881,129.679c0-0.013,0.128-0.154,0.285-0.314c0.285-0.29,0.481-0.611,0.481-0.787
	c0-0.178-0.176-0.318-0.665-0.533c-2.217-0.979-4.907-1.444-7.627-1.321c-1.565,0.07-2.712,0.218-4.664,0.595
	c-1.738,0.338-2.176,0.401-2.519,0.374c-0.351-0.029-0.461-0.09-0.293-0.163c0.059-0.024,0.878-0.25,1.82-0.501
	c2.109-0.56,4.147-1.126,5.25-1.459c0.93-0.279,1.325-0.362,2.05-0.43c2.021-0.186,5.057,0.254,8.594,1.246l1.069,0.301l0.486-0.107
	c0.422-0.093,0.635-0.179,1.613-0.655c2.159-1.05,4.169-1.96,5.151-2.335c0.698-0.265,1.005-0.312,1.609-0.252
	c0.469,0.047,0.692,0.085,2.769,0.469c2.263,0.415,2.365,0.423,5.972,0.476c2.4,0.035,2.537,0.041,2.825,0.132
	c0.47,0.151,0.45,0.193-0.122,0.254c-0.332,0.034-1.36,0.24-2.411,0.479c-3.575,0.814-5.02,0.975-6.987,0.774
	c-0.408-0.041-1.065-0.076-1.461-0.077c-1.154,0-1.402,0.07-3.968,1.139c-2.015,0.838-2.705,1.143-3.31,1.462
	c-1.12,0.593-2.215,0.88-3.987,1.042c-0.396,0.037-0.792,0.089-0.879,0.114C418.79,129.651,417.881,129.718,417.881,129.679
	L417.881,129.679z"/>
<path fill="#0A2663" d="M408.2,125.323c0.043-0.123,0.938-1.114,1.516-1.679c2.57-2.515,5.736-4.039,9.403-4.529
	c0.839-0.111,3.097-0.11,3.92,0.001c2.969,0.405,5.5,1.431,7.827,3.172c0.317,0.237,0.577,0.445,0.577,0.463s-0.089,0.017-0.2-0.004
	c-0.109-0.021-0.423-0.057-0.697-0.08c-0.694-0.061-1.069-0.004-1.78,0.262l-0.582,0.22l-0.544-0.287
	c-3.832-2.013-8.332-2.168-12.268-0.425c-1.006,0.445-1.862,0.95-2.787,1.644c-0.493,0.368-0.498,0.37-0.833,0.402
	c-0.511,0.05-1.16,0.184-1.724,0.358c-0.592,0.183-1.771,0.523-1.814,0.523c-0.016,0-0.022-0.02-0.014-0.043V125.323z"/>
</svg>
