<?xml version="1.0" encoding="utf-8"?>
<!-- Generator: Adobe Illustrator 16.2.1, SVG Export Plug-In . SVG Version: 6.00 Build 0)  -->
<!DOCTYPE svg PUBLIC "-//W3C//DTD SVG 1.1//EN" "http://www.w3.org/Graphics/SVG/1.1/DTD/svg11.dtd">
<svg version="1.1" id="Layer_1" xmlns="http://www.w3.org/2000/svg" xmlns:xlink="http://www.w3.org/1999/xlink" x="0px" y="0px"
	 width="50px" height="50px" viewBox="464.22 117.452 50 50" enable-background="new 464.22 117.452 50 50" xml:space="preserve">
<polygon fill="#E2001A" points="464.22,119.665 500.896,119.665 514.22,165.239 477.143,165.239 "/>
<path fill="#FFFFFF" d="M477.721,134.517c5.746-1.253,9.108,1.402,10.348,5.037c-6.421-5.921-15.255-0.159-12.327,6.131
	c2.172-3.635,6.147-5.519,10.75-4.586c-10.074,2.416-9.108,11.927-3.139,13.276c-1.738-3.539-0.917-7.643,3.541-10.813
	c-4.603,7.098,2.655,14.563,9.35,10.282c-5.407-1.27-8.53-6.483-7.258-9.123c2.736,8.255,14.129,6.566,13.904-0.967
	c-2.414,2.415-8.191,3.38-11.764,0.289c8.979,2.319,14.097-6.629,7.854-11.392c-0.017,4.586-2.751,8.577-7.049,8.914
	c7.725-4.907,3.267-14.032-3.766-12.825c3.251,2.527,4.377,8.046,2.527,10.879C490.949,131.429,481.503,127.759,477.721,134.517z"/>
</svg>
