<?xml version="1.0" encoding="utf-8"?>
<!-- Generator: Adobe Illustrator 16.2.1, SVG Export Plug-In . SVG Version: 6.00 Build 0)  -->
<!DOCTYPE svg PUBLIC "-//W3C//DTD SVG 1.1//EN" "http://www.w3.org/Graphics/SVG/1.1/DTD/svg11.dtd">
<svg version="1.1" id="svg2367" xmlns:svg="http://www.w3.org/2000/svg"
	 xmlns="http://www.w3.org/2000/svg" xmlns:xlink="http://www.w3.org/1999/xlink" x="0px" y="0px" width="50px" height="50px"
	 viewBox="393.414 106.031 50 50" enable-background="new 393.414 106.031 50 50" xml:space="preserve">
<g id="_x23_cc2234ff">
	<path id="path6" fill="#CC2234" d="M409.229,112.767c5.863-6.02,15.559-8.705,23.388-5.126c2.798,1.421,5.293,3.955,5.824,7.15
		c0.531,2.322-0.327,4.629-0.833,6.872c-1.634,6.456-3.196,12.931-4.847,19.38c-0.059,0.003-0.169,0.011-0.225,0.013
		c-1.527-3.787-2.875-7.666-4.782-11.287c-1.39-2.523-3.747-4.883-6.777-5.049c-2.116-0.021-4.237-0.102-6.35,0.079
		c2.716,0.107,4.676,2.299,6.05,4.421c2.185,3.523,3.351,7.537,4.977,11.318c1.138,2.522,2.505,5.054,4.696,6.813
		c-0.316,0.406-0.642,0.812-0.965,1.214c-4.087-2.785-5.674-7.723-7.365-12.119c-1.422-3.327-2.54-6.973-5.18-9.572
		c-1.338-1.401-3.261-2.198-5.197-2.176c-1.925,0.012-3.855-0.081-5.777,0.096c0.98,0.134,1.975,0.344,2.785,0.944
		c2.699,1.789,4.203,4.793,5.411,7.698c1.516,3.435,2.502,7.116,4.511,10.319c1.09,1.729,2.439,3.406,4.297,4.348
		c1.863,1.004,4.054,0.61,6.056,1.096c-3.979,4.088-9.546,6.531-15.229,6.821c-3.544,0.11-7.267-0.598-10.153-2.768
		c-1.947-1.471-3.52-3.555-3.951-6.001c-0.519-2.078,0.224-4.148,0.669-6.16c1.836-7.362,3.648-14.729,5.498-22.087
		C406.306,116.652,407.566,114.508,409.229,112.767 M403.232,141.368c-0.556,3.688,2.273,7.443,5.945,7.988
		c3.334,0.678,6.792-1.466,7.989-4.587c-1.722-2.91-2.819-6.121-4.114-9.231C408.877,133.754,403.659,136.865,403.232,141.368z"/>
</g>
</svg>
