<?xml version="1.0" encoding="utf-8"?>
<!-- Generator: Adobe Illustrator 16.2.1, SVG Export Plug-In . SVG Version: 6.00 Build 0)  -->
<!DOCTYPE svg PUBLIC "-//W3C//DTD SVG 1.1//EN" "http://www.w3.org/Graphics/SVG/1.1/DTD/svg11.dtd">
<svg version="1.1" id="svg2367" xmlns:svg="http://www.w3.org/2000/svg"
	 xmlns="http://www.w3.org/2000/svg" xmlns:xlink="http://www.w3.org/1999/xlink" x="0px" y="0px" width="50px" height="50px"
	 viewBox="393.414 106.031 50 50" enable-background="new 393.414 106.031 50 50" xml:space="preserve">
<path id="path5" fill="#E3242B" d="M419.261,141.61c0-1.726,0.92-1.879,2.457-1.098c2.772,1.565,5.542,3.292,5.542,3.292
	c0.154-0.942,0.92-1.727,2.615-1.413c1.536,0.471,3.227,0.784,3.227,0.784s-0.92-2.04-1.229-2.977
	c-0.766-1.884-0.15-2.661,0.616-2.82c0,0-1.079-0.786-1.691-1.256c-1.54-1.095-1.232-2.193,0.309-2.821
	c1.995-0.78,4.459-1.88,4.459-1.88c-0.771-0.471-1.694-1.882-0.771-3.448c1.078-1.411,2.619-3.605,2.619-3.605s-2.773,0-4.459,0
	c-1.695,0-2.157-1.254-2.002-2.192c0,0-2.772,1.88-4.617,3.135c-1.537,1.095-3.077,0-2.769-1.883
	c0.308-2.82,0.616-6.111,0.616-6.111c-0.924,0.626-2.611,0.626-3.385-0.942c-1.074-2.507-2.307-5.328-2.307-5.328
	s-1.387,2.821-2.464,5.328c-0.771,1.568-2.457,1.568-3.381,0.942c0,0,0.308,3.291,0.77,6.111c0.154,1.883-1.232,2.978-2.772,1.883
	c-1.999-1.255-4.613-3.135-4.613-3.135c0,0.938-0.462,2.192-2.002,2.192c-1.841,0-4.459,0-4.459,0s1.541,2.194,2.464,3.605
	c1.071,1.566,0.154,2.978-0.62,3.448c0,0,2.461,1.1,4.463,1.88c1.386,0.628,1.845,1.727,0.308,2.821
	c-0.77,0.47-1.848,1.256-1.848,1.256c0.77,0.157,1.54,0.937,0.77,2.82c-0.458,0.937-1.383,2.977-1.383,2.977
	s1.691-0.313,3.385-0.784c1.537-0.313,2.303,0.471,2.46,1.413c0,0,2.923-1.727,5.688-3.292c1.541-0.781,2.311-0.628,2.311,1.098
	c0,1.252,0,3.919,0,3.919c0,2.35-0.308,4.701-1.232,6.109c-10.614-1.098-19.536-9.871-19.536-21.314
	c0-11.91,9.692-21.472,21.692-21.472c11.845,0,21.534,9.562,21.534,21.472c0,10.969-8.303,20.063-19.228,21.157
	c0,0.474,0,2.351,0,2.98c12.77-1.255,22.616-11.6,22.616-24.138c0-13.476-11.079-24.292-24.923-24.292
	c-13.848,0-25.077,10.816-25.077,24.292c0,11.754,8.772,21.631,20.156,23.826c1.995,0.312,3.227,0.622,4.305,1.882
	c1.232-2.354,1.386-7.054,1.386-9.878C419.261,146.154,419.261,142.862,419.261,141.61L419.261,141.61L419.261,141.61z"/>
</svg>
