<?xml version="1.0" encoding="utf-8"?>
<!-- Generator: Adobe Illustrator 16.2.1, SVG Export Plug-In . SVG Version: 6.00 Build 0)  -->
<!DOCTYPE svg PUBLIC "-//W3C//DTD SVG 1.1//EN" "http://www.w3.org/Graphics/SVG/1.1/DTD/svg11.dtd">
<svg version="1.1" id="Ebene_1" xmlns="http://www.w3.org/2000/svg" xmlns:xlink="http://www.w3.org/1999/xlink" x="0px" y="0px"
	 width="50px" height="50px" viewBox="250.503 239.86 50 50" enable-background="new 250.503 239.86 50 50" xml:space="preserve">
<path fill="#8A7A2A" d="M279.033,279.634c0.495,0.594,0.099,2.863-3.849,3.26c-3.947,0.393-8.091-1.088-14.309-4.838
	c-6.217-3.75-10.856-9.177-9.968-14.606c0.888-5.428,5.526-8.782,11.052-8.685c5.527,0.1,7.501,4.737,7.995,5.922
	c-1.086-3.454-3.454-5.426-6.513-6.119c0-0.789,1.578-0.986,2.269-0.887c1.086-1.187,2.765-2.072,8.39,2.367
	c0.493-5.625,5.427-9.375,9.967-9.277c4.54,0.1,8.883,2.633,9.968,6.613c1.337,4.907-0.889,8.685,2.17,13.42
	c3.062,4.738,3.947,5.726,3.947,5.726c-0.59,1.282-4.538,2.468-6.512,0.691c-1.973-1.777-5.823-5.43-7.796-10.066
	c-1.973-4.639-2.072-7.008-6.416-5.922c0,0-3.158,1.283-1.875,4.441c1.284,3.158,3.848,6.611,11.842,10.263
	c3.356,0.987,6.612,2.172,3.85,3.356c-2.764,1.185-9.178,4.341-10.263,4.638c-1.087,0.295-3.257-0.492-5.329-2.27
	c-2.073-1.776-5.33-4.343-6.416-7.896s-1.875-6.02-5.329-5.625c-3.455,0.395-3.455,3.946-1.876,6.217
	c1.579,2.271,4.836,6.019,10.855,8.093C278.343,279.339,279.033,279.634,279.033,279.634"/>
<path fill="#1A1D43" d="M289.479,271.653c-8.167-3.734-10.475-7.197-11.652-10.092c-0.2-0.491-0.282-0.932-0.282-1.324
	c0-1.886,1.897-2.69,1.995-2.729c3.402-0.85,3.944,0.523,5.25,3.838l0.781,1.923c1.828,4.296,5.26,7.758,7.097,9.466
	C291.889,272.407,290.843,272.054,289.479,271.653 M274.393,256.073c0.482-5.503,5.389-9.1,9.667-9.005
	c4.707,0.101,8.69,2.731,9.689,6.394c0.389,1.428,0.469,2.77,0.469,4.066c0,0.463-0.012,0.92-0.02,1.373
	c-0.011,0.463-0.023,0.923-0.023,1.378c0,2.163,0.233,4.29,1.78,6.686c2.413,3.736,3.468,5.131,3.821,5.573
	c-0.332,0.476-1.227,0.949-2.26,1.162c-1.479,0.305-2.854,0.042-3.679-0.701c-1.397-1.256-5.647-5.08-7.724-9.962l-0.773-1.909
	c-1.314-3.334-2.036-5.169-5.985-4.183c-0.102,0.038-1.563,0.646-2.16,2.059c-0.354,0.839-0.327,1.773,0.082,2.78
	c1.22,3.002,3.599,6.585,11.994,10.422c3.113,0.918,4.686,1.635,4.714,2.144c0.006,0.069-0.045,0.323-0.857,0.671l-4.738,2.175
	c-2.399,1.121-4.88,2.284-5.486,2.45c-0.913,0.248-2.996-0.44-5.059-2.209l-0.459-0.392c-2.061-1.75-4.882-4.149-5.866-7.364
	c-1.069-3.499-1.913-6.262-5.646-5.834c-1.739,0.199-2.503,1.126-2.838,1.869c-0.211,0.465-0.313,0.998-0.313,1.561
	c0,1.073,0.371,2.248,1.067,3.25c2.643,3.8,6.446,6.637,11.002,8.203c2.79,0.719,3.754,1.041,4.026,1.141
	c0.044,0.069,0.087,0.173,0.087,0.333c0,0.144-0.029,0.318-0.109,0.511c-0.193,0.475-0.938,1.611-3.642,1.884
	c-3.762,0.375-7.856-1.014-14.126-4.796c-6.936-4.184-10.61-9.53-9.828-14.305c0.84-5.146,5.163-8.536,10.754-8.437
	c2.453,0.045,5.784,1.075,7.726,5.74l0.556-0.203c-0.003-0.009-0.009-0.025-0.011-0.028c-1.031-3.248-3.242-5.377-6.397-6.197
	c0.015-0.015,0.018-0.027,0.036-0.044c0.37-0.321,1.315-0.425,1.804-0.355l0.154,0.021l0.106-0.115
	c1.005-1.096,2.534-1.903,7.987,2.402l0.429,0.339L274.393,256.073z M273.898,255.522c-4.852-3.741-6.873-3.605-8.297-2.146
	c-0.616-0.053-1.611,0.061-2.125,0.504c-0.217,0.189-0.333,0.427-0.333,0.687v0.003c-0.406-0.058-0.804-0.095-1.179-0.101
	c-5.898-0.106-10.459,3.484-11.35,8.933c-0.823,5.022,2.957,10.595,10.106,14.907c6.391,3.853,10.591,5.267,14.494,4.876
	c3.022-0.303,3.895-1.674,4.13-2.247c0.231-0.567,0.2-1.154-0.084-1.495l-0.045-0.054l-0.064-0.026
	c-0.029-0.013-0.751-0.317-4.189-1.2c-4.412-1.52-8.116-4.28-10.685-7.976c-0.949-1.361-1.23-3.061-0.703-4.228
	c0.391-0.865,1.211-1.394,2.368-1.525c3.099-0.355,3.851,1.613,5.012,5.419c1.035,3.382,3.933,5.845,6.049,7.645l0.457,0.389
	c2.011,1.722,4.313,2.68,5.6,2.329c0.656-0.179,3.049-1.299,5.582-2.485l4.721-2.166c0.304-0.131,1.218-0.521,1.218-1.205
	c0-0.015,0-0.03,0-0.046c-0.006-0.078-0.034-0.153-0.062-0.231c0.883,0.355,1.96,0.438,3.12,0.198
	c1.344-0.275,2.464-0.931,2.785-1.627l0.082-0.176l-0.13-0.146c-0.009-0.01-0.926-1.053-3.921-5.688
	c-1.775-2.751-1.72-5.168-1.662-7.729c0.039-1.764,0.081-3.588-0.471-5.609c-1.066-3.913-5.28-6.723-10.247-6.83
	C279.677,246.38,274.671,249.811,273.898,255.522"/>
</svg>
