<?xml version="1.0" encoding="utf-8"?>
<!-- Generator: Adobe Illustrator 16.2.1, SVG Export Plug-In . SVG Version: 6.00 Build 0)  -->
<!DOCTYPE svg PUBLIC "-//W3C//DTD SVG 1.1//EN" "http://www.w3.org/Graphics/SVG/1.1/DTD/svg11.dtd">
<svg version="1.1" id="Layer_1" xmlns="http://www.w3.org/2000/svg" xmlns:xlink="http://www.w3.org/1999/xlink" x="0px" y="0px"
	 width="50px" height="50px" viewBox="0 0 50 50" enable-background="new 0 0 50 50" xml:space="preserve">
<ellipse fill="#D71920" cx="25" cy="25" rx="25" ry="19.064"/>
<path fill="#FFFFFF" d="M13.183,9.959c0,0,4.435,2.055,7.633,5.657c0,0,6.477,6.92,7.717,7.552c0,0-2.598,1.819-13.475-8.502
	c0,0-6.674,5.34-6.995,9.769h40.619l0.04,1.385H7.986c0,0,0.318,3.876,6.515,9.652c0,0,9.075-7.992,14.073-8.744l0.279-0.037
	c0,0-3.317,2.809-5.519,5.301c0,0-6.155,6.408-10.632,7.949c0,0-16.514-7.042-9.677-21.399C3.025,18.541,5.406,13.537,13.183,9.959z
	"/>
<path fill="#FFFFFF" d="M20.52,7.456C45.819,4.9,48.649,23.829,48.649,23.829s-7.712,1.564-15.269-7.165
	c0,0-4.646-4.955-5.984-5.978c0,0-2.362-2.437-5.911-2.993L20.52,7.456z"/>
<path fill="#FFFFFF" d="M20.64,42.42c25.299,2.5,28.128-16.021,28.128-16.021s-7.71-1.53-15.266,7.008c0,0-4.649,4.85-5.986,5.852
	c0,0-2.361,2.386-5.91,2.93L20.64,42.42z"/>
</svg>
