<?xml version="1.0" encoding="utf-8"?>
<!-- Generator: Adobe Illustrator 16.2.1, SVG Export Plug-In . SVG Version: 6.00 Build 0)  -->
<!DOCTYPE svg PUBLIC "-//W3C//DTD SVG 1.1//EN" "http://www.w3.org/Graphics/SVG/1.1/DTD/svg11.dtd">
<svg version="1.1"
	 id="svg2" inkscape:output_extension="org.inkscape.output.svg.inkscape" sodipodi:version="0.32" xmlns:inkscape="http://www.inkscape.org/namespaces/inkscape" xmlns:dc="http://purl.org/dc/elements/1.1/" xmlns:cc="http://creativecommons.org/ns#" xmlns:sodipodi="http://sodipodi.sourceforge.net/DTD/sodipodi-0.dtd" xmlns:rdf="http://www.w3.org/1999/02/22-rdf-syntax-ns#" inkscape:version="0.48.1 " sodipodi:docname="AJAX.svg" xmlns:svg="http://www.w3.org/2000/svg"
	 xmlns="http://www.w3.org/2000/svg" xmlns:xlink="http://www.w3.org/1999/xlink" x="0px" y="0px" width="50px" height="50px"
	 viewBox="0.5 30.5 50 50" enable-background="new 0.5 30.5 50 50" xml:space="preserve">
<g id="_x23_c5012dff" transform="translate(-33.499338,-7.5184599)">
	<path id="path5" inkscape:connector-curvature="0" fill="#C5012D" d="M77.943,48.517c0.188-0.146,0.438-0.122,0.662-0.127
		c1.799,0.007,3.596-0.024,5.395,0c-0.13,0.281-0.301,0.536-0.47,0.793c-1.854,2.873-3.708,5.747-5.555,8.624
		c-0.091,0.01-0.18,0.021-0.269,0.029c-1.52,0.096-3.038,0.231-4.559,0.3c-0.513,0.025-1.024,0.073-1.539,0.089
		c-1.899,0.039-3.801,0.245-5.662,0.643c-0.472,0.105-0.955,0.188-1.407,0.37c-0.01,0.117-0.021,0.232-0.032,0.352
		c2.506,0.199,5.036-0.021,7.498-0.519c1.27-0.247,2.551-0.433,3.824-0.663c0.617-0.096,1.227-0.244,1.852-0.287
		c-0.004,0.036-0.011,0.11-0.016,0.148c-0.59,0.967-1.241,1.896-1.829,2.866l0.039,0.025c-0.125,0-0.252,0.004-0.376,0.002
		c-1.192-0.123-2.36-0.405-3.537-0.62c-2.432-0.548-4.935-0.736-7.422-0.691c-0.027,0.103-0.055,0.205-0.082,0.308
		c0.57,0.265,1.186,0.406,1.792,0.561c1.177,0.297,2.378,0.489,3.589,0.599c1.725,0.124,3.457,0.12,5.182,0.267
		c0.126,0.01,0.254,0.015,0.384,0.022c0.011,0.062,0.01,0.122-0.005,0.184c-0.451,0.734-0.944,1.446-1.39,2.186
		c-0.868-0.341-1.725-0.704-2.56-1.119c-0.755-0.36-1.507-0.731-2.299-1.008c-1.563-0.538-3.132-1.09-4.767-1.372
		c-0.029,0.115-0.057,0.228-0.085,0.341c1.669,1.023,3.448,1.875,5.322,2.451c0.76,0.22,1.533,0.397,2.291,0.615
		c0.56,0.163,1.137,0.282,1.684,0.486c0.03,0.014,0.091,0.039,0.122,0.052c-0.483,0.705-0.928,1.436-1.407,2.146
		c-0.809-0.547-1.559-1.172-2.309-1.794c-0.399-0.331-0.775-0.689-1.198-0.986c-1.49-1.058-3.064-2.009-4.735-2.756
		c-0.062,0.096-0.122,0.191-0.181,0.287c1.378,1.466,2.954,2.754,4.711,3.737c1.163,0.603,2.292,1.266,3.416,1.937
		c-0.316,0.513-0.628,1.074-0.608,1.695c0.027,0.579,0.438,1.062,0.91,1.356c0.475,0.329,1.024,0.519,1.551,0.749
		c-0.782-0.014-1.565-0.039-2.348-0.075c-0.612-0.784-1.27-1.53-1.864-2.328c-0.715-0.928-1.378-1.896-2.068-2.844
		c-0.657-0.879-1.406-1.68-2.186-2.449c-0.584-0.565-1.144-1.166-1.823-1.626c-0.064,0.094-0.131,0.186-0.183,0.285
		c0.075,0.309,0.294,0.552,0.443,0.823c1,1.685,2.218,3.25,3.684,4.558c0.803,0.675,1.503,1.46,2.252,2.192
		c0.44,0.463,0.936,0.874,1.32,1.387c-1.288-0.053-2.574,0.029-3.861,0.084c-0.045-0.101-0.091-0.199-0.136-0.299
		c-0.392-0.96-0.754-1.934-1.077-2.921c-0.405-1.164-0.897-2.3-1.483-3.382c-0.429-0.803-0.935-1.558-1.432-2.315
		c-0.125,0.026-0.251,0.054-0.377,0.078c0.054,0.494,0.189,0.972,0.319,1.448c0.404,1.436,0.952,2.837,1.691,4.137
		c0.373,0.646,0.847,1.232,1.17,1.908c0.212,0.449,0.522,0.852,0.67,1.332c0.212,0.057,0.436,0.035,0.653,0.055
		c-0.359,0.077-0.731-0.016-1.094,0.054c-0.725,0.047-1.443,0.158-2.166,0.224c-0.078,0.002-0.153,0.004-0.23,0.006
		c-0.189-1.38-0.088-2.774-0.254-4.155c-0.125-1.143-0.361-2.267-0.642-3.379c-0.13-0.493-0.278-0.979-0.395-1.475
		c-0.159-0.003-0.316-0.006-0.475-0.008c-0.093,1.874-0.131,3.783,0.312,5.622c0.148,0.655,0.416,1.275,0.558,1.932
		c0.098,0.455,0.237,0.904,0.283,1.369c0.002,0.058,0.007,0.173,0.009,0.232c-0.613,0.075-1.222,0.189-1.823,0.342
		c-0.389,0.096-0.768,0.229-1.16,0.304c0.244-1.305,0.554-2.598,0.908-3.874c0.269-0.91,0.388-1.854,0.489-2.794
		c0.107-1.044,0.151-2.093,0.147-3.14c-0.137,0.005-0.271,0.012-0.408,0.019c-0.463,1.146-0.835,2.335-1.077,3.549
		c-0.359,1.655-0.315,3.356-0.44,5.036c-0.039,0.424-0.034,0.854-0.113,1.277c-0.007,0.024-0.021,0.078-0.028,0.105
		c-0.883,0.284-1.778,0.624-2.493,1.235c-0.388,0.322-0.645,0.855-0.506,1.361c0.171,0.511,0.567,0.908,0.992,1.222
		c0.815,0.593,1.751,0.998,2.699,1.329c1.306,0.44,2.671,0.705,4.047,0.802c1.21,0.097,2.425,0.143,3.638,0.108
		c-1.509,0.325-3.05,0.516-4.592,0.58c-2.311,0.093-4.67-0.263-6.779-1.238c-1.133-0.565-2.205-1.244-3.238-1.977
		c-0.895-0.648-1.784-1.306-2.689-1.941c-1.022-0.649-2.099-1.211-3.193-1.727c-1.941-0.892-4-1.496-6.084-1.938
		c-2.457-0.513-4.953-0.811-7.436-1.17c0.22-0.042,0.446-0.055,0.67-0.046c4.59,0.071,9.201-0.272,13.693-1.251
		c0.346-0.08,0.707-0.116,1.034-0.264c0.658-0.305,1.31-0.622,1.95-0.961c0.24-0.135,0.476-0.279,0.738-0.365
		c-0.258,0.262-0.583,0.432-0.869,0.659c-0.353,0.278-0.706,0.557-1.069,0.818c-0.709,0.514-1.397,1.059-2.098,1.583
		c-0.335,0.258-0.688,0.495-0.995,0.787c0.478-0.247,0.924-0.543,1.385-0.815c1.637-0.986,3.22-2.061,4.888-2.999
		c1.222-0.708,2.502-1.326,3.636-2.179c0.987-0.736,1.945-1.516,2.833-2.369c-0.063-0.084-0.125-0.169-0.187-0.253
		c1.403-0.922,2.794-1.865,4.19-2.797c0.169,0.053,0.356,0.142,0.529,0.05c1.713-0.749,3.344-1.694,4.841-2.818
		c1.834-1.407,3.646-2.849,5.517-4.21c0.676-0.534,1.397-1.007,2.058-1.558c-0.683,0.342-1.321,0.769-1.968,1.174
		c-0.146,0.087-0.312,0.13-0.476,0.174c0.131-0.123,0.275-0.235,0.423-0.338C75.797,50.015,76.871,49.267,77.943,48.517
		 M77.659,53.927c-1.178,0.39-2.354,0.789-3.538,1.158c-1.146,0.36-2.292,0.728-3.459,1.013c-2.223,0.544-4.352,1.435-6.36,2.526
		c0.024,0.118,0.048,0.235,0.074,0.353c0.783-0.076,1.551-0.271,2.315-0.452c1.986-0.498,3.913-1.234,5.723-2.188
		c0.904-0.409,1.825-0.779,2.74-1.161c1.148-0.466,2.285-0.968,3.433-1.436c0.199-0.088,0.438-0.132,0.576-0.317
		C78.667,53.601,78.166,53.771,77.659,53.927 M59.915,61.62c-1.079,0.871-2.163,1.749-3.068,2.803
		c-0.669,0.707-1.22,1.514-1.799,2.294c-0.696,0.996-1.47,1.933-2.19,2.908c-0.746,0.989-1.535,1.944-2.262,2.945
		c0.441-0.347,0.752-0.819,1.142-1.218c0.864-0.913,1.765-1.792,2.626-2.71c0.861-0.799,1.679-1.641,2.525-2.455
		c0.401-0.354,0.739-0.769,1.09-1.172c0.61-0.723,1.183-1.478,1.704-2.266c0.216-0.334,0.464-0.648,0.645-1.003
		C60.221,61.647,60.061,61.489,59.915,61.62 M60.644,61.864c-0.372,0.395-0.654,0.862-0.967,1.302
		c-0.658,1.021-1.295,2.069-1.712,3.216c-0.652,1.689-1.3,3.383-1.972,5.064c-0.436,1.131-0.917,2.243-1.325,3.383
		c0.219-0.304,0.371-0.645,0.536-0.978c0.401-0.776,0.825-1.539,1.239-2.31c0.636-1.156,1.255-2.322,1.933-3.457
		c1.151-1.908,2.098-3.962,2.625-6.137C60.881,61.921,60.763,61.892,60.644,61.864z"/>
</g>
<g id="_x23_f19817ff" transform="translate(-33.499338,-7.5184599)">
	<path id="path40" inkscape:connector-curvature="0" fill="#F19817" d="M74.771,50.921c0.648-0.405,1.286-0.832,1.969-1.174
		c-0.663,0.551-1.383,1.023-2.058,1.558c-1.872,1.361-3.682,2.803-5.518,4.21c-1.496,1.124-3.126,2.069-4.84,2.818
		c-0.175,0.092-0.359,0.003-0.529-0.05c0.856-0.691,1.825-1.226,2.706-1.883c0.283-0.219,0.598-0.39,0.892-0.59
		c1.138-0.755,2.226-1.585,3.386-2.304c0.565-0.355,1.043-0.832,1.619-1.171c0.408-0.259,0.78-0.568,1.195-0.812
		c0.237-0.139,0.436-0.35,0.705-0.429C74.459,51.051,74.625,51.008,74.771,50.921z"/>
	<path id="path42" inkscape:connector-curvature="0" fill="#F19817" d="M77.659,53.927c0.507-0.155,1.008-0.325,1.505-0.505
		c-0.139,0.186-0.375,0.229-0.576,0.317c-1.149,0.467-2.285,0.967-3.432,1.436c-0.916,0.382-1.836,0.752-2.741,1.161
		c-1.811,0.954-3.737,1.69-5.724,2.188c-0.764,0.182-1.531,0.373-2.314,0.452c-0.025-0.117-0.049-0.234-0.075-0.353
		c2.009-1.092,4.137-1.982,6.362-2.526c1.167-0.285,2.311-0.654,3.457-1.013C75.305,54.716,76.482,54.316,77.659,53.927z"/>
	<path id="path44" inkscape:connector-curvature="0" fill="#F19817" d="M73.145,58.136c1.521-0.068,3.04-0.204,4.559-0.3
		c0.065-0.003,0.196-0.013,0.264-0.015c-0.091,0.155-0.18,0.313-0.302,0.444c0.002-0.036,0.01-0.109,0.015-0.147
		c-0.625,0.045-1.233,0.191-1.849,0.287c-1.275,0.23-2.555,0.417-3.825,0.663c-2.461,0.5-4.992,0.719-7.499,0.52
		c0.012-0.118,0.023-0.234,0.032-0.351c0.454-0.183,0.935-0.267,1.409-0.371c1.861-0.397,3.76-0.603,5.662-0.643
		C72.12,58.209,72.632,58.159,73.145,58.136L73.145,58.136z"/>
	<path id="path46" inkscape:connector-curvature="0" fill="#F19817" d="M64.537,59.85c2.49-0.045,4.991,0.144,7.424,0.691
		c1.176,0.217,2.344,0.497,3.535,0.62c0.107,0.012,0.212,0.016,0.319,0.022c-0.099,0.16-0.198,0.319-0.307,0.475
		c-0.131-0.124-0.33-0.05-0.49-0.075c-1.725-0.145-3.458-0.142-5.183-0.267c-1.209-0.109-2.412-0.302-3.588-0.599
		c-0.607-0.155-1.222-0.297-1.792-0.561C64.483,60.056,64.511,59.953,64.537,59.85z"/>
	<path id="path48" inkscape:connector-curvature="0" fill="#F19817" d="M64.384,60.475c1.634,0.281,3.204,0.833,4.767,1.373
		c0.79,0.275,1.544,0.647,2.3,1.007c0.832,0.416,1.691,0.778,2.559,1.119c-0.083,0.154-0.173,0.301-0.278,0.44
		c-0.034-0.012-0.102-0.033-0.135-0.046c-0.549-0.204-1.124-0.322-1.684-0.486c-0.76-0.22-1.531-0.397-2.291-0.616
		c-1.872-0.574-3.653-1.428-5.322-2.45C64.327,60.701,64.355,60.59,64.384,60.475z"/>
	<path id="path50" inkscape:connector-curvature="0" fill="#F19817" d="M63.887,61.317c0.06-0.096,0.121-0.191,0.18-0.288
		c1.671,0.748,3.245,1.699,4.736,2.756c0.424,0.298,0.8,0.656,1.197,0.986c0.75,0.623,1.5,1.247,2.31,1.794
		c-0.077,0.156-0.173,0.302-0.296,0.425c-1.124-0.67-2.253-1.336-3.416-1.936C66.84,64.071,65.264,62.783,63.887,61.317z"/>
	<path id="path52" inkscape:connector-curvature="0" fill="#F19817" d="M58.346,61.89c0.422-0.267,0.823-0.563,1.258-0.808
		c0.062,0.083,0.124,0.168,0.186,0.251c-0.887,0.855-1.845,1.635-2.832,2.371c-1.133,0.853-2.413,1.469-3.636,2.178
		c-1.666,0.939-3.251,2.014-4.888,2.999c-0.46,0.273-0.907,0.57-1.385,0.814c0.308-0.29,0.66-0.529,0.994-0.787
		c0.701-0.522,1.389-1.067,2.099-1.581c0.364-0.264,0.718-0.541,1.069-0.819c0.284-0.227,0.611-0.398,0.869-0.657
		c0.171-0.184,0.392-0.306,0.612-0.418c0.669-0.341,1.292-0.757,1.928-1.151c0.479-0.262,0.919-0.587,1.378-0.879
		C56.797,62.918,57.563,62.389,58.346,61.89z"/>
	<path id="path54" inkscape:connector-curvature="0" fill="#F19817" d="M63.397,61.757c0.05-0.103,0.119-0.193,0.183-0.285
		c0.679,0.459,1.238,1.059,1.823,1.625c0.779,0.768,1.529,1.57,2.186,2.45c0.689,0.946,1.353,1.913,2.068,2.842
		c0.594,0.8,1.252,1.543,1.864,2.328c-0.141,0-0.282,0-0.423,0.002c-0.385-0.513-0.88-0.926-1.32-1.388
		c-0.75-0.731-1.449-1.518-2.253-2.192c-1.464-1.308-2.682-2.873-3.683-4.559C63.692,62.307,63.472,62.062,63.397,61.757z"/>
	<path id="path56" inkscape:connector-curvature="0" fill="#F19817" d="M59.915,61.62c0.146-0.131,0.306,0.026,0.413,0.127
		c-0.181,0.356-0.43,0.669-0.645,1.003c-0.521,0.789-1.094,1.543-1.704,2.266c-0.351,0.403-0.688,0.817-1.09,1.172
		c-0.846,0.813-1.665,1.656-2.525,2.455c-0.861,0.918-1.76,1.797-2.626,2.71c-0.39,0.398-0.701,0.871-1.142,1.218
		c0.727-1.001,1.515-1.956,2.262-2.945c0.721-0.976,1.495-1.913,2.191-2.908c0.578-0.78,1.129-1.586,1.798-2.294
		C57.752,63.369,58.836,62.491,59.915,61.62L59.915,61.62z"/>
	<path id="path58" inkscape:connector-curvature="0" fill="#F19817" d="M60.644,61.864c0.119,0.027,0.236,0.057,0.356,0.084
		c-0.525,2.175-1.473,4.229-2.625,6.137c-0.68,1.135-1.296,2.301-1.933,3.457c-0.414,0.771-0.838,1.533-1.239,2.31
		c-0.166,0.333-0.317,0.674-0.536,0.978c0.41-1.142,0.89-2.253,1.325-3.383c0.672-1.681,1.32-3.375,1.972-5.064
		c0.417-1.145,1.055-2.194,1.712-3.216C59.991,62.726,60.273,62.259,60.644,61.864L60.644,61.864z"/>
	<path id="path60" inkscape:connector-curvature="0" fill="#F19817" d="M62.731,61.962c0.125-0.024,0.25-0.052,0.377-0.078
		c0.497,0.758,1.002,1.514,1.431,2.315c0.588,1.083,1.079,2.218,1.484,3.382c0.324,0.987,0.685,1.961,1.078,2.921
		c0.045,0.114,0.091,0.225,0.133,0.339c-0.217-0.02-0.44,0.002-0.654-0.055c-0.146-0.479-0.458-0.883-0.668-1.333
		c-0.324-0.675-0.798-1.261-1.172-1.908c-0.737-1.3-1.286-2.699-1.69-4.137C62.92,62.933,62.786,62.456,62.731,61.962L62.731,61.962
		z"/>
	<path id="path62" inkscape:connector-curvature="0" fill="#F19817" d="M60.218,65.67c0.242-1.214,0.613-2.401,1.076-3.549
		c0.137-0.006,0.271-0.013,0.408-0.02c0.003,1.048-0.04,2.098-0.147,3.141c-0.103,0.938-0.22,1.883-0.489,2.793
		c-0.353,1.28-0.664,2.572-0.907,3.875c-0.167,0.079-0.34,0.145-0.518,0.202l0.024-0.13c0.079-0.421,0.074-0.851,0.113-1.277
		C59.902,69.026,59.86,67.325,60.218,65.67z"/>
	<path id="path64" inkscape:connector-curvature="0" fill="#F19817" d="M61.982,62.108c0.158,0.002,0.316,0.007,0.473,0.009
		c0.118,0.496,0.266,0.981,0.395,1.475c0.281,1.111,0.516,2.237,0.642,3.378c0.167,1.382,0.065,2.777,0.254,4.156
		c0.077-0.001,0.151-0.004,0.23-0.006c-0.26,0.108-0.542,0.128-0.818,0.148c-0.008-0.078-0.016-0.155-0.025-0.234
		c-0.045-0.464-0.182-0.913-0.283-1.369c-0.144-0.656-0.409-1.276-0.557-1.932C61.85,65.893,61.888,63.985,61.982,62.108z"/>
</g>
</svg>
