<?xml version="1.0" encoding="utf-8"?>
<!-- Generator: Adobe Illustrator 16.2.1, SVG Export Plug-In . SVG Version: 6.00 Build 0)  -->
<!DOCTYPE svg PUBLIC "-//W3C//DTD SVG 1.1//EN" "http://www.w3.org/Graphics/SVG/1.1/DTD/svg11.dtd">
<svg version="1.1" id="svg2367" xmlns:svg="http://www.w3.org/2000/svg"
	 xmlns="http://www.w3.org/2000/svg" xmlns:xlink="http://www.w3.org/1999/xlink" x="0px" y="0px" width="50px" height="50px"
	 viewBox="0 0 50 50" enable-background="new 0 0 50 50" xml:space="preserve">
<g>
	<g>
		<path fill-rule="evenodd" clip-rule="evenodd" fill="#F67017" d="M46.512,6.529c-0.198,0.585-0.371,1.058-0.519,1.539
			C45.906,8.35,45.7,8.345,45.472,8.345c-0.837-0.003-1.678,0.047-2.509-0.013c-1.18-0.086-1.826,0.502-2.271,1.514
			c-1.3,2.957-2.616,5.906-3.95,8.848c-1.251,2.761-2.601,5.476-3.896,8.216c-1.159,2.453-3.113,3.655-5.636,4.169
			c-0.993,0.205-1.998,0.302-3.015,0.3c-7.483-0.005-14.968-0.011-22.453,0.013c-0.618,0.002-0.779-0.173-0.752-0.768
			c0.047-1.077,0.045-2.158,0-3.234c-0.023-0.556,0.15-0.693,0.694-0.691c7.11,0.017,14.22,0.011,21.331,0.014
			c0.771,0,1.538-0.011,2.305-0.106c1.163-0.146,2.285-0.425,3.376-0.855c1.705-0.675,2.714-2.006,3.54-3.564
			c2.44-4.601,4.683-9.299,6.912-14.004c0.433-0.916,1.037-1.441,2.128-1.444C42.988,6.733,44.699,6.607,46.512,6.529z"/>
		<path fill-rule="evenodd" clip-rule="evenodd" fill="#F67017" d="M13.207,19.859c3.919,0,7.839,0.044,11.757-0.02
			c1.846-0.03,3.614-0.494,5.131-1.646c0.518-0.393,0.925-0.874,1.222-1.453c1.815-3.563,3.626-7.129,5.456-10.687
			c0.859-1.672,2.262-2.556,4.136-2.592c2.09-0.04,4.183,0,6.274-0.016c0.424-0.003,0.585,0.037,0.407,0.529
			c-0.443,1.229-0.42,1.22-1.75,1.242c-1.583,0.026-3.172-0.119-4.749,0.092c-1.395,0.186-2.361,0.948-2.983,2.215
			c-2.136,4.362-4.241,8.74-6.463,13.059c-1.202,2.333-3.299,3.534-5.869,3.89c-0.695,0.096-1.404,0.116-2.107,0.116
			c-7.421,0.009-14.841,0-22.262,0.017c-0.553,0.002-0.773-0.088-0.739-0.706c0.06-1.098,0.048-2.202,0.004-3.302
			c-0.023-0.563,0.105-0.739,0.71-0.734c3.941,0.031,7.883,0.016,11.825,0.016C13.207,19.874,13.207,19.866,13.207,19.859z"/>
		<path fill-rule="evenodd" clip-rule="evenodd" fill="#F67017" d="M13.324,13.441c3.611,0,7.221,0.006,10.833-0.002
			c1.417-0.004,2.809-0.159,4.107-0.799c0.77-0.381,1.367-0.925,1.803-1.679c1.301-2.245,2.663-4.456,3.938-6.716
			c1.38-2.446,3.53-3.673,6.216-4.065c2.145-0.313,4.311-0.08,6.464-0.137c0.44-0.012,0.882-0.019,1.322,0.003
			c0.406,0.02,1.106-0.159,1.161,0.083c0.113,0.503-0.245,1.038-0.444,1.544c-0.102,0.253-0.387,0.157-0.597,0.158
			c-2.245,0.018-4.495-0.051-6.735,0.061c-2.512,0.125-4.484,1.25-5.731,3.528c-1.584,2.891-3.272,5.729-4.785,8.656
			c-1.139,2.198-2.961,3.284-5.254,3.791c-0.753,0.166-1.521,0.222-2.294,0.222C16.016,18.083,8.705,18.078,1.393,18.1
			c-0.58,0.001-0.751-0.135-0.725-0.725c0.052-1.12,0.043-2.246,0.002-3.368c-0.019-0.51,0.146-0.615,0.629-0.613
			c4.008,0.02,8.016,0.012,12.023,0.012C13.324,13.417,13.324,13.43,13.324,13.441z"/>
		<path fill-rule="evenodd" clip-rule="evenodd" d="M30.94,36.5c0.206-0.292,0.301-0.432,0.399-0.568
			c1.195-1.646,2.886-2.042,4.698-1.122c0.319,0.161,0.401,0.328,0.273,0.664c-0.3,0.778-0.586,1.562-0.838,2.354
			c-0.104,0.327-0.179,0.408-0.526,0.238c-1.825-0.892-3.068-0.276-3.49,1.714c-0.204,0.971-0.247,1.962-0.25,2.951
			c-0.005,1.693-0.025,3.389,0.013,5.082c0.013,0.516-0.143,0.619-0.619,0.598c-0.878-0.039-1.76-0.026-2.642-0.004
			c-0.349,0.009-0.44-0.104-0.438-0.447c0.01-4.291,0.01-8.582-0.002-12.873c-0.001-0.358,0.116-0.444,0.451-0.437
			c0.857,0.021,1.717,0.021,2.573,0c0.32-0.008,0.425,0.086,0.402,0.404C30.921,35.469,30.94,35.886,30.94,36.5z"/>
		<path d="M42.752,34.35c-4.113,0.104-6.95,2.946-6.943,7.175c0.006,4.399,2.751,7.163,7.113,7.161
			c4.136-0.001,7.05-3.014,7.079-7.225C50.027,37.299,46.811,34.245,42.752,34.35z M46.001,43.21
			c-0.42,1.479-1.598,2.442-3.033,2.48c-1.482,0.038-2.707-0.859-3.179-2.372c-0.37-1.183-0.367-2.382-0.004-3.566
			c0.455-1.487,1.637-2.385,3.102-2.385c1.445,0.002,2.655,0.931,3.099,2.393c0.173,0.572,0.235,1.161,0.216,1.759
			C46.214,42.091,46.16,42.657,46.001,43.21z"/>
		<path fill-rule="evenodd" clip-rule="evenodd" d="M12.041,44.349c0.022-1.914,0.036-3.829-0.002-5.743
			c-0.046-2.328-1.046-3.58-3.196-4.035c-1.368-0.289-2.759-0.274-4.14-0.119c-2.13,0.239-3.554,1.379-4.229,3.436
			c-0.11,0.337-0.065,0.451,0.305,0.506c0.848,0.124,1.687,0.302,2.529,0.46c0.208,0.04,0.327,0.021,0.458-0.217
			c0.792-1.444,2.354-1.917,3.872-1.205c0.574,0.268,0.901,0.945,0.844,1.726c-0.045,0.618-0.62,0.426-0.944,0.608
			c-0.221,0.124-0.507,0.13-0.763,0.193c-1.426,0.356-2.903,0.504-4.281,1.048c-1.76,0.696-2.612,2.1-2.479,4.062
			c0.114,1.678,1.326,3.081,3.042,3.463c1.963,0.438,3.75,0.061,5.315-1.243c0.124-0.103,0.203-0.301,0.433-0.245
			c0.105,0.331,0.239,0.657,0.308,0.998c0.064,0.312,0.233,0.367,0.513,0.363c1.056-0.011,2.112-0.003,3.264-0.003
			C12.198,47.062,12.025,45.729,12.041,44.349z M8.438,43.648c-0.154,1.582-1.666,2.681-3.244,2.395
			c-0.821-0.149-1.43-0.792-1.515-1.601c-0.079-0.76,0.33-1.4,1.202-1.66c1.153-0.344,2.332-0.601,3.566-0.912
			C8.447,42.51,8.493,43.084,8.438,43.648z"/>
		<path fill-rule="evenodd" clip-rule="evenodd" d="M17.439,42.579c1.364,0.016,2.729,0.007,4.092,0.007
			c1.343,0,2.686-0.013,4.027,0.008c0.374,0.005,0.549-0.041,0.528-0.487c-0.043-0.967-0.096-1.931-0.314-2.878
			c-0.651-2.812-2.685-4.64-5.372-4.836c-3.149-0.229-5.507,1.104-6.542,3.798c-0.832,2.169-0.846,4.392-0.081,6.584
			c0.686,1.968,2.073,3.236,4.112,3.713c1.209,0.284,2.442,0.297,3.667,0.055c1.959-0.388,3.311-1.525,4.117-3.34
			c0.169-0.378,0.268-0.609-0.325-0.671c-0.871-0.09-1.734-0.275-2.594-0.457c-0.371-0.079-0.535,0.01-0.669,0.376
			c-0.288,0.792-0.827,1.327-1.707,1.459c-1.746,0.264-3.189-0.999-3.346-2.896C17.003,42.635,17.103,42.576,17.439,42.579z
			 M17.068,39.938c0.072-1.592,1.282-2.813,2.771-2.769c1.441,0.043,2.578,1.332,2.589,2.889c0.004,0.335-0.169,0.281-0.357,0.281
			c-0.77,0.001-1.539,0.001-2.31,0.001c-0.77,0-1.539-0.017-2.309,0.007C17.123,40.357,17.055,40.255,17.068,39.938z"/>
	</g>
</g>
</svg>
