<?xml version="1.0" encoding="utf-8"?>
<!-- Generator: Adobe Illustrator 16.2.1, SVG Export Plug-In . SVG Version: 6.00 Build 0)  -->
<!DOCTYPE svg PUBLIC "-//W3C//DTD SVG 1.1//EN" "http://www.w3.org/Graphics/SVG/1.1/DTD/svg11.dtd">
<svg version="1.1" id="Layer_1" xmlns="http://www.w3.org/2000/svg" xmlns:xlink="http://www.w3.org/1999/xlink" x="0px" y="0px"
	 width="50px" height="50px" viewBox="125.5 175.5 50 50" enable-background="new 125.5 175.5 50 50" xml:space="preserve">
<g id="AA">
	<g>
		<path fill="#E32526" d="M175.5,200.5c0,13.805-11.192,24.999-25.001,24.999c-13.805,0-25-11.194-25-24.999
			c0-13.808,11.194-25,25-25C164.308,175.5,175.5,186.692,175.5,200.5"/>
		<path fill="#FFFFFF" d="M143.461,195.5c0.566-0.103,0.986,0.24,0.944,0.763c-0.042,0.522-0.537,1.032-1.1,1.133
			c-0.563,0.102-0.986-0.242-0.941-0.767C142.407,196.106,142.898,195.603,143.461,195.5 M137.384,199.246
			c0.488-1.821,1.081-3.682,1.667-5.069c-1.182,1.548-2.446,3.517-3.587,5.483C136.127,199.505,136.774,199.367,137.384,199.246
			 M147.439,197.827c0.442-0.08,1.432,0.52,0.957,1.074c-0.492,0.571-1.047,0.457-1.917,0.82c-0.495,0.205-0.873,0.647-1.415,1.426
			c-0.688,1.009-1.004,1.999-1.06,2.741c-0.005,0.221-0.022,0.33-0.14,0.406c-1.151,0.752-1.504,0.188-1.477-0.504
			c0.008-0.163,0.065-0.42,0.168-0.739c-0.889,1.33-1.672,2.002-2.184,2.093c-0.688,0.126-1.078-0.352-1.003-1.235
			c0.033-0.401,0.155-0.874,0.381-1.47c0.234-0.604,0.605-1.429,0.951-2.107c0.088-0.176,0.172-0.345,0.244-0.496
			c-0.521,0.101-1.263,0.254-2.135,0.452c-0.01,0.029-0.02,0.044-0.033,0.046c-0.37,1.731-0.399,2.384-0.599,3.893
			c-0.084,0.659,0.042,1.369-0.742,1.478c-0.786,0.114-1.048-0.694-1.051-1.386c-0.01-0.703,0.121-1.55,0.617-3.596
			c-0.815,0.208-1.68,0.447-2.534,0.71c-0.013,0.02-0.02,0.029-0.02,0.029c-1.419,2.596-2.819,5.809-3.05,6.847
			c-0.186,0.833-0.562,1.089-1.117,0.847c-0.552-0.241-0.872-0.798-0.672-1.42c0.363-1.114,1.473-3.616,2.462-5.411
			c-0.008,0.003,0-0.021,0.022-0.066c-0.726,0.281-1.398,0.582-1.985,0.908c-0.389,0.208-0.875,0.016-0.97-0.419
			c-0.066-0.308-0.213-0.914,0.539-1.243c1.134-0.498,2.365-0.918,3.592-1.272c2.607-4.387,5.846-8.898,6.777-8.815
			c0.404,0.034,0.34,0.471,0.696,0.864c0.352,0.394,0.402,0.635-0.02,1.678c-0.859,2.141-0.791,1.641-1.618,4.979
			c1.515-0.251,2.835-0.396,2.959-0.415c0.418-0.059,1.139,0.226,0.758,1.043c0,0-0.4,0.703-0.557,1.003
			c-0.286,0.498-0.654,1.246-0.877,1.751c-0.142,0.298-0.207,0.527-0.217,0.693c-0.013,0.109,0.029,0.169,0.116,0.154
			c0.116-0.021,0.287-0.146,0.492-0.359c0.2-0.232,0.874-0.784,2.078-2.814l0.316-0.657c0.104-0.195,0.25-0.54,0.277-0.698
			c0.034-0.236,0.042-0.298,0.241-0.422c0.316-0.201,0.892-0.369,1.224-0.154c0.311,0.207,0.231,0.581-0.029,1.035
			C146.937,197.915,147.205,197.866,147.439,197.827 M167.974,201.243c0.589-0.726,1.501-2.391,1.56-2.845
			c0.025-0.208-0.036-0.291-0.199-0.271c-0.201,0.028-0.657,0.399-1.09,0.93c-0.635,0.762-1.489,2.297-1.558,2.803
			c-0.027,0.207,0.058,0.342,0.202,0.325C167.123,202.153,167.531,201.802,167.974,201.243 M171.509,200.042
			c0.254-0.406,0.798-0.274,0.651,0.1c-0.124,0.324-0.361,0.85-0.964,1.564c-0.742,0.911-1.426,1.355-2.044,1.437
			c-0.498,0.07-0.854-0.143-0.938-0.589l-0.029-0.091c-0.004-0.078-0.043-0.119-0.085-0.111c-0.046,0.005-0.078,0.039-0.163,0.117
			c-0.625,0.664-1.105,1.073-1.686,1.152c-0.863,0.112-1.368-0.562-1.246-1.543c-0.232,0.344-0.471,0.673-0.691,0.915
			c-0.676,0.752-1.23,1.229-1.743,1.296c-0.695,0.093-1.059-0.402-0.941-1.278c0.053-0.398,0.2-0.864,0.454-1.453
			c0.264-0.589,0.674-1.398,1.052-2.059c0.303-0.541,0.593-1.151,0.638-1.359c0.036-0.164,0.054-0.197,0.183-0.28
			c0.161-0.113,0.479-0.25,0.674-0.265c0.488-0.038,1.139,0.317,0.71,1.051l-0.163,0.28c-0.022,0.057-0.317,0.588-0.486,0.879
			c-0.312,0.488-0.712,1.216-0.962,1.709c-0.156,0.293-0.231,0.518-0.251,0.682c-0.018,0.109,0.02,0.175,0.104,0.161
			c0.12-0.015,0.296-0.132,0.511-0.34c0.22-0.229,0.354-0.381,0.843-1.03l0.18-0.225c0.142-0.184,1.258-1.644,1.591-2.005
			c0.903-1.076,1.922-1.838,2.573-1.921c0.43-0.061,0.774,0.137,0.943,0.532c0.117,0.324,0.141,0.347,0.427,0.471
			c0.459,0.182,0.612,0.335,0.576,0.569c-0.02,0.168-0.081,0.296-0.371,0.755c-0.205,0.351-0.433,0.761-0.596,1.076
			c-0.342,0.676-0.527,1.135-0.195,1.253c0.124,0.043,0.358-0.076,0.645-0.382C171.03,200.77,171.255,200.435,171.509,200.042
			 M165.59,196.653c0.563-0.101,1.057-0.608,1.101-1.133c0.04-0.522-0.381-0.864-0.941-0.763c-0.565,0.103-1.059,0.608-1.1,1.134
			C164.604,196.414,165.027,196.755,165.59,196.653 M157.022,194.175c-1.172,1.54-2.432,3.501-3.572,5.459
			c0.667-0.151,1.309-0.283,1.909-0.397C155.851,197.42,156.438,195.562,157.022,194.175 M157.318,198.908
			c0.336-0.051,1.431-0.18,1.389,0.279c-0.063,0.741-0.344,0.729-1.323,0.939c-0.184,0.042-0.381,0.083-0.589,0.127
			c-0.014,0.051-0.029,0.08-0.041,0.081c-0.369,1.73-0.398,2.385-0.601,3.892c-0.088,0.661,0.042,1.37-0.745,1.478
			c-0.785,0.114-1.055-0.694-1.052-1.385c0.003-1.222,0.62-3.618,0.622-3.633c-0.798,0.204-1.655,0.437-2.509,0.702
			c-1.017,1.725-2.867,5.882-3.097,6.92c-0.186,0.833-0.562,1.089-1.117,0.845c-0.553-0.239-0.863-0.791-0.672-1.418
			c0.516-1.719,2.466-5.443,2.495-5.511c-0.723,0.29-1.396,0.603-1.978,0.935c-0.359,0.203-0.818,0.008-0.916-0.423
			c-0.065-0.312-0.208-0.915,0.495-1.237c1.128-0.515,2.354-0.944,3.578-1.297c2.604-4.377,5.83-8.869,6.761-8.786
			c0.407,0.034,0.344,0.471,0.696,0.866c0.354,0.392,0.404,0.633-0.02,1.676c-0.857,2.143-0.787,1.643-1.617,4.985
			C157.161,198.933,157.237,198.919,157.318,198.908 M158.561,204.974c0.643-0.064,2.521-0.477,2.541-2.54
			c0.005-0.798-0.759-1.22-0.944-1.776c-0.12-0.345-0.091-1.055,0.452-1.268c0.671-0.264,0.81,0.178,1.042,0.506
			c0.095,0.136,0.402,0.103,0.508-0.006c0.146-0.153,0.358-0.38,0.452-0.767c0.082-0.354-0.296-0.949-1.387-0.912
			c-0.382,0.009-0.921,0.073-1.686,0.803c-0.355,0.337-1.477,1.872-0.645,3.19c0.223,0.357,0.762,0.796,0.416,1.131
			c-0.542,0.522-1.471-0.286-1.648-0.529c-0.08-0.112-0.311-0.244-0.461-0.021c-0.088,0.127-0.504,0.87-0.44,1.146
			C156.947,204.788,158.055,205.024,158.561,204.974"/>
	</g>
</g>
</svg>
