<?xml version="1.0" encoding="utf-8"?>
<!-- Generator: Adobe Illustrator 16.2.1, SVG Export Plug-In . SVG Version: 6.00 Build 0)  -->
<!DOCTYPE svg PUBLIC "-//W3C//DTD SVG 1.1//EN" "http://www.w3.org/Graphics/SVG/1.1/DTD/svg11.dtd">
<svg version="1.1"
	 id="Layer_1" xmlns:svg="http://www.w3.org/2000/svg" inkscape:version="0.48.1 " sodipodi:docname="AJAX.svg" xmlns:cc="http://creativecommons.org/ns#" xmlns:sodipodi="http://sodipodi.sourceforge.net/DTD/sodipodi-0.dtd" xmlns:dc="http://purl.org/dc/elements/1.1/" xmlns:rdf="http://www.w3.org/1999/02/22-rdf-syntax-ns#" xmlns:inkscape="http://www.inkscape.org/namespaces/inkscape"
	 xmlns="http://www.w3.org/2000/svg" xmlns:xlink="http://www.w3.org/1999/xlink" x="0px" y="0px" width="50px" height="50px"
	 viewBox="73.226 43.159 50 50" enable-background="new 73.226 43.159 50 50" xml:space="preserve">
<defs>
	
	
		<inkscape:perspective  inkscape:persp3d-origin="350.78601 : 41.179334 : 1" sodipodi:type="inkscape:persp3d" inkscape:vp_z="701.57202 : 61.769001 : 1" inkscape:vp_y="0 : 1000 : 0" inkscape:vp_x="0 : 61.769001 : 1" id="perspective43">
		</inkscape:perspective>
</defs>
<sodipodi:namedview  inkscape:window-height="1004" inkscape:window-width="1280" inkscape:pageopacity="0" inkscape:window-x="-8" inkscape:window-maximized="1" inkscape:current-layer="g3" fit-margin-right="0" inkscape:window-y="-8" fit-margin-bottom="0" inkscape:pageshadow="2" fit-margin-top="0" gridtolerance="10" bordercolor="#666666" inkscape:cy="40.667323" objecttolerance="10" pagecolor="#ffffff" borderopacity="1" showgrid="false" fit-margin-left="0" inkscape:cx="221.55216" guidetolerance="10" inkscape:zoom="2.4203458" id="namedview37">
	</sodipodi:namedview>
<g id="g3" transform="matrix(0.2858894,0,0,0.2858894,-1.06292e-7,5.4334785e-4)">
	<path id="path9" inkscape:connector-curvature="0" fill="#003263" d="M376.857,212.504c2.729,0.02,4.605,0.854,6.121,1.571
		c3.167,1.489,6.863,3.218,11.501,5.441c0,0.031,7.498-5.308,7.891-5.575c2.541-1.742,5.001-0.424,5.79,1.076
		c2.801,5.264,7.945,16.198,10.668,26.203c0.321,1.199-0.061,3.074-1.944,3.631c-1.076,0.318-2.941,0.588-4.895,0.83
		c-2.705,0.342-2.654,2.538-2.654,3.857c0,1.64,0.024,12.693,0.024,16.468c0.058,2.313-1.708,9.882-10.463,9.875
		c-0.588,0-20.058-0.007-19.969-0.007c-7.549,0.044-13.623-6.347-13.657-13.131c-0.014-4.471-0.01-35.559,0.01-39.044
		C365.304,216.969,371.347,212.436,376.857,212.504L376.857,212.504z"/>
	<path id="path11" inkscape:connector-curvature="0" fill="#003263" d="M345.277,275.883h-64.922v7.221h76.178
		c0,0,2.746-6.391,2.746-13.435c0-0.386,0.027-48.956,0.027-48.956c0-3.857,1.575-10.374,9.5-12.102
		c0.222-0.051,0.444-0.096,0.663-0.14c22.494-5.315,45.67-0.475,58.729,5.161c2.357,1.141,2.897-0.741,2.822-1.534
		c0.28-11.006-8.082-23.542-23.471-24.297c-12.492-0.29-19.423,4.202-21.968,5.448c-0.198,0.089-0.516,0.051-0.799-0.266
		c-2.306-2.275-7.225-5.681-12.751-7.266c-0.827-0.188-0.909-1.394,0.048-1.5c11.826-1.274,22.176,0.068,26.5,0.772
		c0.994,0.164,1.725-0.424,1.332-1.336c-0.294-0.697-0.543-1.021-1.045-2.097c-1.056-2.261-3.839-4.663-7.378-5.65
		c-9.291-2.586-25.124-4.82-39.228-4.902c-15.877-0.096-32.608,3.078-36.833,4.02c-1.013,0.222-2.439,0.584-2.688,0.635
		c-1.156,0.232-1.431,1.322-0.931,1.868c0.316,0.348,1.187,1.083,1.602,1.595c0.526,0.652,0.772,1.578-0.229,2.552l-29.354,26.371
		h20.089l0.231-0.02c1.305-0.024,2.54,1.158,2.547,2.661c0.003,1.356-1.079,2.634-2.451,2.634l-0.174,0.014h-26.084l-7.985,7.252
		h34.162l0.184-0.014c1.346,0.007,2.384,1.407,2.366,2.668c-0.015,1.172-0.997,2.596-2.366,2.596l-0.203,0.014h-39.997l-8,7.228
		h68.997l0.222,0.007c1.358,0,2.406,1.394,2.429,2.61c0.015,1.418-0.982,2.702-2.372,2.685h-0.19h-69.098v7.201h68.943l0.212,0.027
		c1.578,0,2.494,1.431,2.487,2.753c-0.007,1.192-1.156,2.477-2.524,2.477h-0.186h-68.931v7.272h90.005h0.222
		c1.493,0.038,2.453,1.319,2.408,2.722c-0.034,1.223-1.052,2.535-2.405,2.535l-0.191-0.007H280.37v7.242h64.907h1.356
		c1.223,0,2.275,1.513,2.275,2.736c0,1.216-1.076,2.545-2.295,2.545H345.277L345.277,275.883z"/>
	<path id="path13" inkscape:connector-curvature="0" fill="#003263" d="M304.594,300.815l-0.015,7.371c0,0,9.761,0.031,15.319,0
		c13.708-0.082,22.705-7.371,22.705-7.371H304.594L304.594,300.815z"/>
	<path id="path15" inkscape:connector-curvature="0" fill="#003263" d="M304.594,288.381l-0.015,7.225h44.063
		c2.039-2.05,4.656-5.821,5.339-7.207L304.594,288.381L304.594,288.381z"/>
</g>
</svg>
