<?xml version="1.0" encoding="utf-8"?>
<!-- Generator: Adobe Illustrator 16.2.1, SVG Export Plug-In . SVG Version: 6.00 Build 0)  -->
<!DOCTYPE svg PUBLIC "-//W3C//DTD SVG 1.1//EN" "http://www.w3.org/Graphics/SVG/1.1/DTD/svg11.dtd">
<svg version="1.1"
	 id="svg2" sodipodi:version="0.32" inkscape:output_extension="org.inkscape.output.svg.inkscape" sodipodi:docname="2000px-Air_One_Logo.svg" inkscape:version="0.46" xmlns:inkscape="http://www.inkscape.org/namespaces/inkscape" xmlns:cc="http://creativecommons.org/ns#" xmlns:rdf="http://www.w3.org/1999/02/22-rdf-syntax-ns#" xmlns:sodipodi="http://sodipodi.sourceforge.net/DTD/sodipodi-0.dtd" xmlns:svg="http://www.w3.org/2000/svg" xmlns:dc="http://purl.org/dc/elements/1.1/"
	 xmlns="http://www.w3.org/2000/svg" xmlns:xlink="http://www.w3.org/1999/xlink" x="0px" y="0px" width="50px" height="50px"
	 viewBox="100.5 54 50 50" enable-background="new 100.5 54 50 50" xml:space="preserve">
<defs>
	
	
		<inkscape:perspective  inkscape:vp_z="2412.5 : 309.375 : 1" inkscape:vp_x="0 : 309.375 : 1" sodipodi:type="inkscape:persp3d" inkscape:vp_y="0 : 1000 : 0" id="perspective25" inkscape:persp3d-origin="1206.25 : 206.25 : 1">
		</inkscape:perspective>
</defs>
<sodipodi:namedview  id="base" objecttolerance="10.0" borderopacity="1.0" bordercolor="#666666" pagecolor="#ffffff" gridtolerance="10.0" guidetolerance="10.0" inkscape:cx="1206.25" inkscape:zoom="0.22549223" inkscape:cy="309.375" showgrid="false" inkscape:pageopacity="0.0" inkscape:window-height="669" inkscape:window-y="74" inkscape:window-width="640" inkscape:pageshadow="2" inkscape:current-layer="svg2" inkscape:window-x="46">
	</sodipodi:namedview>
<g id="_x23_1c2565ff">
	<path id="path5" fill="#1C2565" d="M138.322,57.019c1.028-0.832,1.659-2.006,2.473-3.019c0.23,0.715-0.146,1.408-0.341,2.078
		c0.629-0.695,1.213-1.469,2.031-1.967c0.101,0.979-0.555,1.797-1.044,2.582c0.863-0.409,1.622-1.005,2.493-1.402
		c0.117,0.578-0.126,1.176-0.553,1.571c-0.229,0.209-0.477,0.39-0.703,0.59c0.862-0.142,1.638-0.57,2.434-0.921
		c0.255,0.552-0.126,1.065-0.497,1.441c0.224-0.006,0.448-0.006,0.674-0.006c0.14,0.343,0.175,0.765-0.021,1.102
		c-0.16,0.223-0.403,0.358-0.617,0.515c0.288-0.008,0.58,0.006,0.87,0.051c0.074,0.319,0.205,0.643,0.166,0.974
		c-0.107,0.37-0.545,0.455-0.845,0.611c0.208,0.059,0.419,0.122,0.631,0.187c-0.027,0.319,0.01,0.662-0.137,0.954
		c-0.134,0.15-0.319,0.234-0.475,0.351c0.105,0.072,0.205,0.145,0.312,0.215c-0.06,0.3-0.158,0.592-0.269,0.876
		c-0.166,0.033-0.331,0.072-0.493,0.11c0.074,0.117,0.148,0.24,0.226,0.356c-0.064,0.215-0.132,0.423-0.195,0.637
		c-0.148,0.064-0.294,0.131-0.44,0.195c-0.107,0.259-0.088,0.623-0.368,0.765c-0.175,0.111-0.362,0.189-0.512,0.339
		c-0.15,0.323-0.082,0.701-0.205,1.032c-0.146,0.227-0.413,0.312-0.637,0.435c0.018,0.208,0.029,0.415,0.043,0.629
		c-0.107,0.105-0.21,0.202-0.317,0.306c0.031,0.337,0.01,0.688-0.292,0.901c0.375,0.378,0.117,0.896-0.166,1.24
		c0.01,0.131,0.025,0.268,0.041,0.396c-0.146,0.145-0.298,0.286-0.448,0.423c-0.031,0.331-0.166,0.629-0.411,0.851
		c0.031,0.272,0.152,0.59-0.039,0.83c-0.169,0.183-0.403,0.286-0.574,0.461c-0.228,0.462,0.048,1.13-0.442,1.447
		c-0.042,0.039-0.13,0.111-0.175,0.144c-0.042,0.331-0.033,0.674-0.169,0.985c-0.19,0.37-0.697,0.364-0.937,0.689
		c0.109,0.156,0.24,0.292,0.37,0.429c-0.244,0.312-0.5,0.688-0.915,0.766c-0.173-0.039-0.331-0.111-0.495-0.17
		c-0.039,0.28-0.039,0.572-0.137,0.838c-0.185,0.188-0.477,0.071-0.701,0.091c0.095,0.454,0.16,1.007,0.592,1.279
		c2.027,1.122,4.479,1.525,6.744,0.966c-0.717,0.292-1.484,0.456-2.255,0.456c-1.528,0.031-3.042-0.272-4.502-0.695
		c2.031,0.851,4.249,1.168,6.441,1.085c-1.978,0.467-4.011,0.025-5.951-0.39c-0.504-0.125-1.021-0.176-1.536-0.145
		c1.036,0.631,2.171,1.065,3.223,1.663c0.199,0.117,0.409,0.227,0.568,0.396c0.059,0.253-0.111,0.474-0.195,0.695
		c-0.152-0.033-0.302-0.059-0.452-0.092c0.13,0.104,0.261,0.209,0.374,0.331c-0.025,0.239-0.103,0.474-0.21,0.682
		c-0.076,0.214-0.345,0.137-0.516,0.188c0.129,0.351-0.042,0.674-0.34,0.863c-0.082,0.247-0.179,0.559-0.468,0.617
		c-0.194,0.084-0.335-0.092-0.456-0.208c-0.771-0.832-1.48-1.747-2.444-2.37c-1.047-0.643-2.319-0.643-3.487-0.896
		c1.1,1.838,2.942,3.084,4.089,4.896c0.282,0.447,0.508,0.935,0.643,1.452c0.535,1.975,0.499,4.07,1.16,6.012
		c0.472,1.317,1.441,2.408,2.569,3.213c-0.349-0.053-0.734-0.182-1.062,0c-0.325,0.2-0.354,0.629-0.325,0.974
		c0.107,0.954,0.506,1.836,0.892,2.706c-0.567-0.765-1.015-1.649-1.823-2.194c-0.238,0.662-0.072,1.357,0.119,2.006
		c0.169,0.553,0.427,1.065,0.672,1.585c-0.897-1.305-1.91-2.57-2.397-4.097c-0.53-1.545-0.545-3.194-0.787-4.797
		c-0.265-1.513-0.477-3.09-1.252-4.445c-1.036-1.694-2.331-3.207-3.622-4.712c-0.306-0.351-0.584-0.74-0.97-1.007
		c-0.485-0.345-0.952-0.721-1.318-1.188c-0.448-0.539-0.76-1.174-1.163-1.738c-0.272-0.437-0.814-0.515-1.229-0.754
		c-1.532-0.715-2.73-1.928-4.054-2.946c-0.438-0.3-0.86-0.682-1.406-0.76c-1.973-0.344-3.964-0.87-5.668-1.961
		c-1.244-0.804-2.325-1.985-2.705-3.446c-0.195-0.766-0.289-1.63,0.125-2.337c0.382-0.707,1.12-1.115,1.563-1.771
		c0.244-0.356,0.132-0.824-0.048-1.183c-0.415-0.823-1.013-1.558-1.749-2.108c-2.146-1.583-4.36-3.077-6.595-4.531
		c1.567,0.584,3.112,1.227,4.703,1.746c1.116,0.215,2.313,0.312,3.256,1.007c0.759,0.487,1.09,1.35,1.597,2.057
		c0.561,0.954,0.95,2.059,0.931,3.174c-0.058,1.177-1.182,1.877-1.534,2.935c-0.107,0.877,0.415,1.747,1.12,2.233
		c0.794,0.552,1.675,1.052,2.658,1.142c1.184,0.11,2.407-0.02,3.505-0.507c0.97-0.434,1.982-0.798,3.043-0.901
		c0.824-0.122,1.659-0.039,2.489-0.064c0.894-0.954,1.367-2.22,1.679-3.466c0.531-2.175,0.662-4.467,1.641-6.512
		c0.662-1.408,1.815-2.551,3.178-3.283c0.13,0.078,0.259,0.156,0.393,0.239C135.216,58.737,136.93,58.103,138.322,57.019
		 M131.968,85.61c1.209,1.752,2.699,3.388,3.306,5.472c0.648,1.908,0.857,3.934,1.241,5.908c0.187,0.985,0.531,1.991,1.252,2.726
		c-0.691-1.936-1.178-3.941-1.435-5.978c-0.177-1.247-0.269-2.521-0.693-3.72c-0.267-0.773-0.816-1.391-1.332-2.006
		C133.571,87.168,132.786,86.377,131.968,85.61z"/>
	<path id="path7" fill="#1C2565" d="M126.496,66.671c0.458-0.748,1.355-1.013,2.162-1.195c-0.354,1.941-0.52,3.979-1.46,5.752
		c-0.193,0.356-0.438,0.674-0.699,0.985c-0.467-0.02-0.937-0.02-1.408,0.008c0.487-1.007,0.902-2.064,0.983-3.182
		C126.171,68.24,126.132,67.403,126.496,66.671z"/>
</g>
</svg>
