<?xml version="1.0" encoding="utf-8"?>
<!-- Generator: Adobe Illustrator 16.2.1, SVG Export Plug-In . SVG Version: 6.00 Build 0)  -->
<!DOCTYPE svg PUBLIC "-//W3C//DTD SVG 1.1//EN" "http://www.w3.org/Graphics/SVG/1.1/DTD/svg11.dtd">
<svg version="1.1" id="Layer_1" xmlns="http://www.w3.org/2000/svg" xmlns:xlink="http://www.w3.org/1999/xlink" x="0px" y="0px"
	 width="50px" height="50px" viewBox="89.701 74.116 50 50" enable-background="new 89.701 74.116 50 50" xml:space="preserve">
<path fill="#0081C6" d="M97.067,94.28c-0.065-0.104-0.15-0.189-0.25-0.254c-0.097-0.06-0.202-0.102-0.316-0.123
	c-0.106-0.021-0.211-0.03-0.314-0.03c-0.105,0-0.216,0.012-0.333,0.036c-0.121,0.023-0.238,0.066-0.353,0.124
	c-0.118,0.059-0.227,0.14-0.327,0.24c-0.103,0.103-0.195,0.231-0.273,0.388l-3.076,5.583c-0.02,0.039-0.03,0.088-0.03,0.14
	c-0.002,0.059,0.021,0.125,0.07,0.167c0.051,0.041,0.111,0.056,0.173,0.056h0.637c0.065,0,0.127-0.022,0.183-0.059
	s0.102-0.083,0.124-0.144l1.059-2.167h2.557l0.251,2.139c0.01,0.057,0.03,0.105,0.059,0.146c0.042,0.06,0.113,0.084,0.178,0.084
	h0.631c0.075,0,0.15-0.021,0.203-0.075c0.053-0.056,0.073-0.13,0.073-0.206v-0.045l-0.79-5.597
	C97.179,94.523,97.135,94.388,97.067,94.28 M94.479,97.336l1.329-2.397c0.05-0.095,0.178-0.111,0.254-0.108
	c0.164,0.009,0.181,0.108,0.181,0.108l0.281,2.397H94.479z M102.962,95.577c-0.17-0.172-0.381-0.307-0.627-0.404
	c-0.252-0.098-0.545-0.148-0.881-0.148c-0.763,0-1.396,0.213-1.886,0.64c-0.489,0.425-0.813,1.039-0.976,1.828l-0.136,0.677
	c-0.042,0.219-0.064,0.426-0.064,0.62c0,0.34,0.062,0.633,0.189,0.875c0.124,0.239,0.289,0.435,0.493,0.585
	c0.202,0.15,0.433,0.259,0.69,0.325c0.252,0.065,0.511,0.1,0.775,0.1h0.007c0.357,0,0.675-0.014,0.954-0.044
	c0.276-0.028,0.572-0.071,0.889-0.121c0.097-0.016,0.175-0.037,0.235-0.098c0.052-0.051,0.078-0.122,0.094-0.203l0.062-0.329
	l0.001-0.009v-0.047c0.004-0.054-0.024-0.118-0.074-0.151c-0.048-0.035-0.101-0.042-0.157-0.043h-0.062
	c-0.255,0.034-0.539,0.064-0.865,0.094c-0.323,0.026-0.638,0.042-0.942,0.042c-0.39,0-0.687-0.078-0.899-0.225
	c-0.201-0.142-0.306-0.363-0.308-0.714c0-0.087,0.005-0.176,0.015-0.27c0.01-0.089,0.032-0.186,0.063-0.29l0.013-0.049h3.424
	c0.091,0,0.179-0.023,0.236-0.093c0.044-0.056,0.07-0.122,0.087-0.196l0.085-0.408c0.043-0.211,0.064-0.411,0.064-0.6
	c0-0.261-0.04-0.507-0.12-0.736C103.259,95.951,103.132,95.748,102.962,95.577 M102.293,97.375h-2.566
	c0.048-0.191,0.112-0.364,0.195-0.525c0.093-0.178,0.206-0.334,0.343-0.468c0.133-0.134,0.286-0.236,0.464-0.309
	c0.175-0.073,0.371-0.109,0.59-0.109c0.724,0.015,1.017,0.287,1.03,0.929C102.348,97.037,102.33,97.198,102.293,97.375
	 M107.133,95.721l0.073-0.408l0.001-0.009v-0.047c0.004-0.065-0.027-0.14-0.087-0.18c-0.058-0.041-0.124-0.052-0.197-0.052h-0.021
	c-0.251,0-0.506,0.03-0.764,0.09c-0.208,0.048-0.422,0.142-0.644,0.279v-0.001v-0.049c0-0.068-0.018-0.138-0.067-0.186
	c-0.05-0.05-0.119-0.066-0.186-0.066h-0.491c-0.078,0-0.155,0.027-0.215,0.081c-0.057,0.048-0.1,0.112-0.119,0.184l-0.931,4.947
	v0.048c0,0.068,0.018,0.137,0.067,0.187c0.049,0.048,0.117,0.066,0.184,0.066h0.513c0.079,0.001,0.155-0.028,0.218-0.079
	c0.062-0.05,0.107-0.114,0.128-0.187l0.754-4.016c0.237-0.133,0.455-0.225,0.653-0.277c0.209-0.055,0.46-0.083,0.752-0.083h0.032
	C106.952,95.972,107.107,95.881,107.133,95.721 M111.358,95.566c-0.174-0.172-0.389-0.305-0.639-0.399
	c-0.253-0.095-0.544-0.141-0.875-0.141c-1.586-0.01-2.571,0.832-2.86,2.438l-0.135,0.735c-0.016,0.094-0.028,0.184-0.039,0.271
	c-0.011,0.091-0.015,0.184-0.015,0.278c0,0.28,0.043,0.538,0.13,0.773c0.088,0.234,0.218,0.438,0.388,0.609
	c0.171,0.173,0.384,0.306,0.635,0.399c0.252,0.096,0.541,0.142,0.863,0.142c0.419,0,0.795-0.056,1.123-0.17
	c0.327-0.112,0.61-0.275,0.848-0.489c0.235-0.211,0.429-0.468,0.574-0.769c0.146-0.299,0.256-0.635,0.327-1.011l0.136-0.734
	c0.015-0.095,0.028-0.187,0.039-0.278c0.01-0.094,0.015-0.188,0.015-0.282c0-0.273-0.042-0.527-0.126-0.764
	C111.663,95.943,111.532,95.736,111.358,95.566 M110.75,97.183c-0.006,0.087-0.019,0.18-0.039,0.28l-0.135,0.736
	c-0.042,0.23-0.109,0.438-0.205,0.626c-0.097,0.188-0.213,0.349-0.351,0.481c-0.136,0.134-0.295,0.238-0.475,0.313
	c-0.177,0.075-0.375,0.115-0.592,0.115c-0.396,0-0.663-0.086-0.811-0.232c-0.153-0.15-0.236-0.382-0.236-0.715
	c0-0.161,0.02-0.346,0.061-0.554l0.136-0.734c0.088-0.483,0.271-0.855,0.55-1.13c0.277-0.271,0.623-0.405,1.06-0.406
	c0.396,0,0.662,0.088,0.811,0.241c0.155,0.157,0.236,0.393,0.237,0.725C110.76,97.01,110.757,97.096,110.75,97.183 M114.377,93.66
	c0-0.063-0.017-0.129-0.064-0.177c-0.049-0.049-0.114-0.065-0.177-0.065h-0.544c-0.162-0.011-0.307,0.104-0.325,0.264l-1.252,6.624
	v0.048c0,0.067,0.015,0.134,0.062,0.184c0.045,0.049,0.111,0.069,0.174,0.069h0.549c0.077,0.001,0.154-0.031,0.212-0.084
	c0.053-0.051,0.091-0.111,0.111-0.181l1.254-6.633V93.66z M115.928,95.094h-0.498c-0.078,0-0.155,0.027-0.217,0.079
	c-0.062,0.049-0.107,0.112-0.129,0.186l-0.932,4.947v0.048c-0.001,0.068,0.02,0.14,0.072,0.188c0.053,0.048,0.119,0.064,0.188,0.064
	h0.505c0.078,0,0.154-0.029,0.217-0.08c0.062-0.049,0.107-0.11,0.127-0.186l0.932-4.946v-0.049c0.001-0.068-0.019-0.14-0.072-0.188
	C116.068,95.109,116.001,95.094,115.928,95.094 M115.336,94.582h0.563c0.067,0,0.132-0.012,0.188-0.054
	c0.036-0.026,0.081-0.065,0.139-0.118l1.051-0.882c0.047-0.042,0.084-0.089,0.087-0.16c-0.002-0.121-0.129-0.154-0.2-0.156h-0.689
	c-0.074,0.002-0.141,0.013-0.197,0.053c-0.037,0.028-0.083,0.065-0.14,0.12l-0.889,0.863c-0.049,0.049-0.091,0.101-0.095,0.179
	C115.153,94.528,115.266,94.582,115.336,94.582 M121.053,95.492c-0.137-0.147-0.312-0.263-0.521-0.346
	c-0.214-0.08-0.465-0.12-0.752-0.12c-0.362,0-0.679,0.046-0.95,0.141c-0.204,0.071-0.405,0.154-0.605,0.251l0.003-0.02l0.002-0.007
	v-0.046c0-0.061-0.022-0.118-0.057-0.165c-0.048-0.064-0.125-0.088-0.196-0.087h-0.513c-0.078,0-0.154,0.029-0.214,0.081
	c-0.059,0.048-0.101,0.113-0.12,0.184l-0.932,4.947v0.048c-0.002,0.06,0.02,0.118,0.055,0.165c0.045,0.062,0.121,0.088,0.191,0.088
	h0.518c0.08,0.001,0.155-0.029,0.218-0.08c0.062-0.049,0.106-0.11,0.126-0.185l0.766-4.039c0.309-0.136,0.566-0.224,0.77-0.269
	c0.217-0.047,0.421-0.07,0.616-0.07c0.373-0.002,0.609,0.068,0.705,0.166c0.109,0.107,0.169,0.259,0.169,0.473
	c0,0.073-0.005,0.154-0.015,0.245c-0.011,0.092-0.023,0.183-0.037,0.271l-0.544,3.18v0.048c0,0.067,0.021,0.14,0.073,0.187
	c0.052,0.051,0.12,0.064,0.191,0.064h0.501c0.077,0.003,0.153-0.028,0.216-0.078c0.062-0.049,0.107-0.112,0.126-0.187l0.547-3.18
	c0.034-0.186,0.054-0.366,0.054-0.541c0-0.215-0.031-0.42-0.094-0.611C121.287,95.807,121.187,95.637,121.053,95.492
	 M126.332,95.577c-0.171-0.172-0.381-0.307-0.628-0.404c-0.251-0.098-0.544-0.146-0.881-0.146c-0.762-0.002-1.396,0.211-1.885,0.638
	c-0.489,0.425-0.813,1.039-0.976,1.828l-0.136,0.677c-0.043,0.219-0.065,0.426-0.065,0.618c0,0.341,0.062,0.635,0.189,0.877
	c0.124,0.237,0.289,0.435,0.492,0.585c0.2,0.15,0.434,0.257,0.69,0.325c0.254,0.065,0.516,0.1,0.78,0.1
	c0.359,0,0.677-0.015,0.956-0.043c0.276-0.03,0.572-0.072,0.887-0.123c0.098-0.015,0.177-0.036,0.237-0.097
	c0.052-0.053,0.076-0.122,0.093-0.203l0.063-0.329l0.001-0.007v-0.05c0.002-0.053-0.024-0.117-0.075-0.15
	c-0.048-0.035-0.101-0.042-0.158-0.043h-0.062c-0.255,0.033-0.539,0.064-0.864,0.093c-0.324,0.027-0.639,0.043-0.941,0.043
	c-0.393,0-0.688-0.078-0.9-0.226c-0.2-0.141-0.306-0.362-0.308-0.713c0-0.087,0.006-0.177,0.015-0.269
	c0.011-0.091,0.031-0.188,0.064-0.291l0.013-0.049h3.423c0.091,0,0.18-0.023,0.236-0.094c0.046-0.055,0.072-0.121,0.089-0.194
	l0.083-0.41c0.043-0.21,0.063-0.41,0.063-0.599c0-0.261-0.039-0.508-0.119-0.738C126.629,95.951,126.503,95.748,126.332,95.577
	 M125.664,97.375h-2.568c0.047-0.191,0.112-0.364,0.195-0.525c0.094-0.178,0.207-0.334,0.343-0.468
	c0.134-0.134,0.289-0.236,0.464-0.31c0.176-0.072,0.371-0.108,0.591-0.108c0.723,0.015,1.016,0.287,1.03,0.929
	C125.719,97.037,125.7,97.198,125.664,97.375 M132.196,95.49c-0.004-0.144-0.133-0.217-0.267-0.24
	c-0.265-0.065-0.561-0.118-0.883-0.162c-0.324-0.039-0.645-0.062-0.963-0.062c-0.321,0-0.632,0.038-0.933,0.113
	c-0.303,0.077-0.58,0.206-0.83,0.383c-0.251,0.179-0.468,0.415-0.646,0.704c-0.183,0.294-0.315,0.655-0.399,1.083l-0.188,0.958
	c-0.043,0.203-0.064,0.403-0.064,0.598c0,0.306,0.044,0.575,0.138,0.805c0.091,0.229,0.215,0.417,0.373,0.567
	c0.155,0.147,0.34,0.258,0.552,0.329c0.206,0.071,0.426,0.107,0.657,0.107h0.005c0.178,0,0.34-0.01,0.485-0.035
	c0.145-0.022,0.285-0.06,0.421-0.112c0.133-0.049,0.267-0.11,0.398-0.185c0.076-0.041,0.157-0.089,0.242-0.141l-0.015,0.079
	l-0.001,0.007v0.066c0,0.06,0.015,0.121,0.049,0.169c0.053,0.068,0.13,0.083,0.205,0.084h0.418c0.077,0.001,0.153-0.031,0.213-0.082
	c0.06-0.049,0.102-0.113,0.12-0.184l0.898-4.752C132.191,95.559,132.196,95.525,132.196,95.49 M130.372,99.24
	c-0.274,0.168-0.522,0.295-0.743,0.387c-0.225,0.092-0.452,0.138-0.684,0.138c-0.23,0-0.418-0.066-0.579-0.2
	c-0.146-0.119-0.232-0.348-0.232-0.709c0-0.067,0.004-0.139,0.012-0.213c0.005-0.075,0.016-0.146,0.03-0.212l0.186-0.998
	c0.097-0.502,0.279-0.872,0.547-1.122c0.261-0.246,0.647-0.375,1.176-0.376c0.22,0,0.406,0.011,0.558,0.029
	c0.119,0.015,0.231,0.03,0.342,0.05L130.372,99.24z M136.405,95.153c-0.112-0.019-0.217-0.037-0.314-0.054
	c-0.1-0.016-0.21-0.029-0.326-0.04c-0.115-0.009-0.247-0.016-0.389-0.024c-0.146-0.006-0.319-0.009-0.521-0.009
	c-0.264,0-0.529,0.022-0.794,0.068c-0.271,0.047-0.514,0.13-0.725,0.254c-0.211,0.123-0.387,0.287-0.523,0.488
	c-0.139,0.211-0.205,0.472-0.205,0.774c0,0.476,0.322,0.892,0.913,1.254l0.951,0.57c0.244,0.14,0.402,0.261,0.467,0.344
	c0.07,0.092,0.1,0.174,0.101,0.26c-0.001,0.141-0.03,0.253-0.084,0.342c-0.059,0.093-0.133,0.163-0.226,0.218
	c-0.1,0.056-0.216,0.098-0.349,0.124c-0.136,0.027-0.277,0.042-0.425,0.042c-0.087,0-0.199-0.003-0.334-0.01
	c-0.136-0.006-0.277-0.015-0.427-0.023c-0.148-0.01-0.297-0.021-0.441-0.035c-0.146-0.013-0.28-0.024-0.405-0.037h-0.072
	c-0.138-0.009-0.271,0.084-0.293,0.221l-0.063,0.343l-0.002,0.007v0.038c-0.002,0.072,0.03,0.152,0.097,0.192
	c0.044,0.029,0.097,0.051,0.153,0.065c0.125,0.028,0.259,0.053,0.404,0.069c0.144,0.021,0.291,0.036,0.44,0.045
	c0.146,0.011,0.288,0.018,0.428,0.025c0.141,0.005,0.267,0.009,0.381,0.009h0.008c0.288,0,0.57-0.028,0.846-0.084
	c0.28-0.058,0.53-0.151,0.749-0.283c0.219-0.133,0.396-0.311,0.528-0.531c0.136-0.225,0.199-0.501,0.199-0.823
	c0.001-0.232-0.07-0.454-0.208-0.653c-0.141-0.206-0.394-0.414-0.757-0.639l-0.941-0.569c-0.18-0.108-0.316-0.209-0.406-0.297
	c-0.084-0.084-0.119-0.164-0.119-0.26c0-0.126,0.03-0.217,0.083-0.283c0.061-0.074,0.136-0.134,0.232-0.181
	c0.099-0.046,0.207-0.079,0.328-0.098c0.123-0.02,0.242-0.028,0.355-0.028c0.29,0,0.572,0.009,0.845,0.025
	c0.273,0.014,0.501,0.032,0.68,0.052h0.041c0.148,0.01,0.285-0.097,0.304-0.244l0.054-0.318l0.001-0.009v-0.046
	C136.648,95.271,136.531,95.168,136.405,95.153"/>
<path fill="#A6A8AB" d="M104.469,102.593c-0.237-0.053-0.523-0.103-0.857-0.15c-0.337-0.05-0.663-0.073-0.978-0.073
	c-0.394,0-0.747,0.041-1.058,0.127s-0.586,0.224-0.821,0.415c-0.235,0.192-0.433,0.441-0.586,0.746
	c-0.157,0.306-0.275,0.677-0.359,1.121l-0.136,0.705c-0.043,0.235-0.065,0.455-0.065,0.656c0,0.309,0.05,0.578,0.15,0.803
	c0.101,0.227,0.24,0.412,0.417,0.557c0.176,0.143,0.388,0.248,0.633,0.318c0.245,0.067,0.509,0.103,0.792,0.103
	c0.078,0,0.171-0.005,0.279-0.016c0.109-0.009,0.22-0.02,0.336-0.033c0.115-0.013,0.224-0.028,0.325-0.043
	c0.07-0.011,0.134-0.021,0.189-0.03l-0.009,0.045c-0.042,0.218-0.094,0.397-0.154,0.541c-0.06,0.144-0.142,0.256-0.247,0.341
	c-0.104,0.084-0.235,0.146-0.393,0.183c-0.158,0.039-0.352,0.058-0.578,0.058c-0.139,0-0.29-0.005-0.452-0.015
	c-0.163-0.01-0.327-0.02-0.49-0.029c-0.162-0.01-0.313-0.021-0.452-0.033c-0.139-0.014-0.253-0.025-0.342-0.037h-0.017h-0.022
	c-0.062,0-0.121,0.012-0.168,0.046c-0.049,0.031-0.082,0.083-0.097,0.145l-0.056,0.281v0.005v0.006h0.001
	c-0.015,0.021-0.01,0.034-0.011,0.047c0.001,0.105,0.09,0.17,0.213,0.203c0.143,0.04,0.371,0.078,0.685,0.116
	c0.315,0.04,0.673,0.06,1.071,0.06c0.377,0,0.708-0.03,0.99-0.089c0.283-0.059,0.529-0.163,0.733-0.312
	c0.205-0.15,0.374-0.354,0.506-0.606c0.132-0.255,0.232-0.571,0.302-0.947l0.94-4.936v-0.005c0-0.01,0.001-0.017,0.001-0.017
	c0.005-0.019,0.01-0.035,0.01-0.053C104.696,102.684,104.598,102.617,104.469,102.593 M102.894,107.008
	c-0.075,0.017-0.159,0.03-0.251,0.042c-0.108,0.013-0.216,0.023-0.323,0.035c-0.107,0.009-0.21,0.014-0.31,0.017
	c-0.102,0.005-0.189,0.007-0.265,0.007c-0.393,0-0.677-0.071-0.853-0.203c-0.175-0.128-0.268-0.366-0.269-0.727
	c0-0.093,0.005-0.2,0.015-0.314c0.011-0.114,0.03-0.234,0.057-0.361l0.137-0.708c0.11-0.561,0.301-0.968,0.565-1.226
	c0.265-0.257,0.631-0.387,1.109-0.388c0.221,0,0.43,0.011,0.631,0.032c0.179,0.021,0.332,0.042,0.461,0.064L102.894,107.008z
	 M120.594,101.384v-0.043c0-0.124-0.088-0.202-0.215-0.202h-0.532c-0.067-0.003-0.132,0.022-0.187,0.068
	c-0.056,0.042-0.094,0.097-0.11,0.16l-0.054,0.421v0.044c0,0.124,0.09,0.203,0.216,0.203h0.534c0.067,0,0.129-0.026,0.185-0.067
	c0.055-0.044,0.094-0.099,0.111-0.162 M99.705,103.211c0.157,0.003,0.275-0.068,0.297-0.204l0.074-0.407l0.002-0.004v-0.043
	c-0.001-0.121-0.104-0.184-0.237-0.184h-0.021c-0.248,0-0.499,0.03-0.752,0.087c-0.23,0.055-0.47,0.167-0.724,0.338l0.021-0.106
	v-0.003v-0.045c0-0.121-0.084-0.202-0.205-0.202h-0.491c-0.066-0.001-0.13,0.023-0.182,0.07c-0.051,0.042-0.089,0.097-0.104,0.158
	l-0.931,4.939v0.045c0,0.12,0.083,0.201,0.205,0.201h0.513c0.067,0,0.129-0.023,0.185-0.067c0.055-0.044,0.094-0.1,0.111-0.161
	l0.759-4.033c0.246-0.14,0.475-0.237,0.684-0.294c0.215-0.057,0.469-0.086,0.767-0.086L99.705,103.211L99.705,103.211z
	 M117.274,103.25h1.088c0.067,0,0.131-0.025,0.183-0.071c0.052-0.044,0.088-0.098,0.104-0.159l0.064-0.332v-0.003v-0.046
	c0-0.122-0.088-0.201-0.215-0.201h-1.069l0.146-0.812v-0.034c0-0.105-0.069-0.184-0.175-0.184h-0.03l-0.561,0.077
	c-0.144,0.019-0.248,0.103-0.27,0.232l-0.128,0.719l-0.694,0.019c-0.063,0-0.125,0.02-0.175,0.058
	c-0.051,0.039-0.085,0.091-0.101,0.151l-0.054,0.265v0.005v0.033c-0.004,0.111,0.088,0.186,0.209,0.193l0.663,0.082l-0.631,3.325
	c-0.013,0.077-0.022,0.145-0.029,0.199c-0.007,0.059-0.011,0.121-0.011,0.187c-0.002,0.346,0.126,0.606,0.38,0.752
	c0.246,0.144,0.551,0.215,0.909,0.215c0.1,0,0.208-0.005,0.327-0.016c0.119-0.008,0.232-0.02,0.337-0.033
	c0.083-0.014,0.143-0.033,0.184-0.071c0.035-0.033,0.06-0.078,0.076-0.129l0.063-0.351l0.001-0.004v-0.043
	c0.002-0.054-0.019-0.112-0.075-0.13c-0.033-0.013-0.073-0.018-0.119-0.018h-0.637c-0.163,0-0.281-0.016-0.346-0.044
	c-0.051-0.02-0.086-0.08-0.086-0.215c0-0.065,0.01-0.159,0.031-0.272L117.274,103.25z M130.935,102.786
	c-0.001-0.109-0.098-0.169-0.227-0.193c-0.265-0.065-0.559-0.119-0.88-0.161s-0.641-0.062-0.957-0.062s-0.624,0.038-0.919,0.112
	c-0.298,0.075-0.569,0.2-0.815,0.376c-0.245,0.175-0.457,0.404-0.634,0.69s-0.309,0.643-0.395,1.064l-0.186,0.958
	c-0.043,0.202-0.064,0.398-0.063,0.59c0,0.3,0.043,0.563,0.133,0.786c0.091,0.223,0.211,0.406,0.36,0.549
	c0.152,0.145,0.331,0.251,0.536,0.32c0.203,0.069,0.418,0.104,0.647,0.104c0.176,0,0.334-0.012,0.478-0.034
	c0.142-0.022,0.278-0.059,0.409-0.11c0.132-0.048,0.264-0.108,0.394-0.182c0.104-0.056,0.215-0.122,0.333-0.199l-0.034,0.19v0.025
	v0.04c-0.001,0.053,0.014,0.102,0.04,0.137c0.037,0.051,0.098,0.064,0.167,0.065h0.417c0.067,0,0.13-0.024,0.182-0.069
	c0.052-0.044,0.088-0.099,0.104-0.159l0.899-4.752C130.931,102.852,130.935,102.821,130.935,102.786 M129.205,106.565
	c-0.283,0.174-0.539,0.308-0.768,0.401c-0.231,0.094-0.466,0.143-0.702,0.143c-0.241-0.003-0.442-0.072-0.611-0.213
	c-0.16-0.133-0.248-0.379-0.248-0.746c0-0.069,0.003-0.144,0.009-0.218c0.008-0.077,0.018-0.149,0.031-0.218l0.188-0.996
	c0.097-0.509,0.285-0.891,0.561-1.149c0.273-0.256,0.674-0.388,1.208-0.388c0.222,0,0.409,0.01,0.562,0.028l0.008-0.049
	l-0.007,0.049c0.138,0.017,0.269,0.036,0.394,0.059L129.205,106.565z M135.382,102.697c0.004-0.107-0.08-0.186-0.195-0.201
	c-0.113-0.02-0.218-0.038-0.314-0.054c-0.1-0.017-0.207-0.03-0.323-0.04c-0.115-0.01-0.243-0.018-0.388-0.023
	c-0.143-0.007-0.315-0.01-0.52-0.01c-0.259,0-0.521,0.022-0.784,0.068c-0.266,0.046-0.503,0.128-0.708,0.248
	c-0.206,0.118-0.376,0.278-0.507,0.475c-0.134,0.198-0.199,0.452-0.199,0.745c0,0.451,0.307,0.855,0.891,1.212l0.952,0.572
	c0.244,0.141,0.406,0.262,0.479,0.354c0.076,0.1,0.112,0.193,0.112,0.291c0,0.15-0.032,0.269-0.092,0.366
	c-0.063,0.099-0.145,0.178-0.245,0.233c-0.103,0.06-0.223,0.104-0.361,0.131c-0.14,0.029-0.285,0.044-0.434,0.044
	c-0.089,0-0.201-0.003-0.336-0.01c-0.137-0.008-0.278-0.014-0.427-0.024c-0.15-0.01-0.298-0.021-0.442-0.035
	c-0.147-0.012-0.282-0.024-0.406-0.038h-0.068c-0.124-0.004-0.224,0.066-0.246,0.184l-0.062,0.34v0.005v0.032
	c-0.003,0.062,0.022,0.121,0.073,0.153c0.04,0.025,0.086,0.043,0.14,0.059c0.122,0.027,0.254,0.051,0.396,0.068
	c0.144,0.021,0.29,0.035,0.438,0.045c0.146,0.01,0.289,0.017,0.428,0.024c0.142,0.006,0.267,0.009,0.379,0.009
	c0.288,0,0.569-0.027,0.844-0.082c0.277-0.056,0.521-0.149,0.732-0.277c0.215-0.13,0.386-0.303,0.513-0.515
	c0.13-0.215,0.193-0.483,0.193-0.799c0-0.222-0.066-0.434-0.199-0.626c-0.135-0.198-0.382-0.404-0.743-0.624l-0.941-0.57
	c-0.182-0.109-0.32-0.211-0.416-0.304c-0.09-0.09-0.131-0.185-0.132-0.293c0-0.135,0.032-0.237,0.094-0.313
	c0.064-0.081,0.147-0.146,0.248-0.195c0.104-0.048,0.218-0.084,0.343-0.103c0.126-0.018,0.247-0.027,0.363-0.027
	c0.291,0,0.574,0.007,0.848,0.022c0.273,0.018,0.501,0.036,0.681,0.055h0.037c0.133,0.005,0.235-0.075,0.255-0.204l0.053-0.319
	l-0.047-0.009h0.048L135.382,102.697L135.382,102.697z M125.214,102.82c-0.131-0.142-0.299-0.253-0.504-0.332
	c-0.205-0.081-0.45-0.119-0.732-0.119c-0.36,0-0.671,0.046-0.933,0.139c-0.232,0.08-0.46,0.177-0.686,0.288l0.018-0.11v-0.047
	c0-0.048-0.017-0.095-0.048-0.135c-0.035-0.049-0.094-0.067-0.156-0.066h-0.514c-0.067-0.001-0.13,0.023-0.182,0.068
	s-0.088,0.099-0.104,0.16l-0.932,4.939v0.043c0,0.05,0.018,0.096,0.048,0.136c0.034,0.047,0.09,0.066,0.153,0.066h0.516
	c0.067,0.002,0.132-0.023,0.188-0.067c0.054-0.042,0.094-0.099,0.11-0.16l0.769-4.061c0.321-0.142,0.589-0.234,0.803-0.282
	c0.22-0.047,0.428-0.07,0.626-0.07c0.378,0,0.626,0.066,0.738,0.181c0.121,0.118,0.183,0.283,0.185,0.507
	c0,0.074-0.005,0.158-0.017,0.251c-0.009,0.092-0.021,0.183-0.035,0.272l-0.606,3.185v0.043c0,0.124,0.09,0.202,0.216,0.202h0.502
	c0.066,0.002,0.129-0.023,0.186-0.066c0.056-0.043,0.095-0.1,0.109-0.161l0.608-3.185c0.034-0.184,0.052-0.362,0.052-0.533
	c0-0.21-0.03-0.408-0.092-0.595C125.439,103.124,125.344,102.959,125.214,102.82 M114.582,102.819
	c-0.131-0.141-0.299-0.252-0.504-0.332c-0.203-0.08-0.448-0.118-0.731-0.118c-0.358,0-0.67,0.046-0.935,0.139
	c-0.23,0.08-0.457,0.177-0.683,0.288l0.016-0.109v-0.048c0.002-0.049-0.016-0.095-0.045-0.135c-0.036-0.049-0.095-0.068-0.159-0.066
	h-0.512c-0.066,0-0.13,0.023-0.184,0.068c-0.05,0.044-0.087,0.098-0.103,0.161l-0.931,4.938v0.045c0,0.048,0.017,0.096,0.046,0.134
	c0.036,0.048,0.094,0.066,0.156,0.066h0.514c0.067,0,0.132-0.023,0.188-0.066c0.055-0.045,0.092-0.101,0.11-0.161l0.769-4.06
	c0.322-0.144,0.59-0.236,0.802-0.282c0.221-0.048,0.429-0.071,0.628-0.071c0.377,0,0.623,0.066,0.737,0.181
	c0.122,0.119,0.184,0.283,0.185,0.507c0,0.075-0.006,0.158-0.017,0.251c-0.009,0.093-0.021,0.184-0.035,0.272l-0.605,3.185v0.045
	c0,0.122,0.09,0.2,0.215,0.2h0.5c0.069,0,0.132-0.023,0.188-0.067c0.055-0.042,0.094-0.099,0.11-0.16l0.606-3.185
	c0.034-0.184,0.053-0.362,0.053-0.532c0-0.211-0.03-0.408-0.091-0.596C114.808,103.127,114.714,102.959,114.582,102.819
	 M109.206,102.905c-0.165-0.166-0.369-0.297-0.611-0.392c-0.243-0.098-0.531-0.145-0.862-0.145
	c-0.754-0.001-1.374,0.208-1.854,0.625c-0.479,0.419-0.798,1.021-0.96,1.802l-0.136,0.678c-0.041,0.215-0.064,0.419-0.064,0.609
	c0,0.333,0.06,0.62,0.185,0.854c0.121,0.231,0.281,0.421,0.479,0.567c0.195,0.146,0.42,0.251,0.673,0.316
	c0.25,0.065,0.503,0.098,0.764,0.098h0.006c0.356,0,0.672-0.015,0.949-0.042c0.277-0.029,0.571-0.07,0.886-0.121
	c0.094-0.015,0.163-0.035,0.209-0.084c0.042-0.042,0.065-0.1,0.081-0.177l0.063-0.33v-0.005v-0.043c0-0.094-0.086-0.145-0.184-0.145
	h-0.062c-0.25,0.031-0.534,0.062-0.861,0.092c-0.326,0.029-0.641,0.044-0.945,0.044c-0.397,0-0.706-0.08-0.927-0.234
	c-0.22-0.15-0.328-0.395-0.33-0.753c0-0.088,0.006-0.18,0.017-0.274c0.011-0.094,0.031-0.193,0.065-0.3l0.021-0.083h3.459
	c0.085,0,0.156-0.022,0.2-0.075c0.038-0.047,0.062-0.106,0.078-0.175l0.083-0.408c0.042-0.208,0.062-0.405,0.062-0.59
	c0.002-0.256-0.038-0.496-0.116-0.722S109.372,103.072,109.206,102.905 M108.613,104.708l-0.002,0.011h-2.667
	c0.047-0.218,0.119-0.415,0.212-0.596c0.096-0.184,0.212-0.343,0.352-0.482c0.139-0.137,0.297-0.243,0.48-0.318
	c0.182-0.074,0.384-0.111,0.608-0.111c0.737,0.008,1.071,0.312,1.078,0.977C108.675,104.344,108.654,104.518,108.613,104.708
	 M120.09,102.582h-0.501c-0.067,0-0.132,0.023-0.187,0.067c-0.055,0.043-0.094,0.099-0.111,0.16l-0.894,4.796v0.045
	c0,0.122,0.089,0.2,0.215,0.2h0.504c0.065,0,0.13-0.023,0.184-0.066c0.056-0.045,0.093-0.1,0.111-0.161l0.894-4.794v-0.046
	C120.304,102.66,120.215,102.582,120.09,102.582 M95.079,101.526c-0.065-0.104-0.15-0.189-0.25-0.252
	c-0.097-0.061-0.203-0.104-0.315-0.125c-0.107-0.021-0.212-0.03-0.315-0.03c-0.105,0-0.216,0.013-0.333,0.036
	c-0.121,0.023-0.239,0.066-0.353,0.124c-0.118,0.06-0.228,0.14-0.328,0.241c-0.102,0.103-0.194,0.231-0.273,0.386l-3.074,5.583
	c-0.022,0.041-0.033,0.089-0.033,0.14c0,0.06,0.021,0.127,0.071,0.17c0.05,0.04,0.111,0.054,0.173,0.054h0.636
	c0.065,0,0.127-0.022,0.184-0.058c0.055-0.037,0.102-0.085,0.125-0.145l1.058-2.167h2.557l0.25,2.14
	c0.01,0.056,0.029,0.104,0.059,0.146c0.042,0.059,0.112,0.083,0.178,0.083h0.633c0.074,0,0.149-0.021,0.203-0.075
	c0.053-0.056,0.071-0.129,0.071-0.205v-0.046l-0.789-5.596C95.192,101.77,95.147,101.635,95.079,101.526 M92.49,104.582l1.329-2.396
	c0.05-0.096,0.179-0.112,0.254-0.108c0.164,0.008,0.181,0.108,0.181,0.108l0.281,2.396H92.49z"/>
<path fill="#0081C6" d="M132.087,91.087c-2.048,0.354-4.827,0.618-6.922,1.245c-0.031,0.009-0.026,0.026,0.008,0.025
	c5.053-0.151,10.523-0.126,14.61,0.011c0.009,0,0.023-0.019,0.022-0.028c-0.098-0.483-0.474-1.031-1.607-1.025h-0.654
	c0,0-0.017,0.012-0.015,0.018c0.185,0.463-0.332,0.769-0.666,0.489c-0.141-0.119-0.281-0.41,0.077-0.662
	c0.264-0.186,0.68-0.458,0.922-0.61c0.865-0.549,0.744-1.337-0.405-1.425c-2.774-0.21-7.732-0.493-9.693-0.65
	c-0.044-0.003-0.068,0.028-0.038,0.045c1.62,0.878,3.096,0.958,4.715,1.562C133.363,90.425,133.181,90.896,132.087,91.087"/>
</svg>
