<?xml version="1.0" encoding="utf-8"?>
<!-- Generator: Adobe Illustrator 16.2.1, SVG Export Plug-In . SVG Version: 6.00 Build 0)  -->
<!DOCTYPE svg PUBLIC "-//W3C//DTD SVG 1.1//EN" "http://www.w3.org/Graphics/SVG/1.1/DTD/svg11.dtd">
<svg version="1.1" id="Layer_1" xmlns="http://www.w3.org/2000/svg" xmlns:xlink="http://www.w3.org/1999/xlink" x="0px" y="0px"
	 width="50px" height="50px" viewBox="301.288 73.065 50 50" enable-background="new 301.288 73.065 50 50" xml:space="preserve">
<g>
	<path fill="#172D5C" d="M314.127,94.379c0.052-0.27-0.263-0.134-0.51-0.062c-2.062,0.593-5.878,2.962-6.082,3.165l-4.477,0.395
		c0,0-0.125,0.271-0.584,0.397c-0.501,0.136-1.187,1.02-1.187,1.02s1.438-0.552,1.813-0.521c0.375,0.032,0.718-0.052,0.718-0.052
		s0.018-0.129,0.551-0.178c0.229-0.021,0.396-0.145,0.5-0.125c0.104,0.021,0.188-0.145,0.312-0.145c0.125,0,0.271,0.104,0.271,0.104
		s0.229-0.084,0.334-0.104c0.104-0.021,0.166-0.021,0.25-0.021c0.083,0,0.229-0.188,0.312-0.188c0.083,0,0.145,0,0.145,0
		s-1.354,0.854-2.145,1.376c-0.791,0.521-1.77,1.373-2.103,1.582c-0.333,0.209,0.085,0.275,0.333,0.166
		c0.333-0.146,0.438-0.041,0.604-0.103c0.166-0.063,0.166-0.209,0.291-0.231c0.125-0.02,0.375,0,0.667-0.145
		c0.292-0.146,0.167-0.188,0.292-0.313c0.125-0.124,0.229-0.062,0.416-0.186c0.188-0.126,0.458-0.438,0.646-0.542
		c0.187-0.104,0.187,0,0.333-0.104c0.146-0.104,0.333-0.396,0.458-0.457c0.125-0.062,0.208,0.062,0.312-0.022
		c0.104-0.083,0.25-0.229,0.375-0.249c0.125-0.021-0.041-0.083,0.104-0.208c0.146-0.125,0.417-0.334,0.542-0.396
		c0.125-0.062,0.292-0.187,0.375-0.208c0.083-0.021,0.187,0.021,0.312,0c0.125-0.021,0.228-0.146,0.292-0.125
		c0.062,0.021,0.146,0.125,0.292,0.104s0.187-0.041,0.333-0.062c0.146-0.021,0.583,0.021,0.583,0.021s0.209-0.146,0.293-0.188
		c0.082-0.041-0.063-0.145,0.02-0.207c0.083-0.063,0.167-0.188,0.312-0.229c0.146-0.042,0.25-0.146,0.062-0.125
		c-0.187,0.021-0.646,0.166-0.979,0.187c-0.333,0.021-0.416-0.021-0.416-0.021c0.187-0.146,0.187-0.229,0.416-0.291
		c0.229-0.063,0.333-0.104,0.333-0.104s-0.021-0.167,0.084-0.188c0.104-0.021,0.125,0.042,0.249,0
		c0.126-0.042,0.208-0.146,0.334-0.208c0.125-0.062,0.208-0.104,0.208-0.104s-0.083-0.104,0.042-0.166
		c0.125-0.063,0.208-0.041,0.208-0.041s0.271-0.271,0.458-0.354c0.188-0.083,0.229-0.167,0.333-0.229
		c0.104-0.064,0.042,0.041,0.271-0.104c0.229-0.146,0.437-0.104,0.687-0.229c0.25-0.124,0.729-0.188,0.833-0.25
		c0.104-0.063,0.521-0.729,0.521-0.729H314.127L314.127,94.379z"/>
	<path fill="#172D5C" d="M313.179,95.358c-0.246,0.041-0.562,0.125-0.562,0.125s-1.438,1.562-2.25,2.581
		c-0.812,1.021-2.187,3.104-2.187,3.104s1.167-0.334,1.292-0.438c0.125-0.105,0.292-0.105,0.438-0.167
		c0.146-0.062,0.396-0.168,0.396-0.168s0.104-0.124,0.02-0.145c-0.082-0.021-0.125,0-0.333,0.062c-0.208,0.062-0.271,0-0.146-0.146
		c0.125-0.145,0.167-0.249,0.25-0.333c0.083-0.083-0.063-0.125,0.02-0.208s0.126-0.104,0.229-0.187
		c0.104-0.084-0.063-0.042,0.083-0.188s0.229-0.208,0.313-0.292c0.083-0.084,0-0.104,0.083-0.208
		c0.083-0.105,0.312-0.293,0.396-0.375c0.083-0.084-0.021-0.084,0.021-0.166c0.041-0.085,0.083-0.104,0.146-0.147
		c0.062-0.041,0-0.124,0-0.124s0.5-0.375,0.604-0.499c0.104-0.127-0.083-0.085,0.042-0.188s0.021-0.041,0.167-0.166
		c0.146-0.125,0.208-0.229,0.208-0.334c0-0.104,0-0.166,0.104-0.25c0.104-0.083,0.398-0.16,0.416-0.27
		c0.021-0.126,0.25-0.438,0.396-0.562C313.471,95.545,313.555,95.294,313.179,95.358L313.179,95.358z"/>
	<path fill="#172D5C" d="M315.783,94.587c-0.25,0.042-1.062,0.166-1.312,0.188c-0.25,0.021-0.188,0.166-0.021,0.166
		s0.333-0.021,0.125,0.188c-0.208,0.207-2.707,3.477-3.353,4.58s-0.938,1.438-0.604,1.354c0.333-0.083,1.187-0.438,1.437-0.521
		c0.25-0.084,0.125-0.229,0-0.188c-0.125,0.04-0.333,0.124-0.229-0.104c0.105-0.229,0.521-1.041,0.604-1.041
		c0.084,0,0.146-0.042,0.229-0.209c0.084-0.166,0.125-0.312,0.208-0.396c0.083-0.083,0-0.062,0.105-0.188
		c0.104-0.125,0.27-0.207,0.375-0.292c0.104-0.083-0.042-0.124,0.042-0.25c0.083-0.124,0.25-0.457,0.416-0.562
		c0.167-0.104,0.125-0.146,0.167-0.271c0.042-0.125-0.041-0.022,0.188-0.208c0.229-0.188,1.059-1.143,0.979-1.249
		c-0.063-0.083-0.085-0.122,0.104-0.083c0.104,0.02,0.25-0.271,0.25-0.271c-0.125-0.104,0-0.104,0.083-0.104
		s0.167-0.292,0.271-0.396C315.949,94.629,315.783,94.587,315.783,94.587L315.783,94.587z"/>
	<path fill="#172D5C" d="M317.324,97.294c-0.042,0.083-0.062,0.104-0.167,0.208s-0.292,0.396-0.292,0.396s-0.062,0.104-0.166,0.125
		c-0.104,0.021,0.083,0.104-0.042,0.208c-0.125,0.105-0.645,0.938-0.645,1.041c0,0.104-0.063,0.146-0.167,0.126
		c-0.104-0.021-0.042,0.103-0.021,0.166c0.021,0.062-0.125,0.188-0.271,0.333c-0.146,0.146-0.229,0.437-0.229,0.437s0.104,0,0.249,0
		s0.104,0.126,0.104,0.126s-0.27,0.021-0.583,0.208c-0.312,0.187-0.625,0.334-0.708,0.374c-0.083,0.044-0.083-0.083-0.083-0.083
		s0.603-1.29,0.686-1.458c0.083-0.166,0.042-0.166-0.062-0.061c-0.388,0.388-1.562,1.646-2,1.646c-0.208,0-0.25-0.147-0.25-0.335
		c0-0.812,1.104-2.582,2.042-3.164c0.552-0.345,1.689-0.334,2.416-0.438C317.137,97.149,317.366,97.211,317.324,97.294
		L317.324,97.294L317.324,97.294z M316.013,97.586c-0.334,0.021-0.5-0.042-0.812,0.271c-0.312,0.312-0.625,0.729-0.792,0.832
		c-0.167,0.104-0.188,0.334-0.229,0.438c-0.042,0.103-0.062-0.021-0.167,0.103c-0.104,0.126-0.062,0.23-0.188,0.334
		c-0.125,0.104-0.125,0.062-0.187,0.229c-0.062,0.167-0.104,0.062-0.146,0.207c-0.042,0.146-0.208,0.543,0.208,0.21
		c0.417-0.333,0.938-0.812,1.354-1.25c0.417-0.438,0.979-1.125,1.062-1.25C316.2,97.586,316.013,97.586,316.013,97.586
		L316.013,97.586z"/>
	<path fill="#172D5C" d="M319.282,97.065c-0.181,0.052-0.125,0.084-0.396,0.084c-0.271,0-0.124-0.084-0.312-0.084
		c-0.188,0-0.208,0-0.271,0.146c-0.063,0.146-1.333,1.499-1.521,1.645c-0.187,0.146-0.541,0.875-0.083,0.771
		c0.458-0.104,0.417-0.083,0.562-0.104c0.145-0.021,0.163,0.037-0.062,0.229c-0.292,0.249-1.833,1.541-2,1.562
		c-0.167,0.021-0.25,0.125-0.209,0.438c0.042,0.312,0.125,0.417,0.125,0.417s0.59-0.525,0.75-0.479
		c0.146,0.041,0.104-0.146,0.229-0.208c0.124-0.063,0-0.084,0.188-0.124c0.188-0.043,0.291-0.063,0.333-0.168
		c0.042-0.103,0.062-0.229,0.209-0.291c0.146-0.062,0.25-0.084,0.27-0.146c0.021-0.062-0.083-0.125,0.167-0.146
		c0.25-0.021,0.083-0.125,0.208-0.271c0.125-0.146,0.229-0.146,0.458-0.333c0.23-0.186,0.333-0.207,0.375-0.27
		c0.042-0.062,0.042-0.146,0.042-0.146s0.104,0.041,0.229-0.063c0.125-0.104,0.312-0.27,0.458-0.457
		c0.146-0.188,0.062-0.479-0.021-0.479s-0.479,0.123-0.792,0.249c-0.313,0.125-0.604,0.104-0.604,0.104s0.354-0.458,0.541-0.584
		c0.188-0.125,0.104-0.166,0.208-0.271c0.104-0.104,0.312-0.25,0.438-0.354s0.166-0.043,0.125-0.125
		c-0.042-0.084,0.041-0.041,0.187-0.105c0.146-0.061,0.292-0.104,0.312-0.207C319.448,97.191,319.427,97.023,319.282,97.065
		L319.282,97.065z"/>
	<path fill="#172D5C" d="M325.467,98.064c0.042-0.082,0-0.103,0.125-0.291c0.125-0.187,0.25-0.396,0.354-0.521
		c0.104-0.125-0.125-0.125-0.125-0.125c-0.333,0.021-1.417-0.02-1.625,0c-0.208,0.021-0.938,0.209-1.833,1.271
		c-0.095,0.112-0.181,0.222-0.256,0.33c-0.229-0.021-0.62-0.206-0.764-0.227c-0.147-0.021-0.147-0.084-0.147-0.084
		s0.209-0.062,0.333-0.104c0.125-0.04,0.125-0.166,0.292-0.187s0.167-0.104,0.25-0.166c0.083-0.063,0.145-0.042,0.229-0.085
		c0.084-0.041,0.375-0.311,0.542-0.354c0.167-0.041,0.542-0.208,0.542-0.208s0.146-0.146-0.187-0.125
		c-0.334,0.021-0.604-0.021-0.854,0c-0.249,0.021-0.354-0.041-0.458,0.125c-0.104,0.167-0.167,0.041-0.271,0.146
		c-0.104,0.105-0.125,0.209-0.27,0.271c-0.147,0.062-0.125,0-0.229,0.145c-0.104,0.146-0.125,0.168-0.25,0.23
		c-0.125,0.062-0.022-0.104-0.022-0.104s0.229-0.438,0.292-0.583c0.062-0.146,0-0.146,0.187-0.229
		c0.188-0.082,0.646-0.792,0.688-0.874c0.042-0.083-0.083-0.104,0.062-0.209c0.145-0.104,0.228-0.312,0.333-0.416
		c0.104-0.104-0.042-0.167,0.125-0.249c0.167-0.084,0.229-0.125,0.333-0.251c0.104-0.124,0.208-0.291,0.208-0.291
		s0.041-0.271-0.208-0.125c-0.228,0.134-0.375,0.125-0.666,0.188c-0.291,0.062-0.563,0.104-0.646,0.125s-0.229,0.083-0.125,0.187
		c0.104,0.104,0.437-0.166,0.291,0.104c-0.146,0.271-1.145,1.729-1.624,2.437c-0.479,0.707-1.75,2.998-1.916,3.207
		c-0.167,0.208-0.021,0.229,0.125,0.166s0.811-0.479,1.082-0.541c0.271-0.063,0.396-0.167,0.229-0.167s-0.458-0.021-0.291-0.166
		c0.167-0.146,0.229-0.168,0.208-0.229c-0.021-0.062,0-0.084,0.063-0.084c0.062,0,0.25-0.166,0.167-0.229
		c-0.083-0.062-0.021-0.155,0.042-0.146c0.25,0.043,0.167-0.312,0.292-0.479c0.125-0.167,0.167-0.312,0.167-0.312
		s0.75,0.166,0.895,0.291c0.146,0.126,0.104,0.021,0.188,0c0.083-0.021,0.187,0.146,0.25,0.167c0.042,0.014,0.122,0.018,0.17,0.021
		c-0.305,0.637-0.318,1.126-0.336,1.312c-0.021,0.209,0.02,0.479,0.354,0.312c0.283-0.141,1.236-0.803,1.584-1.13
		c0.01,0.004,0.021,0.008,0.03,0.012c-0.191,0.337-0.579,1.032-0.637,1.118c-0.083,0.125-0.124,0.23,0.042,0.167
		s0.416-0.271,0.603-0.271c0.188,0,0.292,0,0.292,0s0-0.229,0.167-0.418c0.04-0.043,0.119-0.162,0.218-0.322
		c0.012,0.004,0.022,0.009,0.031,0.011c0.188,0.062,0.188,0.041,0.458,0.125c0.271,0.084,0.354,0.146,0.479,0
		c0.125-0.146,0.083-0.166,0.208-0.229c0.124-0.062-0.063-0.104,0.104-0.207c0.166-0.105,0.187-0.125,0.354-0.25
		c0.166-0.125,0.249-0.563,0.02-0.396c-0.229,0.167-0.291,0.375-0.5,0.375c-0.153,0-0.441-0.101-0.69-0.18
		c0.241-0.392,0.469-0.753,0.545-0.82c0.167-0.145,0.02-0.145,0.145-0.27C325.363,98.127,325.425,98.148,325.467,98.064
		L325.467,98.064L325.467,98.064z M322.427,100.147c-0.271,0.146-0.167,0.063-0.146-0.062c0.02-0.124,0.02-0.229,0.125-0.375
		c0.049-0.067,0.098-0.113,0.136-0.158c0.065,0.018,0.12,0.028,0.156,0.034c0.149,0.016,0.271,0.058,0.315,0.075
		c-0.027,0.051-0.057,0.106-0.107,0.174C322.781,100,322.697,100,322.427,100.147L322.427,100.147L322.427,100.147z M324.613,97.961
		c-0.208,0.229-0.833,1.019-0.896,1.04c-0.017,0.005-0.053,0.034-0.101,0.076c-0.034-0.005-0.069-0.01-0.107-0.013
		c-0.18-0.019-0.422-0.08-0.658-0.145c0.075-0.106,0.146-0.198,0.179-0.231c0.083-0.083,0.083-0.124,0.104-0.207
		s0.104,0.021,0.188-0.083c0.083-0.105,0.229-0.313,0.25-0.417c0.021-0.105,0.167-0.105,0.292-0.146
		c0.125-0.041,0.27-0.291,0.416-0.375c0.146-0.083,0.667,0.021,0.667,0.021C325.071,97.524,324.821,97.732,324.613,97.961
		L324.613,97.961z"/>
	<path fill="#172D5C" d="M337.775,93.962c-0.708,0-4.311,1.812-6.539,3.229c-1.104,0-3.144,0.083-3.603,0.291
		c-0.458,0.207-1.666,1.146-1.812,1.271c-0.146,0.124,0.021,0.124,0.146,0.04c0.125-0.082,0.25-0.02,0.375-0.04
		c0.125-0.021,0.104-0.084,0.208-0.125c0.104-0.041,0.146,0.041,0.25,0s0.083-0.125,0.292-0.168c0.207-0.041,0.332-0.082,0.52-0.146
		c0.188-0.062,0.167-0.124,0.271-0.083c0.104,0.043,0.187,0.021,0.271,0c0.083-0.02,0.167-0.104,0.291-0.104
		c0.125,0,0.209,0.021,0.438-0.063c0.229-0.082,0.375-0.124,0.583-0.145c0.207-0.021,0.083,0,0.249,0.021
		c0.167,0.021,0.104-0.104,0.229-0.104c0.125,0,0.208,0.021,0.084,0.104c-0.127,0.083-4.029,2.597-4.311,2.831
		c-0.125,0.105-0.105,0.313,0.083,0.271c0.188-0.04,0.229-0.165,0.396-0.165s0.353,0.021,0.541-0.022
		c0.188-0.041,0.501-0.165,0.563-0.271c0.063-0.104,0.146-0.04,0.417-0.062c0.271-0.021,0.25-0.062,0.375-0.271
		c0.125-0.209,0.042-0.187,0.333-0.312c0.292-0.124,0.354-0.042,0.459-0.124c0.104-0.084,0-0.105,0.124-0.168
		c0.125-0.062,0.083-0.021,0.188-0.166c0.104-0.146,0.228-0.251,0.375-0.271c0.145-0.021,0.083-0.083,0.187-0.166
		c0.104-0.084,0.271-0.168,0.583-0.335c0.312-0.166,0.375-0.123,0.375-0.25c0-0.123,0.062-0.104,0.146-0.146
		c0.083-0.04,0.145-0.124,0.208-0.166c0.062-0.042,0.062-0.167,0.062-0.167s0.083,0.104,0.25,0.021
		c0.166-0.083,0.353-0.271,0.353-0.271s0.458-0.125,0.792-0.104c0.333,0.021,0.729,0.145,0.729,0.145s0.021,0.125,0.208-0.104
		c0.188-0.229,0.52-0.5,0.771-0.562c0.25-0.063,0.292-0.209,0.104-0.167c-0.188,0.041-1.333,0.146-1.416,0.124
		c-0.084-0.021,0.105-0.104,0.105-0.104l0.353-0.271c0,0-0.041,0.084,0.355-0.104c0.396-0.188,0.583-0.354,0.645-0.458
		c0.062-0.104,0.104-0.062,0.208-0.104c0.105-0.042,0.271-0.083,0.313-0.208c0.041-0.125,0.104-0.104,0.187-0.167
		c0.083-0.062,0.501-0.207,0.792-0.354c0.292-0.146,0.583-0.208,0.666-0.271c0.083-0.062,0.083-0.062,0.188-0.062
		c0.105,0,0.271,0,0.396-0.043c0.125-0.04,0.25-0.021,0.25-0.021s0.312-0.687,0.458-0.79
		C337.984,94.004,337.775,93.962,337.775,93.962L337.775,93.962z"/>
	<path fill="#172D5C" d="M337.088,95.087c-0.315,0.045-0.654-0.008-0.896,0.271c-1.771,2.04-3.539,4.161-3.999,5.081
		c-0.104,0.208-0.292,0.438,0.021,0.396c0.312-0.041,0.25-0.188,0.375-0.188c0.125,0,0.188,0.042,0.312,0.021
		c0.126-0.021,0.062-0.104,0.209-0.146c0.146-0.042,0.416-0.083,0.499-0.126c0.083-0.04,0.083-0.062,0.23-0.124
		c0.145-0.062,0.104-0.084,0.188-0.125s0.084-0.124-0.062-0.104c-0.146,0.022-0.125,0.042-0.271,0.022
		c-0.146-0.022-0.249-0.064-0.146-0.146c0.105-0.084-0.025-0.109,0.188-0.271c0.166-0.125,0.062-0.271,0.188-0.375
		c0.125-0.104,0.125-0.104,0.228-0.188c0.105-0.083,0.021-0.145,0.167-0.292c0.145-0.146,0.145-0.187,0.332-0.415
		c0.188-0.229,0.291-0.354,0.355-0.438c0.062-0.083,0.02-0.063,0.187-0.251c0.168-0.188,0.291-0.416,0.5-0.603
		c0.208-0.188,0.167-0.125,0.229-0.312c0.062-0.188,0.271-0.438,0.458-0.604c0.187-0.166,0.207-0.082,0.312-0.271
		c0.104-0.188,0.208-0.395,0.396-0.562C337.276,95.17,337.233,95.067,337.088,95.087L337.088,95.087z"/>
	<path fill="#172D5C" d="M337.943,96.066c-0.315,0.028-0.355,0.021-0.563,0.041c-0.208,0.021-0.104-0.041-0.271,0.168
		c-0.167,0.207-0.229,0.312-0.292,0.437c-0.062,0.125-0.104,0.146,0.063,0.166c0.166,0.021,0.291-0.02,0.478,0
		c0.188,0.021,0.146-0.041,0.25-0.166c0.105-0.125,0.105-0.292,0.105-0.292s0.125-0.083,0.25-0.167
		C338.087,96.169,338.171,96.045,337.943,96.066L337.943,96.066z"/>
	<path fill="#172D5C" d="M337.401,97.023c-0.23,0.059-1.229,0.229-1.375,0.271c-0.146,0.042-0.312,0.229-0.084,0.229
		c0.23,0,0.313-0.063,0.188,0.104c-0.125,0.166-1.811,2.789-1.998,2.977c-0.188,0.188-0.038,0.302,0.125,0.229
		c0.416-0.188,0.416-0.251,0.645-0.312c0.229-0.062,0.459-0.208,0.604-0.271c0.146-0.063,0.062-0.146-0.084-0.105
		c-0.145,0.042-0.291,0.042-0.145-0.081c0.145-0.126,0.271-0.418,0.374-0.521c0.104-0.104,0.167-0.125,0.167-0.229
		c0-0.104,0.021-0.124,0.104-0.207c0.083-0.084,0.146-0.062,0.208-0.188c0.064-0.126,0.126-0.396,0.251-0.5
		c0.124-0.104,0.146-0.104,0.229-0.166c0.083-0.062-0.021-0.126,0.042-0.208c0.062-0.083,0.124-0.042,0.375-0.334
		c0.25-0.291,0.145-0.25,0.271-0.396c0.124-0.146,0.188-0.104,0.229-0.188C337.568,97.045,337.568,96.982,337.401,97.023
		L337.401,97.023z"/>
	<path fill="#172D5C" d="M338.879,97.023c-0.31,0.172-0.937,0.354-1.208,0.438c-0.27,0.084-0.208,0.229-0.063,0.229
		c0.146,0,0.242,0.057,0.105,0.251c-0.542,0.771-1.52,2.354-1.709,2.624c-0.187,0.271-0.062,0.312,0.105,0.249
		c0.166-0.062,0.707-0.417,0.999-0.52c0.292-0.105,0.354-0.251,0.188-0.229c-0.167,0.02-0.229-0.064-0.146-0.146
		c0.082-0.084,0.042-0.25,0.146-0.333c0.104-0.085,0.062-0.063,0.229-0.229s0.834-0.938,1.292-1.188
		c0.458-0.249,0.688-0.271,0.792-0.374c0.104-0.105,0.084-0.188,0.146-0.271c0.062-0.082,0.041,0.021,0.186-0.208
		c0.147-0.229,0.168-0.354,0.188-0.416c0.022-0.062-0.104-0.084-0.249,0.042c-0.146,0.124-1.25,0.999-1.437,1.166
		s-0.228,0.124-0.083-0.062c0.146-0.188,0.187-0.292,0.187-0.292s0.084-0.021,0.146-0.063c0.062-0.04,0.083-0.207,0.083-0.207
		s0.125-0.229,0.188-0.333C339.025,97.045,339.066,96.919,338.879,97.023L338.879,97.023z"/>
	<path fill="#172D5C" d="M343.315,94.317c-0.345,0.115-1.083,0.146-1.271,0.229c-0.188,0.083-0.25,0.188-0.041,0.146
		c0.207-0.042,0.293-0.059,0.188,0.083c-1.625,2.166-3.791,5.226-4.02,5.705c-0.229,0.479-0.062,0.374,0.146,0.313
		c0.208-0.062,0.999-0.438,1.25-0.5c0.25-0.062,0.25-0.229,0.083-0.167c-0.168,0.062-0.542,0.084-0.396-0.062
		c0.146-0.146,0.563-0.75,0.625-0.875c0.061-0.124,0.167-0.21,0.167-0.21s-0.062-0.104,0.104-0.248
		c0.167-0.146,0.291-0.292,0.333-0.376c0.042-0.082,0.083-0.145,0.188-0.208c0.104-0.062,0.104-0.208,0.104-0.208
		s0.084-0.021,0.167-0.104c0.083-0.083-0.042-0.166,0.021-0.27c0.062-0.105,0.104-0.042,0.188-0.125
		c0.083-0.084,0.062-0.229,0.146-0.354c0.084-0.125,0.187-0.021,0.272-0.146c0.082-0.126,0.062-0.251,0.062-0.251
		s0.188-0.249,0.312-0.354c0.125-0.104,0.188-0.271,0.291-0.396c0.105-0.124,0.105-0.083,0.188-0.166
		c0.083-0.083,0.041-0.063,0.146-0.209c0.104-0.146,0.291-0.396,0.458-0.541c0.166-0.146,0.083-0.168,0.166-0.25
		c0.084-0.083,0.209-0.25,0.271-0.312C343.524,94.4,343.502,94.254,343.315,94.317L343.315,94.317z"/>
	<path fill="#172D5C" d="M343.627,96.045c-0.192,0-0.458,0.083-0.604,0.124c-0.146,0.043-0.167,0.105-0.229,0.209
		c-0.063,0.104-0.229,0.458-0.251,0.521c-0.02,0.062,0.064,0.104,0.146,0.062c0.083-0.042,0.438-0.23,0.563-0.271
		c0.125-0.041,0.02-0.104,0.125-0.229c0.104-0.125,0.207-0.229,0.333-0.333C343.835,96.024,343.753,96.045,343.627,96.045
		L343.627,96.045z"/>
	<path fill="#172D5C" d="M343.044,96.961c0,0-0.417,0.146-0.75,0.25s-0.583,0.166-0.646,0.187c-0.063,0.021-0.021,0.126,0.104,0.126
		s0.215,0.011,0.146,0.125c-0.292,0.479-1.062,1.645-1.396,2.039c-0.333,0.396-0.499,0.813-0.583,0.938
		c-0.083,0.125-0.125,0.229,0.084,0.125c0.207-0.104,0.937-0.479,1.145-0.52c0.209-0.043,0.209-0.085,0.312-0.085
		c0.105,0,0.105-0.166-0.062-0.146c-0.166,0.022-0.229,0-0.104-0.146c0.126-0.146,0.438-0.895,0.729-1.166
		c0.292-0.271,0.167-0.353,0.251-0.415c0.083-0.062,0.124-0.126,0.229-0.229c0.105-0.104,0.25-0.458,0.438-0.584
		c0.188-0.124,0-0.229,0.104-0.312C343.148,97.065,343.21,96.899,343.044,96.961L343.044,96.961z"/>
	<path fill="#172D5C" d="M344.689,97.086c-0.385,0.154-1.02,0.25-1.207,0.333c-0.188,0.082-0.209,0.167-0.062,0.146
		c0.146-0.021,0.25-0.021,0.146,0.104c-0.105,0.125-0.417,0.667-0.792,1.249c-0.376,0.582-0.979,1.604-1.104,1.749
		c-0.125,0.146-0.104,0.083,0.229,0.021c0.333-0.063,0.521-0.042,0.521-0.042c0.188-0.313,0.312-0.437,0.375-0.5
		c0.062-0.062,0.062-0.166,0.062-0.166s0.042,0.042,0.188-0.062c0.145-0.104,0.416-0.418,0.708-0.646
		c0.291-0.228,0.625-0.686,0.895-0.812c0.271-0.124,0.375-0.167,0.166,0.084c-0.207,0.249-0.207,0.312-0.312,0.5
		c-0.104,0.187-0.5,0.895-0.625,1.062c-0.125,0.166-0.166,0.541,0,0.499c0.167-0.041,0.292-0.146,0.521-0.229
		c0.229-0.083,0.209-0.043,0.437-0.146c0.229-0.104,0.209-0.146,0.292-0.208c0.083-0.062,0-0.146-0.125-0.084
		c-0.126,0.062-0.209,0.042-0.104-0.084c0.104-0.124-0.042-0.207,0.021-0.249c0.063-0.042,0.167-0.105,0.188-0.166
		c0.021-0.063-0.042-0.168,0.021-0.229c0.063-0.063,0.145-0.021,0.229-0.145c0.084-0.126,0.125-0.397,0.333-0.626
		c0.208-0.229,0.541-0.791,0.688-0.979c0.146-0.187,0.146-0.479,0.042-0.457c-0.105,0.02-0.292-0.021-0.438,0.062
		c-0.146,0.084-2.229,1.771-2.374,1.938c-0.146,0.167,0-0.146,0.104-0.292c0.104-0.146,0.271-0.312,0.332-0.396
		c0.062-0.082-0.062-0.124,0.021-0.207c0.084-0.084,0.166-0.125,0.25-0.25c0.083-0.125,0.187-0.396,0.333-0.521
		c0.146-0.125,0.166-0.125,0.208-0.188C344.898,97.086,344.898,97.003,344.689,97.086L344.689,97.086z"/>
	<path fill="#172D5C" d="M348.334,96.982c-0.416,0-1.25,0.209-1.958,1.437c-0.708,1.229-0.791,1.479-0.875,1.749
		c-0.083,0.271,0.125,0.604,0.396,0.563c0.145-0.022,0.917-0.584,1.103-0.666c0.188-0.085,0.167-0.064,0.292-0.126
		c0.125-0.062,0.145-0.188,0.209-0.251c0.062-0.062,0.083-0.041,0.271-0.207c0.188-0.167,0.312-0.167,0.333-0.271
		s-0.146-0.209-0.208-0.126c-0.062,0.084-0.708,0.479-0.833,0.584c-0.125,0.103-0.125,0.125-0.208,0.187
		c-0.083,0.063-0.187,0.168-0.354,0.168c-0.166,0-0.207-0.022-0.061-0.208c0.145-0.189,0.145-0.209,0.207-0.293
		c0.062-0.082,0.062-0.332,0.062-0.332s0.146,0.062,0.209-0.063c0.062-0.125-0.021-0.166,0.082-0.312
		c0.104-0.146,0.126-0.083,0.188-0.249c0.062-0.166,0.021-0.209,0.188-0.291c0.166-0.084,0.187-0.168,0.333-0.313
		c0.146-0.146,0.354-0.52,0.604-0.625c0.25-0.104,0.396-0.062,0.292,0.084c-0.104,0.146-0.354,0.375-0.5,0.5
		c-0.146,0.124-0.083,0.165-0.146,0.249s-0.062,0.084-0.271,0.209c-0.208,0.125-0.251,0.209-0.438,0.396
		c-0.187,0.188-0.27,0.292-0.124,0.334c0.145,0.04,0.208,0,0.375-0.127c0.166-0.124,0.25-0.271,0.312-0.374
		c0.062-0.104,0.208-0.146,0.291-0.25c0.084-0.104,0.084-0.145,0.146-0.188c0.062-0.042,0.188-0.104,0.271-0.207
		c0.083-0.104,0.104-0.292,0.229-0.354c0.124-0.062,0.209-0.021,0.229-0.292C349.004,96.989,348.334,96.982,348.334,96.982
		L348.334,96.982z"/>
	<path fill="#172D5C" d="M351.125,96.836c-0.109,0.026-0.103,0.021-0.271-0.021c-0.167-0.041-0.416-0.021-0.499,0
		c-0.084,0.021-0.188,0.104-0.293,0.25c-0.104,0.146-1.499,1.458-1.645,1.749c-0.146,0.293-0.042,0.5,0.125,0.5
		s0.083-0.084,0.292-0.104c0.208-0.021,0.229-0.042,0.312-0.021c0.083,0.021,0.147,0.062,0.021,0.166
		c-0.125,0.104-0.791,0.667-1.145,0.916c-0.354,0.25-0.604,0.499-0.979,0.77c-0.132,0.096-0.241,0.307-0.168,0.48
		c0.063,0.146,0.105,0.375,0.313,0.229c0.207-0.145,0.375-0.271,0.457-0.312c0.084-0.042,0.021-0.166,0.168-0.229
		c0.146-0.062,0.166-0.062,0.312-0.124c0.146-0.063,0.292-0.168,0.355-0.231c0.062-0.061,0.042-0.187,0.125-0.229
		c0.082-0.042,0.104-0.021,0.207-0.104c0.105-0.083,0.522-0.541,0.729-0.667c0.208-0.124,0.125-0.207,0.125-0.207
		c0.001,0,0.083,0,0.167-0.042c0.083-0.042,0.667-0.583,0.812-0.708c0.146-0.125,0.334-0.188,0.334-0.188s0.021-0.417-0.083-0.437
		c-0.105-0.021-0.229-0.062-0.355,0.02c-0.125,0.084-0.479,0.229-0.729,0.312s-0.291,0.062-0.208-0.083
		c0.083-0.146,0.542-0.604,0.605-0.666c0.062-0.062-0.042-0.125,0.062-0.208s0.146-0.042,0.209-0.104
		c0.062-0.062,0.417-0.458,0.624-0.562C351.312,96.877,351.375,96.774,351.125,96.836L351.125,96.836z"/>
</g>
</svg>
