<?xml version="1.0" encoding="utf-8"?>
<!-- Generator: Adobe Illustrator 16.2.1, SVG Export Plug-In . SVG Version: 6.00 Build 0)  -->
<!DOCTYPE svg PUBLIC "-//W3C//DTD SVG 1.1//EN" "http://www.w3.org/Graphics/SVG/1.1/DTD/svg11.dtd">
<svg version="1.1" id="svg2367" xmlns:svg="http://www.w3.org/2000/svg"
	 xmlns="http://www.w3.org/2000/svg" xmlns:xlink="http://www.w3.org/1999/xlink" x="0px" y="0px" width="50px" height="50px"
	 viewBox="393.414 106.031 50 50" enable-background="new 393.414 106.031 50 50" xml:space="preserve">
<path fill="#EE3024" d="M417.412,142.924c-0.572-0.074-1.465-0.281-1.94-0.45c-0.587-0.209-1.829-0.838-1.829-0.927
	c0-0.032,0.173-0.189,0.384-0.35l0.384-0.294l0.68,0.32c1.926,0.904,3.947,1.003,5.943,0.292c0.693-0.245,1.675-0.776,1.592-0.857
	c-0.035-0.034-0.902-0.669-1.929-1.414c-1.027-0.745-1.874-1.394-1.884-1.443c-0.017-0.083,0.632-0.573,0.76-0.573
	c0.033,0,0.546,0.354,1.139,0.786c0.593,0.433,1.062,0.761,1.043,0.729c-0.051-0.089-1.917-5.853-1.917-5.928
	c0-0.037,0.226-0.065,0.504-0.065l0.503,0.001l1.363,4.2c0.75,2.311,1.363,4.238,1.363,4.286c0,0.127-1.022,0.741-1.725,1.036
	c-0.725,0.307-1.532,0.523-2.306,0.625C418.995,142.97,417.864,142.983,417.412,142.924z"/>
<path fill="#EE3024" d="M412.695,140.859c-2.334-1.996-3.461-5.063-2.972-8.081c0.163-0.997,0.134-0.967,0.606-0.641l0.407,0.276
	l-0.06,0.524c-0.031,0.286-0.051,0.942-0.044,1.454c0.026,2.011,0.818,3.828,2.319,5.315l0.58,0.578l0.738-2.294
	c0.406-1.262,0.759-2.317,0.785-2.346c0.049-0.057,0.829,0.507,0.829,0.599c0,0.031-0.182,0.603-0.405,1.267
	c-0.223,0.665-0.393,1.21-0.378,1.21c0.017,0,1.14-0.805,2.496-1.793c1.357-0.983,2.499-1.79,2.535-1.79
	c0.059,0,0.406,0.901,0.361,0.937c-0.232,0.173-7.132,5.171-7.185,5.201C413.266,141.3,412.99,141.114,412.695,140.859z"/>
<path fill="#EE3024" d="M403.155,141.102c-1.021-0.149-1.85-0.6-2.612-1.421l-0.374-0.4l0.665-0.02
	c0.646-0.023,0.673-0.017,0.953,0.207c0.421,0.34,1.002,0.582,1.594,0.666c0.294,0.043,2.175,0.076,4.33,0.078l3.81,0.002
	l0.479,0.484l0.481,0.485l-4.44-0.009C405.601,141.17,403.402,141.138,403.155,141.102z"/>
<path fill="#EE3024" d="M424.392,141.158c0-0.02,0.21-0.238,0.466-0.488l0.467-0.454l3.843-0.004
	c4.087-0.005,4.656-0.044,5.283-0.364c0.171-0.087,0.425-0.259,0.565-0.382c0.241-0.21,0.291-0.222,0.898-0.222
	c0.356,0,0.642,0.031,0.642,0.071c0,0.149-1.071,1.117-1.482,1.336c-0.928,0.493-0.833,0.486-6,0.515
	C426.499,141.181,424.392,141.178,424.392,141.158z"/>
<path fill="#EE3024" d="M423.74,140.53l-0.149-0.501l0.494-0.523c1.531-1.615,2.342-3.943,2.102-6.028
	c-0.08-0.699-0.183-1.23-0.251-1.297c-0.02-0.021-0.888,0.58-1.928,1.336c-1.04,0.756-1.931,1.397-1.981,1.425
	c-0.105,0.062-0.438-0.922-0.334-0.991c0.036-0.022,0.528-0.379,1.093-0.788l1.027-0.748l-3.151-0.019
	c-2.468-0.014-3.145-0.039-3.118-0.112c0.02-0.051,0.092-0.269,0.164-0.483l0.128-0.393h4.467h4.467l0.081,0.246
	c0.287,0.869,0.428,2.403,0.313,3.411c-0.229,2.013-0.996,3.684-2.353,5.123C423.907,141.147,423.923,141.143,423.74,140.53z"/>
<path fill="#EE3024" d="M401.535,138.935c-0.734-0.069-1.415-0.275-1.875-0.564c-0.336-0.212-1.319-1.128-1.319-1.229
	c0-0.034,0.288-0.062,0.643-0.062c0.593,0,0.663,0.016,0.914,0.213c0.814,0.642,1.097,0.688,4.377,0.733l2.762,0.037l0.415,0.286
	c0.229,0.158,0.556,0.344,0.729,0.414c0.17,0.066,0.312,0.153,0.312,0.19C408.493,139.036,402.425,139.023,401.535,138.935z"/>
<path fill="#EE3024" d="M428.348,138.954c0-0.044,0.175-0.156,0.387-0.247c0.213-0.091,0.534-0.277,0.711-0.413l0.321-0.244
	l2.109-0.001c3.457-0.004,4.154-0.102,4.97-0.699c0.354-0.262,0.388-0.271,1.011-0.271c0.353,0,0.642,0.03,0.642,0.066
	c0,0.143-1.124,1.108-1.558,1.342c-0.839,0.445-1.092,0.471-5.029,0.51C429.398,139.024,428.348,139.012,428.348,138.954z"/>
<path fill="#EE3024" d="M399.23,136.7c-0.491-0.071-1.054-0.275-1.519-0.548c-0.356-0.208-1.312-1.109-1.312-1.235
	c0-0.048,0.254-0.077,0.645-0.077c0.614,0,0.655,0.012,0.91,0.234c0.365,0.32,0.923,0.563,1.506,0.656
	c0.269,0.044,1.626,0.078,3.042,0.079h2.556l0.455,0.337c0.25,0.183,0.586,0.373,0.746,0.421c0.161,0.049,0.292,0.116,0.292,0.15
	C406.552,136.799,399.785,136.784,399.23,136.7z"/>
<path fill="#EE3024" d="M430.289,136.722c0-0.034,0.12-0.104,0.266-0.156s0.483-0.245,0.747-0.426l0.481-0.33h2.555
	c3.26-0.001,3.729-0.075,4.503-0.711c0.308-0.251,0.337-0.259,0.958-0.259c0.353,0,0.641,0.029,0.641,0.065
	c0,0.035-0.271,0.323-0.603,0.641c-0.403,0.384-0.763,0.652-1.08,0.799c-0.836,0.392-1.289,0.432-5.054,0.433
	C431.826,136.78,430.289,136.754,430.289,136.722z"/>
<path fill="#EE3024" d="M413.643,134.121c-3.236-2.358-3.544-2.601-3.536-2.787c0.014-0.279,0.544-1.391,0.975-2.04
	c0.441-0.667,1.456-1.73,2.107-2.208c1.224-0.903,2.614-1.452,4.147-1.642c0.327-0.041,0.608-0.062,0.623-0.046
	c0.016,0.015-0.042,0.24-0.13,0.5l-0.157,0.47l-0.678,0.133c-1.513,0.292-2.806,0.958-3.916,2.014
	c-0.755,0.716-1.31,1.467-1.714,2.307l-0.262,0.547l2.472,0.021c1.924,0.016,2.464,0.041,2.438,0.112
	c-0.02,0.051-0.093,0.27-0.164,0.483l-0.129,0.394h-1.383h-1.384l2.528,1.832c1.39,1.009,2.537,1.86,2.55,1.896
	c0.023,0.065-0.672,0.601-0.779,0.6C417.219,136.703,415.593,135.542,413.643,134.121z"/>
<path fill="#EE3024" d="M397.594,134.54c-1.007-0.117-1.726-0.424-2.387-1.017c-0.433-0.39-1.793-1.944-1.793-2.052
	c0-0.036,3.595-0.065,8.1-0.065c6.43,0,8.099,0.02,8.097,0.095c-0.001,0.051-0.044,0.26-0.097,0.466l-0.098,0.373l-6.97,0.038
	l-6.968,0.035l0.368,0.326c0.203,0.179,0.504,0.394,0.667,0.477c0.677,0.347,0.904,0.371,3.873,0.409l2.828,0.038l0.344,0.264
	c0.188,0.145,0.504,0.33,0.699,0.411c0.196,0.081,0.355,0.178,0.355,0.214C404.611,134.629,398.276,134.618,397.594,134.54z"/>
<path fill="#EE3024" d="M432.154,134.567c0.003-0.034,0.188-0.143,0.416-0.241c0.226-0.099,0.555-0.287,0.73-0.422l0.318-0.241
	l2.795-0.034c2.332-0.029,2.87-0.056,3.243-0.162c0.528-0.148,0.92-0.371,1.381-0.784l0.336-0.298l-6.984-0.003l-6.986-0.003
	l-0.082-0.356c-0.044-0.195-0.105-0.411-0.132-0.484c-0.048-0.123,0.367-0.131,8.098-0.131c5.063,0,8.141,0.027,8.126,0.071
	c-0.013,0.039-0.345,0.446-0.735,0.906c-1.099,1.299-1.767,1.794-2.778,2.056c-0.394,0.104-1.057,0.129-4.107,0.157
	C433.793,134.615,432.154,134.602,432.154,134.567z"/>
<path fill="#EE3024" d="M416.046,134.196c-0.213-0.151-0.39-0.311-0.39-0.354c-0.001-0.046,0.61-1.977,1.361-4.289l1.365-4.208
	l0.629,0.051c3.194,0.26,5.862,2.044,7.276,4.869c0.189,0.378,0.344,0.705,0.344,0.728c0,0.023-0.248,0.044-0.549,0.044h-0.548
	l-0.143-0.318c-0.439-0.979-1.588-2.31-2.559-2.962c-1.059-0.715-2.438-1.229-3.549-1.327c-0.425-0.037-0.509-0.027-0.478,0.059
	c0.021,0.059,0.348,1.054,0.724,2.211c0.374,1.157,0.703,2.158,0.728,2.225c0.041,0.104-0.025,0.116-0.493,0.098l-0.54-0.023
	l-0.372-1.157c-0.206-0.637-0.395-1.182-0.425-1.212c-0.027-0.03-0.466,1.229-0.973,2.8c-0.506,1.569-0.942,2.896-0.97,2.946
	C416.45,134.44,416.327,134.389,416.046,134.196z"/>
<path fill="#EE3024" d="M413.494,125.372v-0.513l0.662-0.303c2.849-1.305,5.888-1.289,8.593,0.043l0.56,0.275l0.022,0.504
	c0.012,0.278,0.003,0.506-0.02,0.506c-0.024,0-0.312-0.137-0.641-0.303c-2.698-1.355-5.803-1.355-8.497-0.001
	c-0.332,0.167-0.62,0.304-0.642,0.304C413.511,125.885,413.494,125.655,413.494,125.372z"/>
<path fill="#EE3024" d="M412.322,124.402c-0.71-0.246-1.134-0.622-1.523-1.354c-0.158-0.297-0.179-0.434-0.179-1.157
	c0-0.708,0.023-0.868,0.173-1.169c0.407-0.819,1.109-1.254,2.023-1.255c0.674-0.003,0.961,0.122,1.647,0.715
	c0.588,0.508,1.122,0.774,1.55,0.774c0.285,0.001,0.316,0.02,0.316,0.184c0,0.292-0.322,0.489-0.796,0.489
	c-0.516,0-0.832-0.136-1.484-0.634c-0.602-0.461-0.82-0.562-1.237-0.562c-1.013,0-1.593,1.246-1.067,2.299
	c0.217,0.437,0.483,0.686,1.019,0.957c0.34,0.174,0.581,0.492,0.581,0.774C413.345,124.584,412.748,124.549,412.322,124.402z"/>
<path fill="#EE3024" d="M423.521,124.316c0.064-0.318,0.223-0.49,0.604-0.664c1.078-0.488,1.507-1.945,0.814-2.77
	c-0.265-0.315-0.553-0.448-0.973-0.446c-0.394,0-0.618,0.111-1.292,0.64c-0.531,0.416-0.87,0.554-1.373,0.554
	c-0.329,0-0.45-0.038-0.637-0.191c-0.127-0.107-0.229-0.26-0.229-0.337c0-0.123,0.055-0.144,0.358-0.144
	c0.459,0,0.948-0.244,1.582-0.791c0.666-0.574,0.955-0.696,1.642-0.698c0.691-0.001,1.175,0.2,1.596,0.668
	c0.482,0.534,0.607,0.894,0.607,1.755c0,0.888-0.13,1.241-0.675,1.823c-0.425,0.455-0.99,0.737-1.61,0.803l-0.463,0.047
	L423.521,124.316z"/>
<path fill="#EE3024" d="M413.836,123.912c-0.057-0.137-0.179-0.303-0.272-0.366c-0.161-0.113-0.163-0.125-0.043-0.307
	c0.167-0.259,0.622-0.271,0.846-0.025c0.167,0.186,0.321,0.456,0.321,0.565c0,0.038-0.169,0.14-0.374,0.225l-0.374,0.155
	L413.836,123.912z"/>
<path fill="#EE3024" d="M422.507,124.004c-0.424-0.186-0.449-0.321-0.123-0.692c0.282-0.32,0.642-0.362,0.885-0.1l0.152,0.164
	l-0.178,0.189c-0.097,0.105-0.224,0.281-0.279,0.39l-0.103,0.2L422.507,124.004z"/>
<path fill="#EE3024" d="M415.218,123.376c-0.049-0.136-0.188-0.33-0.309-0.433c-0.257-0.215-0.269-0.276-0.084-0.444
	c0.283-0.257,0.888-0.075,1.096,0.325c0.295,0.571,0.295,0.568-0.181,0.688l-0.432,0.108L415.218,123.376z"/>
<path fill="#EE3024" d="M421.07,123.516c-0.206-0.062-0.385-0.123-0.401-0.137c-0.061-0.057,0.317-0.717,0.493-0.854
	c0.228-0.18,0.597-0.193,0.826-0.034c0.216,0.152,0.21,0.282-0.017,0.404c-0.102,0.056-0.253,0.244-0.337,0.425
	c-0.084,0.178-0.161,0.32-0.171,0.316C421.452,123.632,421.276,123.577,421.07,123.516z"/>
<path fill="#EE3024" d="M416.673,122.947c-0.07-0.187-0.244-0.441-0.384-0.563c-0.27-0.237-0.279-0.397-0.029-0.532
	c0.52-0.279,1.191,0.262,1.374,1.103c0.047,0.22,0.035,0.244-0.122,0.244c-0.096,0.001-0.293,0.021-0.44,0.046
	C416.81,123.286,416.8,123.279,416.673,122.947z"/>
<path fill="#EE3024" d="M419.409,123.218c-0.295-0.037-0.305-0.144-0.065-0.657c0.329-0.71,0.955-1.003,1.313-0.62
	c0.195,0.209,0.191,0.244-0.03,0.344c-0.113,0.052-0.262,0.255-0.392,0.534C420.011,123.303,420.026,123.294,419.409,123.218z"/>
<path fill="#EE3024" d="M418.236,122.378c-0.075-0.163-0.198-0.354-0.274-0.422c-0.19-0.173-0.174-0.315,0.078-0.714
	c0.355-0.56,0.436-0.55,0.781,0.081l0.201,0.369l-0.303,0.468c-0.166,0.257-0.312,0.479-0.326,0.49
	C418.38,122.665,418.309,122.542,418.236,122.378z"/>
<path fill="#EE3024" d="M415.269,120.36c-0.678-0.367-0.683-1.343-0.007-1.343c0.274,0,0.471,0.202,0.471,0.482
	c0,0.199,0.015,0.205,0.272,0.166c0.147-0.025,0.329-0.099,0.401-0.164c0.126-0.114,0.125-0.128-0.045-0.299
	c-0.334-0.332-0.131-0.858,0.33-0.858c0.534,0,0.802,0.916,0.445,1.525c-0.269,0.458-0.509,0.595-1.087,0.619
	C415.656,120.507,415.486,120.48,415.269,120.36z"/>
<path fill="#EE3024" d="M420.132,120.339c-0.406-0.271-0.592-0.609-0.592-1.075c0-0.624,0.201-0.92,0.629-0.92
	c0.407,0,0.581,0.587,0.262,0.886l-0.153,0.144l0.201,0.157c0.11,0.087,0.298,0.158,0.415,0.158c0.186,0,0.215-0.028,0.215-0.212
	c0-0.431,0.61-0.642,0.853-0.293c0.263,0.376,0.035,0.947-0.486,1.216C421.14,120.576,420.433,120.543,420.132,120.339z"/>
<path fill="#EE3024" d="M417.892,120.143c-0.481-0.482-0.152-1.276,0.528-1.276c0.243,0,0.357,0.05,0.529,0.22
	c0.48,0.48,0.151,1.273-0.529,1.273C418.178,120.36,418.063,120.314,417.892,120.143z"/>
<path fill="#EE3024" d="M417.636,118.272l0.176-0.521l-0.455-0.317l-0.453-0.318l0.557-0.023l0.557-0.021l0.169-0.519
	c0.091-0.287,0.191-0.521,0.222-0.521c0.031,0,0.131,0.236,0.225,0.522l0.169,0.522h0.569h0.57l-0.466,0.346
	c-0.255,0.193-0.453,0.384-0.436,0.43c0.168,0.458,0.284,0.885,0.249,0.92c-0.023,0.022-0.23-0.098-0.459-0.272l-0.417-0.315
	l-0.402,0.305c-0.222,0.168-0.437,0.306-0.478,0.306C417.493,118.794,417.539,118.559,417.636,118.272z"/>
</svg>
