<?xml version="1.0" encoding="utf-8"?>
<!-- Generator: Adobe Illustrator 16.2.1, SVG Export Plug-In . SVG Version: 6.00 Build 0)  -->
<!DOCTYPE svg PUBLIC "-//W3C//DTD SVG 1.1//EN" "http://www.w3.org/Graphics/SVG/1.1/DTD/svg11.dtd">
<svg version="1.1"
	 id="Layer_1" sodipodi:docname="AJAX.svg" inkscape:version="0.48.1 " xmlns:dc="http://purl.org/dc/elements/1.1/" xmlns:cc="http://creativecommons.org/ns#" xmlns:rdf="http://www.w3.org/1999/02/22-rdf-syntax-ns#" xmlns:svg="http://www.w3.org/2000/svg" xmlns:sodipodi="http://sodipodi.sourceforge.net/DTD/sodipodi-0.dtd" xmlns:inkscape="http://www.inkscape.org/namespaces/inkscape"
	 xmlns="http://www.w3.org/2000/svg" xmlns:xlink="http://www.w3.org/1999/xlink" x="0px" y="0px" width="50px" height="50px"
	 viewBox="242.9 113.531 50 50" enable-background="new 242.9 113.531 50 50" xml:space="preserve">
<sodipodi:namedview  inkscape:window-maximized="1" inkscape:current-layer="Layer_1" inkscape:window-height="1004" inkscape:window-x="-8" fit-margin-bottom="0" inkscape:pageopacity="0" inkscape:pageshadow="2" inkscape:window-width="1280" inkscape:window-y="-8" fit-margin-right="0" pagecolor="#ffffff" borderopacity="1" bordercolor="#666666" inkscape:cy="36.629003" gridtolerance="10" fit-margin-top="0" objecttolerance="10" inkscape:zoom="1.3855368" inkscape:cx="358.12937" fit-margin-left="0" guidetolerance="10" showgrid="false" id="namedview37">
	</sodipodi:namedview>
<g id="g3" transform="translate(0,-3.1386552e-6)">
	<path id="path5" inkscape:connector-curvature="0" fill="#003876" d="M260.759,146.628l0.855-1.825l0.856,1.825H260.759
		L260.759,146.628L260.759,146.628L260.759,146.628z M259.143,148.255h0.85l0.434-0.939h2.359l0.428,0.939h0.844l-1.988-4.094
		h-0.912L259.143,148.255L259.143,148.255L259.143,148.255z"/>
	<path id="polygon7" inkscape:connector-curvature="0" fill="#003876" d="M265.146,144.161h0.799v4.094h-0.799V144.161
		L265.146,144.161z"/>
	<path id="path9" inkscape:connector-curvature="0" fill="#003876" d="M268.271,145.981v-1.154h1.542
		c0.654,0,0.987,0.096,0.987,0.574c0,0.484-0.333,0.58-0.987,0.58H268.271L268.271,145.981L268.271,145.981L268.271,145.981z
		 M267.472,148.255h0.8v-1.609h1.267l1.188,1.609h0.986l-1.256-1.666c0.603-0.033,1.143-0.45,1.143-1.205
		c0-1.002-0.697-1.223-1.666-1.223h-2.461V148.255L267.472,148.255L267.472,148.255z"/>
	<path id="polygon11" inkscape:connector-curvature="0" fill="#003876" d="M272.608,144.161h0.799l0.789,2.815h0.01l0.783-2.815
		h0.766l0.795,2.81h0.011l0.783-2.81h0.783l-1.194,4.094h-0.765l-0.778-2.904h-0.012l-0.782,2.904h-0.782L272.608,144.161
		L272.608,144.161z"/>
	<path id="path13" inkscape:connector-curvature="0" fill="#003876" d="M280.193,146.628l0.856-1.825l0.855,1.825H280.193
		L280.193,146.628L280.193,146.628L280.193,146.628z M278.578,148.255h0.85l0.433-0.939h2.359l0.428,0.939h0.846l-1.988-4.094
		h-0.913L278.578,148.255L278.578,148.255L278.578,148.255z"/>
	<path id="polygon15" inkscape:connector-curvature="0" fill="#003876" d="M285.421,146.615l-1.999-2.454h0.979l1.418,1.734
		l1.415-1.734h0.986l-2,2.454v1.64h-0.799V146.615L285.421,146.615z"/>
	<path id="path17" inkscape:connector-curvature="0" fill="#003876" d="M292.077,145.406c-0.129-0.367-0.461-0.682-1.436-0.682
		c-0.542,0-1.087,0.136-1.087,0.513c0,0.174,0.101,0.36,0.918,0.462l0.968,0.146c0.917,0.141,1.459,0.495,1.459,1.182
		c0,0.97-0.924,1.329-2.017,1.329c-1.757,0-2.185-0.867-2.281-1.177l0.771-0.242c0.146,0.299,0.45,0.733,1.532,0.733
		c0.653,0,1.193-0.215,1.193-0.57c0-0.265-0.304-0.439-0.89-0.512l-0.98-0.135c-0.945-0.13-1.475-0.542-1.475-1.167
		c0-1.228,1.594-1.228,1.909-1.228c1.763,0,2.066,0.817,2.167,1.098L292.077,145.406L292.077,145.406L292.077,145.406z"/>
	<path id="path19" inkscape:connector-curvature="0" fill="#003876" d="M244.306,132.057h1.668v8.938
		c0,1.39-1.015,2.322-2.421,2.322H242.9v-1.569h0.474c0.572,0,0.933-0.263,0.933-0.884V132.057L244.306,132.057L244.306,132.057z
		 M244.306,128.704h1.668v1.668h-1.668V128.704L244.306,128.704z"/>
	<path id="path21" inkscape:connector-curvature="0" fill="#003876" d="M248.719,135.459c0.033-1.26,0.769-1.93,1.75-1.93
		c0.982,0,1.701,0.67,1.75,1.93H248.719L248.719,135.459L248.719,135.459z M253.887,136.832v-1.373c0-2.143-1.587-3.5-3.417-3.5
		c-1.604,0-3.419,1.046-3.419,4.27c0,3.401,1.979,4.219,3.68,4.219c1.111,0,2.175-0.393,2.992-1.342l-1.209-1.029
		c-0.491,0.506-1.178,0.801-1.816,0.801c-1.145,0-1.979-0.687-1.979-2.045H253.887L253.887,136.832z"/>
	<path id="path23" inkscape:connector-curvature="0" fill="#003876" d="M255.209,129.538h1.668v2.519h1.209v1.276h-1.209v4.824
		c0,0.458,0.18,0.621,0.587,0.621h0.622v1.571h-0.867c-1.162,0-2.011-0.738-2.011-2.045v-4.972h-0.835v-1.276h0.835V129.538
		L255.209,129.538L255.209,129.538z"/>
	<path id="path25" inkscape:connector-curvature="0" fill="#003876" d="M263.632,135.181c1.308,0,1.896,0.834,1.896,1.75
		s-0.588,1.75-1.896,1.75h-2.716v-3.5H263.632L263.632,135.181L263.632,135.181z M259.149,140.35h4.907
		c1.75,0,3.238-1.293,3.238-3.304c0-1.178-0.622-2.389-1.897-2.684v-0.032c1.357-0.605,1.718-1.537,1.718-2.502
		c0-1.832-1.179-3.124-3.452-3.124h-4.515V140.35L259.149,140.35L259.149,140.35L259.149,140.35z M263.467,130.275
		c1.276,0,1.881,0.769,1.881,1.669c0,0.915-0.605,1.668-1.881,1.668h-2.551v-3.337H263.467L263.467,130.275z"/>
	<path id="path27" inkscape:connector-curvature="0" fill="#003876" d="M268.253,128.704h1.668v9.503
		c0,0.375,0.212,0.571,0.623,0.571h0.572v1.571h-0.736c-1.211,0-2.127-0.523-2.127-2.013V128.704L268.253,128.704L268.253,128.704z"
		/>
	<path id="path29" inkscape:connector-curvature="0" fill="#003876" d="M271.819,132.057h1.668v4.939
		c0,1.129,0.704,1.782,1.653,1.782c0.932,0,1.634-0.653,1.634-1.782v-4.939h1.669v8.293h-1.669v-0.885h-0.031
		c-0.524,0.655-1.277,0.982-2.144,0.982c-1.308,0-2.781-0.998-2.781-2.878V132.057L271.819,132.057z"/>
	<path id="path31" inkscape:connector-curvature="0" fill="#003876" d="M281.008,135.459c0.034-1.26,0.769-1.93,1.75-1.93
		c0.981,0,1.701,0.67,1.751,1.93H281.008L281.008,135.459L281.008,135.459z M286.176,136.832v-1.373c0-2.143-1.586-3.5-3.419-3.5
		c-1.603,0-3.418,1.046-3.418,4.27c0,3.401,1.98,4.219,3.68,4.219c1.113,0,2.176-0.393,2.994-1.342l-1.211-1.029
		c-0.491,0.506-1.176,0.801-1.815,0.801c-1.145,0-1.979-0.687-1.979-2.045H286.176L286.176,136.832L286.176,136.832z"/>
</g>
</svg>
