<?xml version="1.0" encoding="utf-8"?>
<!-- Generator: Adobe Illustrator 16.2.1, SVG Export Plug-In . SVG Version: 6.00 Build 0)  -->
<!DOCTYPE svg PUBLIC "-//W3C//DTD SVG 1.1//EN" "http://www.w3.org/Graphics/SVG/1.1/DTD/svg11.dtd">
<svg version="1.1" id="svg2" xmlns:svg="http://www.w3.org/2000/svg"
	 xmlns="http://www.w3.org/2000/svg" xmlns:xlink="http://www.w3.org/1999/xlink" x="0px" y="0px" width="50px" height="50px"
	 viewBox="517.429 126.228 50 50" enable-background="new 517.429 126.228 50 50" xml:space="preserve">
<g id="layer1" transform="translate(-338.55874,-241.73004)">
	<g id="g2668" transform="translate(35.433058,35.351555)">
		<path id="path2436" fill="#F1471C" d="M854.168,376.163l-33.613,0.021l29.069-37.134l17.226-0.021L854.168,376.163"/>
		<path id="path2440" fill="#00A650" d="M868.096,339.05h2.458l-12.795,37.134h-2.438L868.096,339.05"/>
		<path id="path2444" fill="#FFFFFF" d="M855.009,360.401c-0.348,1.941-1.497,3.602-3.088,4.633l-0.041-11.766
			c1.599,1.016,2.758,2.668,3.119,4.6l2.566,0.003c-0.627-4.631-4.595-8.203-9.397-8.203c-4.805,0-8.775,3.574-9.397,8.205
			l2.497-0.002c0.005-0.023,0.021-0.087,0.025-0.11c0.376-1.853,1.487-3.438,3.014-4.438l0.01,11.689
			c-1.582-1.031-2.712-2.685-3.06-4.613l-2.489-0.005c0.606,4.651,4.582,8.243,9.399,8.243c4.815,0,8.789-3.59,9.405-8.238
			L855.009,360.401z M848.135,366.208c-0.44,0-0.867-0.041-1.287-0.118l0.002-13.733c0.417-0.074,0.844-0.118,1.284-0.118
			c0.422,0,0.839,0.039,1.241,0.11v13.749C848.977,366.17,848.557,366.208,848.135,366.208"/>
		<path id="path2448" fill="none" d="M855.009,360.401c-0.348,1.941-1.497,3.602-3.088,4.633l-0.041-11.766
			c1.599,1.016,2.758,2.668,3.119,4.6l2.566,0.003c-0.627-4.631-4.595-8.203-9.397-8.203c-4.805,0-8.775,3.574-9.397,8.205
			l2.497-0.002c0.005-0.023,0.021-0.087,0.025-0.11c0.376-1.853,1.487-3.438,3.014-4.438l0.01,11.689
			c-1.582-1.031-2.712-2.685-3.06-4.613l-2.489-0.005c0.606,4.651,4.582,8.243,9.399,8.243c4.815,0,8.789-3.59,9.405-8.238
			L855.009,360.401z M848.135,366.208c-0.44,0-0.867-0.041-1.287-0.118l0.002-13.733c0.417-0.074,0.844-0.118,1.284-0.118
			c0.422,0,0.839,0.039,1.241,0.11v13.749C848.977,366.17,848.557,366.208,848.135,366.208z"/>
	</g>
</g>
</svg>
