<?xml version="1.0" encoding="utf-8"?>
<!-- Generator: Adobe Illustrator 16.2.1, SVG Export Plug-In . SVG Version: 6.00 Build 0)  -->
<!DOCTYPE svg PUBLIC "-//W3C//DTD SVG 1.1//EN" "http://www.w3.org/Graphics/SVG/1.1/DTD/svg11.dtd">
<svg version="1.1" id="svg2367" xmlns:svg="http://www.w3.org/2000/svg"
	 xmlns="http://www.w3.org/2000/svg" xmlns:xlink="http://www.w3.org/1999/xlink" x="0px" y="0px" width="50px" height="50px"
	 viewBox="0 0 50 50" enable-background="new 0 0 50 50" xml:space="preserve">
<g id="layer1" transform="translate(-383.63, -431.591)">
	<g id="g3431" transform="translate(35.3919, 35.4596)">
		
			<linearGradient id="path3364_1_" gradientUnits="userSpaceOnUse" x1="2466.2058" y1="1460.5708" x2="2451.864" y2="1468.6034" gradientTransform="matrix(1 0 0 1 -2067.9531 -1040.9756)">
			<stop  offset="0" style="stop-color:#11266F"/>
			<stop  offset="1" style="stop-color:#4266AE"/>
		</linearGradient>
		<path id="path3364" fill="url(#path3364_1_)" d="M394.789,419.711c-1.455,1.372-4.517,2.592-5.974,3.125
			c-2.066,0.762-2.984,1.066-4.136,1.448c-1.301,0.381-3.903,1.219-3.903,1.219c5.359,1.601,9.188,2.056,9.188,2.056
			s1.76-0.529,4.596-2.056c1.53-0.763,2.22-1.219,2.756-1.752c0.23-0.151,0.765-0.687,0.842-1.371c0-0.077,0.076-0.153,0.076-0.308
			c0,0,0-0.073,0-0.15c-0.076-0.075-0.076-0.152-0.076-0.152s0-0.151-0.077-0.306c0-0.076-0.152-0.456-0.458-0.685
			c-0.23-0.152-0.536-0.534-1.686-0.914c-0.383-0.153-1.072-0.305-1.072-0.305L394.789,419.711L394.789,419.711z"/>
		
			<linearGradient id="path3366_1_" gradientUnits="userSpaceOnUse" x1="2431.9851" y1="1463.6411" x2="2464.9075" y2="1451.4521" gradientTransform="matrix(1 0 0 1 -2067.9531 -1040.9756)">
			<stop  offset="0" style="stop-color:#E0162B"/>
			<stop  offset="0.5716" style="stop-color:#FF0108"/>
			<stop  offset="0.7537" style="stop-color:#FFB8BB"/>
			<stop  offset="0.7929" style="stop-color:#FFB0B3"/>
			<stop  offset="0.8511" style="stop-color:#FF010A"/>
			<stop  offset="1" style="stop-color:#FF0000"/>
		</linearGradient>
		<path id="path3366" fill="url(#path3366_1_)" d="M398.234,422c0,0,0-0.151-0.076-0.229c0-0.151-0.077-0.228-0.152-0.379
			c-0.077-0.078-0.229-0.229-0.383-0.459c-0.151-0.074-0.307-0.228-0.459-0.38c-0.767-0.458-1.684-0.687-2.526-0.84
			c-1.3-0.151-2.832-0.151-2.983-0.151c-0.46,0-3.599,0-4.365,0.077c-3.521,0.076-7.886,0.076-9.036,0.076
			c-11.714,0-16.846-0.229-22.511-1.371c-4.825-0.916-7.504-1.829-7.504-1.829c4.288-0.152,29.172-1.22,33.69-1.294
			c2.985-0.077,5.055-0.153,6.738,0c0.919,0,1.686,0.075,2.68,0.304c0.92,0.152,1.762,0.381,2.223,0.533
			c0.995,0.381,1.913,0.914,2.297,1.523c0,0,0.152,0.077,0.306,0.306c0.153,0.306,0.383,0.609,0.459,0.685
			c0.613,0.992,0.919,1.524,0.995,1.753c0.153,0.228,0.23,0.458,0.309,0.687c0.151,0.152,0.151,0.305,0.151,0.381
			c0.076,0.229,0.076,0.459,0.153,0.533V422H398.234L398.234,422z"/>
	</g>
</g>
</svg>
