<?xml version="1.0" encoding="utf-8"?>
<!-- Generator: Adobe Illustrator 16.2.1, SVG Export Plug-In . SVG Version: 6.00 Build 0)  -->
<!DOCTYPE svg PUBLIC "-//W3C//DTD SVG 1.1//EN" "http://www.w3.org/Graphics/SVG/1.1/DTD/svg11.dtd">
<svg version="1.1" id="Layer_1" xmlns="http://www.w3.org/2000/svg" xmlns:xlink="http://www.w3.org/1999/xlink" x="0px" y="0px"
	 width="50px" height="50px" viewBox="0.5 30.5 50 50" enable-background="new 0.5 30.5 50 50" xml:space="preserve">
<radialGradient id="SVGID_1_" cx="733.748" cy="619.5225" r="34.2117" gradientTransform="matrix(1 0 0 1 -692.0273 -581)" gradientUnits="userSpaceOnUse">
	<stop  offset="0" style="stop-color:#C6DEF3"/>
	<stop  offset="0.0615" style="stop-color:#BBD8EF"/>
	<stop  offset="0.1705" style="stop-color:#9DC6E6"/>
	<stop  offset="0.3571" style="stop-color:#6CAAD7"/>
	<stop  offset="0.5864" style="stop-color:#2984C2"/>
	<stop  offset="0.9891" style="stop-color:#006CB5"/>
</radialGradient>
<circle fill="url(#SVGID_1_)" cx="25.5" cy="55.501" r="24.999"/>
<path fill="#FFFFFF" d="M48.55,45.814c-1.597-3.793-4.106-7.116-7.252-9.685c-2.155,0.874-9.1,3.777-11.197,5.425
	c0,0-5.054-0.096-11.004,1.104c-0.552,0.122-0.561-0.417-0.396-0.586c0,0,7.398-7.067,16.625-9.562
	c-3.017-1.287-6.339-2.01-9.827-2.01c-3.597,0-7.013,0.765-10.104,2.129c-0.006,0.015-0.015,0.021-0.022,0.034
	c-0.183,0.232-3.03,4.028-1.794,11.908c0,0,0.265,1.104,1.848,0.618C15.428,45.189,36.173,40.654,48.55,45.814"/>
<path fill="#FFFFFF" d="M43.135,50.501c0.995,0,1.818-0.827,1.818-1.851c0-1.022-0.823-1.859-1.818-1.859
	c-1.012,0-1.829,0.837-1.829,1.859C41.307,49.674,42.122,50.501,43.135,50.501"/>
<path fill="#FFFFFF" d="M28.084,65.74c0,0.82,0.664,1.492,1.485,1.492c0.825,0,1.497-0.659,1.497-1.492v-7.507
	c0-2.559,1.127-3.508,2.837-3.508c1.993,0,2.845,1.447,2.845,4.401v6.619c0,0.824,0.667,1.493,1.493,1.493
	c0.818,0,1.488-0.659,1.488-1.493v-7.359c0-3.767-1.973-6.491-5.975-6.491c-1.875,0-3.33,0.828-4.186,1.853
	c-0.851-1.024-2.3-1.853-4.189-1.853c-3.99,0-5.963,2.725-5.963,6.491v7.354c0,0.815,0.662,1.49,1.485,1.49
	c0.828,0,1.5-0.664,1.5-1.49v-6.623c0-2.951,0.845-4.406,2.833-4.406c1.717,0,2.85,0.947,2.85,3.508V65.74z"/>
<path fill="#FFFFFF" d="M41.642,66.847c0,0.225,0.172,0.381,0.383,0.381c0.447,0,1.123-0.471,1.433-0.827
	c0.762-0.859,1.167-2.105,1.167-3.55v-9.458c0-0.823-0.669-1.492-1.493-1.492s-1.492,0.667-1.492,1.492L41.642,66.847L41.642,66.847
	z"/>
<path fill="#FFFFFF" d="M11.7,51.905c-1.729,0-3.04,0.993-3.432,1.369v-4.18v-1.921c0-0.225-0.17-0.383-0.38-0.383
	c-0.447,0-1.129,0.476-1.447,0.83c-0.757,0.864-1.151,2.106-1.151,3.552v6.589c0,1.769,0.062,4.095,0.684,5.65
	c1.042,2.578,2.952,3.827,5.506,3.827c4.282,0,6.443-2.603,6.443-7.583C17.923,54.254,15.13,51.905,11.7,51.905 M11.655,64.604
	c-1.861,0-3.29-1.611-3.29-5.11c0-3.128,1.528-4.792,3.394-4.792c1.798,0,3.233,1.54,3.233,5.014
	C14.99,63.126,13.609,64.604,11.655,64.604"/>
<radialGradient id="SVGID_2_" cx="723.6357" cy="618.1992" r="12.2614" gradientTransform="matrix(1 0 0 1 -692.0273 -581)" gradientUnits="userSpaceOnUse">
	<stop  offset="0" style="stop-color:#8DD7F7"/>
	<stop  offset="1" style="stop-color:#32BAEC"/>
</radialGradient>
<path fill="url(#SVGID_2_)" d="M37.906,41.298c-0.286,0.381,0.44,0.768,0.44,0.768c5.365,0.407,9.222,1.8,9.286,1.83
	c-0.018-0.034-0.038-0.074-0.058-0.115c-0.049-0.095-0.104-0.183-0.155-0.286c-0.173-0.312-0.35-0.626-0.538-0.937
	c-0.003-0.01-0.006-0.017-0.012-0.026c-0.829-1.364-1.791-2.649-2.863-3.828C40.599,39.494,37.906,41.298,37.906,41.298
	 M18.512,31.499c-0.147,0.059-0.243,0.103-0.243,0.103c-0.684,0.443-1.703,2.482-2.015,3.784c-0.307,1.293-0.352,1.696-0.505,2.67
	c-0.154,0.968-0.154,2.71,0.089,2.998c0.242,0.288,0.461,0.264,0.573,0.196c0.108-0.064,6.323-7.071,16.417-9.651
	c-2.318-0.715-4.777-1.097-7.327-1.097C23.075,30.502,20.733,30.856,18.512,31.499"/>
</svg>
