<?xml version="1.0" encoding="UTF-8" ?>
<!DOCTYPE svg PUBLIC "-//W3C//DTD SVG 1.1//EN" "http://www.w3.org/Graphics/SVG/1.1/DTD/svg11.dtd">
<svg width="200pt" height="82pt" viewBox="0 0 200 82" version="1.1" xmlns="http://www.w3.org/2000/svg">
<path fill="#ffffff" d=" M 0.00 0.00 L 16.29 0.00 C 13.68 0.87 10.85 1.86 9.17 4.20 C 7.12 7.24 7.02 11.13 5.20 14.29 C 3.78 16.27 1.68 17.61 0.00 19.36 L 0.00 0.00 Z" />
<path fill="#6caedf" d=" M 16.29 0.00 L 23.91 0.00 C 25.66 1.21 28.02 2.53 27.82 5.02 C 28.46 9.41 22.46 10.45 21.58 14.04 C 23.21 16.64 27.14 17.65 27.47 20.96 C 26.18 24.89 19.89 25.24 19.85 29.92 C 19.10 38.87 20.17 47.88 19.48 56.83 C 19.09 63.09 7.16 63.27 6.78 56.94 C 5.98 48.03 7.08 39.05 6.38 30.14 C 6.09 26.41 2.42 24.53 0.00 22.22 L 0.00 19.36 C 1.68 17.61 3.78 16.27 5.20 14.29 C 7.02 11.13 7.12 7.24 9.17 4.20 C 10.85 1.86 13.68 0.87 16.29 0.00 Z" />
<path fill="#ffffff" d=" M 23.91 0.00 L 200.00 0.00 L 200.00 73.24 C 199.61 70.77 199.07 67.64 196.28 66.83 C 192.86 65.84 188.11 65.46 185.66 68.58 C 183.46 73.02 183.68 80.11 189.15 82.00 L 176.86 82.00 C 178.89 80.96 181.01 79.47 181.20 76.97 C 181.78 73.52 181.95 68.44 178.04 66.89 C 174.80 65.84 170.66 65.59 167.87 67.85 C 165.60 70.51 165.83 74.44 166.43 77.67 C 166.84 80.03 169.16 81.12 171.12 82.00 L 157.95 82.00 C 160.21 81.13 162.34 79.47 162.56 76.88 C 163.01 73.59 163.32 68.94 159.87 67.13 C 156.65 65.78 152.55 65.63 149.53 67.55 C 147.02 69.88 147.22 73.82 147.61 76.94 C 147.76 79.55 150.08 80.96 152.16 82.00 L 139.77 82.00 C 144.85 79.72 145.28 72.61 142.74 68.33 C 139.52 65.38 133.53 65.26 130.26 68.17 C 127.54 72.60 127.83 80.90 134.13 82.00 L 120.83 82.00 C 122.67 80.80 124.69 79.32 124.90 76.94 C 125.41 73.54 125.67 68.70 121.97 66.98 C 118.95 65.83 115.31 65.75 112.40 67.24 C 109.32 69.36 109.60 73.76 110.01 77.04 C 110.20 79.82 112.81 81.21 115.14 82.00 L 101.89 82.00 C 103.93 80.96 106.05 79.46 106.22 76.95 C 106.90 73.30 106.84 67.79 102.41 66.64 C 98.99 65.86 94.07 65.54 92.05 69.07 C 90.16 73.54 90.49 80.54 96.13 82.00 L 0.00 82.00 L 0.00 22.22 C 2.42 24.53 6.09 26.41 6.38 30.14 C 7.08 39.05 5.98 48.03 6.78 56.94 C 7.16 63.27 19.09 63.09 19.48 56.83 C 20.17 47.88 19.10 38.87 19.85 29.92 C 19.89 25.24 26.18 24.89 27.47 20.96 C 27.14 17.65 23.21 16.64 21.58 14.04 C 22.46 10.45 28.46 9.41 27.82 5.02 C 28.02 2.53 25.66 1.21 23.91 0.00 Z" />
<path fill="#6caedf" d=" M 34.28 1.22 C 37.36 0.99 40.63 0.65 43.64 1.49 C 45.44 3.12 45.28 5.79 45.43 8.01 C 45.39 23.34 45.39 38.67 45.43 54.00 C 45.31 56.21 45.53 59.00 43.44 60.42 C 40.73 62.02 37.16 61.83 34.34 60.62 C 31.99 59.34 32.03 56.34 31.93 54.03 C 31.92 38.69 31.96 23.34 31.91 8.00 C 32.07 5.68 31.72 2.39 34.28 1.22 Z" />
<path fill="#00447c" d=" M 94.27 3.11 C 96.75 2.16 100.23 1.84 102.34 3.75 C 105.49 7.98 101.53 14.57 105.73 18.30 C 108.29 19.38 110.99 17.63 113.56 17.29 C 120.80 15.55 129.12 18.75 132.71 25.42 C 136.55 32.46 136.38 41.05 134.40 48.64 C 132.77 54.67 128.29 60.23 122.08 61.85 C 117.78 63.21 113.21 62.54 109.07 60.98 C 104.21 58.94 99.06 63.12 94.27 60.80 C 92.14 59.32 92.38 56.38 92.24 54.10 C 92.23 39.07 92.23 24.04 92.24 9.02 C 92.34 6.96 92.30 4.35 94.27 3.11 Z" />
<path fill="#00447c" d=" M 153.40 16.67 C 159.48 14.71 166.43 14.90 172.19 17.81 C 178.81 21.24 182.47 28.81 182.67 36.06 C 182.85 38.22 181.45 40.55 179.08 40.51 C 171.74 41.17 164.34 40.31 157.01 40.92 C 154.84 41.01 152.73 42.75 152.85 45.04 C 153.09 50.37 159.07 54.16 164.10 52.92 C 167.79 52.26 170.12 49.00 173.38 47.46 C 176.26 46.45 179.76 48.32 180.76 51.15 C 180.69 53.88 178.47 55.92 176.51 57.54 C 169.48 62.71 159.66 63.45 151.66 60.20 C 145.42 57.68 141.05 51.62 140.02 45.04 C 139.02 38.78 139.53 32.07 142.35 26.32 C 144.55 21.80 148.63 18.27 153.40 16.67 Z" />
<path fill="#6caedf" d=" M 51.25 17.27 C 53.44 16.69 55.78 16.74 57.98 17.20 C 60.21 17.75 61.15 20.13 61.73 22.11 C 63.31 27.85 64.02 33.80 65.62 39.53 C 66.18 41.27 66.80 43.57 69.05 43.56 C 70.11 42.86 70.94 41.85 71.32 40.64 C 73.47 33.93 73.91 26.77 76.23 20.10 C 77.12 17.28 80.47 16.76 83.02 16.86 C 84.89 16.92 87.44 16.96 88.24 19.06 C 88.73 20.87 88.00 22.72 87.56 24.47 C 83.28 37.33 79.01 50.19 74.88 63.10 C 73.28 67.83 71.10 73.04 66.34 75.33 C 62.74 76.74 58.72 76.73 54.94 76.25 C 51.47 75.92 50.43 70.93 52.75 68.70 C 55.02 67.13 57.95 66.82 60.12 65.11 C 62.16 63.07 61.21 60.05 60.61 57.62 C 57.36 46.29 53.27 35.22 49.97 23.91 C 49.51 21.78 48.61 18.29 51.25 17.27 Z" />
<path fill="#ffffff" d=" M 159.38 24.61 C 163.33 23.60 168.48 25.76 169.28 30.06 C 169.08 33.10 165.41 33.51 163.03 33.73 C 159.89 33.78 155.37 34.34 153.69 30.97 C 152.82 27.54 156.53 25.27 159.38 24.61 Z" />
<path fill="#ffffff" d=" M 112.13 25.18 C 115.06 24.50 118.40 25.27 120.41 27.60 C 123.19 30.72 123.94 35.07 124.15 39.12 C 124.32 43.66 123.55 48.77 119.99 51.95 C 116.41 55.26 110.06 54.99 107.05 51.05 C 103.84 46.76 103.55 41.03 104.08 35.89 C 104.54 31.26 107.24 26.21 112.13 25.18 Z" />
<path fill="#00447c" d=" M 188.47 46.61 C 191.90 46.00 196.63 45.87 198.67 49.28 C 199.19 52.39 199.14 55.66 198.70 58.78 C 196.77 62.89 191.09 62.61 187.46 61.34 C 183.84 59.78 183.87 55.22 184.25 51.92 C 184.39 49.48 185.92 47.04 188.47 46.61 Z" />
<path fill="#fdb813" d=" M 92.05 69.07 C 94.07 65.54 98.99 65.86 102.41 66.64 C 106.84 67.79 106.90 73.30 106.22 76.95 C 106.05 79.46 103.93 80.96 101.89 82.00 L 96.13 82.00 C 90.49 80.54 90.16 73.54 92.05 69.07 Z" />
<path fill="#fdb813" d=" M 112.40 67.24 C 115.31 65.75 118.95 65.83 121.97 66.98 C 125.67 68.70 125.41 73.54 124.90 76.94 C 124.69 79.32 122.67 80.80 120.83 82.00 L 115.14 82.00 C 112.81 81.21 110.20 79.82 110.01 77.04 C 109.60 73.76 109.32 69.36 112.40 67.24 Z" />
<path fill="#ee3224" d=" M 130.26 68.17 C 133.53 65.26 139.52 65.38 142.74 68.33 C 145.28 72.61 144.85 79.72 139.77 82.00 L 134.13 82.00 C 127.83 80.90 127.54 72.60 130.26 68.17 Z" />
<path fill="#ee3224" d=" M 149.53 67.55 C 152.55 65.63 156.65 65.78 159.87 67.13 C 163.32 68.94 163.01 73.59 162.56 76.88 C 162.34 79.47 160.21 81.13 157.95 82.00 L 152.16 82.00 C 150.08 80.96 147.76 79.55 147.61 76.94 C 147.22 73.82 147.02 69.88 149.53 67.55 Z" />
<path fill="#5a3f99" d=" M 167.87 67.85 C 170.66 65.59 174.80 65.84 178.04 66.89 C 181.95 68.44 181.78 73.52 181.20 76.97 C 181.01 79.47 178.89 80.96 176.86 82.00 L 171.12 82.00 C 169.16 81.12 166.84 80.03 166.43 77.67 C 165.83 74.44 165.60 70.51 167.87 67.85 Z" />
<path fill="#5a3f99" d=" M 185.66 68.58 C 188.11 65.46 192.86 65.84 196.28 66.83 C 199.07 67.64 199.61 70.77 200.00 73.24 L 200.00 73.83 C 199.97 77.08 198.68 80.15 195.93 82.00 L 189.15 82.00 C 183.68 80.11 183.46 73.02 185.66 68.58 Z" />
<path fill="#ffffff" d=" M 195.93 82.00 C 198.68 80.15 199.97 77.08 200.00 73.83 L 200.00 82.00 L 195.93 82.00 Z" />
</svg>
