<?xml version="1.0" encoding="utf-8"?>
<!-- Generator: Adobe Illustrator 16.2.1, SVG Export Plug-In . SVG Version: 6.00 Build 0)  -->
<!DOCTYPE svg PUBLIC "-//W3C//DTD SVG 1.1//EN" "http://www.w3.org/Graphics/SVG/1.1/DTD/svg11.dtd">
<svg version="1.1"
	 id="svg5702" xmlns:svg="http://www.w3.org/2000/svg" xmlns:rdf="http://www.w3.org/1999/02/22-rdf-syntax-ns#" xmlns:cc="http://creativecommons.org/ns#" xmlns:dc="http://purl.org/dc/elements/1.1/"
	 xmlns="http://www.w3.org/2000/svg" xmlns:xlink="http://www.w3.org/1999/xlink" x="0px" y="0px" width="50px" height="50px"
	 viewBox="396.957 128.709 50 50" enable-background="new 396.957 128.709 50 50" xml:space="preserve">
<g id="layer1" transform="translate(62.746667,-407.0673)">
	<g id="g7173">
		<path id="path3017" fill="#ED1C24" d="M359.209,585.775c13.808,0,25-11.193,25-24.998c0-13.808-11.193-25.001-25-25.001
			c-13.806,0-25,11.193-25,25.001C334.21,574.582,345.404,585.775,359.209,585.775"/>
		<path id="path3019" fill="#FFFFFF" d="M338.237,558.191h22.213c0,0,2.776-0.186,3.888,1.109c1.11,1.297,3.011,2.962,3.011,2.962
			s0.876,1.482,3.282,0c2.758-1.697,5.554-3.517,5.554-3.517l-1.667-1.481h7.961l-11.663,8.331c0,0-2.222,2.034-4.362,0
			c-2.562-2.437-3.69-1.389-5.633,0c-1.508,1.075-6.109,4.442-6.109,4.442h-13.328l12.773-9.44l-18.697,0.08"/>
	</g>
</g>
</svg>
