<?xml version="1.0" encoding="utf-8"?>
<!-- Generator: Adobe Illustrator 16.2.1, SVG Export Plug-In . SVG Version: 6.00 Build 0)  -->
<!DOCTYPE svg PUBLIC "-//W3C//DTD SVG 1.1//EN" "http://www.w3.org/Graphics/SVG/1.1/DTD/svg11.dtd">
<svg version="1.1"
	 id="Layer_1" xmlns:dc="http://purl.org/dc/elements/1.1/" xmlns:cc="http://web.resource.org/cc/" xmlns:rdf="http://www.w3.org/1999/02/22-rdf-syntax-ns#" xmlns:sodipodi="http://sodipodi.sourceforge.net/DTD/sodipodi-0.dtd" xmlns:inkscape="http://www.inkscape.org/namespaces/inkscape" sodipodi:version="0.32" inkscape:output_extension="org.inkscape.output.svg.inkscape" sodipodi:docname="Royal Brunei Airlines.svg" inkscape:version="0.45.1" xmlns:svg="http://www.w3.org/2000/svg" sodipodi:docbase="C:\Dokumente und Einstellungen\Christian Bier.MEDIACENTERPC\Desktop"
	 xmlns="http://www.w3.org/2000/svg" xmlns:xlink="http://www.w3.org/1999/xlink" x="0px" y="0px" width="50px" height="50px"
	 viewBox="61.998 124.287 50 50" enable-background="new 61.998 124.287 50 50" xml:space="preserve">
<sodipodi:namedview  pagecolor="#ffffff" gridtolerance="10.0" inkscape:cy="108.7865" inkscape:cx="111.498" inkscape:zoom="1.7327518" borderopacity="1.0" bordercolor="#666666" guidetolerance="10.0" objecttolerance="10.0" id="base" inkscape:window-x="-4" inkscape:pageshadow="2" inkscape:window-width="1280" inkscape:current-layer="Layer_1" inkscape:window-height="905" inkscape:pageopacity="0.0" inkscape:window-y="-4">
	</sodipodi:namedview>
<g id="g3" transform="matrix(0.96,0,0,0.96,4.45992,4.35148)">
	<g id="g5">
		<polygon id="polygon7" points="59.936,168.305 87.921,133.643 90.313,133.643 62.387,168.305 		"/>
		<polygon id="polygon9" fill="#EE7D11" points="65.065,168.305 93.051,133.643 95.215,133.643 67.229,168.305 		"/>
		<polygon id="polygon11" fill="#EE7D11" points="68.266,168.305 69.427,168.305 97.413,133.643 96.251,133.643 		"/>
		<polygon id="polygon13" fill="#EE7D11" points="70.463,168.305 98.449,133.643 112.019,133.643 84.034,168.305 		"/>
		
			<circle id="circle15" sodipodi:cy="43.316002" sodipodi:cx="122.047" sodipodi:rx="36.886002" sodipodi:ry="36.886002" fill="#FFFFFF" cx="80.03" cy="148.176" r="12.375">
		</circle>
		<g id="g17">
			<path id="path19" fill="#572F08" stroke="#FFFFFF" stroke-width="0.1513" stroke-miterlimit="2.6131" d="M86.754,153.103
				c0,0,0.836,0.62,2.701,0c0.366-0.377-0.05-0.534-0.05-0.534c0.197-0.291-0.145-0.359-0.145-0.359
				c0.145-0.334-0.214-0.423-0.214-0.423v-2.717c-0.052-0.268,0.01-0.567,0.01-0.567c0.751-0.599,1.582-2.086,1.281-2.942
				c-0.032-0.098,0.025-0.194,0.021-0.313c-0.01-0.091-0.083-0.14-0.153-0.166c-0.059-0.024-0.119-0.028-0.169-0.012l-0.025,0.002
				c-0.151-0.085-0.348-0.11-0.419,0.012c-0.028,0.048-0.043,0.098-0.057,0.15l-0.002-0.028c-0.169-0.08-0.304-0.007-0.368,0.119
				c-0.005,0.011-0.009,0.021-0.014,0.043l-0.005,0.061c-0.007-0.059-0.033-0.085-0.1-0.114c-0.033-0.014-0.078-0.009-0.107,0.012
				c-0.173,0.116-0.105,0.302-0.085,0.473c0.007,0.085-0.023,0.183,0.06,0.228c-0.195,0.093-0.273,0.338-0.162,0.499
				c-0.175,0.033-0.214,0.225-0.299,0.347c-0.105,0.144-0.257,0.256-0.43,0.335c-0.221,0.102-0.434,0.206-0.592,0.392
				c-0.304,0.363-0.232,0.756-0.261,1.21v2.977c0,0-0.366,0.09-0.219,0.423c0,0-0.345,0.068-0.147,0.359
				C86.804,152.569,86.388,152.726,86.754,153.103L86.754,153.103z"/>
			<g id="g21">
				<path id="path23" fill="none" stroke="#FFFFFF" stroke-width="0.128" stroke-miterlimit="2.6131" d="M89.146,145.464
					c0-0.082-0.023-0.114-0.1-0.15c-0.033-0.014-0.078-0.009-0.104,0.012c-0.176,0.116-0.107,0.302-0.088,0.473
					c0.007,0.085-0.023,0.183,0.06,0.228c-0.195,0.093-0.273,0.338-0.162,0.499c-0.175,0.033-0.214,0.225-0.299,0.347
					c-0.105,0.144-0.257,0.256-0.428,0.335c-0.223,0.102-0.437,0.206-0.594,0.392c-0.304,0.363-0.232,0.756-0.261,1.21"/>
				<path id="path25" fill="none" stroke="#FFFFFF" stroke-width="0.0698" stroke-miterlimit="2.6131" d="M88.413,148.013
					c0.164-0.313,0.423-0.543,0.648-0.836c0.06-0.073,0.133-0.199,0.076-0.266c-0.083-0.08-0.256-0.073-0.338,0.005
					c-0.332,0.294-0.603,0.662-1.074,0.76"/>
				<path id="path27" fill="none" stroke="#FFFFFF" stroke-width="0.0698" stroke-miterlimit="2.6131" d="M88.8,146.916
					c-0.08,0.068-0.08,0.194-0.054,0.268c0.047,0.117,0.23,0.074,0.316-0.007"/>
				<path id="path29" fill="none" stroke="#FFFFFF" stroke-width="0.0698" stroke-miterlimit="2.6131" d="M89.546,147.31
					c-0.06-0.009,0-0.164-0.01-0.185c-0.057-0.166,0.124-0.427,0.302-0.527c-0.048-0.021-0.023-0.19-0.041-0.226
					c-0.052-0.131,0.01-0.457,0.167-0.511c-0.192-0.093-0.105-0.551-0.039-0.694c0.046-0.1,0.162-0.131,0.281-0.089
					c0.066,0.028,0.142,0.078,0.153,0.169c0.004,0.116-0.053,0.214-0.021,0.313c0.301,0.853-0.53,2.343-1.281,2.942"/>
				<path id="path31" fill="none" stroke="#FFFFFF" stroke-width="0.0698" stroke-miterlimit="2.6131" d="M90.012,145.072
					c-0.151-0.085-0.348-0.11-0.419,0.012c-0.137,0.24-0.038,0.553-0.021,0.788c0.007,0.11-0.08,0.247-0.107,0.388
					c-0.028,0.121,0.005,0.249,0.053,0.347c-0.207,0.055-0.228,0.292-0.304,0.445"/>
				<path id="path33" fill="none" stroke="#FFFFFF" stroke-width="0.0698" stroke-miterlimit="2.6131" d="M89.534,145.205
					c-0.169-0.08-0.304-0.007-0.368,0.119c-0.043,0.08-0.05,0.427,0.087,0.612c0.036,0.05-0.05,0.128-0.068,0.238
					c-0.014,0.135,0.028,0.304,0.064,0.299c-0.121,0.11-0.145,0.261-0.195,0.402"/>
				<path id="path35" fill="none" stroke="#FFFFFF" stroke-width="0.0931" stroke-miterlimit="2.6131" d="M86.804,152.569
					c0,0,0.984,0.632,2.599,0"/>
				<path id="path37" fill="none" stroke="#FFFFFF" stroke-width="0.0931" stroke-miterlimit="2.6131" d="M86.952,152.21
					c0,0,0.926,0.516,2.309,0"/>
				<path id="path39" fill="none" stroke="#FFFFFF" stroke-width="0.0931" stroke-miterlimit="2.6131" d="M87.17,151.787
					c0,0,0.553,0.43,1.876,0"/>
				<path id="path41" fill="#572F08" stroke="#FFFFFF" stroke-width="0.1513" stroke-miterlimit="2.6131" d="M73.45,153.103
					c0,0-0.832,0.62-2.702,0c-0.366-0.377,0.051-0.534,0.051-0.534c-0.195-0.291,0.149-0.359,0.149-0.359
					c-0.149-0.334,0.215-0.423,0.215-0.423v-2.717c0.046-0.268-0.017-0.567-0.017-0.567c-0.749-0.599-1.576-2.086-1.279-2.942
					c0.031-0.098-0.024-0.194-0.016-0.313c0.004-0.091,0.078-0.14,0.153-0.166c0.057-0.024,0.117-0.028,0.164-0.012l0.027,0.002
					c0.149-0.085,0.347-0.11,0.417,0.012c0.028,0.048,0.047,0.098,0.056,0.15l0.007-0.028c0.164-0.08,0.305-0.007,0.367,0.119
					c0.004,0.011,0.008,0.021,0.012,0.043l0.008,0.061c0.004-0.059,0.031-0.085,0.101-0.114c0.032-0.014,0.075-0.009,0.106,0.012
					c0.175,0.116,0.101,0.302,0.085,0.473c-0.008,0.085,0.024,0.183-0.06,0.228c0.191,0.093,0.273,0.338,0.16,0.499
					c0.176,0.033,0.215,0.225,0.301,0.347c0.106,0.144,0.254,0.256,0.425,0.335c0.227,0.102,0.437,0.206,0.594,0.392
					c0.304,0.363,0.235,0.756,0.267,1.21v2.977c0,0,0.363,0.09,0.214,0.423c0,0,0.343,0.068,0.149,0.359
					C73.403,152.569,73.82,152.726,73.45,153.103L73.45,153.103z"/>
				<path id="path43" fill="none" stroke="#FFFFFF" stroke-width="0.128" stroke-miterlimit="2.6131" d="M71.061,145.464
					c-0.005-0.082,0.019-0.114,0.101-0.15c0.032-0.014,0.075-0.009,0.106,0.012c0.175,0.116,0.101,0.302,0.085,0.473
					c-0.008,0.085,0.024,0.183-0.06,0.228c0.191,0.093,0.273,0.338,0.16,0.499c0.176,0.033,0.215,0.225,0.301,0.347
					c0.106,0.144,0.254,0.256,0.425,0.335c0.227,0.102,0.437,0.206,0.594,0.392c0.304,0.363,0.235,0.756,0.267,1.21"/>
				<path id="path45" fill="none" stroke="#FFFFFF" stroke-width="0.0698" stroke-miterlimit="2.6131" d="M71.791,148.013
					c-0.164-0.313-0.422-0.543-0.647-0.836c-0.059-0.073-0.133-0.199-0.07-0.266c0.077-0.08,0.249-0.073,0.331,0.005
					c0.332,0.294,0.605,0.662,1.078,0.76"/>
				<path id="path47" fill="none" stroke="#FFFFFF" stroke-width="0.0698" stroke-miterlimit="2.6131" d="M71.404,146.916
					c0.086,0.068,0.082,0.194,0.056,0.268c-0.046,0.117-0.232,0.074-0.316-0.007"/>
				<path id="path49" fill="none" stroke="#FFFFFF" stroke-width="0.0698" stroke-miterlimit="2.6131" d="M70.662,147.31
					c0.06-0.009-0.004-0.164,0.005-0.185c0.058-0.166-0.116-0.427-0.301-0.527c0.05-0.021,0.023-0.19,0.039-0.226
					c0.055-0.131-0.009-0.457-0.16-0.511c0.187-0.093,0.101-0.551,0.036-0.694c-0.046-0.1-0.16-0.131-0.278-0.089
					c-0.074,0.028-0.147,0.078-0.153,0.169c-0.007,0.116,0.048,0.214,0.016,0.313c-0.297,0.853,0.53,2.343,1.28,2.942"/>
				<path id="path51" fill="none" stroke="#FFFFFF" stroke-width="0.0698" stroke-miterlimit="2.6131" d="M70.194,145.072
					c0.149-0.085,0.347-0.11,0.417,0.012c0.137,0.24,0.039,0.553,0.024,0.788c-0.007,0.11,0.082,0.247,0.109,0.388
					c0.024,0.121-0.008,0.249-0.058,0.347c0.212,0.055,0.234,0.292,0.309,0.445"/>
				<path id="path53" fill="none" stroke="#FFFFFF" stroke-width="0.0698" stroke-miterlimit="2.6131" d="M70.674,145.205
					c0.164-0.08,0.305-0.007,0.367,0.119c0.039,0.08,0.051,0.427-0.086,0.612c-0.039,0.05,0.051,0.128,0.063,0.238
					c0.019,0.135-0.028,0.304-0.063,0.299c0.125,0.11,0.149,0.261,0.2,0.402"/>
				<path id="path55" fill="none" stroke="#FFFFFF" stroke-width="0.0931" stroke-miterlimit="2.6131" d="M73.403,152.569
					c0,0-0.989,0.632-2.603,0"/>
				<path id="path57" fill="none" stroke="#FFFFFF" stroke-width="0.0931" stroke-miterlimit="2.6131" d="M73.254,152.21
					c0,0-0.925,0.516-2.307,0"/>
				<path id="path59" fill="none" stroke="#FFFFFF" stroke-width="0.0931" stroke-miterlimit="2.6131" d="M73.039,151.787
					c0,0-0.558,0.43-1.877,0"/>
				<path id="path61" fill="#572F08" stroke="#FFFFFF" stroke-width="0.1513" stroke-miterlimit="2.6131" d="M80.104,154.825
					c0,0,2.756,0.098,4.538-2.021c0,0,1.245-1.074,1.245,0.975c0,0,1.117,0.023,1.072,0.947c0,0,0.876,0.64,0.315,1.224
					c0,0-0.608-1.516-2.585,0.34c0,0-0.951,0.683-1.44-0.292c0,0-1.364,0.876-3.146,0.733c-1.782,0.142-3.15-0.733-3.15-0.733
					c-0.487,0.975-1.435,0.292-1.435,0.292c-1.979-1.855-2.587-0.34-2.587-0.34c-0.562-0.584,0.315-1.224,0.315-1.224
					c-0.046-0.924,1.074-0.947,1.074-0.947c0-2.049,1.246-0.975,1.246-0.975C77.345,154.923,80.104,154.825,80.104,154.825
					L80.104,154.825z"/>
				<path id="path63" fill="#572F08" stroke="#FFFFFF" stroke-width="0.1513" stroke-miterlimit="2.6131" d="M80.322,138.21
					c0,0,0.257-0.121,1.151,0.694c0,0,0.301,0.271-0.043,0.271c-0.338,0-0.608-0.036-0.338,0.243c0.269,0.28,0.511,1.015,0.38,1.015
					c-0.138,0-0.272-0.042-0.699-0.402c0,0-0.181-0.248-0.452-0.259V138.21L80.322,138.21z"/>
				<path id="path65" fill="#572F08" stroke="#FFFFFF" stroke-width="0.1513" stroke-miterlimit="2.6131" d="M75.565,144.585
					c-0.953,1.074-1.526,2.478-1.526,4.025c0,3.355,2.719,6.073,6.075,6.073c3.35,0,6.072-2.721,6.072-6.073
					c0-1.537-0.598-2.958-1.544-4.032l-0.142,0.195c0.421,0.736,0.663,1.601,0.663,2.514c0,2.342-1.595,4.318-3.754,4.892
					l-0.064-0.011c0.955-1.879-0.264-0.857-0.264-0.857c0.069-0.752-0.125-1.074-0.247-1.267c-0.121-0.195-0.311-0.771,0.197-1.023
					l0.05-0.022c0.217-0.163,0.304,0.167,0.293-0.017c-0.012-0.178-0.38-0.323-0.38-0.323l-0.019-0.007
					c-0.109-0.029-0.214-0.043-0.214-0.043c0.171-0.587-0.023-0.952-0.023-0.952s-0.373-0.763,0.075-1.124
					c0.841-0.684,0.024-0.587,0.024-0.587c0.05-0.121-0.1-0.511-0.1-0.511c0.1-0.048,0.318-0.173,0.318-0.242
					c0-0.073,0.095-0.194,0.095-0.194c0.66,1.24,1.832,0.436,1.832,0.436c0.734-0.023,0.758-0.414,0.758-0.414
					c0.599,0,0.827-0.303,0.898-0.446c0.024-0.043,0.026-0.067,0.026-0.067c1.366-0.463,0.782-1.146,0.782-1.146
					c-0.656,0.73-1.806-0.021-1.806-0.021c-1.972-1.931-3.293-0.587-3.293-0.587s-0.097-0.614,0.076-0.832
					c0,0,0.195,0.271,0.414,0.316c0.219,0.05,0.365-0.316,0.365-0.316s0.295-0.024,0.466,0.246c0.167,0.263,0.096-0.648,0.096-0.648
					s-0.026-1.11-1.44-1.258v-0.488v-1.561c0,0,0.428-0.451-0.218-0.561c-0.682,0.148-0.221,0.561-0.221,0.561v2.05
					c-1.413,0.149-1.437,1.258-1.437,1.258s-0.071,0.911,0.097,0.648c0.169-0.271,0.461-0.246,0.461-0.246s0.15,0.366,0.368,0.316
					c0.219-0.049,0.414-0.316,0.414-0.316c0.171,0.218,0.074,0.832,0.074,0.832s-1.317-1.344-3.296,0.587
					c0,0-1.143,0.752-1.801,0.021c0,0-0.586,0.684,0.779,1.146c0,0,0.141,0.512,0.925,0.512c0,0,0.028,0.392,0.757,0.415
					c0,0,1.172,0.804,1.83-0.436c0,0,0.1,0.121,0.1,0.194c0,0.069,0.218,0.194,0.315,0.242c0,0-0.144,0.39-0.097,0.511
					c0,0-0.803-0.097,0.024,0.587c0.442,0.366,0.073,1.122,0.073,1.122s-0.197,0.367-0.023,0.953c0,0-0.112,0.015-0.23,0.051
					c0,0-0.366,0.145-0.378,0.323c-0.012,0.184,0.069-0.145,0.292,0.017l0.048,0.022c0.506,0.252,0.314,0.828,0.195,1.023
					c-0.124,0.193-0.318,0.516-0.243,1.267c0,0-1.221-1.022-0.271,0.857l0.023,0.036c-2.204-0.547-3.84-2.543-3.84-4.916
					c0-0.91,0.253-1.777,0.671-2.51L75.565,144.585L75.565,144.585z"/>
				<path id="path67" fill="#572F08" stroke="#FFFFFF" stroke-width="0.1513" stroke-miterlimit="2.6131" d="M80.104,141.571
					c0.691,0,1.255-0.295,1.255-0.664c0-0.366-0.564-0.662-1.255-0.662c-0.694,0-1.254,0.296-1.254,0.662
					C78.849,141.276,79.41,141.571,80.104,141.571L80.104,141.571z"/>
				<path id="path69" fill="none" stroke="#000000" stroke-width="0.1513" stroke-miterlimit="2.6131" d="M79.856,142.752
					c0,0,0.238,0.165,0.247,0.229"/>
				<path id="path71" fill="none" stroke="#000000" stroke-width="0.1513" stroke-miterlimit="2.6131" d="M80.346,142.752
					c0,0-0.23,0.165-0.242,0.229"/>
				<path id="path73" fill="none" stroke="#000000" stroke-width="0.1513" stroke-miterlimit="2.6131" d="M75.541,144.506
					c0,0,0.816,0.309,1.561-0.452"/>
				<path id="path75" fill="none" stroke="#000000" stroke-width="0.1513" stroke-miterlimit="2.6131" d="M76.466,145.018
					c0,0,0.866,0.132,1.432-0.768"/>
				<path id="path77" fill="none" stroke="#000000" stroke-width="0.1513" stroke-miterlimit="2.6131" d="M77.224,145.431
					c0,0,0.875,0.033,1.331-0.932"/>
				<path id="path79" fill="none" stroke="#000000" stroke-width="0.1513" stroke-miterlimit="2.6131" d="M79.053,144.994
					c0,0,0.124-0.21,0.147-0.377"/>
				<path id="path81" fill="none" stroke="#000000" stroke-width="0.1513" stroke-miterlimit="2.6131" d="M84.663,144.506
					c0,0-0.815,0.309-1.561-0.452"/>
				<path id="path83" fill="none" stroke="#000000" stroke-width="0.1513" stroke-miterlimit="2.6131" d="M83.739,145.018
					c0,0-0.865,0.132-1.435-0.768"/>
				<path id="path85" fill="none" stroke="#000000" stroke-width="0.1513" stroke-miterlimit="2.6131" d="M82.981,145.431
					c0,0-0.875,0.033-1.331-0.932"/>
				<path id="path87" fill="none" stroke="#000000" stroke-width="0.1513" stroke-miterlimit="2.6131" d="M81.149,144.994
					c0,0-0.119-0.21-0.142-0.377"/>
				<path id="path89" fill="none" stroke="#000000" stroke-width="0.1513" stroke-miterlimit="2.6131" d="M79.372,145.944
					c0,0,0.314,0.039,0.378,0.321c0,0,0.183-0.295,0.354-0.309"/>
				<path id="path91" fill="none" stroke="#000000" stroke-width="0.1513" stroke-miterlimit="2.6131" d="M80.836,145.944
					c0,0-0.318,0.039-0.38,0.321c0,0-0.183-0.295-0.351-0.309"/>
			</g>
			<g id="g93">
				<path id="path95" fill="none" stroke="#FFFFFF" stroke-width="0.1513" stroke-miterlimit="2.6131" d="M79.372,148.617
					c0,0,0.366-0.081,0.378,0.316c0,0,0.183-0.292,0.354-0.305"/>
				<path id="path97" fill="none" stroke="#FFFFFF" stroke-width="0.1513" stroke-miterlimit="2.6131" d="M80.836,148.617
					c0,0-0.352-0.093-0.38,0.316c0,0-0.183-0.292-0.351-0.305"/>
				<path id="path99" fill="none" stroke="#FFFFFF" stroke-width="0.1513" stroke-miterlimit="2.6131" d="M81.08,151.311
					c0,0-0.344,0.322-0.368,0.44c0,0-0.269-0.605-0.608-0.683c-0.342,0.077-0.613,0.683-0.613,0.683
					c-0.024-0.121-0.364-0.44-0.364-0.44"/>
			</g>
			<g id="g101">
				<path id="path103" fill="none" stroke="#FFFFFF" stroke-width="0.2909" stroke-miterlimit="2.6131" d="M75.264,150.171
					c-0.319-0.093-0.561,0.252-0.584,0.612c-0.024,0.395,0.046,0.668,0.382,0.735c0.34,0.065,0.238-0.341,0.367-0.544
					c0.136-0.217,0.468-0.039,0.557,0.168c0.078,0.182-0.007,0.37-0.171,0.476c0-0.007,0-0.014,0-0.021"/>
				<path id="path105" fill="none" stroke="#FFFFFF" stroke-width="0.2909" stroke-miterlimit="2.6131" d="M75.424,151.751
					c0.258,0.434,0.664,0.067,0.801-0.275"/>
				<path id="path107" fill="none" stroke="#FFFFFF" stroke-width="0.2909" stroke-miterlimit="2.6131" d="M75.709,151.944
					c0.047,0.231,0.188,0.388,0.372,0.437c0.221,0.067,0.482-0.117,0.499-0.289c0.012-0.156-0.281-0.131-0.398-0.067
					c-0.234,0.132-0.402,0.406-0.336,0.732"/>
				<path id="path109" fill="none" stroke="#FFFFFF" stroke-width="0.2909" stroke-miterlimit="2.6131" d="M76.076,152.349
					c0.301,0.383,0.733,0.206,1.1-0.558"/>
				<path id="path111" fill="none" stroke="#FFFFFF" stroke-width="0.2909" stroke-miterlimit="2.6131" d="M77.361,152.046
					c-0.237,0.211-0.991,0.779-0.47,1.04c0.137,0.067,0.278-0.208,0.38-0.329"/>
				<path id="path113" fill="none" stroke="#FFFFFF" stroke-width="0.2909" stroke-miterlimit="2.6131" d="M77.626,152.772
					c-0.117,0.121-0.19,0.381-0.041,0.467c0.233,0.133,0.342-0.014,0.461-0.196"/>
				<path id="path115" fill="none" stroke="#FFFFFF" stroke-width="0.2909" stroke-miterlimit="2.6131" d="M76.957,153.484
					c0.418,0.482,1.019,0.366,1.481,0.075c0.135-0.08,0.28-0.256,0.23-0.456c-0.019-0.081-0.1-0.125-0.176-0.146
					c-0.071-0.028-0.152-0.01-0.199,0.068c-0.109,0.181-0.034,0.392,0.138,0.441c0.247,0.078,0.333,0.153,0.537,0.199"/>
				<path id="path117" fill="none" stroke="#FFFFFF" stroke-width="0.2909" stroke-miterlimit="2.6131" d="M81.282,153.644
					c-0.091,0.053-0.523,0.181-0.727,0.181c-0.285,0-0.269-0.425-0.24-0.211c0,0.021-0.054,0.121-0.102,0.143
					c-0.304,0.141-0.231-0.249-0.274-0.164c0,0,0.126,0.281-0.254,0.231c0,0-0.143-0.023-0.095-0.292c0,0,0.026,0.39-0.623,0.132"/>
				<path id="path119" fill="none" stroke="#FFFFFF" stroke-width="0.2909" stroke-miterlimit="2.6131" d="M80.533,153.42
					c0.133-0.036,0.192,0.064,0.302,0.157c0.057,0.05,0.162,0.093,0.447,0.068"/>
				<path id="path121" fill="none" stroke="#FFFFFF" stroke-width="0.2909" stroke-miterlimit="2.6131" d="M80.944,153.751
					c0.085,0.215,0.256,0.4,0.509,0.341c0.041-0.007,0.071-0.041,0.11-0.064"/>
				<path id="path123" fill="none" stroke="#FFFFFF" stroke-width="0.2909" stroke-miterlimit="2.6131" d="M81.61,153.747
					c0.133-0.081,0.238-0.128,0.364-0.014c0.183,0.16-0.003,0.456-0.236,0.459C81.579,154.196,81.43,153.911,81.61,153.747"/>
				<path id="path125" fill="none" stroke="#FFFFFF" stroke-width="0.2909" stroke-miterlimit="2.6131" d="M82.033,153.852
					c0.195-0.034,0.37-0.076,0.4-0.233c0.061-0.349-0.257-0.968-0.343-1.288"/>
				<path id="path127" fill="none" stroke="#FFFFFF" stroke-width="0.2909" stroke-miterlimit="2.6131" d="M82.392,152.21
					c0.102,0.409,0.306,0.801,0.349,1.195"/>
				<path id="path129" fill="none" stroke="#FFFFFF" stroke-width="0.2909" stroke-miterlimit="2.6131" d="M82.751,152.562
					c0.075,0.242,0.109,0.338,0.328,0.331c0.242-0.007,0.247-0.391,0.152-0.601"/>
				<path id="path131" fill="none" stroke="#FFFFFF" stroke-width="0.1862" stroke-miterlimit="2.6131" d="M82.933,152.125
					c-0.038-0.046-0.102-0.018-0.121,0.018c-0.031,0.063,0.043,0.121,0.096,0.085C82.936,152.21,82.979,152.167,82.933,152.125
					L82.933,152.125z"/>
				<path id="path133" fill="none" stroke="#FFFFFF" stroke-width="0.2909" stroke-miterlimit="2.6131" d="M84.1,151.969
					c-0.159-0.111-0.1-0.129-0.043-0.299c0.036-0.093,0.238-0.143,0.321-0.04c0.064,0.089,0.116,0.174,0.069,0.263
					C84.371,152.035,84.229,152.035,84.1,151.969"/>
				<path id="path135" fill="none" stroke="#FFFFFF" stroke-width="0.2909" stroke-miterlimit="2.6131" d="M84.44,151.706
					c0.414-0.268,0.544-0.43,0.309-0.608"/>
				<path id="path137" fill="none" stroke="#FFFFFF" stroke-width="0.2909" stroke-miterlimit="2.6131" d="M84.57,150.706
					c-0.138,0.139-0.152,0.291-0.209,0.334"/>
				<path id="path139" fill="none" stroke="#FFFFFF" stroke-width="0.2909" stroke-miterlimit="2.6131" d="M84.476,150.431
					c0.14,0.243,0.313,0.46,0.508,0.662"/>
				<path id="path141" fill="none" stroke="#FFFFFF" stroke-width="0.2909" stroke-miterlimit="2.6131" d="M85.07,151.111
					c0.225-0.232,0.313-0.388-0.072-0.787"/>
				<path id="path143" fill="none" stroke="#FFFFFF" stroke-width="0.2909" stroke-miterlimit="2.6131" d="M85.278,150.752
					c0.176-0.09,0.309-0.272,0.299-0.417c0-0.07-0.038-0.106-0.082-0.157c-0.231-0.256-0.329-0.355-0.597-0.629"/>
				<path id="path145" fill="none" stroke="#FFFFFF" stroke-width="0.2909" stroke-miterlimit="2.6131" d="M84.979,149.282
					c0.242,0.238,0.494,0.463,0.687,0.761"/>
				<path id="path147" fill="none" stroke="#FFFFFF" stroke-width="0.2909" stroke-miterlimit="2.6131" d="M74.991,153.779
					c0.104,0.168,0.371,0.157,0.531,0.282"/>
				<path id="path149" fill="none" stroke="#FFFFFF" stroke-width="0.2909" stroke-miterlimit="2.6131" d="M75.6,153.907
					c0.078-0.05,0.188-0.128,0.285-0.124c0.238,0.007,0.243,0.425,0.142,0.578c-0.075,0.109-0.254,0.116-0.391,0.059
					C75.483,154.357,75.518,154.044,75.6,153.907"/>
				<path id="path151" fill="none" stroke="#FFFFFF" stroke-width="0.2909" stroke-miterlimit="2.6131" d="M75.838,154.66
					c0.199,0.133,0.402,0.32,0.635,0.24c0.204-0.076,0.247-0.454,0.304-0.747"/>
				<path id="path153" fill="none" stroke="#FFFFFF" stroke-width="0.2909" stroke-miterlimit="2.6131" d="M76.192,154.711
					c0.149-0.278,0.227-0.441,0.293-0.753"/>
				<path id="path155" fill="none" stroke="#FFFFFF" stroke-width="0.2909" stroke-miterlimit="2.6131" d="M78.457,155.969
					c0.145,0.073,0.16,0.047,0.279,0.097c0.553,0.236,0.498-0.712,0.541-1.085"/>
				<path id="path157" fill="none" stroke="#FFFFFF" stroke-width="0.2909" stroke-miterlimit="2.6131" d="M79.571,155.021
					c0.072,0.551-0.064,0.765-0.247,1.202"/>
				<path id="path159" fill="none" stroke="#FFFFFF" stroke-width="0.2909" stroke-miterlimit="2.6131" d="M80.638,155.572
					c0.114,0.13,0.359,0.214,0.297,0.404c-0.028,0.085-0.128,0.242-0.371,0.242"/>
				<path id="path161" fill="none" stroke="#FFFFFF" stroke-width="0.2909" stroke-miterlimit="2.6131" d="M83.917,154.11
					c-0.19,0.323-0.426,0.395-0.416,0.16c0.007-0.197,0.052-0.117,0.114-0.238c0.047-0.1,0.204-0.104,0.242,0
					c0.162,0.448-0.05,1.115-0.499,1.219"/>
				<path id="path163" fill="none" stroke="#FFFFFF" stroke-width="0.2909" stroke-miterlimit="2.6131" d="M83.91,155.172
					c0.185-0.34,0.218-0.895,0.164-1.187c-0.005-0.021,0.135,0,0.159-0.007c0.235-0.091,0.542-0.323,0.475-0.456"/>
				<path id="path165" fill="none" stroke="#FFFFFF" stroke-width="0.2909" stroke-miterlimit="2.6131" d="M84.361,150.531
					c-0.109,0.09-0.147,0.271,0.091,0.38"/>
				<path id="path167" fill="none" stroke="#FFFFFF" stroke-width="0.2909" stroke-miterlimit="2.6131" d="M83.487,153.4
					c0.703-0.721,0.533-0.955,0.328-1.414c-0.067-0.154-0.318-0.164-0.361,0.018c-0.06,0.266,0.207,0.327,0.375,0.259
					c0.171-0.065,0.173-0.164,0.271-0.292"/>
				<path id="path169" fill="none" stroke="#FFFFFF" stroke-width="0.1862" stroke-miterlimit="2.6131" d="M79.41,153.014
					c-0.038-0.043-0.102-0.02-0.121,0.018c-0.031,0.064,0.043,0.121,0.093,0.089C79.41,153.099,79.453,153.06,79.41,153.014
					L79.41,153.014z"/>
				<path id="path171" fill="none" stroke="#FFFFFF" stroke-width="0.1862" stroke-miterlimit="2.6131" d="M78.019,152.623
					c-0.043-0.043-0.102-0.018-0.121,0.02c-0.033,0.064,0.041,0.121,0.091,0.085C78.019,152.709,78.063,152.672,78.019,152.623
					L78.019,152.623z"/>
				<path id="path173" fill="none" stroke="#FFFFFF" stroke-width="0.2909" stroke-miterlimit="2.6131" d="M82.308,155.289
					c0.1,0.283,0.235,0.388,0.45,0.323c0.192-0.055,0.33-0.096,0.356-0.179c0.078-0.269,0-0.406-0.247-0.347
					c0,0,0.326-0.114,0.091-0.361"/>
				<path id="path175" fill="none" stroke="#FFFFFF" stroke-width="0.2909" stroke-miterlimit="2.6131" d="M79.177,156.337
					c0.33,0.128,0.874,0.128,0.87-0.466"/>
				<path id="path177" fill="none" stroke="#FFFFFF" stroke-width="0.1862" stroke-miterlimit="2.6131" d="M76.774,153.21
					c-0.04-0.046-0.102-0.021-0.121,0.019c-0.031,0.062,0.043,0.121,0.096,0.085C76.774,153.295,76.82,153.256,76.774,153.21
					L76.774,153.21z"/>
				<path id="path179" fill="none" stroke="#FFFFFF" stroke-width="0.2909" stroke-miterlimit="2.6131" d="M80.313,155.165
					c0.085,0.336,0.014,0.683,0,1.02"/>
				<path id="path181" fill="none" stroke="#FFFFFF" stroke-width="0.1862" stroke-miterlimit="2.6131" d="M82.879,155.599
					c-0.043-0.048-0.1-0.024-0.121,0.014c-0.036,0.066,0.045,0.121,0.093,0.09C82.879,155.684,82.922,155.641,82.879,155.599
					L82.879,155.599z"/>
				<path id="path183" fill="none" stroke="#FFFFFF" stroke-width="0.1862" stroke-miterlimit="2.6131" d="M83.045,155.572
					c-0.045-0.048-0.105-0.021-0.123,0.014c-0.034,0.066,0.038,0.121,0.09,0.091C83.045,155.658,83.088,155.613,83.045,155.572
					L83.045,155.572z"/>
				<path id="path185" fill="none" stroke="#FFFFFF" stroke-width="0.1862" stroke-miterlimit="2.6131" d="M82.879,154.838
					c-0.043-0.045-0.1-0.021-0.121,0.019c-0.036,0.061,0.045,0.121,0.093,0.085C82.879,154.923,82.922,154.882,82.879,154.838
					L82.879,154.838z"/>
				<path id="path187" fill="none" stroke="#FFFFFF" stroke-width="0.1862" stroke-miterlimit="2.6131" d="M84.647,153.985
					c-0.043-0.048-0.1-0.019-0.119,0.018c-0.038,0.064,0.038,0.124,0.088,0.089C84.647,154.073,84.687,154.028,84.647,153.985
					L84.647,153.985z"/>
				<path id="path189" fill="none" stroke="#FFFFFF" stroke-width="0.2909" stroke-miterlimit="2.6131" d="M78.457,155.969
					c-0.263-0.091-0.121-0.492-0.164-0.278c-0.005,0.021-0.085,0.1-0.142,0.107c-0.331,0.033-0.135-0.309-0.204-0.242
					c0,0,0.031,0.303-0.313,0.139c0,0-0.128-0.071,0-0.308c0,0-0.093,0.465-0.948-0.279c0,0-0.229-0.09-0.131-0.256"/>
			</g>
		</g>
	</g>
</g>
</svg>
