<?xml version="1.0" encoding="utf-8"?>
<!-- Generator: Adobe Illustrator 16.2.1, SVG Export Plug-In . SVG Version: 6.00 Build 0)  -->
<!DOCTYPE svg PUBLIC "-//W3C//DTD SVG 1.1//EN" "http://www.w3.org/Graphics/SVG/1.1/DTD/svg11.dtd">
<svg version="1.1" id="Layer_1" xmlns="http://www.w3.org/2000/svg" xmlns:xlink="http://www.w3.org/1999/xlink" x="0px" y="0px"
	 width="50px" height="50px" viewBox="0 0 50 50" enable-background="new 0 0 50 50" xml:space="preserve">
<g>
	<path fill-rule="evenodd" clip-rule="evenodd" fill="#2B7EB2" d="M46.627,20.058c1.292-0.019,2.424,0.078,3.373,0.401
		c-2.05,0.987-3.486,2.105-5.1,3.414c-7.022,5.696-12.481,13.539-22.971,15.863c-8.631,1.401-16.537-2.678-19.68-7.79
		C1.579,30.857-0.034,27.674,0,25.761c1.31,2.352,3.2,4.484,5.26,6.105c1.656,1.301,3.44,2.228,5.624,3.051
		c3.236,1.223,7.967,0.31,10.764-0.562c8.367-2.607,12.933-8.31,19.597-12.45C43.082,20.766,44.18,20.438,46.627,20.058
		L46.627,20.058z M37.672,20.179c1.029,0.039,2.062,0.08,3.091,0.12c-2.167,1.433-3.453,2.904-5.621,4.338
		c-5.198,4.079-8.696,7.677-16.386,9.276c-7.151,1.608-16.576-3.62-17.31-9.036c0.041,0.015,0.081,0.026,0.121,0.041
		c1.141,1.52,2.901,3.055,4.659,3.936c9.841,4.635,19.057-4.455,25.22-7.189c1.147-0.508,2.424-0.932,3.776-1.205
		C36.038,20.367,36.855,20.272,37.672,20.179L37.672,20.179z"/>
	<path fill-rule="evenodd" clip-rule="evenodd" fill="#F5BB4C" d="M15.623,10.018c1.088-0.021,2.325-0.107,3.253,0.12
		c0.804,0.198,1.645,0.305,2.37,0.603c2.6,1.068,4.733,2.606,6.264,4.739c1.031,1.433,2.088,3.199,2.371,5.342
		c-0.376,0.167-0.708,0.435-1.045,0.642c-0.719,0.444-1.436,0.848-2.127,1.285c-1.36,0.859-2.804,1.573-4.178,2.411
		c-0.569,0.347-1.188,0.569-1.807,0.843c-0.488,0.215-1.025,0.51-1.526,0.723c-0.958,0.408-2.005,0.666-3.052,0.964
		c-0.593,0.169-1.235,0.141-1.848,0.28c-0.295,0-0.589,0-0.884,0c-0.54,0.02-1.265,0.085-1.807-0.039c-0.16,0-0.322,0-0.482,0
		c-0.522-0.08-1.043-0.161-1.566-0.241c-1.887-0.537-3.032-1.091-4.417-2.088c-0.321-0.23-0.613-0.447-0.924-0.683
		c0.053,0.06-0.884-0.844-0.884-0.844c0,0,0-0.91,0-1.365c0.089-0.152-0.007-0.435,0.041-0.644c0.067-0.481,0.134-0.963,0.201-1.444
		c0.349-1.345,0.721-2.634,1.365-3.694c1.583-2.604,3.747-4.725,6.667-5.985c0.754-0.326,1.602-0.507,2.45-0.724
		C14.579,10.152,15.101,10.085,15.623,10.018L15.623,10.018z"/>
</g>
</svg>
