<?xml version="1.0" encoding="utf-8"?>
<!-- Generator: Adobe Illustrator 16.2.1, SVG Export Plug-In . SVG Version: 6.00 Build 0)  -->
<!DOCTYPE svg PUBLIC "-//W3C//DTD SVG 1.1//EN" "http://www.w3.org/Graphics/SVG/1.1/DTD/svg11.dtd">
<svg version="1.1" id="Calque_1" xmlns="http://www.w3.org/2000/svg" xmlns:xlink="http://www.w3.org/1999/xlink" x="0px" y="0px"
	 width="50px" height="50px" viewBox="0 0 50 50" enable-background="new 0 0 50 50" xml:space="preserve">
<g>
	<g>
		<path d="M47.177,50H2.823V0h44.354V50z M3.959,48.862h42.082V1.138H3.959V48.862z"/>
	</g>
	<g>
		<polygon fill-rule="evenodd" clip-rule="evenodd" fill="#FFFFFF" points="5.744,2.805 44.255,2.805 44.255,47.195 5.744,47.195 
			5.744,2.805 		"/>
	</g>
	<g>
		<path fill-rule="evenodd" clip-rule="evenodd" d="M26.128,2.805c-0.326,0.211-0.638,0.382-0.929,0.514
			c-1.226,2.499-9.025,4.868-11.688,4.739l-0.333,0.256L12.804,8.06l-0.248,0.247h-1.833l-0.602-0.498H8.5
			c-0.803-0.601-1.803-0.7-2.756-0.906V2.805H26.128L26.128,2.805z"/>
	</g>
	<g>
		<path fill-rule="evenodd" clip-rule="evenodd" d="M36.63,2.805c-3.486,3.577-7.599,7.096-10.229,8.792
			c-1.805,1.163-5.089,3.298-7.02,4.038c-1.39,0.536-12.66,2.602-12.66,4.46c0,1.708,3.342,1.379,4.345,1.379l0.163-0.247
			c4.915,1.625,22.181-10.125,29.48-18.422h1.667c-2.466,2.874-3.806,6.372-7.734,8.658c-1.82,3.89-16.086,11.672-20.349,11.513
			l-0.249,0.252l-2.979,0.249c-1.551-0.778-3.321-1.264-5.062-1.006l-0.261-0.18v-6.636c0.881,0.223,1.746-0.008,2.647-0.191
			c9.347-1.945,17.14-6.474,23.54-12.659H36.63L36.63,2.805z"/>
	</g>
	<g>
		<path fill-rule="evenodd" clip-rule="evenodd" d="M44.255,9.838c-0.809,1.108-1.6,2.181-2.333,3.209
			c-0.761,1.067-1.823,1.872-2.489,3.014c-3.442,1.582-5.826,4.711-8.951,6.771c-7.671,5.062-15.483,8.369-24.738,8.31v-1.729
			l4.826-0.008l0.249-0.254h1.785c2.557-1.83,5.907-1.689,8.676-3.043c4.099-2.004,17.357-11.676,19.964-15.599
			c0.992-1.493,1.95-2.978,3.012-4.427V9.838L44.255,9.838z"/>
	</g>
	<g>
		<path fill-rule="evenodd" clip-rule="evenodd" d="M44.255,19.439c-2.897,5.73-5.472,11.893-8.291,16.31
			c-1.391,2.177-3.074,4.135-4.664,6.164l0.089,0.427c4.609-3.427,9.417-8.738,12.866-14.424v2.71
			c-1.245,2.097-2.624,4.104-4.325,5.883c-2.326,2.434-5.408,3.818-7.79,6.101c-0.741,0.711-1.55,2.382-2.864,1.727l-0.939,0.733
			c3.84-5.864,6.517-12.396,9.67-18.638l-0.994-0.877c-2.931,1.033-8.923,8.637-11.985,6.764l-2.539,1.709
			c-2.082-0.151-8.515,3.433-13.409,3.3l-0.357-0.474c5.825-2.03,29.605-12.013,33.544-18.248c0.716-0.672,1.375-1.404,1.988-2.181
			V19.439L44.255,19.439z"/>
	</g>
	<g>
		<path fill-rule="evenodd" clip-rule="evenodd" d="M44.255,44.909c-0.511,0.567-1.034,1.123-1.569,1.671h-7.896l0.255-0.978
			c3.686-1.044,6.724-3.667,9.209-6.725V44.909L44.255,44.909z"/>
	</g>
	<g>
		<path fill-rule="evenodd" clip-rule="evenodd" d="M31.093,32.08h0.447v1.706c-0.706,0.772-4.452,10.875-5.23,12.782h-0.713
			C27.982,40.898,26.23,36.363,31.093,32.08L31.093,32.08z"/>
	</g>
	<g>
		<path fill-rule="evenodd" clip-rule="evenodd" d="M24.389,34.835h1.686v1.213c-0.813,0.396-0.451,2.282-1.352,2.282
			c-0.325,0-2.358-2.083-2.358-2.129C22.364,34.917,23.624,35.594,24.389,34.835L24.389,34.835z"/>
	</g>
	<g>
		<path fill-rule="evenodd" clip-rule="evenodd" d="M6.01,37.084c0.672,0.247,1.146,0.494,1.457,0.494
			c0.31,0,0.476-0.901,2.451-1.063l0.216,0.352c-0.536,0.731-2.677,0.652-3.197,1.451H5.744V37.26L6.01,37.084L6.01,37.084z"/>
	</g>
	<g>
		<path fill-rule="evenodd" clip-rule="evenodd" d="M23.481,40.333l0.851,0.268l0.267,1.234c-0.494,0.795-0.446,3.367-1.021,4.745
			h-0.956l-0.009-2.692l-1.58-2.028c-4.007-0.709-8.094,0.696-12.078-0.275l-0.496,0.251l-1.227-0.522v-0.459
			c0.629,0.069,1.418,0.092,1.972-0.271l2.257,0.312c1.871-0.189,4.772-1.465,7.798-2.065
			C20.454,38.596,22.057,41.226,23.481,40.333L23.481,40.333z"/>
	</g>
	<g>
		<path fill-rule="evenodd" clip-rule="evenodd" d="M15.917,45.373c0.641,0.135,1.305,0.227,1.96,0.238l0.495,0.499v0.476
			C15.953,46.655,16.823,46.446,15.917,45.373L15.917,45.373z"/>
	</g>
	<g>
		<path fill-rule="evenodd" clip-rule="evenodd" d="M11.687,45.843c0.43,0.492,3.581-0.312,4.062-0.589l1.666,1.321H6.982
			C8.635,45.477,9.654,45.238,11.687,45.843L11.687,45.843z"/>
	</g>
	<g>
		<path fill-rule="evenodd" clip-rule="evenodd" fill="#00AEEF" d="M27.896,2.805c-0.813,0.669-1.565,1.176-2.222,1.473
			c-1.226,2.496-9.024,4.866-11.689,4.737l-0.332,0.256l-0.374-0.252l-0.248,0.247h-1.833l-0.602-0.5H8.975
			c-0.938-0.698-2.143-0.722-3.231-1.02V2.805H27.896L27.896,2.805z"/>
	</g>
	<g>
		<path fill-rule="evenodd" clip-rule="evenodd" fill="#00AEEF" d="M38.022,2.805c-3.657,3.891-8.281,7.903-11.146,9.751
			c-1.804,1.163-5.088,3.295-7.019,4.035c-1.389,0.539-12.662,2.602-12.662,4.463c0,1.704,3.344,1.377,4.345,1.377l0.164-0.245
			c5.108,1.687,23.555-11.065,30.291-19.381h1.753c-3.09,3.015-4.254,7.071-8.632,9.614c-1.819,3.89-16.084,11.675-20.347,11.515
			l-0.248,0.251l-2.98,0.251c-1.551-0.778-3.32-1.264-5.061-1.006l-0.736-0.512v-6.466c1.049,0.469,2.06,0.188,3.122-0.031
			c9.823-2.041,17.931-6.941,24.507-13.616H38.022L38.022,2.805z"/>
	</g>
	<g>
		<path fill-rule="evenodd" clip-rule="evenodd" fill="#00AEEF" d="M44.255,11.444c-0.643,0.88-1.27,1.733-1.858,2.56
			c-0.763,1.07-1.823,1.871-2.489,3.016c-3.442,1.582-5.826,4.708-8.95,6.771c-7.803,5.147-15.753,8.481-25.215,8.303v-1.724
			l5.302-0.01l0.248-0.251h1.785c2.557-1.83,5.906-1.691,8.675-3.045c4.1-2.004,17.357-11.674,19.966-15.597
			c0.843-1.267,1.659-2.53,2.536-3.768V11.444L44.255,11.444z"/>
	</g>
	<g>
		<path fill-rule="evenodd" clip-rule="evenodd" fill="#00AEEF" d="M44.255,21.345c-2.706,5.454-5.152,11.187-7.816,15.363
			c-1.39,2.177-3.074,4.135-4.662,6.162l0.088,0.429c4.402-3.271,8.983-8.262,12.391-13.657v2.728
			c-1.122,1.813-2.362,3.542-3.849,5.099c-2.328,2.434-5.408,3.818-7.792,6.101c-0.74,0.711-1.548,2.382-2.865,1.725l-0.937,0.732
			c3.84-5.863,6.517-12.393,9.668-18.634l-0.994-0.878c-2.929,1.033-8.923,8.637-11.984,6.764l-2.54,1.709
			c-2.08-0.151-8.514,3.433-13.409,3.3L9.198,37.81c5.825-2.029,29.604-12.01,33.544-18.245c0.535-0.503,1.038-1.039,1.513-1.602
			V21.345L44.255,21.345z"/>
	</g>
	<g>
		<path fill-rule="evenodd" clip-rule="evenodd" fill="#00AEEF" d="M44.255,46.386c-0.251,0.273-0.505,0.541-0.762,0.81h-8.138
			l0.166-0.636c3.455-0.977,6.34-3.345,8.734-6.153V46.386L44.255,46.386z"/>
	</g>
	<g>
		<path fill-rule="evenodd" clip-rule="evenodd" fill="#00AEEF" d="M31.568,33.039h0.446v1.706
			c-0.669,0.735-4.094,9.921-5.096,12.45h-0.713C28.392,41.678,26.801,37.237,31.568,33.039L31.568,33.039z"/>
	</g>
	<g>
		<path fill-rule="evenodd" clip-rule="evenodd" fill="#00AEEF" d="M24.863,35.794h1.687v1.21c-0.813,0.398-0.452,2.283-1.352,2.283
			c-0.327,0-2.358-2.082-2.358-2.129C22.839,35.876,24.098,36.55,24.863,35.794L24.863,35.794z"/>
	</g>
	<g>
		<path fill-rule="evenodd" clip-rule="evenodd" fill="#00AEEF" d="M6.485,38.042c0.671,0.248,1.145,0.495,1.456,0.495
			s0.479-0.901,2.453-1.063l0.214,0.352c-0.537,0.731-2.676,0.652-3.195,1.449H5.744v-0.741L6.485,38.042L6.485,38.042z"/>
	</g>
	<g>
		<path fill-rule="evenodd" clip-rule="evenodd" fill="#00AEEF" d="M23.957,41.292l0.851,0.268l0.266,1.234
			c-0.456,0.73-0.449,2.978-0.896,4.401h-1.083l-0.008-2.349l-1.579-2.027c-4.006-0.71-8.093,0.696-12.077-0.276l-0.496,0.251
			l-1.227-0.522v-0.458c0.63,0.068,1.417,0.091,1.972-0.272l2.256,0.312c1.872-0.189,4.774-1.464,7.799-2.065
			C20.927,39.555,22.532,42.185,23.957,41.292L23.957,41.292z"/>
	</g>
	<g>
		<path fill-rule="evenodd" clip-rule="evenodd" fill="#00AEEF" d="M16.392,46.333c0.641,0.134,1.304,0.225,1.96,0.235l0.495,0.501
			v0.126h-1.923C16.82,47.004,16.725,46.729,16.392,46.333L16.392,46.333z"/>
	</g>
	<g>
		<path fill-rule="evenodd" clip-rule="evenodd" fill="#00AEEF" d="M12.162,46.8c0.429,0.492,3.581-0.312,4.062-0.587l1.243,0.982
			H7.992C9.351,46.393,10.356,46.264,12.162,46.8L12.162,46.8z"/>
	</g>
</g>
</svg>
