<?xml version="1.0" encoding="utf-8"?>
<!-- Generator: Adobe Illustrator 16.2.1, SVG Export Plug-In . SVG Version: 6.00 Build 0)  -->
<!DOCTYPE svg PUBLIC "-//W3C//DTD SVG 1.1//EN" "http://www.w3.org/Graphics/SVG/1.1/DTD/svg11.dtd">
<svg version="1.1" id="svg2" xmlns:svg="http://www.w3.org/2000/svg"
	 xmlns="http://www.w3.org/2000/svg" xmlns:xlink="http://www.w3.org/1999/xlink" x="0px" y="0px" width="50px" height="50px"
	 viewBox="517.429 203.649 50 50" enable-background="new 517.429 203.649 50 50" xml:space="preserve">
<g id="layer1" transform="translate(-2190.77,-43.268858)">
	<g id="g3609" transform="translate(35.433067,35.349896)">
		<path id="path3018" fill="#FFFFFF" d="M2722.612,218.345c-0.157-0.221-0.412-0.353-0.683-0.353h-2.306
			c-0.356,0-0.675,0.227-0.791,0.562l-12.359,35.474c-0.091,0.255-0.05,0.54,0.107,0.761c0.157,0.22,0.411,0.353,0.682,0.353h2.306
			c0.356,0,0.673-0.227,0.79-0.562l12.36-35.474C2722.809,218.848,2722.767,218.565,2722.612,218.345z"/>
		<path id="path3022" fill="#FFFFFF" d="M2719.033,218.349c-0.157-0.22-0.411-0.353-0.681-0.353h-16.993
			c-0.258,0-0.501,0.119-0.658,0.322l-27.758,35.475c-0.197,0.252-0.232,0.595-0.092,0.883c0.141,0.286,0.432,0.47,0.752,0.47h0.757
			h31.634c0.356,0,0.675-0.225,0.79-0.562l12.359-35.474C2719.23,218.853,2719.19,218.569,2719.033,218.349z"/>
		<path id="path3098" fill="#FFFFFF" d="M2697.988,224.198l-13.099,16.741c1.811,4.881,6.416,8.118,11.678,8.118
			c6.877,0,12.471-5.595,12.471-12.471C2709.038,230.222,2704.237,224.906,2697.988,224.198z"/>
		<path id="path3102" fill="#FF6600" d="M2719.65,218.869l-12.359,35.474h2.306l12.36-35.474H2719.65z"/>
		<path id="path3106" fill="#FFFFFF" d="M2701.411,227.868c1.016,1.152,1.829,2.476,2.392,3.901c0.954-0.35,1.882-0.77,2.785-1.256
			c-0.984-1.612-2.343-2.976-3.967-3.957C2702.266,227.048,2701.862,227.482,2701.411,227.868z"/>
		<path id="path3110" fill="#FFFFFF" d="M2704.723,236.387h3.558c-0.036-1.996-0.573-3.886-1.493-5.529
			c-0.915,0.495-1.866,0.929-2.841,1.288C2704.432,233.484,2704.701,234.919,2704.723,236.387z"/>
		<path id="path3114" fill="#FFFFFF" d="M2701.423,245.33c0.438,0.374,0.843,0.809,1.185,1.289c1.625-0.98,2.995-2.347,3.983-3.97
			c-0.89-0.483-1.812-0.896-2.757-1.249C2703.271,242.849,2702.449,244.173,2701.423,245.33z"/>
		<path id="path3118" fill="#FFFFFF" d="M2689.552,240.894c0.987-0.345,2-0.617,3.035-0.812c-0.193-1.077-0.297-2.177-0.306-3.295"
			/>
		<path id="path3122" fill="#FFFFFF" d="M2701.161,245.628c-0.993,1.047-2.163,1.932-3.481,2.618c1.652-0.153,3.2-0.656,4.587-1.428
			C2701.938,246.375,2701.565,245.98,2701.161,245.628z"/>
		<path id="path3126" fill="#FFFFFF" d="M2691.713,245.334c-1.024-1.153-1.845-2.476-2.406-3.927
			c-0.951,0.351-1.876,0.767-2.765,1.251c0.993,1.647,2.365,3.002,3.981,3.974C2690.872,246.146,2691.272,245.714,2691.713,245.334z
			"/>
		<path id="path3130" fill="#FFFFFF" d="M2690.872,246.827c1.387,0.768,2.939,1.263,4.579,1.415
			c-1.312-0.687-2.484-1.567-3.466-2.612C2691.575,245.984,2691.2,246.383,2690.872,246.827z"/>
		<path id="path3134" fill="#FFFFFF" d="M2701.144,227.571c0.415-0.359,0.793-0.761,1.126-1.217
			c-1.382-0.773-2.939-1.275-4.607-1.427C2698.982,225.614,2700.151,226.514,2701.144,227.571z"/>
		<path id="path3138" fill="#FFFFFF" d="M2696.364,229.639c-0.767-0.021-1.511-0.161-2.233-0.414
			c-0.473,1.146-0.828,2.326-1.071,3.533c1.088,0.182,2.192,0.287,3.304,0.297V229.639z"/>
		<path id="path3142" fill="#FFFFFF" d="M2699.231,228.732c0.571-0.229,1.107-0.537,1.599-0.908
			c-1.019-1.079-2.227-1.989-3.592-2.672l-0.015,0.025C2698.018,226.301,2698.689,227.489,2699.231,228.732z"/>
		<path id="path3146" fill="#FFFFFF" d="M2696.364,243.536v-3.428c-1.113,0.011-2.22,0.116-3.311,0.302
			c0.244,1.212,0.599,2.398,1.069,3.535C2694.835,243.699,2695.589,243.559,2696.364,243.536z"/>
		<path id="path3150" fill="#FFFFFF" d="M2694.278,244.314c0.555,1.274,1.25,2.487,2.086,3.634v-4.011
			C2695.641,243.957,2694.941,244.09,2694.278,244.314z"/>
		<path id="path3154" fill="#FFFFFF" d="M2696.762,247.958c0.843-1.149,1.535-2.369,2.095-3.646
			c-0.665-0.229-1.372-0.354-2.095-0.375V247.958z"/>
		<path id="path3158" fill="#FFFFFF" d="M2699.392,244.082c0.615,0.249,1.194,0.586,1.725,0.997c0.997-1.122,1.792-2.41,2.34-3.816
			c-0.973-0.332-1.97-0.603-2.979-0.795C2700.232,241.711,2699.865,242.917,2699.392,244.082z"/>
		<path id="path3162" fill="#FFFFFF" d="M2697.189,248.057c1.396-0.688,2.625-1.597,3.656-2.684
			c-0.497-0.379-1.039-0.689-1.608-0.925C2698.684,245.707,2698.001,246.912,2697.189,248.057z"/>
		<path id="path3166" fill="#FFFFFF" d="M2700.148,233.151c-1.113,0.191-2.247,0.295-3.385,0.308v2.928h3.687
			C2700.44,235.289,2700.338,234.214,2700.148,233.151z"/>
		<path id="path3170" fill="#FFFFFF" d="M2700.548,240.074c1.036,0.196,2.048,0.469,3.04,0.81c0.46-1.286,0.714-2.666,0.735-4.098
			h-3.472C2700.841,237.903,2700.74,238.997,2700.548,240.074z"/>
		<path id="path3174" fill="#FFFFFF" d="M2700.45,236.787h-3.687v2.922c1.143,0.007,2.273,0.114,3.392,0.305
			C2700.342,238.957,2700.44,237.883,2700.45,236.787z"/>
		<path id="path3178" fill="#FFFFFF" d="M2696.762,243.535c0.777,0.021,1.535,0.157,2.253,0.407
			c0.465-1.142,0.826-2.324,1.067-3.537c-1.095-0.183-2.206-0.29-3.32-0.297V243.535z"/>
		<path id="path3182" fill="#FFFFFF" d="M2696.364,239.711v-2.924h-3.682c0.013,1.097,0.112,2.174,0.299,3.228
			C2694.094,239.825,2695.225,239.722,2696.364,239.711z"/>
		<path id="path3186" fill="#FFFFFF" d="M2693.749,244.09c-0.48-1.167-0.844-2.372-1.089-3.615c-1.009,0.19-2.006,0.46-2.979,0.795
			c0.551,1.402,1.342,2.691,2.345,3.812C2692.555,244.673,2693.127,244.337,2693.749,244.09z"/>
		<path id="path3190" fill="#FFFFFF" d="M2692.293,245.377c1.032,1.084,2.257,1.991,3.652,2.678
			c-0.812-1.136-1.496-2.341-2.042-3.602C2693.331,244.689,2692.79,245,2692.293,245.377z"/>
		<path id="path3194" fill="#FFFFFF" d="M2700.851,236.387h3.472c-0.021-1.42-0.283-2.805-0.75-4.104
			c-0.987,0.34-1.998,0.612-3.03,0.805C2700.736,234.168,2700.838,235.275,2700.851,236.387z"/>
		<path id="path3198" fill="#FFFFFF" d="M2703.431,231.907c-0.551-1.386-1.343-2.667-2.33-3.789
			c-0.525,0.403-1.104,0.734-1.714,0.981c0.475,1.16,0.84,2.358,1.086,3.597C2701.474,232.504,2702.464,232.245,2703.431,231.907z"
			/>
		<path id="path3202" fill="#FFFFFF" d="M2696.364,233.459c-1.136-0.013-2.265-0.116-3.376-0.303
			c-0.188,1.059-0.293,2.133-0.306,3.23h3.682V233.459z"/>
		<path id="path3206" fill="#FFFFFF" d="M2699.015,229.24c-0.719,0.246-1.475,0.383-2.253,0.403v3.412
			c1.114-0.011,2.225-0.114,3.315-0.297C2699.834,231.551,2699.48,230.374,2699.015,229.24z"/>
		<path id="path3210" fill="#FFFFFF" d="M2703.963,241.025c0.971,0.354,1.916,0.786,2.824,1.277
			c0.922-1.639,1.459-3.514,1.495-5.517h-3.559C2704.702,238.264,2704.436,239.692,2703.963,241.025z"/>
		<path id="path3218" fill="#008240" d="M2697.167,224.669c0,0,0.003,0.004,0.005,0.005"/>
		<path id="path3222" fill="#008240" d="M2697.983,224.198l3.978-5.085L2697.983,224.198h0.005
			c6.248,0.708,11.05,6.023,11.05,12.389c0,6.876-5.594,12.471-12.471,12.471c-5.262,0-9.867-3.237-11.679-8.118v-0.001
			l-10.5,13.409h31.635l12.357-35.475h-16.993l-27.756,35.475h0.757l10.5-13.409"/>
		<path id="path3226" fill="#FF6600" d="M2697.988,224.198l-0.278,0.353l-0.22,0.282l-0.056,0.073l-0.198,0.248
			c1.367,0.681,2.575,1.591,3.595,2.67c-0.493,0.371-1.028,0.68-1.6,0.908c-0.542-1.243-1.213-2.432-2.009-3.555l-0.258,0.326
			c0.746,1.066,1.378,2.196,1.888,3.37c-0.664,0.225-1.366,0.353-2.09,0.366v-3.481l-0.398,0.512v2.962
			c-0.698-0.015-1.379-0.139-2.037-0.362c-0.01-0.005-0.258,0.335-0.258,0.335l-0.688,0.878c-0.298,0.853-0.536,1.726-0.714,2.613
			c-0.383-0.073-0.761-0.159-1.133-0.253l-0.273,0.35c0.442,0.111,0.882,0.21,1.332,0.295c-0.196,1.079-0.299,2.185-0.311,3.298
			h-3.471l0.014-0.482l-0.69,0.884h0.276c0.021,1.479,0.287,2.906,0.761,4.242c-0.969,0.361-1.914,0.786-2.824,1.279
			c-0.365-0.651-0.671-1.343-0.91-2.075l-0.276,0.354l-0.274,0.352c1.811,4.881,6.416,8.118,11.678,8.118
			c6.877,0,12.471-5.595,12.471-12.471C2709.038,230.222,2704.237,224.906,2697.988,224.198 M2708.282,236.386h-3.559
			c-0.021-1.467-0.292-2.901-0.776-4.24c0.975-0.359,1.925-0.793,2.841-1.288C2707.709,232.501,2708.247,234.391,2708.282,236.386
			 M2692.682,236.787h3.682v2.923c-1.141,0.012-2.272,0.115-3.384,0.305C2692.794,238.961,2692.693,237.884,2692.682,236.787
			 M2696.762,233.459c1.14-0.013,2.272-0.117,3.385-0.307c0.191,1.06,0.294,2.138,0.303,3.233h-3.688V233.459 M2700.45,236.787
			c-0.009,1.096-0.11,2.17-0.297,3.227c-1.116-0.188-2.248-0.298-3.391-0.305v-2.922H2700.45 M2693.054,240.41
			c1.09-0.186,2.197-0.289,3.311-0.302v3.428c-0.775,0.022-1.529,0.164-2.242,0.409
			C2693.652,242.809,2693.297,241.622,2693.054,240.41 M2693.749,244.09c-0.621,0.247-1.194,0.582-1.724,0.993
			c-1.003-1.122-1.794-2.412-2.345-3.813c0.972-0.335,1.968-0.605,2.979-0.795C2692.906,241.718,2693.269,242.923,2693.749,244.09
			 M2696.762,240.108c1.116,0.009,2.225,0.113,3.32,0.297c-0.241,1.213-0.603,2.396-1.067,3.536
			c-0.718-0.247-1.476-0.385-2.253-0.408V240.108 M2700.477,240.47c1.011,0.19,2.006,0.461,2.979,0.793
			c-0.548,1.406-1.343,2.695-2.34,3.816c-0.532-0.412-1.109-0.748-1.724-0.997C2699.865,242.917,2700.232,241.711,2700.477,240.47
			 M2700.548,240.075c0.192-1.078,0.293-2.172,0.302-3.288h3.475c-0.022,1.43-0.278,2.811-0.735,4.097
			C2702.595,240.543,2701.585,240.27,2700.548,240.075 M2700.85,236.386c-0.011-1.112-0.115-2.219-0.307-3.298
			c1.034-0.192,2.044-0.465,3.03-0.805c0.467,1.3,0.729,2.684,0.751,4.103H2700.85 M2706.587,230.516
			c-0.903,0.484-1.83,0.904-2.784,1.254c-0.564-1.425-1.378-2.75-2.393-3.901c0.45-0.386,0.855-0.82,1.209-1.312
			C2704.244,227.537,2705.602,228.901,2706.587,230.516 M2697.663,224.928c1.668,0.153,3.223,0.652,4.607,1.428
			c-0.333,0.456-0.71,0.858-1.126,1.217C2700.151,226.514,2698.982,225.615,2697.663,224.928 M2701.103,228.118
			c0.985,1.122,1.778,2.402,2.329,3.789c-0.967,0.338-1.958,0.597-2.958,0.789c-0.245-1.238-0.611-2.438-1.086-3.595
			C2699.997,228.853,2700.576,228.521,2701.103,228.118 M2699.015,229.24c0.465,1.134,0.82,2.311,1.062,3.519
			c-1.09,0.181-2.2,0.286-3.315,0.299v-3.414C2697.539,229.624,2698.297,229.488,2699.015,229.24 M2694.131,229.227
			c0.72,0.251,1.466,0.392,2.233,0.412v3.416c-1.112-0.01-2.218-0.115-3.306-0.296
			C2693.304,231.551,2693.659,230.371,2694.131,229.227 M2692.989,233.156c1.11,0.186,2.239,0.29,3.375,0.303v2.927h-3.682
			C2692.693,235.29,2692.798,234.215,2692.989,233.156 M2688.811,236.787h3.471c0.009,1.118,0.111,2.217,0.306,3.294
			c-1.035,0.195-2.047,0.468-3.035,0.812C2689.09,239.599,2688.83,238.219,2688.811,236.787 M2689.307,241.407
			c0.561,1.451,1.381,2.774,2.406,3.927c-0.441,0.38-0.841,0.812-1.189,1.298c-1.616-0.972-2.988-2.326-3.981-3.974
			C2687.431,242.174,2688.356,241.758,2689.307,241.407 M2690.872,246.827c0.329-0.443,0.704-0.843,1.112-1.197
			c0.983,1.045,2.156,1.926,3.467,2.612C2693.811,248.09,2692.259,247.595,2690.872,246.827 M2692.293,245.377
			c0.497-0.377,1.038-0.688,1.611-0.924c0.543,1.261,1.229,2.466,2.042,3.602C2694.55,247.368,2693.327,246.461,2692.293,245.377
			 M2696.364,247.948c-0.836-1.146-1.532-2.359-2.086-3.634c0.664-0.225,1.363-0.356,2.086-0.377V247.948 M2696.762,243.937
			c0.724,0.021,1.43,0.146,2.095,0.375c-0.56,1.277-1.252,2.497-2.095,3.646V243.937 M2699.235,244.448
			c0.571,0.235,1.113,0.546,1.61,0.924c-1.031,1.087-2.259,1.996-3.656,2.685C2698.003,246.912,2698.684,245.708,2699.235,244.448
			 M2697.679,248.246c1.317-0.687,2.488-1.571,3.481-2.618c0.404,0.353,0.777,0.747,1.105,1.19
			C2700.88,247.59,2699.331,248.093,2697.679,248.246 M2702.607,246.62c-0.341-0.48-0.746-0.915-1.184-1.29
			c1.027-1.157,1.846-2.481,2.411-3.93c0.945,0.352,1.866,0.766,2.758,1.249C2705.602,244.272,2704.233,245.639,2702.607,246.62
			 M2706.788,242.303c-0.91-0.491-1.854-0.921-2.825-1.277c0.473-1.333,0.739-2.762,0.76-4.238h3.559
			C2708.247,238.789,2707.709,240.664,2706.788,242.303z"/>
		<path id="path3230" fill="#FFFFFF" d="M2697.786,239.376l2.949,1.358l-1.395-2.989l3.801-0.934v-0.448l-3.801-0.95l1.448-3.05
			l-3.016,1.417l-0.946-5.409h-0.529l-0.927,5.405l-3.011-1.413l1.42,3.061l-3.792,0.939v0.443l3.792,0.918l-1.377,3.017
			l2.963-1.346l0.922,5.406l0.521-0.005L2697.786,239.376z"/>
		<path id="path3234" fill="#008240" d="M2696.576,228.67l0.983,5.527l2.646-1.255l-1.25,2.648l3.97,0.993l-3.97,0.986l1.208,2.591
			l-2.604-1.184l-1.008,5.471l-0.974-5.471l-2.598,1.188l1.197-2.595l-3.96-0.986l3.96-0.993l-1.236-2.648l2.637,1.245
			L2696.576,228.67z"/>
	</g>
</g>
</svg>
