<?xml version="1.0" encoding="utf-8"?>
<!-- Generator: Adobe Illustrator 16.2.1, SVG Export Plug-In . SVG Version: 6.00 Build 0)  -->
<!DOCTYPE svg PUBLIC "-//W3C//DTD SVG 1.1//EN" "http://www.w3.org/Graphics/SVG/1.1/DTD/svg11.dtd">
<svg version="1.1" id="svg2816" xmlns:svg="http://www.w3.org/2000/svg"
	 xmlns="http://www.w3.org/2000/svg" xmlns:xlink="http://www.w3.org/1999/xlink" x="0px" y="0px" width="50px" height="50px"
	 viewBox="150.5 68 50 50" enable-background="new 150.5 68 50 50" xml:space="preserve">
<g id="g2853" transform="matrix(1.21615, 0, 0, 1.21615, -2.16147, -2.5024)">
	<path id="path2832" fill="#ED192D" d="M127.483,71.255h9.772c0.958,0,1.681,0.302,1.965,1.661c0.316,1.511,0.185,2.563-1.517,2.684
		l-3.068,0.218c2.258,14.252,15.461,18.898,22.65,3.548c1.19-2.541,1.579-3.003,2.883-2.681c1.767,0.439,2.008,1.346,1.167,3.908
		c-6.216,18.923-27.106,20.819-31.206-4.452l-2.492,0.18c-2.028,0.145-2.108-1.564-2.108-2.514
		C125.528,71.928,126.227,71.255,127.483,71.255L127.483,71.255"/>
	<path id="path2834" fill="#ED192D" d="M163.018,62.102c2.001,0,3.624,1.622,3.624,3.623c0,2.002-1.623,3.624-3.624,3.624
		c-2.001,0-3.622-1.622-3.622-3.624C159.396,63.724,161.018,62.102,163.018,62.102L163.018,62.102"/>
</g>
</svg>
