<?xml version="1.0" encoding="utf-8"?>
<!-- Generator: Adobe Illustrator 16.2.1, SVG Export Plug-In . SVG Version: 6.00 Build 0)  -->
<!DOCTYPE svg PUBLIC "-//W3C//DTD SVG 1.1//EN" "http://www.w3.org/Graphics/SVG/1.1/DTD/svg11.dtd">
<svg version="1.1"
	 id="Layer_1" xmlns:inkscape="http://www.inkscape.org/namespaces/inkscape" xmlns:dc="http://purl.org/dc/elements/1.1/" xmlns:cc="http://creativecommons.org/ns#" xmlns:sodipodi="http://sodipodi.sourceforge.net/DTD/sodipodi-0.dtd" xmlns:rdf="http://www.w3.org/1999/02/22-rdf-syntax-ns#" inkscape:version="0.48.1 " sodipodi:docname="ZZ1.svg" xmlns:svg="http://www.w3.org/2000/svg"
	 xmlns="http://www.w3.org/2000/svg" xmlns:xlink="http://www.w3.org/1999/xlink" x="0px" y="0px" width="50px" height="50px"
	 viewBox="0.5 30.5 50 50" enable-background="new 0.5 30.5 50 50" xml:space="preserve">
<sodipodi:namedview  inkscape:window-maximized="1" inkscape:current-layer="Layer_1" inkscape:window-height="1004" inkscape:window-x="-8" inkscape:zoom="7.3051601" guidetolerance="10" borderopacity="1" gridtolerance="10" showgrid="false" objecttolerance="10" pagecolor="#ffffff" bordercolor="#666666" inkscape:cy="-3.026989" inkscape:cx="61.551819" inkscape:window-width="1280" inkscape:pageopacity="0" inkscape:pageshadow="2" inkscape:window-y="-8" fit-margin-left="0" fit-margin-top="0" id="namedview27" fit-margin-bottom="0" fit-margin-right="0">
	</sodipodi:namedview>
<g id="g3" transform="translate(-0.5,-0.4)">
	<path id="path5" inkscape:connector-curvature="0" fill="#ED1C24" d="M2.663,49.194H8.68c0-1.093,0.888-3.073,3.111-3.073
		c0.896,0,1.124,0.209,2.232,0c1.56-0.682,2.225-1.547,2.456-2.207c0,0,0.66,2.652-1.784,3.753
		c-1.332,0.873-3.348,0.212-3.348,0.212s-1.563-0.212-1.779,1.315c0.883,0,2.45,0.892,2.45,2.437V65.3
		c0,0.879,0.667,1.993,2.007,1.993c1.112,0,2.004-0.896,2.004-1.993v-9.486c0-14.117,10.917-20.064,17.381-20.506
		c5.348-0.425,8.901,0,15.59-4.408c0,0-2.008,7.938-11.368,9.697c-1.776,0.451-6.687-0.213-11.588,4.845
		c-3.775,3.754-4.218,7.515-4.218,12.143v8.599c0,3.525-2.893,7.274-7.58,7.274c-4.463,0-7.354-3.518-7.354-7.274
		c0-2.414-0.22-14.335-0.22-14.335c0-1.323-0.667-2.214-2.007-2.214H2.663"/>
	<path id="path7" inkscape:connector-curvature="0" fill="#ED1C24" d="M8,72.587c0,0,4.918,4.85,11.149,1.094
		c4.237-2.421,4.461-7.497,4.461-7.497V54.937c0,0-0.225-5.739,4.901-9.707c3.569-2.861,7.123-2.65,9.363-2.861
		c5.779-0.877,8.458-4.413,8.458-4.413c0,0.437-0.454,7.274-8.022,9.269c-1.336,0.442-9.577-0.444-9.577,9.029v11.038
		c0,2.421-0.458,6.618-4.897,9.482C19.149,79.858,11.792,79.418,8,72.587"/>
	<path id="path9" inkscape:connector-curvature="0" fill="#ED1C24" d="M14.695,79.644c7.353,1.969,15.592-3.082,15.592-11.476
		v-9.707c0-2.86,2.453-6.613,6.685-6.613c4.667,0,6.905,3.972,6.905,6.613c0,1.542-0.671,4.859-3.781,4.859
		c-2.681,0-4.234-2.422-3.344-4.416c-0.214,0.663,0.22,1.326,0.875,1.326c0.675,0,1.132-0.663,1.132-1.535
		c-0.225-0.232-0.225-1.778-2.01-1.778c-1.56,0-2.005,1.338-2.005,1.987v8.82C34.748,76.987,24.496,83.825,14.695,79.644"/>
</g>
</svg>
