<?xml version="1.0" encoding="utf-8"?>
<!-- Generator: Adobe Illustrator 16.2.1, SVG Export Plug-In . SVG Version: 6.00 Build 0)  -->
<!DOCTYPE svg PUBLIC "-//W3C//DTD SVG 1.1//EN" "http://www.w3.org/Graphics/SVG/1.1/DTD/svg11.dtd">
<svg version="1.1" id="Layer_1" xmlns="http://www.w3.org/2000/svg" xmlns:xlink="http://www.w3.org/1999/xlink" x="0px" y="0px"
	 width="50px" height="50px" viewBox="275.5 91.039 50 50" enable-background="new 275.5 91.039 50 50" xml:space="preserve">
<path fill="#CAB999" d="M306.544,91.039c-13.399,0-26.977,10.832-30.325,24.192c0.888,1.335,7.319,2.734,12.233,3.153
	c24.724-27.516,41.427-23.098,30.85-3.805c-0.373,0.678-0.766,1.189-1.146,1.825c3.445-0.668,6.395-1.69,6.749-1.913
	C327.826,101.433,319.72,91.039,306.544,91.039z M290.914,118.676c6.348,0.77,11.413-0.126,14.91-0.676
	c1.97-2.118,4.092-4.513,5.454-6.391C321.898,96.954,309.63,98.644,290.914,118.676z"/>
<path fill="#004886" d="M286.585,135.018c0,0,8.045-4.124,15.764-12.314c-5.257,0.73-8.889,0.727-14.553-0.114
	c-5.798,8.104-7.102,5.826-7.102,5.826c1.237-1.475,3.847-4.981,4.849-6.178c-2.612-0.631-7.953-1.946-9.87-4.118
	c-1.471,12.13,6.537,21.871,19.125,21.871c13.257,0,26.683-10.388,30.602-23.444c-1.825,0.942-4.05,2.218-8.262,3.23
	C300.984,142.787,286.585,135.018,286.585,135.018z"/>
</svg>
