<?xml version="1.0" encoding="utf-8"?>
<!-- Generator: Adobe Illustrator 16.2.1, SVG Export Plug-In . SVG Version: 6.00 Build 0)  -->
<!DOCTYPE svg PUBLIC "-//W3C//DTD SVG 1.1//EN" "http://www.w3.org/Graphics/SVG/1.1/DTD/svg11.dtd">
<svg version="1.1" id="Layer_1" xmlns="http://www.w3.org/2000/svg" xmlns:xlink="http://www.w3.org/1999/xlink" x="0px" y="0px"
	 width="100px" height="30px" viewBox="0 0 100 30" enable-background="new 0 0 100 30" xml:space="preserve">
<g>
	<g>
		<path fill="#0054A4" d="M0.89,22.289c-0.021,0-0.044-0.003-0.071-0.011c-0.027-0.008-0.07-0.011-0.123-0.011
			c-0.062,0.008-0.125,0.02-0.186,0.037c-0.06,0.016-0.124,0.038-0.183,0.066l-0.244-0.082c-0.036-0.2-0.058-0.354-0.067-0.459
			C0.005,21.721,0,21.624,0,21.532c0-0.074,0.001-0.134,0.004-0.173c0.002-0.042,0.009-0.077,0.015-0.106l0.21-0.462l0.258-1.094
			l0.146-0.154l-0.02-0.309l0.381-1.401l0.101-0.163l-0.019-0.168l-0.423,0.021c-0.088-0.065-0.153-0.135-0.196-0.2
			c-0.04-0.064-0.062-0.13-0.062-0.201c0.009-0.067,0.022-0.129,0.048-0.184c0.021-0.055,0.072-0.128,0.149-0.215L0.45,16.484
			l0.306-0.822l0.196-0.204v-0.145l0.925-0.319l0.102-0.122v-0.236l0.339-0.804l0.187-0.288l0.02-0.421l0.42-1.309l0.113-0.195
			l0.145-0.358l-0.021-0.227l0.926-2.275c0.061-0.13,0.166-0.245,0.314-0.341C4.57,8.321,4.653,8.245,4.674,8.19l-0.34-0.319
			l0.031-0.516c0.103-0.047,0.229-0.132,0.379-0.257L4.766,7.09c0.057-0.007,0.136-0.014,0.238-0.022
			C5.243,7.055,5.4,6.992,5.477,6.874l0.358-0.711l0.299-0.133L7.12,5.402c0.316,0,0.509,0.021,0.582,0.072
			C7.774,5.521,7.81,5.625,7.81,5.782c0,0.022-0.001,0.038-0.005,0.053c-0.002,0.013-0.009,0.022-0.015,0.03L7.583,6.368L7.521,6.75
			L7.223,7.255L7.81,7.593l0.607,0.248c0.157,0.033,0.281,0.114,0.367,0.242C8.869,8.208,8.929,8.403,8.97,8.666
			c0.099,0.23,0.169,0.467,0.214,0.704c0.042,0.236,0.063,0.502,0.063,0.797c0,0.054-0.009,0.183-0.029,0.383
			c-0.007,0.105-0.01,0.19-0.01,0.246l-0.051,0.442l0.134,0.277c0,0.063,0.002,0.147,0.01,0.258c0.019,0.37,0.031,0.614,0.031,0.73
			c0,0.109-0.008,0.311-0.021,0.602c-0.014,0.291-0.02,0.527-0.02,0.706v0.278h0.245c0.028,0.096,0.045,0.169,0.053,0.221
			c0.006,0.051,0.01,0.099,0.01,0.139c0,0.055-0.018,0.159-0.051,0.309c-0.014,0.055-0.024,0.101-0.032,0.134
			c-0.039,0.047-0.085,0.09-0.133,0.128c-0.049,0.038-0.118,0.078-0.205,0.119l0.069,0.34l-0.09,0.781l-0.125,1.371l0.023,0.422
			l-0.104,0.338l-0.145,1.03v0.204c0,0.154-0.023,0.31-0.071,0.471C8.687,20.26,8.61,20.43,8.509,20.607
			c0.014,0.036,0.024,0.072,0.031,0.108c0.006,0.039,0.01,0.063,0.01,0.079c0,0.191-0.24,0.471-0.721,0.833
			c-0.054,0.042-0.095,0.074-0.122,0.093l-0.083-0.122v-1.052l-0.02-1.268l0.02-0.68l0.083-0.484l-0.124-0.422l0.083-0.989
			l0.06-0.136l-0.019-1.07l-0.484,0.021l-0.316,0.195L6.36,15.858l-0.227-0.082l-0.092,0.082l-0.184-0.063L5.58,15.96l-1.215,0.42
			l-0.256,0.186H3.893l-0.207,0.156l-0.761,0.182l-0.164-0.039c-0.076,0.039-0.166,0.275-0.272,0.699
			c-0.105,0.426-0.249,0.812-0.426,1.156l-0.166,0.639L1.6,20.207l-0.185,0.205l-0.062,0.443c-0.102,0.322-0.19,0.595-0.261,0.819
			C1.02,21.899,0.952,22.104,0.89,22.289 M3.542,14.872l0.627-0.041l0.165,0.061l0.154-0.133l0.688-0.123l0.259,0.062l0.276-0.103
			l0.647,0.06l0.443-0.163l0.36-0.042l0.523-0.134c-0.04-0.089-0.068-0.155-0.081-0.2c-0.014-0.044-0.021-0.072-0.021-0.087
			c0-0.041,0.01-0.106,0.032-0.195c0-0.02,0.002-0.042,0.009-0.061l-0.041-0.3l0.041-0.328v-0.721l-0.103-0.145
			c0.007-0.081,0.012-0.157,0.017-0.221c0.003-0.065,0.003-0.138,0.003-0.221c0-0.199-0.015-0.433-0.049-0.7
			c-0.036-0.267-0.083-0.516-0.146-0.741L7.163,9.972C6.901,9.718,6.702,9.545,6.565,9.456C6.427,9.37,6.284,9.309,6.133,9.281
			L5.712,9.703l-0.195,0.319l-0.022,0.311L4.91,11.638l-0.257,0.176v0.421L3.965,13.75l-0.402,0.699L3.542,14.872z"/>
		<path fill="#0054A4" d="M15.675,20.609l-0.124,0.104L15.17,20.91l-0.341,0.019c-0.035,0.007-0.073,0.014-0.118,0.016
			c-0.044,0.005-0.108,0.007-0.19,0.007c-0.18,0-0.333-0.031-0.459-0.094c-0.126-0.062-0.243-0.156-0.345-0.287l-0.083-0.188
			l-0.154-0.131V20.15l-0.04-0.084l-0.124-0.062l-0.228-0.481v-0.197l-0.135-0.102l-0.226-0.401
			c-0.042-0.047-0.089-0.109-0.146-0.182c-0.089-0.132-0.162-0.198-0.218-0.198c-0.034,0-0.071,0.013-0.107,0.03
			c-0.04,0.023-0.075,0.045-0.11,0.073l-0.165,0.019l-0.081,0.135l-0.197,0.206l-0.144,0.019l-0.144,0.115l-0.061,0.104
			l-0.094,0.122c-0.158,0.116-0.367,0.272-0.626,0.462c-0.665,0.48-1.053,0.721-1.162,0.721c-0.055,0-0.103-0.02-0.144-0.064
			c-0.042-0.037-0.061-0.092-0.061-0.151c0-0.069,0.019-0.134,0.061-0.191c0.041-0.059,0.108-0.114,0.206-0.169v-0.186
			c0.288-0.341,0.553-0.631,0.792-0.867c0.238-0.238,0.383-0.355,0.43-0.355c0.089-0.123,0.178-0.234,0.262-0.332
			c0.086-0.1,0.179-0.195,0.274-0.284l0.186-0.204l0.122-0.063l0.042-0.103c0.055-0.068,0.172-0.213,0.352-0.437
			c0.178-0.222,0.331-0.411,0.455-0.571l0.257-0.131l0.103-0.229l0.207-0.173h0.764l0.402,0.238
			c0.145,0.067,0.247,0.389,0.309,0.965c0,0.039,0.003,0.074,0.01,0.102l0.144,0.977l0.082,0.123
			c0.098,0.377,0.196,0.622,0.299,0.736c0.103,0.113,0.258,0.168,0.464,0.168c0.09,0,0.183-0.021,0.279-0.066
			c0.096-0.047,0.183-0.109,0.268-0.19l0.216-0.022l0.082-0.143l0.42-0.359l0.083-0.184c0.315-0.15,0.625-0.338,0.927-0.555
			c0.302-0.219,0.507-0.33,0.616-0.33c0.07,0,0.121,0.019,0.156,0.052c0.033,0.034,0.051,0.087,0.051,0.153
			c0,0.008-0.006,0.025-0.021,0.052c-0.049,0.104-0.085,0.208-0.111,0.319l-0.144,0.154c-0.153,0.158-0.29,0.324-0.419,0.498
			c-0.126,0.175-0.21,0.262-0.251,0.262h-0.041l-0.135,0.195l-0.225,0.245l-0.125,0.085l-0.215,0.174
			c-0.117,0.102-0.271,0.248-0.463,0.442C16.107,20.354,15.852,20.551,15.675,20.609 M13.656,12.596l-0.196,0.083
			c-0.057-0.014-0.108-0.038-0.156-0.067c-0.048-0.03-0.084-0.071-0.113-0.119l-0.082-0.185c-0.033-0.061-0.062-0.124-0.083-0.186
			c-0.023-0.061-0.032-0.115-0.032-0.163c0-0.234,0.069-0.457,0.201-0.67c0.134-0.212,0.363-0.46,0.687-0.741l0.114-0.042
			l0.165,0.02l0.021-0.165l0.402-0.379l0.247-0.063c0.061-0.046,0.124-0.081,0.18-0.103c0.06-0.019,0.133-0.03,0.224-0.03
			c0.135,0,0.248,0.034,0.333,0.104c0.086,0.068,0.129,0.151,0.129,0.256v0.042l-0.123,0.638l-0.143,0.422l-0.105,0.083v0.187
			l-0.153,0.317c-0.051,0.09-0.124,0.185-0.229,0.285c-0.102,0.099-0.169,0.164-0.196,0.199l-0.143,0.021l-0.062,0.083
			c-0.191,0.102-0.335,0.171-0.426,0.206c-0.093,0.033-0.177,0.05-0.253,0.05h-0.082L13.656,12.596z"/>
		<path fill="#0054A4" d="M17.134,19.362l-0.073,0.113c-0.117,0.016-0.237,0.079-0.363,0.192c-0.124,0.111-0.223,0.184-0.299,0.213
			l-0.187,0.143c-0.212,0.088-0.384,0.199-0.516,0.328c-0.028,0.033-0.045,0.051-0.052,0.051c-0.034,0-0.062-0.003-0.082-0.011
			c-0.021-0.007-0.045-0.02-0.073-0.04l-0.041-0.062v-0.041c0-0.088,0.09-0.262,0.269-0.525c0.131-0.203,0.233-0.373,0.31-0.501
			l0.145-0.144c0.137-0.036,0.254-0.137,0.348-0.301c0.09-0.165,0.173-0.279,0.243-0.34c0.033-0.089,0.072-0.158,0.117-0.211
			c0.045-0.053,0.101-0.092,0.173-0.119l0.412-0.451l0.018-0.186l0.722-0.803l0.124-0.063l0.042-0.081l0.041-0.258l0.185-0.267
			l0.072-0.052l-0.019-0.167l-0.093-0.206c0-0.004-0.002-0.016-0.012-0.03c-0.004-0.012-0.008-0.027-0.008-0.04
			c0-0.146,0.104-0.317,0.312-0.515c0.209-0.199,0.451-0.344,0.725-0.432l0.228-0.145l0.256-0.041h0.503l0.021,0.041l0.144,0.019
			l0.257,0.104l0.082,0.135l0.187,0.124l0.214,0.062c0.116,0.103,0.311,0.251,0.581,0.444c0.271,0.192,0.434,0.354,0.489,0.482
			l0.278,0.297l0.042,0.105l-0.021,0.165l0.1,0.133l0.051,0.177c0.029,0.145,0.049,0.256,0.062,0.332
			c0.015,0.081,0.024,0.146,0.024,0.201c0,0.393-0.112,0.92-0.33,1.586c-0.22,0.666-0.359,1.122-0.411,1.369h0.143l0.257-0.184
			l0.145-0.021l0.739-0.557l0.142-0.022l0.104-0.226l0.319-0.277l0.175-0.082l0.104-0.103l0.226-0.258l0.133-0.083
			c0.336-0.199,0.604-0.342,0.802-0.434c0.2-0.088,0.344-0.131,0.433-0.131c0.047,0,0.088,0.013,0.124,0.035
			c0.034,0.025,0.051,0.053,0.051,0.086c0,0.043-0.048,0.155-0.143,0.336c-0.098,0.182-0.183,0.293-0.258,0.334l-0.256,0.279
			c-0.076,0.061-0.168,0.161-0.277,0.303c-0.11,0.141-0.193,0.236-0.248,0.282l-0.103,0.155l-0.238,0.083l-0.02,0.06l-0.123,0.124
			l-0.207,0.113l-0.235,0.268l-0.103,0.196l-0.298,0.062l-0.062,0.123c-0.097,0.097-0.206,0.188-0.325,0.272
			s-0.252,0.165-0.397,0.229L22.71,21.29c-0.089,0-0.16,0.009-0.208,0.035c-0.048,0.024-0.093,0.067-0.134,0.129l-0.319,0.277
			l-0.165-0.021c-0.013,0.009-0.03,0.019-0.051,0.031c-0.083,0.056-0.137,0.105-0.164,0.153l-0.73,0.082l-0.155-0.06l-0.103,0.018
			c-0.103-0.018-0.178-0.06-0.22-0.115c-0.044-0.059-0.066-0.147-0.066-0.264c0-0.103,0.016-0.224,0.049-0.361
			c0.035-0.136,0.094-0.297,0.176-0.483l0.041-0.164l0.123-0.216l0.021-0.146l0.34-1.108l0.042-0.115v-0.165
			c0.019-0.179,0.036-0.331,0.045-0.458c0.011-0.126,0.018-0.236,0.018-0.325c0-0.205-0.032-0.376-0.095-0.515
			c-0.06-0.137-0.168-0.268-0.318-0.391l-0.052-0.164c-0.115-0.021-0.228-0.057-0.333-0.113c-0.106-0.055-0.223-0.145-0.354-0.269
			l-0.218-0.04l-0.144,0.249l-0.482,0.276l-0.164,0.236l-0.135,0.123l-0.226,0.268l-0.175,0.299l-0.463,0.483l-0.104,0.154
			l-0.225,0.083l-0.072,0.103l-0.248,0.319c-0.034,0.075-0.077,0.133-0.13,0.174C17.264,19.333,17.202,19.356,17.134,19.362"/>
		<path fill="#0054A4" d="M31.606,19.418c-0.036,0.073-0.075,0.144-0.121,0.204c-0.042,0.062-0.097,0.118-0.157,0.174
			c-0.049,0.085-0.086,0.14-0.115,0.175c-0.027,0.035-0.053,0.059-0.072,0.074l-0.165,0.123l-0.06,0.079
			c-0.089,0.015-0.155,0.037-0.191,0.065c-0.04,0.034-0.066,0.084-0.088,0.16c-0.103,0.075-0.181,0.133-0.235,0.17
			c-0.057,0.037-0.103,0.072-0.146,0.107c-0.074,0-0.135,0.014-0.183,0.04c-0.048,0.025-0.092,0.071-0.134,0.133
			c-0.301,0.198-0.578,0.341-0.829,0.429c-0.251,0.088-0.493,0.134-0.725,0.134c-0.042,0-0.09-0.008-0.145-0.025
			c-0.056-0.018-0.093-0.029-0.114-0.036c-0.026-0.028-0.052-0.047-0.077-0.06c-0.023-0.015-0.045-0.021-0.067-0.021
			c-0.015,0-0.035,0.003-0.066,0.016c-0.032,0.009-0.075,0.024-0.131,0.045c-0.271,0-0.57-0.13-0.888-0.396
			c-0.319-0.26-0.554-0.578-0.707-0.955c0.01-0.02,0.014-0.04,0.017-0.062c0.001-0.021,0.006-0.05,0.006-0.092
			c-0.009-0.06-0.023-0.106-0.042-0.138c-0.021-0.032-0.066-0.074-0.134-0.129c-0.056-0.172-0.097-0.354-0.125-0.546
			c-0.027-0.191-0.042-0.392-0.042-0.605l-0.081,0.175l-0.041,0.123c-0.069,0.062-0.147,0.135-0.237,0.222
			c-0.087,0.085-0.146,0.14-0.165,0.159l-0.083,0.021l-0.115,0.144c-0.113,0.041-0.218,0.096-0.306,0.164
			c-0.087,0.067-0.174,0.16-0.257,0.276c-0.109,0.023-0.207,0.058-0.297,0.109s-0.17,0.121-0.247,0.212l-0.196,0.101
			c-0.042,0.075-0.091,0.133-0.147,0.173c-0.06,0.043-0.131,0.07-0.211,0.082h-0.042c-0.076,0-0.138-0.018-0.191-0.057
			c-0.05-0.036-0.078-0.082-0.078-0.138c0-0.026,0.003-0.053,0.012-0.076c0.007-0.024,0.017-0.044,0.032-0.065
			c0.047-0.061,0.093-0.111,0.136-0.148c0.047-0.039,0.088-0.064,0.131-0.076l-0.012-0.166c0.062-0.104,0.128-0.195,0.2-0.276
			c0.073-0.082,0.149-0.163,0.23-0.237l0.053-0.186l0.226-0.092c0.036-0.097,0.084-0.178,0.144-0.242
			c0.062-0.064,0.147-0.125,0.257-0.18l0.104-0.187c0.074-0.025,0.134-0.054,0.179-0.081c0.045-0.027,0.085-0.064,0.119-0.112
			l0.091-0.082c0.048-0.021,0.113-0.079,0.191-0.169c0.079-0.094,0.146-0.156,0.202-0.192l0.122-0.122
			c0.075-0.041,0.134-0.082,0.175-0.125c0.043-0.04,0.06-0.074,0.06-0.102c0-0.006-0.004-0.025-0.015-0.062
			c-0.01-0.033-0.024-0.073-0.045-0.122c0.033-0.062,0.06-0.108,0.082-0.14c0.02-0.03,0.042-0.058,0.062-0.078l-0.083-0.276
			c0.07-0.697,0.195-1.414,0.384-2.143c0.184-0.73,0.433-1.493,0.75-2.299c0.042-0.025,0.069-0.055,0.084-0.09
			c0.013-0.034,0.023-0.084,0.029-0.145v-0.081c0.068-0.191,0.125-0.334,0.163-0.423c0.042-0.088,0.084-0.171,0.125-0.246
			c0.084-0.056,0.14-0.106,0.169-0.154c0.032-0.046,0.049-0.116,0.049-0.206v-0.081c0.506-1.115,1.04-2.039,1.595-2.769
			c0.556-0.735,0.972-1.1,1.245-1.1c0.049,0,0.122,0.01,0.226,0.032c0.03,0.006,0.046,0.01,0.052,0.01
			c0.269,0.062,0.45,0.167,0.547,0.314c0.094,0.147,0.143,0.401,0.143,0.758c0,0.055-0.004,0.146-0.011,0.275
			c-0.007,0.127-0.01,0.229-0.01,0.305l-0.102,0.247c0.013,0.035,0.024,0.075,0.03,0.12c0.007,0.046,0.011,0.104,0.011,0.18
			c0,0.178-0.056,0.467-0.166,0.87c-0.109,0.401-0.257,0.815-0.442,1.241l-0.123,0.122l-0.042,0.341
			c-0.048,0.124-0.096,0.252-0.144,0.384c-0.048,0.135-0.099,0.274-0.154,0.419v0.123c-0.056,0.103-0.114,0.205-0.175,0.307
			c-0.062,0.104-0.124,0.204-0.185,0.298c-0.049,0.035-0.084,0.074-0.109,0.113c-0.024,0.041-0.035,0.087-0.035,0.145V13.6
			c-0.027,0.053-0.073,0.155-0.138,0.301c-0.066,0.147-0.12,0.267-0.163,0.355l-0.08,0.083l-0.125,0.269
			c-0.11,0.053-0.185,0.116-0.232,0.189c-0.044,0.07-0.067,0.165-0.067,0.283c-0.066,0.185-0.335,0.613-0.802,1.283
			c-0.117,0.172-0.209,0.304-0.277,0.389l-0.104,0.115c-0.049,0.123-0.11,0.236-0.191,0.336c-0.077,0.098-0.176,0.199-0.292,0.303
			c0.011,0.704,0.173,1.281,0.482,1.725c0.308,0.445,0.691,0.67,1.144,0.67c0.103,0,0.228-0.021,0.375-0.068
			c0.147-0.043,0.316-0.107,0.508-0.188c0.015,0,0.032,0.002,0.052,0.01c0.021,0.007,0.037,0.01,0.053,0.01
			c0.04,0,0.077-0.015,0.106-0.046c0.031-0.031,0.062-0.08,0.089-0.148c0.095-0.111,0.216-0.189,0.355-0.238
			c0.139-0.047,0.209-0.1,0.209-0.152v-0.021l0.339-0.215c0.056-0.104,0.126-0.201,0.211-0.293c0.087-0.092,0.19-0.184,0.312-0.274
			c0.104-0.114,0.192-0.198,0.271-0.245c0.074-0.05,0.161-0.078,0.255-0.094l0.145-0.225c0.091-0.013,0.164-0.035,0.224-0.062
			c0.056-0.027,0.11-0.072,0.158-0.133c0.033-0.034,0.07-0.061,0.108-0.076c0.037-0.019,0.081-0.026,0.127-0.026
			c0.098,0,0.172,0.011,0.227,0.03c0.058,0.02,0.083,0.052,0.083,0.092c0,0.021-0.005,0.049-0.016,0.084
			c-0.01,0.032-0.026,0.079-0.047,0.132l-0.062,0.205c-0.108,0.11-0.217,0.222-0.319,0.334c-0.102,0.114-0.199,0.225-0.288,0.337
			c-0.014,0.101-0.038,0.174-0.078,0.217c-0.037,0.047-0.093,0.08-0.169,0.101c-0.089,0.071-0.18,0.163-0.272,0.283
			C31.752,19.346,31.675,19.41,31.606,19.418 M27.323,15.892l0.195-0.226c0-0.009,0.008-0.026,0.02-0.053
			c0.07-0.129,0.134-0.212,0.197-0.244c0.068-0.022,0.113-0.046,0.139-0.074c0.024-0.028,0.041-0.072,0.045-0.133v-0.064
			c0.137-0.204,0.279-0.43,0.427-0.678c0.147-0.247,0.297-0.508,0.449-0.791c0.055-0.047,0.098-0.103,0.127-0.171
			c0.031-0.064,0.047-0.136,0.047-0.22v-0.093c0.021-0.047,0.053-0.11,0.097-0.181c0.046-0.07,0.075-0.124,0.088-0.158l0.115-0.113
			c0-0.09,0.017-0.177,0.057-0.269c0.037-0.086,0.101-0.181,0.189-0.276l-0.021-0.124c0.206-0.603,0.337-1.018,0.396-1.243
			c0.059-0.227,0.089-0.403,0.089-0.526c0-0.012-0.006-0.045-0.011-0.097c-0.007-0.049-0.009-0.098-0.009-0.137l-0.083,0.04
			c-0.049,0.055-0.123,0.16-0.22,0.312c-0.102,0.156-0.177,0.27-0.225,0.346l-0.103,0.103l-0.021,0.145
			c-0.039,0.088-0.083,0.168-0.128,0.242c-0.042,0.071-0.101,0.144-0.17,0.221c-0.053,0.027-0.095,0.062-0.122,0.11
			c-0.027,0.049-0.042,0.111-0.042,0.187v0.062c-0.094,0.208-0.237,0.487-0.423,0.843c-0.274,0.549-0.445,0.935-0.514,1.16
			c-0.042,0.049-0.076,0.097-0.104,0.146c-0.026,0.047-0.04,0.096-0.04,0.143c0,0.014,0.003,0.038,0.007,0.068
			c0.008,0.031,0.01,0.053,0.01,0.067c-0.143,0.259-0.252,0.525-0.328,0.795C27.381,15.283,27.336,15.575,27.323,15.892"/>
		<path fill="#0054A4" d="M36.181,20.609l-0.123,0.104l-0.381,0.197l-0.34,0.019c-0.036,0.007-0.074,0.014-0.118,0.016
			c-0.047,0.005-0.109,0.007-0.191,0.007c-0.179,0-0.332-0.031-0.461-0.094c-0.125-0.062-0.239-0.156-0.343-0.287l-0.083-0.188
			l-0.154-0.131V20.15l-0.042-0.084l-0.125-0.062l-0.224-0.481v-0.197l-0.136-0.102l-0.228-0.401
			c-0.042-0.047-0.089-0.109-0.146-0.182c-0.089-0.132-0.161-0.198-0.217-0.198c-0.033,0-0.071,0.013-0.108,0.03
			c-0.038,0.023-0.073,0.045-0.108,0.073l-0.165,0.019l-0.083,0.135l-0.197,0.206l-0.143,0.019l-0.146,0.115l-0.06,0.104
			l-0.092,0.122c-0.159,0.116-0.367,0.272-0.63,0.462c-0.662,0.48-1.049,0.721-1.159,0.721c-0.056,0-0.104-0.02-0.145-0.064
			c-0.04-0.037-0.062-0.092-0.062-0.151c0-0.069,0.022-0.134,0.062-0.191c0.041-0.059,0.111-0.114,0.206-0.169v-0.186
			c0.287-0.341,0.551-0.631,0.79-0.867c0.24-0.238,0.386-0.355,0.432-0.355c0.088-0.123,0.177-0.234,0.262-0.332
			c0.085-0.1,0.178-0.195,0.272-0.284l0.187-0.204l0.124-0.063l0.041-0.103c0.054-0.068,0.171-0.213,0.351-0.437
			c0.179-0.222,0.33-0.411,0.455-0.571l0.257-0.131l0.104-0.229l0.205-0.173h0.765l0.401,0.238c0.144,0.067,0.248,0.389,0.311,0.965
			c0,0.039,0.003,0.074,0.01,0.102l0.144,0.977l0.082,0.123c0.097,0.377,0.195,0.622,0.3,0.736c0.102,0.113,0.257,0.168,0.461,0.168
			c0.09,0,0.181-0.021,0.279-0.066c0.097-0.047,0.185-0.109,0.269-0.19l0.216-0.022l0.081-0.143l0.424-0.359l0.081-0.184
			c0.315-0.15,0.624-0.338,0.926-0.555c0.302-0.219,0.507-0.33,0.619-0.33c0.067,0,0.12,0.019,0.155,0.052
			c0.032,0.034,0.05,0.087,0.05,0.153c0,0.008-0.008,0.025-0.021,0.052c-0.048,0.104-0.083,0.208-0.113,0.319l-0.144,0.154
			c-0.151,0.158-0.289,0.324-0.416,0.498c-0.128,0.175-0.212,0.262-0.253,0.262h-0.04l-0.135,0.195l-0.225,0.245l-0.123,0.085
			l-0.216,0.174c-0.12,0.102-0.274,0.248-0.465,0.442C36.612,20.354,36.358,20.551,36.181,20.609 M34.162,12.596l-0.197,0.083
			c-0.055-0.014-0.108-0.038-0.155-0.067c-0.048-0.03-0.084-0.071-0.114-0.119l-0.08-0.185c-0.036-0.061-0.062-0.124-0.083-0.186
			c-0.021-0.061-0.031-0.115-0.031-0.163c0-0.234,0.065-0.457,0.2-0.67c0.136-0.212,0.361-0.46,0.685-0.741l0.115-0.042l0.166,0.02
			l0.018-0.165l0.403-0.379l0.248-0.063c0.058-0.046,0.122-0.081,0.179-0.103c0.059-0.019,0.133-0.03,0.222-0.03
			c0.136,0,0.25,0.034,0.335,0.104c0.084,0.068,0.128,0.151,0.128,0.256v0.042l-0.125,0.638l-0.143,0.422l-0.106,0.083v0.187
			l-0.151,0.317c-0.048,0.09-0.123,0.185-0.227,0.285c-0.105,0.099-0.168,0.164-0.195,0.199l-0.145,0.021l-0.061,0.083
			c-0.194,0.102-0.337,0.171-0.43,0.206c-0.092,0.033-0.177,0.05-0.252,0.05h-0.083L34.162,12.596z"/>
		<path fill="#0054A4" d="M37.798,17.854l0.135-0.155c0.219-0.249,0.521-0.59,0.908-1.028c1.103-1.27,1.761-1.938,1.974-2
			l0.215-0.073l0.229-0.144l0.235-0.081l0.144,0.04l0.155,0.019c0.198,0.154,0.338,0.287,0.422,0.405
			c0.081,0.116,0.121,0.244,0.121,0.38c0,0.082-0.004,0.166-0.02,0.251c-0.013,0.086-0.032,0.176-0.062,0.271l-0.039,0.353
			c-0.037,0.144-0.068,0.271-0.097,0.386c-0.033,0.112-0.065,0.217-0.1,0.312l-0.145,0.217v0.187
			c-0.081,0.179-0.163,0.37-0.241,0.578c-0.081,0.204-0.183,0.499-0.313,0.882l-0.104,0.083c0.008,0.016,0.013,0.028,0.021,0.042
			c0.013,0.049,0.02,0.09,0.02,0.123c0,0.062-0.032,0.134-0.092,0.215c-0.061,0.084-0.093,0.161-0.093,0.227v0.084l0.434-0.392
			c0.083-0.13,0.177-0.259,0.288-0.386s0.239-0.258,0.389-0.396l0.154-0.062l0.063-0.113l0.021-0.123
			c0.041-0.082,0.083-0.149,0.123-0.196c0.042-0.047,0.087-0.09,0.136-0.121l0.308-0.189l0.153-0.236
			c0.373-0.363,0.705-0.625,1-0.785c0.295-0.162,0.579-0.244,0.854-0.244c0.192,0,0.347,0.033,0.468,0.1
			c0.12,0.062,0.2,0.158,0.24,0.281l0.196,0.216c0.047,0.111,0.127,0.283,0.237,0.516c0.107,0.235,0.192,0.413,0.246,0.535
			l-0.061,0.228c0.083,0.053,0.176,0.192,0.279,0.412c0.101,0.219,0.227,0.33,0.37,0.33c0.034,0,0.074-0.007,0.123-0.016
			c0.046-0.012,0.106-0.025,0.175-0.048l0.084-0.04l0.08-0.154l0.259-0.185l0.164-0.166c0.24-0.062,0.51-0.207,0.813-0.437
			c0.302-0.232,0.518-0.348,0.646-0.348c0.07,0,0.119,0.018,0.147,0.047c0.026,0.032,0.039,0.084,0.039,0.16
			c-0.056,0.166-0.093,0.286-0.112,0.372l-0.135,0.153c-0.177,0.22-0.377,0.445-0.597,0.676c-0.222,0.229-0.457,0.471-0.709,0.725
			l-0.115,0.104l-0.164,0.104c-0.042,0.139-0.158,0.256-0.349,0.359c-0.034,0.02-0.063,0.037-0.084,0.053l-0.132,0.131l-0.423,0.178
			c-0.089,0.041-0.167,0.071-0.232,0.092c-0.065,0.02-0.121,0.031-0.17,0.031c-0.239,0-0.477-0.114-0.714-0.34
			c-0.239-0.227-0.436-0.535-0.592-0.928l-0.021-0.207c-0.13-0.108-0.253-0.227-0.366-0.349c-0.112-0.124-0.225-0.26-0.335-0.41
			c-0.04-0.024-0.08-0.038-0.117-0.048c-0.039-0.012-0.074-0.017-0.107-0.017c-0.076,0-0.167,0.032-0.269,0.095
			c-0.104,0.061-0.295,0.213-0.576,0.453l-0.195,0.061L42.82,19.14c-0.077,0.097-0.157,0.175-0.243,0.237s-0.18,0.11-0.284,0.143
			l-0.297,0.443c-0.405,0.455-0.716,0.795-0.93,1.02c-0.219,0.227-0.393,0.402-0.531,0.526c-0.158,0.214-0.319,0.357-0.485,0.438
			c-0.163,0.08-0.379,0.119-0.648,0.119c-0.138,0-0.232-0.021-0.284-0.062c-0.049-0.04-0.09-0.124-0.117-0.248l0.021-0.3
			l-0.062-0.104l0.042-0.193c0.199-0.66,0.345-1.159,0.437-1.498c0.092-0.34,0.138-0.543,0.138-0.604
			c0-0.006,0.016-0.038,0.044-0.096c0.026-0.061,0.052-0.126,0.083-0.201l0.102-0.174c-0.014-0.029-0.024-0.058-0.031-0.079
			c-0.006-0.024-0.01-0.047-0.01-0.067c0-0.055,0.039-0.184,0.112-0.387c0.077-0.201,0.114-0.367,0.114-0.499
			c0-0.035-0.019-0.058-0.051-0.077c-0.035-0.018-0.079-0.027-0.134-0.027c-0.228,0-0.418,0.1-0.57,0.3
			c-0.155,0.2-0.249,0.31-0.284,0.33l-0.268,0.338l-0.224,0.218l-0.146,0.042l-0.07,0.061l-0.064,0.104l-0.082,0.123
			c-0.06,0.027-0.105,0.054-0.135,0.077c-0.025,0.024-0.042,0.046-0.051,0.068l-0.198,0.174c-0.498,0.39-0.894,0.688-1.186,0.886
			c-0.292,0.199-0.479,0.299-0.56,0.299c-0.055,0-0.103-0.021-0.145-0.062c-0.041-0.042-0.06-0.095-0.06-0.155
			c0-0.069,0.019-0.131,0.06-0.189c0.042-0.06,0.111-0.117,0.205-0.17v-0.186c0.287-0.345,0.553-0.634,0.793-0.871
			c0.239-0.236,0.383-0.357,0.432-0.357c0-0.012-0.006-0.031-0.022-0.062c0.008-0.019,0.016-0.03,0.022-0.033
			c0.007-0.003,0.02-0.007,0.04-0.007h0.021c0.033,0,0.061-0.017,0.082-0.051c0.02-0.035,0.038-0.089,0.051-0.164l0.145-0.124
			L37.798,17.854z"/>
		<path fill="#0054A4" d="M48.232,19.465l-0.021-0.197l-0.268,0.197l-0.153,0.101l-0.208,0.164
			c-0.122,0.067-0.209,0.121-0.267,0.157c-0.054,0.031-0.105,0.064-0.155,0.101L47.04,20.09l-0.214,0.114
			c-0.036,0.075-0.085,0.131-0.15,0.168c-0.066,0.037-0.168,0.058-0.314,0.058c-0.067-0.006-0.109-0.021-0.123-0.037
			c-0.013-0.017-0.028-0.066-0.042-0.149c0.014-0.093,0.04-0.165,0.072-0.21c0.035-0.044,0.093-0.088,0.176-0.129V19.69
			c0.068-0.063,0.136-0.13,0.205-0.206c0.07-0.074,0.147-0.168,0.238-0.277l0.153-0.217l0.143-0.061
			c0.041-0.095,0.095-0.174,0.16-0.23c0.063-0.059,0.16-0.113,0.282-0.171l0.062-0.142l0.275-0.165l0.238-0.194
			c0.021-0.013,0.037-0.037,0.052-0.066c0.015-0.033,0.024-0.07,0.032-0.119V17.76l0.102-0.195l-0.038-0.122l0.061-0.175
			c0.049-0.246,0.104-0.449,0.16-0.61c0.058-0.161,0.131-0.308,0.221-0.437l0.139-0.082l-0.039-0.124
			c0.137-0.268,0.312-0.527,0.523-0.778c0.215-0.25,0.544-0.576,0.991-0.975h0.114l0.081-0.092l0.104-0.021l0.061-0.145
			c0.186-0.151,0.365-0.261,0.531-0.326c0.168-0.064,0.353-0.099,0.551-0.099c0.076,0,0.134,0.004,0.176,0.007
			c0.042,0.002,0.078,0.007,0.113,0.015l0.093,0.041l0.424,0.134l0.144,0.186l0.061,0.022c0.043,0.109,0.073,0.207,0.094,0.289
			c0.019,0.083,0.029,0.144,0.029,0.174c0,0.042-0.001,0.078-0.005,0.106c-0.003,0.027-0.007,0.047-0.014,0.061l0.061,0.156
			l-0.021,0.226l-0.081,0.28l-0.145,0.206l-0.04,0.24c-0.057,0.093-0.123,0.189-0.201,0.286c-0.079,0.094-0.181,0.207-0.305,0.339
			l-0.073,0.134c-0.165,0.197-0.36,0.404-0.586,0.616c-0.226,0.21-0.516,0.452-0.865,0.727l-0.186,0.062l-0.062,0.123l-0.361,0.238
			l-0.154,0.182c-0.026,0.021-0.049,0.042-0.062,0.062c-0.014,0.021-0.019,0.04-0.019,0.062c0,0.068,0.013,0.141,0.035,0.221
			c0.023,0.076,0.063,0.177,0.117,0.293l0.104,0.123l0.061,0.205c0.173,0.13,0.336,0.225,0.495,0.285
			c0.158,0.062,0.315,0.092,0.474,0.092c0.096,0,0.2-0.015,0.311-0.051c0.107-0.033,0.252-0.098,0.432-0.193l0.144-0.041
			l0.362-0.234l0.276,0.018l0.063-0.162c0.018-0.021,0.104-0.097,0.249-0.227c0.149-0.13,0.282-0.248,0.397-0.351l0.176-0.081
			l0.122-0.186c0.09-0.061,0.183-0.113,0.279-0.158s0.201-0.082,0.31-0.118c0.056-0.089,0.123-0.161,0.201-0.213
			c0.079-0.058,0.178-0.1,0.292-0.126l0.166-0.162c0.056-0.022,0.108-0.035,0.159-0.047c0.053-0.01,0.087-0.017,0.109-0.017
			c0.083,0,0.14,0.011,0.169,0.036c0.031,0.025,0.048,0.066,0.048,0.129c0,0.041-0.01,0.086-0.032,0.139
			c-0.021,0.051-0.044,0.095-0.071,0.129l-0.053,0.132c-0.048,0.085-0.117,0.173-0.209,0.272c-0.095,0.101-0.222,0.221-0.376,0.363
			v0.063c0,0.081-0.022,0.136-0.063,0.168s-0.119,0.054-0.236,0.065c-0.09,0.188-0.286,0.396-0.589,0.629
			c-0.093,0.074-0.171,0.135-0.226,0.183l-0.176,0.145l-0.112,0.051c-0.047,0.043-0.1,0.091-0.159,0.146
			c-0.058,0.054-0.138,0.129-0.232,0.227l-0.122,0.154l-0.259,0.164c-0.229,0.199-0.48,0.361-0.757,0.487
			c-0.277,0.13-0.519,0.191-0.716,0.191H50.92l-0.238-0.04l-0.104,0.06h-0.297c-0.254,0-0.464-0.023-0.632-0.077
			c-0.171-0.049-0.297-0.131-0.377-0.24l-0.156,0.02l-0.245-0.226l-0.123-0.236l-0.113-0.112c-0.066-0.09-0.123-0.178-0.17-0.264
			c-0.043-0.086-0.083-0.184-0.117-0.291L48.232,19.465z M51.022,16.301l0.164-0.12c0-0.056,0.028-0.137,0.088-0.247
			c0.059-0.109,0.088-0.223,0.088-0.339c-0.007-0.094-0.014-0.15-0.02-0.164c-0.008-0.014-0.032-0.023-0.073-0.03h-0.042
			l-0.163,0.103l-0.403,0.358l-0.381,0.381l-0.34,0.491c-0.042,0.075-0.076,0.155-0.104,0.233c-0.027,0.076-0.041,0.144-0.041,0.197
			c0,0.014,0.004,0.025,0.016,0.033c0.01,0.006,0.019,0.008,0.025,0.008c0.023,0,0.042-0.002,0.062-0.008
			c0.021-0.008,0.054-0.025,0.095-0.052c0.034-0.007,0.065-0.013,0.094-0.017c0.025-0.002,0.057-0.005,0.09-0.005
			c0.016,0,0.032-0.005,0.052-0.015c0.021-0.011,0.051-0.039,0.092-0.088l0.104-0.186l0.173-0.175L51.022,16.301z"/>
		<path fill="#0054A4" d="M53.84,19.505l-0.062,0.021l-0.082-0.021c-0.066,0.097-0.139,0.167-0.211,0.218
			c-0.07,0.047-0.158,0.081-0.261,0.101l-0.206,0.165l-0.204,0.123c-0.022,0.015-0.05,0.033-0.084,0.062
			c-0.104,0.074-0.175,0.139-0.217,0.195l-0.257,0.082c-0.088-0.042-0.145-0.074-0.17-0.103c-0.021-0.026-0.034-0.065-0.034-0.112
			c0-0.021,0.004-0.048,0.009-0.078c0.009-0.032,0.02-0.066,0.031-0.107l0.227-0.197v-0.186c0.097-0.088,0.177-0.172,0.242-0.25
			c0.064-0.08,0.124-0.163,0.181-0.252l0.153-0.217l0.183-0.043c0.063-0.102,0.131-0.193,0.196-0.275
			c0.07-0.082,0.139-0.152,0.205-0.205l0.197-0.205l0.77-0.64l0.278-0.165l0.103-0.214l0.464-0.505l0.154-0.043l0.122-0.225
			l0.968-0.979l0.125-0.037l0.038-0.104l0.848-0.866c0.211-0.239,0.378-0.393,0.501-0.46c0.123-0.07,0.26-0.103,0.401-0.103
			c0.077,0,0.161,0.012,0.258,0.039c0.098,0.028,0.223,0.076,0.383,0.144l0.143,0.083l0.184,0.226
			c0.042,0.068,0.071,0.128,0.09,0.181c0.018,0.051,0.025,0.102,0.025,0.151c0,0.01-0.004,0.034-0.012,0.065
			c-0.006,0.031-0.016,0.07-0.031,0.119v0.103c0,0.115-0.011,0.234-0.035,0.354c-0.024,0.12-0.061,0.268-0.12,0.446l0.054,0.237
			l-0.093,0.442c-0.023,0.184-0.058,0.391-0.106,0.617c-0.054,0.225-0.128,0.517-0.223,0.873l-0.134,0.443l-0.186,0.616
			l-0.174,0.423c-0.014,0.068-0.038,0.141-0.067,0.217c-0.031,0.075-0.064,0.144-0.097,0.205l0.02,0.186l0.865-0.619l0.213-0.266
			c0.151-0.084,0.279-0.17,0.387-0.264c0.105-0.092,0.2-0.203,0.283-0.334l0.197-0.185c0.038-0.103,0.136-0.186,0.29-0.249
			c0.154-0.061,0.268-0.118,0.337-0.174l0.246-0.225c0.074-0.021,0.143-0.046,0.2-0.077c0.058-0.032,0.112-0.071,0.159-0.12
			l0.279-0.142h0.04c0.068,0,0.121,0.015,0.161,0.045c0.037,0.032,0.056,0.07,0.056,0.118c-0.007,0.027-0.018,0.057-0.027,0.087
			c-0.011,0.031-0.021,0.065-0.037,0.099l-0.03,0.194c-0.018,0.028-0.054,0.071-0.101,0.134c-0.186,0.226-0.354,0.416-0.506,0.566
			c-0.021,0.084-0.052,0.141-0.097,0.176c-0.046,0.033-0.116,0.058-0.213,0.071c-0.115,0.233-0.297,0.445-0.543,0.638
			c-0.082,0.061-0.14,0.109-0.175,0.143l-0.152,0.102l-0.229,0.302l-0.196,0.081l-0.144,0.217c-0.116,0.103-0.245,0.201-0.384,0.293
			c-0.142,0.094-0.31,0.184-0.501,0.271l-0.235,0.34l-0.123,0.185l-0.228,0.104c-0.069,0.121-0.137,0.212-0.204,0.262
			c-0.068,0.051-0.144,0.077-0.219,0.077h-0.093l-0.329,0.401l-0.463,0.186l-0.194,0.134L56.451,22.6
			c-0.086-0.014-0.159-0.04-0.209-0.087c-0.051-0.044-0.087-0.108-0.108-0.188l0.021-0.104l-0.084-0.123
			c-0.095-0.212-0.17-0.438-0.222-0.68c-0.051-0.24-0.085-0.504-0.098-0.793l0.061-0.217l-0.164-0.481
			c0.132-0.233,0.273-0.415,0.423-0.546c0.15-0.131,0.291-0.193,0.421-0.193c0.111,0,0.197,0.078,0.256,0.234
			c0.035,0.083,0.063,0.145,0.087,0.187h0.068c0.042-0.07,0.078-0.149,0.109-0.246c0.03-0.097,0.066-0.234,0.109-0.413v-0.381
			c0.046-0.185,0.079-0.363,0.103-0.534c0.021-0.172,0.028-0.336,0.028-0.495v-0.203l0.043-0.443l-0.155-0.195l-0.268,0.039
			l-0.195,0.218l-0.227,0.145c-0.116,0.096-0.323,0.293-0.62,0.592c-0.301,0.297-0.555,0.536-0.769,0.714l-0.298,0.236l-0.203,0.104
			l-0.031,0.112c-0.089,0.116-0.19,0.229-0.305,0.335C54.113,19.297,53.984,19.403,53.84,19.505"/>
		<path fill="#0054A4" d="M69.199,18.982l-0.124,1.429c0.014,0.049,0.023,0.087,0.028,0.114c0.01,0.025,0.013,0.047,0.013,0.061
			c0,0.027-0.021,0.082-0.06,0.164c-0.009,0.014-0.019,0.028-0.023,0.042c0.015,0.026,0.024,0.054,0.03,0.077
			c0.01,0.023,0.012,0.045,0.012,0.066c0,0.025-0.002,0.05-0.006,0.066s-0.009,0.035-0.017,0.057l0.187,0.412
			c0.039,0.034,0.077,0.062,0.106,0.087c0.032,0.025,0.075,0.05,0.13,0.078c0.021,0.013,0.039,0.034,0.058,0.058
			c0.016,0.022,0.027,0.038,0.027,0.047c0,0.005-0.012,0.024-0.03,0.056c-0.024,0.029-0.042,0.062-0.055,0.098l-0.762,0.973
			c-0.104,0.131-0.199,0.228-0.289,0.289c-0.089,0.062-0.181,0.093-0.277,0.093c-0.097-0.007-0.166-0.025-0.21-0.055
			c-0.047-0.033-0.079-0.087-0.108-0.162l-0.165-0.362l-0.091-0.144c-0.027-0.111-0.05-0.215-0.063-0.312
			c-0.014-0.095-0.021-0.183-0.021-0.259c0-0.067,0.002-0.134,0.006-0.19c0.003-0.059,0.008-0.125,0.015-0.203l-0.04-0.163
			l0.104-0.27c0-0.047,0.006-0.164,0.019-0.348c0.014-0.186,0.022-0.321,0.022-0.412l-0.041-0.162l0.11-0.279l-0.069-0.185
			c0.005-0.019,0.013-0.044,0.02-0.071s0.009-0.053,0.009-0.08c-0.006-0.044-0.018-0.07-0.036-0.084
			c-0.017-0.013-0.049-0.02-0.097-0.02h-0.063c-0.032,0-0.061-0.009-0.087-0.021c-0.022-0.016-0.048-0.041-0.075-0.082l-0.082-0.104
			c-0.055-0.041-0.102-0.068-0.135-0.087c-0.033-0.018-0.075-0.032-0.125-0.046c-0.04-0.033-0.069-0.068-0.082-0.104
			c-0.013-0.034-0.019-0.068-0.019-0.103c0-0.026,0-0.05,0.006-0.065c0.001-0.018,0.006-0.035,0.013-0.049
			c0-0.074,0.028-0.139,0.082-0.189c0.056-0.053,0.133-0.084,0.228-0.098l0.34-0.164l0.063-0.115l0.153-0.145l0.061-0.462
			l0.104-0.257l-0.083-0.186l0.167-1.392l0.091-0.216l-0.072-0.203c0.035-0.092,0.058-0.185,0.072-0.281
			c0.015-0.095,0.021-0.2,0.021-0.318v-0.186c0.006-0.055,0.033-0.229,0.087-0.525c0.052-0.295,0.092-0.542,0.117-0.741l0.062-0.104
			l-0.042-0.28c0.028-0.066,0.054-0.14,0.073-0.225c0.021-0.081,0.046-0.195,0.072-0.34c0.021-0.157,0.033-0.271,0.041-0.345
			c0.005-0.071,0.017-0.14,0.029-0.211l0.063-0.227v-0.195c0.032-0.249,0.082-0.496,0.14-0.746c0.058-0.252,0.121-0.494,0.19-0.727
			V9.708L69.004,9.5c-0.029-0.081-0.054-0.154-0.074-0.22c-0.019-0.065-0.038-0.129-0.052-0.192
			c-0.061-0.117-0.136-0.226-0.22-0.328c-0.084-0.103-0.181-0.197-0.282-0.279l-0.064-0.278l-0.185-0.019L67.91,7.762l-0.02-0.288
			c0.034-0.089,0.073-0.161,0.119-0.217c0.046-0.055,0.103-0.103,0.179-0.145l0.462-0.565l0.319-0.133
			c0.113-0.123,0.216-0.212,0.309-0.268c0.098-0.055,0.19-0.083,0.282-0.083c0.019,0,0.061,0.009,0.122,0.021
			c0.026,0.007,0.047,0.017,0.062,0.021l0.278,0.062h0.226l0.298,0.102l0.082,0.102l0.618,0.238
			c0.186,0.077,0.341,0.153,0.469,0.231c0.127,0.078,0.237,0.169,0.334,0.272l0.289,0.083c0.11,0.048,0.208,0.107,0.294,0.171
			c0.085,0.063,0.162,0.146,0.23,0.25l0.154,0.021l0.186,0.216h0.155l0.351,0.586h0.217c0.632,0.604,1.132,1.252,1.497,1.944
			c0.365,0.694,0.6,1.453,0.703,2.278v0.165c0,0.006,0.001,0.02,0.01,0.039c0.019,0.083,0.029,0.155,0.029,0.216
			c0,0.029-0.002,0.061-0.007,0.094c-0.001,0.036-0.007,0.071-0.014,0.112v0.32c0,0.242-0.031,0.501-0.097,0.776
			c-0.065,0.279-0.162,0.559-0.286,0.841l-0.124,0.135c-0.068,0.273-0.186,0.509-0.353,0.702c-0.161,0.196-0.378,0.355-0.64,0.469
			c-0.103,0.021-0.197,0.061-0.28,0.119c-0.081,0.059-0.16,0.141-0.235,0.24l-0.268,0.197c-0.682,0.379-1.413,0.727-2.198,1.046
			C70.879,18.453,70.057,18.736,69.199,18.982 M69.435,17.612c0.015,0,0.034,0.006,0.062,0.011c0.028,0.008,0.047,0.012,0.063,0.012
			c0.265,0,1.111-0.367,2.54-1.104l0.154-0.082c0.062-0.068,0.137-0.132,0.228-0.19c0.088-0.056,0.191-0.106,0.306-0.149
			l0.074-0.122l0.421-0.269l0.153-0.071l0.087-0.188c0.147-0.155,0.27-0.355,0.358-0.594c0.086-0.239,0.157-0.546,0.204-0.916
			c0-0.022,0.004-0.06,0.009-0.113c0.01-0.056,0.012-0.096,0.012-0.125c0-0.13-0.016-0.278-0.044-0.446
			c-0.031-0.167-0.086-0.377-0.161-0.624v-0.072c0-0.088-0.03-0.212-0.093-0.371c-0.014-0.033-0.023-0.061-0.031-0.082v-0.196
			c-0.151-0.219-0.32-0.476-0.503-0.771c-0.187-0.294-0.292-0.454-0.319-0.473c0-0.124-0.027-0.217-0.078-0.279
			c-0.052-0.061-0.138-0.11-0.261-0.144c-0.283-0.322-0.546-0.595-0.788-0.814c-0.244-0.22-0.465-0.382-0.665-0.494
			c-0.021-0.082-0.053-0.147-0.092-0.2c-0.042-0.052-0.09-0.077-0.145-0.077c-0.006,0.005-0.018,0.011-0.033,0.015
			c-0.013,0.002-0.026,0.008-0.049,0.016l-1.06-0.556l-0.011,0.257c0.068,0.062,0.125,0.127,0.17,0.197
			c0.044,0.068,0.082,0.143,0.109,0.227l0.194,0.019l0.258,0.299c0,0.082,0.013,0.147,0.04,0.196
			c0.027,0.047,0.076,0.085,0.144,0.114c0.027,0.042,0.065,0.098,0.115,0.174c0.163,0.267,0.245,0.464,0.245,0.587v0.041v0.041
			c0,0.26-0.075,0.679-0.227,1.253c-0.151,0.571-0.356,1.18-0.618,1.826l0.022,0.155l-0.144,0.288v0.215l-0.279,1.246l-0.061,0.167
			l0.021,0.122l-0.041,0.154L69.435,17.612z"/>
		<path fill="#0054A4" d="M81.317,16.111c-0.09-0.198-0.194-0.482-0.312-0.853c-0.123-0.371-0.229-0.614-0.325-0.729l-0.464-1.132
			c0-0.082-0.021-0.149-0.055-0.195c-0.041-0.049-0.104-0.086-0.194-0.115l-0.02,0.206c0,0.017,0.004,0.04,0.009,0.073
			c0.009,0.035,0.011,0.059,0.011,0.072c0,0.077-0.014,0.153-0.044,0.232c-0.031,0.078-0.09,0.173-0.17,0.282l-0.063,0.276
			c-0.007,0.078-0.019,0.159-0.039,0.249c-0.021,0.089-0.051,0.184-0.081,0.287L79.485,15.3l-0.041,0.031
			c-0.021,0.128-0.048,0.25-0.079,0.358c-0.029,0.111-0.069,0.216-0.117,0.318l-0.101,0.299l-0.259,1.049l-0.084,0.425l-0.08,0.255
			l-0.042,0.205c-0.069,0.178-0.147,0.442-0.227,0.793c-0.083,0.35-0.154,0.613-0.216,0.791l-0.124,0.188
			c-0.021,0.048-0.038,0.108-0.057,0.184c-0.02,0.074-0.035,0.191-0.058,0.35v0.186c0,0.062-0.019,0.145-0.06,0.247
			c-0.009,0.021-0.016,0.038-0.021,0.052l-0.083,0.246l-0.206,0.5l-0.113,0.306c-0.019,0.13-0.06,0.236-0.118,0.318
			c-0.058,0.081-0.142,0.147-0.252,0.196c-0.012,0-0.031-0.003-0.053-0.011c-0.019-0.009-0.032-0.011-0.042-0.011
			c-0.033,0-0.066,0.019-0.103,0.056c-0.032,0.039-0.068,0.093-0.101,0.169l-0.113,0.032l-0.206-0.102l0.02-0.925
			c0.041-0.096,0.068-0.177,0.083-0.237c0.014-0.061,0.021-0.127,0.021-0.195c0-0.062-0.008-0.144-0.03-0.247
			c-0.009-0.02-0.011-0.033-0.011-0.039l0.124-0.196l0.277-1.321c-0.013-0.062-0.023-0.109-0.03-0.145
			c-0.007-0.033-0.012-0.061-0.012-0.082c0-0.055,0.01-0.105,0.026-0.154c0.018-0.048,0.046-0.096,0.078-0.144v-0.083
			c0-0.089,0.021-0.22,0.067-0.391c0.043-0.172,0.066-0.302,0.066-0.391c0-0.049-0.003-0.087-0.012-0.119
			c-0.005-0.031-0.012-0.055-0.012-0.076c0.023-0.062,0.041-0.167,0.061-0.314c0.017-0.147,0.051-0.252,0.107-0.314l0.081-0.482
			V16.77c0-0.061,0.009-0.128,0.027-0.205c0.015-0.076,0.041-0.154,0.074-0.238v-0.215l0.155-0.832v-0.135
			c0-0.087,0.01-0.178,0.025-0.271c0.018-0.092,0.043-0.193,0.078-0.305v-0.112c0-0.088,0.009-0.162,0.024-0.227
			c0.02-0.061,0.044-0.118,0.078-0.174l0.043-0.111l-0.021-0.188c-0.015-0.053-0.021-0.123-0.021-0.206
			c0-0.062,0.019-0.149,0.058-0.267c0.04-0.117,0.091-0.247,0.159-0.392l-0.072-0.143l0.196-1.039l0.019-0.042v-0.245
			c0.085-0.186,0.146-0.368,0.19-0.55c0.046-0.182,0.069-0.372,0.069-0.571l0.101-0.4l-0.061-0.588
			c-0.023-0.086-0.032-0.152-0.036-0.188c-0.002-0.039-0.004-0.072-0.004-0.109c0-0.136,0.035-0.292,0.106-0.468
			c0.072-0.175,0.174-0.353,0.304-0.54l0.092-0.039h0.186h0.258c0.039-0.015,0.089-0.029,0.144-0.042
			c0.058-0.016,0.131-0.028,0.226-0.04c0.123,0,0.287,0.054,0.484,0.164c0.104,0.06,0.185,0.102,0.237,0.123l0.238-0.382
			l0.288-0.369L81.294,7.4c0.023-0.006,0.056-0.018,0.101-0.033c0.045-0.019,0.078-0.032,0.108-0.038
			c0.039,0,0.088,0.008,0.144,0.026c0.054,0.018,0.113,0.039,0.176,0.066l0.121,0.081c0,0.125-0.02,0.243-0.055,0.356
			c-0.037,0.113-0.103,0.237-0.191,0.375l-0.062,0.257c-0.054,0.055-0.094,0.108-0.117,0.153c-0.024,0.05-0.036,0.104-0.036,0.167
			c0,0.033,0.001,0.059,0.003,0.076c0.008,0.018,0.01,0.043,0.019,0.078l-0.145,0.515l-0.064,0.114v0.06
			c0,0.042-0.007,0.086-0.021,0.138c-0.019,0.053-0.045,0.11-0.081,0.171l-0.02,0.278c0.062,0.218,0.149,0.469,0.258,0.75
			c0.027,0.063,0.043,0.107,0.052,0.134l0.021,0.237l0.132,0.122l0.206,0.672c0.027,0.046,0.048,0.092,0.062,0.137
			c0.016,0.044,0.021,0.098,0.021,0.16v0.102l0.134,0.113l0.351,0.884v0.269l0.278,0.76c0,0.091,0.01,0.161,0.034,0.216
			c0.023,0.054,0.067,0.112,0.13,0.167l0.379,1.108v0.113c0,0.111,0.02,0.206,0.058,0.289c0.038,0.082,0.098,0.152,0.182,0.215
			l0.225,0.482c0.015,0.113,0.061,0.262,0.14,0.453c0.079,0.193,0.18,0.398,0.304,0.617v0.146c0.027,0.054,0.053,0.095,0.077,0.118
			c0.023,0.024,0.071,0.054,0.138,0.086c0.028,0.117,0.069,0.229,0.13,0.334c0.059,0.107,0.149,0.225,0.272,0.355l0.103,0.186
			l0.227-0.822l0.115-0.125l-0.044-0.215c0.057-0.281,0.118-0.567,0.188-0.858c0.067-0.291,0.146-0.589,0.236-0.89l-0.022-0.145
			l0.187-0.762l-0.022-0.163c0.05-0.342,0.088-0.676,0.12-0.998c0.03-0.324,0.054-0.648,0.066-0.978v-0.113
			c0-0.087,0.011-0.174,0.032-0.261c0.019-0.084,0.051-0.171,0.091-0.253c-0.014-0.061-0.024-0.117-0.036-0.168
			c-0.009-0.051-0.016-0.097-0.016-0.139c0-0.041,0.008-0.083,0.023-0.123c0.012-0.042,0.033-0.086,0.061-0.135
			c0.005-0.021,0.011-0.04,0.017-0.06c0-0.022,0.003-0.056,0.003-0.102c0-0.043-0.01-0.09-0.029-0.146
			c-0.022-0.055-0.046-0.103-0.074-0.143l0.084-1.02l0.041-0.144c-0.041-0.109-0.068-0.194-0.083-0.256
			c-0.014-0.062-0.019-0.124-0.019-0.186c0-0.069,0.008-0.144,0.028-0.231c0.022-0.085,0.052-0.185,0.094-0.293l0.207-0.883
			c0.046-0.048,0.082-0.095,0.101-0.14c0.023-0.043,0.033-0.088,0.033-0.139c0-0.013-0.005-0.034-0.01-0.062
			c-0.008-0.028-0.02-0.073-0.031-0.133l0.348-0.957l0.021-0.246c0.013-0.117,0.116-0.258,0.307-0.426
			c0.193-0.163,0.437-0.313,0.732-0.449l0.186,0.021v0.143c0,0.054-0.006,0.101-0.015,0.139c-0.012,0.039-0.029,0.077-0.048,0.118
			c0.019,0.042,0.036,0.08,0.048,0.118c0.009,0.038,0.015,0.079,0.015,0.12c0,0.055-0.004,0.1-0.011,0.133
			C88,7.127,87.99,7.166,87.973,7.206l-0.102,1.285l-0.082,0.34l0.061,0.246l-0.081,0.421l-0.111,1.462l-0.063,0.164l0.042,0.165
			l-0.061,0.699c-0.03,0.077-0.048,0.143-0.063,0.201c-0.014,0.058-0.021,0.11-0.021,0.16c0,0.054,0.002,0.101,0.006,0.139
			c0.002,0.037,0.008,0.074,0.015,0.108c-0.081,0.85-0.155,1.558-0.22,2.123c-0.068,0.566-0.101,0.848-0.109,0.848
			c-0.033,0.049-0.058,0.102-0.071,0.159c-0.014,0.059-0.021,0.118-0.021,0.18c0,0.055,0.001,0.095,0.004,0.122
			c0.003,0.021,0.009,0.047,0.017,0.074l-0.207,1.213l-0.042,0.063l0.022,0.194l-0.011,0.021c-0.096,0.602-0.181,1.003-0.248,1.203
			c0,0.198-0.014,0.366-0.048,0.504c-0.029,0.137-0.075,0.268-0.137,0.391c-0.033,0.081-0.062,0.168-0.08,0.256
			c-0.022,0.09-0.031,0.177-0.031,0.26l-0.269,0.686l-0.174,0.217l-0.063,0.166c-0.109,0.06-0.215,0.109-0.313,0.146
			c-0.101,0.041-0.198,0.067-0.293,0.089l-0.278,0.163l-0.475,0.142c-0.027,0.016-0.047,0.021-0.067,0.021h-0.086
			c-0.152,0-0.283-0.064-0.402-0.189c-0.115-0.129-0.223-0.321-0.318-0.582c-0.164-0.272-0.329-0.568-0.488-0.887
			c-0.161-0.318-0.328-0.682-0.499-1.092L82.449,18.9l-0.288-0.721l-0.146-0.185c-0.013-0.22-0.042-0.399-0.087-0.535
			c-0.044-0.139-0.106-0.254-0.19-0.35l-0.36-0.7L81.317,16.111z"/>
		<path fill="#0054A4" d="M96.245,24.599l-0.328-0.061l0.289-1.84l-0.044-0.267l0.3-2.692l0.103-0.34l-0.08-0.194l0.061-0.627
			c-0.035,0.028-0.09,0.075-0.164,0.145c-0.53,0.461-0.979,0.875-1.351,1.246l-0.151,0.082l-0.081,0.156l-0.188,0.06
			c-0.398,0.269-0.747,0.477-1.04,0.623c-0.295,0.146-0.584,0.256-0.864,0.324l-0.311,0.129l-0.236-0.129l-0.236,0.042l-0.104-0.062
			l-0.34,0.149l-0.651-0.31l-0.527-0.402l-0.483-0.463l-0.341-1.082l-0.258-1.032l-0.021-0.422l0.061-0.063l-0.061-0.102
			l0.083-0.195l-0.062-0.32c0.069-1.509,0.311-2.828,0.723-3.95c0.413-1.128,1.048-2.219,1.9-3.276l0.083-0.28
			c0.611-0.808,1.582-1.583,2.913-2.316l0.102-0.062l0.092,0.021l0.3-0.259c0.205-0.062,0.434-0.109,0.685-0.139
			c0.25-0.03,0.546-0.045,0.89-0.045h0.423l0.339,0.145l0.186-0.022c0.314,0.212,0.553,0.4,0.712,0.557
			c0.162,0.158,0.28,0.32,0.355,0.483c0.165,0.139,0.289,0.296,0.376,0.476c0.086,0.177,0.138,0.384,0.162,0.617l0.16,0.185
			l0.146,0.659l0.155,0.186L100,10.374c-0.22,0.272-0.606,0.679-1.16,1.216l-0.044,0.029c-0.073,0.02-0.138,0.038-0.189,0.047
			c-0.049,0.009-0.099,0.015-0.148,0.015c-0.132,0-0.233-0.038-0.309-0.118s-0.12-0.194-0.134-0.345L97.87,10.33v-0.123
			c0-0.287-0.063-0.56-0.194-0.817s-0.408-0.622-0.832-1.098l-0.176-0.174l-0.246-0.04l-0.216-0.123l-0.165,0.061h-0.084
			c-0.466,0-0.938,0.173-1.414,0.519c-0.478,0.347-0.915,0.837-1.313,1.469l-0.247,0.248l-0.039,0.215l-0.382,0.628l-0.125,0.167
			l-0.068,0.337c-0.068,0.192-0.127,0.34-0.172,0.438c-0.045,0.099-0.092,0.195-0.14,0.284l-0.042,0.204
			c-0.047,0.168-0.107,0.37-0.177,0.614c-0.075,0.244-0.12,0.407-0.142,0.49l-0.084,0.123l-0.061,0.423
			c-0.109,0.418-0.19,0.83-0.241,1.233c-0.052,0.406-0.075,0.818-0.075,1.236c0,0.219,0.004,0.418,0.018,0.592
			s0.037,0.334,0.063,0.48v0.193l0.145,0.207l0.297,0.719l0.044,0.207c0.285,0.213,0.525,0.363,0.72,0.455
			c0.191,0.088,0.366,0.134,0.524,0.134c0.198,0,0.508-0.099,0.92-0.294c0.416-0.196,0.779-0.436,1.085-0.716l0.124-0.084
			l0.124-0.278l0.658-0.626l0.205-0.021l0.128-0.322l0.151-0.018v-0.277c0.213-0.254,0.501-0.588,0.865-1
			c0.102-0.118,0.177-0.202,0.226-0.256c0.122-0.064,0.229-0.108,0.319-0.136c0.087-0.026,0.174-0.042,0.257-0.042
			c0.179,0,0.345,0.042,0.498,0.125c0.153,0.081,0.29,0.205,0.406,0.371l0.103,0.205l-0.103,0.649l-0.071,0.257l0.032,0.248
			l-0.536,2.309l-0.083,0.268l-0.266,1.021l-0.092,0.33v0.214c-0.029,0.132-0.07,0.265-0.127,0.406
			c-0.055,0.139-0.116,0.278-0.183,0.414v0.206c-0.097,0.553-0.223,0.926-0.378,1.121c-0.151,0.193-0.389,0.312-0.703,0.353
			L96.245,24.599z"/>
	</g>
</g>
</svg>
