<?xml version="1.0" encoding="utf-8"?>
<!-- Generator: Adobe Illustrator 16.2.1, SVG Export Plug-In . SVG Version: 6.00 Build 0)  -->
<!DOCTYPE svg PUBLIC "-//W3C//DTD SVG 1.1//EN" "http://www.w3.org/Graphics/SVG/1.1/DTD/svg11.dtd">
<svg version="1.1" id="svg2367" xmlns:svg="http://www.w3.org/2000/svg"
	 xmlns="http://www.w3.org/2000/svg" xmlns:xlink="http://www.w3.org/1999/xlink" x="0px" y="0px" width="50px" height="50px"
	 viewBox="0 0 50 50" enable-background="new 0 0 50 50" xml:space="preserve">
<path fill="#A02031" d="M6.349,35.856c0.537,2.312,0.452,6.131-1.1,8.046c-2.229,2.751-4.363-0.266-4.916-2.544
	c-0.597-2.454-0.521-6.727,1.28-8.686c0.621-0.775,1.617-1.268,2.527-0.631C5.554,33.023,5.858,34.271,6.349,35.856"/>
<path fill="#FFFFFF" d="M4.271,38.854c0.099,0.262-0.146,0.691,0.296,0.779c0.286,0.238,0.96,0.148,0.904,0.604
	c-0.544-0.031-0.96-0.533-1.59-0.396c-0.329,0.062-0.616,0.256-0.938,0.353c-0.043-0.05-0.102-0.089-0.074-0.157
	c0.321-0.252,0.788-0.252,1.084-0.545l0.021-0.8C4.122,38.505,4.322,38.665,4.271,38.854"/>
<path fill="#FFFFFF" d="M4.787,40.641c0.311,0.297,0.096,0.687,0.145,1.069c-0.022,0.849,0.009,1.561,0.208,2.367
	c-0.005,0.102-0.041,0.225-0.146,0.262c-0.104,0.008-0.116-0.096-0.172-0.147c-0.07-1.092-0.179-2.173-0.208-3.285
	c-0.077-0.284-0.491-0.1-0.676-0.142c-0.105,0.005-0.198,0.064-0.28,0.142c-0.063,1.097,0,2.241-0.188,3.378
	c-0.034,0.036-0.085,0.051-0.138,0.045l-0.06-0.084c0.099-1.127,0.076-2.371,0.163-3.44c0.134-0.175,0.392-0.334,0.654-0.312
	C4.322,40.473,4.583,40.55,4.787,40.641"/>
<path fill="#FFFFFF" d="M2.394,42.491c0.029,0.262-0.021,0.467,0.008,0.688c0.039,0.261-0.071,0.513-0.103,0.771
	c-0.008,0.129-0.106,0.233-0.051,0.37h0.14c0.218-0.11,0.186-0.384,0.209-0.606c0.062-0.258,0.021-0.459,0.054-0.672
	c0.03-0.494,0.037-0.914,0.042-1.361c0.02-0.124,0-0.182,0.008-0.281c0.088-0.41,0.012-0.893-0.036-1.312
	c-0.155-0.416-0.626-0.441-0.978-0.539c-0.1-0.061-0.134-0.188-0.141-0.283c0.083-0.189,0.311-0.253,0.502-0.266
	c0.066-0.037,0.114-0.029,0.178-0.051c0.119-0.043,0.186-0.066,0.291-0.074c0.085-0.019,0.108-0.095,0.108-0.17
	c-0.163-0.24-0.347,0.028-0.565,0.022c-0.25,0.11-0.713,0.087-0.764,0.487c-0.051,0.168,0.047,0.32,0.141,0.434
	c0.07,0.064,0.15,0.124,0.328,0.141c0.231,0.078,0.557,0.092,0.659,0.342c-0.008,0.117,0.024,0.381,0.026,0.457
	c0.015,0.104,0.015,0.185,0,0.287c0.059,0.151-0.002,0.322-0.008,0.485c-0.063,0.136-0.277,0.065-0.402,0.071
	c-0.109-0.059-0.249-0.012-0.337-0.092c-0.056-0.135-0.048-0.312-0.033-0.459c0.222-0.109,0.401-0.078,0.622-0.188
	c0.009-0.008,0.018-0.028,0.025-0.039c0.004-0.028,0.015-0.058,0-0.082c-0.014-0.021-0.026-0.028-0.039-0.053
	c-0.141-0.14-0.178,0.014-0.375,0.021c-0.041,0-0.074,0.006-0.113,0.004c-0.292,0.013-0.092-0.369-0.196-0.52
	c-0.046-0.027-0.084-0.146-0.17-0.107c-0.188,0.143,0.022,0.39-0.028,0.582c0.051,0.535,0.041,1.123-0.062,1.688
	c0.065,0.25-0.06,0.581-0.047,0.85c-0.041,0.113-0.013,0.247-0.056,0.357c0.016,0.135-0.117,0.329,0.016,0.421
	c0.054-0.05,0.12-0.079,0.16-0.155c0.062-0.376,0.141-0.74,0.182-1.128c0.007-0.071,0.055-0.129,0.141-0.103
	c0.184,0.016,0.231,0.123,0.401,0.126c0.243-0.056,0.084-0.236,0.038-0.261c-0.205-0.014-0.178-0.095-0.371-0.127
	c-0.059-0.013-0.188,0.029-0.166-0.064c0-0.133,0.018-0.312,0.059-0.426c0.162-0.049,0.334,0.002,0.512,0.002
	c0.064,0.008,0.216,0.025,0.24,0.095C2.466,41.97,2.424,42.29,2.394,42.491"/>
<path fill="#FFFFFF" d="M5.574,35.923l-0.263-0.047c-0.099-0.082-0.196-0.125-0.312-0.195c-0.228-0.168-0.568-0.275-0.812-0.518
	c-0.225,0.012-0.324,0.224-0.536,0.346c-0.025,0.025-0.078,0.054-0.104,0.004c0.084-0.182,0.26-0.264,0.395-0.395
	c0.082-0.057,0.184-0.096,0.255-0.168c0.155,0.057,0.214,0.164,0.335,0.225c0.193,0.091,0.271,0.193,0.437,0.259
	c0.169,0.108,0.28,0.163,0.429,0.224c0.09,0.063,0.315,0.034,0.216,0.247L5.574,35.923z"/>
<path fill="#FFFFFF" d="M5.135,33.276c-0.015,0.098-0.14,0.152-0.263,0.152c-0.162,0-0.196,0.047-0.325,0.126
	c-0.037,0.036-0.072,0.103-0.051,0.159c-0.003,0.119,0.197,0.15,0.327,0.197c0.043,0.004,0.069,0.045,0.066,0.094
	c-0.054,0.035-0.124-0.004-0.196,0.013c-0.2,0.045-0.423-0.045-0.62-0.013c-0.08,0.027-0.097,0-0.213,0.039
	c-0.055,0.014-0.085,0.014-0.132,0.031c-0.126,0.045-0.355,0-0.367,0.137c-0.029,0.132-0.058,0.283-0.066,0.432
	c-0.013,0.066-0.005,0.15-0.042,0.213c0,0.208,0.042,0.534,0.093,0.818c-0.006,0.064-0.016,0.129,0,0.188
	c0.117,0.13,0.335,0.039,0.419,0.065c0.171,0,0.265,0.016,0.398,0.006c0.126,0.023,0.265,0.005,0.397,0.039
	c0.021-0.016,0.069,0.029,0.091,0.048c0,0.062-0.071,0.065-0.129,0.069c-0.097,0.012-0.217,0.012-0.359-0.021
	c-0.304-0.011-0.542,0.048-0.896,0.031c-0.166,0.011-0.245,0.017-0.446,0.011c-0.034-0.011-0.188,0.014-0.228,0.014
	c-0.183-0.008-0.203-0.008-0.386-0.035c-0.048-0.027-0.126,0.025-0.151-0.053c-0.027-0.064,0.055-0.058,0.086-0.067
	c0.178,0,0.342,0.003,0.501,0.003c0.222-0.003,0.325-0.008,0.461-0.071c0.026-0.062,0.018-0.112,0.022-0.159
	c0.013-0.234-0.054-0.472-0.029-0.752c0.024-0.152,0.001-0.354,0.029-0.504c0.013-0.129,0.013-0.447,0.112-0.518l0.437-0.113
	c0.162,0.008,0.289-0.02,0.466-0.011c0.093-0.019,0.192-0.062,0.238-0.157c0.008-0.09-0.058-0.177-0.141-0.189
	c-0.11-0.023-0.098-0.011-0.234-0.028c-0.074-0.021-0.163,0-0.217-0.095c-0.166-0.205-0.205-0.479-0.16-0.739
	c0.023-0.05,0.057-0.113,0.124-0.062c0.083,0.096,0.021,0.198,0.008,0.31c-0.026,0.247,0.124,0.354,0.213,0.413
	c0.103,0.039,0.125,0.021,0.25,0.014c0.113-0.093,0.056-0.236,0.101-0.357c-0.018-0.194,0.029-0.283,0.103-0.455
	c0.078,0,0.078,0.084,0.106,0.14l-0.006,0.087c0.018,0.158-0.021,0.348,0.054,0.542c0.053,0.073,0.059,0.056,0.142,0.056
	c0.116-0.048,0.221-0.104,0.239-0.232c0.047-0.119-0.057-0.375,0.137-0.389c0.052-0.011,0.047,0.014,0.059,0.039L5.135,33.276z"/>
<path fill="#FFFFFF" d="M5.128,34.968c-0.057,0-0.126-0.014-0.176-0.053c-0.135-0.168-0.507-0.25-0.644-0.362
	c-0.188-0.079-0.207,0.008-0.331,0.073c-0.07,0.086-0.176,0.127-0.263,0.174c-0.071,0.068-0.085,0.09-0.159,0.104
	c-0.027-0.016-0.067-0.045-0.038-0.067c0.083-0.084,0.124-0.133,0.203-0.192c0.155-0.084,0.312-0.208,0.452-0.306
	c0.146,0.072,0.458,0.172,0.614,0.236c0.123,0.127,0.313,0.172,0.417,0.313C5.21,34.938,5.167,34.96,5.128,34.968"/>
<path fill="#FFFFFF" d="M4.414,37.374c0.057,0.201,0.012,0.582-0.084,0.657c-0.085,0.121-0.172,0.121-0.268,0.147
	c-0.272,0.031-0.199,0.042-0.467,0.07l-0.421,0.037c-0.268,0.008-0.463,0.025-0.751,0.019c-0.133,0.021-0.279-0.039-0.41-0.076
	c-0.033-0.047-0.096-0.047-0.096-0.129c0-0.081,0.165-0.044,0.29-0.042c0.254,0.021,0.505,0.042,0.759,0.037
	c0.268-0.031,0.358-0.02,0.688-0.031c0.071-0.006,0.212-0.043,0.258-0.066c0.245-0.088,0.212-0.08,0.275-0.305
	c0.036-0.208,0.003-0.261-0.222-0.318c-0.265-0.07-0.454-0.019-0.62-0.188c-0.118-0.163,0.024-0.368-0.224-0.481
	c-0.211,0.029-0.36,0.041-0.594,0.031c-0.119,0-0.207,0.018-0.326,0.01c-0.067-0.015-0.159-0.01-0.27-0.012
	c-0.072,0-0.085-0.02-0.166-0.02c-0.039-0.045-0.117-0.092-0.055-0.154c0.096-0.042,0.173,0.008,0.256-0.031
	c0.217-0.008,0.396,0,0.624-0.011c0.085,0.011,0.176,0.011,0.245,0.013c0.202-0.021,0.391,0.02,0.623-0.002
	c0.174,0.002,0.312,0.021,0.453,0.014c0.134,0.008,0.212,0.025,0.289,0.011c0.157-0.031,0.279,0.011,0.404-0.003
	c0.196,0.021,0.267-0.047,0.418-0.008c0.059,0.008,0.081,0.082,0.111,0.098c-0.027,0.037-0.032,0.076-0.081,0.087
	c-0.141,0.065-0.271,0.019-0.467,0.019c-0.141,0.028-0.264,0.01-0.45,0.031c-0.104-0.023-0.234-0.029-0.378-0.04
	c-0.105-0.002-0.188,0.009-0.279,0.029c-0.006,0.116,0.021,0.221,0.117,0.306c0.103,0.076,0.321,0.073,0.467,0.094
	C4.185,37.214,4.36,37.227,4.414,37.374"/>
<path fill="#FFFFFF" d="M3.218,32.731c-0.024,0.208,0.036,0.587-0.188,0.784c-0.179,0.05-0.416-0.034-0.534,0.149
	c-0.105,0.149,0.017,0.297-0.024,0.461c0.054,0.199,0.254,0.271,0.362,0.431c0.083,0.085,0.108,0.129,0.134,0.219
	c-0.041,0.026-0.088,0.054-0.125,0.026l-0.043-0.04l-0.077-0.084c-0.062-0.05-0.139-0.16-0.227-0.183
	c-0.305-0.005-0.46,0.279-0.696,0.43c-0.078,0.065-0.155,0.115-0.229,0.168c-0.057,0.059-0.1,0.088-0.151,0.13
	c-0.101,0.084-0.175,0.131-0.293,0.165l-0.029-0.051c0.025-0.049,0.134-0.114,0.207-0.162c0.166-0.189,0.331-0.402,0.566-0.514
	c0.157-0.148,0.399-0.261,0.479-0.482c0.002-0.079-0.043-0.146-0.084-0.195c-0.019-0.129,0.055-0.275-0.097-0.347
	c-0.181,0.016-0.381-0.103-0.431-0.146c-0.213-0.253-0.27-0.613-0.137-0.935l0.029-0.005c0.143,0.033,0.094,0.188,0.098,0.308
	c0.012,0.155,0.041,0.343,0.164,0.45c0.045,0.062,0.123,0.113,0.195,0.137c0.064-0.008,0.139-0.053,0.143-0.113
	c0.088-0.221-0.047-0.429,0.051-0.651c-0.004-0.058-0.014-0.163,0.07-0.192L2.5,32.519c0.008,0.146-0.054,0.27-0.039,0.424
	c0.008,0.129-0.028,0.284,0.075,0.365c0.05,0.05,0.122,0.072,0.187,0.045c0.18-0.012,0.274-0.178,0.305-0.289
	c-0.008-0.186,0.042-0.34,0.026-0.453l0.034-0.081C3.17,32.565,3.211,32.637,3.218,32.731"/>
<path fill="#FFFFFF" d="M2.841,35.596c-0.088,0.008-0.079-0.11-0.14-0.152c-0.09-0.084-0.183-0.25-0.343-0.187
	c-0.067,0.045-0.135,0.1-0.22,0.146c-0.229,0.273-0.47,0.395-0.71,0.637c-0.058,0.019-0.085-0.019-0.104-0.062
	c0.068-0.098,0.18-0.169,0.273-0.239c0.071-0.048,0.122-0.143,0.205-0.196c0.057-0.063,0.085-0.108,0.139-0.15
	c0.137-0.141,0.248-0.182,0.363-0.309c0.053-0.045,0.139-0.084,0.198-0.033c0.056,0.137,0.216,0.201,0.322,0.308
	C2.871,35.421,2.985,35.542,2.841,35.596"/>
<path fill="#C95665" d="M28.731,3.886c0.522,0.011,0.814,0.216,1.136,0.384c0.621,0.329,1.024,0.604,1.852,0.616
	c0.439,0.002,0.886,0.052,1.292,0.248c1.432,0.678,2.238,3.098,2.491,4.434c0.089,0.463,0.042,0.941,0,1.4
	c-0.045,0.464-0.089,0.9,0,1.287c0.155,0.699,0.426,0.703,0.603,0.703h0.002c0.174,0,0.397-0.049,0.627-0.096
	c0.168-0.037,0.332-0.076,0.518-0.101c0.402-0.062,0.805-0.089,1.184-0.089c0.551,0,1.076,0.062,1.581,0.188
	c0.53,0.13,1.052,0.179,1.594,0.229c0.399,0.037,0.812,0.072,1.246,0.152c0.427,0.073,1.892,0.336,2.721,0.701
	c0.468,0.197,0.836,0.521,1.188,0.84c0.309,0.275,0.601,0.533,0.955,0.723c2.061,1.104,2.664,2.395,2.054,4.473
	c-0.062,0.208-0.123,0.426-0.188,0.643c-0.197,0.696-0.408,1.426-0.636,2.09c-0.294,0.855-0.745,1.225-1.273,1.658
	c-0.153,0.129-0.315,0.266-0.487,0.416c-0.494,0.457-0.859,1.032-1.238,1.647c-0.537,0.842-1.095,1.718-2.025,2.269
	c-0.768,0.454-1.378,0.485-2.157,0.522c-0.047,0.003-0.097,0.005-0.142,0.005c-0.347,0.169,0.026,0.898,0.282,1.346
	c0.134,0.24,0.287,0.506,0.423,0.869c0.089,0.256,0.095,0.531,0.1,0.789c0.008,0.23,0.011,0.447,0.073,0.607
	c0.029,0.076,0.137,0.174,0.242,0.266c0.187,0.166,0.416,0.379,0.516,0.702c0.234,0.795,0.158,2.487-0.076,3.091
	c-0.061,0.163-0.219,0.337-0.402,0.547c-0.143,0.161-0.3,0.34-0.357,0.45c-0.074,0.14-0.107,0.323-0.145,0.513
	c-0.057,0.284-0.121,0.613-0.332,0.91c-0.809,1.168-2.557,1.783-3.963,2.275c-0.346,0.117-0.674,0.238-0.952,0.347
	c-0.384,0.158-0.7,0.231-0.984,0.231c-0.405,0-0.71-0.147-1.068-0.315c-0.173-0.084-0.362-0.171-0.592-0.261
	c-0.592-0.227-1.144-0.275-1.774-0.328c-0.309-0.021-0.626-0.053-0.971-0.102c-0.666-0.092-1.086-0.395-1.491-0.67
	c-0.059-0.037-0.11-0.074-0.172-0.119h-0.064c-0.604,0-1.044-0.129-1.331-0.392c-0.658,0.94-1.652,1.657-3.092,2.246
	c-0.968,0.537-1.983,0.769-2.854,0.927c-0.245,0.075-0.438,0.135-0.618,0.188c-0.786,0.255-1.625,0.374-2.495,0.374
	c-0.313,0-0.64-0.02-0.95-0.049c-1.137,0-2.03-0.26-2.741-0.78c-0.763-0.37-1.431-0.856-1.994-1.44
	c-0.794-0.551-1.678-1.207-2.112-2.092c-0.513-1.047-0.261-1.518,0.065-2.125c0.089-0.163,0.184-0.34,0.276-0.55
	c0.019-0.045,0.044-0.103,0.07-0.171c0.579-1.317,0.767-1.904,0.803-2.146c-0.652-0.199-1.233-0.797-1.76-1.81
	c-0.284-0.556-0.589-1.05-0.784-1.278c-0.112-0.14-0.278-0.322-0.463-0.505c-0.124-0.118-0.289-0.255-0.336-0.303
	C9,29.88,8.267,29.521,7.559,29.171c-0.645-0.318-1.305-0.646-1.841-1.137c-0.37-0.318-0.68-0.727-0.973-1.271
	c-0.848-1.312-1.682-2.704-1.92-4.085c-0.238-1.354,0.101-2.151,0.529-2.973c0.131-0.289,0.273-0.567,0.439-0.832
	c0.083-0.151,0.146-0.291,0.207-0.426c0.099-0.208,0.163-0.371,0.216-0.523c0.136-0.359,0.239-0.646,0.685-1.125
	c0.549-0.59,0.997-0.881,1.591-1.176C7.147,15.3,7.886,15.073,8.47,15.02c0.042-0.003,0.442-0.063,0.595-0.032
	c0.138,0.032,0.269,0.062,0.402,0.062c0.029,0,0.055,0,0.082-0.004c0.139-0.015,0.263-0.071,0.4-0.147
	c0.184-0.101,0.399-0.116,0.687-0.116h0.059c0.634,0.034,2.876,1.182,3.51,1.2c0,0,0.161,0.013,0.23-0.006
	c0.079-0.019,0.158-0.089,0.158-0.089c0.289-0.239,0.516-0.553,0.691-0.955c0.023-0.034,0.032-0.068,0.05-0.105l0.002-0.005
	c0.029-0.073,0.058-0.151,0.087-0.224v-0.003c0.023-0.081,0.053-0.155,0.074-0.242c0.126-0.423,0.215-0.896,0.3-1.349
	c0.026-0.125,0.042-0.254,0.071-0.371l0.025-0.107l0.024-0.143c0.01-0.023,0.026-0.121,0.026-0.121
	c0.011-0.031,0.016-0.073,0.025-0.104l0.005-0.027c0.005-0.029,0.014-0.06,0.02-0.094l0.01-0.035
	c0.008-0.037,0.016-0.071,0.026-0.111l0.008-0.016c0.005-0.028,0.016-0.068,0.021-0.101l0.017-0.028
	c0.008-0.039,0.021-0.074,0.028-0.113v-0.006c0.014-0.037,0.024-0.067,0.037-0.103l0.009-0.037c0.013-0.03,0.022-0.069,0.033-0.106
	l0.002-0.006c0.012-0.028,0.029-0.068,0.04-0.101l0.009-0.03c0.013-0.037,0.031-0.074,0.047-0.105v-0.008
	c0.016-0.031,0.028-0.063,0.042-0.098l0.016-0.031c0.016-0.029,0.032-0.068,0.047-0.099c0.231-0.457,0.374-1.01,0.532-1.596
	c0.315-1.179,0.636-2.386,1.678-3.024c0.46-0.279,0.942-0.32,1.405-0.363c0.394-0.031,0.764-0.073,1.107-0.241
	c0.28-0.146,0.522-0.349,0.78-0.562c0.354-0.297,0.727-0.609,1.242-0.771c0.055-0.015,0.105-0.026,0.158-0.042l0.037-0.012
	c0.047-0.013,0.104-0.022,0.149-0.03l0.029-0.011c0.044-0.012,0.089-0.017,0.131-0.026l0.042-0.005
	c0.047-0.008,0.092-0.018,0.141-0.029l0.044-0.003c0.036-0.005,0.073-0.013,0.11-0.013l0.044-0.008
	c0.042-0.006,0.089-0.008,0.135-0.015c0.011,0,0.055,0,0.055,0c0.029-0.008,0.061-0.008,0.095-0.013c0.021,0,0.059,0,0.082,0
	c0.026-0.006,0.053-0.006,0.084-0.008h0.071h0.071h0.053h0.071h0.05c0.163,0.002,0.342,0.013,0.542,0.027h0.008
	c0.068,0.006,0.139,0.014,0.212,0.02l0.032,0.003c0.071,0.008,0.139,0.013,0.21,0.021c0.168,0.018,0.324,0.024,0.476,0.024
	c0.453,0,0.809-0.074,1.301-0.177C27.963,3.968,28.452,3.882,28.731,3.886"/>
<g>
	<g>
		<g>
			<defs>
				<path id="SVGID_1_" d="M28.104,4.196c-0.951,0.184-1.426,0.342-2.352,0.256c-0.841-0.088-1.645-0.146-2.556,0.137
					c-0.811,0.246-1.247,0.937-1.983,1.308c-0.799,0.418-1.708,0.121-2.485,0.595c-1.448,0.887-1.412,3.116-2.111,4.516
					c-0.776,1.541-0.438,3.94-1.907,5.117c0,0-0.087,0.067-0.213,0.097c-0.095,0.016-0.279,0.021-0.279,0.021
					c-0.679-0.019-2.667-1.152-3.545-1.199c-0.458-0.025-0.684,0.227-1.115,0.267c-0.206,0.019-0.384,0-0.553-0.017
					c-0.173-0.017-0.342-0.028-0.526-0.014c-0.617,0.061-1.341,0.309-1.878,0.579c-0.595,0.292-1.002,0.562-1.51,1.108
					c-0.589,0.635-0.518,0.869-0.854,1.582c-0.734,1.57-1.465,2.25-1.15,4.062c0.268,1.57,1.358,3.17,2.241,4.534
					c1.017,1.589,3.094,1.752,4.512,3.133c0.508,0.497,1.112,1.07,1.554,1.61c0.369,0.463,1.741,1.814,1.828,2.301
					c0.068,0.421-0.702,2.134-0.896,2.598c-0.42,0.982-0.926,1.243-0.347,2.428c0.694,1.4,2.683,2.279,3.83,3.276
					c1.536,1.337,3.852,0.841,5.734,0.552c1.962-0.305,3.722-0.595,5.25-2.162c0.794-0.812,1.134-1.65,2.467-1.198
					c0.994,0.331,1.362,1.042,2.425,1.198c1.042,0.147,1.873,0.084,2.805,0.439c1.044,0.402,1.277,0.82,2.453,0.348
					c1.382-0.553,3.831-1.142,4.791-2.521c0.306-0.432,0.25-0.971,0.455-1.387c0.147-0.295,0.663-0.747,0.752-0.973
					c0.205-0.529,0.284-2.16,0.068-2.895c-0.132-0.45-0.629-0.637-0.752-0.949c-0.158-0.429-0.016-0.977-0.179-1.406
					c-0.39-1.08-1.363-2.093-0.658-2.568c0.113-0.064,1.557-0.021,2.373-0.502c1.524-0.896,1.994-2.754,3.219-3.877
					c0.739-0.676,1.336-0.943,1.694-1.976c0.295-0.862,0.558-1.81,0.823-2.723c0.612-2.099-0.138-3.198-1.921-4.155
					c-0.82-0.439-1.312-1.205-2.119-1.558c-0.702-0.302-1.943-0.562-2.662-0.688c-1.014-0.173-1.907-0.145-2.866-0.384
					c-0.853-0.213-1.738-0.229-2.667-0.09c-0.977,0.143-1.744,0.604-2.038-0.707c-0.184-0.839,0.166-1.825,0-2.696
					C35,8.282,34.221,5.981,32.9,5.355c-0.773-0.368-1.657-0.108-2.496-0.573c-0.739-0.419-1.104-0.607-1.823-0.607
					C28.436,4.175,28.278,4.181,28.104,4.196"/>
			</defs>
			<clipPath id="SVGID_2_">
				<use xlink:href="#SVGID_1_"  overflow="visible"/>
			</clipPath>
			
				<radialGradient id="SVGID_3_" cx="-79.4199" cy="475.6904" r="1.3792" gradientTransform="matrix(15.6269 0 0 15.6279 1267.4618 -7410.1875)" gradientUnits="userSpaceOnUse">
				<stop  offset="0" style="stop-color:#FFFFFF"/>
				<stop  offset="0.0675" style="stop-color:#FFFFFF"/>
				<stop  offset="0.1978" style="stop-color:#FAEDEF"/>
				<stop  offset="0.3804" style="stop-color:#F2D3D9"/>
				<stop  offset="0.6619" style="stop-color:#DC959B"/>
				<stop  offset="0.8889" style="stop-color:#CE6774"/>
				<stop  offset="1" style="stop-color:#C95666"/>
			</radialGradient>
			<rect x="2.772" y="4.175" clip-path="url(#SVGID_2_)" fill="url(#SVGID_3_)" width="47.365" height="39.652"/>
		</g>
	</g>
</g>
<g>
	<g>
		<g>
			<defs>
				<path id="SVGID_4_" d="M28.504,4.139c-0.126,0.013-0.255,0.028-0.402,0.058c-0.948,0.184-1.417,0.323-2.343,0.236
					c-0.152-0.018-0.693-0.044-0.905-0.047c-0.536-0.021-1.075,0.025-1.656,0.201c-0.811,0.248-1.25,0.938-1.983,1.309
					c-0.802,0.418-1.711,0.121-2.488,0.596c-1.446,0.885-1.409,3.115-2.109,4.516c-0.579,1.154-0.534,2.779-1.094,4.02
					c0.038,0.452,0.126,0.889,0.252,1.316c0.213,0.697,1.562,0.646,1.314,1.986l0.053,0.219c1.078,3.584,7.483,2.695,9.311,1.293
					c0.926-0.717,2.698-1.293,3.411-2.19c0.624-0.791,2.644-1.425,3.153-2.274c0.792-1.322,1.817-3.102,1.724-4.312
					c-0.297-3.742-2.564-5.468-4.316-6.272c-0.832-0.379-1.079-0.651-1.817-0.651C28.573,4.139,28.536,4.139,28.504,4.139"/>
			</defs>
			<clipPath id="SVGID_5_">
				<use xlink:href="#SVGID_4_"  overflow="visible"/>
			</clipPath>
			
				<radialGradient id="SVGID_6_" cx="-68.3809" cy="485.1816" r="1.3801" gradientTransform="matrix(12.0154 0 0 12.0161 846.103 -5823.1362)" gradientUnits="userSpaceOnUse">
				<stop  offset="0" style="stop-color:#C95666"/>
				<stop  offset="0.2086" style="stop-color:#C95666"/>
				<stop  offset="0.298" style="stop-color:#CA5B6A"/>
				<stop  offset="0.4185" style="stop-color:#CF6B76"/>
				<stop  offset="0.5569" style="stop-color:#D7848C"/>
				<stop  offset="0.7085" style="stop-color:#E2A7AC"/>
				<stop  offset="0.8693" style="stop-color:#F2D3D8"/>
				<stop  offset="0.8712" style="stop-color:#F2D3D9"/>
				<stop  offset="1" style="stop-color:#F2D3D9"/>
			</radialGradient>
			<rect x="15.523" y="4.139" clip-path="url(#SVGID_5_)" fill="url(#SVGID_6_)" width="19.31" height="17.989"/>
		</g>
	</g>
</g>
<g>
	<g>
		<g>
			<defs>
				<path id="SVGID_7_" d="M29.141,4.602c-0.126,0.013-0.266,0.036-0.421,0.062c-0.979,0.182-1.476,0.353-2.438,0.26
					c-0.158-0.017-0.758-0.051-0.934-0.068c-0.55-0.016-1.114,0.025-1.715,0.208c-0.842,0.253-1.302,0.955-2.062,1.344
					c-0.839,0.429-1.783,0.121-2.587,0.608c-0.808,0.488-1.758,2.238-2.058,4.443c-0.095,0.734,0.41,1.43,0.312,2.266
					c-0.43,3.585,0.592,2.771,1.354,4.225c1.432,2.709,1.286,3.535,0.573,3.391c0.792,0.953,1.52,2.173,0.933,2.942
					c2.444,0.526,5.546-0.139,6.736-1.057c0.973-0.745,2.312-1.476,3.059-2.415c0.643-0.823,1.842-3.436,2.37-4.309
					c0.834-1.359,1.739-1.639,2.387-4.178c1.089-4.23-1.059-6.044-3.336-7.001c-0.712-0.298-1.633-0.724-2.104-0.724
					C29.186,4.599,29.162,4.599,29.141,4.602"/>
			</defs>
			<clipPath id="SVGID_8_">
				<use xlink:href="#SVGID_7_"  overflow="visible"/>
			</clipPath>
			
				<radialGradient id="SVGID_9_" cx="-73.1733" cy="482.8525" r="1.38" gradientTransform="matrix(13.3765 0 0 12.7366 1005.3254 -6139.8867)" gradientUnits="userSpaceOnUse">
				<stop  offset="0" style="stop-color:#C95666"/>
				<stop  offset="0.0956" style="stop-color:#CA5A69"/>
				<stop  offset="0.2053" style="stop-color:#CE6673"/>
				<stop  offset="0.3219" style="stop-color:#D47B84"/>
				<stop  offset="0.4434" style="stop-color:#DD989E"/>
				<stop  offset="0.5675" style="stop-color:#EABCC1"/>
				<stop  offset="0.638" style="stop-color:#F2D3D9"/>
				<stop  offset="0.7246" style="stop-color:#F4D8DD"/>
				<stop  offset="0.837" style="stop-color:#F7E5E8"/>
				<stop  offset="0.9631" style="stop-color:#FEF9FA"/>
				<stop  offset="1" style="stop-color:#FFFFFF"/>
			</radialGradient>
			<rect x="16.809" y="4.599" clip-path="url(#SVGID_8_)" fill="url(#SVGID_9_)" width="18.932" height="20.208"/>
		</g>
	</g>
</g>
<g>
	<g>
		<g>
			<defs>
				<path id="SVGID_10_" d="M25.517,27.11c-1.509,0.395-4.215,0.032-5.532,0.936c-1.165,0.793-2.257,1.908-2.814,3.18
					c-1.376,1.499-2.862,2.816-3.693,3.982c-0.921,1.291-1.089,3.334-0.5,4.521c1.657,3.296,5.811,4.338,8.975,3.336
					c3.075-0.688,6.843-1.567,7.269-5.658c0.213-2.022,0.778-4.108,0.105-5.979c-0.495-1.371-0.615-4.414-3.006-4.414
					C26.077,27.011,25.809,27.042,25.517,27.11"/>
			</defs>
			<clipPath id="SVGID_11_">
				<use xlink:href="#SVGID_10_"  overflow="visible"/>
			</clipPath>
			
				<radialGradient id="SVGID_12_" cx="-50.2222" cy="502.1367" r="1.3789" gradientTransform="matrix(8.6984 0 0 8.6989 456.1882 -4337.8838)" gradientUnits="userSpaceOnUse">
				<stop  offset="0" style="stop-color:#FFFFFF"/>
				<stop  offset="0.1712" style="stop-color:#FAEDEF"/>
				<stop  offset="0.411" style="stop-color:#F2D3D9"/>
				<stop  offset="0.6787" style="stop-color:#DC959B"/>
				<stop  offset="0.8944" style="stop-color:#CE6774"/>
				<stop  offset="1" style="stop-color:#C95666"/>
			</radialGradient>
			<rect x="12.388" y="27.011" clip-path="url(#SVGID_11_)" fill="url(#SVGID_12_)" width="17.611" height="17.055"/>
		</g>
	</g>
</g>
<g>
	<g>
		<g>
			<defs>
				<path id="SVGID_13_" d="M3.076,22.091c-0.03,1.486,1.164,3.088,1.812,4.354c0.942,1.839,1.796,1.917,3.47,2.817
					c1.398,0.752,2.277,1.633,3.066,3.15c2.045,3.93,4.265,0.266,6.049-1.17c1.312-1.074,2.12-3.455,1.736-5.17
					c-0.258-1.134-1.184-2.787-2.136-3.494l0.6,0.398c-0.757-0.741-0.184-1.678-0.516-2.572c-0.294-0.8-0.769-1.768-1.194-2.65
					c-0.631-1.317-1.356-0.986-2.002-0.657c-0.344,0.176-0.67,0.354-0.947,0.278c-0.842-0.219-2.053-0.492-2.842-0.808
					c-0.542-0.211-1.091-0.31-1.628-0.31C5.703,16.261,3.149,19.003,3.076,22.091"/>
			</defs>
			<clipPath id="SVGID_14_">
				<use xlink:href="#SVGID_13_"  overflow="visible"/>
			</clipPath>
			
				<radialGradient id="SVGID_15_" cx="-64.2935" cy="489.417" r="1.3796" gradientTransform="matrix(11.0571 0 0 11.0578 730.2902 -5385.1689)" gradientUnits="userSpaceOnUse">
				<stop  offset="0" style="stop-color:#FFFFFF"/>
				<stop  offset="0.0675" style="stop-color:#FFFFFF"/>
				<stop  offset="0.2183" style="stop-color:#FAEDEF"/>
				<stop  offset="0.4294" style="stop-color:#F2D3D9"/>
				<stop  offset="0.6887" style="stop-color:#DC959B"/>
				<stop  offset="0.8977" style="stop-color:#CE6774"/>
				<stop  offset="1" style="stop-color:#C95666"/>
			</radialGradient>
			<rect x="3.046" y="16.261" clip-path="url(#SVGID_14_)" fill="url(#SVGID_15_)" width="16.548" height="20.082"/>
		</g>
	</g>
</g>
<g>
	<g>
		<g>
			<defs>
				<path id="SVGID_16_" d="M36.424,13.513c-0.85,0.148-1.744,0.771-2.349,1.191c-0.676,0.53-1.081,1.866-1.768,2.271
					c-1.564,0.73-1.614,1.109-2.473,2.47c-0.702,1.12-1.589,2.693-2.28,3.908c-0.013,0.474,0.029,0.946,0.118,1.401
					c0.137,0.764,1.016,1.98,0.992,2.651l0.034-0.266c0.715,3.888,8.635,5.062,7.175,3.167c-3.761-4.891,2.099-7.289,2.835-6.373
					c4.597,5.721,6.454,2.355,6.895,1.77c0.947-1.279,1.684-2.582,1.915-3.84c1.469-8.128-3.085-6.982-5.648-8.099
					c-0.126-0.005-0.261-0.005-0.416,0.003c-0.987,0.059-1.488,0.165-2.424-0.057c-0.147-0.035-0.3-0.067-0.447-0.106
					c-0.137-0.011-0.289-0.037-0.458-0.076c-0.3-0.05-0.605-0.085-0.92-0.085C36.953,13.446,36.695,13.468,36.424,13.513"/>
			</defs>
			<clipPath id="SVGID_17_">
				<use xlink:href="#SVGID_16_"  overflow="visible"/>
			</clipPath>
			
				<radialGradient id="SVGID_18_" cx="-89.9702" cy="465.8174" r="1.3794" gradientTransform="matrix(22.1922 0 0 22.1936 2052.3662 -10325.2002)" gradientUnits="userSpaceOnUse">
				<stop  offset="0" style="stop-color:#C95666"/>
				<stop  offset="0.3067" style="stop-color:#C95666"/>
				<stop  offset="0.368" style="stop-color:#CB5F6D"/>
				<stop  offset="0.4741" style="stop-color:#D37982"/>
				<stop  offset="0.6125" style="stop-color:#E0A2A7"/>
				<stop  offset="0.7607" style="stop-color:#F2D3D9"/>
				<stop  offset="1" style="stop-color:#F2D3D9"/>
			</radialGradient>
			<rect x="27.542" y="13.446" clip-path="url(#SVGID_17_)" fill="url(#SVGID_18_)" width="21.446" height="18.76"/>
		</g>
	</g>
</g>
<g>
	<g>
		<g>
			<defs>
				<path id="SVGID_19_" d="M35.609,29.681c0.019,0.003,0.028-0.006,0.04-0.016c0.005-0.012,0.005-0.021,0.002-0.021
					C35.646,29.644,35.632,29.654,35.609,29.681 M34.018,14.688c-0.238,0.258-0.486,0.508-0.609,0.718
					c-0.336,0.558-0.5,0.86-1.143,1.222c-0.437,0.244-0.772,0.354-1.094,0.721c-0.308,0.35-0.542,0.727-0.81,1.104
					c-0.523,0.736-1.531,0.914-2.438,0.93c-0.218,0.008-0.432-0.006-0.639-0.014c-1.244,0.812-2.557,1.277-3.755,0.98
					c-0.737-0.182-1.665-1.494-2.362-1.395c-0.699,0.104,0.403,0.469-0.152,1.064c-0.621,0.663-1.367,0.115-1.89-0.43
					c-0.358-0.37-0.613-0.746-0.65-0.735c-0.149,0.05,0.026,0.435,0.012,0.621c-0.029,0.387-0.385,0.62-0.421,1.019
					c-0.042,0.389,0.013,0.609,0.062,0.814c0.058,0.236,0.174,0.539,0.158,0.947c-0.017,0.688-0.013,0.465-0.042,1.154
					c-0.059,1.364-0.623,1.936-0.957,3.279c-0.363,1.473,1.157,2.248-0.673,4.994c-0.61,0.915-3.352,2.191-3.178,3.273
					c0.773-0.137,1.205-0.996,1.758-1.56c1.317-1.325,4.91-2.722,7.021-2.819c2.202-0.103,0.089,2.338,0.705,2.819
					c0.6,0.463-0.6,1.747,0.079,1.426c0.702-0.339,1.66-3.536,2.046-4.323c0.253-0.514,3.735-8.59,3.83,3.599
					c0.011,1.157,0.697,1.72,0.374,2.838c-0.155,0.526-2.199,3.456,1.163,3.127c0.45-2.543-1.47-4.349-0.479-5.586
					c0.529-0.663,2.389-0.781,2.353-1.642c-0.074-1.887,0.799-1.844,1.604-1.803c0.494,0.029,0.965,0.057,1.173-0.371
					c0.324-0.66,0.481-0.902,0.551-0.982c-0.029-0.006-0.076-0.061-0.093-0.281c-0.086-0.837,0.663-0.848,0.312-1.639
					c0.805,0.191,1.018-0.604,1.683-0.781c0.447-0.124,1.363-0.071,1.826,0c1.104,0.179,1.651,1.979,1.877,1.87
					c0.258-0.39-0.363-1.351-0.941-1.878c-0.468-0.432-1.024-1.303-1.403-1.803c-0.565-0.73-0.2-1.729-1.026-2.148
					c-0.252-0.131-0.455-0.087-0.7-0.042c-0.367,0.067-0.819,0.137-1.656-0.373c-4.366,3.096-0.674-1.573-0.938-2.718
					c-0.531-1.504-1.712-1.943-0.474-5.188c0.005-0.016-0.002-0.027-0.021-0.027C34.044,14.673,34.031,14.681,34.018,14.688"/>
			</defs>
			<clipPath id="SVGID_20_">
				<use xlink:href="#SVGID_19_"  overflow="visible"/>
			</clipPath>
			
				<radialGradient id="SVGID_21_" cx="-66.4395" cy="487.3311" r="1.3785" gradientTransform="matrix(11.5687 0 0 11.5694 795.9799 -5610.7637)" gradientUnits="userSpaceOnUse">
				<stop  offset="0" style="stop-color:#FFFFFF"/>
				<stop  offset="0.092" style="stop-color:#FFFFFF"/>
				<stop  offset="0.2096" style="stop-color:#FAEDEF"/>
				<stop  offset="0.3742" style="stop-color:#F2D3D9"/>
				<stop  offset="0.4169" style="stop-color:#EBC1C6"/>
				<stop  offset="0.5149" style="stop-color:#DE9BA1"/>
				<stop  offset="0.61" style="stop-color:#D57D85"/>
				<stop  offset="0.7001" style="stop-color:#CE6774"/>
				<stop  offset="0.7833" style="stop-color:#CA5A6A"/>
				<stop  offset="0.8528" style="stop-color:#C95666"/>
				<stop  offset="1" style="stop-color:#C95666"/>
			</radialGradient>
			<rect x="13.266" y="14.673" clip-path="url(#SVGID_20_)" fill="url(#SVGID_21_)" width="28.205" height="25.722"/>
		</g>
	</g>
</g>
<path fill="#FFFFFF" d="M20.199,30.27c-0.458-0.328,0-1.485,0.544-2.067c0.542-0.578,1.375-1.521,1.157-1.633
	c-0.219-0.111-1.157,0.11-1.449,0c-0.289-0.109,1.631-0.867,1.847-0.977c0.221-0.11-1.373-0.547-1.957-0.618
	c-0.576-0.07-1.772,0.108-1.665-0.146c0.113-0.25,0.8-0.576,0.944-0.725c0.142-0.143-0.907-0.688-0.979-0.943
	c-0.073-0.254,0.217-0.509,1.299-0.254c1.089,0.254,1.997,0.146,2.467,0.254c0.468,0.109,0.723,0.219,0.904,0.328
	c0.185,0.11,0.312-0.287,0.46-0.227c0.149,0.06,0.492,0.283,0.523,0.061c0.031-0.224-0.15-0.629-0.447-0.896
	c-0.3-0.267-0.778-0.808-0.836-1c-0.058-0.191-0.297-0.655-0.028-0.763c0.271-0.104,0.505-0.012,0.659-0.074
	c0.147-0.061,0.416-0.465,0.8-0.297c0.39,0.162,0.57,0.312,0.688,0.404c0.121,0.088,0.344,0.145,0.521,0.088
	c0.182-0.062,0.48-0.418,0.822-0.211c0.346,0.211,0.958,0.702,1.511,0.584c0.55-0.119,0.864-0.39,1.027-0.719
	c0.166-0.329,0.629-1.359,0.823-1.555c0.192-0.194,0.688-0.581,0.613-0.434c-0.074,0.148-0.568,1.24-0.537,1.793
	c0.026,0.553-0.09,0.688,0.086,0.823c0.182,0.132,0.408,0.089,0.597,0c0.195-0.09,0.511-0.313,0.553-0.179
	c0.047,0.129-1.104,0.906-1.446,1.238c-0.345,0.326-0.673,1-0.505,1.268c0.161,0.27,0.82,0.146,1.146,0.146
	c0.332,0,1.031,0.049,0.941,0.211c-0.086,0.164-1.269,0.955-1.269,1.09c0,0.137,0.716,0.389,1.123,0.404
	c0.402,0.017,1.354,0.166,1.731,0.252c0.371,0.092,0.684,0.076,0.76,0.285c0.074,0.207,0.195,0.389,0.058,0.401
	c-0.134,0.019-0.94-0.104-1.21-0.208c-0.268-0.104-1.656-0.418-1.967-0.402c-0.315,0.016-1.239-0.016-1.401,0.299
	c-0.166,0.312,0.518,0.522,0.668,0.656c0.149,0.137,0.705,0.719,0.359,0.778c-0.342,0.062-0.626-0.197-0.76-0.239
	c-0.134-0.045-0.673-0.418-0.808-0.523c-0.135-0.103-0.719-0.73-1-0.701c-0.284,0.029-0.868,0.137-1.196,0.342
	c-0.329,0.213-0.688,0.615-0.88,0.839c-0.194,0.224-0.986,0.731-1.315,1.002c-0.326,0.267-2.136,1.699-2.462,1.941
	C21.385,30.21,20.573,30.536,20.199,30.27"/>
<path fill="#A02031" d="M25.417,19.56c-0.131-0.197-0.082-0.663,0.026-0.952c0.097-0.253,0.874-1.673,1.672-1.401
	c0.326,0.109,0.537,0.246,0.631,0.592c0.161,0.568,0.184,1.434-0.258,1.869C26.858,20.302,25.774,20.091,25.417,19.56"/>
<path fill="#A02031" d="M21.662,21.286c0.226-0.043,0.522-0.318,0.573-0.543c0.07-0.3,0.662-0.326,0.688-0.441
	c0.031-0.121-0.604-1.684-0.952-1.822c-0.418-0.177-0.539,0.109-0.916,0.076c-0.287-0.026-0.542-0.141-0.715,0.174
	c-0.268,0.482-0.762,1.104-0.368,1.633C20.373,20.891,20.946,21.423,21.662,21.286"/>
<path fill="#A02031" d="M30.63,22.538c-0.104,0.117-0.342,0.209-0.489,0.053c0.474-0.568,0.868-0.779,1.452-1.213
	c0.206-0.228,0.037-1.174,0.147-1.486c0.109-0.314,1.083-0.982,1.51-0.758c0.221,0.115,0.429,0.182,0.555,0.377
	c0.236,0.353,0.224,0.957,0.229,1.232c0.016,0.389-0.194,0.666-0.311,1.039c-0.104,0.354-0.752,0.301-1.042,0.328
	c-0.389,0.034-0.755-0.26-1.12-0.033C31.358,22.197,30.795,22.353,30.63,22.538"/>
<path fill="#A02031" d="M26.279,23.868c0.124-0.24-0.009-0.582,0.031-0.834c0.029-0.199,0.101-0.508-0.115-0.632
	c-0.105,0.47-0.183,1.009-0.005,1.464C26.211,23.923,26.274,23.874,26.279,23.868"/>
<path fill="#A02031" d="M17.445,25.144c0.505-0.73,1.07-0.98,1.735-1.107c0.014-0.09-0.181-0.158-0.255-0.158
	c-0.453-0.092-0.802-0.361-1.089-0.713c-0.565-0.684-0.895-1.234-1.826-0.949c-0.982,0.301-1.021,1.918-0.744,2.705
	C15.596,25.864,16.87,25.978,17.445,25.144"/>
<path fill="#A02031" d="M36.895,23.931c1.014-0.385,1.831,0.115,1.333,0.958c-0.255,0.431-0.171,0.934-0.46,1.364
	c-0.226,0.348-0.789,0.537-1.21,0.387c-0.378-0.135-0.915-0.37-1.184-0.652c-0.31-0.322-0.399-0.581-0.91-0.712
	c-0.826-0.216-1.728-0.009-2.53-0.315c0.915-0.463,1.968,0.041,2.931-0.023C35.28,24.904,35.575,24.171,36.895,23.931"/>
<path fill="#A02031" d="M31.903,24.936c-0.252-0.138-0.537-0.146-0.727-0.026C31.353,24.95,31.737,25.005,31.903,24.936"/>
<path fill="#A02031" d="M19.468,27.872c-0.921-1.096-2.87,0.994-3.012,1.131c-0.14,0.142-0.508,0.412-0.55,0.561
	c-0.113,0.434,0.895,1.016,1.21,1.193c0.41,0.242,0.765,0.856,1.331,0.427c0.558-0.416,0.609-0.817,0.755-1.472
	c0.129-0.572,0.368-1.164,0.812-1.571c0.442-0.411,0.984-0.72,1.352-1.21C20.475,26.858,20.115,27.587,19.468,27.872"/>
<path fill="#A02031" d="M33.218,23.113c-0.176-0.704-1.425,0.034-1.735-0.028c0.354,0.09,0.87,0.064,1.341,0.133
	C32.96,23.247,33.247,23.263,33.218,23.113"/>
<path fill="#A02031" d="M27.852,27.167c0.354,0.193,0.475,0.682,0.836,0.898c0.312,0.18,0.761,0.413,1.063,0.645
	c0.163,0.127,0.342,0.717,0.068,0.846c-0.402,0.199-0.551-0.579-0.75,0.072c-0.208,0.647-0.994,0.955-1.149,1.646
	c-0.103,0.484-0.437,1.145-0.132,1.609c0.095,0.146,0.252,0.211,0.413,0.23c0.376,0.049,0.429,0.021,0.747,0.227
	c0.396,0.254,0.723,0.361,1.151,0.168c0.421-0.193,0.755-0.488,0.848-0.959c-0.05-0.51-0.234-1.01-0.219-1.53
	c0.014-0.519,0.247-0.826-0.023-1.342c-0.213-0.413-0.402-0.63-0.771-0.907c-0.278-0.21-0.374-0.605-0.579-0.893
	c-0.334-0.467-0.931-1.012-1.142-1.24c-0.216-0.229-0.45-0.376-0.805-0.374c-0.357,0-0.873,0.394-1.131,0.7
	c-0.329,0.396-0.784,0.619-1.127,0.949c-0.374,0.359-0.292,0.909-0.481,1.358c-0.158,0.385-0.468,0.834-0.505,1.258
	c0.255-0.146,0.432-0.545,0.589-0.778c0.116-0.174,0.226-0.351,0.363-0.508c0.14-0.174,0.353-0.179,0.507-0.326
	c0.45-0.429,0.497-0.971,0.789-1.457C26.664,27.056,27.489,26.979,27.852,27.167"/>
<path fill="#A02031" d="M36.29,31.536c-0.032-0.277-0.124-0.554-0.062-0.83c0.082-0.35-0.033-0.627-0.196-0.957
	c-0.195-0.371-0.784-1.244-1.308-1.008c-0.182,0.082-0.359,0.303-0.582,0.178c-0.263-0.152-0.347-0.387-0.673-0.5
	c-0.3-0.104-0.615-0.149-0.92-0.229c-0.2-0.05-0.379-0.104-0.634-0.127c0.197,0.421,0.896,0.685,1.239,0.972
	c0.75,0.617,0.392,1.327,0.342,2.119c-0.013,0.247-0.089,0.584,0.079,0.82c0.163,0.236,0.784,0.281,0.931,0.369
	c0.082,0.052,0.842,0.314,1.173,0.131C36.003,32.292,36.313,31.745,36.29,31.536"/>
<path fill="#A02031" d="M27.968,38.773c0.228-0.045,0.532,0.19,1.021,0.379c0.494,0.19,0.892,0.302,1.289,0.323
	c0.395,0.016,1.136,0.475,1.268,0.732c0.132,0.27,0.21,0.986-0.021,1.402c-0.227,0.418-0.626,0.969-0.416,1.873
	c0.208,0.909,0.586,1.249-0.076,1.191c-0.66-0.057-1.155-0.282-1.533-0.394c-0.379-0.112-0.926-0.176-1.342-0.684
	c-0.416-0.517-0.682-0.421-1.362-0.834c-0.684-0.413-1.1-1.286-0.757-1.662c0.342-0.379,1.378-1.308,1.512-1.519
	C27.684,39.378,27.874,38.794,27.968,38.773"/>
<path fill="#A02031" d="M41.471,33.421c0-0.213,0.492-0.533,0.523-0.674c0.029-0.134,0.044-0.94-0.045-1.283
	c-0.089-0.344-0.147-0.717,0.104-0.881c0.252-0.166,0.957-0.39,1.373-0.211c0.42,0.183,0.76,0.349,1.152,0.496
	c0.384,0.148,1.402,0.676,1.578,1.043c0.184,0.377,0.421,0.778,0.151,1.176c-0.268,0.41-0.268,0.691-0.479,0.871
	c-0.189,0.168-0.718,0.553-1,0.912c-0.287,0.36-0.495,1.12-0.836,1.283c-0.342,0.166-1.031,0.376-1.229,0.135
	c-0.191-0.24-0.297-0.761-0.25-0.969c0.042-0.21,0.521-0.6,0.402-0.941c-0.119-0.344-0.466-0.389-0.839-0.522
	C41.708,33.721,41.471,33.632,41.471,33.421"/>
<path fill="#A02031" d="M9.689,36.464c-0.182-0.196-0.362-0.362-0.272-0.561c0.092-0.201,0.321-0.626,0.365-0.962
	c0.045-0.332,0.031-1.126,0-1.354c-0.029-0.229,0.124-0.575,0.187-0.789c0.059-0.215-0.016-0.612,0.379-0.746
	c0.396-0.143,0.806-0.096,1.157-0.034s1.051,0.247,1.247,0.626c0.2,0.381,0.321,0.822,0.552,0.973
	c0.227,0.152,0.926,0.461,0.942,0.568c0.016,0.104-0.137,0.238-0.384,0.668c-0.239,0.424-0.227,1.521-0.259,1.736
	c-0.025,0.213-0.013,1.021-0.289,1.201c-0.272,0.185-0.715,0-1.109-0.197c-0.395-0.199-0.962-0.415-1.189-0.623
	c-0.2-0.188-0.194-0.426-0.337-0.486C10.542,36.419,9.874,36.665,9.689,36.464"/>
<path fill="#A02031" d="M24.497,32.493c0.158,0.168,0.21,0.693,0.205,0.85c-0.017,0.314-0.042,0.746-0.205,0.955
	c-0.155,0.201-0.705,0.498-0.868,0.56c-0.163,0.056-0.663,0.228-0.936-0.019c-0.121-0.104-0.537-0.393-0.668-0.649
	c-0.133-0.263-0.279-1.241,0.221-1.796c0.237-0.27,0.668-0.292,0.947-0.523c0.25-0.211,0.479-0.443,0.746-0.625
	c0.021,0.271-0.194,0.602-0.005,0.846C24.066,32.264,24.338,32.325,24.497,32.493"/>
<path fill="#A02031" d="M30.711,26.309c-0.347-0.045-0.502-0.16-0.874-0.149c0.219,0.317,0.771,0.269,1.118,0.396
	c0.163,0.061,0.272,0.174,0.389,0.242c0.376,0.216,1.079,0.471,1.173,0.589c0.096,0.116,0.781,0.413,1.152,0.266
	c0.158-0.055,0.438-0.118,0.363-0.315c-0.294-0.604-1.143-0.39-1.591-0.676c-0.15-0.09-0.15-0.205-0.368-0.244
	c-0.213-0.043-0.472-0.014-0.631-0.078C31.285,26.27,30.953,26.339,30.711,26.309"/>
<path fill="#A02031" d="M26.632,20.886c0,0,0.005,0.093-0.053,0.353c-0.052,0.255-0.168,0.815,0.062,1.261
	c0,0,0.131-0.146,0.095-0.545c-0.029-0.401,0.036-0.449,0.036-0.578C26.779,21.237,26.632,20.886,26.632,20.886"/>
<path fill="#A02031" d="M25.096,25.611c0.153,0.187-0.058,0.487-0.179,0.652c-0.14,0.182-0.363,0.284-0.81,0.755
	c-0.447,0.479-0.924,1.02-1.048,1.179c-0.115,0.165-0.404,0.603-0.513,0.505c-0.104-0.098,0.219-0.705,0.297-0.842
	c0.084-0.134,0.559-0.783,0.722-0.881c0.162-0.092,1.005-0.797,0.976-0.895c-0.024-0.092-0.312-0.068-0.447-0.039
	c-0.134,0.025-0.771,0.254-0.95,0.3c-0.173,0.038-0.395-0.071-0.137-0.287s0.326-0.259,0.463-0.284
	c0.135-0.027,0.514-0.039,0.596-0.121c0.082-0.081,0.095-0.339,0.016-0.392c-0.079-0.056-0.205-0.019-0.313-0.019
	c-0.107,0-1.396-0.227-1.611-0.27c-0.222-0.042-1.452-0.365-1.667-0.407c-0.218-0.039-0.242-0.192,0.109-0.192
	c0.353,0,0.989,0.125,1.221,0.125c0.229,0,0.5-0.039,0.745-0.026c0.241,0.016,0.934,0.137,1.133,0.067
	c0.206-0.067,0.495-0.191,0.534-0.326c0.038-0.133,0.067-0.297-0.056-0.418c-0.121-0.125-0.668-0.491-0.814-0.775
	c-0.143-0.284-0.297-0.566-0.444-0.652c-0.15-0.078-0.408-0.121-0.513-0.272c-0.11-0.146-0.166-0.556,0.023-0.474
	c0.192,0.084,0.708,0.354,0.792,0.465c0.079,0.108,0.216,0.379,0.376,0.565c0.166,0.188,0.517,0.517,0.677,0.613
	c0.162,0.095,0.491,0.337,0.586,0.539c0.513,0.028,0.624,0,0.959,0.019c0.339,0.014,0.867,0.062,0.976,0.118
	c0.107,0.058,0.476,0.231,0.597,0.106c0.121-0.119,0.46-0.836,0.596-1.014c0.137-0.178,0.76-0.947,0.884-1.152
	c0.121-0.2,0.852-0.784,0.92-0.741c0.068,0.039,0.216,0.134-0.058,0.378c-0.27,0.238-1.039,1.003-1.152,1.189
	c-0.108,0.193-0.542,0.896-0.621,1.047c-0.079,0.148-0.312,0.311-0.242,0.404c0.068,0.094,0.517,0.215,0.61,0.312
	c0.095,0.095,0.379,0.609,0.176,0.747c-0.203,0.134-0.45,0.008-0.624-0.179c-0.179-0.188-0.271-0.394-0.463-0.517
	c-0.189-0.124-0.421-0.188-0.771-0.312c-0.354-0.121-1.139-0.148-1.356-0.098c-0.218,0.059-0.649,0.208-0.66,0.45
	C24.607,24.812,24.686,25.114,25.096,25.611"/>
<path fill="#A02031" d="M25.706,23.419c-0.121,0-0.526-0.371-0.666-0.638c-0.139-0.272-0.418-0.786-0.513-0.909
	c-0.099-0.121-0.15-0.393-0.248-0.475c-0.093-0.081-0.526-0.598-0.405-0.665s0.568,0.382,0.621,0.503
	c0.058,0.123,0.489,0.719,0.6,0.865c0.108,0.148,0.434,0.665,0.516,0.814C25.693,23.065,25.827,23.419,25.706,23.419"/>
</svg>
