<?xml version="1.0" encoding="utf-8"?>
<!-- Generator: Adobe Illustrator 16.2.1, SVG Export Plug-In . SVG Version: 6.00 Build 0)  -->
<!DOCTYPE svg PUBLIC "-//W3C//DTD SVG 1.1//EN" "http://www.w3.org/Graphics/SVG/1.1/DTD/svg11.dtd">
<svg version="1.1" id="Layer_1" xmlns="http://www.w3.org/2000/svg" xmlns:xlink="http://www.w3.org/1999/xlink" x="0px" y="0px"
	 width="50px" height="50px" viewBox="210.5 60.5 50 50" enable-background="new 210.5 60.5 50 50" xml:space="preserve">
<g>
	<path fill="#0060A9" d="M245.209,105.245c-2.794-0.803-6.216-0.855-9.894-0.154c-3.794,0.722-7.772,2.24-11.508,4.385
		c-0.567,0.329-1.126,0.666-1.673,1.021h29.529c-0.096-0.222-0.195-0.439-0.306-0.646
		C250.193,107.659,248.063,106.065,245.209,105.245z"/>
	<path fill="#0060A9" d="M252.795,102.685c-1.406-2.643-3.966-4.561-7.406-5.546c-3.361-0.973-7.479-1.036-11.91-0.189
		c-4.562,0.87-9.349,2.693-13.842,5.278c-3.39,1.949-6.48,4.239-9.137,6.771v1.502h9.935c1.155-0.917,2.386-1.778,3.684-2.59
		c4.656-2.921,9.823-4.886,14.558-5.534c4.682-0.646,8.715,0.023,11.355,1.889c2.068,1.461,3.224,3.575,3.445,6.235h0.352
		l0.123-1.257C254.2,106.798,253.808,104.591,252.795,102.685z"/>
	<path fill="#0060A9" d="M211.577,88.511c-0.361,0.212-0.722,0.419-1.077,0.637v4.202c10.234-7.479,21.309-10.083,30.428-10.671
		C233.247,80.468,222.177,82.417,211.577,88.511z"/>
	<path fill="#0060A9" d="M245.45,83.65c0.364,0.309,0.719,0.632,1.05,0.978c0,0,2.43,2.515,3.233,4.896l-0.78-1.231
		c-1.231-1.94-2.998-3.448-5.174-4.52c-9.885,0.824-22.441,3.897-33.28,12.845v0.676c2.901-2.314,6.029-4.328,9.312-5.995
		c3.509-1.786,7.056-3.107,10.54-3.925c3.503-0.824,6.783-1.109,9.751-0.839c5.704,0.513,9.794,3.01,11.834,7.226
		c0,0,1.563,3.166,1.7,6.381l-0.439-1.833c-0.227-0.942-0.564-1.851-1.016-2.688c-1.557-2.922-4.388-5.049-8.194-6.14
		c-3.719-1.067-8.276-1.141-13.176-0.206c-5.054,0.965-10.35,2.981-15.317,5.84c-1.746,1.001-3.41,2.08-4.993,3.234v9.891
		c1.752-1.821,3.704-3.54,5.858-5.135c3.168-2.36,6.611-4.345,10.219-5.901c7.254-3.125,14.354-4.104,19.476-2.688
		c4.74,1.315,7.569,4.582,8.174,9.457c0,0,0.323,3.112-0.297,6.526h6.564V84.3C258.73,84.006,252.999,83.193,245.45,83.65z"/>
	<g>
		<path fill="#0060A9" d="M220.222,74.22c-3.184,0.544-6.483,1.568-9.722,3.009v1.246c4.336-2.256,8.689-3.72,12.833-4.639
			C222.32,73.908,221.284,74.033,220.222,74.22z"/>
		<path fill="#0060A9" d="M210.5,60.5v13.333c0,0,5.625-1.94,11.596-1.032l-2.377,0.09c-2.925,0.109-6.073,0.785-9.219,1.952v1.48
			c4.897-2.249,10.656-3.389,15.655-3.041c12.521-2.117,22.494,0.466,22.494,0.466c-1.944-0.326-9.603-1.401-19.045,0.023
			c0.894,0.207,2.311,0.632,3.748,1.47l-1.167-0.416c-1.141-0.407-2.386-0.696-3.71-0.87c-5.683,0.969-11.939,2.866-17.974,6.376
			v0.736c9.09-4.965,18.87-6.824,25.962-4.272c11.357-0.817,19.717,1.493,19.717,1.493c-1.909-0.32-8.694-1.28-17.433-0.466
			c0.489,0.273,2.617,1.517,3.521,2.788l-0.521-0.419c-1.182-0.949-2.564-1.699-4.106-2.259c-8.244,0.896-18.064,3.405-27.14,9.452
			v0.684c0.78-0.507,1.574-0.998,2.377-1.467c6.486-3.795,13.333-6.113,19.281-6.523c4.67-0.323,8.677,0.526,11.773,2.473
			c9.399-0.189,16.118,1.624,16.563,1.746V60.5H210.5z"/>
	</g>
	<path fill="#0060A9" d="M210.5,81.983v2.727c7.999-4.757,16.26-6.899,23.52-7.69C227.36,75.966,218.808,77.686,210.5,81.983z"/>
</g>
</svg>
