<?xml version="1.0" encoding="utf-8"?>
<!-- Generator: Adobe Illustrator 16.2.1, SVG Export Plug-In . SVG Version: 6.00 Build 0)  -->
<!DOCTYPE svg PUBLIC "-//W3C//DTD SVG 1.1//EN" "http://www.w3.org/Graphics/SVG/1.1/DTD/svg11.dtd">
<svg version="1.1" id="svg2367" xmlns:svg="http://www.w3.org/2000/svg"
	 xmlns="http://www.w3.org/2000/svg" xmlns:xlink="http://www.w3.org/1999/xlink" x="0px" y="0px" width="50px" height="50px"
	 viewBox="393.414 106.031 50 50" enable-background="new 393.414 106.031 50 50" xml:space="preserve">
<path id="path3422" fill="#FFFFFF" d="M402.485,117.644l40.928,0.002v26.016h-50v-26.016l3.68-0.002
	c-0.231-0.683-0.547-1.702-0.566-2.428c-0.018-0.669,0.192-0.858,0.336-0.995c0.236-0.217,0.459-0.296,0.297-0.991
	c-0.174-0.743-0.369-0.98-0.43-1.418c-0.062-0.438-0.204-1.112,0.39-1.607c0.592-0.497,1.188,0.197,1.401,0.585
	c0.215,0.387,0.342,1.046,0.409,1.438c0.103,0.597,0.541,0.965,1.137,1.112c0.509,0.125,0.883,0.306,1.054,1.291
	c0.164,0.943,0.435,0.969,0.583,1.309C401.822,116.208,402.168,116.978,402.485,117.644"/>
<path id="path3458" fill="#00655A" d="M399.165,122.401c0.021,0.076,0.094,0.115,0.087,0.206c0.033,0.021,0.057,0.027,0.055,0.078
	c-0.02,0.035-0.01,0.079,0.009,0.098c0.035,0.009,0.005,0.046,0.021,0.071l0.041,0.025c0.022-0.023,0.028,0.021,0.035,0.017
	c-0.03,0.113,0.054,0.185,0.101,0.224c0.025,0.03,0.015,0.132,0.118,0.338c2.329,4.896,5.333,11.28,11.93,13.972
	c0,0.023-2.26,1.459-4.396,2.812c-1.919,1.216-3.741,2.37-3.741,2.37h-8.912v-2.37v-21.573h3.427l-0.064,0.141
	c0.039,0.103,0.052,0.275,0.113,0.354l0.057,0.245c0.03,0.108,0.093,0.418,0.124,0.453c0.007,0.051,0.227,0.465,0.239,0.516
	c0.018,0.037,0.104,0.419,0.14,0.438c0.019-0.015,0.05,0.141,0.055,0.161c-0.015,0.049,0.061,0.225,0.097,0.259
	c0.013,0.04-0.009,0.132,0.036,0.116c0,0-0.015,0.081,0.019,0.093c0.047,0.066,0.069,0.06,0.049,0.132
	c0,0.053,0.071,0.132,0.087,0.173c0.014,0.047,0.062,0.201,0.062,0.201c0.045,0.051,0.048,0.142,0.113,0.215L399.165,122.401z"/>
<path id="path3462" fill="#0D605F" d="M408.771,124.443c-0.044,0.023-0.093,0.115-0.099,0.157c-0.006,0.041,0.03,0.171,0.091,0.301
	c0.066,0.136,0.111,0.282,0.216,0.389c0.025,0.087,0.11,0.143,0.133,0.24c0.094,0.141,0.176,0.294,0.269,0.441
	c0.059,0.044,0.073,0.127,0.128,0.181c0.132,0.152,0.239,0.326,0.372,0.479c0.029,0.064,0.062,0.108,0.123,0.147
	c0.009,0.118,0.142,0.19,0.202,0.292c0.031,0.074,0.14,0.106,0.133,0.194c0.086,0.078,0.101,0.194,0.204,0.247l0.011,0.042
	c0.062,0.095,0.151,0.173,0.224,0.264c0.04,0.002,0.057,0.041,0.066,0.076c0.19,0.215,0.407,0.418,0.587,0.645
	c0.037,0.019,0.046,0.1,0.104,0.096c0.09,0.117,0.2,0.22,0.323,0.308l-0.001,0.009c0.082,0.069,0.146,0.148,0.23,0.21
	c0.021,0.056,0.108,0.062,0.113,0.125c0.115,0.111,0.241,0.245,0.386,0.308c-0.015,0.093,0.151,0.051,0.104,0.148
	c0.036,0.009,0.076,0.03,0.094,0.06c-0.04,0.081-0.118-0.009-0.169,0.037c-0.08,0.025-0.122-0.066-0.202-0.048
	c-0.069-0.008-0.138-0.03-0.195-0.067c-0.246-0.069-0.398-0.189-0.617-0.331c-0.062-0.085-0.165-0.122-0.227-0.208
	c0.008-0.005,0.01-0.016,0.006-0.025c-0.066,0.019-0.091-0.074-0.139-0.086c-0.035-0.014,0-0.064-0.053-0.058
	c-0.121-0.132-0.243-0.266-0.366-0.391c0-0.016-0.015-0.027-0.026-0.023c-0.03-0.025-0.036-0.066-0.083-0.078l0.001-0.03
	c-0.051,0.01-0.061-0.044-0.091-0.076c-0.043-0.037-0.108-0.083-0.13-0.144c-0.038,0.01-0.03-0.056-0.069-0.051
	c-0.027-0.023-0.025-0.076-0.077-0.088c-0.004-0.027-0.034-0.021-0.048-0.042c-0.003-0.051-0.054-0.051-0.071-0.099
	c-0.289-0.356-0.623-0.706-0.897-1.085c-0.173-0.238-0.365-0.455-0.513-0.71c-0.081-0.104-0.172-0.201-0.246-0.308
	c0.003-0.062-0.061-0.078-0.069-0.137c-0.117-0.149-0.223-0.318-0.35-0.46c-0.127-0.227-0.354-0.416-0.489-0.634
	c-0.157-0.196-0.189-0.446-0.413-0.582c-0.033-0.021-0.146-0.044-0.181-0.062c-0.04,0.014,0.001,0.108-0.02,0.144
	c-0.043,0.185,0.051,0.303,0.122,0.474c0.066,0.071,0.072,0.213,0.125,0.296c0.121,0.178,0.23,0.379,0.366,0.539
	c-0.003,0.034,0.04,0.049,0.035,0.078c0.131,0.208,0.307,0.382,0.419,0.595c0.136,0.164,0.236,0.352,0.378,0.514
	c0.104,0.164,0.249,0.305,0.348,0.469c0.146,0.197,0.731,0.81,0.84,1.031c0.027,0.065,0.157,0.15,0.183,0.218
	c-0.06,0-0.036,0.021-0.076-0.009c-0.025,0.007-0.113-0.059-0.118-0.042c-0.021,0-0.168-0.072-0.225-0.088
	c-0.08,0.051-0.275-0.192-0.344-0.178c-0.14-0.005-0.223-0.121-0.322-0.197c-0.015-0.056-0.08-0.071-0.12-0.113
	c-0.252-0.328-0.66-0.761-0.934-1.077c-0.074-0.152-0.233-0.243-0.286-0.412c-0.032-0.051-0.072-0.076-0.118-0.12
	c-0.026-0.066-0.105-0.095-0.121-0.171c-0.109-0.102-0.154-0.25-0.255-0.363c-0.05-0.009-0.034-0.066-0.063-0.095
	c-0.127-0.185-0.271-0.354-0.41-0.534c-0.163-0.272-0.378-0.511-0.528-0.793c-0.098-0.118-0.181-0.238-0.269-0.363
	c-0.155-0.183-0.265-0.409-0.41-0.599c-0.027-0.091-0.104-0.139-0.152-0.213c-0.145-0.208-0.25-0.448-0.402-0.649
	c-0.017-0.077-0.077-0.132-0.112-0.199c-0.108-0.211-0.252-0.409-0.356-0.617c-0.278-0.47-0.518-0.933-0.789-1.406
	c-0.014-0.037-0.07-0.058-0.055-0.108c-0.078-0.128-0.168-0.243-0.226-0.377l-0.157-0.28c-0.129-0.238-0.215-0.691-0.215-0.691
	h39.487l0.012,21.573v2.368h-35.596c0,0,2.746-0.897,6.46-2.368c2.389-0.948,5.175-2.132,7.894-3.469
	c7.095-3.494,4.088-3.665,2.416-3.624c-4.179,0.102-8.907-2.185-11.571-5.168c0,0-0.01-0.012-0.114-0.098
	c-0.047-0.036-0.066-0.053-0.119-0.092c-0.071-0.049-0.131-0.106-0.276-0.208c-0.193-0.213-0.351-0.343-0.533-0.56
	c-0.135-0.093-0.155-0.299-0.316-0.363c-0.084-0.098-0.121-0.225-0.235-0.294c0.004-0.13-0.109-0.074-0.163-0.199
	c-0.152-0.212-0.191-0.318-0.21-0.34c-0.061-0.152-0.18-0.125-0.224-0.279c-0.044-0.108-0.209-0.227-0.257-0.331
	c-0.13-0.108-0.322-0.391-0.329-0.397c-0.005-0.155-0.137-0.266-0.163-0.28c-0.071-0.022-0.138-0.15-0.189-0.102"/>
<g id="g3947">
	<path id="path3426" fill="#00655A" d="M398.209,112.582l0.175,0.095c0.024-0.007-0.098,0.022-0.08,0.004
		c0.046,0.042,0.07,0.109,0.103,0.165c0.044,0.064,0.05,0.131,0.091,0.203c0.008,0.097,0.102,0.176,0.103,0.272
		c0.081,0.157,0.138,0.352,0.17,0.525c0.045,0.074,0.038,0.171,0.08,0.261c0.042,0.142,0.061,0.301,0.153,0.433
		c0.027,0.132,0.084,0.252,0.147,0.363c0.112,0.448,0.299,0.872,0.438,1.315c0.042,0.042,0.039,0.106,0.069,0.157
		c0.178,0.287,0.198,0.644,0.372,0.935c0.135,0.31,0.242,0.647,0.385,0.955l-0.001,0.002c0.034-0.002,0.009,0.051,0.044,0.061
		c-0.016,0.039,0.025,0.062,0.037,0.093c0.041,0.097,0.096,0.222,0.131,0.326c-0.007,0.062,0.057,0.113,0.077,0.176
		c0.192,0.402,0.364,0.827,0.562,1.229c0.249,0.551,0.49,1.112,0.812,1.614c0.259,0.495,0.51,0.992,0.8,1.464
		c0.123,0.28,0.266,0.553,0.471,0.781c0.015,0.072,0.067,0.128,0.106,0.19l0.092,0.183c-0.035,0.066,0.068,0.122-0.003,0.178
		c-0.001,0.021,0.009,0.051,0.027,0.067c-0.014,0.041-0.024,0.064-0.05,0.106c-0.018-0.017-0.035,0.032-0.052,0.029
		c0.01,0.042-0.007,0.042-0.056,0.067c-0.02,0.002-0.029,0.025-0.053,0.021c-0.075-0.071-0.062-0.002-0.126-0.073
		c-0.03,0.009-0.11-0.074-0.134-0.079c-0.11-0.037-0.131-0.139-0.2-0.164c-0.21-0.192-0.283-0.483-0.459-0.701
		c-0.138-0.22-0.27-0.43-0.398-0.656c-0.12-0.24-0.298-0.46-0.387-0.72c-0.169-0.296-0.361-0.601-0.469-0.901
		c-0.074-0.079-0.091-0.196-0.159-0.28c-0.07-0.208-0.165-0.406-0.276-0.601c-0.037-0.204-0.167-0.354-0.239-0.539
		c-0.164-0.171-0.148-0.451-0.295-0.641c-0.092-0.122-0.117-0.301-0.184-0.446c-0.204-0.271-0.235-0.643-0.415-0.932
		c-0.106-0.262-0.213-0.502-0.286-0.777c-0.092-0.15-0.072-0.323-0.148-0.479c-0.003-0.09-0.057-0.181-0.084-0.262
		c-0.068-0.132-0.06-0.261-0.146-0.379c-0.045-0.222-0.128-0.397-0.19-0.617c-0.073-0.271-0.198-0.504-0.238-0.786
		c-0.112-0.306-0.167-0.61-0.297-0.902c-0.035-0.162-0.126-0.345-0.167-0.499c-0.025-0.032,0.046-0.218,0.014-0.245
		c-0.01-0.113-0.081-0.15,0.022-0.236c0.009-0.034-0.008-0.06,0.028-0.081C398.132,112.794,398.108,112.517,398.209,112.582"/>
	<path id="path3430" fill="#00655A" d="M398.885,120.046c-0.009-0.037-0.051-0.143-0.061-0.169c-0.02-0.011-0.015-0.041-0.028-0.064
		c-0.034-0.129-0.112-0.231-0.141-0.367l-0.193-0.654c-0.026-0.003-0.006-0.042-0.03-0.033c-0.082-0.247-0.153-0.499-0.233-0.763
		c-0.051-0.199-0.138-0.412-0.199-0.613c-0.021-0.229-0.136-0.462-0.193-0.688c-0.066-0.174-0.102-0.352-0.139-0.529
		c-0.094-0.392-0.178-0.689-0.208-1.085c0.036-0.044,0.012-0.167,0.066-0.189c0.109-0.039,0.022-0.227,0.121-0.22
		c0.239,0.113,0.174,0.566,0.342,0.744c0.077,0.22,0.115,0.465,0.229,0.673c0,0.056,0.11,0.044,0.123,0.098
		c0.118,0.314,0.142,0.705,0.224,1.026c0.089,0.208,0.14,0.433,0.2,0.65c0.077,0.24,0.189,0.455,0.296,0.677
		c-0.008,0.023-0.005,0.054,0.014,0.069c0.035,0.128,0.04,0.273,0.127,0.38c0.035,0.1,0.076,0.181,0.113,0.264
		c0.01,0.044,0.022,0.092,0.057,0.122l0.003,0.047h-0.005c0.072,0.113,0.071,0.224,0.152,0.33c-0.017,0.017,0,0.042,0.003,0.067
		c0.03,0.005,0.026,0.053,0.031,0.081c0.02,0.027,0.02,0.078,0.059,0.097c0.08,0.164,0.077,0.368,0.178,0.519
		c0.037,0.102,0.088,0.189,0.118,0.293c0.098,0.174,0.174,0.363,0.258,0.553c0.073,0.162,0.146,0.321,0.185,0.486
		c0.014,0.034,0.041,0.064,0.043,0.104c0.088,0.152,0.142,0.321,0.213,0.481c0.028,0.021,0.021,0.076,0.042,0.108
		c0.079,0.127,0.139,0.25,0.201,0.384c0.042,0.017,0.028,0.074,0.051,0.098c0.064,0.062,0.06,0.171,0.126,0.235
		c0.061,0.144,0.14,0.266,0.2,0.409c0.094,0.194,0.194,0.394,0.307,0.578c0.042,0.116,0.114,0.196,0.161,0.306
		c0.11,0.154,0.17,0.335,0.266,0.497c0.187,0.321,0.436,0.619,0.538,0.989c0.046,0.042,0.05,0.103,0.081,0.15
		c0.146,0.277,0.315,0.546,0.49,0.808c0.04,0.22,0.24,0.345,0.318,0.553c0.041,0.073,0.096,0.136,0.148,0.205
		c0.121,0.231,0.292,0.433,0.444,0.644c0.106,0.104,0.164,0.242,0.26,0.355c0.022,0.028,0.014,0.065,0.012,0.098
		c-0.029,0.06-0.083,0.122-0.154,0.113l-0.016-0.012c-0.09,0.039-0.193,0.007-0.281,0.017c-0.014-0.021-0.038-0.012-0.047,0.002
		c-0.128-0.023-0.161-0.162-0.258-0.231c-0.133-0.132-0.323-0.245-0.377-0.435c-0.087-0.157-0.126-0.319-0.244-0.453
		c-0.119-0.183-0.224-0.365-0.35-0.544c-0.035-0.113-0.154-0.161-0.172-0.286c-0.032-0.047-0.051-0.098-0.095-0.13
		c-0.042-0.071-0.056-0.15-0.106-0.213c-0.004-0.062-0.066-0.092-0.092-0.146c-0.013-0.118-0.116-0.203-0.163-0.31
		c-0.078-0.109-0.105-0.236-0.187-0.338c-0.03-0.056-0.045-0.12-0.098-0.159c-0.061-0.12-0.124-0.252-0.21-0.35
		c0.006-0.032-0.038-0.027-0.038-0.056c-0.079-0.115-0.102-0.271-0.199-0.37c-0.05-0.09-0.062-0.18-0.129-0.256
		c-0.026-0.153-0.147-0.238-0.179-0.389c-0.101-0.183-0.229-0.345-0.313-0.537c-0.049-0.066-0.095-0.143-0.141-0.212
		c-0.012-0.188-0.161-0.299-0.222-0.468c-0.098-0.235-0.186-0.49-0.342-0.693c-0.063-0.152-0.119-0.319-0.205-0.46
		c-0.047-0.106-0.058-0.236-0.146-0.322c-0.099-0.296-0.276-0.573-0.367-0.874c-0.034-0.051-0.05-0.113-0.093-0.154
		C398.984,120.386,398.934,120.234,398.885,120.046"/>
	<path id="path3434" fill="#00655A" d="M400.487,115.576c0.029,0.046,0.12,0.058,0.139,0.13c0.091,0.034,0.099,0.147,0.148,0.213
		c0.077,0.268,0.148,0.531,0.32,0.753l0.057,0.216c0.031,0.029,0.036,0.083,0.062,0.122c0.074,0.139,0.082,0.289,0.192,0.409
		c0.013,0.054,0.076,0.076,0.076,0.137c0.034,0.046,0.037,0.113,0.094,0.155c0.091,0.291,0.183,0.546,0.342,0.805
		c0.088,0.127,0.098,0.301,0.209,0.416c0.047,0.093,0.113,0.176,0.151,0.277c0.036,0.028,0.033,0.095,0.06,0.13
		c0.123,0.252,0.306,0.46,0.407,0.726c0.062,0.061,0.101,0.146,0.091,0.231c0.072,0.104,0.117,0.225,0.203,0.321
		c0.058,0.142,0.173,0.24,0.213,0.391c0.039,0.033,0.075,0.065,0.066,0.113c0.045,0.084,0.107,0.13,0.161,0.204
		c-0.005,0.025,0.014,0.039,0.026,0.049c0.027,0.122,0.096,0.212,0.132,0.328c0.042,0.108,0.133,0.183,0.179,0.286
		c0.12,0.106,0.157,0.273,0.258,0.398c0.133,0.22,0.251,0.446,0.336,0.688c0.111,0.123,0.226,0.267,0.28,0.438
		c0.078,0.097,0.146,0.199,0.238,0.287c0.06,0.21,0.213,0.351,0.292,0.555c0.169,0.198,0.236,0.455,0.431,0.624
		c0.063,0.098,0.128,0.192,0.183,0.296c0.043,0.054,0.07,0.142,0.126,0.199c0.119,0.132,0.248,0.271,0.348,0.426
		c0.082,0.115,0.163,0.235,0.22,0.372l0.047,0.155c0.006,0.08,0.021,0.187-0.035,0.247c-0.027-0.007-0.052,0-0.078-0.014
		c0.005,0,0-0.007,0-0.015c-0.046,0.008-0.047-0.034-0.078-0.053c-0.04-0.002-0.017-0.061-0.059-0.061
		c-0.081-0.102-0.209-0.117-0.279-0.23c-0.094-0.042-0.121-0.137-0.219-0.179c-0.138-0.189-0.25-0.397-0.412-0.563
		c-0.065-0.121-0.175-0.216-0.234-0.343c-0.146-0.243-0.333-0.462-0.484-0.698c-0.242-0.259-0.413-0.564-0.587-0.867
		c-0.051-0.037-0.091-0.081-0.098-0.146c-0.311-0.431-0.565-0.899-0.83-1.353c-0.195-0.304-0.363-0.604-0.532-0.911
		c-0.013-0.005-0.019-0.017-0.012-0.025c-0.132-0.192-0.247-0.396-0.338-0.6c-0.117-0.194-0.201-0.396-0.322-0.583
		c-0.135-0.286-0.285-0.582-0.437-0.862c-0.021-0.104-0.103-0.18-0.132-0.279c-0.167-0.241-0.302-0.527-0.392-0.801
		c-0.02-0.021-0.037-0.041-0.035-0.076c-0.125-0.164-0.163-0.402-0.275-0.587c-0.145-0.284-0.209-0.546-0.311-0.784
		c-0.016-0.183-0.202-0.333-0.121-0.534c-0.042-0.051-0.014-0.125-0.04-0.171c-0.013-0.074-0.03-0.144-0.007-0.201
		c-0.008-0.054,0.037-0.088,0.073-0.116C400.357,115.578,400.421,115.59,400.487,115.576"/>
	<path id="path3438" fill="#00655A" d="M400.21,114.434c-0.047-0.066-0.056-0.178-0.149-0.215c-0.018-0.069-0.107-0.081-0.137-0.127
		c-0.065,0.014-0.131,0-0.19,0.046c-0.036,0.028-0.082,0.062-0.073,0.113c-0.022,0.061-0.008,0.13,0.007,0.201
		c0.025,0.051-0.001,0.123,0.041,0.174c0.087,0.102,0.151,0.076,0.234,0.178c0.04,0,0.067,0.113,0.107,0.116
		c0.029,0.019,0.03,0.06,0.077,0.053c0,0.005,0.005,0.012,0,0.014c0.029,0.014,0.052,0.005,0.08,0.014
		c0.055-0.062,0.064-0.173,0.061-0.254L400.21,114.434z"/>
	<path id="path3442" fill="#00655A" d="M397.658,111.83c0.042,0.071-0.043,0.203,0.041,0.266c0.013,0.072,0.124,0.449,0.208,0.465
		c0.067-0.007,0.12-0.271,0.184-0.31c0.116-0.074,0.031-0.13,0.028-0.157c0.029-0.058,0.122-0.189,0.116-0.264
		c-0.021-0.051-0.091-0.062-0.128-0.115c-0.077-0.109-0.133-0.297-0.208-0.402c-0.042-0.005-0.012-0.061-0.052-0.067
		c-0.027-0.021-0.025-0.062-0.071-0.061c-0.001-0.004-0.005-0.012,0-0.012c-0.027-0.016-0.051-0.011-0.077-0.021
		c-0.061,0.056-0.081,0.164-0.083,0.245L397.658,111.83z"/>
	<path id="path3446" fill="#00655A" d="M405.091,130.441c-0.09,0.093,0.133,0.463,0.225,0.426c0.062,0.042,0.135-0.014,0.189,0
		c0.037-0.053,0.093-0.086,0.107-0.162c0.007-0.046,0.017-0.102-0.024-0.134c-0.022-0.058-0.082-0.1-0.142-0.144
		c-0.05-0.016-0.083-0.09-0.147-0.097C405.221,130.319,405.184,130.346,405.091,130.441"/>
	<path id="path3450" fill="#00655A" d="M406.961,127.569c0.053,0.062,0.07,0.174,0.166,0.201c0.025,0.069,0.116,0.072,0.148,0.116
		c0.063-0.019,0.129-0.012,0.185-0.061c0.033-0.032,0.078-0.069,0.062-0.12c0.02-0.062-0.004-0.13-0.023-0.201
		c-0.027-0.046-0.008-0.122-0.055-0.166c-0.096-0.098-0.211-0.116-0.3-0.211c-0.043,0.005-0.025-0.056-0.064-0.056
		c-0.03-0.014-0.036-0.056-0.081-0.046c-0.001-0.005-0.008-0.012-0.001-0.014c-0.029-0.012-0.053,0-0.08-0.005
		c-0.051,0.064-0.051,0.176-0.042,0.257L406.961,127.569z"/>
	<path id="path3454" fill="#00655A" d="M404.769,129.514c0.18,0.11,0.311,0.555,0.202,0.557c-0.079,0.005-0.386-0.039-0.49-0.073
		c-0.08-0.025-0.489-0.507-0.518-0.613c-0.057-0.203,0.264-0.233,0.418-0.22C404.487,129.176,404.554,129.379,404.769,129.514"/>
	<path id="path3466" fill="#FFFFFF" d="M408.029,123.765c0.045,0.051,0.082,0.298,0.158,0.321c0.02,0.056,0.128,0.083,0.156,0.118
		c0.051-0.017,0.103-0.01,0.147-0.051c0.026-0.023,0.062-0.056,0.051-0.095c0.014-0.049-0.003-0.104-0.02-0.16
		c-0.023-0.037-0.128-0.271-0.166-0.308c-0.077-0.073-0.205-0.115-0.278-0.189c-0.033,0.005-0.018-0.046-0.051-0.046
		c-0.023-0.01-0.028-0.044-0.063-0.035c-0.001-0.004-0.006-0.011-0.001-0.011c-0.023-0.01-0.043,0-0.063-0.008
		c-0.04,0.054-0.04,0.144-0.033,0.209L408.029,123.765z"/>
</g>
<path id="path3470" fill="#E60012" d="M407.165,140.243c-1.919,1.217-3.742,2.368-3.742,2.368h-8.912v-2.368H407.165z"/>
<path id="path3474" fill="#E60012" d="M442.296,140.243l0.003,2.368h-35.597c0,0,2.745-0.897,6.459-2.368H442.296z"/>
<path id="path3478" fill="#021E26" d="M394.511,140.103v0.141h12.654l0.261-0.141H394.511z"/>
<path id="path3482" fill="#021E26" d="M413.509,140.103c-0.113,0.044-0.235,0.095-0.348,0.141h29.135v-0.141H413.509z"/>
</svg>
