<?xml version="1.0" encoding="utf-8"?>
<!-- Generator: Adobe Illustrator 16.2.1, SVG Export Plug-In . SVG Version: 6.00 Build 0)  -->
<!DOCTYPE svg PUBLIC "-//W3C//DTD SVG 1.1//EN" "http://www.w3.org/Graphics/SVG/1.1/DTD/svg11.dtd">
<svg version="1.1"
	 id="svg2" inkscape:output_extension="org.inkscape.output.svg.inkscape" sodipodi:version="0.32" xmlns:inkscape="http://www.inkscape.org/namespaces/inkscape" xmlns:dc="http://purl.org/dc/elements/1.1/" xmlns:cc="http://creativecommons.org/ns#" xmlns:sodipodi="http://sodipodi.sourceforge.net/DTD/sodipodi-0.dtd" xmlns:rdf="http://www.w3.org/1999/02/22-rdf-syntax-ns#" inkscape:version="0.48.1 r9760" sodipodi:docname="Cyprus_Airways_Logo.svg" xmlns:svg="http://www.w3.org/2000/svg"
	 xmlns="http://www.w3.org/2000/svg" xmlns:xlink="http://www.w3.org/1999/xlink" x="0px" y="0px" width="50px" height="50px"
	 viewBox="0.5 30.5 50 50" enable-background="new 0.5 30.5 50 50" xml:space="preserve">
<defs>
	
	
		<inkscape:perspective  inkscape:persp3d-origin="500 : 82.916667 : 1" inkscape:vp_z="1000 : 124.375 : 1" inkscape:vp_y="0 : 1000 : 0" sodipodi:type="inkscape:persp3d" inkscape:vp_x="0 : 124.375 : 1" id="perspective50">
		</inkscape:perspective>
</defs>
<sodipodi:namedview  inkscape:window-maximized="0" inkscape:current-layer="svg2" inkscape:window-height="752" inkscape:window-x="0" inkscape:zoom="2.1560065" guidetolerance="10.0" borderopacity="1.0" gridtolerance="10.0" showgrid="false" objecttolerance="10.0" pagecolor="#ffffff" bordercolor="#666666" inkscape:cy="48.976829" inkscape:cx="152.39583" inkscape:window-width="1280" inkscape:pageopacity="0.0" inkscape:pageshadow="2" inkscape:window-y="0" fit-margin-left="0" fit-margin-top="0" id="base" fit-margin-bottom="0" fit-margin-right="0">
	</sodipodi:namedview>
<g id="g4076" transform="matrix(1.7492715,0,0,1.7492715,1127.135,-61.378003)">
	<g id="g3095" transform="matrix(2.8414036,0,0,-2.8414036,-191.03253,68.167981)">
		<path id="path3097" inkscape:connector-curvature="0" fill="#E5C800" d="M-157.007,0.385l-0.61,0.611h3.893l-0.608-0.611H-157.007
			z"/>
	</g>
	<g id="g3099" transform="matrix(2.8414036,0,0,-2.8414036,-184.09297,74.801522)">
		<path id="path3101" inkscape:connector-curvature="0" fill="#E5C800" d="M-158.636,1.941l-0.61,0.61h2.303l-0.607-0.61H-158.636z"
			/>
	</g>
	<g id="g3103" transform="matrix(2.8414036,0,0,-2.8414036,-139.69774,49.386843)">
		<path id="path3105" inkscape:connector-curvature="0" fill="#E5C800" d="M-169.051-4.022h-0.61v-3.155h-4.551l-3.291-3.292h0.862
			l2.681,2.681h4.034l-1.205-1.206h-2.312l-0.61-0.608h3.173l1.828,1.826v3.142h0.946l0.323,0.61H-169.051z"/>
	</g>
	<g id="g3107" transform="matrix(2.8414036,0,0,-2.8414036,-142.19676,34.801918)">
		<path id="path3109" inkscape:connector-curvature="0" fill="#E5C800" d="M-168.466-7.444h-3.999l0.61-0.61h2.781l-1.895-1.895
			h-4.648l0.61-0.61h3.43h0.862l2.357,2.358l1.499-0.843l0.293,0.532L-168.466-7.444z"/>
	</g>
</g>
</svg>
