<?xml version="1.0" encoding="utf-8"?>
<!-- Generator: Adobe Illustrator 16.2.1, SVG Export Plug-In . SVG Version: 6.00 Build 0)  -->
<!DOCTYPE svg PUBLIC "-//W3C//DTD SVG 1.1//EN" "http://www.w3.org/Graphics/SVG/1.1/DTD/svg11.dtd">
<svg version="1.1" id="svg2" xmlns:svg="http://www.w3.org/2000/svg"
	 xmlns="http://www.w3.org/2000/svg" xmlns:xlink="http://www.w3.org/1999/xlink" x="0px" y="0px" width="50px" height="50px"
	 viewBox="399.792 141.465 50 50" enable-background="new 399.792 141.465 50 50" xml:space="preserve">
<g id="layer1" transform="translate(-80.45782,-233.5702)">
	<g id="g2836" transform="translate(35.377956,35.394501)">
		<g id="path2411">
			<path fill="#00ADEF" d="M480.013,346.947l-35.142,35.305h35.646l14.354-35.305H480.013"/>
		</g>
		<g id="path2415">
			<path fill="#FFFFFF" d="M470.749,358.756c0-0.86,0.698-1.556,1.556-1.556c0.859,0,1.555,0.695,1.555,1.556
				s-0.696,1.556-1.555,1.556C471.447,360.311,470.749,359.616,470.749,358.756z"/>
			<path fill="#FFFFFF" d="M472.304,360.733c-1.091,0-1.979-0.887-1.979-1.978s0.888-1.978,1.979-1.978s1.978,0.887,1.978,1.978
				S473.395,360.733,472.304,360.733z M472.304,357.622c-0.625,0-1.133,0.508-1.133,1.134c0,0.625,0.508,1.134,1.133,1.134
				c0.624,0,1.132-0.509,1.132-1.134C473.437,358.13,472.928,357.622,472.304,357.622z"/>
		</g>
		<g id="path2419">
			<path fill="#FFFFFF" d="M473.897,357.901c0-0.859,0.697-1.555,1.555-1.555c0.86,0,1.557,0.695,1.557,1.555
				c0,0.858-0.697,1.554-1.557,1.554C474.594,359.455,473.897,358.759,473.897,357.901z"/>
		</g>
		<g id="path2423">
			<path fill="#FFFFFF" d="M477.097,358.756c0-0.86,0.697-1.556,1.555-1.556c0.86,0,1.557,0.695,1.557,1.556
				s-0.697,1.556-1.557,1.556C477.794,360.311,477.097,359.616,477.097,358.756z"/>
			<path fill="#FFFFFF" d="M478.652,360.733c-1.09,0-1.978-0.887-1.978-1.978s0.887-1.978,1.978-1.978
				c1.091,0,1.979,0.887,1.979,1.978S479.743,360.733,478.652,360.733z M478.652,357.622c-0.624,0-1.132,0.508-1.132,1.134
				c0,0.625,0.508,1.134,1.132,1.134c0.625,0,1.134-0.509,1.134-1.134C479.786,358.13,479.278,357.622,478.652,357.622z"/>
		</g>
		<g id="path2427">
			<path fill="#FFFFFF" d="M475.451,375.479c-2.16,0-5.048-2.028-5.048-4.481c0-3.415,0-6.119,0-6.119s-0.526,1.539-1.913,1.587
				c-1.385,0.045-2.287-1.337-2.293-2.318c-0.003-0.671,0.465-2.178,2.224-2.826c0.233-0.086,1.572-0.208,1.908-0.178
				c0.333,0.029,1.213-0.368,1.244-0.368c0.03,0-0.015-1.289,0-1.302c0.014-0.019,1.438-0.006,1.438-0.006v1.402l0.426,0.075
				c0,0,0.809-0.928,1.357-0.928c0.016,0,0-1.495,0-1.495h0.658l0.659,0.003c0,0-0.014,1.492,0,1.492c0.549,0,1.357,0.93,1.357,0.93
				l0.426-0.076v-1.403c0,0,1.423-0.01,1.438,0.006c0.016,0.015-0.03,1.302,0,1.302c0.031,0,0.91,0.4,1.245,0.369
				c0.334-0.031,1.675,0.091,1.906,0.177c1.759,0.651,2.181,2.057,2.224,2.826c0.062,1.122-0.907,2.363-2.292,2.318
				c-1.386-0.048-1.799-1.587-1.799-1.587s0,2.704,0,6.119C480.615,373.451,477.613,375.479,475.451,375.479z"/>
			<path fill="#FFFFFF" d="M475.451,375.901c-2.463,0-5.471-2.263-5.471-4.903v-4.732c-0.354,0.329-0.838,0.6-1.477,0.622
				c0,0-0.001,0-0.002,0c-1.709,0-2.72-1.594-2.728-2.737c-0.004-0.796,0.513-2.493,2.5-3.226c0.297-0.109,1.483-0.208,1.918-0.208
				c0.07,0,0.129,0.002,0.173,0.006c0.084,0,0.289-0.044,0.795-0.24c-0.001-0.147-0.005-0.336-0.008-0.507
				c-0.012-0.657-0.013-0.682,0.137-0.815c0.086-0.119,0.13-0.119,0.854-0.119l1.289,0.007v1.29
				c0.247-0.237,0.591-0.519,0.946-0.656c0-0.43-0.008-1.155-0.008-1.155l-0.004-0.426l2.171,0.004l-0.003,0.425
				c0,0-0.008,0.724-0.007,1.152c0.354,0.14,0.698,0.42,0.945,0.658v-1.293l1.233-0.005c0.793,0,0.793,0,0.926,0.133
				c0.134,0.128,0.134,0.153,0.121,0.807c-0.003,0.171-0.007,0.356-0.008,0.501c0.504,0.197,0.709,0.242,0.793,0.242
				c0.047-0.005,0.109-0.008,0.183-0.008c0.433,0,1.616,0.1,1.911,0.208c2.2,0.814,2.469,2.655,2.498,3.199
				c0.038,0.681-0.24,1.405-0.744,1.938c-0.504,0.533-1.179,0.828-1.899,0.828c-0.634-0.021-1.105-0.264-1.448-0.568v4.677
				C481.038,373.842,477.701,375.901,475.451,375.901z M470.004,364.742l0.822,0.137v6.119c0,2.146,2.587,4.06,4.625,4.06
				c1.873,0,4.741-1.819,4.741-4.06v-6.119l0.831-0.111c0.014,0.051,0.354,1.24,1.405,1.276c0.001,0,0.003,0,0.003,0
				c0.542,0,0.997-0.201,1.34-0.563c0.347-0.367,0.539-0.855,0.513-1.309c-0.023-0.416-0.231-1.819-1.948-2.453
				c-0.166-0.054-1.163-0.156-1.617-0.156l-0.183,0.008c-0.318,0-0.785-0.173-1.241-0.357h-0.178l-0.088-0.143
				c-0.141-0.144-0.141-0.144-0.123-1.104c0-0.027,0.001-0.054,0.001-0.079c-0.064,0-0.133,0-0.204,0h-0.388v1.338l-1.01,0.18
				l-0.158-0.18c-0.323-0.372-0.836-0.786-1.039-0.786h-0.176l-0.124-0.125c-0.125-0.127-0.137-0.139-0.126-1.369l-0.464-0.001
				c0.011,1.23,0,1.242-0.126,1.37l-0.124,0.125h-0.177c-0.202,0-0.715,0.414-1.039,0.784l-0.157,0.18l-1.011-0.18v-1.336
				l-0.443-0.001c-0.051,0-0.101,0-0.148,0c0.001,0.023,0.001,0.049,0.001,0.072c0.018,0.969,0.018,0.969-0.123,1.111l-0.124,0.127
				h-0.102c-0.528,0.211-0.976,0.369-1.283,0.369l-0.174-0.006c-0.456,0-1.458,0.104-1.629,0.159
				c-1.602,0.59-1.947,1.951-1.944,2.425c0.005,0.757,0.728,1.899,1.806,1.899C469.558,366.007,469.999,364.754,470.004,364.742z"/>
		</g>
		<g id="path2431">
			<path fill="#ED1C24" d="M479.903,361.36c0,0-0.179-0.306-0.892-0.306l-0.001-1.457h-0.715l-0.005,1.507
				c0,0-0.701,0.04-1.279,0.481c-0.732,0.558-1.37,1.623-1.361,2.452c0.013,1.041,0,4.749,0,4.749s0.587,0.4,0.987,0.906
				c0.4,0.508,0.614,1.12,0.614,1.12h0.403l-0.003-5.841c0,0-0.092-0.59,0.16-1.226c0.102-0.259,0.154-0.766,0.596-1.354
				c0.24-0.319,0.578-0.716,1.317-0.935C479.85,361.421,479.903,361.36,479.903,361.36"/>
		</g>
		<g id="path2435">
			<path fill="#ED1C24" d="M474.135,360.616c0,0,0.279-0.361,0.967-0.438l0.001-1.456h0.715l0.004,1.456
				c0.418,0.066,1.057,0.419,1.273,0.975c0,0-0.337,0.194-0.53,0.337c-0.661,0.492-0.789,1.176-1.133,1.816
				c-0.359-0.618-0.681-1.407-1.169-1.816c-0.215-0.166-0.509-0.328-0.536-0.337C473.667,361.132,474.135,360.616,474.135,360.616"
				/>
		</g>
		<g id="path2439">
			<path fill="#ED1C24" d="M470.955,361.36c0,0,0.208-0.308,0.923-0.308v-1.458h0.721v1.507c0,0,0.674,0.077,1.279,0.48
				c0.64,0.426,1.361,1.49,1.361,2.454c0,1.04,0,4.748,0,4.748s-0.587,0.399-0.987,0.906c-0.4,0.508-0.614,1.123-0.614,1.123
				l-0.354-0.268v-5.588c0,0,0.185-0.489-0.137-1.211c-0.133-0.298-0.322-0.941-0.668-1.354c-0.258-0.307-0.506-0.716-1.32-0.943
				C471.044,361.417,470.955,361.36,470.955,361.36"/>
		</g>
		<g id="path2443">
			<path fill="#ED1C24" d="M474.252,357.901c0-0.663,0.537-1.201,1.2-1.201c0.663,0,1.201,0.538,1.201,1.201
				c0,0.662-0.538,1.2-1.201,1.2C474.789,359.101,474.252,358.563,474.252,357.901"/>
		</g>
		<g id="path2447">
			<path fill="#ED1C24" d="M477.452,358.756c0-0.663,0.539-1.201,1.2-1.201c0.663,0,1.201,0.538,1.201,1.201
				c0,0.662-0.539,1.199-1.201,1.199C477.991,359.955,477.452,359.418,477.452,358.756"/>
		</g>
		<g id="path2451">
			<path fill="#ED1C24" d="M472.918,370.343c0,0-1.275-0.92-1.92-0.92c-0.045,0,0.038-4.214,0-4.454
				c-0.134-0.854-0.595-1.267-0.595-1.267s-0.569-0.417-0.707-0.369c-0.096,0.029,0.289,0.303,0.311,0.949
				c0.012,0.368-0.307,1.479-1.707,1.57c-1.402,0.092-1.863-1.593-1.447-2.562c0.357-0.829,1.158-2.194,3.733-1.75
				c1.475,0.252,2.277,2.148,2.332,2.97c0.045,0.672,0,4.347,0,4.572C472.918,369.312,472.918,370.343,472.918,370.343"/>
		</g>
		<g id="path2455">
			<path fill="#ED1C24" d="M478.022,370.343c0,0,1.345-0.92,1.991-0.92c0.045,0,0-3.921,0-4.587c0-0.748,0.525-1.134,0.525-1.134
				s0.569-0.44,0.708-0.394c0.095,0.03-0.29,0.304-0.312,0.951c-0.012,0.368,0.307,1.479,1.708,1.569
				c1.402,0.092,1.896-1.608,1.447-2.559c-0.396-0.835-1.158-2.196-3.734-1.754c-1.475,0.253-2.317,2.096-2.333,3.18
				c-0.008,0.672,0.017,4.087,0,4.366C478.009,369.29,478.022,370.343,478.022,370.343"/>
		</g>
		<g id="path2459">
			<path fill="#ED1C24" d="M470.998,369.824c0,0,1.601,0.24,2.587,1.468c0,0,0.854-1.709,1.866-2.134
				c1.014,0.425,1.867,2.134,1.867,2.134c0.987-1.228,2.695-1.479,2.695-1.479c0.003,0.08,0-0.081,0,0
				c0,2.49-2.019,4.841-4.509,4.841c-2.488,0-4.506-2.02-4.506-4.51C470.998,370.032,470.983,369.933,470.998,369.824"/>
		</g>
		<g id="path2463">
			<path fill="#ED1C24" d="M471.105,358.756c0-0.663,0.536-1.201,1.2-1.201c0.663,0,1.2,0.538,1.2,1.201
				c0,0.662-0.537,1.199-1.2,1.199C471.641,359.955,471.105,359.418,471.105,358.756"/>
		</g>
	</g>
</g>
</svg>
