<?xml version="1.0" encoding="utf-8"?>
<!-- Generator: Adobe Illustrator 16.2.1, SVG Export Plug-In . SVG Version: 6.00 Build 0)  -->
<!DOCTYPE svg PUBLIC "-//W3C//DTD SVG 1.1//EN" "http://www.w3.org/Graphics/SVG/1.1/DTD/svg11.dtd">
<svg version="1.1"
	 id="svg4475" xmlns:inkscape="http://www.inkscape.org/namespaces/inkscape" xmlns:dc="http://purl.org/dc/elements/1.1/" xmlns:cc="http://creativecommons.org/ns#" xmlns:sodipodi="http://sodipodi.sourceforge.net/DTD/sodipodi-0.dtd" xmlns:rdf="http://www.w3.org/1999/02/22-rdf-syntax-ns#" inkscape:version="0.48.1 " sodipodi:docname="Condor_Flugdienst_logo.svg" xmlns:svg="http://www.w3.org/2000/svg"
	 xmlns="http://www.w3.org/2000/svg" xmlns:xlink="http://www.w3.org/1999/xlink" x="0px" y="0px" width="50px" height="50px"
	 viewBox="0.5 30.5 50 50" enable-background="new 0.5 30.5 50 50" xml:space="preserve">
<sodipodi:namedview  inkscape:window-maximized="1" inkscape:current-layer="svg4475" inkscape:window-height="716" inkscape:window-x="-8" inkscape:zoom="0.91633535" guidetolerance="10" borderopacity="1" gridtolerance="10" showgrid="false" objecttolerance="10" pagecolor="#ffffff" bordercolor="#666666" inkscape:cy="116.88686" inkscape:cx="482.08254" inkscape:window-width="1366" inkscape:pageopacity="0" inkscape:pageshadow="2" inkscape:window-y="-8" fit-margin-left="0" fit-margin-top="0" id="namedview13" fit-margin-bottom="0" fit-margin-right="0">
	</sodipodi:namedview>
<path id="path4246" inkscape:connector-curvature="0" fill="#FFCB00" d="M50.5,55.546c0-13.809-10.741-25.046-25-25.046
	c-14.26,0-25.002,11.237-25,25.046c0,13.805,10.743,24.954,25,24.954C39.759,80.5,50.5,69.351,50.5,55.546 M25.5,78.292
	c-12.929,0-22.674-10.143-22.674-22.701S12.568,32.792,25.5,32.792c12.929,0,22.671,10.24,22.668,22.799
	C48.171,68.149,38.431,78.287,25.5,78.292"/>
<path id="path4250" inkscape:connector-curvature="0" fill="#FFCB00" d="M40.671,70.944v-3.955L23.848,52.206
	c-0.664-0.592-0.448-0.917,0.185-0.917c0.733,0,12.595,0,12.595,0l-6.346,4.961l2.335,2.176l13.238-9.971l-19.559-0.002
	c-2.624,0-3.589,0.055-4.209,0.235c-0.594,0.173-1.371,0.539-1.785,1.419c-0.306,0.649-0.32,1.812,0.113,2.532
	c0.601,1.001,1.613,1.885,4.217,4.542c-2.577-1.532-9.446-5.889-9.446-5.889s1.524,0,1.909,0c0-0.708-0.002-2.84-0.002-2.84H4.962
	L40.671,70.944z"/>
</svg>
