<?xml version="1.0" encoding="utf-8"?>
<!-- Generator: Adobe Illustrator 16.2.1, SVG Export Plug-In . SVG Version: 6.00 Build 0)  -->
<!DOCTYPE svg PUBLIC "-//W3C//DTD SVG 1.1//EN" "http://www.w3.org/Graphics/SVG/1.1/DTD/svg11.dtd">
<svg version="1.1" id="Layer_1" xmlns="http://www.w3.org/2000/svg" xmlns:xlink="http://www.w3.org/1999/xlink" x="0px" y="0px"
	 width="50px" height="50px" viewBox="0 0 50 50" enable-background="new 0 0 50 50" xml:space="preserve">
<g id="yYJI74.tif">
	<g>
		<path fill-rule="evenodd" clip-rule="evenodd" fill="#1D1B20" d="M20.936,23.002c0.284-0.17,0.578-0.289,0.923-0.242
			c0.128,0.018,0.188,0.053,0.194,0.195c0.031,0.648,0.07,1.299,0.114,1.949c0.01,0.15-0.028,0.203-0.19,0.203
			c-0.948-0.01-1.897-0.008-2.845-0.002c-0.16,0.002-0.22-0.029-0.155-0.199c0.059-0.154-0.024-0.27-0.157-0.342
			c-0.127-0.07-0.25-0.041-0.349,0.061c-0.111,0.117-0.111,0.246-0.033,0.381c0.044,0.076,0.091,0.152,0.137,0.227
			c-0.016,0.014-0.031,0.029-0.047,0.043c-0.092-0.035-0.183-0.074-0.275-0.105c-0.22-0.078-0.408-0.031-0.555,0.154
			c-0.141,0.18-0.134,0.367-0.004,0.545c0.138,0.188,0.324,0.252,0.548,0.166c0.108-0.041,0.213-0.09,0.381-0.162
			c-0.111,0.273-0.42,0.494-0.098,0.75c0.104,0.082,0.219,0.08,0.329,0c0.209-0.15,0.134-0.34,0.049-0.535c1.155,0,2.287,0,3.398,0
			c-0.643,0.639-1.289,1.279-1.931,1.916c-0.073-0.115-0.135-0.342-0.395-0.285c-0.297,0.064-0.327,0.43-0.057,0.576
			c0.121,0.066,0.282,0.008,0.393,0.145c-0.334,0.09-0.623,0.211-0.667,0.613c-0.009,0.084-0.14,0.158-0.217,0.234
			c-0.754,0.754-1.526,1.494-2.261,2.268c-0.827,0.873-1.836,1.262-3.019,1.262c-2.907,0-5.814,0-8.721,0.002
			c-0.138,0-0.277,0.01-0.412,0.035c-0.33,0.064-0.556,0.359-0.534,0.682c0.022,0.32,0.284,0.588,0.612,0.619
			c0.088,0.008,0.178,0,0.267,0.002c2.897,0.002,5.794,0.002,8.691,0.008c0.542,0.002,1.085,0.035,1.629,0.049
			c0.107,0.004,0.175,0.045,0.25,0.121c2.657,2.672,5.317,5.34,7.973,8.008c0.497,0.5,1.028,0.957,1.633,1.318
			c0.39,0.232,0.791,0.445,1.256,0.479c0.085,0.008,0.156,0.016,0.158,0.129c0.003,0.121-0.079,0.115-0.158,0.117
			c-0.217,0-0.435,0-0.652,0c-4.598,0-9.195-0.01-13.793,0.008c-1.118,0.006-2.06-0.389-2.831-1.141
			c-1.974-1.926-3.912-3.889-5.863-5.838c-1.176-1.174-2.347-2.352-3.528-3.52c-0.16-0.158-0.173-0.242-0.005-0.41
			c5.066-5.059,10.126-10.121,15.188-15.183c0.83-0.831,1.825-1.239,3.005-1.236c4.598,0.009,9.196,0.003,13.794,0.004
			c0.068,0,0.138,0.003,0.207-0.001c0.092-0.006,0.125,0.035,0.118,0.123c-0.005,0.06-0.002,0.106-0.086,0.122
			c-1.068,0.197-1.819,0.909-2.56,1.618c-0.763,0.732-1.501,1.49-2.242,2.244c-0.136,0.141-0.226,0.18-0.413,0.06
			c-0.932-0.593-1.877-1.166-2.817-1.745c-0.196-0.121-0.372-0.256-0.44-0.495c-0.089-0.313,0.005-0.555,0.284-0.692
			c0.277-0.139,0.593-0.066,0.752,0.196c0.101,0.167,0.166,0.356,0.237,0.538c0.227,0.582,0.651,0.775,1.251,0.569
			c0.004-0.042-0.009-0.073-0.047-0.098c-0.418-0.282-0.735-0.646-0.961-1.101c-0.189-0.377-0.676-0.609-1.066-0.554
			c-0.394,0.056-0.737,0.395-0.832,0.823c-0.089,0.398,0.109,0.826,0.513,1.074c0.94,0.581,1.879,1.164,2.828,1.729
			c0.216,0.129,0.209,0.205,0.039,0.369c-0.405,0.389-0.791,0.799-1.186,1.203c-0.111-0.09-0.069-0.184-0.084-0.264
			c-0.042-0.209-0.143-0.418-0.361-0.41c-0.279,0.01-0.308-0.145-0.348-0.34c-0.015-0.076-0.062-0.199-0.103-0.203
			c-0.466-0.045-0.617-0.609-1.081-0.646c-0.066-0.007-0.105-0.029-0.139-0.088c-0.13-0.235-0.322-0.369-0.604-0.34
			c-0.086,0.009-0.115-0.064-0.158-0.114c-0.066-0.077-0.154-0.167-0.241-0.159c-0.336,0.03-0.651-0.211-1.002-0.052
			c-0.127,0.059-0.312-0.053-0.427,0.126c-0.02,0.03-0.147,0.01-0.174-0.1c-0.026-0.104-0.075-0.203-0.156-0.281
			c-0.07-0.064-0.149-0.1-0.243-0.073c-0.127,0.036-0.084,0.139-0.071,0.221c0.025,0.165,0.02,0.314-0.135,0.421
			c-0.096,0.065-0.088,0.139-0.053,0.252c0.095,0.304-0.028,0.496-0.348,0.498c-0.264,0-0.322,0.203-0.434,0.344
			c-0.104,0.133,0.086,0.164,0.142,0.24c0.036,0.051,0.076,0.08,0.153,0.008c0.343-0.32,0.645-0.355,0.946-0.139
			c0.298,0.217,0.341,0.527,0.136,0.98c-0.021,0.02-0.042,0.037-0.062,0.057c-0.047,0.021-0.087,0.059-0.033,0.1
			c0.051,0.039,0.07-0.029,0.101-0.055C20.917,23.027,20.928,23.018,20.936,23.002z M20.137,22.705
			c-0.179,0.074-0.304,0.217-0.412,0.365c-0.226,0.309-0.494,0.459-0.898,0.26c0.245,0.393,0.603,0.4,0.868,0.043
			c0.159-0.213,0.302-0.434,0.487-0.625c0.045-0.039,0.092-0.078,0.16-0.137C20.216,22.598,20.172,22.645,20.137,22.705z"/>
		<path fill-rule="evenodd" clip-rule="evenodd" fill="#E22126" d="M25.422,26.508c-0.002,0.094-0.087,0.125-0.14,0.178
			c-0.752,0.76-0.556,1.809,0.422,2.248c0.025,0.012,0.05,0.021,0.116,0.053c-0.544,0.293-1.062,0.574-1.579,0.855
			c-0.071,0.039-0.1,0.037-0.156-0.041c-0.21-0.289-0.398-0.348-0.609-0.213c-0.222,0.139-0.257,0.332-0.08,0.635
			c0.097,0.164-0.048,0.131-0.104,0.164c-0.324,0.195-0.423,0.527-0.244,0.832c0.177,0.299,0.524,0.365,0.849,0.162
			c0.041-0.025,0.082-0.055,0.125-0.082c0.15,0.369,0.392,0.496,0.649,0.336c0.191-0.117,0.291-0.311,0.175-0.502
			c-0.124-0.207-0.029-0.256,0.126-0.342c0.927-0.5,1.852-1.012,2.777-1.52c0.086-0.047,0.168-0.1,0.28-0.166
			c-0.48-0.307-0.876-0.662-1.131-1.152c-0.247-0.473-0.304-0.951-0.049-1.443c0.073-0.143,0.168-0.223,0.324-0.193
			c0.167,0.029,0.083,0.176,0.094,0.264c0.104,0.865,0.791,1.539,1.566,1.539c0.391,0,0.708-0.152,0.972-0.428
			c0.102-0.107,0.194-0.223,0.325-0.373c0.118,0.602,0.229,1.162,0.338,1.725c0.026,0.135,0.042,0.273,0.078,0.406
			c0.055,0.199,0.096,0.35-0.189,0.438c-0.228,0.068-0.256,0.312-0.181,0.529c0.075,0.213,0.33,0.281,0.662,0.174
			c0.01,0.254,0.071,0.49,0.314,0.619c0.147,0.074,0.3,0.092,0.459,0.043c0.339-0.105,0.47-0.43,0.342-0.846
			c0.027-0.061,0.082-0.035,0.126-0.041c0.277-0.039,0.442-0.236,0.405-0.482c-0.039-0.252-0.256-0.41-0.524-0.332
			c-0.181,0.053-0.182-0.014-0.208-0.148c-0.234-1.176-0.476-2.348-0.726-3.572c-0.237,0.301-0.51,0.473-0.854,0.529
			c-0.52,0.088-1.085-0.252-1.222-0.758c-0.082-0.303-0.041-0.57,0.211-0.809c0.717-0.674,0.759-1.578,0.112-2.309
			c-0.112-0.127-0.082-0.186,0.019-0.285c1.352-1.347,2.693-2.704,4.051-4.043c0.756-0.746,1.717-0.972,2.745-0.972
			c2.928-0.001,5.854,0,8.78-0.001c0.496,0,0.831-0.242,0.901-0.643c0.089-0.515-0.285-0.922-0.853-0.924
			c-1.048-0.001-2.096,0-3.144,0c-1.819,0-3.64-0.031-5.458,0.011c-1.258,0.03-2.257-0.393-3.139-1.296
			c-2.271-2.328-4.59-4.61-6.892-6.908c-0.632-0.631-1.313-1.199-2.138-1.567c-0.177-0.079-0.364-0.138-0.548-0.207
			c0.078-0.069,0.175-0.033,0.261-0.033c4.627-0.002,9.254,0.01,13.882-0.01c1.166-0.005,2.125,0.42,2.923,1.213
			c2.883,2.863,5.75,5.742,8.623,8.616c0.202,0.202,0.396,0.417,0.61,0.603c0.155,0.136,0.122,0.213-0.007,0.341
			c-1.764,1.757-3.523,3.519-5.284,5.278c-3.233,3.234-6.473,6.465-9.697,9.709c-0.891,0.896-1.923,1.352-3.199,1.346
			c-4.459-0.02-8.918-0.006-13.378-0.008c-0.073,0-0.153,0.025-0.24-0.047c1.375-0.488,2.284-1.561,3.267-2.535
			c1.138-1.127,2.269-2.258,3.392-3.4c0.203-0.207,0.41-0.273,0.678-0.213L25.422,26.508z M22.572,30.098
			c0.177,0.188,0.343,0.266,0.577,0.135C22.988,30.051,22.816,30.027,22.572,30.098z M30.653,30.826
			c-0.204,0.143-0.346,0.264-0.284,0.508C30.594,31.25,30.683,31.098,30.653,30.826z M23.736,32.139
			c0.182-0.115,0.259-0.256,0.24-0.447c-0.003-0.037-0.036-0.088-0.075-0.062c-0.167,0.105-0.217,0.266-0.19,0.453
			C23.712,32.092,23.719,32.1,23.736,32.139z M32.2,30.551c0.151,0.301,0.211,0.346,0.458,0.334
			C32.576,30.688,32.467,30.545,32.2,30.551z"/>
		<path fill-rule="evenodd" clip-rule="evenodd" fill="#E22126" d="M26.942,24.535c0.586-0.58,1.132-1.115,1.674-1.658
			c0.105-0.105,0.146-0.021,0.208,0.043c0.284,0.305,0.361,0.662,0.206,1.041c-0.151,0.369-0.433,0.615-0.846,0.652
			C27.792,24.65,27.403,24.572,26.942,24.535z"/>
		<path fill-rule="evenodd" clip-rule="evenodd" fill="#1D1B20" d="M18.575,25.232c0.006,0.025,0.025,0.064,0.017,0.07
			c-0.027,0.021-0.052,0.004-0.064-0.027C18.543,25.262,18.559,25.246,18.575,25.232z"/>
		<path fill-rule="evenodd" clip-rule="evenodd" fill="#E22126" d="M25.427,26.51c-0.022-0.02-0.019-0.035,0.01-0.041
			c0.009-0.002,0.019,0.004,0.028,0.008c-0.013,0.01-0.028,0.02-0.042,0.031L25.427,26.51z"/>
	</g>
</g>
</svg>
