<?xml version="1.0" encoding="utf-8"?>
<!-- Generator: Adobe Illustrator 16.2.1, SVG Export Plug-In . SVG Version: 6.00 Build 0)  -->
<!DOCTYPE svg PUBLIC "-//W3C//DTD SVG 1.1//EN" "http://www.w3.org/Graphics/SVG/1.1/DTD/svg11.dtd">
<svg version="1.1" id="svg3857" xmlns:svg="http://www.w3.org/2000/svg"
	 xmlns="http://www.w3.org/2000/svg" xmlns:xlink="http://www.w3.org/1999/xlink" x="0px" y="0px" width="50px" height="50px"
	 viewBox="244.134 139.785 50 50" enable-background="new 244.134 139.785 50 50" xml:space="preserve">
<g id="layer1" transform="translate(-120.65196,-336.64853)">
	<path id="path124-4" fill="#F5821F" d="M364.786,501.432c0-13.805,11.195-24.998,25.001-24.998
		c13.806,0,24.999,11.193,24.999,24.998c0,13.809-11.193,25.002-24.999,25.002C375.981,526.434,364.786,515.24,364.786,501.432"/>
	<path id="path124" d="M381.459,498.282c0,0,0.062,0.492,0.857,0.492c0.378,0,1.292-0.37,1.843-0.798
		c-0.186-0.308-1.65-0.938-1.961-0.921c-1.107,0.062-1.738,1.473-1.291,1.473C381.216,498.528,381.459,498.282,381.459,498.282z
		 M378.635,498.097c0.308,1.23,0.125,3.012,0.368,3.07c0.247,0.063,0.247-0.856,0.491-0.552c0.248,0.308,0.458,0.77,0.615,0.615
		c0.366-0.37-0.308-2.948-0.182-3.193c0.119-0.244,0.06-1.229,0.06-1.229l-0.737-0.304
		C379.003,496.504,378.516,497.623,378.635,498.097z M399.26,479.319c-1.6-0.804-3.56-1.89-8.04-1.904
		c-11.356-0.039-22.559,8.776-22.653,24.001c-0.047,8.59,7.554,19.84,18.232,19.947c6.138,0.059,19.953-4.422,19.886-20.44
		c-0.041-10.742-7.792-15.222-12.642-15.222c-3.563,0-6.334,2.165-8.042,5.156c0.428,0.92,2.516-0.247,4.787-2.578
		c0.518,0.085,0.615,0.552,0.368,0.981c-0.243,0.43-0.92,6.323-4.541,7.061c0.003,0.012,0.124,0.183,0.124,0.183
		s3.193-0.678,3.805-4.357c1.919,0.076,10.594,2.192,14.609,7.305c1.839,11.6-7.062,18.719-13.812,20.686
		c-0.737-1.293-0.737-2.393-0.861-3.073c-0.122-0.674-1.349-8.218-6.198-10.003c-0.983,0.245-2.271,3.501-3.434,3.683
		c0,0-0.373-0.367,1.837-2.518c0.312-0.301,0.246-0.737,0.246-0.737h-0.552c0,0,0.122-0.672,0.37-0.859
		c0.243-0.186,0.794-0.979,0.243-1.653c-0.121-0.153,0.431-0.863,0.308-2.152c-0.039-0.426,0.172-1.17,0.244-1.593
		c0.187-1.045-0.672-1.167-1.164-0.615c-0.49,0.552-0.859,2.208-0.981,2.516c-0.122,0.31-0.859,1.782-0.923,2.148
		c-0.06,0.37-0.794,4.175-0.918,4.482c-0.124,0.31-0.675,0.31-0.675,0.31s-0.433-0.617-0.433-0.984c0-0.308,0.598-0.988,0.737-1.411
		c0.248-0.737,0-0.985-0.304-0.552c-0.308,0.426-0.49,1.715-1.229,2.022c-0.304,0.129-1.217-0.564-1.351-0.244
		c-0.075,0.173-0.554,1.226-0.124,1.042c0.205-0.085-0.062-0.368,0.677-0.672c0.226-0.097,0.919,1.593,0.612,2.022
		c-0.306,0.43-0.674,0.124-0.674,0.124s0.122,1.228,0,1.413c-0.12,0.182-0.677,0.489-1.045,0.304
		c-0.368-0.182-1.226-1.717-1.289-2.944c-0.02-0.43,2.028-8.284,1.781-9.761c-0.05-0.301,0.308,1.289,0.371,0.308
		c0.029-0.553-0.495-1.597-0.923-2.334c-0.223-0.382-0.552-0.611-0.552-0.611v-0.615c0,0-1.172-0.449-0.368-5.954
		c0.065-0.433,0.617-0.054,0.735-0.428c3.255-10.376,11.479-12.521,17.127-12.521C393.612,478.275,396.068,478.214,399.26,479.319
		L399.26,479.319z M389.748,476.924c-14.49,0-23.449,12.767-23.449,24.492c0,10.187,7.179,23.567,23.509,23.382
		c10.862-0.12,21.729-8.962,21.729-23.382c0-12.277-8.534-20.256-17.248-20.256c-8.719,0-13.75,7.979-13.75,9.204
		c0,0,0.13,0.047,0.552-0.184c1.659-2.456,5.156-8.086,12.953-8.042c4.912,0.027,15.836,3.315,15.836,19.277
		c0,13.194-10.929,21.851-22.404,21.788c-14.12-0.076-20.073-14.425-20.073-21.788C367.403,498.223,368.692,478.519,389.748,476.924
		L389.748,476.924z M364.786,501.432c0-13.805,11.195-24.998,25.001-24.998c13.806,0,24.999,11.193,24.999,24.998
		c0,13.809-11.193,25.002-24.999,25.002C375.981,526.434,364.786,515.24,364.786,501.432"/>
</g>
</svg>
