<?xml version="1.0" encoding="utf-8"?>
<!-- Generator: Adobe Illustrator 16.2.1, SVG Export Plug-In . SVG Version: 6.00 Build 0)  -->
<!DOCTYPE svg PUBLIC "-//W3C//DTD SVG 1.1//EN" "http://www.w3.org/Graphics/SVG/1.1/DTD/svg11.dtd">
<svg version="1.1"
	 id="svg3570" xmlns:svg="http://www.w3.org/2000/svg" xmlns:rdf="http://www.w3.org/1999/02/22-rdf-syntax-ns#" xmlns:cc="http://creativecommons.org/ns#" xmlns:dc="http://purl.org/dc/elements/1.1/" xmlns:sodipodi="http://sodipodi.sourceforge.net/DTD/sodipodi-0.dtd" xmlns:inkscape="http://www.inkscape.org/namespaces/inkscape" inkscape:version="0.48.1 " sodipodi:docname="Danish Air Transport logo.svg"
	 xmlns="http://www.w3.org/2000/svg" xmlns:xlink="http://www.w3.org/1999/xlink" x="0px" y="0px" width="50px" height="50px"
	 viewBox="36.613 45.949 50 50" enable-background="new 36.613 45.949 50 50" xml:space="preserve">
<sodipodi:namedview  id="namedview3572" borderopacity="1" inkscape:cx="512.66044" inkscape:cy="-188.53616" fit-margin-top="0" objecttolerance="10" gridtolerance="10" fit-margin-left="0" showgrid="false" inkscape:zoom="0.55306566" bordercolor="#666666" guidetolerance="10" pagecolor="#ffffff" inkscape:window-width="1600" inkscape:window-maximized="1" inkscape:window-x="-8" inkscape:pageopacity="0" fit-margin-right="0" inkscape:pageshadow="2" inkscape:window-y="-8" inkscape:current-layer="g3578" inkscape:window-height="838" fit-margin-bottom="0">
	</sodipodi:namedview>
<g id="g3578" transform="matrix(1.25,0,0,-1.25,-358.11687,501.57928)" inkscape:label="DAT_logo" inkscape:groupmode="layer">
	<g id="g3588" transform="matrix(0.5,0,0,0.5,334.97787,376.90405)">
		<g id="path3590">
			<path inkscape:connector-curvature="0" fill="#FFFFFF" d="M41.612-64.8c0-22.092-17.909-39.998-40.001-39.998
				S-38.388-86.892-38.388-64.8s17.907,40,39.999,40S41.612-42.708,41.612-64.8"/>
		</g>
	</g>
	<g id="g3592" transform="matrix(0.5,0,0,0.5,334.97787,376.90405)">
		<g id="path3594">
			<path fill="#FFFFFF" d="M1.611-26.144c-21.315,0-38.655-17.341-38.655-38.656c0-21.314,17.341-38.655,38.655-38.655
				S40.268-86.114,40.268-64.8C40.268-43.484,22.926-26.144,1.611-26.144z"/>
		</g>
	</g>
	<g id="g3596" transform="matrix(0.5,0,0,0.5,317.84972,377.61765)">
		<g id="path3598">
			<path inkscape:connector-curvature="0" fill="#F9A91F" d="M47.456-65.041c5.373-4.234,9.902-8.347,13.182-11.919
				c3.035,1.278,9.15,3.627,14.443,4.473c1.22,7.7,0.135,15.598-3.078,22.666L47.456-65.041"/>
		</g>
	</g>
	<g id="g3600" transform="matrix(0.5,0,0,0.5,326.42782,358.7046)">
		<g id="path3602">
			<path inkscape:connector-curvature="0" fill="#FCD213" d="M44.529-58.59c2.486,2.122,4.744,4.594,6.703,7.402
				c1.963,2.797,3.508,5.767,4.662,8.83L47.94-48.89L44.529-58.59"/>
		</g>
	</g>
	<g id="g3604" transform="matrix(0.5,0,0,0.5,322.03722,365.0708)">
		<g id="path3606">
			<path inkscape:connector-curvature="0" fill="#1F4FA2" d="M46.028-60.763c-4.475,1.855-9.891,4.703-15.707,8.305l-5.884-28.242
				c7.723-0.606,15.518,1.077,22.329,4.85C45.759-70.612,45.879-64.052,46.028-60.763"/>
		</g>
	</g>
	<g id="g3608" transform="matrix(0.5,0,0,0.5,304.02257,354.4922)">
		<g id="path3610">
			<path inkscape:connector-curvature="0" fill="#D22027" d="M52.173-57.153c-1.101,1.358,0.016,28.391,0.311,35.391
				C38.955-11.493,30.232-0.517,30.839,2.41c-12.28-17.909-7.873-42.431,9.969-54.9c3.991-2.792,8.319-4.756,12.764-5.909
				C52.941-57.918,52.443-57.486,52.173-57.153"/>
		</g>
	</g>
	<g id="g3612" transform="matrix(0.5,0,0,0.5,309.59482,383.51465)">
		<g id="path3614">
			<path inkscape:connector-curvature="0" fill="#009A68" d="M50.274-67.054c6.449,2.672,31.495,12.978,33.148,12.4
				c0.404-0.134,0.994-0.469,1.652-0.884c-2.605,3.788-5.926,7.186-9.915,9.981c-17.844,12.481-42.377,8.25-55.009-9.419
				C22.689-53.42,36.006-57.838,50.274-67.054"/>
		</g>
	</g>
</g>
</svg>
