<?xml version="1.0" encoding="utf-8"?>
<!-- Generator: Adobe Illustrator 16.2.1, SVG Export Plug-In . SVG Version: 6.00 Build 0)  -->
<!DOCTYPE svg PUBLIC "-//W3C//DTD SVG 1.1//EN" "http://www.w3.org/Graphics/SVG/1.1/DTD/svg11.dtd">
<svg version="1.1" id="svg2367" xmlns:svg="http://www.w3.org/2000/svg"
	 xmlns="http://www.w3.org/2000/svg" xmlns:xlink="http://www.w3.org/1999/xlink" x="0px" y="0px" width="50px" height="50px"
	 viewBox="0 0 50 50" enable-background="new 0 0 50 50" xml:space="preserve">
<g id="g3095" transform="translate(164.6284,684.798)">
	<path id="path3097" fill="#FFFFFF" d="M-132.6-660.632c0.353,0.485,0.639,1.054,1.139,1.295c0.356,0.242,1.216,0.483,1.572,0.242
		c1.425-0.812,2.354-1.378,3.641-2.268c0.072-0.08,0-0.322-0.073-0.485c-0.07-0.08-0.214-0.162-0.356-0.162
		c-0.144,0-0.714-0.077-0.856,0.003c-0.786,0.565-1.105,0.8-1.962,1.286c-0.286,0.162-0.67,0.362-0.957,0.282
		c-0.572-0.164-1.078-0.193-1.577-0.438c-0.144-0.08-0.287-0.243-0.43-0.243c-0.07,0-0.344,0.137-0.414,0.219
		C-132.874-660.741-132.674-660.796-132.6-660.632"/>
</g>
<g id="g3099" transform="translate(171.8792,687.9592)">
	<path id="path3101" fill="#FFFFFF" d="M-133.443-666.588c0-0.136-0.292-0.423-0.225-0.557c0.141-0.135,0.445-0.371,0.679-0.413
		c0.187-0.033,0.356-0.179,0.491-0.046c0.203,0.205,0.138,0.542,0.07,0.745c0,0.135-0.135,0.271-0.272,0.336
		c-0.2,0.067-0.338,0.204-0.538,0.204C-133.375-666.319-133.375-666.523-133.443-666.588"/>
</g>
<g id="g3103" transform="translate(175.5563,688.3331)">
	<path id="path3105" fill="#FFFFFF" d="M-133.869-667.293c0.881-0.541,1.621-1.216,2.502-1.689c0.673-0.404,1.349-0.676,2.024-0.945
		c0.473-0.135,1.016-0.203,1.421-0.405c0.066,0,0.456-0.565,0.389-0.565c-0.271-0.136-0.8-0.13-1.072-0.13
		c-0.605,0.067-1.438,0.356-1.979,0.56c-0.745,0.27-1.5,0.716-2.176,1.12c-0.878,0.473-1.581,1.112-2.325,1.718
		c-0.068,0.069-0.203,0.203-0.136,0.203c0.338,0.135,0.743,0.135,1.081,0.135C-134.072-667.293-133.939-667.226-133.869-667.293"/>
</g>
<g id="g3107" transform="translate(166.9279,682.8024)">
	<path id="path3109" fill="#003772" d="M-132.868-656.873c-3.144,1.711-26.104,10.416-29.165,6.353
		c-2.701-3.59,2.34-8.403,3.55-9.475l-1.575-0.011c-1.143,0.877-6.839,5.458-6.869,9.509c-0.03,4.501,9.042,6.186,35.05-5.996
		L-132.868-656.873z"/>
</g>
<g id="g3111" transform="translate(175.3705,688.4467)">
	<path id="path3113" fill="#003772" d="M-133.848-667.507c-0.408-0.055-0.819-0.107-1.232-0.164
		c0.886-0.604,1.897-1.284,2.242-1.528c0.396-0.278,1.12-0.733,1.971-1.11c0.854-0.381,1.83-0.676,2.727-0.674
		c0.194,0,0.453,0.027,0.575,0.04c0.122,0.019,0.184,0.083-0.271,0.116C-129.67-670.654-132.918-668.214-133.848-667.507
		 M-136.808-666.872c0,0-0.418-0.597-0.064-0.842c0.354-0.242,0.641-0.43,0.641-0.43s0.017,0.467,0.24,0.756L-136.808-666.872z
		 M-137.969-664.712c0,0-0.548,0.371-1.907,1.261c-1.23,0.809-2.122,0.123-2.122,0.123l-1.539-1.191c0,0,0.126-0.084,0.223-0.142
		c0.076-0.048,0.116-0.028,0.263,0.03c0.114,0.05,1.425,0.574,1.546,0.62c0.141,0.047,0.287,0.079,0.436,0.079
		c0.229,0,0.437-0.066,0.626-0.156c0.194-0.089,0.384-0.205,0.614-0.347c0.089-0.055,0.237-0.149,0.442-0.287
		c0.316-0.209,1.062-0.686,1.062-0.686C-137.607-665.137-137.439-665.067-137.969-664.712 M-125.532-663.875
		c-0.127-0.058-2.064-1.017-3.551-1.753c0.203-0.381,0.134-0.568-0.164-0.72c-0.324-0.16-0.778-0.099-1.208,0.04
		c-0.21-0.103-0.332-0.165-0.332-0.165s1.302-0.792,2.667-1.79c1.659-1.211,2.521-2.348,1.845-2.747
		c-2.159-1.27-5.69,0.543-6.814,1.424c-0.277,0.196-0.615,0.432-1.27,0.883c-0.249,0.152-0.436,0.272-0.601,0.322
		c-0.609-0.854-1.475-0.112-1.492-0.098c-0.064,0.047-0.131,0.098-0.198,0.148c-0.396,0.302-0.576,0.322-0.856,0.322
		c-0.276,0-4.127-0.515-4.789-0.62c-0.663-0.109-1.178-0.215-1.456-0.046c-0.216,0.137-0.773,0.505-1.005,0.662
		c-0.091,0.056-0.082,0.077-0.018,0.103l5.918,2.277c-0.6,0.405-1.045,0.698-1.196,0.794c-0.609,0.371-0.89,0.487-1.292,0.379
		c-0.411-0.106-1.648-0.499-1.818-0.556c-0.104-0.033-0.128-0.021-0.198,0.026c-0.046,0.031-0.716,0.478-0.716,0.478l1.097,1.31
		l-1.472-0.17c-0.101-0.012-0.243,0.035-0.319,0.102l-0.28,0.244c-0.076,0.066-0.058,0.146,0.04,0.176l5.275,1.574
		c0.097,0.029,0.253,0.021,0.348-0.015l0.295-0.116c0.098-0.039,0.122-0.131,0.055-0.212l-0.654-0.788
		c1.953-0.793,3.311-1.275,3.311-1.275c0.491-0.238,1.143-0.243,2.915-0.272c0.757-0.011,1.344-0.074,3.47,0.287
		c2.389,0.402,3.11,0.584,3.218,0.591c0.091,0.006,0.252,0.008,0.502-0.115c0.309-0.15,0.628-0.332,0.786-0.422
		C-125.333-663.705-125.315-663.781-125.532-663.875"/>
</g>
</svg>
