<?xml version="1.0" encoding="utf-8"?>
<!-- Generator: Adobe Illustrator 16.2.1, SVG Export Plug-In . SVG Version: 6.00 Build 0)  -->
<!DOCTYPE svg PUBLIC "-//W3C//DTD SVG 1.1//EN" "http://www.w3.org/Graphics/SVG/1.1/DTD/svg11.dtd">
<svg version="1.1" id="Layer_1" xmlns="http://www.w3.org/2000/svg" xmlns:xlink="http://www.w3.org/1999/xlink" x="0px" y="0px"
	 width="50px" height="50px" viewBox="95.583 32 50 50" enable-background="new 95.583 32 50 50" xml:space="preserve">
<g>
	<path fill="#24409A" d="M103.079,54.2l-0.258,1.12h-3.576c0,0-0.948,0.302-1.12,1.034h4.653l-0.302,1.249h-4.523
		c0,0-0.172,0.818,0.732,1.119h3.619l-0.172,1.121h-5.212c0,0-1.335-0.604-1.335-1.681l0.431-2.24c0,0,0.344-1.335,1.809-1.766
		L103.079,54.2z"/>
	<path fill="#24409A" d="M102.639,59.829l0.655-4.078c0,0,0.144-1.092,1.81-1.58h3.532c0,0,1.494,0.518,1.379,1.81l-0.597,3.849
		h-2.27l0.369-2.269h-2.183l-0.402,2.183L102.639,59.829z"/>
	<path fill="#FFFFFF" d="M105.505,56.411c0,0-0.029-1.119,1.235-1.177c0,0,1.178,0.058,0.977,1.148L105.505,56.411z"/>
	<path fill="#24409A" d="M117.876,54.222l-0.215,1.121h-3.684c0,0-0.947,0.15-1.056,1.141h3.145c0,0,1.12,0.302,1.142,1.637
		l-0.344,1.709h-6.763l0.323-1.106h4.437c0,0,0.215-0.946-0.603-1.141h-3.684c0,0-0.431-2.757,1.982-3.382L117.876,54.222z"/>
	<path fill="#24409A" d="M122.959,54.179h2.262l-0.71,4.265c0,0-0.539,1.243-1.616,1.386h-3.209l0.344-1.17h1.335
		c0,0,1.055-0.043,1.055-1.056h-3.145c0,0-0.99-0.667-1.099-1.313l0.194-2.111h2.283l-0.151,1.637c0,0,0.151,0.561,0.582,0.646
		h1.486L122.959,54.179z"/>
	<path fill="#FE7611" d="M143.322,54.179h2.261l-0.711,4.265c0,0-0.539,1.243-1.615,1.386h-3.21l0.345-1.17h1.335
		c0,0,1.055-0.043,1.055-1.056h-3.145c0,0-0.991-0.667-1.098-1.313l0.193-2.111h2.283l-0.15,1.637c0,0,0.15,0.561,0.581,0.646h1.487
		L143.322,54.179z"/>
	<path fill="#FE7611" d="M125.006,59.829l0.667-4.186c0,0,0.432-1.293,1.81-1.465h5.212l-0.172,1.164h-3.619
		c0,0-0.969,0.107-1.098,1.098h4.544l-0.15,1.12h-4.587l-0.345,2.269H125.006z"/>
	<path fill="#FE7611" d="M133.686,54.179h2.24l-0.603,3.898c0,0,0.043,0.518,0.646,0.604h2.628l-0.173,1.148h-4.243
		c0,0-1.141-0.373-1.141-1.386L133.686,54.179z"/>
</g>
</svg>
