<?xml version="1.0" encoding="utf-8"?>
<!-- Generator: Adobe Illustrator 16.2.1, SVG Export Plug-In . SVG Version: 6.00 Build 0)  -->
<!DOCTYPE svg PUBLIC "-//W3C//DTD SVG 1.1//EN" "http://www.w3.org/Graphics/SVG/1.1/DTD/svg11.dtd">
<svg version="1.1"
	 id="svg1340" xmlns:inkscape="http://www.inkscape.org/namespaces/inkscape" xmlns:dc="http://purl.org/dc/elements/1.1/" xmlns:cc="http://creativecommons.org/ns#" xmlns:sodipodi="http://sodipodi.sourceforge.net/DTD/sodipodi-0.dtd" xmlns:rdf="http://www.w3.org/1999/02/22-rdf-syntax-ns#" inkscape:version="0.48.1 " sodipodi:docname="AJAX.svg" xmlns:svg="http://www.w3.org/2000/svg"
	 xmlns="http://www.w3.org/2000/svg" xmlns:xlink="http://www.w3.org/1999/xlink" x="0px" y="0px" width="50px" height="50px"
	 viewBox="0.5 30.5 50 50" enable-background="new 0.5 30.5 50 50" xml:space="preserve">
<sodipodi:namedview  inkscape:window-maximized="1" inkscape:current-layer="svg1340" inkscape:window-height="1004" inkscape:window-x="-8" inkscape:zoom="3.3059381" guidetolerance="10" borderopacity="1" gridtolerance="10" showgrid="false" objecttolerance="10" pagecolor="#ffffff" bordercolor="#666666" inkscape:cy="3.6210857" inkscape:cx="235.62414" inkscape:window-width="1280" inkscape:pageopacity="0" inkscape:pageshadow="2" inkscape:window-y="-8" fit-margin-left="0" fit-margin-top="0" id="namedview7" fit-margin-bottom="0" fit-margin-right="0">
	</sodipodi:namedview>
<g id="g1362" transform="matrix(0.715993,0,0,0.715993,-50.003953,-27.348135)">
	<path id="path1353" inkscape:connector-curvature="0" fill="#5FBA45" d="M83.302,144.743c0.291-0.683,0.844-2.237,1.227-3.452
		c0.595-1.897,1.021-2.471,3.063-4.127c3.191-2.587,7.467-7.53,9.955-11.514c1.056-1.689,1.056-1.706,0.156-1.064
		c-5.091,3.605-11.366,6.708-15.252,7.533c-2.148,0.458-7.296,0.585-8.274,0.21c-0.326-0.128-0.511-0.426-0.419-0.674
		c0.093-0.245-0.34-0.734-0.957-1.086c-1.688-0.956-2.467-2.754-2.219-5.141c0.376-3.676,3.169-7.664,6.268-8.945
		c0.971-0.4,1.148-0.663,1.003-1.442c-0.295-1.554,0.975-4.283,2.542-5.424c0.773-0.567,1.695-1.383,2.049-1.809
		c0.511-0.623,1.206-0.809,3.467-0.922c1.553-0.078,3.531,0.05,4.389,0.277c3.162,0.851,6.205,4.17,8.806,9.601
		c0.822,1.709,1.609,3.112,1.759,3.112c0.149,0,0.567-0.801,0.943-1.776l0.681-1.777l-1-0.726c-0.546-0.397-1.525-1.549-2.17-2.56
		c-3.509-5.467-3.921-12.919-1.035-18.687c1.78-3.556,5.006-7.232,6.055-6.906c0.49,0.155,1.057-0.035,1.599-0.539
		c2.588-2.436,8.324-2.596,9.214-0.263c0.198,0.507,0.45,0.476,1.861-0.262c2.202-1.153,5.921-1.376,8.193-0.51
		c2.035,0.779,3.127,2.049,3.694,4.307c0.241,0.953,0.645,1.659,0.954,1.659c0.67,0,0.663,0.468-0.068,3.283
		c-1.532,5.864-5.297,9.683-15.918,16.113c-6.899,4.183-8.324,5.289-9.048,7.016c-0.312,0.741-0.518,1.401-0.46,1.463
		c0.057,0.057,1.142-0.681,2.403-1.637c6.013-4.539,14.475-9.651,18.042-10.906c1.219-0.432,3.683-0.971,5.481-1.206
		c2.893-0.368,3.304-0.346,3.616,0.206c0.195,0.341,1.035,0.809,1.872,1.032c0.837,0.222,2.212,1.071,3.056,1.867
		c1.415,1.343,1.539,1.631,1.539,3.46c0,2.33-0.653,4.07-2.035,5.446l-0.993,0.982l1.131,2.241c1.78,3.527,1.468,6.458-1.013,9.397
		c-0.614,0.724-1.11,1.589-1.114,1.918c-0.007,0.858-3.322,2.542-6.92,3.518c-2.525,0.692-3.666,0.798-6.432,0.599
		c-7.275-0.506-13.135-3.878-18.314-10.53l-2.092-2.687l-1.602,2.815c-3.51,6.154-8.012,11.642-13.572,16.542
		C83.387,146.317,82.437,146.772,83.302,144.743L83.302,144.743z"/>
</g>
</svg>
