<?xml version="1.0" encoding="utf-8"?>
<!-- Generator: Adobe Illustrator 16.2.1, SVG Export Plug-In . SVG Version: 6.00 Build 0)  -->
<!DOCTYPE svg PUBLIC "-//W3C//DTD SVG 1.1//EN" "http://www.w3.org/Graphics/SVG/1.1/DTD/svg11.dtd">
<svg version="1.1" id="svg2367" xmlns:svg="http://www.w3.org/2000/svg"
	 xmlns="http://www.w3.org/2000/svg" xmlns:xlink="http://www.w3.org/1999/xlink" x="0px" y="0px" width="50px" height="50px"
	 viewBox="393.414 106.031 50 50" enable-background="new 393.414 106.031 50 50" xml:space="preserve">
<path fill="#E23546" d="M424.796,110.075c-0.552,0.518-1.308,1.86-1.308,3.738c0,0.451,0,11.226,0,11.611
	c0,0.966-0.36,1.883-0.944,2.401c-0.305,0.28-2.224,1.996-2.343,2.087h1.107c0.336-0.313,3.83-3.347,4.192-3.762
	c0.474-0.533,1.606-1.881,1.606-4c0-0.499,0.009-10.71,0.009-11.159c0-1.674,0.785-2.602,1.198-3.051
	c0.417-0.458,1.743-1.588,2.081-1.888l-1.094-0.012C428.983,106.331,425.175,109.721,424.796,110.075"/>
<path fill="#E23546" d="M416.148,152.349l4.278,3.683h2.866c2.912,0,5.568-1.231,7.327-2.963c1.759-1.729,2.406-4.055,2.406-6.23
	c0-1.584,0-5.748,0-6.037c0-2.03-1.29-3.211-1.653-3.563c-0.193-0.191-1.44-1.353-1.44-1.353v4.634c0,0,1.373,1.394,1.639,1.677
	c1.276,1.331,1.258,3.749-2.756,7.612c-0.708,0.674-2.713,2.541-5.473,2.541C422.944,152.349,416.148,152.349,416.148,152.349"/>
<path fill="#E23546" d="M433.548,130.948c0,0,1.229,1.39,1.712,1.764c1.617,1.257,2.327-0.18,1.285-1.819
	C436.299,130.497,435.293,129.836,433.548,130.948 M428.043,127.576c-0.479,0.496-0.929,1.712-0.929,2.78c0,0.596,0,2.287,0,2.287
	s1.885,0,2.345,0c0.918,0,1.746-0.669,2.386-1.256c0.018-0.027,0-2.27,0-2.27s0.604,0.684,1.139,1.231
	c0.788-0.708,2.822-2.803,4.301-2.803c2.99,0,2.313,3.697,1.086,4.887c-0.392,0.384-2.161,1.98-2.706,2.495
	c-1.412,1.327-3.834,0.692-3.834-2.736c0,0-2.593,2.432-2.988,2.752c-0.395,0.322-1.729,1.718-1.729,1.718s0,5.444,0,6.023
	c0,2.892-0.891,3.931-1.768,4.731c-0.388,0.354-3.541,3.173-4.107,3.662h-1.119c0,0,2.03-1.743,2.413-2.14
	c0.442-0.447,0.954-1.364,0.954-2.89c0-0.388-0.047-9.464-0.047-9.464s-14.355,0-15.012,0c-5.221,0-6.337-5.71-6.369-7.237
	c-0.009-0.453,0-5.011,0-5.721c0-0.94-0.609-2.521-1.583-3.011h1.472c0.169,0.069,1.096,0.439,1.096,3.938
	c0,0-0.063,4.075-0.063,4.296c0,1.772,1.43,3.81,3.5,3.81c0.424,0,16.988-0.017,16.988-0.017c0.018-0.451,0.478-2.16,1.294-3.06
	c0.458-0.51,4.104-3.796,4.52-4.114l1.078-0.009C430.206,125.606,428.436,127.166,428.043,127.576z"/>
<path fill="#E23546" d="M415.403,141.793c0,0.805-2.616,2.954-2.769,3.105c-0.189-0.868-0.85-1.831-2.803-3.76l2.866-2.823
	C414.619,140.207,415.403,140.611,415.403,141.793"/>
<path fill="#E23546" d="M410.388,125.165c-0.785,0.811-0.922,1.015-1.658,1.446c0.068,0,8.689,0,8.973,0
	c2.431,0,1.946-1.484,1.506-2.234c-0.888-1.54-3.712-4.398-3.712-4.398S410.553,124.996,410.388,125.165 M420.378,109.392
	c0.577,0.572,1.813,2.106,1.071,2.837c-0.656,0.649-1.673,1.678-1.673,1.678c-0.047-0.373-1.003-1.263-1.003-1.263
	s0.009,2.731,0,3.069c-0.029,1.231-0.505,1.58-0.505,1.58s2.314,2.262,2.314,5.164c0,1.41,0.004,2.704,0.004,2.981
	c0,0.595-0.153,1.056-0.575,1.511c-0.208,0.23-2.348,2.353-2.674,2.644c-0.618,0.546-1.27,0.64-1.759,0.64c-0.345,0-7.738,0-7.965,0
	c-1.254,0-2.548-0.965-2.548-1.932c0-0.239,0.018-2.909,0.018-2.909c0.408,0.464,0.823,1.012,1.827,0.996
	c0.785-0.013,1.605-0.617,1.829-0.836c0.226-0.227,6.026-6.199,6.026-6.199s-2.715-2.481-4.506-3.66
	c-0.875-0.575-2.029,0.151-2.206,0.913c-0.55,2.37,0,5.938,0,5.938s-1.77-1.746-2.196-2.164c-0.889-0.874-0.853-2.854,0.201-3.893
	c0.165-0.166,1.77-1.954,3.815-1.954c0.325,0,2.821,0,3.18,0c2.131,0,4.431,2.059,4.431,2.059s0.343-0.371,0.343-0.727
	c0-1.078-0.009-3.95-0.009-3.95c-1.603-1.585-1.82-3.214-1.051-3.971c1.432-1.417,1.962-1.913,1.962-1.913
	S418.707,107.745,420.378,109.392z"/>
<path fill="#E23546" d="M400.159,133.212h-1.473c0,0,1.585,0.857,1.585,3.066c0,0.583,0,6.574,0,7.055
	c0,4.593,3.842,8.838,8.511,8.838c0.785,0,3.376,0,3.899,0c2.341,0,3.164-0.557,4.581-1.795c0.516-0.456,1.19-1.2,1.438-1.476
	c0.816-0.897,1.682-1.621,1.682-3.991c0-0.577,0-1.986,0-2.312c0-1.994-1.175-2.826-1.736-3.381
	c-0.363-0.362-1.362-1.301-1.362-1.301v4.733c0,0,0.979,1.028,1.417,1.368c2.023,1.575,0.415,4.321-1.471,4.321
	c-0.374,0-8.037,0.005-8.56,0.005c-3.297,0-7.415-2.695-7.415-7.358c0-0.625,0-3.424,0-3.836
	C401.255,133.212,400.159,133.212,400.159,133.212"/>
<path fill="#E23546" d="M409.545,141.807c0,0.804-2.621,2.954-2.774,3.103c-0.185-0.868-0.848-1.831-2.805-3.76l2.871-2.825
	C408.755,140.218,409.545,140.624,409.545,141.807"/>
</svg>
