<?xml version="1.0" encoding="utf-8"?>
<!-- Generator: Adobe Illustrator 16.2.1, SVG Export Plug-In . SVG Version: 6.00 Build 0)  -->
<!DOCTYPE svg PUBLIC "-//W3C//DTD SVG 1.1//EN" "http://www.w3.org/Graphics/SVG/1.1/DTD/svg11.dtd">
<svg version="1.1" id="svg2367" xmlns:svg="http://www.w3.org/2000/svg"
	 xmlns="http://www.w3.org/2000/svg" xmlns:xlink="http://www.w3.org/1999/xlink" x="0px" y="0px" width="50px" height="50px"
	 viewBox="393.414 106.031 50 50" enable-background="new 393.414 106.031 50 50" xml:space="preserve">
<g id="_x23_548f46ff">
	<path id="path2565" fill="#548F46" d="M441,110.031h1.116c0.578,0.498,1.044,1.116,1.297,1.841v4.035
		c-0.447,1.09-0.599,2.27-0.991,3.378c-0.522,1.641-1.308,3.223-2.496,4.48c-1.388,1.467-3.063,2.631-4.744,3.739
		c-4.137,2.664-8.43,5.074-12.746,7.438c-8.718,4.693-17.588,9.12-26.711,12.979c-0.743,0.194-1.479,0.399-2.227,0.567
		c0.069-0.873,0.996-1.233,1.619-1.678c15.095-9.014,28.622-20.42,41.13-32.718C437.769,112.674,439.17,111.065,441,110.031z"/>
</g>
<g id="_x23_f1d212ff">
	<path id="path2568" fill="#F1D212" d="M436.299,128.624c0.549-0.262,1.324-0.003,1.446,0.637c0.2,0.95-0.184,1.896-0.538,2.759
		c-1.414,3.093-3.639,5.879-6.563,7.656c-1.559,0.9-3.276,1.468-4.962,2.077c-8.25,2.811-16.733,4.861-25.228,6.779
		c0.083,0.056,0.258,0.165,0.346,0.224c-0.149,0.032-0.437,0.104-0.583,0.139c-0.117-0.475-1.199-0.296-0.666,0.151
		c-0.978,0.16-2.033,0.197-2.869,0.786c-0.133-0.176-0.261-0.354-0.384-0.535c-0.967,0.048-1.926,0.144-2.885,0.229
		c0.024-0.346,0.051-0.689,0.085-1.036c0.748-0.168,1.483-0.373,2.227-0.567c0.607-0.114,1.217-0.264,1.801-0.472
		c3.13-1.095,6.177-2.405,9.2-3.769c8.556-3.899,16.955-8.153,25.167-12.738C433.355,130.161,434.746,129.223,436.299,128.624z"/>
</g>
<path id="path2571" fill="#C12237" d="M429.197,141.742c0.68-0.12,1.566-0.521,2.126,0.083c0.671,0.884-0.027,1.974-0.477,2.786
	c-1.617,2.416-3.716,4.658-6.459,5.772c-1.302,0.631-2.773,0.54-4.171,0.689c-7.309,0.426-14.621-0.096-21.895-0.746
	c-0.562-0.101-1.207-0.066-1.638-0.495c0.836-0.589,1.891-0.626,2.869-0.786c0.165-0.037,0.498-0.114,0.666-0.151
	c0.146-0.035,0.434-0.106,0.583-0.139c5.05-0.845,10.058-1.926,15.018-3.202C420.322,144.444,424.723,142.96,429.197,141.742z"/>
<g id="_x23_85472849">
	<path id="path2608" opacity="0.29" fill="#854728" enable-background="new    " d="M399.551,149.046
		c-0.533-0.447,0.549-0.626,0.666-0.151C400.049,148.932,399.716,149.009,399.551,149.046z"/>
</g>
</svg>
