<?xml version="1.0" encoding="utf-8"?>
<!-- Generator: Adobe Illustrator 16.2.1, SVG Export Plug-In . SVG Version: 6.00 Build 0)  -->
<!DOCTYPE svg PUBLIC "-//W3C//DTD SVG 1.1//EN" "http://www.w3.org/Graphics/SVG/1.1/DTD/svg11.dtd">
<svg version="1.1" id="svg2367" xmlns:svg="http://www.w3.org/2000/svg"
	 xmlns="http://www.w3.org/2000/svg" xmlns:xlink="http://www.w3.org/1999/xlink" x="0px" y="0px" width="50px" height="50px"
	 viewBox="393.414 106.031 50 50" enable-background="new 393.414 106.031 50 50" xml:space="preserve">
<path fill="#AB965F" d="M409.238,123.359c0.578-0.507,1.17-1.025,1.537-1.713c0.018,3.225,0.012,6.447,0.022,9.672
	c-0.002,1.096,0.011,2.194-0.021,3.29c3.666,0.004,7.33,0,10.996,0.001c-0.006-0.281-0.003-0.563,0.03-0.842
	c0.021-0.422-0.286-0.784-0.65-0.956c-0.581-0.284-1.243-0.331-1.878-0.329c-1.125,0.011-2.251,0.026-3.376,0.006
	c-0.245-0.011-0.497,0.006-0.733-0.062c-0.423-0.161-0.668-0.597-0.759-1.02c-0.068-0.379-0.061-0.799,0.15-1.133
	c0.096-0.158,0.25-0.266,0.404-0.362c0.229,0.498,0.821,0.598,1.307,0.669c1.447,0.16,2.907,0.056,4.36,0.036
	c0.853,0.003,1.75,0.292,2.313,0.961c0.707,0.831,0.882,1.977,0.829,3.032c0.978-0.001,1.958,0.003,2.937-0.001
	c-0.024-1.305-0.003-2.609-0.039-3.913c0-0.291-0.11-0.601-0.367-0.762c-0.218-0.163-0.546-0.237-0.641-0.521
	c-0.036-0.175-0.083-0.449,0.136-0.523c0.415-0.197,0.768-0.495,1.11-0.795c0.608-0.544,1.231-1.103,1.605-1.842
	c-0.001,3.41-0.009,6.822,0,10.232c-1.597,0.003-3.194-0.006-4.792,0.005c0,0.543,0.015,1.109,0.246,1.611
	c0.085,0.207,0.267,0.343,0.422,0.495c-0.398,0.284-0.897,0.441-1.385,0.338c-0.399-0.079-0.792-0.298-0.987-0.669
	c-0.307-0.538-0.27-1.181-0.248-1.78c-4.273-0.001-8.549,0.003-12.823,0c-0.038-3.441,0.023-6.882-0.065-10.322
	c-0.003-0.27-0.048-0.568-0.258-0.759c-0.228-0.231-0.608-0.274-0.777-0.568c-0.059-0.188-0.118-0.507,0.125-0.585
	C408.442,124.034,408.842,123.692,409.238,123.359z"/>
<path fill="#AB965F" d="M440.433,121.591c0.329,0.615,0.842,1.099,1.358,1.56c0.456,0.394,0.915,0.799,1.468,1.054
	c0.215,0.083,0.153,0.363,0.121,0.541c-0.166,0.354-0.632,0.372-0.855,0.674c-0.248,0.312-0.185,0.739-0.206,1.113
	c-0.022,3.327-0.006,6.655,0.024,9.984c-0.641,0.003-1.282,0.003-1.923,0c0-3.432,0-6.863,0-10.294
	C440.428,124.678,440.404,123.134,440.433,121.591z"/>
<path fill="#AB965F" d="M430.387,122.159c0.091-0.011,0.188-0.069,0.277-0.036c0.483,0.71,1.056,1.361,1.701,1.928
	c0.161,0.168,0.511,0.219,0.471,0.514c0.051,0.358-0.27,0.553-0.526,0.717c-0.322,0.224-0.343,0.648-0.348,1.001
	c-0.034,2.289-0.006,4.58,0.012,6.87c0.698,0.711,1.388,1.431,2.083,2.145c0.667-0.684,1.324-1.379,1.993-2.06
	c0.082-0.062,0.076-0.17,0.079-0.263c0.009-2.107,0.042-4.214,0.017-6.32c-0.031-0.382,0.043-0.796-0.148-1.146
	c-0.159-0.307-0.587-0.362-0.7-0.697c-0.033-0.179-0.083-0.445,0.119-0.538c0.341-0.203,0.623-0.484,0.895-0.768
	c0.411-0.436,0.811-0.886,1.126-1.394c0.09,0.012,0.179,0.023,0.269,0.035c0.018,3.944,0.004,7.892,0.006,11.836
	c-0.561,0.586-1.119,1.173-1.678,1.761c-0.253,0.283-0.543,0.535-0.77,0.838c0.674,0.672,1.348,1.344,2.017,2.02
	c-1.082,1.071-2.151,2.155-3.227,3.233c-1.08-1.075-2.154-2.154-3.232-3.23c0.671-0.676,1.345-1.351,2.021-2.02
	c-0.79-0.826-1.64-1.599-2.439-2.417c-0.039-0.15-0.015-0.309-0.018-0.46C430.387,129.857,430.387,126.008,430.387,122.159
	 M432.639,138.605c0.476,0.469,0.941,0.944,1.415,1.412c0.471-0.471,0.942-0.94,1.413-1.413c-0.471-0.467-0.932-0.946-1.412-1.404
	C433.565,137.647,433.106,138.131,432.639,138.605z"/>
<path fill="#AB965F" d="M423.798,123.443c0.051-0.084,0.124,0.006,0.167,0.045c0.447,0.443,0.888,0.894,1.34,1.335
	c-0.15,0.217-0.362,0.382-0.541,0.574c-0.298,0.291-0.581,0.6-0.888,0.88c-0.021-0.011-0.058-0.027-0.078-0.038
	c-0.471-0.459-0.93-0.93-1.398-1.392C422.859,124.371,423.33,123.909,423.798,123.443z"/>
<path fill="#AB965F" d="M425.505,124.782c0.455-0.473,0.935-0.924,1.388-1.401c0.498,0.48,0.988,0.969,1.467,1.469
	c-0.492,0.477-0.961,0.98-1.465,1.445c-0.444-0.444-0.889-0.89-1.334-1.332C425.519,124.913,425.425,124.844,425.505,124.782z"/>
<path fill="#AB965F" d="M393.417,125.904c0.442,0.303,0.776,0.729,1.138,1.116c0.343,0.377,0.678,0.802,1.177,0.979
	c0.033,0.21,0.041,0.465-0.13,0.621c-0.191,0.181-0.465,0.292-0.568,0.552c-0.096,0.198-0.096,0.42-0.099,0.634
	c3.368,0,6.738,0,10.106,0c0.344-0.008,0.715,0.052,0.98,0.287c0.278,0.238,0.381,0.619,0.385,0.974
	c-0.004,0.207-0.049,0.411-0.047,0.618c0.003,1.982-0.002,3.966,0.003,5.949c-0.005,0.189,0.027,0.396-0.079,0.566
	c-0.426,0.837-1.306,1.369-2.217,1.509c-0.855,0.133-1.794,0.08-2.537-0.404c-0.397-0.256-0.714-0.636-0.894-1.073
	c-0.049-0.11-0.044-0.235-0.045-0.352c0.004-0.444,0.001-0.889,0.003-1.332c-2.352-0.005-4.702,0-7.054-0.002
	c-0.002-0.666-0.002-1.333,0-1.997c2.773,0,5.547-0.002,8.322,0c0.006,0.862-0.012,1.728,0.008,2.589
	c0.217,0.428,0.672,0.716,1.135,0.812c0.333,0.058,0.709,0.067,0.997-0.136c0.294-0.203,0.428-0.569,0.426-0.915
	c-0.008-1.535,0.001-3.072-0.005-4.606c-0.006-0.457-0.513-0.702-0.914-0.726c-3.364-0.008-6.727,0-10.091-0.003
	C393.414,129.676,393.413,127.789,393.417,125.904z"/>
</svg>
