<?xml version="1.0" encoding="utf-8"?>
<!-- Generator: Adobe Illustrator 16.2.1, SVG Export Plug-In . SVG Version: 6.00 Build 0)  -->
<!DOCTYPE svg PUBLIC "-//W3C//DTD SVG 1.1//EN" "http://www.w3.org/Graphics/SVG/1.1/DTD/svg11.dtd">
<svg version="1.1" id="Layer_1" xmlns="http://www.w3.org/2000/svg" xmlns:xlink="http://www.w3.org/1999/xlink" x="0px" y="0px"
	 width="50px" height="50px" viewBox="62.5 41.5 50 50" enable-background="new 62.5 41.5 50 50" xml:space="preserve">
<g>
	<g>
		<g>
			<polygon fill="#006A43" points="62.572,67.206 64.703,67.206 64.703,64.854 67.027,64.854 67.027,63.439 64.703,63.439 
				64.703,62.418 67.728,62.418 67.728,60.921 62.572,60.921 			"/>
			<path fill="#006A43" d="M74.492,63.732c0.167-0.278,0.25-0.598,0.25-0.961c0-0.555-0.227-1.002-0.682-1.342
				c-0.454-0.339-1.093-0.509-1.914-0.509h-3.725v6.285h2.188v-2.403h0.69l1.042,2.403h2.426l-1.29-2.739
				C73.987,64.254,74.325,64.01,74.492,63.732z M72.209,63.307c-0.167,0.101-0.389,0.151-0.663,0.151H70.61v-1.202h1.008
				c0.561,0,0.841,0.201,0.841,0.604C72.46,63.056,72.376,63.205,72.209,63.307z"/>
			<path fill="#006A43" d="M78.822,60.824c-1.073,0-1.911,0.307-2.515,0.918c-0.604,0.613-0.906,1.389-0.906,2.328
				c0,0.982,0.316,1.768,0.948,2.354s1.449,0.879,2.452,0.879c0.996,0,1.809-0.301,2.439-0.902c0.63-0.602,0.945-1.4,0.945-2.398
				c0-0.965-0.312-1.734-0.938-2.312C80.623,61.113,79.814,60.824,78.822,60.824z M79.587,65.449
				c-0.162,0.284-0.428,0.426-0.796,0.426c-0.689,0-1.035-0.584-1.035-1.754c0-1.246,0.359-1.869,1.076-1.869
				c0.666,0,0.998,0.546,0.998,1.639C79.83,64.646,79.749,65.166,79.587,65.449z"/>
			<polygon fill="#006A43" points="87.134,64.167 84.905,60.964 82.837,60.964 82.837,67.248 84.613,67.248 84.612,63.726 
				87.151,67.248 88.933,67.248 88.933,60.964 87.14,60.964 			"/>
			<polygon fill="#006A43" points="89.827,62.426 91.305,62.426 91.305,67.206 93.379,67.206 93.379,62.426 94.857,62.426 
				94.857,60.921 89.827,60.921 			"/>
			<rect x="95.479" y="60.921" fill="#006A43" width="2.188" height="6.285"/>
			<polygon fill="#006A43" points="98.911,67.206 104.275,67.206 104.275,65.705 101.057,65.705 101.057,64.678 103.659,64.678 
				103.659,63.283 101.057,63.283 101.057,62.371 104.275,62.371 104.275,60.921 98.911,60.921 			"/>
			<path fill="#006A43" d="M110.198,64.467c0.508-0.213,0.846-0.457,1.013-0.734c0.167-0.279,0.25-0.598,0.25-0.961
				c0-0.555-0.228-1.002-0.682-1.342s-1.092-0.509-1.915-0.509h-3.724v6.285h2.188v-2.403h0.69l1.042,2.403h2.426L110.198,64.467z
				 M108.929,63.307c-0.167,0.101-0.388,0.151-0.663,0.151h-0.935v-1.202h1.008c0.56,0,0.841,0.201,0.841,0.604
				C109.18,63.056,109.096,63.205,108.929,63.307z"/>
		</g>
	</g>
</g>
<path d="M64.69,72.138h-0.475l-0.196-0.587h-0.948l-0.193,0.587H62.5l0.817-2.464h0.547L64.69,72.138z M63.9,71.195l-0.359-1.099
	l-0.359,1.099H63.9z"/>
<path d="M70.319,72.138h-0.444v-2.464h0.444V72.138z"/>
<path d="M77.669,72.138H77.2l-0.382-1.013h-0.625v1.013H75.75v-2.464h1.068c0.297,0,0.515,0.068,0.655,0.202s0.21,0.308,0.21,0.521
	c0,0.316-0.148,0.533-0.444,0.653L77.669,72.138z M76.193,70.77h0.552c0.16,0,0.279-0.033,0.357-0.101s0.118-0.161,0.118-0.278
	c0-0.107-0.039-0.195-0.116-0.262c-0.077-0.067-0.185-0.101-0.323-0.101h-0.588V70.77L76.193,70.77z"/>
<path d="M84.529,72.138h-1.516v-2.464h0.468v2.062h1.048V72.138z"/>
<path d="M90.188,72.138h-0.444v-2.464h0.444V72.138z"/>
<path d="M97.479,72.138h-0.432l-0.935-1.573c-0.014-0.024-0.038-0.063-0.07-0.117c-0.014-0.024-0.037-0.062-0.067-0.113v1.804
	h-0.357v-2.464h0.491l0.863,1.451c0.007,0.012,0.06,0.101,0.157,0.266v-1.717h0.35V72.138L97.479,72.138z"/>
<path d="M104.51,72.138h-1.601v-2.464h1.584v0.367h-1.14v0.668h0.917v0.356h-0.917v0.689h1.156V72.138L104.51,72.138z"/>
<path d="M109.523,71.544l0.431-0.093c0.052,0.245,0.25,0.367,0.596,0.367c0.157,0,0.278-0.031,0.363-0.094s0.127-0.141,0.127-0.232
	c0-0.068-0.019-0.131-0.058-0.188s-0.121-0.102-0.247-0.135l-0.471-0.123c-0.162-0.041-0.28-0.089-0.357-0.143
	s-0.139-0.129-0.185-0.227c-0.046-0.098-0.07-0.201-0.07-0.312c0-0.22,0.082-0.396,0.246-0.529s0.373-0.199,0.628-0.199
	c0.211,0,0.401,0.046,0.567,0.139c0.167,0.092,0.272,0.224,0.318,0.393l-0.422,0.105c-0.065-0.187-0.216-0.279-0.454-0.279
	c-0.139,0-0.245,0.028-0.317,0.086c-0.073,0.059-0.109,0.131-0.109,0.221c0,0.141,0.114,0.238,0.343,0.295l0.418,0.105
	c0.254,0.063,0.424,0.158,0.51,0.282c0.087,0.124,0.13,0.262,0.13,0.412c0,0.241-0.091,0.433-0.273,0.571
	c-0.183,0.139-0.418,0.209-0.708,0.209c-0.244,0-0.458-0.052-0.641-0.154C109.705,71.92,109.583,71.76,109.523,71.544z"/>
<path fill="#006A43" d="M112.033,67.033l-0.049-0.012c-0.031-0.006-0.06-0.014-0.06-0.049c0-0.033,0.04-0.049,0.071-0.049
	c0.034,0,0.073,0.021,0.08,0.055l0.038-0.01c-0.018-0.049-0.062-0.075-0.117-0.075c-0.057,0-0.111,0.026-0.111,0.085
	c0,0.021,0.009,0.043,0.027,0.057c0.017,0.016,0.037,0.02,0.059,0.024l0.054,0.013c0.029,0.008,0.056,0.02,0.056,0.051
	c0,0.016-0.007,0.03-0.02,0.039c-0.015,0.012-0.039,0.016-0.059,0.016c-0.046,0-0.083-0.02-0.097-0.062l-0.037,0.008
	c0.022,0.06,0.066,0.088,0.133,0.088c0.03,0,0.062-0.006,0.085-0.022s0.037-0.042,0.037-0.069c0-0.025-0.01-0.047-0.031-0.062
	C112.076,67.044,112.055,67.037,112.033,67.033z"/>
<polygon fill="#006A43" points="112.439,66.898 112.343,67.145 112.244,66.898 112.183,66.898 112.183,67.206 112.217,67.206 
	112.217,66.938 112.219,66.938 112.325,67.206 112.353,67.206 112.457,66.938 112.458,66.938 112.458,67.206 112.5,67.206 
	112.5,66.898 "/>
</svg>
