<?xml version="1.0" encoding="utf-8"?>
<!-- Generator: Adobe Illustrator 16.2.1, SVG Export Plug-In . SVG Version: 6.00 Build 0)  -->
<!DOCTYPE svg PUBLIC "-//W3C//DTD SVG 1.1//EN" "http://www.w3.org/Graphics/SVG/1.1/DTD/svg11.dtd">
<svg version="1.1" id="svg2367" xmlns:svg="http://www.w3.org/2000/svg"
	 xmlns="http://www.w3.org/2000/svg" xmlns:xlink="http://www.w3.org/1999/xlink" x="0px" y="0px" width="50px" height="50px"
	 viewBox="393.414 106.031 50 50" enable-background="new 393.414 106.031 50 50" xml:space="preserve">
<path id="path5411" fill="#F5C300" d="M442.263,136.505c-0.432-0.957-1.006-1.863-1.628-2.626c-0.623-0.763-1.389-1.48-2.155-2.053
	c-0.432-0.286-0.862-0.525-1.294-0.764l0,0c-0.238-0.145-0.478-0.239-0.717-0.332c0.24-0.146,0.479-0.24,0.717-0.383
	c0.432-0.192,0.862-0.478,1.294-0.765c0.766-0.573,1.532-1.241,2.155-2.054c0.622-0.763,1.197-1.668,1.628-2.623
	c0.43-1.003,0.766-2.053,0.959-3.151c0.094-0.765,0.191-1.525,0.191-2.243c0-0.334-0.047-0.717-0.047-1.05
	c-0.1-0.907-0.289-1.813-0.625-2.721c-0.287-0.907-0.719-1.766-1.197-2.578c-0.526-0.811-1.148-1.575-1.82-2.243
	c-0.719-0.716-1.532-1.288-2.347-1.815c-0.91-0.522-1.868-0.953-2.874-1.238c-1.054-0.287-2.156-0.478-3.256-0.478
	c-1.102-0.048-2.203,0.048-3.208,0.285c-1.006,0.238-1.964,0.62-2.827,1.098c-0.909,0.478-1.675,1.053-2.394,1.719
	c-0.67,0.667-1.245,1.433-1.724,2.292c-0.431,0.858-0.767,1.764-0.909,2.719c-0.097,0.525-0.145,1.003-0.145,1.528
	c0,0.43,0.047,0.812,0.097,1.24c-0.91-0.523-1.821-0.955-2.73-1.288c-1.149-0.335-2.396-0.572-3.736-0.62
	c-1.246,0-2.442,0.095-3.544,0.383c-1.054,0.237-2.06,0.62-3.018,1.144c-0.909,0.478-1.771,1.05-2.585,1.72
	c-0.575,0.428-1.102,0.953-1.628,1.479c0,0-0.814,0.765-1.197,1.242c-0.432,0.523-0.862,1.05-1.342,1.67l-1.006,1.288
	c-0.287,0.383-0.575,0.716-0.862,1.051c-0.43,0.476-0.862,0.955-1.34,1.431c-0.766,0.765-1.581,1.48-2.539,2.053
	c-0.143,0.143-0.335,0.287-0.575,0.383c-0.094,0.095-0.239,0.143-0.382,0.237c-0.095,0.048-0.24,0.143-0.24,0.288
	c0,0.143,0.145,0.189,0.24,0.287c0.144,0.046,0.288,0.095,0.382,0.19c0.24,0.143,0.432,0.237,0.575,0.38
	c0.959,0.573,1.773,1.29,2.539,2.051c0.479,0.479,0.91,0.957,1.34,1.435c0.287,0.333,0.575,0.666,0.862,1.049l1.006,1.288
	c0.479,0.622,0.91,1.193,1.342,1.671c0.382,0.478,1.197,1.242,1.197,1.242c0.527,0.572,1.054,1.048,1.628,1.48
	c0.814,0.665,1.676,1.288,2.585,1.716c0.958,0.525,1.964,0.907,3.018,1.147c1.102,0.285,2.298,0.38,3.544,0.38
	c1.34-0.047,2.586-0.237,3.736-0.62c0.909-0.285,1.82-0.763,2.73-1.288c-0.049,0.431-0.097,0.811-0.097,1.241
	c0,0.524,0.047,1.002,0.145,1.527c0.143,0.955,0.478,1.862,0.909,2.721c0.479,0.858,1.054,1.621,1.724,2.291
	c0.72,0.668,1.485,1.288,2.394,1.718c0.863,0.478,1.821,0.86,2.827,1.098c1.005,0.238,2.107,0.335,3.208,0.286
	c1.101,0,2.203-0.192,3.256-0.478c1.006-0.333,1.964-0.716,2.874-1.241c0.814-0.524,1.628-1.096,2.347-1.812
	c0.672-0.668,1.293-1.434,1.82-2.244c0.479-0.812,0.91-1.67,1.197-2.577c0.336-0.906,0.525-1.813,0.625-2.721
	c0-0.333,0.047-0.716,0.047-1.049c0-0.718-0.098-1.479-0.191-2.243C443.029,138.558,442.693,137.505,442.263,136.505"/>
<path id="path5413" fill="#370E62" d="M439.533,137.555c-0.384-0.86-0.909-1.625-1.532-2.34c-0.575-0.668-1.341-1.288-2.107-1.766
	c-0.814-0.478-1.675-0.858-2.538-1.099c-0.959-0.287-1.916-0.428-2.874-0.428c-1.054,0-2.108,0.096-3.114,0.381
	c-0.814,0.192-1.627,0.478-2.394,0.857c-0.719,0.337-1.341,0.718-1.963,1.193c-0.623,0.432-1.15,0.86-1.726,1.29
	c-0.525,0.43-1.053,0.86-1.628,1.193c-0.574,0.382-1.197,0.667-1.821,0.909c-0.669,0.188-1.389,0.333-2.154,0.333
	c-0.959,0-1.964-0.192-2.875-0.575c-0.862-0.38-1.676-0.953-2.346-1.621c-0.67-0.669-1.198-1.529-1.581-2.386
	c-0.336-0.907-0.479-1.864-0.479-2.768c0-0.956,0.144-1.913,0.479-2.818c0.383-0.858,0.911-1.671,1.581-2.386
	c0.67-0.67,1.484-1.24,2.346-1.623c0.91-0.381,1.915-0.572,2.875-0.572c0.765,0,1.484,0.143,2.154,0.333
	c0.624,0.239,1.247,0.524,1.821,0.907c0.574,0.383,1.101,0.763,1.628,1.194c0.576,0.429,1.103,0.906,1.726,1.288
	c0.622,0.476,1.244,0.858,1.963,1.193c0.766,0.383,1.58,0.716,2.394,0.907c1.006,0.238,2.06,0.333,3.114,0.333
	c0.958,0,1.915-0.143,2.874-0.428c0.863-0.24,1.724-0.62,2.538-1.098c0.767-0.478,1.532-1.098,2.107-1.768
	c0.623-0.716,1.147-1.479,1.532-2.339c0.383-0.907,0.67-1.86,0.768-2.815c0.143-1.051,0.096-2.099-0.098-3.15
	c-0.19-0.954-0.526-1.861-1.005-2.767c-0.432-0.812-1.006-1.575-1.676-2.245c-0.67-0.62-1.437-1.193-2.251-1.621
	c-0.862-0.431-1.725-0.765-2.634-0.908c-1.006-0.189-1.963-0.287-2.969-0.145c-0.958,0.096-1.867,0.383-2.73,0.812
	c-0.813,0.429-1.58,0.953-2.203,1.623c-0.623,0.668-1.102,1.431-1.484,2.289c-0.338,0.812-0.576,1.72-0.624,2.628
	c-0.048,1.002,0.096,1.955,0.384,2.863c0,0.143,0.047,0.237,0.094,0.38c0,0.048,0.047,0.096,0.047,0.145
	c0.05,0.096,0.05,0.142,0.097,0.236c0,0,0.047,0.05,0.096,0.05c0.095,0,0.095-0.05,0.095-0.096c0.049-0.145,0.049-0.287,0.049-0.43
	c0.047-0.476,0.189-0.953,0.381-1.431c0.335-0.811,0.911-1.528,1.676-2.053c0.767-0.478,1.676-0.764,2.586-0.812
	c0.958-0.048,1.964,0.095,2.825,0.572c0.815,0.383,1.486,1.051,1.917,1.813c0.431,0.765,0.622,1.72,0.622,2.626
	c0,0.953-0.288,1.862-0.766,2.673c-0.479,0.811-1.198,1.48-2.061,1.86c-0.813,0.431-1.819,0.62-2.73,0.527
	c-0.669-0.097-1.292-0.287-1.867-0.527c-0.623-0.333-1.196-0.668-1.725-1.098c-0.575-0.43-1.149-0.907-1.676-1.383
	c-0.573-0.478-1.197-1.005-1.771-1.433c-0.671-0.523-1.34-0.955-2.012-1.336c-0.766-0.43-1.581-0.765-2.394-1.005
	c-0.958-0.237-1.917-0.378-2.875-0.378c-1.005,0-2.011,0.045-2.969,0.285c-0.814,0.19-1.628,0.476-2.396,0.907
	c-0.67,0.333-1.34,0.811-1.915,1.288c-0.622,0.525-1.149,1.049-1.676,1.623c-0.527,0.572-1.005,1.191-1.484,1.813
	c-0.431,0.572-0.91,1.192-1.389,1.766c-0.479,0.572-1.004,1.146-1.532,1.67c-0.527,0.575-1.101,1.053-1.725,1.433
	c-0.144,0.096-0.239,0.19-0.382,0.238c-0.095,0.095-0.192,0.095-0.287,0.143c-0.048,0.05-0.144,0.145-0.144,0.24
	c0,0.047,0.095,0.143,0.144,0.189c0.095,0.05,0.192,0.098,0.287,0.145c0.144,0.048,0.239,0.144,0.382,0.238
	c0.625,0.381,1.198,0.907,1.725,1.433c0.527,0.525,1.052,1.096,1.532,1.671c0.479,0.572,0.958,1.192,1.389,1.812
	c0.479,0.573,0.957,1.193,1.484,1.768c0.527,0.571,1.054,1.097,1.676,1.621c0.575,0.478,1.246,0.955,1.915,1.288
	c0.768,0.433,1.581,0.718,2.396,0.908c0.958,0.237,1.963,0.334,2.969,0.285c0.958,0,1.917-0.143,2.875-0.379
	c0.812-0.241,1.628-0.574,2.394-1.005c0.672-0.38,1.341-0.812,2.012-1.335c0.574-0.431,1.198-0.957,1.771-1.433
	c0.527-0.478,1.102-0.955,1.676-1.384c0.528-0.432,1.102-0.765,1.725-1.05c0.575-0.287,1.198-0.478,1.867-0.525
	c0.911-0.095,1.917,0.048,2.73,0.476c0.863,0.383,1.581,1.051,2.061,1.863c0.478,0.811,0.766,1.718,0.766,2.673
	c0,0.905-0.191,1.86-0.622,2.671c-0.431,0.765-1.103,1.386-1.917,1.768c-0.861,0.478-1.868,0.62-2.825,0.573
	c-0.909-0.05-1.819-0.335-2.586-0.811c-0.766-0.527-1.341-1.243-1.676-2.054c-0.192-0.478-0.334-0.955-0.381-1.433
	c0-0.143,0-0.285-0.049-0.43c0,0,0-0.095-0.095-0.095c-0.049,0-0.096,0.049-0.096,0.095c-0.048,0.05-0.048,0.097-0.097,0.192
	c0,0.048-0.047,0.095-0.047,0.143c-0.047,0.143-0.094,0.24-0.094,0.383c-0.288,0.907-0.432,1.86-0.384,2.863
	c0.048,0.905,0.286,1.814,0.624,2.625c0.382,0.858,0.861,1.623,1.484,2.243c0.623,0.716,1.389,1.241,2.203,1.671
	c0.863,0.43,1.772,0.718,2.73,0.811c1.006,0.145,1.963,0.095,2.969-0.143c0.909-0.143,1.772-0.478,2.634-0.907
	c0.814-0.429,1.58-1.001,2.251-1.621c0.67-0.668,1.244-1.433,1.676-2.245c0.479-0.906,0.814-1.813,1.005-2.816
	c0.193-1.003,0.239-2.051,0.098-3.103C440.203,139.415,439.916,138.462,439.533,137.555"/>
<path id="path5415" fill="#B6007D" d="M425.597,130.731L425.597,130.731c0-0.05,0-0.098-0.048-0.098
	c-1.149-0.285-2.203-0.905-3.16-1.623c-1.007-0.717-1.964-1.527-3.018-2.243c-1.006-0.668-2.156-1.288-3.4-1.337
	c-1.007-0.096-2.011,0.145-2.875,0.622c-0.813,0.43-1.484,1.098-1.914,1.908c-0.479,0.811-0.72,1.768-0.72,2.719v0.05l0,0
	c0,0.953,0.24,1.908,0.72,2.721c0.43,0.811,1.101,1.478,1.914,1.908c0.864,0.476,1.868,0.717,2.875,0.668
	c1.244-0.098,2.394-0.718,3.4-1.386c1.053-0.715,2.01-1.525,3.018-2.243c0.957-0.715,2.011-1.335,3.16-1.623
	C425.597,130.776,425.597,130.731,425.597,130.731"/>
</svg>
