<?xml version="1.0" encoding="utf-8"?>
<!-- Generator: Adobe Illustrator 16.2.1, SVG Export Plug-In . SVG Version: 6.00 Build 0)  -->
<!DOCTYPE svg PUBLIC "-//W3C//DTD SVG 1.1//EN" "http://www.w3.org/Graphics/SVG/1.1/DTD/svg11.dtd">
<svg version="1.1" id="Layer_1" xmlns="http://www.w3.org/2000/svg" xmlns:xlink="http://www.w3.org/1999/xlink" x="0px" y="0px"
	 width="50px" height="50px" viewBox="0 0 50 50" enable-background="new 0 0 50 50" xml:space="preserve">
<g id="XHVmft.tif">
	<g>
		<path fill-rule="evenodd" clip-rule="evenodd" fill="#5C4B3E" d="M0,21.245c0.45-1.064,0.966-1.358,2.112-0.632
			c1.681,1.066,3.538,1.854,5.308,2.785c1.533,0.807,2.144,2.815,1.028,4.078c-2.09,2.364-4.358,4.572-6.686,6.987
			c-0.891-1.61-0.772-2.451,0.313-3.431c1.892-1.706,3.57-3.647,5.44-5.599C5.083,24.214,2.542,22.937,0,21.661
			C0,21.523,0,21.384,0,21.245z"/>
		<path fill-rule="evenodd" clip-rule="evenodd" fill="#544436" d="M26.244,0c-0.433,1.422-0.866,2.846-1.463,4.809
			C23.693,2.888,21.493,2.333,21.662,0C23.189,0,24.715,0,26.244,0z"/>
		<path fill-rule="evenodd" clip-rule="evenodd" fill="#544436" d="M0,24.576c1.613-0.167,2.834,0.948,4.665,1.325
			c-1.25,1.002-2.318,1.793-3.304,2.678C0.717,29.154,0.417,28.588,0,28.326C0,27.076,0,25.827,0,24.576z"/>
		<path fill-rule="evenodd" clip-rule="evenodd" fill="#544436" d="M47.969,15.738c1.136,1.308,0.9,2.165-0.423,3.068
			c-1.926,1.314-3.72,2.82-5.75,4.382c2.079,1.161,4.113,1.604,6.006,2.392c0.583,0.243,1.412,0.253,1.421,1.248
			c0.008,0.835-0.047,1.376-1.117,0.939c-1.922-0.783-3.872-1.496-5.808-2.246c-1.573-0.608-2.176-2.945-0.932-4.092
			C43.497,19.465,45.751,17.636,47.969,15.738z"/>
		<path fill-rule="evenodd" clip-rule="evenodd" fill="#5C4B3E" d="M26.134,44.451c-2.544-3.002-2.544-2.999-4.258,0.428
			c-0.554,1.109-1.162,2.198-1.651,3.334c-0.37,0.859-0.952,1.22-1.77,0.854c-1.15-0.514-0.199-1.132,0.057-1.643
			c0.867-1.723,1.795-3.417,2.685-5.131c0.94-1.812,2.812-2.207,4.287-0.718c2.134,2.152,4.132,4.441,6.28,6.772
			c-1.277,0.845-2.166,1.005-2.966-0.532c-0.497-0.954-1.37-1.711-2.074-2.556C26.527,44.991,26.331,44.722,26.134,44.451z"/>
		<path fill-rule="evenodd" clip-rule="evenodd" fill="#544436" d="M17.016,1.845c0.865-0.913,1.563-0.721,2.378,0.162
			c1.865,2.021,3.815,3.961,5.847,6.054c0.966-2.364,1.836-4.461,2.679-6.569c0.304-0.761,0.664-1.488,1.626-1.025
			C30.476,0.914,29.64,1.543,29.49,2c-0.533,1.637-1.191,3.234-1.804,4.845c-0.761,2-3.002,2.648-4.542,1.188
			C21.042,6.042,19.061,3.923,17.016,1.845z"/>
		<path fill-rule="evenodd" clip-rule="evenodd" fill="#544436" d="M10.352,18.011c-2.584-1.364-4.999-2.639-7.639-4.033
			c1.847-0.917,3.633-1.005,5.315-1.455c0.496-0.134,0.948-0.105,1.133,0.535C9.609,14.621,10.276,16.133,10.352,18.011z"/>
		<path fill-rule="evenodd" clip-rule="evenodd" fill="#544436" d="M40.02,44.003c-0.193-0.255-0.26-0.303-0.266-0.358
			c-0.561-4.938-0.561-4.938,5.639-5.582C44.238,40.71,42.25,42.395,40.02,44.003z"/>
		<path fill-rule="evenodd" clip-rule="evenodd" fill="#544436" d="M16.522,40.373c-1.34,2.031-2.68,4.06-4.272,6.47
			c-0.204-2.093-0.28-3.709-0.543-5.296c-0.215-1.308,0.339-1.79,1.506-1.764c1.188,0.031,2.44-0.938,3.564,0.203
			C16.694,40.115,16.607,40.244,16.522,40.373z"/>
		<path fill-rule="evenodd" clip-rule="evenodd" fill="#5C4B3E" d="M32.184,39.409c0.174-0.051,0.345-0.134,0.521-0.144
			c5.001-0.272,5.625,0.405,5.119,5.671c-1.75-2.013-3.446-3.965-5.144-5.917C32.514,39.151,32.35,39.28,32.184,39.409z"/>
		<path fill-rule="evenodd" clip-rule="evenodd" fill="#544436" d="M28.724,8.872c1.314-2.11,2.704-4.181,3.912-6.352
			c0.656-1.179,1.34-0.945,2.172-0.414c1.196,0.761,0.056,1.311-0.272,1.796c-1.046,1.549-2.284,2.97-3.292,4.542
			C30.517,9.577,29.809,9.757,28.724,8.872z"/>
		<path fill-rule="evenodd" clip-rule="evenodd" fill="#544436" d="M25.492,46.36c0.696,1.008,1.808,1.702,2.289,2.998
			c-1.983,0.878-4.015,0.649-6.257,0.496c0.649-1.443,1.269-2.792,1.865-4.152c0.531-1.21,0.992-0.291,1.477,0.033
			C25.073,45.943,25.283,46.15,25.492,46.36z"/>
		<path fill-rule="evenodd" clip-rule="evenodd" fill="#544436" d="M39.703,30.83c2.223,1.635,4.187,3.08,6.161,4.532
			c-0.441,0.602-0.897,0.44-1.272,0.485C39.569,36.46,39.567,36.455,39.703,30.83z"/>
		<path fill-rule="evenodd" clip-rule="evenodd" fill="#5C4B3E" d="M40.625,26.888c2.525,1.379,4.934,2.713,7.363,4.007
			c0.69,0.369,0.566,0.772,0.269,1.32c-0.346,0.639-0.719,0.661-1.32,0.307c-1.846-1.09-3.708-2.159-5.596-3.173
			C40.335,28.806,40.274,28.062,40.625,26.888z"/>
		<path fill-rule="evenodd" clip-rule="evenodd" fill="#544436" d="M40.045,19.381c-0.331-0.85-0.111-1.758,0.82-2.655
			c1.393-1.342,2.631-2.842,3.944-4.268c0.351-0.38,0.708-1.023,1.254-0.254c0.32,0.449,1.012,0.89,0.247,1.567
			C44.2,15.64,42.108,17.53,40.045,19.381z"/>
		<path fill-rule="evenodd" clip-rule="evenodd" fill="#544436" d="M9.617,29.878c0.477,0.677,0.303,1.449-0.536,2.25
			c-1.598,1.525-3.103,3.149-4.679,4.698c-0.312,0.31-0.583,1.159-1.25,0.371c-0.482-0.571-0.433-1.076,0.151-1.598
			C5.412,33.721,7.491,31.808,9.617,29.878z"/>
		<path fill-rule="evenodd" clip-rule="evenodd" fill="#5C4B3E" d="M20.749,8.989c-0.92,0.778-1.511,0.55-2.089,0.042
			c-1.718-1.512-3.451-3.005-5.157-4.53c-0.306-0.273-0.987-0.554-0.325-1.11c0.42-0.352,0.906-0.71,1.426-0.097
			c0.09,0.106,0.198,0.195,0.301,0.289C16.83,5.366,18.758,7.147,20.749,8.989z"/>
		<path fill-rule="evenodd" clip-rule="evenodd" fill="#5C4B3E" d="M35.744,46.489c0.021,0.459-0.366,0.502-0.648,0.681
			c-0.432,0.268-0.685,0.188-1.025-0.21c-1.655-1.947-3.36-3.852-5.036-5.782c-0.189-0.218-0.625-0.459-0.184-0.805
			c0.202-0.16,0.632-0.349,0.734-0.26c2.248,1.928,4.464,3.895,6.687,5.856C36.096,46.144,35.92,46.315,35.744,46.489z"/>
		<path fill-rule="evenodd" clip-rule="evenodd" fill="#544436" d="M16.819,9.713c-4.396,0.893-5.529,0.038-6.194-4.776
			C12.801,6.617,14.729,8.104,16.819,9.713z"/>
		<path fill-rule="evenodd" clip-rule="evenodd" fill="#544436" d="M4.957,39.514c1.928-2.249,3.521-4.109,5.142-6.001
			C11.247,37.185,10.18,38.555,4.957,39.514z"/>
		<path fill-rule="evenodd" clip-rule="evenodd" fill="#5C4B3E" d="M9.423,20.611c-0.083,0.533-0.238,1.005-1.034,0.654
			c-2.265-0.995-4.537-1.976-6.814-2.94c-0.641-0.271-0.526-0.699-0.346-1.179c0.145-0.389,0.397-0.524,0.791-0.348
			c2.317,1.044,4.637,2.087,6.956,3.131C9.237,20.048,9.445,20.21,9.423,20.611z"/>
		<path fill-rule="evenodd" clip-rule="evenodd" fill="#5C4B3E" d="M32.791,10.347c1.431-2.521,3.051-4.521,4.858-6.773
			C37.433,8.966,37.433,8.966,32.791,10.347z"/>
		<path fill-rule="evenodd" clip-rule="evenodd" fill="#544436" d="M18.005,40.449c0.355-0.327,0.694-0.689,1.229-0.281
			c0.608,0.468,0.095,0.863-0.093,1.243c-0.951,1.907-1.937,3.8-2.894,5.704c-0.341,0.68-0.635,1.169-1.535,0.597
			c-0.856-0.547-0.415-0.979-0.062-1.479c1.111-1.575,2.145-3.196,2.891-4.981C17.887,41.094,17.942,40.77,18.005,40.449z"/>
		<path fill-rule="evenodd" clip-rule="evenodd" fill="#544436" d="M24.948,27.452c-0.545,0.015-2.105-2.587-1.804-3.127
			c0.397-0.714,0.931-1.35,1.388-2.032c0.173-0.26,0.447-0.462,0.636-0.209c0.644,0.861,1.714,1.704,1.575,2.75
			c-0.122,0.913-1.03,1.724-1.599,2.574C25.116,27.447,25.015,27.439,24.948,27.452z"/>
		<path fill-rule="evenodd" clip-rule="evenodd" fill="#5C4B3E" d="M39.626,4.412c1.487,1.687,2.586,2.936,3.755,4.264
			c-1.215,0.697-2.374,0.385-3.413,0.695c-0.747,0.223-0.781-0.327-0.737-0.837C39.329,7.37,39.452,6.208,39.626,4.412z"/>
		<path fill-rule="evenodd" clip-rule="evenodd" fill="#5C4B3E" d="M10.141,45.332c-0.996-0.89-1.695-1.437-2.298-2.073
			c-0.578-0.611-1.847-1.327-1.405-1.957c0.603-0.862,2.027-0.433,3.102-0.499c0.573-0.036,0.586,0.486,0.594,0.886
			C10.156,42.755,10.141,43.826,10.141,45.332z"/>
		<path fill-rule="evenodd" clip-rule="evenodd" fill="#544436" d="M8.961,6.031C9.104,6.442,9.161,6.568,9.192,6.7
			c0.75,3.212-0.093,4.228-3.351,4.003c-0.731-0.05-0.946-0.351-0.442-1.024C6.383,8.362,7.46,7.156,8.961,6.031z"/>
		<path fill-rule="evenodd" clip-rule="evenodd" fill="#5C4B3E" d="M39.205,15.761c-0.216-5.079,0.007-5.329,4.445-5.269
			C42.225,12.18,40.824,13.839,39.205,15.761z"/>
		<path fill-rule="evenodd" clip-rule="evenodd" fill="#5C4B3E" d="M11.791,15.285c-0.668-1.292-1.077-3.212-0.508-3.734
			c0.988-0.904,2.677-0.118,4.237,0.186C14.248,12.947,13.081,14.056,11.791,15.285z"/>
		<path fill-rule="evenodd" clip-rule="evenodd" fill="#5C4B3E" d="M49.152,19.854c0.384,1.629,0.933,3.409,0.062,4.043
			c-0.874,0.637-2.363-0.568-3.903-1.062C46.682,21.77,47.84,20.871,49.152,19.854z"/>
		<path fill-rule="evenodd" clip-rule="evenodd" fill="#675749" d="M35.216,24.601c-1.98,0.764-3.969,0.888-6.246,0.147
			C31.181,23.291,33.181,23.524,35.216,24.601z"/>
		<path fill-rule="evenodd" clip-rule="evenodd" fill="#675749" d="M37.908,33.721c0.731,3.868,0.702,3.897-3.581,3.688
			C35.75,36.312,36.836,35.253,37.908,33.721z"/>
		<path fill-rule="evenodd" clip-rule="evenodd" fill="#675749" d="M15.029,38.105c-3.374,0.455-3.385,0.443-3.192-3.502
			C12.948,35.822,13.891,36.857,15.029,38.105z"/>
		<path fill-rule="evenodd" clip-rule="evenodd" fill="#5C4B3E" d="M14.277,25.236c2.226-1.259,4.1-1.332,6.479-0.689
			C18.605,25.807,16.701,25.618,14.277,25.236z"/>
		<path fill-rule="evenodd" clip-rule="evenodd" fill="#5C4B3E" d="M37.41,10.871c0,1.167,0,2.179,0,3.353
			c-1.347-0.445-2.038-1.59-3.217-2.353C35.222,11.078,36.367,11.349,37.41,10.871z"/>
		<path fill-rule="evenodd" clip-rule="evenodd" fill="#5C4B3E" d="M24.87,29.223c0.911,2.208,0.678,3.93-0.035,5.925
			C23.754,33.141,23.833,31.399,24.87,29.223z"/>
		<path fill-rule="evenodd" clip-rule="evenodd" fill="#675749" d="M24.881,19.637c-0.928-2.314-0.913-4.122-0.126-6.483
			C25.661,15.519,25.623,17.326,24.881,19.637z"/>
		<path fill-rule="evenodd" clip-rule="evenodd" fill="#675749" d="M22.201,21.708c-1.897-0.828-3.002-1.645-3.546-3.345
			C20.503,18.701,21.322,19.846,22.201,21.708z"/>
		<path fill-rule="evenodd" clip-rule="evenodd" fill="#675749" d="M26.191,29.273c1.764,0.78,2.256,1.935,2.063,3.635
			C26.924,32.051,26.697,30.749,26.191,29.273z"/>
		<path fill-rule="evenodd" clip-rule="evenodd" fill="#675749" d="M28.369,15.978c-0.427,1.784-0.548,3.128-1.985,4.014
			C26.254,18.369,26.907,17.3,28.369,15.978z"/>
		<path fill-rule="evenodd" clip-rule="evenodd" fill="#675749" d="M21.305,32.768c-0.26-1.647,0.399-2.702,1.556-3.842
			C23.215,30.725,22.48,31.747,21.305,32.768z"/>
		<path fill-rule="evenodd" clip-rule="evenodd" fill="#675749" d="M17.249,21.33c1.406-0.171,2.583,0.216,3.585,1.423
			C19.122,23.312,18.292,22.048,17.249,21.33z"/>
		<path fill-rule="evenodd" clip-rule="evenodd" fill="#675749" d="M33.163,27.633c-1.369,0.442-2.454-0.131-3.821-1.047
			C31.082,26.129,32.058,27.032,33.163,27.633z"/>
		<path fill-rule="evenodd" clip-rule="evenodd" fill="#675749" d="M20.737,26.517c-1.266,1.321-2.311,1.81-3.816,1.772
			C17.776,26.93,18.958,26.731,20.737,26.517z"/>
		<path fill-rule="evenodd" clip-rule="evenodd" fill="#675749" d="M21.26,16.571c0.935,0.895,1.637,1.896,1.583,3.449
			C21.641,19.048,21.29,17.885,21.26,16.571z"/>
		<path fill-rule="evenodd" clip-rule="evenodd" fill="#675749" d="M28.68,22.894c0.786-1.411,1.897-1.82,3.395-2.093
			C31.197,22.118,30.258,22.817,28.68,22.894z"/>
		<path fill-rule="evenodd" clip-rule="evenodd" fill="#5C4B3E" d="M21.887,27.312c-0.606,1.726-1.278,2.641-2.88,3.425
			C19.608,29.071,20.426,28.254,21.887,27.312z"/>
	</g>
</g>
</svg>
