<?xml version="1.0" encoding="utf-8"?>
<!-- Generator: Adobe Illustrator 16.2.1, SVG Export Plug-In . SVG Version: 6.00 Build 0)  -->
<!DOCTYPE svg PUBLIC "-//W3C//DTD SVG 1.1//EN" "http://www.w3.org/Graphics/SVG/1.1/DTD/svg11.dtd">
<svg version="1.1" id="Layer_1" xmlns="http://www.w3.org/2000/svg" xmlns:xlink="http://www.w3.org/1999/xlink" x="0px" y="0px"
	 width="50px" height="50px" viewBox="13.417 35.583 50 50" enable-background="new 13.417 35.583 50 50" xml:space="preserve">
<metadata><?xpacket begin="﻿" id="W5M0MpCehiHzreSzNTczkc9d"?>
<x:xmpmeta xmlns:x="adobe:ns:meta/" x:xmptk="Adobe XMP Core 5.3-c011 66.145661, 2012/02/06-14:56:27        ">
   <rdf:RDF xmlns:rdf="http://www.w3.org/1999/02/22-rdf-syntax-ns#">
      <rdf:Description rdf:about=""
            xmlns:dc="http://purl.org/dc/elements/1.1/">
         <dc:format>image/svg+xml</dc:format>
      </rdf:Description>
      <rdf:Description rdf:about=""
            xmlns:xmp="http://ns.adobe.com/xap/1.0/"
            xmlns:xmpGImg="http://ns.adobe.com/xap/1.0/g/img/">
         <xmp:CreatorTool>Adobe Illustrator CS6 (Macintosh)</xmp:CreatorTool>
         <xmp:CreateDate>2014-03-06T13:06:14+01:00</xmp:CreateDate>
         <xmp:ModifyDate>2014-03-06T13:06:14+01:00</xmp:ModifyDate>
         <xmp:MetadataDate>2014-03-06T13:06:14+01:00</xmp:MetadataDate>
         <xmp:Thumbnails>
            <rdf:Alt>
               <rdf:li rdf:parseType="Resource">
                  <xmpGImg:width>256</xmpGImg:width>
                  <xmpGImg:height>80</xmpGImg:height>
                  <xmpGImg:format>JPEG</xmpGImg:format>
                  <xmpGImg:image>/9j/4AAQSkZJRgABAgEASABIAAD/7QAsUGhvdG9zaG9wIDMuMAA4QklNA+0AAAAAABAASAAAAAEA&#xA;AQBIAAAAAQAB/+4ADkFkb2JlAGTAAAAAAf/bAIQABgQEBAUEBgUFBgkGBQYJCwgGBggLDAoKCwoK&#xA;DBAMDAwMDAwQDA4PEA8ODBMTFBQTExwbGxscHx8fHx8fHx8fHwEHBwcNDA0YEBAYGhURFRofHx8f&#xA;Hx8fHx8fHx8fHx8fHx8fHx8fHx8fHx8fHx8fHx8fHx8fHx8fHx8fHx8fHx8f/8AAEQgAUAEAAwER&#xA;AAIRAQMRAf/EAaIAAAAHAQEBAQEAAAAAAAAAAAQFAwIGAQAHCAkKCwEAAgIDAQEBAQEAAAAAAAAA&#xA;AQACAwQFBgcICQoLEAACAQMDAgQCBgcDBAIGAnMBAgMRBAAFIRIxQVEGE2EicYEUMpGhBxWxQiPB&#xA;UtHhMxZi8CRygvElQzRTkqKyY3PCNUQnk6OzNhdUZHTD0uIIJoMJChgZhJRFRqS0VtNVKBry4/PE&#xA;1OT0ZXWFlaW1xdXl9WZ2hpamtsbW5vY3R1dnd4eXp7fH1+f3OEhYaHiImKi4yNjo+Ck5SVlpeYmZ&#xA;qbnJ2en5KjpKWmp6ipqqusra6voRAAICAQIDBQUEBQYECAMDbQEAAhEDBCESMUEFURNhIgZxgZEy&#xA;obHwFMHR4SNCFVJicvEzJDRDghaSUyWiY7LCB3PSNeJEgxdUkwgJChgZJjZFGidkdFU38qOzwygp&#xA;0+PzhJSktMTU5PRldYWVpbXF1eX1RlZmdoaWprbG1ub2R1dnd4eXp7fH1+f3OEhYaHiImKi4yNjo&#xA;+DlJWWl5iZmpucnZ6fkqOkpaanqKmqq6ytrq+v/aAAwDAQACEQMRAD8A9U4q7FXYq7FXYq7FUJq+&#xA;k2Gr6ZcaZfxmWzu0Mc8YZkLKe3JCrD6DkoTMTY5sZREhReOa55M/NbyHW88jatcaxoce50a6pcSx&#xA;IP2URvtr/wAY+Lex65sYZsWXbIKl3uBPFlx7wNjuUvLX/OT9g7C280aU9nMDxkubOrxhu/KFyHQD&#xA;2ZjhydmHnA2jH2gP4gzq6/O38soNL/SI1qOdDslvErm4J8PRIV1+bAD3zFGiyk1TknV4wLt5re/8&#xA;5JeadV1dLHyd5fjmDkrFFcrLcTye/CB4wnvu3zzNj2dCIucnEOvlI1APc/L9zrFzotnPrVqllqkk&#xA;Ya7tYn9REfwDb9vc/M5q8giJHhNh2MCSBexTDIM3Yq7FXYq7FXYq7FXYq7FXYq7FXYq7FXYq7FXY&#xA;q7FXYq7FXYq7FXYq7FXYq7FXYqsnaZYZGhRZJgpMUbNwVmA+EFgG4gnvQ4QpeG+df+cgdY0yzl0p&#xA;tFn0XzVb3EXrRSlJoDArcnKSEKT6gFAeFKGoObTDoIyN3xQdbl1pAqqkwHzZL5p/NPWV1DQ/KBtk&#xA;Hw/W4EblLWlDPct6cLHbbYEeJzLxCGCNSl+Pc42TizG4xYFr2g6roGrT6TqsBtr62IEsRIb7QDAh&#xA;lJBBBqCMyseQTFjk4s4GJo832j5P8oeWPLmmxx6Hp8dmsyK0sg+OZ6iv7yVqu3308M5rNmlM+o29&#xA;BixRgPSE/wAqbXYq7FXYq7FXYq7FXYq7FXYq7FXYq7FXYq7FXYq7FXYq7FXYq7FXYq7FXYq7FUh8&#xA;x+evKnl1T+ldRihmAqLZT6kxr0/dpVt/E7ZVkzwhzLstD2RqdV/dQJHfyHzOzA5fzg8z69K1v5I8&#xA;uTXQqV+u3QPAH3ClY0/2Un0ZiHVyntji9JH2Z0+mHFrMwj/Rjz/WfhFUtvIH5pa5Ol15l80PYIrB&#xA;1s7AkUINRUR+lGCD3+LCMGWW8pV7mM+2ezdPEx0+AT/pT/bZ+5lfmz8tvL3mzS7Wz1szTXVmB6Gq&#xA;IUjuwRTkeSpw+Km440+nNrp888XIvEarHDMSa4fd0912ypF4qFqTQAVPU0+WUs3kH/OQn5bya9pM&#xA;fmHSrdpdX04COeGJSzz2xPYDctGxqPYn2zY6DUcB4TyLga3BxDiHMPVNF9b9DWHrgrN9Xi9UMKMG&#xA;4DlUdjXMCf1FzYcgjMiydirsVdirsVdirsVdirsVdirsVdirsVdirsVdirsVdirsVdirsVdirsVY&#xA;j5w/NHyp5X5QXM/1rUR0sLajyA/5ZrxT/ZGvgDmPm1UIc+bvOzPZ/U6veI4Yfzpcvh3/AAYd635w&#xA;+et4VHlbQpejnks7offaVtj2CKcxrzZf6MXe8PZXZ3P/AAjMP9L/AMT/ALosg8ufkn5O0phPfRtr&#xA;F8Tyea73Tl3IiHw7/wCXyy7HooR57l1mu9q9Xm9MD4UO6PP58/lTPYYYoYlihRY4kHFI0AVVA7AD&#xA;YZlgU83KRkbJsrsWLsVdirsVdirsVdirsVdirsVSLzL568p+WHt49d1BLF7oM0AdZG5BKBvsK3Tk&#xA;Mtx4Jz+kW1ZM0YfUaST/AJXb+Vv/AFf4v+RU/wD1Ty38ll/mtf5vF3u/5Xb+Vv8A1f4v+RU//VPH&#xA;8ll/mr+bxd7v+V2/lb/1f4v+RU//AFTx/JZf5q/m8Xe7/ldv5W/9X+L/AJFT/wDVPH8ll/mr+bxd&#xA;6O0T80vIOuanDpelavHdX9xy9GBUlUtwQu27Io2VSeuQnpckRZGzOGohI0DuyrKG52KuxV2KuxV2&#xA;KuxV2KuxV2Kqdzc29rbyXNzIsNvCpeWVyFVVUVJJPQDASALLPHjlOQjEXI8g8pv/ADh5v8+3sule&#xA;SA1hokTFLvXpAyFvaM05L7Bfi8eIzAlmnlNY9o972eHszS9mwGXWevMfpxjf59/3d1so8nflV5X8&#xA;tcbhYv0hqn2n1C5AZg3jGpqI/o398vw6WEN+ZdP2p7RajV+m+DH/ADY/p7/u8mZZkuhdirsVdirA&#xA;vPn5z+T/ACg0lpLKdQ1dB/xz7YglT4SyH4Y/lu3tmXg0c8m/IONm1cIbcykGk6z+ennGMXtnFZeU&#xA;tIk+KCS4jM9yyHoQkgavzKID2y2cMGPY3MtUZ5sm4qIRuraT+d2h2j6nZeZrbzH9WQyzaZcWENqZ&#xA;FUVZY2h+Jmp0HJcjCeCRox4fO2Uo5oixLi8qeHee/wA4vNXmTW2utOvr3SdPMUUcenW9w6KGCD1O&#xA;XpFA9ZOVCRWlM2mDRwhGiAS67NqpTNgkB9V+U7LULLyxpVpqU0lxqENrEt5NMxd2m4DnyYkk/FXr&#xA;mhyyBkSOVu6xAiIB5ovVdSttM0261G6JFtZxPPMRueMaljQeO2UykIgk9HJ0+CWbJHHH6pEAfF5d&#xA;5D/OfWPM3nSPSJNOhh065WUxMhdpo/TQuDI5PFgePHZBucwcGslOdVs9h2x7LYtJpDlE5GcavlRs&#xA;1sOf2l63mweJdirwT/nIrSrvXfOPlLQrJa3V2sscbH7I9WRByNOyhSx9s23Z8hCEpF1muiZTjEM2&#xA;0D8g/wAt9LtI47jT/wBJ3QUCW6unc8mpuRGrCNR4bfScxcmvyyOxpyIaLGBytg3/ADkH5E8oeX/J&#xA;lleaNpUFjdSajFC8sQIYxtBMxXcnaqA5laDPOcyJG9v1OPrcMIwBArdiX/OPXljQPMHmbUrbWrKO&#xA;+gisvUjjlBIV/VReQoR2OZHaGWUIgxNbtGhxxlIgi9nul7+Sf5YXcJifQooq9HgeWJgfGqMPxzVx&#xA;1uUdXYnSYz0eR6T5AbyP+fmhWFvI8unXJknsJn+2Y2glVkcgAclYEHxFD3zYTz+Lpyergxw+HnA6&#xA;PpPNK7d2KuxV2KuxV2KuxV2KuxV2KvJdZub38x/OU/lm0meDypozg6tNGaG4lViAgPhyUhe2xbwz&#xA;XzJzT4R9A5vbaXHDsrSDUSF6nL9AP8I7/lz94He9S07TrHTbKKxsIEtrSBeMUMYoqj+3qT3zOjER&#xA;FB47PnnlmZzJlI8yURkmp2KuxV2KvAvzm/PSaCe48teVJ+EkZMWoatGfiDDZooCOhHQv/wAD45tt&#xA;Hob9U/k6zVayvTH5o38lPyWhtYYPNPmiD1tRmpNYWEwqIQd1mlB6yN1UH7Pf4vsx1usv0Q5MtJpK&#xA;9Uub3DNW7FIvPHme38seVdR1qZgDaxH6uh/bnb4Ykp7uRX2y3BiM5iLXmycESXyX+Uvl39P/AJg6&#xA;NYuvK3ScXNyKVHpW49UhvZ+IT6c6DV5ODGS6PTQ4sgD7RzmnoGCfmF+Z35e6HDcaJrtw11LdRtFd&#xA;afar6kixyLQ8yCoQ0O1WDdxmRj0U8seXpYR7QGnyCYPribHwVvy18o+SdO02HXPLkcki6nCHS6uC&#xA;Wl9JqHhSgC0I3oMwo6SOGRHV3HaHb+o10R4hHBzoCh70681+c/LflWwF7rl4ttG1RDHu0srDtHGt&#xA;Wb37DvmViwyyGoh02TLGAuRQ/kjz/wCXfOdhNeaM8hW2k9KeGZOEiEiqkgFhRh0IOHNgljNSRhzR&#xA;yCwx78xNa/L3y35n0jzN5gvJv0xYQyx6fp8HGQskwZWkaOlRSpAYuo+eXaeGScTGI2LTnnjhISkd&#xA;wyTyX578vecdOkv9Fldkhf054ZV4SxtSo5LU7EdCDTKc2CWM1JuxZo5BYef/APOUP/KAaf8A9tWH&#xA;/qGuMy+zP7w/1f0hxe0PoHv/AFsH/wCcW/8AlL9W/wC2ef8Ak/HmV2n9A97j9nfWfc+mM0jt2C/m&#xA;Bffl5Y6vo+ueYtXFjqOgvJLZwQurSyesoVleFVklZTQdKfPMrBHIQYxFiTjZjjBEpGjFN4PzB8rv&#xA;5Qi823FybLRpgxjkuBxc8XZAAiliWYoaKN8rOnnx8HOTYM8eDi6JL5U/O3yL5m1lNHsZZ4b2av1c&#xA;XMXBZSoJKqwZt6CvxU+/LcuiyQjxHk149XCZoMh81+d/LHlSzW61y9S1WSohioXlkI6hI1BY+56D&#xA;ucpxYZZDUQ25M0YC5Fh5/POze2F9beVPMNxpfHmb9bIelwHVg3MqVp3JGZH5I3RlG/e4/wCcHMRl&#xA;XuT7yT+afk7zizQ6TdMl8i83sLlfTnC/zAVZWA78WNO+VZtLPHz5NuHUwycubLXdEQu7BUUVZmNA&#xA;AO5JzHb2FeYfzn/LnQiyXGrx3Vwv/HvZf6S1R2LJWNT/AKzDMrHo8kunzceeqxx6pz5k88eWPLem&#xA;R6jrV6tpDMoMEZBaWSorRI15M3XfsO+VY8MpmohsyZowFksJsf8AnJL8uLq+W2k+u2kbEAXc8K+l&#xA;v4+nJI4/4HMqXZ2QC9nGGvxk1uyzzN+Y3lfy7Hp8t9NJLDqQ5281rGZ09IAEysybcKNXapI3A2OY&#xA;+PTznddG/JnjCr6sJ/IeaLTX13y7qB9HXYboySwufidFUIStd24sCfpBzUaE8NxP1W997YQOUYs8&#xA;N8JjV93X4fseu5sHh3Yq7FXYq8q/Pz8yZPLOhLo2mSmPWtWRh6iGjQW32XkB6hnPwofmeozP0Gm4&#xA;5cR+kOFrc/BGhzLy3/nH78uo/MWvvrmoxeppGkMpRGFVmuvtIh8VjHxsP9XscztfqOCPCOZ+5wtF&#xA;g45cR5B9T5ondOxV8w/85C+f313VI9F09y2iaZM6SzL9ie9QAScT+0IVfj8yexGbzs/BwjiP1H7n&#xA;T67NxGhyH3p3/wA4teXg02s+YpF+wEsLZvdqSzfdSP78q7Tyco/Fs7Ohzl8HqfnbWNcuLuHyp5Zk&#xA;9HWr5BNd6iV5JYWfIqZj2MkhUrGvjU7UrmDhhEDjl9I6d5c3NKRPDHmfsD52/O3yv5e8u+Z7HR9F&#xA;Est2LRJNSnlkaWWa4lkc8nr+2woTx23GbjRZZTiZS79nVavHGEgB3Po2zltvIf5cWYu0eX9E2cMT&#xA;QxDlJNcsFQRxgV+KSZuK/PNMQcuQ11LtRWPGL6B5v+Y3lKOP8vdY82+dP9K81XqxLZw8yI7EPKvp&#xA;21uoPE8ASXb9rf3JzNPl/eCEPoH2+biZ8X7syn9R+xIfyQ1k+UvI/mHzE8TXNxqF1b6dpFiteVze&#xA;Ro5WNAN9/X3p2B75drYeJkjHuFn3NeknwQMu/Ye9kmu/kNqOs+V7vUdQuRe/mBfSJcyXMsrrBHuO&#xA;VsgWq8VTYEjqBSgyiGuEZgDbGPxbbPRmUbP1lk/5JflvqfknRb1dVkjbUNRlV5IoWLJGkakIORAq&#xA;1WatNsp1uoGWQrkG7SYDjBvmUm/5yh/5QDT/APtqw/8AUNcZZ2Z/eH+r+kNfaH0D3/rYP/zi3/yl&#xA;+rf9s8/8n48yu0/oHvcfs76z7n0bq+mQ6pp0+nzyTRQ3C8ZHt5GhlpUEhZEIYVpQ07ZpoS4TbtZR&#xA;sU+Uvzz8haX5Q8z20eleoLHULf1wkrmRllDsrgM3xEdD8Xjm/wBFnOSO/MOl1mEQltyLMvyy/La4&#xA;8/eUbCfzNdzQ6Bp0ctroljasELOXYy3Llg4J5kqNv2fDrjanU+FM8I9R5/qb9Pg8WA4vpHJOPKX/&#xA;ADjnNoPna11iTV1uNM0+Vbi2jEZWd3WpVX34KFNNwTy8BlWXtDjgY1uWzFoeGd3sHmXnW61vVfzp&#xA;li1WFriaPVY7a3smBZfqyTARIq/yvHv03qT3zOwiMcG3c4eUmWbfvfXYAAAAoBsAM553r5B88XZ8&#xA;pfnRf32mfufqOoJdIifCKSBZZEoP2W5spHgc6LAPEwAHqHRZjwZiR0L6s8weW9E8w6f+j9ZtReWf&#xA;NZPRZnUc1rQ1Qqdq5oMeSUDcTRd1PGJii+PPzT8uaf5b8/avo2nKUsbZ42t0ZixVZoUm48mqTx9S&#xA;m+dHpchnjEjzdDqMYhMgcn0D5R/KGw1SGDzH54lOv61exRvHDIWFrbRFQUijjBUNxB3rt7dzqMur&#xA;MfTj9MR83aYtKD6p+osE/wCcg/yy8u+X9PsNe0K1FjHNP9Uu7aMn0yzozxuqknj/AHbA026ZlaDU&#xA;ymTGRtxtbp4xAlHZPvyCs9I81eSjZa7ZpfnQrxlsWlqeMMwSX09j8S+opJU/D022yrXk453E1xBt&#xA;0QE4VIXwl6V5p/L3QfMNxHfSerY6vBT0NUs29KdadKkfap77+BGaTLp4z35Hveo7P7azaWJgKniP&#xA;OEt4/sUrLTfzG0xREuqWOtwLspvYpLWeg7GSH1VPzKYIxyR6iXv2Z5c+gy7+HPEf6JEh8pV96bw6&#xA;jry/716RuAa/VLmOYVHh6wtj+GWCUuo/H2OFLBhP05P9NEj/AHPEi1vLkoWNhOrDohaCp+VJSPxy&#xA;VnuaDijf1x/2X/Eq6SViEjqYtqsrlar8ypZfxyQapCjzt8T/AJg+aLjzZ5z1DVQWkjnlMVjHQ1EC&#xA;HhCoXxK7n3Jzp9Pi8OADzmfJxzJfXH5d+VIvKvk/TtHVQJ4ow94w/auJPilNe/xGg9gM57UZfEmZ&#xA;O9wY+CADI8pbXnX5n+c9RS4t/JPlZhJ5q1kcGkU/7x27D45nI+yeNSO4HxeFczTYR9c/oH2uJqMp&#xA;+iP1H7Hz3+bNtpuk+YYfK+mHlZ6BbpbyS7VmupP31xM3+UWcKfDiB2zb6QmUeM85Or1IEZcI/hfS&#xA;n5NeXv0F+XOkWzrxuLmP67cePK5PqAH3VCq/Rml1mTiyE/B2+lhw4wzSiglqAGlC3sP9vMZyHyt5&#xA;cH+P/wA+TfN+9svrr3lTuPq1l/cA+zCNF+nN9k/daeutfe6XH+9z30v7n1UQD1Fe/wB2aF3TwP8A&#xA;5yl8xcYtG8uxt9svf3K+y1ih/Eyfdm27Mx85fB1naM+Ufimf5GeWhfWmnavcLXTNCje30hCNpL2c&#xA;l766PjxZvQjPgvbIa7JRI6y5+7oP0s9HjsA9By9/U/oe05rHYOxV4/8A85Q/8oBp/wD21Yf+oa4z&#xA;Y9mf3h/q/pDgdofQPf8ArYP/AM4t/wDKX6t/2zz/AMn48yu0/oHvcfs76z7n0xmkdu+b/wDnKf8A&#xA;47+h/wDMJL/yczc9l/Sfe6ntH6g9Q/IT/wAlNoX/AEdf9Rk2YOu/vj8PuczRf3Q+P3vQMxHKSDzX&#xA;5p8peVYP0rrk8NtKVKQniGuJKfsRqBzbr8h3y7Fink2i1ZMkYbyYdp/nX8xPPCmTylp0egaExomu&#xA;aoPUmkXxgt1+GvzLL75kSw48X1nil3D9bRHLkyfQOGPeXzx+Z+n32n+fNWs76/fU7uKRPWv5FCNK&#xA;xiRqlVJC9aAZuNNIHGCBQdVqIkTIJt9r5zL0L4//AD7/APJs67/0a/8AUHDnRaH+5Hx+90Wt/vT8&#xA;PufWHl7/AI4Gmf8AMJB/ybXNBk+o+93cPpDzf/nJf/yXUX/bQg/4hJmb2b/efBw9f/d/FJ/+cWP+&#xA;OBrn/MXF/wAm8s7U+oe5h2d9Je4Zq3YuxV2KuxVj/wCYV3JZ+RPMNzESJY9OufTYbEMYmAP0E1y7&#xA;Ti8kR5hqzmoH3PkD8vYbafz55eiuSPQfUbUOG6Eesvwmvj0zodQSMcq7i6LALmPe+385h6JgX5k/&#xA;mfbeWwmjaTGdS8239I7DTovjKM+yyTAdBvVV6t8t8y9NpjP1HaA6uNn1HBsN5FR8heTR5M0bUvM/&#xA;mWf635kuopLzWr9m5mOONTIYkbpRQu9NifYDDnzeJIRj9PRGHF4YMpfV1fM2h2tz5y/MC1iud5da&#xA;1D1Lsr2WWT1JiP8AVXkc3cyMePb+EOngDkyb9S+lvzN86Xls1t5J8qEP5r1cCKMRmgsrcj4pnI+w&#xA;eFePgPi7Cuk02EH1z+gfa7fUZSPRH6j9it5zmh8h/k/dW0EzPJaWS2FtM5PN5pgIvU69auXp2pgw&#xA;jxc1+dpynw8VeVMA/wCcYNDit7PXPNF0RHEKWcUz0VVSMCaclj2+x92Zfac7IgHG7PhQMi9i8n+Z&#xA;/wDEunT6pFatb6e1xJHpsrn4ri3joouONBxDvy4jwAPfNdmxcBq9+rn4snGL6PmL8wJLzz5+cV1Y&#xA;WB5Ga7XTbRuqrHB+7eT/AFaq8h9s3mCsWGz3W6bPeTLQ9z6s0PRrLRdHs9JsU4WllEsMQ7kKKcj/&#xA;AJTHcnxzQTmZSJPV3cICIAHRHZFk7FXj/wDzlD/ygGn/APbVh/6hrjNj2Z/eH+r+kOB2h9A9/wCt&#xA;g/8Azi3/AMpfq3/bPP8AyfjzK7T+ge9x+zvrPufTGaR275v/AOcp/wDjv6H/AMwkv/JzNz2X9J97&#xA;qe0fqD1D8hP/ACU2hf8AR1/1GTZg67++Pw+5zNF/dD4/ezu6uYrW1muZaiKBGkkIFTxQFjQfIZig&#xA;Wackmhb5G0C/l/Mb83NPk8wyF7e+uSTbkngsEStKluvgp48duta9TnQZI+DhPD0dHA+LlHF1fXkU&#xA;UUMSRRIscUahI40AVVVRQAAbAAZzxLvQHxz+dhB/NLX/APjLH/yYjzo9F/dRdBq/70vsjOcd++P/&#xA;AM+//Js67/0a/wDUHDnRaH+5Hx+90Wt/vT8PufWHl7/jgaZ/zCQf8m1zQZPqPvd3D6Q83/5yX/8A&#xA;JdRf9tCD/iEmZvZv958HD1/938Un/wCcWP8Ajga5/wAxcX/JvLO1PqHuYdnfSXuGat2LsVdirsVQ&#xA;mr6bBqmk3umTkiC+gltpSOvCZCjU+hslCXCQe5jKNgjvfEnmXy1rvlTXZdP1CJ7a7tpKwTgFVkCt&#xA;8EsTd1PUEfrzp8eSOSNh57JjlCVF6hoH5o/nl5wtY9I0OCMyACOfV4oODAdC0szkwof9VQfDMHJp&#xA;sGM8Uvk5kNRmyCo/N6t+Wn5TWXlNpNV1Gf8ASvmi7qbrUpCW4F93WIv8W/7Tn4j7DbNfqdUcmw2j&#xA;3Obp9MIbneSr+eVzeQfldrjWqlndIo5Cv7MTzIshp4cSQcGiAOUWnWEjGafLvkTRfOWpa/bv5Uhm&#xA;OpW7hkuovhSGtRykkPwKtK/a69N83uecIx9fJ02GEzL0831N+W35Z23lOKa/vrg6n5m1AV1HVJCW&#xA;Y1oTHGW+LhUbk7t1PYDRanUnJsNojkHdYNPwbneR6sQ/5yilux5Q0uKMH6q9/wAp2A2DLE4QE+/J&#xA;syOzAOM+5x+0b4B72OflJ5W88eY/K0Og6gp0ryQJmubiVUaK6vw5DeiGJ/uiRuwG42qe12ry44T4&#xA;hvP7mrTY5zjwnaH3vctdlk0bypfyaTalpbCyk+oWcCcviijPpIiKOlQBQZq4DimLPMuxmeGJroHi&#xA;P/OOPkXVoPMGoeYdZsJ7U20Xo2TXUbxs0sxPqOvMAnii0J/ys2faOcGIjEuv0OEiRkQ+hc1DtHYq&#xA;gta1a30jTJtRuIppooOPKK2iaeU8mCDjGgLHdt/bJQhxGmM5cIt8/wD51+bta86WVlpWj+W9Xjsr&#xA;WY3M01xaSoXkCFE4oobYB23ObfRYo4yTKUb97q9XlOQACJr3MZ/Ka980+SPNJ1S58t6nc2Vxbva3&#xA;UcVrL6gVmVwyBlCkhox1I2rl+rEMsKEhfvadMZY5WYmn0Zp/5g6VeaPeaqLDU4IbExiaCaymWdjK&#xA;eK+nGAxk368a075ppaciQFjfzdtHOCCaO3k8B/OnUtd87eYLW40vy7qkdhYwGGN5rOVXkZnLM3EB&#xA;qL0A75ttHGOKJBkLPm6zVylklsDQ8mcfk558m8v+U4PL2vaHqts9k8pt7mOxuJY3jlkaWjcFLBgz&#xA;ntSmYuswcc+KJjv5uRpc3DHhkDt5PZ54YbyzkhkBMNzGUcbqeMi0PuNjmtBouwIsPjXzR5J84eQf&#xA;MYcxTJ9UmEunatChMT8DyR1ahUMP2lPT5Z0mLNDLH7w6DJhnil+l635V/MP88vN8CWen6TaWKMOE&#xA;2vTwSxxoO7qHYoz+yq3yAzX5dPgx7kk+TnY8+aewFebzf83fy413y35kaV2udVtb5EnOqOhYyTsB&#xA;64cqCAfUqwX+UjrmZpNRGcegro4mpwShLvvq9e8gefvzHudPi1bzVp7WmgWUXpcobSeS9vpm+FGW&#xA;JQ5CrSrMFVa/hr8+DGDUD6j57BzsObIRch6fduXjP5iWvmnzT5z1TXYPL+pRQXki+ij2kwcRxRrE&#xA;nIBSKlUBObLTmEICPENvNwM4lOZlR+T6Q/LjzpBquj6bptzY31hq0FrHHcQ3VpPFGWhQK7LMU9Kh&#xA;pUAsD7ZpdRh4ZEggi+922DLxAAgg+55z+fnmW98yabbeXtC0fU7lLe6+sXd39TuEjJjR41ROSAsK&#xA;uSTSmwpXM3Q4xA8UiOXe4mtyGY4Yg/JAfkLrt/5ROp6fr2janb2l60c0N2tjcyKjoCrK6xxs/wAQ&#xA;IpQdslroDJRiRt5hjopmFiQO/k//2Q==</xmpGImg:image>
               </rdf:li>
            </rdf:Alt>
         </xmp:Thumbnails>
      </rdf:Description>
      <rdf:Description rdf:about=""
            xmlns:xmpMM="http://ns.adobe.com/xap/1.0/mm/"
            xmlns:stRef="http://ns.adobe.com/xap/1.0/sType/ResourceRef#"
            xmlns:stEvt="http://ns.adobe.com/xap/1.0/sType/ResourceEvent#">
         <xmpMM:DocumentID>xmp.did:62E50CE21A20681183D1CBAA1C49A026</xmpMM:DocumentID>
         <xmpMM:InstanceID>xmp.iid:62E50CE21A20681183D1CBAA1C49A026</xmpMM:InstanceID>
         <xmpMM:OriginalDocumentID>uuid:9D01D167C16CDF11A97DE2A67F9CD460</xmpMM:OriginalDocumentID>
         <xmpMM:DerivedFrom rdf:parseType="Resource">
            <stRef:instanceID>xmp.iid:61E50CE21A20681183D1CBAA1C49A026</stRef:instanceID>
            <stRef:documentID>xmp.did:61E50CE21A20681183D1CBAA1C49A026</stRef:documentID>
            <stRef:originalDocumentID>uuid:9D01D167C16CDF11A97DE2A67F9CD460</stRef:originalDocumentID>
         </xmpMM:DerivedFrom>
         <xmpMM:History>
            <rdf:Seq>
               <rdf:li rdf:parseType="Resource">
                  <stEvt:action>saved</stEvt:action>
                  <stEvt:instanceID>xmp.iid:61E50CE21A20681183D1CBAA1C49A026</stEvt:instanceID>
                  <stEvt:when>2014-03-06T13:05:24+01:00</stEvt:when>
                  <stEvt:softwareAgent>Adobe Illustrator CS6 (Macintosh)</stEvt:softwareAgent>
                  <stEvt:changed>/</stEvt:changed>
               </rdf:li>
               <rdf:li rdf:parseType="Resource">
                  <stEvt:action>saved</stEvt:action>
                  <stEvt:instanceID>xmp.iid:62E50CE21A20681183D1CBAA1C49A026</stEvt:instanceID>
                  <stEvt:when>2014-03-06T13:06:14+01:00</stEvt:when>
                  <stEvt:softwareAgent>Adobe Illustrator CS6 (Macintosh)</stEvt:softwareAgent>
                  <stEvt:changed>/</stEvt:changed>
               </rdf:li>
            </rdf:Seq>
         </xmpMM:History>
      </rdf:Description>
      <rdf:Description rdf:about=""
            xmlns:xmpTPg="http://ns.adobe.com/xap/1.0/t/pg/"
            xmlns:stDim="http://ns.adobe.com/xap/1.0/sType/Dimensions#"
            xmlns:xmpG="http://ns.adobe.com/xap/1.0/g/">
         <xmpTPg:MaxPageSize rdf:parseType="Resource">
            <stDim:w>50.000000</stDim:w>
            <stDim:h>50.000000</stDim:h>
            <stDim:unit>Pixels</stDim:unit>
         </xmpTPg:MaxPageSize>
         <xmpTPg:NPages>1</xmpTPg:NPages>
         <xmpTPg:HasVisibleTransparency>False</xmpTPg:HasVisibleTransparency>
         <xmpTPg:HasVisibleOverprint>False</xmpTPg:HasVisibleOverprint>
         <xmpTPg:PlateNames>
            <rdf:Seq>
               <rdf:li>Cyan</rdf:li>
               <rdf:li>Magenta</rdf:li>
               <rdf:li>Yellow</rdf:li>
               <rdf:li>Black</rdf:li>
            </rdf:Seq>
         </xmpTPg:PlateNames>
         <xmpTPg:SwatchGroups>
            <rdf:Seq>
               <rdf:li rdf:parseType="Resource">
                  <xmpG:groupName>Default Swatch Group</xmpG:groupName>
                  <xmpG:groupType>0</xmpG:groupType>
               </rdf:li>
            </rdf:Seq>
         </xmpTPg:SwatchGroups>
      </rdf:Description>
   </rdf:RDF>
</x:xmpmeta>
                                                                                                    
                                                                                                    
                                                                                                    
                                                                                                    
                                                                                                    
                                                                                                    
                                                                                                    
                                                                                                    
                                                                                                    
                                                                                                    
                                                                                                    
                                                                                                    
                                                                                                    
                                                                                                    
                                                                                                    
                                                                                                    
                                                                                                    
                                                                                                    
                                                                                                    
                                                                                                    
                           
<?xpacket end="w"?>
	</metadata>
<g>
	<path fill="#084887" d="M63.002,61.61c0.221,0,0.396,0.18,0.396,0.403c0,0.228-0.176,0.405-0.398,0.405
		c-0.221,0-0.4-0.177-0.4-0.405c0-0.224,0.18-0.403,0.4-0.403H63.002z M63,61.673c-0.178,0-0.322,0.152-0.322,0.34
		c0,0.192,0.145,0.344,0.324,0.344c0.179,0.002,0.322-0.151,0.322-0.341c0-0.19-0.143-0.343-0.322-0.343H63z M62.925,62.249h-0.072
		v-0.451c0.038-0.004,0.073-0.01,0.128-0.01c0.066,0,0.112,0.015,0.139,0.033c0.027,0.021,0.042,0.051,0.042,0.094
		c0,0.06-0.04,0.095-0.089,0.11v0.003c0.041,0.008,0.066,0.043,0.076,0.109c0.011,0.069,0.021,0.096,0.029,0.11h-0.075
		c-0.011-0.015-0.022-0.055-0.031-0.115c-0.011-0.058-0.04-0.078-0.097-0.078h-0.05V62.249L62.925,62.249z M62.925,61.999h0.052
		c0.059,0,0.109-0.021,0.109-0.077c0-0.038-0.029-0.078-0.109-0.078c-0.023,0-0.041,0.002-0.052,0.004V61.999z"/>
</g>
<g>
	<path fill="#084887" d="M29.365,60.058c-0.404-0.52-0.828-0.673-1.482-0.673c-1.75,0-3.481,1.097-4.654,2.328
		c-1.098,1.154-2.213,3.098-2.213,4.733c0,0.941,0.441,1.981,1.52,1.981c2.27,0,4.848-3.676,5.926-5.445l-1.174,3.81
		c-0.096,0.327-0.212,0.712-0.212,1.077c0,0.327,0.173,0.559,0.52,0.559c0.771,0,1.81-0.905,2.29-1.424
		c0.23-0.25,1.02-1.252,1.02-1.597c0-0.077-0.059-0.154-0.135-0.154c-0.135,0-0.27,0.25-0.327,0.346
		c-0.231,0.366-1.135,1.578-1.616,1.578c-0.153,0-0.191-0.135-0.191-0.289c0-0.173,0.096-0.48,0.153-0.635l1.981-6.503
		c0.02-0.077,0.096-0.288,0.096-0.385c0-0.27-0.538-0.173-0.654-0.173c-0.635,0-0.615,0.096-0.788,0.692L29.365,60.058
		L29.365,60.058z M29.076,60.75c0,0.887-1.577,3.078-2.115,3.753c-0.674,0.847-2.387,2.905-3.56,2.905
		c-0.616,0-0.886-0.636-0.886-1.175c0-1.212,1.02-3.154,1.751-4.077c0.808-1.06,2.175-2.406,3.579-2.406
		C28.499,59.75,29.076,60.039,29.076,60.75L29.076,60.75z"/>
	<path fill="#084887" d="M32.789,63.175c0.029-0.116,0.115-0.36,0.115-0.49c0-0.116-0.028-0.26-0.172-0.26
		c-0.492,0-1.299,1.27-1.486,1.27c-0.059,0-0.088-0.044-0.088-0.116c0-0.188,0.592-0.821,0.708-0.938
		c0.36-0.347,1.153-1.055,1.702-1.055c0.346,0,0.447,0.217,0.447,0.534c0,0.274-0.174,0.794-0.246,1.054l-1.067,3.464
		c-0.058,0.187-0.13,0.388-0.13,0.576c0,0.145,0.059,0.261,0.188,0.261c0.361,0,1.098-1.025,1.27-1.314
		c0.044-0.086,0.102-0.188,0.202-0.188c0.072,0,0.087,0.043,0.087,0.102c0,0.245-0.461,0.836-0.605,1.023
		c-0.347,0.434-1.154,1.27-1.761,1.27c-0.375,0-0.446-0.244-0.446-0.577c0-0.375,0.158-0.923,0.26-1.27L32.789,63.175L32.789,63.175
		z"/>
	<path fill="#084887" d="M36.426,63.478c0.072-0.26,0.172-0.578,0.172-0.837c0-0.131-0.028-0.303-0.188-0.303
		c-0.332,0-0.895,0.721-1.067,0.967l-0.13,0.188c-0.043,0.058-0.13,0.216-0.217,0.216c-0.057,0-0.1-0.044-0.1-0.101
		c0-0.231,0.591-0.923,0.734-1.081c0.304-0.347,0.967-0.939,1.443-0.939c0.434,0,0.535,0.534,0.535,0.852
		c0,0.347-0.102,0.665-0.203,0.98l-0.62,2.036c0.534-0.952,1.948-3.868,3.188-3.868c0.434,0,0.723,0.274,0.723,0.722
		c0,0.39-0.232,0.852-0.664,0.852c-0.723,0-0.318-0.707-0.707-0.707c-0.391,0-1.27,1.299-1.429,1.558
		c-0.534,0.838-1.472,2.612-1.746,3.535c-0.159,0.534-0.115,0.649-0.692,0.649c-0.13,0-0.404,0.029-0.404-0.187
		c0-0.073,0.087-0.347,0.102-0.405L36.426,63.478L36.426,63.478z"/>
	<path fill="#084887" d="M39.186,58.649h8.2l0.073,2.454h-0.337c-0.171-0.771-0.388-1.272-0.65-1.504
		c-0.263-0.232-0.815-0.35-1.659-0.35H44.02v7.384c0,0.557,0.085,0.901,0.255,1.036c0.17,0.133,0.542,0.22,1.116,0.263v0.264h-4.209
		v-0.264c0.612-0.047,0.994-0.147,1.145-0.302c0.15-0.155,0.227-0.544,0.227-1.165V59.25H41.76c-0.8,0-1.345,0.115-1.633,0.345
		c-0.289,0.23-0.507,0.733-0.652,1.508h-0.361L39.186,58.649L39.186,58.649z"/>
	<path fill="#084887" d="M45.859,67.956c0.436-0.037,0.726-0.112,0.868-0.228s0.213-0.359,0.213-0.733V63.82
		c0-0.463-0.042-0.793-0.13-0.991c-0.086-0.199-0.244-0.299-0.475-0.299c-0.047,0-0.109,0.006-0.186,0.019
		c-0.078,0.012-0.16,0.025-0.244,0.046v-0.241c0.27-0.092,0.545-0.188,0.828-0.286c0.283-0.097,0.479-0.167,0.587-0.208
		c0.235-0.088,0.478-0.188,0.728-0.299c0.033,0,0.053,0.013,0.06,0.036c0.007,0.025,0.011,0.078,0.011,0.159v1.177
		c0.297-0.423,0.584-0.753,0.861-0.991s0.564-0.357,0.861-0.357c0.238,0,0.43,0.073,0.58,0.22c0.148,0.146,0.223,0.329,0.223,0.55
		c0,0.196-0.057,0.361-0.17,0.496c-0.113,0.134-0.256,0.202-0.428,0.202c-0.176,0-0.353-0.083-0.53-0.248
		c-0.179-0.163-0.319-0.246-0.421-0.246c-0.162,0-0.361,0.133-0.598,0.396c-0.236,0.265-0.354,0.536-0.354,0.816v3.152
		c0,0.393,0.094,0.666,0.283,0.819c0.188,0.153,0.504,0.225,0.943,0.215v0.24h-3.512V67.956L45.859,67.956z"/>
	<path fill="#084887" d="M50.832,66.803c0,0.438,0.148,0.801,0.441,1.085c0.295,0.286,0.643,0.429,1.044,0.429
		c0.383,0,0.787-0.126,1.212-0.377c0.252-0.149,0.556-0.378,0.911-0.685c0.014,0.284,0.093,0.526,0.237,0.731
		c0.145,0.203,0.377,0.306,0.699,0.306c0.275,0,0.545-0.09,0.811-0.268c0.176-0.116,0.338-0.267,0.489-0.449V67.22
		c-0.177,0.122-0.299,0.199-0.37,0.231c-0.071,0.031-0.162,0.048-0.271,0.048c-0.194,0-0.323-0.089-0.384-0.265
		c-0.039-0.104-0.058-0.293-0.058-0.567v-2.841c0-0.622-0.087-1.098-0.261-1.424c-0.322-0.595-0.939-0.892-1.848-0.892
		c-0.781,0-1.377,0.18-1.781,0.538c-0.406,0.358-0.608,0.702-0.608,1.03c0,0.169,0.057,0.322,0.171,0.46
		c0.113,0.139,0.275,0.208,0.488,0.208c0.137,0,0.255-0.03,0.354-0.092c0.175-0.103,0.262-0.284,0.262-0.546
		c0-0.036-0.012-0.122-0.035-0.256c-0.025-0.133-0.037-0.226-0.037-0.282c0-0.22,0.107-0.393,0.32-0.519
		c0.213-0.121,0.439-0.182,0.676-0.182c0.497,0,0.824,0.157,0.98,0.471c0.093,0.188,0.141,0.521,0.141,0.999v0.599
		c-1.283,0.485-2.14,0.869-2.568,1.152C51.172,65.55,50.832,66.121,50.832,66.803L50.832,66.803z M54.416,66.548
		c0,0.27-0.141,0.491-0.422,0.665c-0.283,0.175-0.577,0.262-0.885,0.262c-0.223,0-0.426-0.066-0.607-0.198
		c-0.279-0.203-0.418-0.521-0.418-0.949c0-0.534,0.334-1.011,1.005-1.432c0.35-0.218,0.792-0.416,1.327-0.596V66.548L54.416,66.548z
		"/>
	<path fill="#084887" d="M56.684,68.004c0.329-0.042,0.561-0.126,0.692-0.249c0.132-0.125,0.198-0.401,0.198-0.834v-3.606
		c0-0.298-0.029-0.508-0.086-0.629c-0.09-0.177-0.275-0.266-0.555-0.266c-0.042,0-0.086,0.003-0.131,0.008s-0.102,0.012-0.167,0.021
		v-0.241c0.194-0.054,0.653-0.192,1.378-0.417l0.667-0.208c0.032,0,0.054,0.011,0.062,0.034c0.006,0.021,0.01,0.054,0.01,0.094
		v1.008c0.43-0.397,0.767-0.671,1.01-0.819c0.365-0.227,0.745-0.341,1.138-0.341c0.317,0,0.608,0.092,0.87,0.276
		c0.506,0.356,0.758,0.994,0.758,1.912v3.295c0,0.336,0.068,0.58,0.205,0.73c0.137,0.149,0.365,0.226,0.685,0.231v0.192h-3.005
		v-0.192c0.338-0.048,0.576-0.143,0.711-0.287s0.202-0.458,0.202-0.94v-3.018c0-0.404-0.075-0.741-0.224-1.008
		s-0.424-0.398-0.824-0.398c-0.275,0-0.555,0.095-0.839,0.282c-0.159,0.108-0.362,0.288-0.614,0.537v3.966
		c0,0.339,0.075,0.564,0.225,0.68c0.151,0.115,0.389,0.177,0.713,0.187v0.192h-3.078V68.004L56.684,68.004z"/>
	<g>
		<path fill="#FE0B0A" d="M33.688,60.967c0.254,0.203,0.688,0.079,0.969-0.273c0.279-0.354,0.299-0.805,0.043-1.007
			c-0.254-0.202-0.688-0.079-0.969,0.274C33.451,60.315,33.432,60.765,33.688,60.967L33.688,60.967z"/>
		<path fill="#FE0B0A" d="M24.072,55.984c0,0-5.742,1.67-8.559,3.866c-2.816,2.198-2.402,3.541-1.043,4.281
			c1.32,0.718,5.529,0.67,5.529,0.67s-5.844,0.04-5.994-1.983c-0.244-3.278,10.604-6.424,10.604-6.424L24.072,55.984L24.072,55.984z
			"/>
	</g>
	<path fill="#084887" d="M25.818,55.905l0.135,0.477l-0.293,0.046L24.205,55.2l0.257-0.132l0.901,0.308l0.138-0.553l0.229-0.138
		l0.172,0.546c0,0,0.35-0.165,0.572-0.277c0.223-0.111,0.44-0.198,0.44-0.198l-2.909-1.806l0.275-0.211l3.08,1.122l0.882,0.275
		c0,0,1.296-0.601,1.637-0.738c0.343-0.139,0.678-0.027,0.81,0.005c0.132,0.033,0.447,0.224,0.02,0.48
		c-0.624,0.376-1.683,0.907-1.683,0.907l0.108,2.423l-0.277,0.066l-1.146-1.907L25.818,55.905L25.818,55.905z"/>
</g>
</svg>
