<?xml version="1.0" encoding="utf-8"?>
<!-- Generator: Adobe Illustrator 16.2.1, SVG Export Plug-In . SVG Version: 6.00 Build 0)  -->
<!DOCTYPE svg PUBLIC "-//W3C//DTD SVG 1.1//EN" "http://www.w3.org/Graphics/SVG/1.1/DTD/svg11.dtd">
<svg version="1.1"
	 id="Layer_1" xmlns:rdf="http://www.w3.org/1999/02/22-rdf-syntax-ns#" xmlns:cc="http://web.resource.org/cc/" xmlns:svg="http://www.w3.org/2000/svg" xmlns:dc="http://purl.org/dc/elements/1.1/" xmlns:sodipodi="http://sodipodi.sourceforge.net/DTD/sodipodi-0.dtd" xmlns:inkscape="http://www.inkscape.org/namespaces/inkscape" inkscape:version="0.45.1" sodipodi:version="0.32"
	 xmlns="http://www.w3.org/2000/svg" xmlns:xlink="http://www.w3.org/1999/xlink" x="0px" y="0px" width="50px" height="50px"
	 viewBox="356.5 92 50 50" enable-background="new 356.5 92 50 50" xml:space="preserve">
<path id="path353" fill="#DE0038" d="M356.5,133.155c0,0,5.34-0.667,12.669-7.784l23.996-26.435H406.5l-11.109,33.997L356.5,133.155
	z"/>
<path id="path355" fill="#FFFFFF" d="M373.259,124.199c0,0,0.183-0.219,0.337-0.219c0.17,0,0.319,0.219,0.319,0.219H373.259z
	 M397.897,110.888c0.158-0.011-4.93-0.252-6.562,0.067c-1.637,0.313-3.178,0.526-4.684,2.699c-1.506,2.158-2.868,4.34-3.767,5.59
	c-2.829,3.926-2.829,4.554-5.971,4.834c-1.687,0.149-2.135,0.062-2.559-0.137c-0.521-0.25-0.768-0.535-1.493,0.039
	c-0.83,0.667-1.974,0.502-1.946,0.605h23.997c0,0,1.163,0.037,1.575-0.697l-0.6-0.222c0,0-0.129,0.763-2.515,0.535
	c-2.382-0.222-5.496-0.811-5.496-0.811l7.388-10.429c0.459-0.569,1.087-1.164,1.685-1.694c0,0-2.983,0.314-4.239,2.134
	c-1.275,1.85-6.934,9.608-6.934,9.608l-0.386-0.062l7.229-10.048C392.625,112.896,393.682,111.201,397.897,110.888"/>
<path id="path357" fill="#FFFFFF" d="M373.592,122.982c-0.426,0-0.773,0.545-0.773,0.545h1.559
	C374.375,123.532,374.016,122.982,373.592,122.982"/>
</svg>
