<?xml version="1.0" encoding="utf-8"?>
<!-- Generator: Adobe Illustrator 16.2.1, SVG Export Plug-In . SVG Version: 6.00 Build 0)  -->
<!DOCTYPE svg PUBLIC "-//W3C//DTD SVG 1.1//EN" "http://www.w3.org/Graphics/SVG/1.1/DTD/svg11.dtd">
<svg version="1.1" id="Layer_1" xmlns="http://www.w3.org/2000/svg" xmlns:xlink="http://www.w3.org/1999/xlink" x="0px" y="0px"
	 width="50px" height="50px" viewBox="0 0 50 50" enable-background="new 0 0 50 50" xml:space="preserve">
<g>
	<path fill="#22356A" d="M37.824,2.166c-2.431,0.458-11.681,0.136-14.361,0.365c-2.68,0.226-6.418,1.212-7.948,2.603
		c-1.562,1.423-2.767,6.183-3.564,7.585c-0.516,0.907-1.834,0.444-1.888-0.244c-0.075-1.031-0.267-2.012-0.658-2.765
		c-0.65-1.254-1.992-1.809-4.114-0.928c-1.729,0.719-2.891,2.466-1.963,4.371c0.573,1.166,1.865,2.194,3.489,2.706
		c0.928,0.29,0.835,1.305,0.35,2.147c-1.47,2.539-1.508,4.97-0.681,7.187c1.375,3.698,5.146,6.8,8.685,8.783
		c4.797,2.703,10.792,5.313,13.448,6.516c4.744,2.148,10.325,6.507,13.305,9.508c-0.113-2.399-3.833-5.684-5.565-7.615
		c-1.732-1.943-2.986-3.901-4.558-4.595c-1.573-0.694-5-1.974-6.291-2.774c-1.29-0.803-3.328-3.11-4.358-4.502
		c-1.033-1.396-2.847-3.136-4.648-3.577c-6.375-1.562-3.468-14.063,1.581-15.623c2.035-0.63,5.52-2.146,7.01-2.074
		c1.495,0.069,5.442,0.165,10.057-1.791c4.615-1.958,8.12-5.931,8.664-7.449C42.686,0.437,40.25,1.714,37.824,2.166z"/>
	<path fill="#22356A" d="M40.481,7.593c-0.817,0.362-1.64,2.513-2.164,4.872c-0.812,3.667-0.945,26.687,0.606,30.223
		c0.16,0.802,0.658,0.725,0.73,0.205c-0.215-6.213,1.665-24.262,2.482-31.859C42.439,8.232,41.52,7.128,40.481,7.593z"/>
	<path fill="#22356A" d="M33.688,37.39c-0.169-4.853,1.3-18.923,1.938-24.848c0.236-2.187-0.483-3.05-1.29-2.683
		c-0.632,0.283-1.279,1.958-1.691,3.797c-0.632,2.858-0.74,20.813,0.473,23.568C33.246,37.852,33.631,37.79,33.688,37.39z"/>
	<path fill="#22356A" d="M28.019,31.88c-0.231-3.566,0.553-13.97,0.894-18.352c0.128-1.616-0.421-2.233-1.009-1.953
		c-0.46,0.226-0.9,1.475-1.162,2.839c-0.409,2.119-0.098,15.353,0.851,17.362C27.703,32.229,27.983,32.184,28.019,31.88z"/>
	<path fill="#22356A" d="M21.605,12.663c-0.344,0.19-0.622,1.159-0.766,2.21c-0.219,1.628,0.578,11.691,1.387,13.176
		c0.103,0.348,0.314,0.298,0.327,0.064c-0.327-2.706-0.172-10.661-0.098-14.007C22.484,12.868,22.042,12.418,21.605,12.663z"/>
</g>
</svg>
