<?xml version="1.0" encoding="utf-8"?>
<!-- Generator: Adobe Illustrator 16.2.1, SVG Export Plug-In . SVG Version: 6.00 Build 0)  -->
<!DOCTYPE svg PUBLIC "-//W3C//DTD SVG 1.1//EN" "http://www.w3.org/Graphics/SVG/1.1/DTD/svg11.dtd">
<svg version="1.1" id="Layer_1" xmlns="http://www.w3.org/2000/svg" xmlns:xlink="http://www.w3.org/1999/xlink" x="0px" y="0px"
	 width="50px" height="50px" viewBox="0 0 50 50" enable-background="new 0 0 50 50" xml:space="preserve">
<path fill-rule="evenodd" clip-rule="evenodd" fill="#DA4834" d="M5.25,23.399c2.107,1.985,4.175,3.941,6.249,5.893
	c1.924,1.806,3.887,3.572,5.776,5.417c4.031,3.933,8.973,5.155,14.416,4.967c0.571-0.02,1.146-0.003,1.736,0.072
	c-2.165,1.053-4.458,1.714-6.796,2.207c-5.601,1.184-11.202,1.486-16.73-0.36c-3.265-1.09-6.216-2.728-8.17-5.693
	c-2.56-3.884-2.038-7.832-0.006-11.726c1.954-3.744,5.164-6.26,8.536-8.636c2.82-1.988,5.477-2.771,9.33-2.771
	c2.364,0,4.314-0.062,6.394,0.68c0.454,0.16,0.916,0.321,1.333,0.553c2.347,1.3,2.872,3.586,1.253,5.722
	c-1.687,2.226-4.086,3.19-6.773,3.36c-5.089,0.321-10.188,0.064-15.282,0.14C6.128,23.229,5.716,23.101,5.25,23.399z"/>
<path fill-rule="evenodd" clip-rule="evenodd" fill="#11639F" d="M20.044,25.368c3.987-0.041,7.625-0.078,11.221-0.721
	c1.873-0.335,3.699-0.824,5.343-1.823c2.353-1.428,3.443-3.54,3.224-6.274c-0.17-2.136-1.553-3.38-3.384-4.194
	c-2.104-0.938-4.352-1.271-6.626-1.309c-4.053-0.068-8.109-0.038-12.164-0.054c-4.389-0.017-8.778-0.042-13.167-0.063
	c-0.212,0-0.426,0-0.864,0c1.09-1.643,2.55-2.108,4.177-2.162c2.155-0.073,4.312-0.075,6.468-0.097
	c2.677-0.025,5.356-0.056,8.033-0.056c0.54,0,1.021-0.139,1.504-0.337c2.131-0.868,4.296-1.661,6.38-2.635
	c1.523-0.71,3.061-0.69,4.88-0.597c-1.319,1.407-2.517,2.686-3.835,4.092c1.415,0.116,2.688,0.188,3.953,0.33
	c3.392,0.373,6.663,1.176,9.577,3.037c5.169,3.302,6.638,8.676,3.843,14.138c-1.795,3.506-4.532,6.167-7.891,8.145
	c-2.822,1.66-5.692,1.379-8.457-0.276c-0.54-0.324-1.06-0.69-1.563-1.068C27.23,30.823,23.771,28.194,20.044,25.368z"/>
</svg>
