<?xml version="1.0" encoding="utf-8"?>
<!-- Generator: Adobe Illustrator 16.2.1, SVG Export Plug-In . SVG Version: 6.00 Build 0)  -->
<!DOCTYPE svg PUBLIC "-//W3C//DTD SVG 1.1//EN" "http://www.w3.org/Graphics/SVG/1.1/DTD/svg11.dtd">
<svg version="1.1" id="Layer_1" xmlns="http://www.w3.org/2000/svg" xmlns:xlink="http://www.w3.org/1999/xlink" x="0px" y="0px"
	 width="50px" height="50px" viewBox="103 83.5 50 50" enable-background="new 103 83.5 50 50" xml:space="preserve">
<g id="_x23_f06519ff">
	<path fill="#F06519" d="M129.022,83.5h1.156c0.887,0.079,1.763,0.297,2.567,0.684c2.073,0.988,3.592,2.821,4.747,4.758
		c1.832,3.127,2.924,6.619,3.79,10.12c1.152,4.786,1.812,9.676,2.261,14.576c0.448,5.156,0.68,10.334,0.631,15.507
		c-1.151-1.095-2.252-2.243-3.351-3.391c-4.086-4.313-7.983-8.818-11.528-13.593c-2.436-3.304-4.719-6.739-6.548-10.423
		c-1.159-2.374-2.151-4.866-2.555-7.491c-0.296-1.998-0.205-4.14,0.755-5.957c0.866-1.678,2.421-2.9,4.121-3.666
		C126.319,84.049,127.644,83.61,129.022,83.5 M126.114,86.908c-1.037,0.49-2.011,1.183-2.659,2.142
		c-0.792,1.114-1.091,2.503-1.087,3.85c0.037,1.925,0.562,3.81,1.269,5.591c0.815,2.083,1.878,4.062,3.026,5.979
		c1.931,3.18,4.118,6.195,6.433,9.104c2.171,2.744,4.471,5.389,6.84,7.964c0.648,0.632,1.191,1.368,1.892,1.942
		c0.049-0.588,0-1.179,0-1.768c-0.181-5.335-0.593-10.667-1.402-15.943c-0.634-3.988-1.45-7.974-2.893-11.753
		c-0.703-1.806-1.556-3.576-2.757-5.105c-1.023-1.277-2.367-2.399-4.003-2.748C129.191,85.794,127.547,86.221,126.114,86.908z"/>
	<path fill="#F06519" d="M116.105,116.354c1.765-0.523,3.654-0.208,5.376,0.331c2.221,0.713,4.291,1.825,6.273,3.042
		c4.307,2.695,8.227,5.961,11.972,9.385c1.532,1.43,3.062,2.861,4.498,4.387c-2.712,0.014-5.425-0.104-8.131-0.291
		c-4.78-0.353-9.568-0.93-14.205-2.178c-2.569-0.723-5.152-1.622-7.321-3.219c-1.435-1.058-2.642-2.603-2.792-4.436v-0.969
		c0.122-1.211,0.572-2.369,1.16-3.426C113.623,117.759,114.745,116.753,116.105,116.354 M116.394,118.145
		c-0.887,0.386-1.591,1.112-2.039,1.963c-0.44,0.841-0.783,1.766-0.785,2.729c-0.019,1.114,0.476,2.193,1.231,2.997
		c0.796,0.874,1.815,1.512,2.86,2.047c2.645,1.298,5.53,2.003,8.41,2.558c2.941,0.543,5.916,0.892,8.898,1.124
		c1.736,0.122,3.477,0.244,5.22,0.24c-0.533-0.622-1.15-1.169-1.751-1.723c-1.834-1.715-3.735-3.358-5.696-4.928
		c-2.42-1.918-4.932-3.742-7.646-5.225c-1.57-0.835-3.2-1.605-4.948-1.981C118.914,117.686,117.571,117.623,116.394,118.145z"/>
</g>
<g id="_x23_f79515ff">
	<path fill="#F79515" d="M126.114,86.908c1.434-0.688,3.077-1.114,4.659-0.746c1.636,0.349,2.98,1.471,4.003,2.748
		c1.201,1.529,2.055,3.3,2.757,5.105c1.443,3.779,2.259,7.765,2.893,11.753c0.81,5.276,1.221,10.608,1.402,15.943
		c0,0.589,0.049,1.18,0,1.768c-0.701-0.574-1.244-1.311-1.892-1.942c-2.369-2.575-4.669-5.22-6.84-7.964
		c-2.316-2.908-4.502-5.924-6.433-9.104c-1.147-1.916-2.211-3.896-3.026-5.979c-0.707-1.781-1.232-3.664-1.269-5.591
		c-0.003-1.347,0.294-2.735,1.087-3.85C124.104,88.091,125.077,87.398,126.114,86.908 M127.619,89.139
		c-1.104,0.419-2.092,1.262-2.495,2.396c-0.492,1.356-0.303,2.846,0.047,4.214c0.637,2.376,1.792,4.575,3.032,6.686
		c1.849,3.079,3.981,5.978,6.224,8.779c1.588,1.952,3.195,3.894,4.929,5.719c-0.066-1.986-0.288-3.967-0.496-5.945
		c-0.488-4.247-1.16-8.487-2.311-12.61c-0.635-2.217-1.398-4.424-2.595-6.406c-0.742-1.193-1.684-2.351-3-2.928
		C129.896,88.573,128.663,88.678,127.619,89.139z"/>
	<path fill="#F79515" d="M116.394,118.145c1.177-0.521,2.52-0.459,3.753-0.199c1.749,0.374,3.377,1.146,4.948,1.979
		c2.716,1.483,5.226,3.308,7.647,5.226c1.96,1.569,3.862,3.213,5.696,4.928c0.602,0.554,1.218,1.101,1.75,1.725
		c-1.743,0.002-3.483-0.118-5.219-0.242c-2.983-0.23-5.958-0.579-8.899-1.124c-2.879-0.557-5.764-1.26-8.409-2.558
		c-1.045-0.537-2.063-1.171-2.86-2.047c-0.756-0.804-1.25-1.883-1.232-2.995c0.002-0.963,0.345-1.888,0.785-2.73
		C114.803,119.257,115.507,118.53,116.394,118.145 M117.411,119.788c-0.596,0.236-1.088,0.693-1.399,1.249
		c-0.441,0.793-0.676,1.756-0.395,2.642c0.288,0.878,0.984,1.55,1.721,2.067c1.379,0.938,2.97,1.502,4.561,1.971
		c2.029,0.585,4.111,0.971,6.198,1.279c2.499,0.349,5.013,0.63,7.536,0.707c-0.261-0.309-0.579-0.557-0.881-0.821
		c-1.246-1.078-2.52-2.128-3.83-3.128c-2.39-1.825-4.87-3.563-7.576-4.889c-1.082-0.521-2.211-0.975-3.395-1.203
		C119.113,119.509,118.217,119.472,117.411,119.788z"/>
</g>
<g id="_x23_ffcf02ff">
	<path fill="#FFCF02" d="M127.619,89.139c1.043-0.463,2.276-0.565,3.336-0.099c1.315,0.577,2.258,1.736,3,2.928
		c1.196,1.984,1.96,4.189,2.595,6.408c1.151,4.123,1.822,8.363,2.312,12.61c0.208,1.977,0.429,3.959,0.496,5.945
		c-1.733-1.827-3.341-3.769-4.929-5.719c-2.244-2.802-4.375-5.7-6.225-8.779c-1.24-2.112-2.395-4.31-3.032-6.686
		c-0.351-1.368-0.541-2.859-0.047-4.214C125.527,90.4,126.514,89.558,127.619,89.139z"/>
	<path fill="#FFCF02" d="M117.411,119.788c0.806-0.316,1.703-0.279,2.541-0.126c1.183,0.23,2.312,0.682,3.395,1.205
		c2.705,1.325,5.185,3.063,7.575,4.887c1.31,1,2.584,2.05,3.83,3.128c0.303,0.265,0.62,0.515,0.881,0.821
		c-2.522-0.077-5.037-0.358-7.536-0.705c-2.087-0.309-4.168-0.694-6.198-1.281c-1.59-0.469-3.181-1.031-4.561-1.969
		c-0.735-0.52-1.433-1.191-1.721-2.069c-0.281-0.884-0.046-1.849,0.396-2.642C116.323,120.481,116.815,120.024,117.411,119.788z"/>
</g>
</svg>
