<?xml version="1.0" encoding="utf-8"?>
<!-- Generator: Adobe Illustrator 16.2.1, SVG Export Plug-In . SVG Version: 6.00 Build 0)  -->
<!DOCTYPE svg PUBLIC "-//W3C//DTD SVG 1.1//EN" "http://www.w3.org/Graphics/SVG/1.1/DTD/svg11.dtd">
<svg version="1.1" id="Layer_1" xmlns="http://www.w3.org/2000/svg" xmlns:xlink="http://www.w3.org/1999/xlink" x="0px" y="0px"
	 width="50px" height="50px" viewBox="0 0 50 50" enable-background="new 0 0 50 50" xml:space="preserve">
<g>
	<polygon fill-rule="evenodd" clip-rule="evenodd" fill="#F58220" points="0,8.408 50,8.408 50,42.565 0,42.565 0,8.408 	"/>
	<path fill-rule="evenodd" clip-rule="evenodd" fill="#FFFFFF" d="M1.368,40.63H3.26v-0.322H1.751v-3.056H1.368V40.63L1.368,40.63z
		 M3.596,40.63h0.346v-2.442H3.596V40.63L3.596,40.63z M3.568,37.663H3.97v-0.411H3.568V37.663L3.568,37.663z M4.596,40.63h0.337
		v-1.822c0.223-0.247,0.452-0.368,0.696-0.368c0.289,0,0.392,0.159,0.392,0.508v1.683h0.331v-1.808c0-0.435-0.233-0.678-0.634-0.678
		c-0.295,0-0.547,0.136-0.81,0.412v-0.369H4.596V40.63L4.596,40.63z M6.963,40.63H7.3v-1.822c0.233-0.247,0.477-0.368,0.738-0.368
		c0.308,0,0.416,0.159,0.416,0.508v1.683h0.332v-1.808c0-0.435-0.238-0.678-0.659-0.678c-0.312,0-0.561,0.126-0.826,0.401v-1.294
		H6.963V40.63L6.963,40.63z M10.659,40.299l0.037,0.331h0.374v-0.036c-0.032-0.108-0.051-0.229-0.051-0.36v-1.364
		c0-0.463-0.304-0.725-0.817-0.725c-0.42,0-0.729,0.173-0.912,0.519l0.294,0.159c0.125-0.253,0.337-0.383,0.598-0.383
		c0.295,0,0.49,0.162,0.49,0.383V39c-0.995,0.191-1.462,0.457-1.462,0.994c0,0.397,0.276,0.674,0.673,0.674
		C10.176,40.668,10.434,40.541,10.659,40.299L10.659,40.299z M10.672,39.99c-0.28,0.247-0.514,0.374-0.728,0.374
		c-0.248,0-0.397-0.146-0.397-0.364c0-0.347,0.363-0.528,1.125-0.684V39.99L10.672,39.99z M11.326,40.21
		c0.2,0.294,0.542,0.464,0.925,0.464c0.542,0,0.874-0.301,0.874-0.735c0-0.34-0.187-0.546-0.594-0.677
		c-0.258-0.085-0.487-0.112-0.649-0.229c-0.08-0.056-0.123-0.149-0.123-0.251c0-0.216,0.16-0.356,0.412-0.356
		c0.242,0,0.454,0.117,0.636,0.351l0.224-0.225c-0.233-0.274-0.519-0.406-0.879-0.406c-0.435,0-0.737,0.271-0.737,0.669
		c0,0.322,0.2,0.541,0.616,0.668c0.476,0.144,0.751,0.168,0.751,0.495c0,0.246-0.191,0.411-0.489,0.411
		c-0.275,0-0.504-0.131-0.696-0.394L11.326,40.21L11.326,40.21z M16.184,40.299l0.037,0.331h0.374v-0.036
		c-0.032-0.108-0.051-0.229-0.051-0.36v-1.364c0-0.463-0.304-0.725-0.817-0.725c-0.42,0-0.728,0.173-0.911,0.519l0.293,0.159
		c0.127-0.253,0.337-0.383,0.598-0.383c0.295,0,0.492,0.162,0.492,0.383V39c-0.996,0.191-1.463,0.457-1.463,0.994
		c0,0.397,0.276,0.674,0.674,0.674C15.702,40.668,15.96,40.541,16.184,40.299L16.184,40.299z M16.198,39.99
		c-0.28,0.247-0.514,0.374-0.729,0.374c-0.247,0-0.397-0.146-0.397-0.364c0-0.347,0.364-0.528,1.126-0.684V39.99L16.198,39.99z
		 M17.612,37.888h0.243l0.641-0.795h-0.407L17.612,37.888L17.612,37.888z M18.649,39.942c-0.145,0.286-0.392,0.439-0.696,0.439
		c-0.391,0-0.663-0.308-0.663-0.826v-0.08h1.556v-0.102c0-0.79-0.359-1.229-0.953-1.229c-0.579,0-0.953,0.457-0.953,1.262
		c0,0.831,0.35,1.268,0.982,1.268c0.467,0,0.784-0.184,0.976-0.576L18.649,39.942L18.649,39.942z M17.294,39.187
		c0.019-0.485,0.244-0.753,0.603-0.753c0.346,0,0.58,0.271,0.589,0.753H17.294L17.294,39.187z M19.256,40.63h0.347v-1.359
		c0.149-0.504,0.41-0.771,0.741-0.771h0.042v-0.336c-0.028-0.006-0.051-0.006-0.079-0.006c-0.322,0-0.542,0.192-0.705,0.584v-0.555
		h-0.347V40.63L19.256,40.63z M22.138,39.942c-0.145,0.286-0.392,0.439-0.696,0.439c-0.392,0-0.663-0.308-0.663-0.826v-0.08h1.554
		v-0.102c0-0.79-0.359-1.229-0.952-1.229c-0.581,0-0.954,0.457-0.954,1.262c0,0.831,0.352,1.268,0.981,1.268
		c0.468,0,0.785-0.184,0.976-0.576L22.138,39.942L22.138,39.942z M20.784,39.187c0.018-0.485,0.242-0.753,0.603-0.753
		c0.345,0,0.58,0.271,0.588,0.753H20.784L20.784,39.187z M24.006,40.299l0.038,0.331h0.374v-0.036
		c-0.034-0.108-0.051-0.229-0.051-0.36v-1.364c0-0.463-0.305-0.725-0.818-0.725c-0.42,0-0.729,0.173-0.911,0.519l0.294,0.159
		c0.127-0.253,0.336-0.383,0.599-0.383c0.293,0,0.49,0.162,0.49,0.383V39c-0.995,0.191-1.462,0.457-1.462,0.994
		c0,0.397,0.276,0.674,0.673,0.674C23.525,40.668,23.781,40.541,24.006,40.299L24.006,40.299z M24.021,39.99
		c-0.281,0.247-0.515,0.374-0.729,0.374c-0.249,0-0.398-0.146-0.398-0.364c0-0.347,0.365-0.528,1.126-0.684V39.99L24.021,39.99z
		 M24.673,40.21c0.201,0.294,0.542,0.464,0.925,0.464c0.542,0,0.874-0.301,0.874-0.735c0-0.34-0.187-0.546-0.594-0.677
		c-0.256-0.085-0.485-0.112-0.649-0.229c-0.079-0.056-0.12-0.149-0.12-0.251c0-0.216,0.158-0.356,0.41-0.356
		c0.244,0,0.453,0.117,0.635,0.351l0.225-0.225c-0.234-0.274-0.518-0.406-0.878-0.406c-0.434,0-0.738,0.271-0.738,0.669
		c0,0.322,0.201,0.541,0.617,0.668c0.477,0.144,0.752,0.168,0.752,0.495c0,0.246-0.192,0.411-0.491,0.411
		c-0.276,0-0.505-0.131-0.696-0.394L24.673,40.21L24.673,40.21z M28.293,40.63h0.346v-2.442h-0.346V40.63L28.293,40.63z
		 M28.266,37.663h0.401v-0.411h-0.401V37.663L28.266,37.663z M29.293,40.63h0.337v-1.822c0.224-0.247,0.453-0.368,0.695-0.368
		c0.291,0,0.393,0.159,0.393,0.508v1.683h0.332v-1.808c0-0.435-0.233-0.678-0.635-0.678c-0.295,0-0.546,0.136-0.809,0.412v-0.369
		h-0.312V40.63L29.293,40.63z M32.627,40.335c-0.074,0.02-0.145,0.038-0.238,0.038c-0.285,0-0.322-0.084-0.322-0.331v-1.565h0.556
		v-0.289h-0.556v-0.79h-0.355v0.79h-0.366v0.289h0.366v1.719c0,0.318,0.187,0.479,0.555,0.479c0.135,0,0.253-0.015,0.36-0.053
		V40.335L32.627,40.335z M34.458,39.942c-0.145,0.286-0.392,0.439-0.696,0.439c-0.391,0-0.663-0.308-0.663-0.826v-0.08h1.556v-0.102
		c0-0.79-0.359-1.229-0.953-1.229c-0.581,0-0.954,0.457-0.954,1.262c0,0.831,0.352,1.268,0.982,1.268
		c0.467,0,0.785-0.184,0.976-0.576L34.458,39.942L34.458,39.942z M33.104,39.187c0.018-0.485,0.242-0.753,0.603-0.753
		c0.346,0,0.58,0.271,0.589,0.753H33.104L33.104,39.187z M35.088,40.63h0.341v-3.378h-0.341V40.63L35.088,40.63z M36.111,40.63
		h0.346v-2.442h-0.346V40.63L36.111,40.63z M36.083,37.663h0.401v-0.411h-0.401V37.663L36.083,37.663z M37.241,40.435
		c-0.28,0.112-0.406,0.252-0.406,0.49c0,0.397,0.336,0.594,1.003,0.594c0.729,0,1.103-0.233,1.103-0.658
		c0-0.473-0.312-0.6-0.962-0.661c-0.462-0.041-0.701-0.013-0.701-0.205c0-0.084,0.071-0.168,0.207-0.219
		c0.121,0.033,0.243,0.051,0.365,0.051c0.541,0,0.883-0.327,0.883-0.845c0-0.188-0.038-0.342-0.136-0.481
		c0.047-0.061,0.14-0.075,0.285-0.075h0.069v-0.317h-0.06c-0.153,0-0.289,0.074-0.449,0.214c-0.153-0.121-0.344-0.181-0.574-0.181
		c-0.564,0-0.901,0.331-0.901,0.854c0,0.299,0.108,0.519,0.308,0.663c-0.219,0.127-0.327,0.233-0.327,0.407
		C36.946,40.246,37.04,40.364,37.241,40.435L37.241,40.435z M37.283,38.962c0-0.336,0.214-0.551,0.551-0.551
		c0.359,0,0.58,0.224,0.58,0.58c0,0.345-0.211,0.561-0.561,0.561C37.489,39.552,37.283,39.336,37.283,38.962L37.283,38.962z
		 M37.162,40.873c0-0.223,0.233-0.359,0.668-0.359c0.528,0,0.78,0.112,0.78,0.359c0,0.253-0.257,0.369-0.775,0.369
		C37.391,41.242,37.162,41.112,37.162,40.873L37.162,40.873z M40.749,39.942c-0.145,0.286-0.393,0.439-0.696,0.439
		c-0.394,0-0.664-0.308-0.664-0.826v-0.08h1.556v-0.102c0-0.79-0.359-1.229-0.952-1.229c-0.58,0-0.954,0.457-0.954,1.262
		c0,0.831,0.35,1.268,0.98,1.268c0.467,0,0.785-0.184,0.976-0.576L40.749,39.942L40.749,39.942z M39.395,39.187
		c0.018-0.485,0.243-0.753,0.603-0.753c0.344,0,0.578,0.271,0.588,0.753H39.395L39.395,39.187z M41.356,40.63h0.336v-1.822
		c0.225-0.247,0.454-0.368,0.696-0.368c0.29,0,0.393,0.159,0.393,0.508v1.683h0.333v-1.808c0-0.435-0.234-0.678-0.636-0.678
		c-0.294,0-0.547,0.136-0.809,0.412v-0.369h-0.312V40.63L41.356,40.63z M44.69,40.335c-0.074,0.02-0.145,0.038-0.239,0.038
		c-0.285,0-0.322-0.084-0.322-0.331v-1.565h0.557v-0.289h-0.557v-0.79h-0.354v0.79h-0.365v0.289h0.365v1.719
		c0,0.318,0.187,0.479,0.555,0.479c0.135,0,0.252-0.015,0.36-0.053V40.335L44.69,40.335z M46.521,39.942
		c-0.145,0.286-0.393,0.439-0.695,0.439c-0.394,0-0.665-0.308-0.665-0.826v-0.08h1.557v-0.102c0-0.79-0.36-1.229-0.953-1.229
		c-0.579,0-0.953,0.457-0.953,1.262c0,0.831,0.349,1.268,0.98,1.268c0.467,0,0.785-0.184,0.977-0.576L46.521,39.942L46.521,39.942z
		 M45.167,39.187c0.019-0.485,0.243-0.753,0.603-0.753c0.346,0,0.58,0.271,0.588,0.753H45.167L45.167,39.187z M46.833,40.21
		c0.201,0.294,0.542,0.464,0.925,0.464c0.542,0,0.874-0.301,0.874-0.735c0-0.34-0.187-0.546-0.594-0.677
		c-0.256-0.085-0.485-0.112-0.649-0.229c-0.079-0.056-0.121-0.149-0.121-0.251c0-0.216,0.159-0.356,0.412-0.356
		c0.243,0,0.452,0.117,0.635,0.351l0.225-0.225c-0.233-0.274-0.518-0.406-0.878-0.406c-0.434,0-0.738,0.271-0.738,0.669
		c0,0.322,0.2,0.541,0.617,0.668c0.477,0.144,0.752,0.168,0.752,0.495c0,0.246-0.192,0.411-0.491,0.411
		c-0.276,0-0.505-0.131-0.696-0.394L46.833,40.21L46.833,40.21z"/>
	<path fill-rule="evenodd" clip-rule="evenodd" fill="#FFFFFF" d="M42.763,11.669c-2.372,6.729-5.145,13.549-8.603,20.188
		c-1.592,3.054,0.965,3.373,3.492,2.385c3.933-1.538,7.85-1.767,11.415-1.021c-0.185-0.796-0.625-1.42-1.321-1.875
		c-0.695-0.454-1.641-0.871-2.853-0.852c-2.844,0.047-5.679,0.899-8.517,2.215c3.577-6.501,6.331-13.004,8.091-19.506L42.763,11.669
		L42.763,11.669z"/>
	<path fill-rule="evenodd" clip-rule="evenodd" fill="#806B64" d="M27.603,9.88c-0.965-0.566-1.932-0.566-2.896,0
		c-5.849,3.465-9.994,9.456-10.136,15.248C16.027,43.656,50.111,9.671,27.603,9.88L27.603,9.88z M32.201,11.977
		c4.323,3.131-11.542,19.633-14.906,17.291C11.954,25.551,25.246,6.939,32.201,11.977L32.201,11.977z"/>
	<path fill-rule="evenodd" clip-rule="evenodd" fill="#FFFFFF" d="M13.631,14.736c0.766-0.454,1.42-0.454,1.959,0
		c2.826,0.188,1.029-3.182-3.152-1.533c-4.854,2.3-8.46,6.189-10.816,11.67c-0.88,2.541-1.136,5.268,0.596,7.325
		c2.299,2.044,5.849,1.362,9.625-1.022c-0.909,0.654-1.325,4.826,0.852,3.748c4.071-2.416,0.149-12.253,10.819-11.158
		c-1.023-0.966-3.436-1.789-5.453-1.193c-2.306,0.923-5.358,1.889-8.517,1.875c-0.315,1.336-0.403,2.528,1.107,2.726l3.747-1.363
		c-1.322,2.257-13.194,10.501-11.5,2.301C3.818,24.291,9.333,17.958,13.631,14.736L13.631,14.736z"/>
	<path fill-rule="evenodd" clip-rule="evenodd" fill="#FFFFFF" d="M30.582,13.118c-0.965-0.568-1.93-0.568-2.896,0
		c-5.849,3.464-9.994,9.454-10.136,15.246C19.007,46.894,53.089,12.907,30.582,13.118L30.582,13.118z M35.143,15.029
		c4.323,3.132-11.543,19.634-14.908,17.293C14.895,28.604,28.187,9.994,35.143,15.029L35.143,15.029z"/>
</g>
</svg>
