<?xml version="1.0" encoding="utf-8"?>
<!-- Generator: Adobe Illustrator 16.2.1, SVG Export Plug-In . SVG Version: 6.00 Build 0)  -->
<!DOCTYPE svg PUBLIC "-//W3C//DTD SVG 1.1//EN" "http://www.w3.org/Graphics/SVG/1.1/DTD/svg11.dtd">
<svg version="1.1" id="svg3355" xmlns:svg="http://www.w3.org/2000/svg"
	 xmlns="http://www.w3.org/2000/svg" xmlns:xlink="http://www.w3.org/1999/xlink" x="0px" y="0px" width="50px" height="50px"
	 viewBox="236.989 125.244 50 50" enable-background="new 236.989 125.244 50 50" xml:space="preserve">
<g id="layer1" transform="translate(-53.654021,-412.90414)">
	<path id="path136" fill="#F9981E" d="M328.717,561.953l-3.837-0.591l3.511-1.777c0.051-0.025,0.076-0.084,0.059-0.138
		c-0.019-0.055-0.072-0.088-0.128-0.079l-3.899,0.607l2.8-2.771c0.041-0.041,0.045-0.104,0.012-0.149s-0.095-0.062-0.146-0.034
		l-3.496,1.792l1.762-3.481c0.025-0.051,0.01-0.112-0.036-0.146c-0.046-0.032-0.11-0.028-0.149,0.013l-2.766,2.797l0.651-3.892
		c0.009-0.057-0.025-0.112-0.078-0.129c-0.054-0.019-0.113,0.006-0.14,0.056l-1.809,3.535l-0.596-3.844
		c-0.009-0.056-0.057-0.098-0.114-0.098c-0.057,0-0.105,0.042-0.114,0.098l-0.603,3.841l-1.792-3.547
		c-0.025-0.052-0.084-0.076-0.139-0.058c-0.053,0.017-0.086,0.071-0.078,0.127l0.646,3.944l-2.801-2.866
		c-0.04-0.041-0.104-0.046-0.15-0.014c-0.047,0.034-0.062,0.096-0.036,0.146l1.823,3.558l-3.57-1.846
		c-0.051-0.026-0.113-0.012-0.147,0.035c-0.033,0.046-0.027,0.11,0.013,0.15l2.868,2.799l-3.967-0.645
		c-0.057-0.01-0.11,0.024-0.128,0.078c-0.018,0.055,0.006,0.113,0.058,0.139l3.565,1.789l-3.932,0.6
		c-0.06,0.01-0.103,0.062-0.097,0.123c0.004,0.06,0.055,0.106,0.114,0.106H328.7c0.06,0,0.11-0.047,0.115-0.106
		C328.82,562.016,328.777,561.963,328.717,561.953"/>
	<path id="path140" fill="#0069AA" d="M294.562,567.364c0,0.112-0.014,0.223-0.038,0.321c-0.114,0.358-0.506,0.665-0.947,0.663
		c-0.416-0.012-0.683-0.199-0.691-0.663c0.004-0.345,0.168-0.55,0.484-0.703c0.292-0.137,0.71-0.203,1.192-0.211V567.364
		L294.562,567.364z M296.764,565.724c0-0.814-0.173-1.577-0.642-2.141c-0.469-0.566-1.229-0.912-2.344-0.91
		c-1.217,0-2.134,0.354-2.607,0.629c-0.045,0.026-0.068,0.081-0.053,0.132l0.376,1.347c0.009,0.034,0.036,0.062,0.069,0.076
		s0.072,0.01,0.102-0.009c0.408-0.251,1.109-0.482,1.751-0.482c0.932,0.016,1.055,0.415,1.077,0.73
		c-1.123,0.015-2.063,0.224-2.741,0.655c-0.701,0.444-1.111,1.143-1.108,2.06c0.002,1.138,0.843,2.199,2.236,2.202h0.002
		c0.731,0,1.383-0.252,1.836-0.729l0.085,0.481c0.009,0.056,0.057,0.095,0.114,0.095h1.84c0.036,0,0.068-0.016,0.09-0.042
		c0.022-0.028,0.03-0.064,0.022-0.099c-0.08-0.356-0.106-0.979-0.106-1.617V565.724L296.764,565.724z M326.121,567.364
		c0,0.112-0.014,0.223-0.039,0.321c-0.114,0.358-0.505,0.665-0.946,0.663c-0.417-0.012-0.684-0.199-0.691-0.663
		c0.003-0.345,0.168-0.55,0.483-0.703c0.292-0.137,0.711-0.203,1.193-0.211V567.364L326.121,567.364z M328.323,568.102v-2.378
		c0-0.814-0.173-1.577-0.643-2.141c-0.469-0.566-1.229-0.912-2.344-0.91c-1.217,0-2.133,0.354-2.607,0.629
		c-0.045,0.026-0.067,0.081-0.054,0.132l0.377,1.347c0.009,0.034,0.035,0.062,0.069,0.076c0.033,0.014,0.071,0.01,0.103-0.009
		c0.408-0.251,1.109-0.482,1.751-0.482c0.932,0.016,1.055,0.415,1.076,0.73c-1.122,0.015-2.063,0.224-2.741,0.655
		c-0.702,0.444-1.111,1.143-1.108,2.06c0.002,1.138,0.843,2.199,2.237,2.202h0.002c0.731,0,1.383-0.252,1.837-0.729l0.084,0.481
		c0.009,0.056,0.057,0.095,0.114,0.095h1.841c0.035,0,0.067-0.016,0.09-0.042c0.022-0.028,0.03-0.064,0.022-0.099
		C328.349,569.363,328.322,568.74,328.323,568.102 M340.611,563.112c-0.022-0.022-0.051-0.034-0.083-0.034h-1.345v-1.668
		c0-0.035-0.016-0.07-0.045-0.092c-0.028-0.021-0.065-0.029-0.101-0.02l-1.999,0.55c-0.05,0.014-0.084,0.06-0.084,0.111v1.118
		h-0.879c-0.031,0-0.061,0.012-0.082,0.034c-0.021,0.021-0.034,0.052-0.034,0.081v1.419c0,0.107,0.034,0.164,0.034,0.164
		c0.021,0.021,0.051,0.033,0.082,0.033h0.879v2.568c0.001,0.938,0.188,1.6,0.594,2.024c0.363,0.363,0.943,0.598,1.624,0.599
		c0.577-0.001,1.078-0.079,1.357-0.181c0.046-0.018,0.077-0.062,0.077-0.109l-0.015-1.543c-0.001-0.036-0.017-0.068-0.044-0.09
		s-0.063-0.03-0.097-0.022c-0.182,0.039-0.299,0.051-0.577,0.052c-0.282-0.003-0.43-0.077-0.533-0.229
		c-0.104-0.154-0.157-0.423-0.156-0.81v-2.26h1.345c0.031,0,0.06-0.012,0.083-0.034c0.021-0.021,0.032-0.051,0.032-0.081v-1.501
		C340.643,563.163,340.631,563.133,340.611,563.112 M321.28,562.828h-2.04c-0.031,0-0.06,0.012-0.082,0.034
		c-0.021,0.021-0.033,0.051-0.033,0.081v6.802c0,0.03,0.012,0.06,0.033,0.082c0.022,0.021,0.051,0.033,0.082,0.033h2.04
		c0.03,0,0.06-0.012,0.081-0.033c0.022-0.022,0.033-0.052,0.033-0.082v-6.802c0-0.03-0.011-0.06-0.033-0.081
		C321.34,562.839,321.31,562.828,321.28,562.828 M335.591,564.663c-0.12-0.406-0.303-0.741-0.541-1.005
		c-0.443-0.494-1.067-0.73-1.764-0.73c-0.982,0.001-1.631,0.488-1.976,0.913l-0.067-0.66c-0.007-0.059-0.057-0.104-0.115-0.104
		h-1.772c-0.031,0-0.062,0.014-0.083,0.035c-0.021,0.022-0.032,0.055-0.032,0.087c0.028,0.587,0.055,1.27,0.055,2.085v4.467
		c0,0.03,0.013,0.06,0.034,0.081c0.022,0.022,0.052,0.034,0.082,0.034h2.038c0.03,0,0.061-0.012,0.081-0.034
		c0.021-0.021,0.035-0.051,0.035-0.081v-3.783c0-0.182,0.016-0.361,0.058-0.467c0.142-0.35,0.438-0.692,0.938-0.692
		c0.657,0.005,0.904,0.476,0.918,1.306v3.637c0,0.03,0.012,0.06,0.033,0.081c0.022,0.022,0.052,0.034,0.082,0.034h2.04
		c0.031,0,0.06-0.012,0.082-0.034c0.021-0.021,0.033-0.051,0.033-0.081v-3.876c0-0.406-0.044-0.77-0.125-1.092L335.591,564.663
		L335.591,564.663z M315.884,566.827c0,0.169-0.016,0.375-0.061,0.516c-0.123,0.427-0.491,0.736-0.978,0.737
		c-0.759-0.002-1.205-0.678-1.211-1.627c0.007-1.162,0.554-1.75,1.227-1.751c0.508,0.004,0.845,0.315,0.988,0.815
		c0.021,0.108,0.036,0.231,0.036,0.343V566.827z M318.091,563.078h-1.77c-0.058,0-0.109,0.045-0.114,0.105l-0.042,0.507
		c-0.364-0.457-0.931-0.765-1.732-0.763c-0.844,0-1.622,0.35-2.184,0.975c-0.563,0.624-0.91,1.519-0.91,2.602
		c0,0.962,0.296,1.789,0.809,2.377c0.512,0.588,1.242,0.933,2.085,0.931c0.674,0.002,1.267-0.243,1.68-0.675v0.131
		c-0.011,1.168-0.662,1.6-1.588,1.614c-0.754,0-1.45-0.249-1.848-0.48c-0.031-0.019-0.069-0.021-0.103-0.007
		c-0.032,0.014-0.058,0.042-0.067,0.077l-0.401,1.556c-0.014,0.051,0.01,0.104,0.056,0.13c0.619,0.338,1.78,0.512,2.666,0.513
		c0.98,0,1.736-0.19,2.483-0.834c0.786-0.691,1.044-1.766,1.044-3.039v-3.646c0-0.979,0.025-1.524,0.05-1.951
		c0.002-0.031-0.009-0.062-0.031-0.085C318.154,563.091,318.123,563.078,318.091,563.078 M306.249,565.612
		c0.091-0.494,0.418-1.1,1.143-1.096c0.768,0.001,0.983,0.623,1.018,1.096H306.249z M307.496,562.928
		c-1.165-0.002-2.032,0.477-2.595,1.17c-0.564,0.692-0.832,1.592-0.833,2.446c-0.001,1.051,0.327,1.92,0.951,2.523
		c0.623,0.604,1.53,0.933,2.666,0.932c0.896,0,1.728-0.134,2.419-0.423c0.051-0.021,0.08-0.073,0.069-0.128l-0.268-1.382
		c-0.006-0.032-0.027-0.061-0.055-0.077c-0.029-0.018-0.063-0.021-0.095-0.01c-0.54,0.184-1.087,0.273-1.775,0.274
		c-0.877-0.005-1.593-0.342-1.719-1.018h4.092c0.056,0,0.103-0.039,0.114-0.094c0.029-0.154,0.072-0.467,0.072-0.824
		c0-0.831-0.206-1.673-0.692-2.316C309.361,563.359,308.587,562.926,307.496,562.928 M299.921,560.099h-2.039
		c-0.03,0-0.06,0.012-0.082,0.034c-0.021,0.021-0.034,0.051-0.034,0.081v9.537c0,0.03,0.013,0.06,0.034,0.081
		c0.022,0.022,0.052,0.034,0.082,0.034h2.039c0.03,0,0.06-0.012,0.082-0.034c0.021-0.021,0.033-0.051,0.033-0.081v-9.537
		c0-0.03-0.012-0.061-0.033-0.081C299.981,560.111,299.951,560.099,299.921,560.099 M303.157,560.099h-2.039
		c-0.031,0-0.06,0.012-0.082,0.034c-0.021,0.021-0.034,0.051-0.034,0.081v9.537c0,0.03,0.012,0.06,0.034,0.081
		c0.022,0.022,0.051,0.034,0.082,0.034h2.039c0.03,0,0.06-0.012,0.081-0.034c0.022-0.021,0.035-0.051,0.035-0.081v-9.537
		c0-0.03-0.013-0.061-0.035-0.081C303.217,560.111,303.188,560.099,303.157,560.099"/>
	<path id="path214" fill="#FFE714" d="M324.008,562.191c0.003-0.045-0.02-0.073-0.05-0.078l-1.643-0.253l1.503-0.761
		c0.026-0.014,0.039-0.044,0.03-0.071c-0.01-0.028-0.038-0.046-0.067-0.041l-1.669,0.26l1.199-1.188
		c0.021-0.021,0.023-0.055,0.005-0.077c-0.017-0.025-0.049-0.032-0.076-0.019l-1.497,0.768l0.754-1.49
		c0.014-0.026,0.005-0.059-0.02-0.076c-0.023-0.018-0.056-0.015-0.077,0.006l-1.184,1.197l0.278-1.666
		c0.005-0.028-0.013-0.058-0.04-0.066c-0.029-0.01-0.06,0.004-0.073,0.029l-0.774,1.514l-0.255-1.645
		c-0.005-0.03-0.03-0.051-0.06-0.051s-0.055,0.021-0.06,0.051l-0.257,1.644l-0.767-1.52c-0.015-0.025-0.045-0.039-0.074-0.03
		c-0.027,0.01-0.044,0.037-0.041,0.067l0.277,1.688l-1.199-1.228c-0.021-0.021-0.054-0.023-0.078-0.006
		c-0.023,0.017-0.032,0.049-0.019,0.076l0.78,1.523l-1.528-0.79c-0.027-0.014-0.059-0.007-0.077,0.018s-0.015,0.058,0.006,0.078
		l1.228,1.199l-1.698-0.276c-0.029-0.004-0.059,0.013-0.067,0.041c-0.009,0.028,0.004,0.06,0.03,0.072l1.526,0.766l-1.683,0.257
		c-0.032,0.005-0.055,0.033-0.052,0.078H324.008L324.008,562.191z"/>
</g>
</svg>
