<?xml version="1.0" encoding="utf-8"?>
<!-- Generator: Adobe Illustrator 16.2.1, SVG Export Plug-In . SVG Version: 6.00 Build 0)  -->
<!DOCTYPE svg PUBLIC "-//W3C//DTD SVG 1.1//EN" "http://www.w3.org/Graphics/SVG/1.1/DTD/svg11.dtd">
<svg version="1.1"
	 id="svg3112" xmlns:svg="http://www.w3.org/2000/svg" xmlns:cc="http://creativecommons.org/ns#" xmlns:dc="http://purl.org/dc/elements/1.1/" xmlns:rdf="http://www.w3.org/1999/02/22-rdf-syntax-ns#"
	 xmlns="http://www.w3.org/2000/svg" xmlns:xlink="http://www.w3.org/1999/xlink" x="0px" y="0px" width="50px" height="50px"
	 viewBox="298.94 90.906 50 50" enable-background="new 298.94 90.906 50 50" xml:space="preserve">
<g id="layer1" transform="translate(-93.702257,-409.81391)">
	<path id="path38" fill="#EE2D27" d="M441.295,527.049c-0.292,0-0.537,0.062-0.756,0.174c-0.197,0.099-0.369,0.241-0.524,0.428H440
		c-0.172-0.364-0.572-0.602-1.096-0.602c-0.678,0-1.033,0.329-1.205,0.56h-0.026l-0.05-0.482h-1.049
		c0.016,0.316,0.031,0.682,0.031,1.119v2.389h1.209v-2.037c0-0.093,0.008-0.191,0.049-0.278c0.072-0.173,0.259-0.388,0.578-0.388
		c0.399,0,0.578,0.301,0.578,0.739v1.964h1.208v-2.05c0-0.087,0.018-0.194,0.041-0.274c0.089-0.207,0.285-0.379,0.577-0.379
		c0.401,0,0.59,0.293,0.59,0.803v1.9h1.207v-2.065C442.643,527.521,442.063,527.049,441.295,527.049 M433.701,529.931h-0.009
		c-0.521,0-0.808-0.452-0.808-1.046c0-0.524,0.23-1.054,0.816-1.054c0.563,0,0.793,0.529,0.793,1.047
		C434.494,529.509,434.192,529.931,433.701,529.931 M433.75,527.049c-1.289,0-2.137,0.724-2.137,1.856
		c0,1.134,0.896,1.808,2.063,1.808h0.008c1.062,0,2.097-0.587,2.097-1.864C435.781,527.789,434.965,527.049,433.75,527.049
		 M430.308,527.887c0.327,0,0.546,0.051,0.693,0.108l0.196-0.811c-0.262-0.086-0.62-0.136-0.946-0.136
		c-1.484,0-2.284,0.838-2.284,1.863c0,1.106,0.823,1.801,2.113,1.801c0.472,0,0.889-0.069,1.109-0.164l-0.15-0.804
		c-0.186,0.072-0.414,0.115-0.707,0.115c-0.603,0-1.094-0.345-1.094-0.989C429.231,528.297,429.656,527.887,430.308,527.887
		 M426.662,529.387c-0.434,0-0.736,0.272-0.736,0.669c0,0.378,0.303,0.657,0.719,0.657h0.009c0.44,0,0.733-0.279,0.733-0.657
		C427.379,529.654,427.085,529.387,426.662,529.387 M423.774,529.359c0,0.062-0.006,0.129-0.023,0.186
		c-0.082,0.224-0.344,0.402-0.646,0.402c-0.276,0-0.49-0.137-0.49-0.416c0-0.415,0.505-0.554,1.159-0.554V529.359L423.774,529.359z
		 M424.973,528.563c0-0.824-0.417-1.514-1.746-1.514c-0.727,0-1.272,0.179-1.55,0.315l0.229,0.695
		c0.261-0.137,0.692-0.258,1.1-0.258c0.615,0,0.727,0.266,0.727,0.453v0.041c-1.409,0-2.342,0.432-2.342,1.342
		c0,0.561,0.482,1.075,1.289,1.075c0.473,0,0.881-0.149,1.143-0.43h0.026l0.071,0.351h1.117c-0.049-0.192-0.064-0.516-0.064-0.846
		V528.563L424.973,528.563z M397.246,530.634h1.241v-3.285h-1.241V530.634z M397.875,525.73c-0.424,0-0.701,0.251-0.701,0.58
		c0,0.323,0.269,0.58,0.684,0.58h0.008c0.432,0,0.702-0.257,0.702-0.58C398.561,525.981,398.298,525.73,397.875,525.73
		 M419.361,530.634h1.238v-3.373h-1.238V530.634z M419.99,525.642c-0.426,0-0.703,0.252-0.703,0.582c0,0.323,0.269,0.58,0.686,0.58
		h0.006c0.432,0,0.704-0.257,0.704-0.58C420.674,525.894,420.41,525.642,419.99,525.642 M416.415,529.854
		c-0.357,0-0.642-0.23-0.725-0.518c-0.018-0.057-0.026-0.122-0.026-0.192v-0.517c0-0.071,0.008-0.137,0.026-0.202
		c0.083-0.316,0.391-0.538,0.725-0.538c0.581,0,0.857,0.431,0.857,0.976C417.272,529.494,416.946,529.854,416.415,529.854
		 M416.889,527.049c-0.555,0-0.97,0.194-1.208,0.494h-0.017v-1.892h-1.239v3.936c0,0.395-0.015,0.818-0.031,1.047h1.05l0.049-0.487
		h0.018c0.275,0.417,0.734,0.565,1.199,0.565c0.914,0,1.818-0.63,1.818-1.893C418.537,527.746,417.844,527.049,416.889,527.049
		 M412.181,529.359c0,0.062-0.008,0.129-0.024,0.186c-0.08,0.224-0.341,0.402-0.644,0.402c-0.278,0-0.488-0.137-0.488-0.416
		c0-0.415,0.504-0.554,1.156-0.554V529.359z M413.38,528.563c0-0.824-0.415-1.514-1.746-1.514c-0.726,0-1.272,0.179-1.55,0.315
		l0.229,0.695c0.261-0.137,0.694-0.258,1.101-0.258c0.611,0,0.726,0.266,0.726,0.453v0.041c-1.412,0-2.342,0.432-2.342,1.342
		c0,0.561,0.482,1.075,1.29,1.075c0.473,0,0.881-0.149,1.141-0.43h0.024l0.073,0.351h1.119c-0.049-0.192-0.065-0.516-0.065-0.846
		V528.563L413.38,528.563z M408.111,527.781h-0.035l-0.048-0.654h-1.059c0.023,0.303,0.03,0.641,0.03,1.156l-0.007,2.352h1.241
		v-1.771c0-0.092,0.007-0.172,0.024-0.242c0.083-0.346,0.393-0.553,0.848-0.553c0.138,0,0.237,0.014,0.343,0.029v-1.025
		c-0.089-0.016-0.146-0.022-0.261-0.022C408.796,527.049,408.315,527.265,408.111,527.781 M404.751,529.359
		c0,0.062-0.009,0.129-0.025,0.186c-0.081,0.224-0.345,0.402-0.646,0.402c-0.276,0-0.489-0.137-0.489-0.416
		c0-0.415,0.506-0.554,1.16-0.554V529.359z M405.949,528.563c0-0.824-0.417-1.514-1.747-1.514c-0.724,0-1.271,0.179-1.549,0.315
		l0.229,0.695c0.261-0.137,0.693-0.258,1.102-0.258c0.611,0,0.725,0.266,0.725,0.453v0.041c-1.411,0-2.342,0.432-2.342,1.342
		c0,0.561,0.482,1.075,1.29,1.075c0.474,0,0.88-0.149,1.143-0.43h0.022l0.075,0.351h1.117c-0.047-0.192-0.064-0.516-0.064-0.846
		V528.563L405.949,528.563z M400.678,527.781h-0.033l-0.046-0.654h-1.062c0.026,0.303,0.033,0.641,0.033,1.156l-0.007,2.352h1.238
		v-1.771c0-0.092,0.009-0.172,0.025-0.242c0.081-0.346,0.392-0.553,0.848-0.553c0.14,0,0.236,0.014,0.342,0.029v-1.025
		c-0.088-0.016-0.147-0.022-0.261-0.022C401.363,527.049,400.884,527.265,400.678,527.781 M395.025,529.359
		c0,0.062-0.005,0.129-0.023,0.186c-0.082,0.224-0.343,0.402-0.644,0.402c-0.279,0-0.491-0.137-0.491-0.416
		c0-0.415,0.505-0.554,1.158-0.554V529.359z M396.225,528.563c0-0.824-0.417-1.514-1.746-1.514c-0.726,0-1.273,0.179-1.55,0.315
		l0.229,0.695c0.261-0.137,0.693-0.258,1.103-0.258c0.61,0,0.725,0.266,0.725,0.453v0.041c-1.412,0-2.342,0.432-2.342,1.342
		c0,0.561,0.482,1.075,1.289,1.075c0.476,0,0.881-0.149,1.144-0.43h0.023l0.073,0.351h1.119c-0.049-0.192-0.065-0.516-0.065-0.846
		V528.563L396.225,528.563z M394.799,521.479h0.005c0.287,0,0.465-0.169,0.465-0.376c-0.007-0.213-0.179-0.377-0.46-0.377
		c-0.28,0-0.464,0.164-0.464,0.377C394.346,521.31,394.525,521.479,394.799,521.479 M430.733,523.357
		c0,0.318-0.086,0.464-0.343,0.464h-1.262c0.019-0.101,0.028-0.212,0.028-0.339v-1.629h-0.853v1.504
		c0,0.318-0.085,0.464-0.345,0.464h-5.5v-1.968h-1.353c-1.043,0-1.604,0.61-1.604,1.342c0,0.789,0.523,1.288,1.66,1.288h0.114
		l0.312-0.613h-0.426c-0.424,0-0.768-0.241-0.768-0.706c-0.004-0.406,0.293-0.7,0.752-0.7h0.441v1.406v0.62h6.67
		c0.28,0,0.516-0.092,0.659-0.227c0.03-0.03,0.058-0.064,0.083-0.103v0.329h1.688c0.279,0,0.515-0.092,0.658-0.227
		c0.16-0.156,0.24-0.41,0.24-0.781v-1.629h-0.854V523.357L430.733,523.357z M421.832,521.479h0.006c0.286,0,0.465-0.169,0.465-0.376
		c-0.006-0.213-0.179-0.377-0.458-0.377c-0.281,0-0.466,0.164-0.466,0.377C421.379,521.31,421.557,521.479,421.832,521.479
		 M396.068,523.221c0,0.491-0.594,0.784-1.307,0.784c-0.713,0-1.244-0.293-1.244-0.784v-1.368h-0.843v1.18
		c0,0.506,0.133,0.922,0.52,1.186c0.366,0.248,0.849,0.412,1.6,0.412c0.75,0,1.232-0.164,1.599-0.412
		c0.388-0.264,0.519-0.68,0.519-1.186v-1.18h-0.844V523.221z M428.1,525.27c-0.006-0.213-0.179-0.376-0.459-0.376
		c-0.281,0-0.465,0.163-0.465,0.376c0,0.208,0.178,0.376,0.453,0.376h0.006C427.921,525.646,428.1,525.478,428.1,525.27
		 M420.802,521.479h0.005c0.287,0,0.465-0.169,0.465-0.376c-0.006-0.213-0.178-0.377-0.458-0.377s-0.464,0.164-0.464,0.377
		C420.35,521.31,420.526,521.479,420.802,521.479 M426.604,525.646c0.287,0,0.465-0.168,0.465-0.376
		c-0.006-0.213-0.178-0.376-0.459-0.376c-0.279,0-0.463,0.163-0.463,0.376c0,0.208,0.177,0.376,0.451,0.376H426.604z
		 M408.477,522.465h1.912c0.458,0,0.757,0.293,0.751,0.699c0,0.345-0.19,0.565-0.46,0.657h-2.204V522.465L408.477,522.465z
		 M415.355,524.49c0.281,0,0.516-0.092,0.659-0.227c0.023-0.021,0.043-0.047,0.062-0.072v0.299h1.024
		c0.281,0,0.515-0.092,0.658-0.227c0.162-0.156,0.241-0.41,0.241-0.781v-2.736h-0.854v2.611c0,0.318-0.085,0.464-0.343,0.464h-0.578
		c0.019-0.101,0.029-0.212,0.029-0.339v-2.736H415.4v2.611c0,0.318-0.085,0.464-0.343,0.464h-3.167
		c0.096-0.179,0.144-0.39,0.144-0.626c0-0.731-0.561-1.342-1.604-1.342h-1.953v-1.107h-0.871v3.075h-1.082
		c0.019-0.101,0.028-0.212,0.028-0.339v-1.629h-0.853v1.504c0,0.318-0.086,0.464-0.344,0.464h-4.774v-1.97h-0.87v2.123
		c0,0.523-0.047,0.734-0.173,0.857c-0.108,0.108-0.135,0.156-0.358,0.173v0.642c0.413,0,0.709-0.027,1.006-0.324
		c0.195-0.193,0.329-0.447,0.376-0.832h5.091c0.281,0,0.516-0.092,0.659-0.227c0.042-0.041,0.079-0.088,0.109-0.143v0.369H415.355
		L415.355,524.49z M442.628,520.746h-0.871v3.744h0.871V520.746z M405.013,525.646c0.287,0,0.464-0.168,0.464-0.376
		c-0.006-0.213-0.177-0.376-0.458-0.376c-0.282,0-0.465,0.163-0.465,0.376c0,0.208,0.178,0.376,0.454,0.376H405.013L405.013,525.646
		z M430.185,525.646c0.287,0,0.464-0.168,0.464-0.376c-0.006-0.213-0.177-0.376-0.458-0.376c-0.28,0-0.464,0.163-0.464,0.376
		c0,0.208,0.178,0.376,0.453,0.376H430.185L430.185,525.646z M403.983,525.646c0.286,0,0.464-0.168,0.464-0.376
		c-0.005-0.213-0.178-0.376-0.459-0.376c-0.28,0-0.463,0.163-0.463,0.376c0,0.208,0.177,0.376,0.452,0.376H403.983L403.983,525.646z
		 M397.706,524.49h0.87v-3.744h-0.87V524.49L397.706,524.49z M433.348,524.49h6.892c0.281,0,0.515-0.092,0.658-0.227
		c0.161-0.156,0.24-0.41,0.24-0.781v-2.736h-0.853v2.611c0,0.318-0.087,0.464-0.344,0.464h-3.982
		c-0.312-0.075-0.542-0.311-0.542-0.699c-0.005-0.421,0.293-0.724,0.751-0.724c0.331,0,0.577,0.158,0.688,0.404l0.689-0.428
		c-0.281-0.36-0.771-0.599-1.416-0.599c-1.044,0-1.604,0.622-1.604,1.378c0,0.253,0.056,0.479,0.159,0.667h-1.316v-1.97h-0.871
		v2.123c0,0.523-0.046,0.734-0.172,0.857c-0.109,0.108-0.156,0.156-0.38,0.173v0.642c0.412,0,0.73-0.027,1.026-0.324
		C433.166,525.129,433.301,524.875,433.348,524.49"/>
</g>
</svg>
