<?xml version="1.0" encoding="utf-8"?>
<!-- Generator: Adobe Illustrator 16.2.1, SVG Export Plug-In . SVG Version: 6.00 Build 0)  -->
<!DOCTYPE svg PUBLIC "-//W3C//DTD SVG 1.1//EN" "http://www.w3.org/Graphics/SVG/1.1/DTD/svg11.dtd">
<svg version="1.1"
	 id="svg6929" xmlns:dc="http://purl.org/dc/elements/1.1/" xmlns:cc="http://creativecommons.org/ns#" xmlns:rdf="http://www.w3.org/1999/02/22-rdf-syntax-ns#" xmlns:svg="http://www.w3.org/2000/svg"
	 xmlns="http://www.w3.org/2000/svg" xmlns:xlink="http://www.w3.org/1999/xlink" x="0px" y="0px" width="50px" height="50px"
	 viewBox="396.957 100.539 50 50" enable-background="new 396.957 100.539 50 50" xml:space="preserve">
<g id="layer1" transform="translate(50.3555,-370.88147)">
	<g id="g7026" transform="matrix(4.7516453,0,0,4.7516453,-418.46656,-512.42052)">
		<g id="g6656" transform="matrix(1.25,0,0,-1.25,233.92792,200.90898)">
			<path id="path6658" fill="#358E9D" d="M-54.976-9.503c-0.616,0.322-1.129,0.346-1.367,0.346h-0.832l-0.045,0.079h0.979
				c0.067,0,0.879,0.011,1.357-0.116c0.598-0.159,1.01-0.473,1.091-0.526c0.08-0.053,1.17-0.833,1.17-0.833
				s-0.183-0.187-0.362-0.187c-0.17,0-0.352,0.131-0.352,0.131s-0.584,0.42-0.673,0.482C-54.099-10.066-54.56-9.722-54.976-9.503"/>
		</g>
		<g id="g6660" transform="matrix(1.25,0,0,-1.25,233.65392,204.63873)">
			<path id="path6662" fill="#358E9D" d="M-54.802-7.134c0.412-0.274,0.655-0.473,0.734-0.531c0.079-0.057,0.445-0.319,0.445-0.319
				s0.168-0.131,0.375-0.131c0.157,0,0.349,0.182,0.349,0.182s-0.875,0.617-0.954,0.673c-0.08,0.056-0.36,0.277-0.883,0.415
				c-0.438,0.115-1.06,0.112-1.1,0.112h-0.796l0.046-0.081c0,0,0.601-0.001,0.646-0.001C-55.845-6.816-55.236-6.846-54.802-7.134"/>
		</g>
		<g id="g6664" transform="matrix(1.25,0,0,-1.25,234.46967,196.99024)">
			<path id="path6666" fill="#358E9D" d="M-55.321-11.993c0.531-0.285,1.056-0.678,1.154-0.75c0.098-0.071,0.896-0.642,0.896-0.642
				s0.187-0.126,0.358-0.126c0.166,0,0.355,0.184,0.355,0.184s-1.273,0.916-1.388,0.997c-0.114,0.081-0.573,0.456-1.309,0.632
				c-0.576,0.146-1.538,0.129-1.604,0.129h-1.165l0.046-0.081h1.017C-56.751-11.65-55.938-11.661-55.321-11.993"/>
		</g>
		<g id="g6668" transform="matrix(1.25,0,0,-1.25,262.47705,196.9151)">
			<path id="path6670" fill="#202D5C" d="M-73.111-12.04c-0.157,0.028-0.363,0.04-0.363,0.04l-0.282-0.08l-0.161,0.134
				c0,0,0.336-0.026,0.43-0.04c0.08,0,0.054,0.04,0.013,0.121c-0.04,0.081-0.134,0.081-0.134,0.081h-0.846
				c0,0-0.151-0.001-0.326,0.039c-0.174,0.04-0.243,0.171-0.243,0.171c-0.068-0.155,0.201-0.337,0.201-0.337l0.838-0.601
				c0.107-0.067,0.202-0.013,0.202-0.013s0.215,0.107,0.336,0.134c0.107,0.027,0.443,0.04,0.483,0.027
				c0.094-0.013,0.202-0.108,0.202-0.108C-72.708-12.094-72.95-12.069-73.111-12.04"/>
		</g>
		<g id="g6672" transform="matrix(1.25,0,0,-1.25,235.47805,189.36059)">
			<path id="path6674" fill="#202D5C" d="M-55.961-16.839c0.584-0.257,1.418-0.88,1.54-0.969c0.123-0.089,1.325-0.95,1.325-0.95
				s0.188-0.135,0.363-0.135c0.174,0,0.348,0.176,0.348,0.176l0,0c0,0-1.7,1.222-1.822,1.309c-0.122,0.088-0.686,0.563-1.735,0.839
				c-0.717,0.189-1.95,0.181-2.093,0.181h-1.539l0.047-0.082h1.41C-57.76-16.47-56.734-16.5-55.961-16.839"/>
		</g>
		<g id="g6676" transform="matrix(1.25,0,0,-1.25,234.93568,193.16409)">
			<path id="path6678" fill="#202D5C" d="M-55.617-14.423c-0.63,0.315-1.408,0.355-1.861,0.355h-1.245l-0.046,0.081h1.353
				c0.146,0,1.171,0.011,1.849-0.143c0.781-0.177,1.454-0.691,1.524-0.74c0.067-0.047,1.61-1.154,1.61-1.154
				s-0.176-0.181-0.365-0.181c-0.174,0-0.362,0.135-0.362,0.135s-1.004,0.72-1.102,0.789C-54.358-15.213-55.03-14.717-55.617-14.423
				"/>
		</g>
	</g>
</g>
</svg>
