<?xml version="1.0" encoding="utf-8"?>
<!-- Generator: Adobe Illustrator 16.2.1, SVG Export Plug-In . SVG Version: 6.00 Build 0)  -->
<!DOCTYPE svg PUBLIC "-//W3C//DTD SVG 1.1//EN" "http://www.w3.org/Graphics/SVG/1.1/DTD/svg11.dtd">
<svg version="1.1"
	 id="svg4258" sodipodi:docname="New document 3" inkscape:version="0.47 r22583" xmlns:dc="http://purl.org/dc/elements/1.1/" xmlns:cc="http://creativecommons.org/ns#" xmlns:rdf="http://www.w3.org/1999/02/22-rdf-syntax-ns#" xmlns:svg="http://www.w3.org/2000/svg" xmlns:sodipodi="http://sodipodi.sourceforge.net/DTD/sodipodi-0.dtd" xmlns:inkscape="http://www.inkscape.org/namespaces/inkscape"
	 xmlns="http://www.w3.org/2000/svg" xmlns:xlink="http://www.w3.org/1999/xlink" x="0px" y="0px" width="50px" height="50px"
	 viewBox="98.25 79.135 50 50" enable-background="new 98.25 79.135 50 50" xml:space="preserve">
<defs>
	
	
		<inkscape:perspective  inkscape:persp3d-origin="372.04724 : 350.78739 : 1" inkscape:vp_z="744.09448 : 526.18109 : 1" inkscape:vp_x="0 : 526.18109 : 1" sodipodi:type="inkscape:persp3d" inkscape:vp_y="0 : 1000 : 0" id="perspective4266">
		</inkscape:perspective>
	
		<inkscape:perspective  inkscape:persp3d-origin="0.5 : 0.33333333 : 1" inkscape:vp_z="1 : 0.5 : 1" inkscape:vp_x="0 : 0.5 : 1" sodipodi:type="inkscape:persp3d" inkscape:vp_y="0 : 1000 : 0" id="perspective4195">
		</inkscape:perspective>
</defs>
<sodipodi:namedview  inkscape:guide-bbox="true" inkscape:document-units="px" inkscape:window-maximized="1" inkscape:current-layer="layer1" inkscape:window-height="750" inkscape:window-x="-8" inkscape:pageopacity="0.0" inkscape:pageshadow="2" inkscape:window-width="1280" inkscape:window-y="-8" pagecolor="#ffffff" borderopacity="1.0" bordercolor="#666666" inkscape:cy="61.736225" inkscape:zoom="2.8" inkscape:cx="99.555866" showgrid="false" id="base" showguides="true">
	</sodipodi:namedview>
<g id="layer1" transform="translate(-304.47144,-396.00836)" inkscape:groupmode="layer" inkscape:label="Layer 1">
	<g id="g198" transform="matrix(3.4726244,0,0,-3.4726244,518.91515,471.461)">
		<path id="path200" fill="#A29061" d="M-29.313-9.654c-0.379-0.134-0.992-0.264-1.378-0.332c-0.068,1.822-1.054,2.924-0.663,3.49
			c0.724,1.046,2.277,2.217,3.898,3.196c-0.32-0.426-0.379-0.835-0.535-0.945c-0.407-0.286-1.278-0.997-1.717-1.73
			c0.289,0.29,1.304,1.352,2.331,1.915c-0.277-0.515-0.154-0.714-0.373-0.911c-0.176-0.157-1.133-1.089-1.607-1.932
			c0.267,0.332,0.652,0.744,0.978,0.962c-0.121-0.285-0.183-0.461-0.197-0.765C-28.628-7.758-28.839-8.836-29.313-9.654
			 M-30.104-14.938c-0.256,0.346-0.816,0.433-1.102,0.095c-0.192-0.227-0.042-0.536,0.166-0.596
			c-0.242,0.24,0.065,0.615,0.375,0.316c0.172-0.166,0.265-0.438,0.57-0.295C-30.275-15.383-30.362-15.086-30.104-14.938
			 M-25.089-12.338c-0.292-0.166-0.73-0.59-1.702-0.183c0.439-0.449,0.797-0.688,1.234-0.681c0.486,0.026,1.376,0.45,1.653,0.553
			L-25.089-12.338z M-29.422-9.89c-0.485-0.154-0.954-0.233-1.531-0.332c-0.659-0.113-0.977-0.271-1.252-0.657
			c-0.284-0.398-0.3-0.591-0.271-0.772c0.026-0.16,0.138-0.25,0.16-0.423c0.018-0.145,0.201-0.428,0.538-0.425
			c-0.1,0.049-0.149,0.174-0.039,0.281c0.097,0.094,0.426,0.26,0.694,0.112c0.271-0.149,0.762-0.634,1.115-1.17
			c0.391-0.594-0.006-0.723-0.382-0.589c-0.56,0.2-0.997,0.544-1.239,0.548c-0.296,0.003-0.473-0.228-0.291-0.589
			c-0.035,0.389,0.437,0.383,0.411,0.078c-0.026-0.314-0.2-0.409,0.107-0.774c-0.057,0.274-0.009,0.542,0.387,0.541
			c0.396-0.001,0.916-0.209,1.277-1.035c0.665,0.028,1.333,0.388,1.909,0.577c-0.366,0.12-0.767,0.409-1.329,1.039
			c1.093-0.35,2.194-1.091,3.515-0.594c1.17,0.439,2.483,0.908,3.896,1.196c-0.456,0.028-1.293,0.1-1.639,0.117
			c-0.472-0.175-0.926-0.354-1.468-0.549c-0.5-0.181-1.165-0.389-1.811,0.326c-0.733,0.811-1.951,1.673-1.72,2.329
			c0.239-0.472,0.47-0.729,1.061-0.935c0.608-0.212,1.14-0.304,1.399-0.343c0.606-0.09,0.686,0.078,0.871,0.269
			c0.508,0.524,1.08,1.564,1.456,2.199c-0.659-0.044-2.104-0.033-2.671,0.264c0.762-0.036,1.619-0.066,2.092-0.042
			c0.426,0.022,0.576-0.03,0.709,0.26c0.117,0.257,0.208,0.541,0.208,0.541c-0.538-0.112-2.254-0.091-2.664,0.037
			c0.406,0.106,1.674,0.098,2.012,0.107c0.338,0.01,0.544,0.014,0.626,0.291c0.083,0.277,0.127,0.447,0.127,0.447
			c-0.337-0.122-1.613-0.161-2.583-0.07c0.536,0.081,1.6,0.145,1.994,0.179c0.415,0.035,0.528,0.055,0.582,0.314
			c0.061,0.295,0.094,0.433,0.094,0.433c-0.477-0.062-1.493-0.171-2.517-0.138c0.39,0.089,1.582,0.207,1.981,0.29
			c0.331,0.067,0.445,0.099,0.48,0.38c0.038,0.307,0.129,0.495,0.129,0.495c-0.707-0.105-2.239-0.372-2.444-0.442
			c0.393,0.328,1.352,0.439,1.791,0.535c0.41,0.09,0.498,0.044,0.608,0.372c0.101,0.298,0.183,0.438,0.183,0.438
			c-0.515-0.093-1.641-0.319-2.229-0.569c0.25,0.293,1.277,0.582,1.681,0.642c0.757,0.112,0.433,0.288,0.834,0.837
			c-0.461-0.042-1.223-0.188-2.134-0.665c0.305,0.416,1.111,0.658,1.674,0.776c0.33,0.07,0.499,0.035,0.657,0.315
			c0.158,0.279,0.371,0.52,0.465,0.621c-0.413-0.062-1.514-0.31-2.248-0.734c0.368,0.466,1.221,0.705,1.696,0.806
			c0.508,0.107,0.621,0.113,0.808,0.314c0.139,0.148,0.42,0.421,0.589,0.539c-0.724-0.082-1.514-0.208-2.319-0.598
			c0.44,0.47,1.8,0.764,2.218,0.781c0.593,0.025,0.406,0.24,1.134,0.648c-1.683,0.025-3.716-0.288-4.716-1.265
			c-0.379-0.37-1.828-1.863-2.646-2.895c-0.281-0.353-0.516-0.528-0.598-1.384c-0.107-1.13-0.407-2.713-1.813-3.977
			C-29.767-10.524-29.562-10.177-29.422-9.89 M-31.582-11.269c0.262-0.042,0.106-0.377-0.099-0.213c0,0-0.019-0.037-0.025-0.084
			c0.022-0.036,0.098-0.082,0.2-0.09c-0.138-0.147-0.262-0.04-0.4-0.16c-0.1-0.087-0.146-0.339-0.08-0.471
			c-0.107,0.073-0.193,0.286-0.144,0.389c-0.037,0.041-0.102,0.033-0.153,0.016l-0.018,0.087c0,0,0.426,0.038,0.361,0.37
			c-0.036,0.186,0.163,0.434,0.224,0.513c0.028,0.035,0.259,0.354,1.445,0.543C-30.617-10.496-31.26-10.59-31.582-11.269"/>
	</g>
</g>
</svg>
