<?xml version="1.0" encoding="utf-8"?>
<!-- Generator: Adobe Illustrator 16.2.1, SVG Export Plug-In . SVG Version: 6.00 Build 0)  -->
<!DOCTYPE svg PUBLIC "-//W3C//DTD SVG 1.1//EN" "http://www.w3.org/Graphics/SVG/1.1/DTD/svg11.dtd">
<svg version="1.1"
	 id="Layer_1" sodipodi:docname="AJAX.svg" inkscape:version="0.48.1 " xmlns:inkscape="http://www.inkscape.org/namespaces/inkscape" xmlns:cc="http://creativecommons.org/ns#" xmlns:rdf="http://www.w3.org/1999/02/22-rdf-syntax-ns#" xmlns:sodipodi="http://sodipodi.sourceforge.net/DTD/sodipodi-0.dtd" xmlns:svg="http://www.w3.org/2000/svg" xmlns:dc="http://purl.org/dc/elements/1.1/"
	 xmlns="http://www.w3.org/2000/svg" xmlns:xlink="http://www.w3.org/1999/xlink" x="0px" y="0px" width="50px" height="50px"
	 viewBox="95.5 57.919 50 50" enable-background="new 95.5 57.919 50 50" xml:space="preserve">
<sodipodi:namedview  id="namedview89" fit-margin-left="0" objecttolerance="10" borderopacity="1" bordercolor="#666666" pagecolor="#ffffff" gridtolerance="10" guidetolerance="10" inkscape:cx="145.66707" inkscape:zoom="2.9220641" inkscape:cy="-26.706407" fit-margin-top="0" showgrid="false" inkscape:pageopacity="0" inkscape:window-height="1004" inkscape:window-y="-8" inkscape:window-width="1280" fit-margin-right="0" inkscape:pageshadow="2" inkscape:window-maximized="1" fit-margin-bottom="0" inkscape:current-layer="Layer_1" inkscape:window-x="-8">
	</sodipodi:namedview>
<g id="g3" transform="translate(-5,-4.58)">
	<g id="g5">
		<g id="g7">
			<g id="g9">
				<path id="path11" inkscape:connector-curvature="0" fill="#C4122F" d="M143.391,89.607c0,0.21-0.172,0.381-0.382,0.381
					s-0.38-0.171-0.38-0.381s0.17-0.382,0.38-0.382S143.391,89.397,143.391,89.607"/>
				<path id="path13" inkscape:connector-curvature="0" fill="#C4122F" d="M143.391,84.122c0,0.211-0.172,0.382-0.382,0.382
					s-0.38-0.171-0.38-0.382c0-0.21,0.17-0.381,0.38-0.381S143.391,83.912,143.391,84.122"/>
				<path id="path15" inkscape:connector-curvature="0" fill="#C4122F" d="M141.637,89.175c0.24,0,0.433,0.193,0.433,0.43
					c0,0.238-0.192,0.433-0.433,0.433c-0.236,0-0.431-0.194-0.431-0.433C141.206,89.369,141.4,89.175,141.637,89.175"/>
				<path id="path17" inkscape:connector-curvature="0" fill="#C4122F" d="M141.637,87.855c0.211,0,0.382,0.172,0.382,0.38
					c0,0.21-0.171,0.381-0.382,0.381c-0.209,0-0.38-0.171-0.38-0.381C141.257,88.027,141.428,87.855,141.637,87.855"/>
				<path id="path19" inkscape:connector-curvature="0" fill="#C4122F" d="M147.123,87.855c0.21,0,0.38,0.172,0.38,0.38
					c0,0.21-0.17,0.381-0.38,0.381s-0.381-0.171-0.381-0.381C146.742,88.027,146.913,87.855,147.123,87.855"/>
				<path id="path21" inkscape:connector-curvature="0" fill="#C4122F" d="M141.637,86.535c0.184,0,0.331,0.148,0.331,0.33
					c0,0.183-0.147,0.33-0.331,0.33c-0.182,0-0.328-0.147-0.328-0.33C141.309,86.683,141.455,86.535,141.637,86.535"/>
				<path id="path23" inkscape:connector-curvature="0" fill="#C4122F" d="M142.68,88.235c0,0.183,0.147,0.329,0.329,0.329
					c0.183,0,0.33-0.146,0.33-0.329c0-0.181-0.147-0.329-0.33-0.329C142.827,87.906,142.68,88.054,142.68,88.235"/>
				<path id="path25" inkscape:connector-curvature="0" fill="#C4122F" d="M145.422,88.235c0,0.183,0.148,0.329,0.329,0.329
					c0.183,0,0.33-0.146,0.33-0.329c0-0.181-0.147-0.329-0.33-0.329C145.57,87.906,145.422,88.054,145.422,88.235"/>
				<path id="path27" inkscape:connector-curvature="0" fill="#C4122F" d="M142.68,85.494c0,0.182,0.147,0.329,0.329,0.329
					c0.183,0,0.33-0.147,0.33-0.329c0-0.183-0.147-0.33-0.33-0.33C142.827,85.163,142.68,85.31,142.68,85.494"/>
				<path id="path29" inkscape:connector-curvature="0" fill="#C4122F" d="M145.422,85.494c0,0.182,0.148,0.329,0.329,0.329
					c0.183,0,0.33-0.147,0.33-0.329c0-0.183-0.147-0.33-0.33-0.33C145.57,85.163,145.422,85.31,145.422,85.494"/>
				<path id="path31" inkscape:connector-curvature="0" fill="#C4122F" d="M143.289,86.865c0-0.155-0.125-0.279-0.28-0.279
					c-0.153,0-0.279,0.124-0.279,0.279c0,0.153,0.126,0.278,0.279,0.278C143.164,87.143,143.289,87.018,143.289,86.865"/>
				<path id="path33" inkscape:connector-curvature="0" fill="#C4122F" d="M139.734,90.977c0,0.294,0.238,0.532,0.531,0.532
					c0.295,0,0.533-0.238,0.533-0.532s-0.238-0.532-0.533-0.532C139.973,90.445,139.734,90.683,139.734,90.977"/>
				<path id="path35" inkscape:connector-curvature="0" fill="#C4122F" d="M139.734,88.235c0,0.295,0.238,0.533,0.531,0.533
					c0.295,0,0.533-0.238,0.533-0.533c0-0.294-0.238-0.532-0.533-0.532C139.973,87.703,139.734,87.941,139.734,88.235"/>
				<path id="path37" inkscape:connector-curvature="0" fill="#C4122F" d="M139.734,85.494c0,0.293,0.238,0.532,0.531,0.532
					c0.295,0,0.533-0.239,0.533-0.532c0-0.295-0.238-0.533-0.533-0.533C139.973,84.96,139.734,85.199,139.734,85.494"/>
				<path id="path39" inkscape:connector-curvature="0" fill="#C4122F" d="M142.477,90.977c0,0.294,0.238,0.532,0.532,0.532
					c0.295,0,0.533-0.238,0.533-0.532s-0.238-0.532-0.533-0.532C142.715,90.445,142.477,90.683,142.477,90.977"/>
				<path id="path41" inkscape:connector-curvature="0" fill="#C4122F" d="M145.219,90.977c0,0.294,0.239,0.532,0.532,0.532
					c0.296,0,0.533-0.238,0.533-0.532s-0.237-0.532-0.533-0.532C145.458,90.445,145.219,90.683,145.219,90.977"/>
				<path id="path43" inkscape:connector-curvature="0" fill="#C4122F" d="M144.71,89.607c0,0.182-0.148,0.33-0.33,0.33
					c-0.181,0-0.329-0.148-0.329-0.33c0-0.183,0.148-0.331,0.329-0.331C144.562,89.276,144.71,89.424,144.71,89.607"/>
				<path id="path45" inkscape:connector-curvature="0" fill="#C4122F" d="M144.66,88.235c0,0.153-0.125,0.279-0.28,0.279
					c-0.153,0-0.278-0.126-0.278-0.279c0-0.154,0.125-0.279,0.278-0.279C144.534,87.955,144.66,88.08,144.66,88.235"/>
				<path id="path47" inkscape:connector-curvature="0" fill="#C4122F" d="M144.607,86.865c0-0.127-0.102-0.229-0.228-0.229
					s-0.228,0.103-0.228,0.229c0,0.125,0.102,0.228,0.228,0.228S144.607,86.99,144.607,86.865"/>
				<path id="path49" inkscape:connector-curvature="0" fill="#C4122F" d="M143.439,82.749c0-0.237-0.192-0.431-0.431-0.431
					c-0.237,0-0.431,0.193-0.431,0.431c0,0.239,0.193,0.434,0.431,0.434C143.247,83.183,143.439,82.989,143.439,82.749"/>
				<path id="path51" inkscape:connector-curvature="0" fill="#C4122F" d="M143.491,81.378c0-0.266-0.217-0.481-0.482-0.481
					s-0.481,0.216-0.481,0.481c0,0.267,0.216,0.483,0.481,0.483S143.491,81.645,143.491,81.378"/>
				<path id="path53" inkscape:connector-curvature="0" fill="#C4122F" d="M148.062,88.235c0,0.239,0.193,0.432,0.432,0.432
					s0.431-0.193,0.431-0.432s-0.192-0.431-0.431-0.431S148.062,87.997,148.062,88.235"/>
				<path id="path55" inkscape:connector-curvature="0" fill="#C4122F" d="M150.347,88.235c0-0.265-0.215-0.481-0.481-0.481
					c-0.266,0-0.482,0.217-0.482,0.481c0,0.266,0.217,0.482,0.482,0.482C150.132,88.717,150.347,88.5,150.347,88.235"/>
				<path id="path57" inkscape:connector-curvature="0" fill="#C4122F" d="M147.554,84.122c0,0.238-0.192,0.432-0.431,0.432
					s-0.432-0.193-0.432-0.432s0.193-0.431,0.432-0.431C147.362,83.69,147.554,83.883,147.554,84.122"/>
				<path id="path59" inkscape:connector-curvature="0" fill="#C4122F" d="M149.026,82.749c0,0.295-0.239,0.535-0.532,0.535
					c-0.294,0-0.533-0.24-0.533-0.535c0-0.293,0.238-0.531,0.533-0.531C148.787,82.218,149.026,82.456,149.026,82.749"/>
				<path id="path61" inkscape:connector-curvature="0" fill="#C4122F" d="M150.5,81.378c0,0.352-0.285,0.635-0.635,0.635
					c-0.351,0-0.635-0.283-0.635-0.635c0-0.35,0.284-0.633,0.635-0.633C150.215,80.746,150.5,81.029,150.5,81.378"/>
				<path id="path63" inkscape:connector-curvature="0" fill="#C4122F" d="M104.002,93.719c0.018,0,0.864,0,0.882,0
					c0-0.017,0-3.259,0-3.276c-0.018,0-0.864,0.123-0.882,0.123C104.002,90.583,104.002,93.703,104.002,93.719"/>
				<path id="path65" inkscape:connector-curvature="0" fill="#C4122F" d="M115.931,91.789c0.002-0.014,0.004-0.033,0.009-0.062
					c0.064-0.432,0.29-0.666,0.661-0.666c0.359,0,0.563,0.236,0.57,0.667l0,0.01L115.931,91.789 M116.612,90.446
					c-0.946,0-1.608,0.683-1.608,1.659c0,1.046,0.652,1.693,1.702,1.693c0.658,0,0.988-0.183,1.208-0.303
					c0,0,0.001-0.001,0.003-0.002c-0.008-0.014-0.273-0.536-0.282-0.551c-0.01,0.004-0.034,0.018-0.034,0.018
					c-0.162,0.08-0.406,0.203-0.814,0.203c-0.644,0-0.817-0.456-0.847-0.839l-0.001-0.009c0,0,2.057,0,2.075,0
					c0.008-0.101,0.013-0.201,0.013-0.296c0-0.508-0.128-0.913-0.378-1.182C117.405,90.578,117.058,90.446,116.612,90.446z"/>
				<path id="path67" inkscape:connector-curvature="0" fill="#C4122F" d="M119.453,91.789c0.001-0.014,0.002-0.033,0.008-0.062
					c0.064-0.432,0.289-0.666,0.659-0.666c0.361,0,0.565,0.236,0.572,0.667l0.001,0.01L119.453,91.789 M120.134,90.446
					c-0.948,0-1.609,0.683-1.609,1.659c0,1.046,0.653,1.693,1.703,1.693c0.659,0,0.989-0.183,1.207-0.303
					c0,0,0.001-0.001,0.002-0.002c-0.006-0.014-0.272-0.536-0.28-0.551c-0.011,0.004-0.034,0.018-0.034,0.018
					c-0.162,0.08-0.406,0.203-0.814,0.203c-0.646,0-0.817-0.456-0.848-0.839l-0.001-0.009c0,0,2.059,0,2.076,0
					c0.008-0.101,0.013-0.201,0.013-0.296c0-0.508-0.129-0.913-0.378-1.182C120.927,90.578,120.579,90.446,120.134,90.446
					L120.134,90.446z"/>
				<path id="path69" inkscape:connector-curvature="0" fill="#C4122F" d="M125.936,93.719c0.016,0,0.856,0,0.873,0
					c0-0.018,0-4.496,0-4.515c-0.017,0-0.857,0.123-0.873,0.123C125.936,89.346,125.936,93.702,125.936,93.719"/>
				<path id="path71" inkscape:connector-curvature="0" fill="#C4122F" d="M102.358,92.89c-0.126,0.133-0.312,0.287-0.613,0.287
					c-0.186,0-0.405-0.132-0.405-0.387c0-0.35,0.31-0.557,0.895-0.557h0.123V92.89 M102.513,93.719c0.013,0,0.785,0,0.805,0
					c-0.06-0.269-0.091-0.586-0.091-0.94v-1.154c0-0.826-0.391-1.179-1.307-1.179c-0.685,0-1.112,0.282-1.31,0.455
					c0.01,0.013,0.369,0.465,0.379,0.479c0.003-0.003,0.007-0.006,0.007-0.006c0.125-0.088,0.414-0.294,0.823-0.294
					c0.378,0,0.539,0.177,0.539,0.498v0.152h-0.123c-0.839,0-1.735,0.297-1.735,1.133c0,0.534,0.393,0.935,0.978,0.935
					c0.464,0,0.762-0.25,0.896-0.4h0.032L102.513,93.719z"/>
				<path id="path73" inkscape:connector-curvature="0" fill="#C4122F" d="M104.442,89.107c-0.334,0-0.534,0.191-0.534,0.513
					s0.2,0.515,0.534,0.515c0.335,0,0.534-0.193,0.534-0.515S104.777,89.107,104.442,89.107"/>
				<path id="path75" inkscape:connector-curvature="0" fill="#C4122F" d="M110.504,92.205c-0.376,0-0.6-0.226-0.6-0.604
					c0-0.376,0.224-0.602,0.6-0.602s0.6,0.226,0.6,0.602C111.104,91.979,110.88,92.205,110.504,92.205 M110.107,92.714
					c0.156,0.039,0.437,0.039,0.437,0.039c0.864,0,1.4-0.44,1.4-1.152c0-0.075-0.016-0.216-0.036-0.294
					c-0.021-0.075-0.048-0.149-0.083-0.216c0,0-0.016-0.029-0.021-0.037h0.365l0.152-0.542c-0.083-0.044-0.194-0.066-0.34-0.066
					c-0.242,0-0.414,0.122-0.526,0.245c-0.128-0.085-0.281-0.146-0.456-0.191c-0.147-0.036-0.305-0.054-0.501-0.054
					c-0.865,0-1.427,0.441-1.44,1.132c0,0.006-0.001,0.023-0.001,0.023c0,0.483,0.272,0.77,0.544,0.93
					c-0.25,0.28-0.507,0.58-0.507,0.86l0,0c0,0.042,0.003,0.508,0.776,0.459c0.277-0.019,0.771-0.054,1.045-0.054
					c0.537,0,0.457,0.457,0.457,0.457h0.751c0.301-1.082-0.433-1.137-0.794-1.137s-1.076,0.096-1.202,0.107
					c-0.126,0.014-0.284,0.025-0.284-0.102c0-0.049,0.04-0.12,0.092-0.187L110.107,92.714z"/>
				<path id="path77" inkscape:connector-curvature="0" fill="#C4122F" d="M113.495,90.455c-0.014,0-0.743,0.192-0.764,0.192
					c0.057,0.25,0.088,0.43,0.092,0.745c0,0.919,0,2.315,0,2.326c0.017,0,0.857,0,0.875,0c0-0.017,0-2.062,0-2.062
					c0.083-0.146,0.317-0.451,0.719-0.451c0.19,0,0.342,0.053,0.342,0.053l0.205-0.73c-0.106-0.057-0.248-0.083-0.433-0.083
					c-0.448,0-0.721,0.323-0.833,0.515h-0.038L113.495,90.455"/>
				<path id="path79" inkscape:connector-curvature="0" fill="#C4122F" d="M106.379,90.455c-0.013,0-0.743,0.192-0.764,0.192
					c0.057,0.25,0.087,0.43,0.092,0.745c0,0.919,0,2.315,0,2.326c0.017,0,0.857,0,0.875,0c0-0.017,0-2.062,0-2.062
					c0.082-0.146,0.317-0.451,0.72-0.451c0.189,0,0.341,0.053,0.341,0.053l0.205-0.73c-0.105-0.057-0.247-0.083-0.432-0.083
					c-0.449,0-0.722,0.323-0.834,0.515h-0.037L106.379,90.455"/>
				<path id="path81" inkscape:connector-curvature="0" fill="#C4122F" d="M129.32,92.89c-0.125,0.133-0.312,0.287-0.613,0.287
					c-0.187,0-0.403-0.132-0.403-0.387c0-0.35,0.309-0.557,0.895-0.557h0.122V92.89 M129.475,93.719c0.014,0,0.785,0,0.807,0
					c-0.061-0.269-0.093-0.586-0.093-0.94v-1.154c0-0.826-0.39-1.179-1.306-1.179c-0.685,0-1.114,0.282-1.311,0.455
					c0.009,0.013,0.369,0.465,0.379,0.479c0.004-0.002,0.007-0.006,0.007-0.006c0.124-0.088,0.413-0.294,0.823-0.294
					c0.379,0,0.539,0.177,0.539,0.498v0.152h-0.122c-0.84,0-1.737,0.297-1.737,1.133c0,0.534,0.394,0.935,0.979,0.935
					c0.465,0,0.763-0.25,0.897-0.4h0.031L129.475,93.719z"/>
				<path id="path83" inkscape:connector-curvature="0" fill="#C4122F" d="M122.144,90.648c0.061,0.27,0.093,0.463,0.093,0.818
					c0,0.917,0,2.243,0,2.253c0.017,0,0.858,0,0.875,0c0-0.017,0-2.194,0-2.194c0.205-0.262,0.446-0.364,0.679-0.364
					c0.312,0,0.445,0.148,0.445,0.496c0,0,0,2.046,0,2.062c0.017,0,0.856,0,0.874,0c0-0.017,0-2.24,0-2.24
					c0-0.472-0.167-1.033-0.969-1.033c-0.395,0-0.741,0.149-1.029,0.458h-0.037l-0.147-0.448
					C122.915,90.455,122.165,90.648,122.144,90.648"/>
				<path id="path85" inkscape:connector-curvature="0" fill="#C4122F" d="M130.88,90.648c0.061,0.27,0.092,0.463,0.092,0.818
					c0,0.917,0,2.243,0,2.253c0.017,0,0.856,0,0.874,0c0-0.017,0-2.194,0-2.194c0.205-0.262,0.447-0.364,0.68-0.364
					c0.312,0,0.445,0.148,0.445,0.496c0,0,0,2.046,0,2.062c0.017,0,0.857,0,0.875,0c0-0.017,0-2.24,0-2.24
					c0-0.472-0.169-1.033-0.971-1.033c-0.395,0-0.741,0.149-1.028,0.458h-0.036l-0.148-0.448
					C131.65,90.455,130.9,90.648,130.88,90.648"/>
				<path id="path87" inkscape:connector-curvature="0" fill="#C4122F" d="M136.646,91.33v1.46
					c-0.041,0.056-0.261,0.327-0.618,0.327c-0.44,0-0.673-0.341-0.673-0.985c0-0.646,0.261-1.018,0.713-1.018
					c0.293,0,0.464,0.114,0.578,0.213V91.33 M137.522,92.812c0,0,0-3.568,0-3.586c-0.017,0-0.856,0.123-0.876,0.123
					c0,0.017,0,1.329,0,1.329l-0.013-0.01c-0.212-0.149-0.457-0.223-0.753-0.223c-0.856,0-1.455,0.692-1.455,1.687
					c0,1.047,0.499,1.673,1.334,1.673c0.359,0,0.669-0.132,0.91-0.407h0.032l0.106,0.321c0.014,0,0.785,0,0.807,0
					C137.579,93.561,137.522,93.239,137.522,92.812L137.522,92.812z"/>
			</g>
		</g>
	</g>
</g>
</svg>
