<?xml version="1.0" encoding="utf-8"?>
<!-- Generator: Adobe Illustrator 16.2.1, SVG Export Plug-In . SVG Version: 6.00 Build 0)  -->
<!DOCTYPE svg PUBLIC "-//W3C//DTD SVG 1.1//EN" "http://www.w3.org/Graphics/SVG/1.1/DTD/svg11.dtd">
<svg version="1.1"
	 id="svg2" xmlns:rdf="http://www.w3.org/1999/02/22-rdf-syntax-ns#" xmlns:cc="http://creativecommons.org/ns#" xmlns:svg="http://www.w3.org/2000/svg" xmlns:dc="http://purl.org/dc/elements/1.1/"
	 xmlns="http://www.w3.org/2000/svg" xmlns:xlink="http://www.w3.org/1999/xlink" x="0px" y="0px" width="50px" height="50px"
	 viewBox="350.5 265.5 50 50" enable-background="new 350.5 265.5 50 50" xml:space="preserve">
<g id="layer1" transform="translate(0,-552)">
	<path id="path3025" fill="#8CBD00" d="M350.5,844.021c8.176,21.288,49.243,11.948,48.618-10.641
		C402.621,858.868,355.102,866.983,350.5,844.021z"/>
	<path id="path3011" fill="#003173" d="M366.032,827.912c-1.533-0.477-2.686-0.45-4.07-0.45c-3.865,0-6.38,1.242-6.38,3.979
		c0,3.163,5.658,4.291,5.658,6.202c0,0.916-0.985,0.986-2.158,1.012c-1.32,0.02-2.615-0.264-3.932-0.766l0.096,3.207
		c1.555,0.6,3.14,0.554,4.698,0.554c2.422,0,6.325-0.554,6.325-3.928c0-3.479-5.514-4.343-5.514-6.209
		c0-0.626,0.773-0.935,2.138-0.935c1.198,0,2.3,0.168,3.375,0.502L366.032,827.912z"/>
	<path id="path3017" fill="#003173" d="M368.021,827.603l-0.792,13.854h5.114l0.219-5.197l3.549,5.197h6.132l-5.655-7.258
		l2.95-3.145l-2.183-3.452l-4.554,4.793l0.361-4.793H368.021z"/>
	<path id="path3019" fill="#8CBD00" d="M382.127,841.457l0.476-5.539l-5.249-8.315h5.468l2.493,4.773l3.285-4.773h5.583
		l-6.737,8.657l-0.142,5.197H382.127z"/>
	<path id="path3031" fill="#003173" d="M363.372,844.072l-4.412,8.077h2.254l1.346-2.879h2.847l1.056,2.879h2.016l-3.046-8.077
		H363.372L363.372,844.072z M364.286,845.534l0.882,2.492h-2.158L364.286,845.534z"/>
	<path id="path3036" fill="#003173" d="M370.971,843.57c-0.669,0-1.223,0.45-1.223,1.031c0,0.572,0.554,1.029,1.223,1.029
		c0.683,0,1.23-0.457,1.23-1.029C372.202,844.021,371.654,843.57,370.971,843.57z M370.083,846.134l-0.528,6.016h1.964l0.445-6.016
		H370.083L370.083,846.134z"/>
	<path id="path3036-2" fill="#003173" d="M383.898,843.57c-0.67,0-1.224,0.45-1.224,1.031c0,0.572,0.554,1.029,1.224,1.029
		c0.669,0,1.224-0.457,1.224-1.029C385.122,844.021,384.567,843.57,383.898,843.57z M383.016,846.134l-0.528,6.016h1.964
		l0.433-6.016H383.016z"/>
	<path id="path3079" fill="#003173" d="M373.258,852.149l0.645-6.016h1.559l-0.071,0.695c0.387-0.554,0.934-0.914,1.533-0.914
		c0.387,0,0.529,0.051,0.722,0.219l-0.193,1.34c-0.335-0.116-0.309-0.116-0.741-0.116c-0.914,0-1.365,1.198-1.417,1.675
		l-0.284,3.117H373.258z"/>
	<path id="path3036-2-5" fill="#003173" d="M379.151,844.072l-0.715,8.077h1.965l0.573-8.077H379.151z"/>
	<path id="path3099" fill="#003173" d="M386.372,852.149l0.432-6.016h1.629l-0.096,0.96c0.617-0.67,1.196-1.102,2.324-1.102
		c1.314,0,2.203,0.67,2.158,1.72l-0.219,4.438h-1.655l0.193-3.594c0.052-0.529-0.167-1.249-1.172-1.249
		c-0.793,0-1.611,0.767-1.682,1.486l-0.211,3.356H386.372z"/>
	<path id="path3101" fill="#003173" d="M397.734,845.966c-2.087,0-3.144,1.341-3.144,3.305c0,1.198,0.387,2.879,3.479,2.879
		c0.87,0,1.526-0.052,1.798-0.104l0.334-1.333c-0.67,0.238-1.347,0.478-2.158,0.478c-1.198,0-1.92-1.198-1.92-2.158h4.316
		C400.606,847.859,400.631,845.966,397.734,845.966L397.734,845.966z M397.779,846.997c0.934,0,1.269,0.573,1.127,1.294h-2.635
		C396.388,847.667,396.819,846.997,397.779,846.997z"/>
</g>
</svg>
