<?xml version="1.0" encoding="utf-8"?>
<!-- Generator: Adobe Illustrator 16.2.1, SVG Export Plug-In . SVG Version: 6.00 Build 0)  -->
<!DOCTYPE svg PUBLIC "-//W3C//DTD SVG 1.1//EN" "http://www.w3.org/Graphics/SVG/1.1/DTD/svg11.dtd">
<svg version="1.1"
	 id="Ebene_1" sodipodi:docname="AJAX.svg" inkscape:version="0.48.1 " xmlns:dc="http://purl.org/dc/elements/1.1/" xmlns:cc="http://creativecommons.org/ns#" xmlns:rdf="http://www.w3.org/1999/02/22-rdf-syntax-ns#" xmlns:svg="http://www.w3.org/2000/svg" xmlns:sodipodi="http://sodipodi.sourceforge.net/DTD/sodipodi-0.dtd" xmlns:inkscape="http://www.inkscape.org/namespaces/inkscape"
	 xmlns="http://www.w3.org/2000/svg" xmlns:xlink="http://www.w3.org/1999/xlink" x="0px" y="0px" width="50px" height="50px"
	 viewBox="53.666 134.158 50 50" enable-background="new 53.666 134.158 50 50" xml:space="preserve">
<sodipodi:namedview  inkscape:window-maximized="1" inkscape:current-layer="Ebene_1" inkscape:window-height="1004" inkscape:window-x="-8" fit-margin-bottom="0" inkscape:pageopacity="0" inkscape:pageshadow="2" inkscape:window-width="1280" inkscape:window-y="-8" fit-margin-right="0" pagecolor="#ffffff" borderopacity="1" bordercolor="#666666" inkscape:cy="88.941155" gridtolerance="10" fit-margin-top="0" objecttolerance="10" inkscape:zoom="0.88117835" inkscape:cx="381.65032" fit-margin-left="0" guidetolerance="10" showgrid="false" id="namedview57">
	</sodipodi:namedview>
<g id="g3" transform="translate(-41.063,-45.298581)">
	<path id="path5" inkscape:connector-curvature="0" fill="#6D4293" d="M142.183,208.675c0.581,0.403,0.697,0.477,1.146-0.134
		c1.075-1.446,2.873-6.526-0.803-11.106c0.173-1.136-0.02-2.308-0.471-3.253c-0.276,0.369-0.647,0.69-1.09,0.945
		c-0.374-0.583-1.131-0.874-1.807-0.898c-0.393-0.015-0.285,0.147-0.09,0.227c2.793,1.171,1.809,4.426,1.446,5.118
		c-0.367,0.706-0.29,1.592-0.29,1.592c-0.868-0.255-1.653-0.039-2.357,0.071c-1.386,0.222-2.31-0.026-3.031-0.356
		c-0.574-0.262-1.477-0.859-1.615-1.999c-0.026-0.21-0.16-0.354-0.242,0.032c-0.143,0.66-0.043,1.466,0.432,1.971
		c-0.518,2.545-5.507,2.359-5.507,2.359c-0.292-0.965-2.077-1.34-2.852-2.499c0,0.002,0,0.002,0,0.002
		c-0.004-0.002-0.009-0.007-0.009-0.011c-0.075,2.855-1.237,4.937-1.783,5.648c-0.05,0.063-0.021,0.137,0.095,0.121
		c0.762-0.121,1.785-0.938,2.25-1.561c0.129-0.166,0.263-0.107,0.281,0.061c0.816,7.959-2.224,17.019-3.86,20.567
		c-0.44,0.954-0.916,1.509,0.129,0.775c2.547-1.787,5.461-2.673,7.642-3.199c4.261-1.023,6.476-2.152,7.741-2.998
		c3.125-2.097,4.423-4.806,4.658-7.137c0.415-4.071-3.799-5.278-3.933-5.355c-0.134-0.078-0.056-0.162,0.11-0.169
		C139.541,207.436,140.942,207.809,142.183,208.675L142.183,208.675L142.183,208.675z"/>
	<path id="path7" inkscape:connector-curvature="0" fill="#CC3A8D" d="M100.786,207.49c0.168-0.002,0.257,0.112,0.111,0.169
		c-3.495,1.355-3.588,2.852-3.539,4.086c0.141,3.568,4.473,7.952,7.5,9.382c0.748,0.339,1.032,0.473,0.953-0.354
		c-0.048-2.083,0.843-3.56,1.329-4.146c0.106-0.13,0.22-0.143,0.202,0.011c-0.017,0.153-1.723,5.278,2.191,7.001
		c2.758,1.217,7.306,0.708,9.866,4.766c0.094,0.155,0.137,0.143,0.201,0.013c2.391-5.219-0.021-10.042-0.417-11.093
		c1.214-0.672,2.354-1.509,3.101-2.441c0.591-0.736,0.822-1.243,0.969-1.555c0.175-0.369,0.116-0.557-0.197-0.38
		c-1.928,1.104-5.908,2.657-11.587,1.557c0,0-1.558-0.229-1.328-1.813c0.062-0.44,0.286-0.897,0.464-1.338
		c0.064-0.158,0.273-0.756,0.074-1.045c-0.199-0.285-0.325-0.488-0.205-0.861c0.084-0.266,0.466-0.615,1.073-0.765
		c0.531-0.129,1.433-0.198,2.184-0.134c0.203,0.016,0.412-0.008,0.532-0.023c0.204-0.023,0.341-0.203,0.273-0.403
		c-0.049-0.145-0.162-0.255-0.328-0.667c-0.123,0.257-0.267,0.373-0.6,0.321c-0.339-0.052-1.019-0.28-1.641-0.451
		c-0.624-0.168-1.023-0.071-1.382,0.432c-0.356,0.505-0.35-0.002-0.315-0.168c0.053-0.262,0.431-0.652,0.473-0.894
		c0.032-0.187,0.078-0.451-0.441-0.82c-0.368-0.26-0.62-0.469-0.776-0.629c-0.498-0.505-0.585-1.022,0.369-1.832
		c0.681-0.583,2.186-2.135,2.642-3.085c0.072-0.146,0.437-0.74,0.037-1.334c-0.308-0.458-0.36-0.546-0.442-0.702
		c-0.221-0.427-0.062-0.807,0.3-1.375c0.178-0.276,0.316-0.61,0.695-1.798c0.452-1.416,1.308-2.903,2.413-3.818
		c0.466-0.904,0.167-2.403,2.034-4.041c1.478-1.298,6.535-3.026,12.547-2.063c0.192-0.16,0.345-0.296,0.47-0.415
		c-2.232-2.435-7.05-4.257-10.513-4.375c-2.358-0.082-7.398,0.414-10.262,3.687c-2.099-0.369-8.08,0.854-11.879,9.239
		c-0.365,0.807-0.262,1.029,0.255,0.846c1.604-0.571,3.035-0.594,3.737-0.425c0.311,0.073,0.179,0.186,0.123,0.196
		c-0.06,0.009-0.172,0.045-0.412,0.089c-0.747,0.138-2.65,0.794-3.671,1.75c-5.607,5.63-2.308,11.75-1.951,12.404
		c0.362,0.662,0.567,0.796,1.13,0.369C97.662,208.165,98.936,207.498,100.786,207.49L100.786,207.49L100.786,207.49z"/>
	<path id="path9" inkscape:connector-curvature="0" fill="#CC3A8D" d="M112.607,205.573c-0.166,0.294-0.5,0.674-1.271,0.216
		c-0.656-0.396-0.827-0.483-1.193-0.656c-0.077-0.034-0.136-0.068-0.112-0.134c0.022-0.054,0.157-0.079,0.362-0.041
		c0.412,0.074,1.038,0.242,1.173,0.257c0.136,0.016,0.545,0.104,0.712-0.06c0.15-0.146,0.292-0.221,0.367-0.104
		C112.722,205.165,112.653,205.49,112.607,205.573L112.607,205.573L112.607,205.573z"/>
	<path id="path11" inkscape:connector-curvature="0" fill="#EE936C" d="M142.008,188.815c-0.058,0.484,0.091,1.842,0.462,3.106
		c0.389,1.334-0.302,2.516-1.504,3.206c-0.374-0.583-1.131-0.872-1.807-0.898c-0.393-0.015-0.285,0.147-0.09,0.227
		c2.793,1.173,1.809,4.428,1.446,5.118c-0.367,0.708-0.29,1.592-0.29,1.592c-0.868-0.255-1.653-0.039-2.357,0.073
		c-1.386,0.22-2.31-0.028-3.031-0.358c-0.574-0.262-1.477-0.859-1.615-1.999c-0.026-0.21-0.16-0.354-0.242,0.032
		c-0.143,0.663-0.043,1.466,0.432,1.973c-0.518,2.543-5.507,2.357-5.507,2.357c-0.33-1.097-2.597-1.431-3.113-3.026
		c-0.242-0.758-0.043-1.548-0.043-1.548c1.304,0.315,2.057-0.314,2.482-0.84c0.248-0.306,0.049-0.321-0.127-0.209
		c-1.649,1.045-3.188,0.002-3.51-1.473c-0.428-1.607-2.003-2.141-2.003-2.141c1.144-0.724,0.827-1.969,1.42-3.024
		c1.569-2.771,3.799-1.943,3.799-1.943c0.216,0.661,0.874,1.136,1.52,1.33c0.378,0.114,0.315-0.071,0.147-0.194
		c-1.584-1.142-1.192-2.959,0.054-3.808c2.178-1.481,2.549-2.122,2.549-2.122c0.397,0.305,1.459,0.565,2.573,0.665
		c2.498,0.222,3.087,1.521,3.139,2.019c-0.296,0.155-0.799,0.623-1.032,1.37c-0.117,0.378,0.069,0.315,0.194,0.147
		c0.971-1.332,2.171-1.08,3.294-0.563C139.96,188.206,140.989,189.037,142.008,188.815L142.008,188.815L142.008,188.815z"/>
	<path id="path13" inkscape:connector-curvature="0" fill="#6D4293" d="M126.812,189.039c0.216,0.661,0.874,1.136,1.52,1.33
		c0.181,0.057,0.263,0.039,0.276-0.002c-0.015-0.041-0.032-0.08-0.05-0.119c-0.02-0.025-0.049-0.052-0.08-0.073
		c-1.584-1.142-1.192-2.959,0.054-3.808c0.697-0.475,1.211-0.866,1.587-1.175c-6.012-0.96-11.07,0.767-12.546,2.066
		c-1.868,1.638-1.568,3.137-2.035,4.039c0.772-0.572,1.631-0.943,2.685-1.179c2.666-0.594,4.028,0.373,4.652,1.148
		c0.039-0.096,0.086-0.19,0.138-0.285C124.584,188.211,126.812,189.039,126.812,189.039L126.812,189.039L126.812,189.039z"/>
	<path id="path15" inkscape:connector-curvature="0" fill="#6D4293" d="M130.567,196.785c0.018,0.125,0.069,0.161,0.164,0.043
		c0.401-0.521,1.083-1.325,2.161-1.792c1.289-0.562,1.897-1.396,2.07-2.226c0.108-0.494,0.086-1.341,0.628-1.976
		c0.172-0.202-0.052-0.207-0.218-0.136c-0.16,0.069-0.993,0.519-1.42,1.289c-0.483-0.321-0.587-0.894-0.611-1.232
		c0.002-0.104-0.093-0.158-0.196-0.021c-0.354,0.459-0.54,0.999-0.555,1.361c0,0-0.413-0.168-0.38-0.846
		c0.007-0.112-0.058-0.059-0.088-0.02c-0.524,0.611-0.309,1.289-0.289,1.384c0,0-0.726-0.203-1.736-0.108
		c-0.324-0.61-1.412-0.535-1.422,0.173c-0.011,0.642,1.103,0.868,1.414,0.262c0,0,1.414-0.182,2.929,0.755
		c0.155,0.098,0.218,0.188,0.158,0.276c-0.043,0.067-0.246,0-0.497-0.099c-0.285-0.11-2.206-0.793-3.476,0.289
		c-0.065,0.054-0.056,0.118,0.017,0.118c0.29,0.014,0.946,0.08,1.192,0.44c-0.358,0.192-0.919,0.574-1.151,1.594
		c-0.06,0.263,0.097,0.259,0.201,0.134c0.125-0.149,0.906-0.857,1.252-0.9C130.719,195.548,130.518,196.069,130.567,196.785
		L130.567,196.785z"/>
	<path id="path17" inkscape:connector-curvature="0" fill="#CC3A8D" d="M117.611,198.156c-0.497-0.293-1.162-0.276-1.292-0.3
		c-0.131-0.023-0.156-0.157,0.041-0.253c0.268-0.129,0.77-0.021,0.788-0.105c0.017-0.071-0.098-0.259-0.48-0.406
		c-0.381-0.146-1.226-0.112-1.657-0.041c-0.43,0.074-0.805-0.309-0.13-0.876c0.673-0.57,1.632-0.455,1.998-0.503
		c0.366-0.05,0.211-0.212,0.114-0.253c-0.098-0.041-0.6-0.332-1.479-0.276c-0.877,0.057-1.632,0.568-2.095,1.095
		c-0.25,0.287-0.362,0.576-0.408,0.82c-0.042,0.464,0.324,0.647,0.717,0.488c0.198-0.082,0.325-0.108,0.479-0.093
		c0.19,0.021,0.307,0.186,0.237,0.237c-0.095,0.068-0.206,0.181-0.26,0.43c-0.064,0.28,0.134,0.503,0.308,0.783
		c0.086,0.143,0.165,0.246,0.193,0.352c0.041,0.151,0.013,0.214-0.112,0.315c-0.142,0.11-0.059,0.307,0.226,0.227
		c0.325-0.091,0.502-0.184,0.748-0.391c0.348-0.291,0.341-0.479,0.586-0.723c0.243-0.244,1.01-0.242,1.403-0.188
		C118,198.562,118.106,198.449,117.611,198.156L117.611,198.156L117.611,198.156z"/>
</g>
</svg>
