<?xml version="1.0" encoding="utf-8"?>
<!-- Generator: Adobe Illustrator 16.2.1, SVG Export Plug-In . SVG Version: 6.00 Build 0)  -->
<!DOCTYPE svg PUBLIC "-//W3C//DTD SVG 1.1//EN" "http://www.w3.org/Graphics/SVG/1.1/DTD/svg11.dtd">
<svg version="1.1" id="Layer_1" xmlns="http://www.w3.org/2000/svg" xmlns:xlink="http://www.w3.org/1999/xlink" x="0px" y="0px"
	 width="50px" height="50px" viewBox="75.5 55.5 50 50" enable-background="new 75.5 55.5 50 50" xml:space="preserve">
<g>
	<path d="M79.961,83.678l1.577-2.671l0.502,2.439L79.961,83.678z M81.209,78.937L75.5,87.702l1.93-0.105l1.593-2.416l3.344-0.333
		l0.615,2.34l1.851-0.075l-2.159-8.409L81.209,78.937"/>
	<polygon points="86.725,87.065 88.486,86.94 90.125,77.707 88.395,77.979 	"/>
	<path d="M98.963,78.312c-0.629-1.771-2.766-1.34-2.766-1.34l-3.499,0.471l-1.669,9.4l1.768-0.101l1.366-7.976l1.395-0.174
		c0,0,0.346-0.046,0.729,0.023c0.595,0.094,1.276,0.457,0.899,1.643c-0.359,1.591-3.29,1.688-3.29,1.688l2.821,4.509l2.178-0.136
		l-2.279-3.455C96.614,82.865,99.596,81.792,98.963,78.312z"/>
	<path d="M109.206,83.355c-1.161,0.756-3.278,0.703-3.278,0.703l0.911-6.857c0,0,1.361-0.218,1.622-0.249
		c0.263-0.032,0.847-0.035,1.179,0.037c1.229,0.072,1.469,1.549,1.469,1.549S111.807,81.506,109.206,83.355z M109.979,75.067
		c0,0-0.809-0.036-1.771,0.109c-0.958,0.145-2.988,0.433-2.988,0.433l-1.487,10.4l3.102-0.209c0,0,3.264,0.01,4.995-2.527
		c0.303-0.367,2.285-3.689,0.562-6.824C112.392,76.449,111.401,75.025,109.979,75.067"/>
	<path d="M123.294,80.22c-0.353,1.383-2.064,3.667-4.427,3.12c-0.384-0.029-3.285-1.393-1.399-5.505c0,0,1.296-2.647,3.847-2.422
		C122.308,75.487,124.363,76.752,123.294,80.22z M121.842,73.308c-4.442-0.258-6.383,4.485-6.553,5.11
		c-1.522,4.625,1.652,6.821,3.329,6.986c4.366,0.391,6.322-4,6.636-5.438C126.449,74.723,122.952,73.365,121.842,73.308"/>
</g>
</svg>
