<?xml version="1.0" encoding="utf-8"?>
<!-- Generator: Adobe Illustrator 16.2.1, SVG Export Plug-In . SVG Version: 6.00 Build 0)  -->
<!DOCTYPE svg PUBLIC "-//W3C//DTD SVG 1.1//EN" "http://www.w3.org/Graphics/SVG/1.1/DTD/svg11.dtd">
<svg version="1.1" id="svg2367" xmlns:svg="http://www.w3.org/2000/svg"
	 xmlns="http://www.w3.org/2000/svg" xmlns:xlink="http://www.w3.org/1999/xlink" x="0px" y="0px" width="50px" height="50px"
	 viewBox="-24.5 40.5 50 50" enable-background="new -24.5 40.5 50 50" xml:space="preserve">
<g id="Ebene_x0020_1">
	<path fill="#C20437" d="M25.346,63.055c-0.689-3.339-3.34-6.626-6.52-8.109l-0.107-0.212c0.795-0.317,1.537-0.213,2.333-0.105
		c0.635,0,1.325,0.688,1.801,0.105c-1.589-0.955-3.339-1.432-5.035-2.173c-7.315-1.803-15.689-2.704-23.587-1.538
		c-7.579,1.113-16.855,4.135-18.657,12.774c-0.477,4.664,1.326,8.799,5.248,11.501c10.336,6.626,27.085,6.731,37.473,0.267
		C22.694,72.966,26.3,68.408,25.346,63.055L25.346,63.055z M18.667,71.164h-0.265c-0.211-3.816,0.636-7.42,0.954-11.131
		c-0.318-0.688-0.848-1.272-1.537-1.59c-0.848-0.106-1.483,0.212-1.909,0.901c-1.006,3.815-0.794,8.215-1.218,12.35
		c0,0.584,0.529,1.113,1.061,1.324v0.318C9.656,76.941,1.97,77.472-5.503,76.835c-4.188-0.636-8.163-1.59-11.555-4.134l-0.052-0.317
		l2.332-6.892h0.265l3.392,8.428c0.848,0.742,1.696,1.378,2.968,1.114c0.318-0.266,0.849-0.584,0.901-1.008
		c0.265-5.513,0.954-10.759,2.757-15.583c-0.052-0.529-0.53-1.008-1.007-1.271c-1.271-0.479-2.173,0.529-2.968,1.218
		c-0.689,2.544-1.378,5.036-1.696,7.739h-0.265c-0.901-2.279-2.014-4.399-2.385-6.892c-0.636-0.688-1.591-0.741-2.386-0.688
		c-0.636,0.159-1.272,0.688-1.537,1.325c-1.166,3.021-1.854,6.255-3.126,9.224h-0.319c-0.901-1.855-1.271-4.612-0.371-6.573
		c4.134-7.154,12.615-8.108,20.354-8.587c3.762,0,7.738,0.106,11.13,1.272c4.239,0.795,9.063,2.597,10.759,7.05
		C22.377,65.6,21.476,68.99,18.667,71.164L18.667,71.164z M12.996,58.337c-2.704-0.211-4.717,1.75-6.891,3.233H5.628
		C5.733,60.299,5.733,58.974,6,57.914c-0.318-0.584-1.113-1.113-1.909-1.167c-0.741,0.159-1.483,0.637-1.696,1.379L1.758,64.22
		l-0.848,0.796c-0.159,0.584,0.317,0.901,0.583,1.325l-1.007,6.89l0.159,1.113c0.266,0.637,0.954,1.062,1.644,1.113
		c0.794-0.105,1.696-0.529,1.96-1.378l0.53-5.035l0.16-0.265c1.007,0.53,1.96,1.165,2.915,1.854c1.75,0.849,2.704,3.233,4.982,2.81
		c0.318-0.159,0.848-0.371,0.954-0.848c0.212-0.796-0.052-1.538-0.423-2.174c-2.227-1.695-4.505-3.551-6.732-5.089
		c1.484-1.271,3.181-2.278,4.824-3.339c0.794-1.219,4.187,0,2.914-2.544C14.056,58.92,13.526,58.496,12.996,58.337L12.996,58.337z
		 M-1.898,57.543c-0.53,0.158-1.061,0.529-1.22,1.006c-0.847,4.771-1.43,9.594-2.331,14.364l0.158,1.113
		c0.265,0.636,1.007,0.901,1.538,1.271c0.635,0.054,1.537-0.053,1.855-0.795l2.279-15.848C-0.149,57.966-0.892,57.33-1.898,57.543
		L-1.898,57.543z"/>
</g>
</svg>
