<?xml version="1.0" encoding="utf-8"?>
<!-- Generator: Adobe Illustrator 16.2.1, SVG Export Plug-In . SVG Version: 6.00 Build 0)  -->
<!DOCTYPE svg PUBLIC "-//W3C//DTD SVG 1.1//EN" "http://www.w3.org/Graphics/SVG/1.1/DTD/svg11.dtd">
<svg version="1.1"
	 id="svg10389" xmlns:svg="http://www.w3.org/2000/svg" xmlns:rdf="http://www.w3.org/1999/02/22-rdf-syntax-ns#" xmlns:cc="http://creativecommons.org/ns#" xmlns:dc="http://purl.org/dc/elements/1.1/"
	 xmlns="http://www.w3.org/2000/svg" xmlns:xlink="http://www.w3.org/1999/xlink" x="0px" y="0px" width="50px" height="50px"
	 viewBox="396.957 108.866 50 50" enable-background="new 396.957 108.866 50 50" xml:space="preserve">
<g id="layer1" transform="translate(57.690666,-515.13463)">
	<g id="g10912" transform="matrix(4.9698955,0,0,4.9698955,-1883.1862,-3329.4565)">
		<g id="g8842" transform="matrix(1.25,0,0,-1.25,417.5676,788.91281)">
			<path id="path8844" fill="#DADF4B" d="M30.311-9.226l-0.005-0.002c-0.022-0.009-0.044-0.018-0.066-0.028l-0.002-0.001
				c-0.343-0.162-0.516-0.463-0.723-0.758c0.095,0.007,0.224-0.007,0.307-0.089c-0.385-0.076-0.456-0.31-0.915-0.499l-0.005-0.001
				c-0.147-0.08-0.306-0.136-0.471-0.165c-0.363-0.064-0.751-0.001-1.081,0.206h0.001h0c0.142-0.014,0.268-0.01,0.381,0.008
				c0.235,0.038,0.417,0.137,0.568,0.26l-0.003,0c-0.367,0.063-0.539,0.352-0.746,0.623c-0.004-0.002-0.261-0.146-0.436-0.204
				l-0.014-0.005c-0.023-0.009-0.046-0.017-0.069-0.024l-0.014-0.005L27.014-9.91c-0.039-0.013-0.079-0.025-0.119-0.035
				l-0.006-0.002l-0.004-0.001c-0.03-0.008-0.061-0.015-0.091-0.021L26.79-9.97c-0.03-0.006-0.061-0.012-0.091-0.017l-0.005-0.001
				c-0.464-0.075-0.955,0.002-1.382,0.249l0.001-0.002c0.073-0.116,0.174-0.268,0.302-0.441c0.657-0.888,1.279-1.072,2.106-1.072
				h4.021C31.367-11.004,30.978-10.323,30.311-9.226"/>
		</g>
		<g id="g8846" transform="matrix(1.25,0,0,-1.25,397.09373,792.48106)">
			<path id="path8848" fill="#E4E786" d="M43.955-6.848c0.006-0.008,0.012-0.016,0.018-0.024
				C43.967-6.864,43.961-6.856,43.955-6.848 M43.976-6.877c0.101-0.136,0.198-0.272,0.319-0.378c0,0,0,0,0,0
				c-0.116,0.101-0.209,0.229-0.306,0.359C43.985-6.889,43.981-6.883,43.976-6.877 M41.691-6.885L41.691-6.885
				c0.008-0.005,0.016-0.009,0.024-0.014C41.707-6.894,41.699-6.889,41.691-6.885 M41.799-6.943
				C41.799-6.943,41.799-6.943,41.799-6.943c0.286-0.144,0.597-0.214,0.906-0.217C42.396-7.157,42.085-7.086,41.799-6.943
				 M43.646-6.959c-0.019-0.009-0.039-0.017-0.058-0.025c-0.032-0.013-0.064-0.025-0.093-0.035l0,0h0l-0.005-0.002
				c-0.004-0.002-0.009-0.003-0.013-0.005c-0.01-0.004-0.019-0.007-0.029-0.011c0.011,0.004,0.023,0.008,0.034,0.012l0.014,0.005
				C43.542-7.004,43.594-6.982,43.646-6.959 M43.412-7.049c-0.036-0.012-0.072-0.023-0.109-0.033
				c-0.002-0.001-0.005-0.001-0.007-0.002c0.027,0.007,0.053,0.015,0.08,0.023l0.001,0c0.005,0.001,0.011,0.003,0.016,0.005
				l0.005,0.001c0,0,0,0,0,0L43.412-7.049 M43.279-7.089c-0.001,0-0.002-0.001-0.003-0.001h0C43.277-7.09,43.278-7.089,43.279-7.089
				C43.279-7.089,43.279-7.089,43.279-7.089 M43.272-7.091L43.27-7.092c-0.001,0-0.002,0-0.003-0.001c0,0,0,0,0,0
				c-0.001,0-0.001,0-0.002,0c-0.035-0.009-0.07-0.017-0.105-0.024c-0.002-0.001-0.004-0.001-0.006-0.001
				c0.005,0.001,0.011,0.002,0.016,0.003l0.003,0.001c0.031,0.006,0.061,0.014,0.091,0.021l0.002,0l0.002,0c0,0,0,0,0,0
				L43.272-7.091 M43.14-7.121L43.14-7.121c-0.014-0.003-0.027-0.005-0.04-0.008c0.004,0.001,0.008,0.001,0.013,0.002
				C43.122-7.125,43.131-7.123,43.14-7.121 M43.088-7.131c-0.004,0-0.008-0.001-0.012-0.002l0.002,0
				C43.081-7.132,43.084-7.131,43.088-7.131 M44.662-7.436c0.003-0.001,0.005-0.001,0.008-0.002c0,0,0,0,0,0h0
				C44.668-7.437,44.665-7.437,44.662-7.436"/>
		</g>
		<g id="g8850" transform="matrix(1.25,0,0,-1.25,380.95798,793.19056)">
			<path id="path8852" fill="#C2D53C" d="M54.708-6.376L54.708-6.376c0.294-0.147,0.614-0.218,0.931-0.218
				c0.115,0,0.23,0.009,0.343,0.028l0.005,0.001c0.012,0.002,0.024,0.004,0.035,0.006c-0.004,0-0.008-0.001-0.013-0.002
				C56.004-6.562,56-6.562,55.996-6.563c-0.003,0-0.007-0.001-0.01-0.002l-0.002,0c-0.114-0.019-0.23-0.028-0.345-0.028
				c-0.008,0-0.017,0-0.025,0C55.305-6.589,54.994-6.518,54.708-6.376 M56.403-6.452l-0.014-0.005
				c-0.011-0.004-0.022-0.008-0.033-0.012c-0.012-0.004-0.024-0.008-0.035-0.012l-0.013-0.005c0.002,0.001,0.016,0.005,0.032,0.011
				c0.011,0.004,0.021,0.007,0.032,0.011C56.383-6.46,56.395-6.456,56.403-6.452 M56.306-6.486l-0.004-0.002
				c-0.005-0.002-0.011-0.003-0.016-0.005l0.003,0.001l0.007,0.002L56.306-6.486C56.306-6.487,56.306-6.487,56.306-6.486
				 M56.188-6.522c-0.001,0-0.002,0-0.003-0.001l-0.002,0C56.184-6.523,56.186-6.522,56.188-6.522 M56.182-6.523l-0.001,0h0l0,0
				l-0.004-0.001C56.177-6.524,56.179-6.524,56.182-6.523 M56.177-6.525l-0.002,0L56.177-6.525
				C56.176-6.525,56.176-6.525,56.177-6.525"/>
		</g>
		<g id="g8854" transform="matrix(1.25,0,0,-1.25,406.54635,780.85943)">
			<path id="path8856" fill="#DADF4B" d="M37.656-14.593c-0.26-0.227-0.441-0.526-0.638-0.806c0.143,0.01,0.304-0.017,0.409-0.122
				c-0.221-0.044-0.407-0.149-0.586-0.282c0.132-0.076,0.254-0.166,0.362-0.254c0.06-0.044,0.121-0.085,0.187-0.12
				c0.04-0.021,0.08-0.042,0.12-0.062c0.017-0.008,0.034-0.017,0.052-0.025c0.066,0.076,0.131,0.145,0.199,0.198
				c0.331,0.259,0.783,0.548,1.263,0.445l0.013-0.003c0.024-0.006,0.047-0.011,0.071-0.019l0.004-0.001
				c-0.21,0.343-0.416,0.689-0.675,0.998l-0.007,0.008c-0.05,0.059-0.101,0.117-0.155,0.173c-0.029,0.03-0.059,0.06-0.09,0.089
				c-0.015,0.014-0.03,0.028-0.045,0.042c-0.007,0.007-0.015,0.014-0.022,0.02c-0.016-0.006-0.031-0.012-0.046-0.019
				C37.921-14.396,37.781-14.484,37.656-14.593"/>
		</g>
		<g id="g8858" transform="matrix(1.25,0,0,-1.25,381.5711,783.20231)">
			<path id="path8860" fill="#F36E21" d="M54.299-13.032c-0.017,0.022-0.034,0.044-0.052,0.066
				c-0.006,0.008-0.013,0.016-0.019,0.023c-0.021,0.027-0.043,0.052-0.066,0.078c-0.007,0.008-0.014,0.017-0.022,0.025
				c-0.022,0.025-0.045,0.049-0.068,0.073c-0.008,0.008-0.017,0.016-0.025,0.024c-0.019,0.019-0.039,0.037-0.059,0.054
				c-0.011,0.01-0.023,0.02-0.035,0.03c-0.021,0.018-0.043,0.034-0.066,0.051c-0.012,0.009-0.025,0.018-0.037,0.027l-0.01,0.006
				c-0.018,0.012-0.037,0.024-0.056,0.036l-0.009,0.005c-0.064,0.037-0.133,0.07-0.208,0.097c0.029,0.011,0.058,0.02,0.087,0.028
				l0.007,0.002c0.4,0.115,0.791,0.027,1.138-0.142l0.004-0.002c0.019-0.009,0.038-0.019,0.057-0.029
				c0.034-0.018,0.068-0.036,0.101-0.055c0.007-0.004,0.013-0.008,0.02-0.012c0.037-0.022,0.073-0.044,0.109-0.067
				c0.014-0.009,0.028-0.018,0.042-0.027c0.035-0.023,0.069-0.047,0.102-0.071c0.007-0.005,0.014-0.01,0.021-0.015
				c0.008-0.005,0.015-0.011,0.022-0.017c0.066-0.049,0.129-0.098,0.188-0.148l0.001-0.001c0.014-0.011,0.028-0.021,0.042-0.032
				c0.042-0.03,0.086-0.058,0.131-0.084l0.004-0.003c0.044-0.026,0.09-0.049,0.135-0.073c0.04-0.021,0.081-0.041,0.121-0.06
				l0.006-0.004c0.01-0.004,0.018-0.008,0.027-0.013l0.009,0c0.091,0.104,0.18,0.199,0.274,0.273
				c0.479,0.375,1.143,0.796,1.843,0.577l0.005-0.001c-0.34,0.295-0.736,0.471-1.193,0.516c-0.299,0.029-0.602,0.021-0.902,0.021
				h-1.953h-1.448h-0.082c0.224-0.097,0.381-0.308,0.512-0.506c0.208-0.317,0.38-0.658,0.562-0.99
				c0.168-0.305,0.339-0.608,0.523-0.903c0.226-0.019,0.456-0.005,0.674,0.059c0.212,0.062,0.406,0.169,0.577,0.308l-0.005,0.001
				C54.823-13.816,54.588-13.407,54.299-13.032"/>
		</g>
		<g id="g8862" transform="matrix(1.25,0,0,-1.25,397.79173,774.52618)">
			<path id="path8864" fill="#E79379" d="M43.49-18.814c-0.004,0-0.008,0-0.013,0h0.001c0.132,0,0.258-0.005,0.38-0.017
				C43.74-18.819,43.618-18.814,43.49-18.814 M44.978-19.259c0.039-0.03,0.076-0.061,0.113-0.093l0.001,0
				c0,0-0.001,0.001-0.001,0.001c0,0,0,0,0.001-0.001C45.054-19.319,45.016-19.288,44.978-19.259
				C44.978-19.259,44.978-19.259,44.978-19.259 M44.69-19.289c-0.304,0-0.595-0.102-0.86-0.244c-0.003-0.002-0.007-0.004-0.01-0.005
				c-0.184-0.1-0.355-0.218-0.509-0.336c0.083,0.063,0.171,0.127,0.263,0.187c0,0,0,0,0,0c0.001,0.001,0.001,0.001,0.002,0.001
				c0,0,0.001,0,0.001,0c0.001,0,0.001,0.001,0.002,0.001c0,0,0.001,0,0.001,0.001c0.001,0,0.001,0.001,0.002,0.001h0
				c0.19,0.125,0.399,0.237,0.62,0.31l0.003,0.001c0.019,0.006,0.038,0.012,0.056,0.017l0.005,0.002
				c0.018,0.005,0.036,0.01,0.055,0.015l0.008,0.002c0.018,0.004,0.036,0.008,0.053,0.012l0.01,0.002
				c0.017,0.004,0.035,0.007,0.052,0.01l0.012,0.002c0.017,0.003,0.033,0.005,0.05,0.007L44.52-19.3
				c0.016,0.002,0.032,0.004,0.048,0.005c0.005,0,0.01,0.001,0.015,0.001h0h0c0,0,0,0,0.001,0c0.015,0.001,0.031,0.002,0.047,0.003
				c0.006,0,0.012,0,0.018,0C44.663-19.29,44.677-19.289,44.69-19.289c0.002,0,0.003,0,0.005,0c0.007,0,0.014,0,0.021,0
				c0.014,0,0.029-0.001,0.043-0.002c0.002,0,0.003,0,0.005,0c0.014-0.001,0.028-0.002,0.043-0.003c0.006,0,0.011-0.001,0.017-0.002
				c0.008-0.001,0.017-0.002,0.025-0.003c0.013-0.002,0.026-0.003,0.039-0.005c0.01-0.001,0.019-0.003,0.028-0.005
				c0.012-0.002,0.025-0.004,0.037-0.007c0.011-0.002,0.021-0.005,0.032-0.007c0.011-0.003,0.022-0.005,0.034-0.008
				c0.006-0.002,0.012-0.003,0.019-0.005c0.014-0.004,0.028-0.008,0.042-0.012c0.002,0,0.003-0.001,0.005-0.001l0.001,0h0
				c-0.093,0.029-0.185,0.047-0.276,0.055C44.77-19.291,44.73-19.289,44.69-19.289 M41.991-19.578
				c0.002-0.001,0.005-0.003,0.007-0.004l0,0c-0.002,0.001-0.004,0.003-0.006,0.004C41.992-19.579,41.992-19.578,41.991-19.578
				 M42.195-19.708c0.011-0.007,0.022-0.015,0.032-0.022c0.019-0.013,0.037-0.026,0.055-0.04c0.023-0.017,0.046-0.034,0.069-0.051
				c0.022-0.017,0.044-0.034,0.066-0.052c0.012-0.01,0.024-0.019,0.036-0.029c0.002-0.002,0.005-0.004,0.008-0.006
				c-0.051,0.041-0.104,0.083-0.159,0.124c-0.006,0.004-0.011,0.009-0.017,0.013c-0.003,0.002-0.005,0.004-0.008,0.006
				c-0.006,0.004-0.012,0.008-0.017,0.012C42.239-19.738,42.217-19.723,42.195-19.708 M42.964-20.201
				c0.001,0,0.002-0.001,0.002-0.001C42.965-20.202,42.964-20.202,42.964-20.201"/>
		</g>
		<g id="g8866" transform="matrix(1.25,0,0,-1.25,397.69686,774.52668)">
			<path id="path8868" fill="#E24C27" d="M43.553-18.813H43.55H43.553L43.553-18.813 M44.885-19.294
				c0.091-0.008,0.183-0.026,0.276-0.055l0.005-0.001l-0.005,0.001C45.069-19.32,44.977-19.302,44.885-19.294 M43.896-19.538
				c-0.186-0.098-0.365-0.216-0.528-0.35c0,0,0,0,0,0c0.006,0.005,0.012,0.009,0.019,0.014
				C43.54-19.756,43.712-19.637,43.896-19.538 M42.069-19.578c0.002-0.001,0.004-0.002,0.006-0.003l0.003-0.002l0.005-0.003
				c0.001,0,0.001-0.001,0.001-0.001c0.033-0.019,0.065-0.039,0.096-0.059c0.013-0.008,0.025-0.016,0.038-0.024
				c0.018-0.012,0.035-0.024,0.053-0.036c0.022-0.015,0.044-0.03,0.065-0.045c0.006-0.004,0.011-0.008,0.017-0.012
				C42.264-19.699,42.168-19.636,42.069-19.578 M42.362-19.771c0.006-0.004,0.012-0.009,0.017-0.013
				c0.055-0.041,0.108-0.082,0.159-0.124c0.01-0.008,0.02-0.016,0.03-0.024c-0.015,0.013-0.03,0.025-0.046,0.038l-0.025,0.02
				c-0.012,0.01-0.025,0.019-0.037,0.029c0,0,0,0,0,0c-0.026,0.02-0.052,0.039-0.078,0.059l0,0
				C42.375-19.781,42.368-19.776,42.362-19.771 M42.569-19.932L42.569-19.932 M42.573-19.936L42.573-19.936L42.573-19.936
				 M42.574-19.937C42.574-19.937,42.574-19.937,42.574-19.937C42.574-19.937,42.574-19.937,42.574-19.937 M42.575-19.937
				c0.001-0.001,0.002-0.002,0.004-0.003C42.577-19.939,42.576-19.938,42.575-19.937 M42.609-19.964L42.609-19.964
				C42.61-19.964,42.61-19.964,42.609-19.964L42.609-19.964C42.61-19.964,42.61-19.964,42.609-19.964 M42.642-19.986
				C42.642-19.986,42.642-19.986,42.642-19.986l0.002-0.002c0.002-0.002,0.004-0.003,0.006-0.004
				C42.647-19.99,42.644-19.988,42.642-19.986"/>
		</g>
		<g id="g8870" transform="matrix(1.25,0,0,-1.25,388.6846,789.59743)">
			<path id="path8872" fill="#FBBEA7" d="M49.559-8.77L49.559-8.77c0.026-0.007,0.053-0.012,0.08-0.017
				C49.612-8.783,49.585-8.777,49.559-8.77 M49.64-8.787c0.001,0,0.001,0,0.002,0l0.005-0.001h0l-0.006,0.001
				C49.641-8.788,49.641-8.787,49.64-8.787C49.64-8.787,49.64-8.787,49.64-8.787 M49.598-8.827
				c-0.143-0.108-0.301-0.195-0.471-0.252c0.007,0.002,0.014,0.005,0.021,0.007l0,0c0.001,0,0.001,0,0.002,0.001
				C49.241-9.04,49.327-9,49.409-8.953c0.044,0.025,0.086,0.052,0.127,0.081c0.02,0.014,0.039,0.028,0.058,0.042L49.598-8.827
				 M48.39-9.147l0.006-0.009C48.393-9.153,48.391-9.15,48.39-9.147 M48.82-9.149L48.82-9.149 M48.619-9.163
				c-0.004,0-0.008,0-0.012,0h0.002h0.002h0.002l0.001,0c0.001,0,0.002,0,0.003,0C48.617-9.163,48.618-9.163,48.619-9.163"/>
		</g>
		<g id="g8874" transform="matrix(1.25,0,0,-1.25,388.6846,789.59743)">
			<path id="path8876" fill="#F15B22" d="M49.559-8.77c-0.162-0.054-0.328-0.09-0.501-0.098C49.04-8.869,49.023-8.87,49.005-8.87
				c-0.012,0-0.023,0-0.035,0.001c-0.04-0.045-0.082-0.087-0.126-0.128c-0.063-0.059-0.127-0.113-0.211-0.138
				c-0.045-0.014-0.093-0.019-0.14-0.019c-0.035,0-0.069,0.003-0.103,0.008c0.002-0.003,0.004-0.006,0.006-0.009
				c0.006,0,0.014-0.001,0.024-0.002c0.011-0.001,0.024-0.002,0.037-0.002c0.012-0.001,0.023-0.001,0.033-0.002
				c0.004,0,0.008,0,0.011,0c0.002,0,0.004,0,0.006,0c0.007,0,0.014,0,0.021,0c0.017,0,0.035,0,0.052,0c0.004,0,0.009,0,0.013,0
				c0.005,0,0.01,0,0.015,0c0.004,0,0.008,0,0.012,0c0.007,0,0.013,0,0.02,0.001c0.007,0,0.015,0,0.022,0.001
				c0.021,0.001,0.042,0.002,0.063,0.004c0.005,0,0.011,0.001,0.016,0.001c0.027,0.002,0.053,0.005,0.08,0.008l0.003,0
				c0.024,0.003,0.049,0.007,0.073,0.011c0.009,0.001,0.017,0.003,0.026,0.005c0.017,0.003,0.033,0.007,0.05,0.011
				c0.01,0.002,0.02,0.004,0.029,0.007c0.017,0.004,0.033,0.008,0.049,0.013c0.005,0.002,0.011,0.003,0.016,0.004
				c0.001,0,0.003,0.001,0.004,0.001l0.007,0.002c0.017,0.005,0.033,0.01,0.05,0.016c0.17,0.057,0.328,0.144,0.471,0.252
				l0.004,0.003c0,0,0,0,0,0c0.013,0.012,0.035,0.034,0.044,0.034l-0.005,0.001c-0.001,0-0.001,0-0.002,0c0,0,0,0,0,0
				C49.612-8.783,49.585-8.777,49.559-8.77"/>
		</g>
		<g id="g8878" transform="matrix(1.25,0,0,-1.25,368.03185,774.53056)">
			<path id="path8880" fill="#E79379" d="M63.322-18.81C63.322-18.81,63.322-18.811,63.322-18.81
				C63.322-18.811,63.322-18.81,63.322-18.81 M63.323-18.811C63.323-18.811,63.324-18.811,63.323-18.811
				C63.324-18.811,63.323-18.811,63.323-18.811 M63.324-18.811c0.368-0.161,0.62-0.674,1.05-1.457
				c-0.175,0.32-0.342,0.647-0.541,0.952C63.703-19.119,63.547-18.909,63.324-18.811"/>
		</g>
		<g id="g8882" transform="matrix(1.25,0,0,-1.25,368.03886,774.52668)">
			<path id="path8884" fill="#E24C27" d="M63.317-18.813h-0.002C63.316-18.813,63.316-18.814,63.317-18.813
				C63.317-18.814,63.317-18.814,63.317-18.813C63.317-18.814,63.317-18.814,63.317-18.813c0.001-0.001,0.001-0.001,0.001-0.002
				c0.223-0.097,0.379-0.308,0.508-0.505c0.2-0.305,0.367-0.632,0.542-0.952c0.01-0.019,0.021-0.038,0.032-0.057
				c0.307-0.329,0.669-0.584,1.087-0.597c0.061,0.068,0.117,0.139,0.17,0.213c-0.823,0.253-1.345,0.956-1.653,1.38
				c-0.129,0.177-0.276,0.305-0.419,0.394c-0.034,0.02-0.066,0.038-0.096,0.054c-0.02,0.011-0.042,0.02-0.06,0.029
				c-0.021,0.009-0.042,0.018-0.062,0.025c-0.008,0.003-0.017,0.006-0.025,0.009C63.333-18.819,63.325-18.816,63.317-18.813"/>
		</g>
		<g id="g8886" transform="matrix(1.25,0,0,-1.25,383.4136,785.64743)">
			<path id="path8888" fill="#E79379" d="M53.071-11.402c0.156-0.2,0.325-0.379,0.56-0.479c0,0-0.001,0-0.001,0
				c0.046-0.019,0.094-0.036,0.145-0.049c0,0,0,0,0,0c-0.038,0.01-0.073,0.021-0.108,0.035l-0.004,0.001h0l-0.001,0.001
				c-0.017,0.006-0.033,0.013-0.049,0.02l-0.005,0.002C53.385-11.769,53.223-11.595,53.071-11.402"/>
		</g>
		<g id="g8890" transform="matrix(1.25,0,0,-1.25,387.59773,789.23068)">
			<path id="path8892" fill="#E5785D" d="M50.283-9.014c0.046-0.019,0.094-0.036,0.145-0.049C50.377-9.05,50.329-9.034,50.283-9.014
				C50.283-9.014,50.283-9.014,50.283-9.014"/>
		</g>
		<g id="g8894" transform="matrix(1.25,0,0,-1.25,385.54923,788.74731)">
			<path id="path8896" fill="#E14227" d="M51.648-9.336c-0.053-0.074-0.109-0.145-0.17-0.213c0.012,0,0.023-0.001,0.035-0.001
				c0.017,0,0.035,0,0.052,0.001c0.173,0.008,0.34,0.044,0.501,0.098c-0.051,0.013-0.099,0.03-0.145,0.049
				C51.827-9.385,51.736-9.364,51.648-9.336"/>
		</g>
		<g id="g8898" transform="matrix(1.25,0,0,-1.25,400.54685,774.65393)">
			<path id="path8900" fill="#E1696F" d="M41.654-18.728c0.014-0.002,0.028-0.003,0.043-0.005c0.003,0,0.006-0.001,0.009-0.001
				C41.688-18.732,41.671-18.73,41.654-18.728 M42.053-18.798c0.066-0.018,0.13-0.039,0.194-0.063
				c0.075-0.028,0.149-0.061,0.221-0.099c0.006-0.002,0.011-0.005,0.017-0.008c0.027-0.014,0.053-0.029,0.079-0.045
				c0.062-0.037,0.122-0.078,0.181-0.121c0.01-0.007,0.02-0.015,0.03-0.022c0,0,0.001,0,0.001,0
				C42.542-18.978,42.305-18.865,42.053-18.798"/>
		</g>
		<g id="g8902" transform="matrix(1.25,0,0,-1.25,397.67348,774.52668)">
			<path id="path8904" fill="#DE3921" d="M43.569-18.813h-0.479h-1.397c0.28-0.122,0.546-0.301,0.747-0.558
				c0.31,0.224,0.571,0.5,1.114,0.558h0.01H43.569"/>
		</g>
		<g id="g8906" transform="matrix(1.25,0,0,-1.25,397.70235,774.52668)">
			<path id="path8908" fill="#D24847" d="M43.549-18.813c0.14-0.002,0.28-0.008,0.419-0.021c0.001,0,0.003,0,0.004,0
				c-0.014,0.002-0.028,0.003-0.043,0.004C43.807-18.818,43.681-18.813,43.549-18.813 M44.522-18.964
				c0.073-0.028,0.145-0.06,0.215-0.097c0.002-0.001,0.005-0.001,0.007-0.002C44.671-19.024,44.598-18.992,44.522-18.964
				 M45.02-19.236c0.01-0.007,0.02-0.015,0.03-0.022c0,0,0,0,0,0C45.039-19.251,45.03-19.243,45.02-19.236"/>
		</g>
		<g id="g8910" transform="matrix(1.25,0,0,-1.25,368.13148,774.55706)">
			<path id="path8912" fill="#DE3921" d="M63.256-18.793c0.004-0.001,0.007-0.003,0.011-0.004c0.008-0.003,0.016-0.005,0.024-0.008
				C63.279-18.801,63.267-18.797,63.256-18.793 M63.458-18.883c0.012-0.007,0.024-0.014,0.036-0.021
				C63.481-18.897,63.47-18.89,63.458-18.883"/>
		</g>
		<g id="g8914" transform="matrix(1.25,0,0,-1.25,376.51373,778.61293)">
			<path id="path8916" fill="#E1696F" d="M57.67-16.09c-0.017-0.006-0.035-0.011-0.052-0.018c0.01,0.004,0.02,0.007,0.03,0.011
				c0.006,0.002,0.011,0.004,0.017,0.006C57.666-16.091,57.668-16.091,57.67-16.09 M58.976-16.287
				c0.013-0.007,0.025-0.014,0.037-0.021c-0.001,0.001-0.002,0.001-0.003,0.002c0,0,0,0,0,0c0,0,0,0,0,0
				C58.999-16.3,58.987-16.294,58.976-16.287"/>
		</g>
		<g id="g8918" transform="matrix(1.25,0,0,-1.25,379.58873,778.13181)">
			<path id="path8920" fill="#DE3921" d="M55.62-16.41c-0.065,0-0.13-0.005-0.196-0.014c-0.088-0.013-0.177-0.035-0.267-0.068
				c0.018,0.006,0.035,0.012,0.052,0.017c0.003,0.001,0.005,0.002,0.008,0.003c0.011,0.004,0.023,0.007,0.034,0.01
				c0.01,0.003,0.02,0.006,0.03,0.008c0.011,0.003,0.021,0.005,0.032,0.008c0.011,0.003,0.021,0.005,0.032,0.007
				c0.01,0.002,0.02,0.004,0.03,0.006c0.012,0.002,0.023,0.004,0.035,0.006c0.009,0.001,0.018,0.003,0.027,0.004
				c0.013,0.002,0.025,0.003,0.038,0.004c0.008,0.001,0.016,0.002,0.024,0.003c0.015,0.001,0.03,0.002,0.044,0.003
				c0.006,0,0.012,0.001,0.018,0.001C55.58-16.411,55.6-16.411,55.62-16.41c0.044,0,0.088-0.003,0.131-0.007l0.007-0.001
				c0.019-0.002,0.038-0.004,0.056-0.007l0.008-0.001c0.019-0.003,0.037-0.006,0.056-0.009l0.007-0.001
				c0.02-0.004,0.04-0.008,0.059-0.012l0.001,0c0.2-0.044,0.392-0.125,0.57-0.224c0.011-0.006,0.023-0.013,0.034-0.019h0
				C56.269-16.529,55.952-16.41,55.62-16.41"/>
		</g>
		<g id="g8922" transform="matrix(1.25,0,0,-1.25,386.55011,780.23406)">
			<path id="path8924" fill="#D24847" d="M50.981-15.01C50.981-15.01,50.981-15.01,50.981-15.01
				c0.001-0.001,0.002-0.001,0.003-0.002c0,0,0.001-0.001,0.002-0.001C50.985-15.012,50.983-15.011,50.981-15.01 M51.271-15.199
				c0.003-0.002,0.006-0.004,0.008-0.006c-0.001,0.001-0.003,0.003-0.005,0.003C51.273-15.2,51.272-15.2,51.271-15.199"/>
		</g>
		<g id="g8926" transform="matrix(1.25,0,0,-1.25,386.55011,780.23406)">
			<path id="path8928" fill="#D12C23" d="M50.981-15.01L50.981-15.01c0.002-0.001,0.003-0.002,0.005-0.003
				c0.1-0.058,0.195-0.121,0.285-0.186c0.001-0.001,0.002-0.002,0.004-0.003c0.002-0.001,0.003-0.002,0.005-0.003
				c0.007-0.005,0.013-0.01,0.02-0.014l0,0C51.2-15.146,51.093-15.074,50.981-15.01"/>
		</g>
		<g id="g8930" transform="matrix(1.25,0,0,-1.25,368.21398,774.58881)">
			<path id="path8932" fill="#D12C23" d="M63.201-18.772c0.008-0.003,0.017-0.006,0.025-0.009c0,0-0.001,0-0.001,0.001
				C63.216-18.777,63.208-18.774,63.201-18.772 M63.288-18.806c0.019-0.009,0.04-0.018,0.06-0.029
				c0.031-0.016,0.062-0.034,0.096-0.054c-0.006,0.003-0.011,0.007-0.017,0.01c-0.012,0.007-0.024,0.014-0.036,0.021
				C63.357-18.838,63.322-18.821,63.288-18.806"/>
		</g>
		<g id="g8934" transform="matrix(1.25,0,0,-1.25,368.04973,774.52668)">
			<path id="path8936" fill="#E04221" d="M63.31-18.813h-0.001c0.004-0.001,0.008-0.003,0.013-0.004
				C63.317-18.816,63.314-18.814,63.31-18.813 M63.36-18.831c0.013-0.005,0.026-0.01,0.04-0.015
				C63.386-18.84,63.373-18.835,63.36-18.831 M63.62-18.965c0.111-0.069,0.237-0.152,0.37-0.227c0.064-0.037,0.131-0.072,0.2-0.105
				l0.002-0.001l-0.002,0.001c-0.067,0.032-0.134,0.067-0.2,0.105C63.849-19.111,63.727-19.031,63.62-18.965"/>
		</g>
		<g id="g8938" transform="matrix(1.25,0,0,-1.25,376.12135,778.74543)">
			<path id="path8940" fill="#E57D7E" d="M57.931-16.002c-0.001,0-0.001,0-0.002-0.001C57.93-16.002,57.93-16.002,57.931-16.002
				 M57.951-16.01L57.951-16.01L57.951-16.01 M57.953-16.011c0.064-0.025,0.124-0.054,0.18-0.086
				c0.003-0.002,0.007-0.004,0.01-0.006c0.001,0,0.001-0.001,0.001-0.001l-0.002,0.001C58.083-16.067,58.02-16.037,57.953-16.011
				 M58.144-16.104C58.144-16.104,58.145-16.104,58.144-16.104l0.002-0.001L58.144-16.104 M58.278-16.196
				c0.012-0.009,0.023-0.018,0.034-0.027l-0.004,0.003l-0.002,0.002l0.005-0.003c0,0,0,0-0.001,0.001l-0.006,0.004l-0.011,0.009
				l-0.001,0.001c-0.001,0-0.001,0.001-0.002,0.002L58.284-16.2l-0.002,0.001L58.278-16.196 M58.342-16.248
				c0,0,0.001-0.001,0.002-0.001C58.343-16.249,58.343-16.249,58.342-16.248 M58.408-16.309L58.408-16.309
				c0.001,0,0.001-0.001,0.002-0.002C58.409-16.31,58.409-16.309,58.408-16.309 M58.504-16.409L58.504-16.409
				C58.504-16.409,58.505-16.41,58.504-16.409C58.505-16.41,58.505-16.41,58.504-16.409C58.505-16.41,58.505-16.409,58.504-16.409
				 M58.545-16.455c0.001-0.001,0.001-0.002,0.002-0.003c0.002-0.003,0.004-0.005,0.006-0.008c-0.002,0.003-0.004,0.005-0.006,0.008
				C58.546-16.457,58.545-16.456,58.545-16.455 M58.629-16.558L58.629-16.558l0.003-0.004c0.002-0.002,0.004-0.005,0.006-0.007
				c-0.002,0.002-0.004,0.005-0.006,0.007L58.629-16.558 M58.731-16.692c0.058-0.078,0.115-0.156,0.174-0.232
				c-0.048,0.062-0.096,0.126-0.144,0.19C58.752-16.72,58.741-16.706,58.731-16.692"/>
		</g>
		<g id="g8942" transform="matrix(1.25,0,0,-1.25,374.80123,778.22843)">
			<path id="path8944" fill="#E04221" d="M58.811-16.346c0.009-0.004,0.019-0.009,0.029-0.013c0.05-0.022,0.099-0.042,0.148-0.058
				l0.009-0.003l0.01-0.004c0.028-0.011,0.055-0.022,0.081-0.034c0.008-0.004,0.016-0.008,0.024-0.011
				c0.021-0.01,0.041-0.021,0.061-0.032c0.006-0.003,0.011-0.006,0.016-0.009c-0.056,0.033-0.115,0.062-0.18,0.086
				c0,0-0.001,0-0.001,0l0,0c-0.007,0.003-0.014,0.005-0.022,0.008c0.001,0,0.001,0,0.002,0h0c-0.051,0.017-0.1,0.036-0.148,0.056
				C58.83-16.355,58.821-16.351,58.811-16.346 M59.201-16.517c0.003-0.002,0.006-0.004,0.009-0.006
				c-0.003,0.002-0.005,0.003-0.008,0.005L59.201-16.517 M59.22-16.53c0.01-0.007,0.021-0.014,0.031-0.021
				c0.037-0.025,0.072-0.051,0.105-0.077l0.012-0.01l-0.001,0.001c-0.011,0.009-0.023,0.019-0.034,0.027l-0.009,0.007l-0.01,0.007
				l-0.01,0.008c-0.008,0.007-0.017,0.013-0.026,0.019l-0.012,0.008l-0.01,0.006l-0.003,0.002l-0.004,0.003l0,0h0
				C59.24-16.542,59.23-16.536,59.22-16.53 M59.37-16.638C59.37-16.638,59.371-16.639,59.37-16.638L59.37-16.638L59.37-16.638
				 M59.464-16.722c0.012-0.011,0.023-0.022,0.035-0.034c-0.003,0.003-0.005,0.006-0.008,0.009l-0.001,0.001l-0.006,0.005
				c-0.006,0.005-0.011,0.011-0.017,0.017C59.466-16.724,59.465-16.723,59.464-16.722L59.464-16.722 M59.557-16.819
				C59.557-16.819,59.557-16.819,59.557-16.819L59.557-16.819L59.557-16.819 M59.561-16.823c0.001-0.001,0.003-0.003,0.004-0.004
				C59.563-16.826,59.562-16.825,59.561-16.823C59.561-16.824,59.561-16.824,59.561-16.823 M59.609-16.879
				c0.006-0.007,0.011-0.013,0.017-0.02c0.004-0.005,0.008-0.01,0.013-0.016c-0.004,0.005-0.009,0.011-0.013,0.016
				C59.621-16.892,59.615-16.886,59.609-16.879 M60.884-16.97C60.884-16.97,60.885-16.97,60.884-16.97
				C60.885-16.97,60.884-16.97,60.884-16.97 M60.885-16.971c0.001-0.001,0.003-0.002,0.004-0.003
				C60.888-16.973,60.886-16.972,60.885-16.971 M60.889-16.974c0,0,0.001-0.001,0.001-0.001
				C60.89-16.975,60.89-16.975,60.889-16.974 M60.891-16.976C60.891-16.976,60.891-16.976,60.891-16.976
				C60.891-16.976,60.891-16.976,60.891-16.976"/>
		</g>
		<g id="g8946" transform="matrix(1.25,0,0,-1.25,390.09711,781.47856)">
			<path id="path8948" fill="#D33224" d="M48.618-14.18c-0.054-0.017-0.106-0.031-0.156-0.044c0.027-0.02,0.053-0.039,0.078-0.059
				c0.005,0.006,0.009,0.012,0.013,0.018c0.009,0.013,0.018,0.025,0.027,0.037C48.592-14.212,48.605-14.196,48.618-14.18
				 M48.602-14.332c0.015-0.013,0.031-0.025,0.046-0.037c0,0,0,0,0.001-0.001l0.004-0.003l0,0c0,0,0.001-0.001,0.001-0.001
				c0,0,0,0,0,0l0,0c0.001-0.001,0.002-0.002,0.004-0.003c0.002-0.001,0.004-0.003,0.005-0.004c0.005-0.004,0.011-0.008,0.016-0.012
				l0.007-0.005l0.003-0.002c0,0,0.001,0,0.001-0.001l0.002-0.001c0.009-0.007,0.019-0.013,0.029-0.02
				c0.003-0.002,0.006-0.004,0.009-0.006c0.004-0.003,0.008-0.006,0.013-0.008c0,0,0.001,0,0.001-0.001
				C48.694-14.406,48.648-14.369,48.602-14.332"/>
		</g>
		<g id="g8950" transform="matrix(1.25,0,0,-1.25,368.40173,774.65281)">
			<path id="path8952" fill="#D33224" d="M63.075-18.729c0.02-0.008,0.041-0.016,0.062-0.025c-0.001,0-0.002,0.001-0.003,0.002
				c-0.005,0.003-0.011,0.005-0.017,0.008c-0.013,0.006-0.026,0.011-0.04,0.015C63.077-18.73,63.076-18.729,63.075-18.729"/>
		</g>
		<g id="g8954" transform="matrix(1.25,0,0,-1.25,377.62798,779.45768)">
			<path id="path8956" fill="#D5544D" d="M56.927-15.527c0.002-0.001,0.003-0.002,0.005-0.003l0.007-0.004c0,0,0,0,0,0l0,0l0,0
				c-0.001,0-0.001,0.001-0.001,0.001C56.934-15.531,56.93-15.529,56.927-15.527 M57.129-15.672c0.005-0.004,0.01-0.009,0.015-0.013
				c0.001-0.001,0.002-0.002,0.003-0.002l-0.002,0.002h0l0,0l-0.005,0.004c-0.001,0-0.001,0.001-0.002,0.001
				C57.135-15.676,57.132-15.674,57.129-15.672 M57.155-15.694c0.001-0.001,0.002-0.002,0.003-0.003l0,0l-0.001,0.001L57.155-15.694
				 M57.176-15.713c0.007-0.007,0.015-0.014,0.022-0.021l-0.01,0.01C57.183-15.72,57.18-15.717,57.176-15.713 M57.269-15.807
				c0.005-0.005,0.01-0.01,0.014-0.016c-0.003,0.004-0.007,0.007-0.01,0.011C57.272-15.81,57.271-15.809,57.269-15.807
				 M57.299-15.839C57.299-15.839,57.299-15.84,57.299-15.839C57.299-15.84,57.299-15.84,57.299-15.839L57.299-15.839
				 M57.316-15.858c0,0,0.001-0.001,0.001-0.001L57.316-15.858C57.316-15.858,57.316-15.858,57.316-15.858 M57.328-15.872
				c0.007-0.008,0.014-0.016,0.021-0.024c-0.002,0.003-0.004,0.005-0.007,0.008c-0.001,0.001-0.002,0.002-0.002,0.003
				C57.335-15.881,57.331-15.876,57.328-15.872 M57.383-15.938L57.383-15.938c0.004-0.005,0.008-0.011,0.013-0.016
				C57.392-15.948,57.387-15.943,57.383-15.938 M57.4-15.959c0.001-0.001,0.001-0.002,0.002-0.003
				c0.015-0.019,0.031-0.039,0.046-0.059c-0.005,0.007-0.01,0.014-0.016,0.02c-0.002,0.002-0.004,0.005-0.006,0.007l-0.003,0.004
				l-0.011,0.014C57.408-15.97,57.404-15.964,57.4-15.959 M57.506-16.096c0.165-0.221,0.319-0.445,0.526-0.603c0,0,0,0,0,0
				c0.069-0.053,0.144-0.098,0.227-0.133c0,0,0.001,0,0.001,0c-0.235,0.1-0.404,0.279-0.56,0.479
				c-0.059,0.075-0.116,0.153-0.174,0.232C57.519-16.114,57.513-16.105,57.506-16.096"/>
		</g>
		<g id="g8958" transform="matrix(1.25,0,0,-1.25,370.03748,775.46431)">
			<path id="path8960" fill="#D33224" d="M61.985-18.188c0.143-0.089,0.29-0.217,0.419-0.394c0.308-0.424,0.831-1.127,1.653-1.38
				c0.016,0.023,0.032,0.045,0.047,0.068c-0.207,0.158-0.361,0.383-0.526,0.603c-0.014,0.018-0.028,0.036-0.042,0.055l-0.01,0.014
				l-0.001,0.001l0,0.001c-0.002,0.002-0.004,0.004-0.005,0.006c-0.015,0.019-0.031,0.039-0.046,0.059
				c-0.001,0.001-0.001,0.002-0.002,0.003c0,0-0.001,0.001-0.001,0.001c-0.001,0.001-0.002,0.003-0.003,0.004
				c-0.004,0.005-0.008,0.011-0.013,0.016l-0.001,0.001c-0.001,0.002-0.003,0.004-0.005,0.006c-0.004,0.005-0.009,0.01-0.013,0.016
				c-0.006,0.007-0.011,0.013-0.017,0.02c-0.007,0.008-0.014,0.016-0.02,0.024c-0.001,0.001-0.002,0.002-0.003,0.003l-0.008,0.009
				c0,0,0,0.001-0.001,0.001c-0.004,0.004-0.008,0.009-0.012,0.014c-0.001,0.001-0.003,0.003-0.004,0.004c0,0,0,0-0.001,0.001
				l-0.001,0.001l-0.002,0.002c0,0,0,0.001-0.001,0.001l-0.001,0.001c-0.003,0.004-0.007,0.008-0.011,0.012
				c-0.005,0.005-0.009,0.011-0.014,0.016c-0.004,0.004-0.009,0.009-0.013,0.014l-0.011,0.012c-0.003,0.003-0.006,0.006-0.008,0.009
				c-0.011,0.011-0.023,0.023-0.035,0.034v0l0,0l-0.004,0.004c-0.007,0.007-0.015,0.014-0.022,0.021
				c-0.001,0.001-0.003,0.003-0.004,0.004l-0.013,0.012c-0.001,0.001-0.003,0.002-0.004,0.003l-0.008,0.007
				c-0.001,0.001-0.002,0.002-0.003,0.002c-0.005,0.004-0.01,0.009-0.015,0.013c-0.005,0.004-0.01,0.008-0.014,0.012l-0.005,0.004
				c0,0,0,0-0.001,0l0,0l-0.001,0.001l-0.012,0.01c-0.033,0.026-0.068,0.052-0.105,0.077c-0.01,0.007-0.021,0.014-0.031,0.02
				c-0.001,0.001-0.002,0.001-0.003,0.002c-0.003,0.002-0.006,0.003-0.008,0.005c-0.003,0.002-0.006,0.004-0.009,0.006l-0.007,0.004
				c-0.002,0.001-0.003,0.002-0.005,0.003c-0.006,0.003-0.011,0.006-0.017,0.009c-0.02,0.011-0.04,0.022-0.062,0.033
				c-0.008,0.004-0.016,0.007-0.024,0.011c-0.026,0.012-0.053,0.023-0.081,0.034l-0.01,0.004l-0.009,0.004
				c-0.048,0.016-0.098,0.035-0.148,0.058c-0.01,0.004-0.019,0.009-0.029,0.013c-0.007,0.003-0.014,0.006-0.021,0.009l-0.002,0.001
				c-0.069,0.032-0.135,0.067-0.199,0.104c-0.133,0.075-0.258,0.159-0.37,0.227C62.015-18.206,62-18.197,61.985-18.188"/>
		</g>
		<g id="g8962" transform="matrix(1.25,0,0,-1.25,385.90361,788.23393)">
			<path id="path8964" fill="#D4473F" d="M51.412-9.679C51.412-9.679,51.412-9.679,51.412-9.679
				c0.069-0.053,0.143-0.098,0.226-0.133h0C51.556-9.776,51.481-9.731,51.412-9.679"/>
		</g>
		<g id="g8966" transform="matrix(1.25,0,0,-1.25,385.90198,788.23543)">
			<path id="path8968" fill="#D22B24" d="M51.413-9.678c-0.015-0.023-0.031-0.046-0.047-0.068c0.088-0.027,0.179-0.049,0.274-0.065
				C51.557-9.775,51.482-9.73,51.413-9.678"/>
		</g>
		<g id="g8970" transform="matrix(1.25,0,0,-1.25,383.63011,774.52668)">
			<path id="path8972" fill="#D3261F" d="M52.927-18.813h-0.556h-1.447h-0.078c0.004-0.001,0.007-0.003,0.011-0.004
				c0.012-0.004,0.023-0.008,0.035-0.013c0.001,0,0.003-0.001,0.004-0.001c0.013-0.004,0.026-0.009,0.04-0.015
				c0.028-0.012,0.056-0.025,0.083-0.039c0.013-0.007,0.027-0.014,0.04-0.022c0.012-0.007,0.024-0.014,0.036-0.021
				c0.02-0.012,0.04-0.024,0.061-0.037c0.107-0.066,0.228-0.146,0.37-0.227c0.066-0.037,0.133-0.073,0.2-0.105l0.002-0.001
				c0.007-0.003,0.014-0.006,0.021-0.009c0.01-0.004,0.019-0.009,0.029-0.013c0.048-0.021,0.097-0.04,0.148-0.056
				c0.089,0.033,0.178,0.055,0.267,0.068c0.066,0.01,0.131,0.014,0.196,0.014c0.331,0,0.648-0.118,0.93-0.281
				c0.134,0.054,0.248,0.126,0.357,0.205C53.473-19.114,53.207-18.935,52.927-18.813"/>
		</g>
		<g id="g8974" transform="matrix(1.25,0,0,-1.25,389.22073,778.70068)">
			<path id="path8976" fill="#C72121" d="M49.202-16.031c-0.108-0.079-0.223-0.151-0.357-0.205c0.112-0.065,0.218-0.136,0.318-0.21
				c0.05,0.012,0.102,0.027,0.156,0.044c0.006,0.008,0.013,0.016,0.019,0.023c0.015,0.018,0.031,0.036,0.047,0.053
				C49.333-16.218,49.271-16.12,49.202-16.031"/>
		</g>
		<g id="g8978" transform="matrix(1.25,0,0,-1.25,368.39111,774.64893)">
			<path id="path8980" fill="#C72121" d="M63.082-18.732c0,0,0.001,0,0.001,0l0.003-0.001
				C63.085-18.733,63.084-18.732,63.082-18.732 M63.126-18.748c0.006-0.003,0.011-0.005,0.017-0.008
				c0.001,0,0.002-0.001,0.003-0.002c0.034-0.015,0.069-0.032,0.104-0.052c-0.014,0.008-0.027,0.015-0.04,0.022
				C63.183-18.773,63.155-18.76,63.126-18.748 M63.286-18.83c0.006-0.003,0.011-0.007,0.017-0.01
				c0.015-0.009,0.029-0.018,0.045-0.027C63.326-18.855,63.306-18.842,63.286-18.83 M63.918-19.2
				c0.007-0.003,0.014-0.006,0.021-0.009C63.932-19.207,63.925-19.203,63.918-19.2"/>
		</g>
		<g id="g8982" transform="matrix(1.25,0,0,-1.25,410.50423,779.21493)">
			<path id="path8984" fill="#C0DB76" d="M35.018-15.689c0.001-0.001,0.001-0.001,0.002-0.002c0.03-0.029,0.06-0.059,0.09-0.089
				c0.054-0.056,0.105-0.113,0.155-0.172l0.007-0.008c0.018-0.021,0.035-0.043,0.052-0.064c-0.019,0.024-0.039,0.048-0.059,0.072
				c-0.046,0.055-0.094,0.108-0.143,0.16c-0.029,0.03-0.059,0.061-0.089,0.09C35.029-15.699,35.024-15.694,35.018-15.689
				 M33.904-16.713c-0.018,0-0.036,0-0.053-0.002c0.003,0,0.005,0,0.008,0C33.875-16.713,33.89-16.713,33.904-16.713"/>
		</g>
		<g id="g8986" transform="matrix(1.25,0,0,-1.25,410.01873,778.76506)">
			<path id="path8988" fill="#BAD650" d="M35.342-15.989l-0.007-0.003c-0.001,0-0.003-0.001-0.005-0.002c0,0-0.001,0-0.001,0
				L35.312-16c-0.008-0.003-0.016-0.007-0.025-0.01c-0.004-0.002-0.008-0.004-0.012-0.006c-0.014-0.006-0.028-0.013-0.041-0.019
				c-0.014-0.007-0.029-0.013-0.043-0.02c-0.021-0.011-0.041-0.023-0.062-0.034c-0.015-0.009-0.032-0.017-0.047-0.027
				c-0.02-0.012-0.039-0.026-0.058-0.039c-0.015-0.01-0.03-0.02-0.045-0.031c-0.02-0.015-0.039-0.03-0.058-0.046
				c-0.012-0.01-0.025-0.019-0.036-0.029l-0.003-0.003l-0.004-0.003c-0.002-0.002-0.004-0.004-0.006-0.006
				c-0.017-0.015-0.033-0.031-0.05-0.047c-0.011-0.011-0.023-0.021-0.034-0.032c-0.021-0.021-0.041-0.043-0.061-0.065
				c-0.009-0.01-0.018-0.019-0.027-0.029c-0.021-0.024-0.042-0.049-0.063-0.075c-0.007-0.008-0.014-0.016-0.02-0.024
				c-0.023-0.028-0.044-0.057-0.066-0.086c-0.004-0.006-0.009-0.011-0.013-0.017c-0.025-0.033-0.049-0.067-0.073-0.101l-0.003-0.003
				c-0.015-0.021-0.029-0.042-0.044-0.063c-0.001-0.001-0.001-0.002-0.002-0.003c-0.03-0.043-0.059-0.086-0.089-0.129
				c-0.029-0.042-0.058-0.085-0.088-0.126c0.017,0.001,0.035,0.002,0.053,0.002c0.128,0,0.263-0.031,0.355-0.123
				c0,0,0,0,0.001-0.001c-0.001,0-0.001,0-0.002,0c-0.057-0.011-0.111-0.027-0.163-0.045c0.163,0.043,0.327,0.076,0.495,0.094
				c0.061,0.006,0.121,0.012,0.182,0.015c0.025,0.053,0.051,0.105,0.078,0.156c0.086,0.163,0.185,0.325,0.324,0.449
				c0.052,0.046,0.109,0.086,0.172,0.115c-0.008,0.01-0.015,0.019-0.023,0.029c-0.017,0.022-0.034,0.043-0.052,0.064l-0.007,0.008
				c-0.05,0.059-0.101,0.117-0.155,0.172c-0.029,0.03-0.059,0.06-0.089,0.089c-0.001,0-0.002,0.001-0.002,0.002
				C35.383-16.026,35.348-15.994,35.342-15.989L35.342-15.989"/>
		</g>
		<g id="g8990" transform="matrix(1.25,0,0,-1.25,401.4146,790.51631)">
			<path id="path8992" fill="#C0DB76" d="M41.076-8.158c0.068-0.046,0.133-0.094,0.194-0.143c0.002-0.001,0.003-0.002,0.004-0.003
				C41.22-8.26,41.161-8.216,41.1-8.174C41.092-8.168,41.084-8.163,41.076-8.158"/>
		</g>
		<g id="g8994" transform="matrix(1.25,0,0,-1.25,401.59673,790.63868)">
			<path id="path8996" fill="#BAD650" d="M40.954-8.076c0.061-0.042,0.12-0.086,0.174-0.13c0.004-0.003,0.008-0.006,0.012-0.009
				C41.082-8.168,41.02-8.121,40.954-8.076 M41.395-8.378L41.395-8.378l0.001-0.001C41.396-8.378,41.395-8.378,41.395-8.378"/>
		</g>
		<g id="g8998" transform="matrix(1.25,0,0,-1.25,415.41673,788.39018)">
			<path id="path9000" fill="#E4E786" d="M31.745-9.575h0.002c0.001,0,0.001,0,0.002,0C31.748-9.575,31.746-9.575,31.745-9.575
				 M31.7-9.575c-0.002,0-0.003,0-0.005,0c0.001,0,0.002,0,0.002,0C31.698-9.575,31.699-9.575,31.7-9.575 M31.605-9.581
				c-0.005,0-0.009-0.001-0.014-0.001l0.009,0.001C31.602-9.582,31.604-9.581,31.605-9.581 M31.557-9.588
				c-0.003-0.001-0.006-0.001-0.01-0.002l0.005,0.001C31.555-9.588,31.556-9.588,31.557-9.588 M31.504-9.598
				c-0.002,0-0.004-0.001-0.007-0.001L31.504-9.598 M31.469-9.605c-0.005-0.001-0.011-0.003-0.016-0.004l0.006,0.001
				C31.463-9.607,31.466-9.606,31.469-9.605 M31.45-9.61c-0.281-0.072-0.538-0.24-0.749-0.402c0.19,0.146,0.418,0.297,0.666,0.378
				l0.001,0c0.014,0.004,0.028,0.009,0.042,0.013l0.004,0.001C31.425-9.617,31.438-9.613,31.45-9.61 M32.013-9.613
				c0.001-0.002,0.002-0.004,0.004-0.006L32.013-9.613L32.013-9.613 M30.7-10.013c-0.001,0-0.001-0.001-0.001-0.001
				C30.699-10.014,30.7-10.013,30.7-10.013 M30.698-10.015C30.698-10.015,30.698-10.015,30.698-10.015
				C30.698-10.015,30.698-10.015,30.698-10.015 M30.696-10.016C30.696-10.016,30.696-10.016,30.696-10.016
				C30.696-10.016,30.696-10.016,30.696-10.016 M30.666-10.04L30.666-10.04L30.666-10.04"/>
		</g>
		<g id="g9002" transform="matrix(1.25,0,0,-1.25,403.56236,788.15681)">
			<path id="path9004" fill="#E4E786" d="M39.644-9.73c-0.006-0.002-0.012-0.003-0.019-0.005c-0.157-0.057-0.274-0.138-0.397-0.23
				C39.36-9.867,39.495-9.784,39.644-9.73 M39.228-9.965c0.003-0.002,0.006-0.003,0.008-0.005l0.005-0.003
				c0.039-0.023,0.078-0.047,0.115-0.072C39.316-10.018,39.273-9.99,39.228-9.965 M39.599-10.225
				c0.001-0.001,0.002-0.002,0.003-0.002c0.043-0.035,0.106-0.074,0.169-0.108C39.711-10.303,39.654-10.265,39.599-10.225"/>
		</g>
		<g id="g9006" transform="matrix(1.25,0,0,-1.25,402.99123,791.67606)">
			<path id="path9008" fill="#C2D53C" d="M40.025-7.385c0.01-0.008,0.021-0.017,0.03-0.025c0.055-0.04,0.112-0.078,0.172-0.111
				c0.002-0.001,0.004-0.002,0.006-0.003l0.001,0c0.011-0.006,0.021-0.011,0.032-0.017C40.181-7.496,40.102-7.441,40.025-7.385"/>
		</g>
		<g id="g9010" transform="matrix(1.25,0,0,-1.25,400.44835,789.91443)">
			<path id="path9012" fill="#ACD050" d="M41.72-8.559L41.72-8.559c0.044-0.025,0.087-0.052,0.129-0.08
				c0.008-0.005,0.016-0.011,0.024-0.016C41.824-8.622,41.773-8.589,41.72-8.559"/>
		</g>
		<g id="g9014" transform="matrix(1.25,0,0,-1.25,408.66785,787.33181)">
			<path id="path9016" fill="#A6CD43" d="M36.242-10.28c-0.061-0.003-0.121-0.008-0.182-0.014c-0.168-0.018-0.332-0.052-0.495-0.094
				c-0.001,0-0.002-0.001-0.003-0.001c-0.001,0-0.001,0-0.002-0.001c-0.15-0.054-0.285-0.137-0.416-0.235
				c0.053-0.03,0.104-0.063,0.154-0.096c0.066-0.045,0.128-0.092,0.186-0.139c0.077-0.057,0.156-0.111,0.241-0.157
				c0.004-0.002,0.008-0.004,0.012-0.006l0.001,0c0,0,0.001,0,0.001-0.001l0,0c0.025-0.013,0.048-0.024,0.07-0.035l0.003-0.002
				c0.001,0,0.002-0.001,0.003-0.001l0.005-0.002c0.013-0.006,0.025-0.012,0.036-0.017l0.001-0.001h0h0c0,0,0.001,0,0.002,0
				c0.019,0,0.06,0.097,0.069,0.115c0.046,0.091,0.088,0.185,0.13,0.278C36.119-10.553,36.178-10.415,36.242-10.28"/>
		</g>
		<g id="g9018" transform="matrix(1.25,0,0,-1.25,417.08448,789.11768)">
			<path id="path9020" fill="#E4E786" d="M30.633-9.09c-0.002-0.001-0.004-0.002-0.006-0.003l-0.002-0.001c0,0-0.001,0-0.002-0.001
				c-0.003-0.001-0.005-0.003-0.008-0.004h0c0,0-0.001-0.001-0.002-0.001c-0.001,0-0.001-0.001-0.002-0.001c0,0,0,0,0,0
				c-0.001,0-0.001-0.001-0.002-0.001c0,0,0,0,0,0c-0.001,0-0.001,0-0.002-0.001c0,0,0,0,0,0c-0.001,0-0.001,0-0.002-0.001
				c0,0,0,0,0,0c-0.001,0-0.001,0-0.001-0.001c0,0,0,0-0.001,0c0,0-0.001,0-0.001,0c0,0-0.001,0-0.001,0h0
				c-0.018-0.009-0.035-0.018-0.052-0.028c0.024,0.014,0.05,0.028,0.076,0.04l0.002,0.001C30.629-9.092,30.631-9.09,30.633-9.09
				 M30.887-9.374c0.126-0.209,0.242-0.399,0.349-0.573C31.129-9.774,31.013-9.583,30.887-9.374 M25.697-9.575
				c0.001-0.001,0.001-0.001,0.001-0.002v0L25.697-9.575 M25.697-9.575L25.697-9.575L25.697-9.575 M25.698-9.575l0.001-0.002l0,0
				C25.698-9.576,25.698-9.575,25.698-9.575L25.698-9.575L25.698-9.575 M29.932-9.809L29.932-9.809
				c-0.01-0.014-0.02-0.029-0.03-0.043C29.913-9.837,29.922-9.823,29.932-9.809 M27.16-9.809c-0.004-0.001-0.009-0.002-0.013-0.003
				l0.001,0c0.002,0,0.005,0.001,0.007,0.001C27.157-9.81,27.159-9.81,27.16-9.809"/>
		</g>
		<g id="g9022" transform="matrix(1.25,0,0,-1.25,392.92485,794.02131)">
			<path id="path9024" fill="#CBDA52" d="M46.733-5.822C46.733-5.822,46.733-5.822,46.733-5.822L46.733-5.822L46.733-5.822
				 M46.712-5.828l-0.001,0c-0.026-0.008-0.053-0.016-0.08-0.023c-0.006-0.001-0.011-0.003-0.017-0.004c0,0,0,0-0.001,0
				C46.647-5.848,46.68-5.839,46.712-5.828 M46.603-5.86C46.603-5.86,46.603-5.86,46.603-5.86L46.603-5.86L46.603-5.86
				 M46.602-5.861l-0.002,0c-0.03-0.008-0.061-0.015-0.091-0.021l-0.003-0.001c-0.005-0.001-0.011-0.002-0.016-0.003
				c-0.002,0-0.004-0.001-0.005-0.001c0.007,0.001,0.014,0.003,0.021,0.004l0.004,0.001c0.031,0.006,0.061,0.014,0.091,0.021
				L46.602-5.861 M46.476-5.889L46.476-5.889c-0.01-0.002-0.019-0.004-0.028-0.005C46.457-5.892,46.466-5.891,46.476-5.889"/>
		</g>
		<g id="g9026" transform="matrix(1.25,0,0,-1.25,380.14085,792.75043)">
			<path id="path9028" fill="#B4D788" d="M55.253-6.669L55.253-6.669C55.253-6.669,55.253-6.669,55.253-6.669
				C55.253-6.669,55.253-6.669,55.253-6.669C55.253-6.669,55.253-6.669,55.253-6.669 M55.277-6.683
				c0.028-0.016,0.056-0.031,0.084-0.045c-0.001,0-0.001,0.001-0.002,0.001C55.332-6.712,55.304-6.698,55.277-6.683 M59.761-7.032
				l0.003-0.003C59.763-7.033,59.762-7.033,59.761-7.032L59.761-7.032 M57.859-7.039L57.859-7.039
				c0.1-0.087,0.217-0.153,0.366-0.182c-0.001,0-0.003,0.001-0.004,0.001C58.21-7.218,58.2-7.215,58.189-7.213
				c-0.003,0.001-0.006,0.001-0.008,0.002c-0.013,0.003-0.026,0.007-0.038,0.011c-0.006,0.002-0.012,0.004-0.018,0.006
				c-0.013,0.004-0.026,0.009-0.039,0.014l-0.013,0.006c-0.014,0.006-0.027,0.012-0.04,0.019l-0.006,0.003
				C57.965-7.122,57.909-7.083,57.859-7.039 M58.233-7.223L58.233-7.223c0.002,0,0.004-0.001,0.006-0.001l0.003-0.001l-0.003,0.001
				C58.237-7.223,58.235-7.223,58.233-7.223 M61.678-8.182c0.001-0.001,0.002-0.001,0.004-0.002L61.678-8.182
				C61.679-8.182,61.678-8.182,61.678-8.182"/>
		</g>
		<g id="g9030" transform="matrix(1.25,0,0,-1.25,380.14585,792.75356)">
			<path id="path9032" fill="#A2CD58" d="M55.249-6.667L55.249-6.667c0.036-0.021,0.072-0.04,0.108-0.058c0,0,0,0,0,0
				c-0.028,0.014-0.056,0.029-0.084,0.045C55.265-6.676,55.257-6.672,55.249-6.667 M57.854-7.037
				C57.854-7.037,57.854-7.037,57.854-7.037c0.102-0.089,0.221-0.156,0.375-0.183c-0.003,0-0.006,0.001-0.008,0.002
				C58.071-7.19,57.955-7.124,57.854-7.037"/>
		</g>
		<g id="g9034" transform="matrix(1.25,0,0,-1.25,380.14585,792.75356)">
			<path id="path9036" fill="#88C243" d="M55.249-6.667L55.249-6.667c0.036-0.021,0.072-0.04,0.108-0.058v0
				C55.321-6.707,55.285-6.688,55.249-6.667"/>
		</g>
		<g id="g9038" transform="matrix(1.25,0,0,-1.25,380.14085,792.75043)">
			<path id="path9040" fill="#A2CD58" d="M55.253-6.669c0,0,0.001-0.001,0.001-0.002L55.253-6.669
				C55.253-6.669,55.253-6.669,55.253-6.669"/>
		</g>
		<g id="g9042" transform="matrix(1.25,0,0,-1.25,380.14435,792.75243)">
			<path id="path9044" fill="#88C243" d="M55.25-6.667l0-0.001c0.005-0.008,0.01-0.017,0.016-0.025
				C55.263-6.689,55.254-6.673,55.25-6.667L55.25-6.667 M55.267-6.694c0.015-0.024,0.032-0.05,0.049-0.076
				c0.679-0.687,1.92-1.057,2.945-1.057c0.486,0,0.923,0.083,1.228,0.256c0.238,0.134,0.477,0.253,0.699,0.345
				c-0.054,0.031-0.11,0.063-0.168,0.093c-0.082,0.043-0.172,0.07-0.252,0.101l-0.01,0.003c0.001-0.001,0.002-0.002,0.002-0.002
				c-0.385-0.076-0.456-0.309-0.915-0.499l-0.004-0.001c-0.147-0.08-0.307-0.136-0.472-0.165c-0.002,0-0.005-0.001-0.007-0.001
				c-0.088-0.015-0.177-0.023-0.266-0.023l0,0h0c-0.278,0-0.56,0.075-0.807,0.23h0.001h0c0.001,0,0.003,0,0.004,0
				c0.001,0,0.001,0,0.002,0C57.351-7.497,57.404-7.5,57.455-7.5h0h0c0.071,0,0.138,0.005,0.201,0.014c0.001,0,0.001,0,0.002,0
				h0.001c0.004,0.001,0.008,0.001,0.013,0.002c0.235,0.038,0.417,0.137,0.568,0.26l-0.003,0.001c-0.002,0-0.004,0.001-0.006,0.001
				c-0.233-0.117-0.542-0.173-0.881-0.173C56.644-7.394,55.809-7.149,55.267-6.694"/>
		</g>
		<g id="g9046" transform="matrix(1.25,0,0,-1.25,380.14673,792.75356)">
			<path id="path9048" fill="#7ABD44" d="M55.249-6.667c0.003-0.005,0.013-0.021,0.016-0.026c0,0,0,0,0-0.001
				c0.542-0.455,1.377-0.7,2.083-0.7c0.339,0,0.648,0.056,0.881,0.173c-0.153,0.028-0.273,0.095-0.375,0.183
				c-0.409-0.076-0.797-0.141-1.119-0.141c-0.069,0-0.135,0.003-0.197,0.009c-0.482,0.05-0.944,0.297-1.18,0.443
				C55.32-6.707,55.284-6.688,55.249-6.667"/>
		</g>
		<g id="g9050" transform="matrix(1.25,0,0,-1.25,409.76698,778.54831)">
			<path id="path9052" fill="#FBBEA7" d="M35.51-16.133L35.51-16.133L35.51-16.133L35.51-16.133 M33.18-16.883
				c0.006-0.003,0.012-0.007,0.018-0.01l0.007-0.003c0.01-0.006,0.021-0.011,0.032-0.016c-0.004,0.002-0.008,0.004-0.012,0.006
				C33.21-16.898,33.195-16.891,33.18-16.883 M33.38-16.982c0.001-0.001,0.002-0.001,0.003-0.002
				C33.382-16.983,33.381-16.982,33.38-16.982"/>
		</g>
		<g id="g9054" transform="matrix(1.25,0,0,-1.25,409.76648,778.54831)">
			<path id="path9056" fill="#F15B22" d="M35.51-16.133L35.51-16.133L35.51-16.133 M33.06-16.815
				c0.002-0.001,0.003-0.002,0.005-0.003c0.01-0.006,0.021-0.012,0.031-0.019l0.006-0.003c0.005-0.003,0.009-0.005,0.014-0.008
				C33.097-16.837,33.078-16.826,33.06-16.815 M33.174-16.879c0.002-0.001,0.004-0.002,0.006-0.003
				c0.015-0.008,0.03-0.016,0.045-0.023c0.004-0.002,0.008-0.004,0.012-0.006c0.001-0.001,0.002-0.001,0.003-0.002
				C33.219-16.902,33.197-16.891,33.174-16.879 M33.303-16.945c0.003-0.001,0.005-0.002,0.008-0.003
				c0.006-0.003,0.011-0.006,0.017-0.008C33.32-16.953,33.312-16.949,33.303-16.945 M33.346-16.965L33.346-16.965l0.001-0.001
				c0.011-0.005,0.022-0.011,0.033-0.016C33.37-16.977,33.358-16.971,33.346-16.965"/>
		</g>
		<g id="g9058" transform="matrix(1.25,0,0,-1.25,408.91473,777.85456)">
			<path id="path9060" fill="#E5785D" d="M36.078-16.595c0.039-0.029,0.077-0.06,0.114-0.093h0.001
				c-0.037,0.032-0.075,0.063-0.113,0.092C36.079-16.596,36.078-16.596,36.078-16.595 M35.792-16.627
				c-0.308,0-0.603-0.104-0.87-0.249c0.003,0.002,0.007,0.004,0.01,0.005C35.197-16.728,35.488-16.627,35.792-16.627
				c0.04,0,0.079-0.002,0.119-0.005C35.871-16.628,35.831-16.627,35.792-16.627 M34.062-17.537c0.001-0.001,0.002-0.001,0.004-0.002
				c0.001-0.001,0.002-0.001,0.002-0.001c0.001,0.001,0.001,0.002,0.002,0.002L34.062-17.537"/>
		</g>
		<g id="g9062" transform="matrix(1.25,0,0,-1.25,406.64123,776.39268)">
			<path id="path9064" fill="#E05656" d="M37.593-17.57c0.094-0.049,0.185-0.106,0.276-0.173c-0.058,0.043-0.118,0.084-0.181,0.121
				c-0.026,0.015-0.052,0.03-0.079,0.045C37.604-17.574,37.598-17.572,37.593-17.57"/>
		</g>
		<g id="g9066" transform="matrix(1.25,0,0,-1.25,406.59098,776.37418)">
			<path id="path9068" fill="#D23E3B" d="M37.626-17.582c0.108-0.056,0.211-0.122,0.31-0.198c0,0,0.001,0,0.001,0
				c-0.01,0.007-0.02,0.015-0.03,0.022c-0.091,0.067-0.182,0.124-0.276,0.173C37.631-17.584,37.628-17.583,37.626-17.582"/>
		</g>
		<g id="g9070" transform="matrix(1.25,0,0,-1.25,406.59098,776.37418)">
			<path id="path9072" fill="#D12823" d="M37.626-17.582c-0.07,0.036-0.141,0.069-0.215,0.097c-0.174,0.066-0.357,0.107-0.55,0.129
				c-0.001,0-0.003,0-0.004,0c-0.139,0.013-0.279,0.019-0.419,0.021h-0.004H36.43h-0.01c-0.542-0.057-0.804-0.333-1.114-0.558
				c0.069-0.089,0.131-0.187,0.183-0.294c0.008-0.016,0.015-0.032,0.022-0.049c0.106,0.035,0.22,0.078,0.344,0.128
				c0.71,0.288,1.234,0.379,1.618,0.379c0.185,0,0.338-0.021,0.463-0.051C37.838-17.704,37.734-17.638,37.626-17.582"/>
		</g>
		<g id="g9074" transform="matrix(1.25,0,0,-1.25,390.7611,781.26643)">
			<path id="path9076" fill="#D22B24" d="M48.175-14.322c-0.03-0.01-0.06-0.019-0.089-0.028c-0.013-0.016-0.025-0.032-0.038-0.048
				c-0.009-0.012-0.018-0.024-0.027-0.036c-0.004-0.006-0.009-0.012-0.013-0.018c0.021-0.016,0.042-0.033,0.062-0.049
				c0.046-0.037,0.092-0.074,0.142-0.106c0.003-0.002,0.005-0.003,0.008-0.005c0.004-0.002,0.007-0.004,0.011-0.007l0.003-0.002
				l0.004-0.003l0.01-0.006c0.011-0.007,0.023-0.014,0.034-0.02C48.256-14.533,48.22-14.423,48.175-14.322"/>
		</g>
		<g id="g9078" transform="matrix(1.25,0,0,-1.25,390.59298,780.90243)">
			<path id="path9080" fill="#C71F21" d="M48.287-14.564c-0.016-0.017-0.032-0.035-0.047-0.053c-0.007-0.008-0.013-0.016-0.02-0.024
				c0.029,0.009,0.059,0.018,0.089,0.028C48.302-14.597,48.295-14.58,48.287-14.564"/>
		</g>
		<g id="g9082" transform="matrix(1.25,0,0,-1.25,406.75961,778.08993)">
			<path id="path9084" fill="#FFFFFF" d="M37.514-16.439H37.51c-0.008,0-0.017,0-0.025-0.001h-0.001
				c-0.017,0-0.033-0.001-0.05-0.002l0,0c-0.006,0-0.012-0.001-0.017-0.001l-0.007,0h-0.001h0h0c-0.007,0-0.014-0.001-0.02-0.002
				c-0.014-0.001-0.027-0.002-0.041-0.004l-0.003,0l-0.014-0.002c-0.022-0.003-0.043-0.006-0.065-0.01
				c-0.01-0.002-0.019-0.004-0.028-0.005c-0.014-0.003-0.029-0.006-0.043-0.009c-0.01-0.002-0.02-0.005-0.03-0.007
				c-0.014-0.003-0.028-0.007-0.043-0.011c-0.009-0.003-0.019-0.005-0.028-0.007c-0.022-0.006-0.044-0.013-0.066-0.02
				c-0.013-0.004-0.025-0.009-0.038-0.013c-0.011-0.004-0.022-0.007-0.033-0.012c-0.013-0.005-0.027-0.01-0.04-0.015
				c-0.01-0.004-0.021-0.008-0.031-0.012c-0.013-0.005-0.026-0.011-0.039-0.017c-0.01-0.004-0.02-0.009-0.03-0.013
				c-0.013-0.006-0.025-0.011-0.038-0.017c-0.01-0.005-0.021-0.01-0.031-0.015c-0.008-0.004-0.016-0.008-0.024-0.012l-0.012-0.006
				c-0.011-0.006-0.023-0.012-0.034-0.018c-0.01-0.005-0.021-0.011-0.031-0.016c-0.015-0.008-0.029-0.016-0.043-0.024
				c-0.008-0.004-0.015-0.008-0.022-0.012c-0.059-0.034-0.117-0.07-0.173-0.107l0,0c-0.001,0-0.002-0.001-0.002-0.001
				c0,0-0.001,0-0.001,0c-0.001,0-0.001-0.001-0.002-0.002c0,0-0.001,0-0.001-0.001c0,0-0.001,0-0.002-0.001c0,0,0,0-0.001,0
				c-0.001,0-0.002-0.001-0.003-0.002l-0.005-0.003c-0.017-0.011-0.033-0.022-0.05-0.033l-0.012-0.008
				c-0.014-0.01-0.028-0.02-0.042-0.029c-0.005-0.004-0.01-0.007-0.015-0.011c-0.012-0.009-0.025-0.018-0.038-0.027
				c-0.005-0.004-0.011-0.008-0.017-0.012c-0.012-0.009-0.024-0.017-0.035-0.026c-0.006-0.004-0.011-0.008-0.017-0.013
				c-0.012-0.009-0.024-0.018-0.036-0.027c-0.005-0.003-0.009-0.007-0.014-0.011c0,0,0,0-0.001,0v0
				c-0.016-0.013-0.033-0.025-0.049-0.038c0,0-0.001-0.001-0.001-0.001c0,0-0.001,0-0.001-0.001l0,0c0,0-0.001,0-0.001-0.001
				c-0.023-0.018-0.046-0.038-0.069-0.059c-0.012-0.011-0.025-0.024-0.037-0.036c-0.01-0.01-0.02-0.018-0.03-0.028
				c-0.02-0.02-0.041-0.042-0.061-0.064l-0.007-0.008c-0.023-0.025-0.045-0.05-0.068-0.076l-0.002-0.003l-0.005,0.003l-0.002,0
				c-0.008,0.004-0.017,0.008-0.027,0.013l-0.006,0.003c-0.047,0.022-0.094,0.046-0.141,0.07l-0.007,0.004
				c-0.023,0.012-0.045,0.024-0.068,0.036c-0.014,0.008-0.028,0.015-0.042,0.023l-0.004,0.003c0,0-0.001,0-0.001,0.001
				c-0.044,0.026-0.088,0.053-0.13,0.083c-0.001,0.001-0.002,0.001-0.003,0.002c-0.008,0.006-0.015,0.011-0.022,0.017
				c-0.005,0.004-0.01,0.008-0.016,0.012c-0.001,0-0.001,0.001-0.001,0.001l-0.001,0c-0.026,0.022-0.053,0.043-0.08,0.065
				c-0.009,0.007-0.018,0.014-0.027,0.022c-0.021,0.016-0.042,0.032-0.063,0.048c-0.012,0.009-0.025,0.018-0.037,0.028
				c-0.011,0.008-0.022,0.016-0.034,0.024c-0.023,0.017-0.047,0.033-0.071,0.049l-0.006,0.004c-0.029,0.02-0.059,0.039-0.089,0.058
				c-0.025,0.016-0.05,0.032-0.076,0.047c-0.003,0.002-0.006,0.003-0.008,0.005c0,0-0.001,0-0.001,0.001l-0.006,0.004l-0.003,0.002
				l-0.005,0.003l-0.001,0.001c-0.031,0.018-0.064,0.035-0.096,0.052c-0.003,0.001-0.005,0.003-0.008,0.004
				c-0.013,0.007-0.027,0.013-0.04,0.02c-0.008,0.004-0.016,0.008-0.024,0.012c-0.02,0.01-0.04,0.019-0.061,0.028
				c-0.01,0.005-0.021,0.009-0.032,0.014c-0.018,0.008-0.035,0.015-0.053,0.022c-0.016,0.006-0.032,0.012-0.047,0.018
				c-0.013,0.005-0.025,0.009-0.038,0.014l-0.005,0.002c-0.026,0.009-0.053,0.017-0.08,0.025c-0.006,0.002-0.012,0.003-0.018,0.005
				c-0.017,0.005-0.034,0.009-0.05,0.013c-0.009,0.002-0.018,0.004-0.028,0.007c-0.017,0.004-0.033,0.007-0.05,0.011
				c-0.005,0.001-0.01,0.002-0.015,0.003c-0.028,0.005-0.055,0.01-0.083,0.014l-0.006,0.001c-0.03,0.004-0.06,0.007-0.091,0.009
				c-0.013,0.001-0.027,0.002-0.041,0.002c-0.014,0-0.028,0.001-0.042,0.001c-0.004,0-0.008,0-0.012,0c-0.011,0-0.021,0-0.031,0
				c-0.089-0.002-0.179-0.011-0.269-0.032h0c-0.025-0.006-0.049-0.012-0.074-0.019l-0.005-0.001l-0.005-0.002
				c-0.012-0.004-0.024-0.007-0.036-0.011c-0.001,0-0.002-0.001-0.003-0.001c-0.005-0.001-0.009-0.003-0.014-0.005
				c-0.008-0.003-0.016-0.006-0.024-0.008l-0.006-0.002l0.001,0c0.021-0.008,0.041-0.016,0.06-0.024l0.001,0l0,0
				c0.017-0.007,0.033-0.015,0.048-0.022l-0.013,0.006c0.008-0.003,0.016-0.007,0.024-0.011c0.01-0.005,0.021-0.01,0.03-0.016
				c0.007-0.003,0.014-0.007,0.021-0.011c0.011-0.006,0.021-0.012,0.031-0.018l0.002-0.001l0.001,0l0.002-0.001l0.004-0.002
				c0.053-0.031,0.102-0.066,0.148-0.103l0.001,0l0.001-0.001c0.006-0.005,0.012-0.01,0.018-0.014l0.002-0.002L33.8-16.746
				c0.178-0.147,0.317-0.33,0.451-0.512c0.004-0.005,0.007-0.009,0.011-0.014c0.028-0.038,0.057-0.076,0.085-0.114
				c0.015-0.019,0.029-0.038,0.044-0.057c0.009-0.012,0.018-0.024,0.028-0.035l0.005-0.006c0.023-0.029,0.046-0.057,0.07-0.085
				c0.036-0.042,0.073-0.082,0.113-0.12c0.01-0.009,0.02-0.018,0.03-0.027c0.034-0.032,0.07-0.062,0.107-0.09l0.002-0.002
				c0.018-0.013,0.037-0.026,0.056-0.038l0.006-0.004c0.018-0.012,0.037-0.023,0.056-0.033l0.006-0.003
				c0.019-0.01,0.038-0.02,0.058-0.029l0.012-0.006c0.007-0.003,0.014-0.006,0.021-0.009c0.009-0.003,0.017-0.008,0.026-0.011
				l0.004-0.002c0.013-0.005,0.026-0.009,0.04-0.014c0.01-0.003,0.02-0.007,0.031-0.01c0.012-0.004,0.025-0.008,0.038-0.011
				c0.026-0.007,0.053-0.013,0.081-0.018c0,0,0.001,0,0.001,0l0.006-0.001h0c0,0-0.001-0.001-0.001-0.001
				c-0.015-0.012-0.031-0.024-0.046-0.036c-0.002-0.001-0.003-0.003-0.004-0.003c-0.019-0.014-0.038-0.029-0.058-0.042
				c-0.041-0.029-0.084-0.056-0.127-0.081c-0.082-0.047-0.169-0.087-0.259-0.118c-0.001,0-0.001,0-0.002-0.001c0,0,0,0,0,0
				c-0.018-0.006-0.037-0.012-0.055-0.018c-0.008-0.003-0.015-0.005-0.023-0.007c0,0-0.001,0-0.001,0
				c-0.062-0.018-0.125-0.032-0.189-0.042c-0.087-0.014-0.176-0.022-0.264-0.024c-0.001,0-0.002,0-0.003,0l-0.001,0H34.15
				c-0.01,0-0.021,0-0.031,0h-0.001h-0.001c-0.061,0-0.122,0.003-0.182,0.008l0.022-0.035l0,0l0.001,0l0,0
				c0.033-0.019,0.067-0.037,0.101-0.054l0.007-0.003c0.019-0.01,0.039-0.019,0.059-0.029c0.011-0.005,0.022-0.01,0.033-0.015
				c0.017-0.008,0.034-0.015,0.051-0.022l0.001,0c0.012-0.005,0.025-0.01,0.037-0.014c0.017-0.006,0.033-0.013,0.05-0.019
				l0.007-0.003c0.011-0.003,0.021-0.007,0.032-0.01c0.016-0.005,0.032-0.011,0.048-0.016c0.013-0.005,0.027-0.008,0.04-0.012
				c0.016-0.005,0.032-0.009,0.048-0.014c0.014-0.003,0.028-0.007,0.042-0.01c0.016-0.003,0.031-0.007,0.047-0.011
				c0.014-0.003,0.029-0.006,0.043-0.008c0.007-0.001,0.013-0.003,0.02-0.003c0.009-0.002,0.018-0.003,0.027-0.005
				c0.014-0.002,0.029-0.005,0.043-0.007c0.005-0.001,0.01-0.001,0.015-0.002c0.01-0.001,0.021-0.003,0.032-0.004
				c0.012-0.002,0.025-0.003,0.037-0.004l0.006-0.001c0.016-0.001,0.031-0.003,0.047-0.004c0.007-0.001,0.015-0.001,0.022-0.002
				c0.007,0,0.015-0.001,0.022-0.001c0.016-0.001,0.031-0.002,0.047-0.002c0.008,0,0.016,0,0.024-0.001c0.007,0,0.013,0,0.02,0
				c0.004,0,0.008,0,0.012,0h0.008c0.007,0,0.014,0,0.02,0c0.002,0,0.004,0,0.007,0c0.01,0,0.021,0,0.031,0l0.013,0l0.014,0
				c0.011,0,0.022,0.001,0.033,0.001c0.014,0.001,0.027,0.001,0.04,0.002l0.003,0l0,0c0.016,0.001,0.031,0.002,0.047,0.004
				c0.013,0.001,0.025,0.002,0.038,0.004l0.005,0h0c0.016,0.002,0.031,0.004,0.047,0.006c0.009,0.001,0.017,0.002,0.026,0.004
				c0.005,0.001,0.011,0.002,0.016,0.002c0.016,0.003,0.032,0.005,0.047,0.008h0l0.004,0.001c0.017,0.003,0.034,0.006,0.05,0.009
				c0.034,0.007,0.068,0.015,0.102,0.023c0.001,0,0.002,0,0.002,0c0,0,0,0,0,0c0.001,0,0.002,0,0.004,0.001l0.002,0.001l0.002,0
				c0.001,0,0.001,0.001,0.002,0.001l0.001,0c0.002,0,0.003,0.001,0.005,0.001c0,0,0,0,0.001,0c0.003,0.001,0.005,0.001,0.008,0.002
				c0.004,0.001,0.008,0.002,0.012,0.003c0.028,0.008,0.056,0.016,0.083,0.025c0.03,0.01,0.06,0.02,0.09,0.031
				c0.004,0.002,0.008,0.003,0.013,0.005l0.006,0.002c0.029,0.01,0.061,0.022,0.094,0.036c0.035,0.015,0.071,0.031,0.106,0.047l0,0
				c0,0,0.001,0,0.001,0c0,0,0,0,0,0c0,0,0,0,0,0c0.049,0.023,0.095,0.046,0.133,0.066c0.023,0.012,0.043,0.023,0.059,0.031
				c0.005,0.003,0.01,0.005,0.015,0.008c0.013,0.007,0.023,0.012,0.026,0.014l0.002,0.001c0.02-0.027,0.04-0.053,0.06-0.08
				c0.055-0.074,0.11-0.148,0.168-0.217l0.001-0.002c0.015-0.018,0.031-0.035,0.046-0.052l0.004-0.004
				c0.015-0.016,0.03-0.032,0.046-0.047l0.006-0.006c0.016-0.015,0.032-0.03,0.048-0.043l0.001,0
				c0.015-0.013,0.031-0.025,0.048-0.037l0.005-0.003c0.017-0.012,0.034-0.024,0.052-0.034l0.004-0.003
				c0.01-0.006,0.02-0.011,0.03-0.017l0.008-0.004c0.005-0.003,0.01-0.005,0.015-0.008c0.01-0.005,0.02-0.01,0.031-0.014
				c0.008-0.003,0.016-0.007,0.024-0.01c0.009-0.003,0.019-0.007,0.028-0.011c0.01-0.003,0.021-0.007,0.032-0.01
				c0.006-0.002,0.012-0.003,0.017-0.005l0.008-0.002c0.005-0.001,0.009-0.002,0.014-0.004c0.004-0.001,0.009-0.002,0.013-0.003
				c0.006-0.001,0.013-0.003,0.019-0.004c0.003,0,0.007-0.001,0.01-0.002l0.002,0h0.001h0l0.006-0.001l0.003-0.001
				c-0.151-0.123-0.333-0.222-0.568-0.26c-0.004-0.001-0.008-0.001-0.013-0.002c0,0,0,0,0,0c-0.001,0-0.001,0-0.002,0
				c-0.063-0.009-0.13-0.014-0.201-0.014h0h0c-0.051,0-0.104,0.002-0.159,0.008c-0.001,0-0.001,0-0.002,0c-0.001,0-0.003,0-0.004,0
				h0h-0.001c0.248-0.156,0.529-0.23,0.807-0.23h0l0,0c0.089,0,0.179,0.008,0.267,0.023c0.002,0,0.004,0.001,0.007,0.001
				c0.165,0.029,0.325,0.084,0.471,0.165l0.004,0.001c0.46,0.19,0.53,0.423,0.915,0.499l-0.003,0.003
				c-0.07,0.068-0.174,0.089-0.261,0.089c-0.015,0-0.029-0.001-0.042-0.002c0.01,0.014,0.02,0.028,0.03,0.042
				c0.19,0.274,0.359,0.547,0.669,0.704h0c0,0,0.001,0,0.001,0l0.001,0.001c0,0,0,0,0.001,0c0,0,0.001,0,0.001,0.001c0,0,0,0,0,0
				c0.001,0,0.001,0.001,0.002,0.001l0,0c0.001,0,0.001,0,0.002,0.001h0c0,0,0.001,0.001,0.002,0.001c0,0,0,0,0,0
				c0.001,0,0.001,0.001,0.002,0.001l0,0c0.001,0,0.001,0,0.002,0.001l0,0c0.003,0.001,0.005,0.003,0.008,0.004
				c0.001,0,0.001,0.001,0.002,0.001l0.002,0.001c0.021,0.01,0.043,0.019,0.066,0.028l0.001,0.001l0.003,0.001l-0.016,0.025
				l-0.004,0.001c-0.024,0.007-0.048,0.013-0.071,0.019l-0.013,0.003c-0.03,0.006-0.06,0.011-0.09,0.015h-0.001
				c-0.03,0.004-0.059,0.006-0.089,0.006c-0.008,0-0.015,0-0.023,0c-0.021,0-0.042-0.001-0.064-0.002l-0.003,0
				c-0.028-0.002-0.056-0.005-0.083-0.009l-0.005-0.001c-0.027-0.004-0.054-0.009-0.081-0.015l-0.006-0.001
				c-0.026-0.006-0.053-0.013-0.078-0.02l-0.007-0.002c-0.018-0.005-0.035-0.011-0.052-0.017c-0.02-0.007-0.04-0.014-0.06-0.022
				c-0.011-0.004-0.021-0.008-0.032-0.012c-0.022-0.009-0.044-0.019-0.066-0.029c-0.007-0.003-0.015-0.007-0.023-0.01
				c-0.03-0.014-0.059-0.029-0.087-0.045l-0.003-0.001c-0.028-0.015-0.055-0.031-0.081-0.047c-0.008-0.005-0.016-0.01-0.025-0.015
				c-0.019-0.012-0.038-0.024-0.057-0.036c-0.009-0.006-0.019-0.012-0.028-0.018c-0.018-0.012-0.035-0.024-0.052-0.035
				c-0.009-0.006-0.018-0.013-0.027-0.019c-0.018-0.013-0.035-0.025-0.052-0.038c-0.008-0.006-0.015-0.011-0.023-0.017
				c-0.024-0.018-0.047-0.036-0.07-0.054c0,0-0.001,0-0.001-0.001c0,0,0,0-0.001-0.001c0,0,0,0,0,0
				c-0.016-0.013-0.032-0.027-0.048-0.041c-0.002-0.002-0.004-0.004-0.007-0.006c-0.01-0.009-0.019-0.018-0.029-0.027
				c-0.001-0.001-0.001-0.001-0.002-0.002c-0.001-0.001-0.002-0.002-0.003-0.003c-0.036-0.036-0.072-0.075-0.108-0.116
				c-0.005,0.002-0.01,0.004-0.015,0.007c-0.012,0.006-0.024,0.012-0.037,0.017c-0.04,0.02-0.081,0.04-0.12,0.062l0,0
				c-0.065,0.035-0.131,0.075-0.175,0.111l-0.004,0.003c-0.003,0.002-0.005,0.004-0.008,0.006c0,0-0.001,0.001-0.001,0.001
				c-0.015,0.012-0.031,0.025-0.047,0.037c-0.018,0.014-0.037,0.029-0.056,0.043c-0.01,0.007-0.019,0.014-0.028,0.021
				c-0.016,0.012-0.032,0.024-0.049,0.035c-0.009,0.006-0.018,0.013-0.028,0.019c-0.007,0.005-0.014,0.01-0.021,0.014
				c-0.01,0.007-0.019,0.013-0.029,0.019c-0.028,0.018-0.057,0.036-0.087,0.054c-0.002,0.002-0.005,0.003-0.007,0.004l-0.008,0.005
				c0.123,0.092,0.24,0.173,0.397,0.23c0.007,0.002,0.014,0.004,0.021,0.006c0.053,0.019,0.108,0.035,0.165,0.046
				c0.001,0,0.001,0,0.002,0c0,0-0.001,0-0.001,0.001c-0.013,0.013-0.027,0.024-0.041,0.035c-0.088,0.065-0.203,0.088-0.313,0.088
				H36.9c-0.015,0-0.03,0-0.045-0.001c-0.003,0-0.006,0-0.009,0c0,0.001,0.001,0.001,0.002,0.002
				c0.196,0.278,0.377,0.577,0.636,0.803c0,0,0.001,0.001,0.001,0.001c0.125,0.109,0.265,0.197,0.418,0.261
				c0.015,0.006,0.031,0.013,0.046,0.019c-0.002,0.002-0.009,0.008-0.016,0.014c-0.007,0.006-0.014,0.012-0.016,0.014l-0.001,0
				l-0.001,0l-0.003,0.001l0,0l-0.002,0h0l0,0c0,0,0,0,0,0h0c-0.002,0-0.003,0.001-0.004,0.001
				c-0.008,0.003-0.017,0.005-0.025,0.007c-0.006,0.001-0.011,0.003-0.017,0.005c-0.009,0.003-0.019,0.005-0.028,0.007
				c-0.008,0.002-0.016,0.004-0.024,0.006c-0.018,0.004-0.036,0.008-0.053,0.011c-0.008,0.002-0.017,0.003-0.026,0.005
				c-0.018,0.003-0.037,0.006-0.056,0.008l-0.014,0.002l-0.008,0.001c-0.008,0.001-0.016,0.002-0.024,0.002
				c-0.008,0-0.016,0.001-0.025,0.002c-0.006,0-0.012,0.001-0.018,0.001c-0.002,0-0.003,0-0.005,0c-0.006,0-0.012,0.001-0.018,0.001
				C37.549-16.439,37.531-16.439,37.514-16.439"/>
		</g>
		<g id="g9086" transform="matrix(1.25,0,0,-1.25,417.56723,788.91281)">
			<path id="path9088" fill="#EBEDA8" d="M30.312-9.226l-0.003-0.001L30.312-9.226L30.312-9.226 M26.895-9.945l-0.002-0.001h0
				L26.895-9.945z"/>
		</g>
		<g id="g9090" transform="matrix(1.25,0,0,-1.25,396.91048,792.23781)">
			<path id="path9092" fill="#F0F2C1" d="M44.077-7.011L44.077-7.011c0.008-0.011,0.016-0.022,0.025-0.032
				c0.006-0.008,0.012-0.016,0.018-0.024c0.001-0.002,0.002-0.003,0.003-0.005c0.005-0.006,0.009-0.012,0.014-0.019
				C44.117-7.064,44.097-7.037,44.077-7.011 M43.734-7.179c-0.033-0.013-0.064-0.026-0.094-0.036h0l0,0
				C43.671-7.205,43.702-7.192,43.734-7.179 M43.635-7.216c-0.004-0.002-0.008-0.003-0.013-0.005
				C43.627-7.22,43.631-7.218,43.635-7.216 M43.449-7.277c-0.004-0.001-0.008-0.002-0.012-0.003c0.002,0,0.004,0.001,0.006,0.001
				C43.445-7.279,43.447-7.278,43.449-7.277 M43.428-7.283c-0.002,0-0.003-0.001-0.005-0.001l-0.001,0c0.001,0,0.002,0,0.003,0.001
				C43.427-7.284,43.428-7.283,43.428-7.283 M43.418-7.286l-0.002,0L43.418-7.286L43.418-7.286 M43.416-7.286
				c-0.001,0-0.002,0-0.004-0.001C43.414-7.287,43.415-7.287,43.416-7.286 M43.413-7.287c-0.001,0-0.001-0.001-0.002-0.001
				C43.411-7.288,43.412-7.287,43.413-7.287 M44.817-7.633L44.817-7.633L44.817-7.633"/>
		</g>
		<g id="g9094" transform="matrix(1.25,0,0,-1.25,391.98198,794.29781)">
			<path id="path9096" fill="#DFE89F" d="M47.362-5.638L47.362-5.638L47.362-5.638L47.362-5.638L47.362-5.638z"/>
		</g>
		<g id="g9098" transform="matrix(1.25,0,0,-1.25,410.01873,778.76506)">
			<path id="path9100" fill="#EBEDA8" d="M35.342-15.989c-0.016-0.006-0.031-0.012-0.046-0.018c0.006,0.002,0.011,0.004,0.017,0.007
				c0.006,0.003,0.011,0.005,0.017,0.007l0.006,0.002C35.339-15.99,35.342-15.989,35.342-15.989 M35.296-16.007
				c-0.153-0.064-0.293-0.152-0.418-0.262l0.001,0c0.002,0.002,0.005,0.004,0.007,0.006c0.121,0.104,0.256,0.189,0.402,0.252
				C35.29-16.009,35.293-16.008,35.296-16.007 M34.877-16.269c-0.259-0.226-0.44-0.524-0.636-0.803
				c0.029,0.041,0.058,0.083,0.086,0.124c0.03,0.043,0.059,0.086,0.089,0.129c0.001,0.001,0.001,0.002,0.002,0.003
				c0.015,0.021,0.029,0.041,0.044,0.062l0,0.001c0.122,0.172,0.251,0.339,0.41,0.479C34.874-16.272,34.875-16.271,34.877-16.269
				 M34.24-17.074L34.24-17.074 M36.246-17.296L36.246-17.296l0.013-0.003c0.023-0.005,0.047-0.012,0.071-0.019l0.004-0.001l0,0h0
				l-0.004,0.001c-0.024,0.007-0.048,0.014-0.071,0.019l0,0l-0.002,0L36.246-17.296 M34.423-17.731c0.001,0,0.001-0.001,0.002-0.001
				c0.002-0.002,0.005-0.004,0.008-0.006l-0.002,0.002l-0.005,0.004C34.424-17.732,34.424-17.732,34.423-17.731 M34.612-17.853
				L34.612-17.853c0.04-0.022,0.08-0.042,0.12-0.062c0.012-0.006,0.024-0.012,0.037-0.017c-0.011,0.005-0.023,0.011-0.036,0.017
				l-0.001,0l0,0c-0.013,0.006-0.026,0.013-0.04,0.019c-0.011,0.006-0.023,0.012-0.034,0.017c-0.003,0.001-0.005,0.003-0.008,0.004
				C34.637-17.867,34.625-17.86,34.612-17.853L34.612-17.853"/>
		</g>
		<g id="g9102" transform="matrix(1.25,0,0,-1.25,409.76698,778.54831)">
			<path id="path9104" fill="#FAB283" d="M35.51-16.133L35.51-16.133 M32.298-16.299c0.003-0.001,0.005-0.003,0.008-0.004
				C32.304-16.302,32.301-16.3,32.298-16.299 M32.419-16.365c0.003-0.002,0.005-0.003,0.008-0.005l-0.001,0
				C32.424-16.369,32.422-16.367,32.419-16.365 M33.712-16.67C33.712-16.67,33.712-16.67,33.712-16.67
				C33.712-16.671,33.711-16.671,33.712-16.67C33.711-16.671,33.712-16.671,33.712-16.67 M33.661-16.71
				C33.661-16.71,33.66-16.71,33.661-16.71C33.66-16.71,33.661-16.71,33.661-16.71 M33.66-16.711
				C33.66-16.711,33.659-16.711,33.66-16.711C33.659-16.711,33.66-16.711,33.66-16.711 M33.659-16.712
				c-0.013-0.01-0.026-0.021-0.038-0.031c-0.009-0.008-0.018-0.016-0.027-0.024c-0.001-0.001-0.001-0.002-0.002-0.002
				c0,0-0.001-0.001-0.001-0.001C33.613-16.749,33.636-16.73,33.659-16.712 M32.911-16.714L32.911-16.714L32.911-16.714
				L32.911-16.714 M32.913-16.716c0.005-0.004,0.01-0.008,0.016-0.012c-0.002,0.002-0.005,0.004-0.007,0.005
				C32.919-16.721,32.916-16.718,32.913-16.716 M32.951-16.745c0.001-0.001,0.002-0.001,0.003-0.002
				c0.042-0.03,0.086-0.057,0.13-0.083c-0.007,0.004-0.013,0.008-0.019,0.012c-0.01,0.006-0.021,0.012-0.031,0.018
				c-0.028,0.017-0.055,0.035-0.08,0.053h0l0,0C32.953-16.746,32.952-16.745,32.951-16.745 M33.085-16.83L33.085-16.83l0.004-0.003
				c0.014-0.008,0.028-0.016,0.042-0.023c-0.012,0.007-0.023,0.013-0.035,0.02l-0.006,0.003L33.085-16.83 M33.346-16.966
				l0.006-0.003c0.01-0.004,0.018-0.009,0.027-0.013c-0.008,0.004-0.017,0.008-0.027,0.013L33.346-16.966 M33.388-16.982
				L33.388-16.982 M32.78-17.629c-0.014-0.011-0.028-0.022-0.043-0.033c-0.001-0.001-0.003-0.002-0.004-0.003
				C32.749-17.653,32.764-17.641,32.78-17.629 M32.227-17.929c-0.007-0.002-0.015-0.004-0.023-0.007l-0.001,0
				C32.212-17.934,32.22-17.932,32.227-17.929 M32.203-17.937c-0.001,0-0.001,0-0.002,0c-0.061-0.018-0.124-0.031-0.187-0.042
				C32.078-17.969,32.141-17.955,32.203-17.937 M31.53-17.995L31.53-17.995c0.06-0.005,0.121-0.008,0.182-0.008h0.001
				c-0.024,0-0.048,0-0.072,0.001c-0.002,0-0.004,0-0.006,0c-0.019,0.001-0.055,0.003-0.081,0.004
				C31.544-17.996,31.535-17.996,31.53-17.995"/>
		</g>
		<g id="g9106" transform="matrix(1.25,0,0,-1.25,407.3241,778.10368)">
			<path id="path9108" fill="#F2C5B4" d="M37.138-16.429c0.006,0,0.012-0.001,0.018-0.001c0.008-0.001,0.016-0.001,0.024-0.002
				C37.166-16.431,37.152-16.43,37.138-16.429 M36.958-16.432L36.958-16.432L36.958-16.432L36.958-16.432 M37.412-16.474
				c0.006-0.002,0.011-0.003,0.017-0.005c0.009-0.003,0.017-0.005,0.025-0.007C37.44-16.481,37.426-16.477,37.412-16.474
				 M37.459-16.487C37.459-16.487,37.459-16.487,37.459-16.487L37.459-16.487L37.459-16.487 M34.372-16.72c0,0,0.001,0,0.001-0.001
				C34.373-16.721,34.373-16.721,34.372-16.72L34.372-16.72 M35.956-16.819L35.956-16.819L35.956-16.819 M35.954-16.82
				C35.953-16.821,35.953-16.821,35.954-16.82C35.953-16.821,35.953-16.821,35.954-16.82 M35.951-16.823
				C35.95-16.823,35.95-16.823,35.951-16.823C35.95-16.823,35.95-16.823,35.951-16.823 M35.948-16.824
				C35.948-16.824,35.948-16.824,35.948-16.824C35.948-16.824,35.948-16.824,35.948-16.824 M34.883-17.084
				c0.007-0.006,0.014-0.011,0.022-0.017c-0.001,0.001-0.002,0.001-0.003,0.002C34.896-17.093,34.889-17.089,34.883-17.084
				L34.883-17.084"/>
		</g>
		<g id="g9110" transform="matrix(1.25,0,0,-1.25,386.62848,780.28231)">
			<path id="path9112" fill="#EFA27E" d="M50.929-14.978C50.929-14.978,50.93-14.978,50.929-14.978
				c0.003-0.002,0.006-0.004,0.008-0.005l-0.005,0.003L50.929-14.978 M52.223-15.283C52.222-15.283,52.222-15.284,52.223-15.283
				L52.223-15.283C52.222-15.284,52.222-15.283,52.223-15.283 M51.433-15.336c0.002-0.002,0.004-0.004,0.007-0.005c0,0,0,0,0,0
				C51.438-15.339,51.435-15.338,51.433-15.336 M51.459-15.355c0.001-0.001,0.002-0.001,0.003-0.002
				c0.001-0.001,0.002-0.001,0.003-0.002l0,0C51.462-15.358,51.46-15.356,51.459-15.355 M51.465-15.359
				c0.024-0.018,0.051-0.035,0.08-0.053c-0.004,0.002-0.007,0.004-0.011,0.007c-0.003,0.002-0.007,0.004-0.011,0.007
				c-0.006,0.004-0.012,0.008-0.018,0.012c-0.002,0.001-0.004,0.003-0.006,0.004l-0.002,0.001c0,0,0,0-0.001,0
				C51.486-15.374,51.475-15.367,51.465-15.359L51.465-15.359"/>
		</g>
		<g id="g9114" transform="matrix(1.25,0,0,-1.25,389.29423,789.72693)">
			<path id="path9116" fill="#FDDDCF" d="M49.153-8.684c0,0,0.001,0,0.001,0C49.154-8.684,49.153-8.684,49.153-8.684 M49.159-8.685
				L49.159-8.685 M49.112-8.723c0,0-0.001,0-0.001-0.001l-0.003-0.003c-0.019-0.014-0.039-0.028-0.058-0.042
				c-0.041-0.029-0.084-0.056-0.127-0.081c-0.082-0.047-0.169-0.086-0.258-0.118c-0.001,0-0.002,0-0.002-0.001
				c0.001,0,0.001,0.001,0.002,0.001c0.089,0.032,0.176,0.071,0.258,0.118c0.044,0.025,0.086,0.052,0.127,0.081
				c0.02,0.014,0.039,0.028,0.058,0.042C49.108-8.725,49.11-8.724,49.112-8.723 M48.661-8.968c-0.007-0.002-0.014-0.005-0.021-0.007
				c-0.011-0.004-0.023-0.008-0.034-0.011C48.624-8.981,48.643-8.975,48.661-8.968 M48.392-9.036c-0.02-0.003-0.04-0.006-0.06-0.009
				c-0.067-0.008-0.134-0.013-0.201-0.015c-0.001,0-0.002,0-0.003,0C48.217-9.058,48.305-9.051,48.392-9.036 M48.125-9.06
				L48.125-9.06h-0.001H48.125 M48.119-9.06c-0.01,0-0.019,0-0.029,0h0.001c0.01,0,0.021,0,0.031,0h-0.002H48.119"/>
		</g>
		<g id="g9118" transform="matrix(1.25,0,0,-1.25,389.01248,789.99431)">
			<path id="path9120" fill="#F9AA80" d="M49.34-8.506C49.34-8.506,49.34-8.506,49.34-8.506L49.336-8.51
				c0.001,0,0.001,0.001,0.001,0.001C49.338-8.508,49.339-8.507,49.34-8.506 M48.865-8.762c-0.017-0.005-0.033-0.011-0.05-0.016
				l-0.007-0.002c0.007,0.002,0.015,0.005,0.022,0.007C48.842-8.769,48.854-8.765,48.865-8.762 M48.804-8.78
				c-0.005-0.001-0.011-0.003-0.016-0.004c-0.016-0.004-0.033-0.009-0.049-0.013C48.73-8.8,48.72-8.802,48.71-8.804
				c-0.017-0.004-0.033-0.007-0.05-0.011c-0.009-0.002-0.017-0.003-0.026-0.005c-0.024-0.004-0.049-0.008-0.073-0.011l-0.003,0
				c0.02,0.003,0.04,0.006,0.06,0.009C48.681-8.812,48.743-8.798,48.804-8.78 M48.557-8.831c-0.026-0.003-0.053-0.006-0.08-0.008
				c-0.005,0-0.011-0.001-0.016-0.001c-0.021-0.001-0.042-0.003-0.063-0.004c-0.007,0-0.015,0-0.022-0.001
				c-0.007,0-0.013,0-0.02-0.001C48.424-8.844,48.491-8.84,48.557-8.831 M48.133-8.839L48.133-8.839 M48.157-8.84
				c0.026-0.002,0.062-0.004,0.081-0.004c-0.003,0-0.007,0-0.011,0c-0.01,0-0.021,0.001-0.033,0.002
				C48.181-8.842,48.168-8.841,48.157-8.84 M48.244-8.845L48.244-8.845c0.024-0.001,0.048-0.001,0.072-0.001
				c0.009,0,0.019,0,0.029,0c-0.005,0-0.01,0-0.015,0c-0.004,0-0.008,0-0.013,0c-0.017,0-0.035,0-0.052,0.001
				C48.258-8.845,48.251-8.845,48.244-8.845"/>
		</g>
		<g id="g9122" transform="matrix(1.25,0,0,-1.25,387.8446,789.32581)">
			<path id="path9124" fill="#F2C5B4" d="M50.119-8.951C50.119-8.951,50.119-8.951,50.119-8.951l0.004-0.002L50.119-8.951"/>
		</g>
		<g id="g9126" transform="matrix(1.25,0,0,-1.25,376.47485,778.62568)">
			<path id="path9128" fill="#EEAEAA" d="M57.696-16.082c-0.006-0.002-0.011-0.004-0.017-0.006c0.005,0.002,0.009,0.003,0.014,0.005
				C57.693-16.082,57.695-16.082,57.696-16.082"/>
		</g>
		<g id="g9130" transform="matrix(1.25,0,0,-1.25,377.69761,779.49656)">
			<path id="path9132" fill="#F1B9B4" d="M56.881-15.501l0.002-0.001c0,0,0,0,0,0l0.002-0.001c0.019-0.012,0.038-0.024,0.056-0.036
				l0.01-0.006c0.013-0.009,0.025-0.018,0.037-0.027c0.01-0.007,0.02-0.014,0.029-0.022l0.004-0.003l0.002-0.002l0.007-0.005
				C56.983-15.567,56.933-15.532,56.881-15.501 M57.031-15.605L57.031-15.605l0.012-0.01l0.006-0.005
				C57.043-15.615,57.037-15.61,57.031-15.605 M57.045-15.617l0.002-0.002l0.004-0.003c0.001-0.001,0.001-0.001,0.002-0.002
				c0.004-0.003,0.008-0.007,0.012-0.01c0.005-0.004,0.011-0.009,0.016-0.014c0-0.001,0.001-0.001,0.002-0.001
				c0.006-0.005,0.012-0.011,0.018-0.017c0.01-0.009,0.02-0.018,0.03-0.028l0.01-0.01c0.002-0.002,0.003-0.003,0.005-0.005
				c0.001-0.001,0.001-0.002,0.002-0.002c0.008-0.007,0.015-0.014,0.023-0.022c0.014-0.014,0.028-0.029,0.042-0.044
				c0.001-0.001,0.003-0.003,0.004-0.005c0.005-0.006,0.01-0.011,0.016-0.017c0.002-0.003,0.004-0.005,0.006-0.007
				c0.001-0.001,0.002-0.002,0.003-0.003c0,0,0.001-0.001,0.001-0.001c0,0,0,0,0.001-0.001c0.004-0.004,0.007-0.007,0.01-0.011
				c0.003-0.004,0.006-0.007,0.009-0.01c0.007-0.008,0.014-0.016,0.02-0.024c0.001-0.001,0.001-0.002,0.002-0.003
				c0.002-0.003,0.004-0.005,0.007-0.008c0.011-0.013,0.022-0.026,0.032-0.039c0.001-0.001,0.002-0.002,0.003-0.003
				c0.014-0.017,0.027-0.034,0.041-0.051l0.003-0.004c0.002-0.003,0.004-0.005,0.006-0.007c0.032-0.041,0.063-0.082,0.093-0.123
				c0.01-0.014,0.021-0.028,0.031-0.041c-0.135,0.182-0.273,0.365-0.451,0.512L57.045-15.617"/>
		</g>
		<g id="g9134" transform="matrix(1.25,0,0,-1.25,377.7291,779.51543)">
			<path id="path9136" fill="#EF9C79" d="M56.86-15.488c0.002-0.002,0.005-0.003,0.008-0.005c0.004-0.002,0.007-0.004,0.011-0.007
				c0.01-0.006,0.02-0.012,0.029-0.018l0,0l0.004-0.003l0.004-0.002C56.897-15.512,56.879-15.5,56.86-15.488 M56.925-15.531
				l0.012-0.008c0.008-0.006,0.017-0.013,0.026-0.019C56.95-15.548,56.938-15.539,56.925-15.531 M56.963-15.558l0.01-0.008
				l0.01-0.007l0.009-0.006C56.982-15.572,56.972-15.565,56.963-15.558 M57.026-15.607L57.026-15.607
				c0.001-0.001,0.001-0.001,0.002-0.002h0C57.027-15.608,57.027-15.607,57.026-15.607 M57.028-15.609L57.028-15.609
				c0.004-0.004,0.008-0.007,0.012-0.01C57.036-15.615,57.032-15.612,57.028-15.609 M57.117-15.688l0.004-0.004c0,0,0,0,0,0l0,0
				C57.12-15.691,57.118-15.69,57.117-15.688 M57.124-15.695c0.006-0.006,0.011-0.011,0.017-0.017l0.006-0.006
				C57.139-15.709,57.132-15.702,57.124-15.695 M57.147-15.717L57.147-15.717c0.004-0.004,0.007-0.007,0.009-0.009
				c0.007-0.007,0.013-0.014,0.02-0.021c0.004-0.004,0.009-0.009,0.013-0.014C57.175-15.746,57.161-15.731,57.147-15.717
				 M57.209-15.782c0.002-0.002,0.004-0.004,0.006-0.007l0,0C57.212-15.787,57.211-15.785,57.209-15.782 M57.215-15.789
				L57.215-15.789c0.001-0.001,0.002-0.002,0.003-0.003C57.216-15.791,57.216-15.79,57.215-15.789 M57.219-15.794
				c0.001-0.002,0.002-0.003,0.004-0.004c0.002-0.002,0.004-0.005,0.007-0.007C57.226-15.801,57.222-15.798,57.219-15.794
				 M57.267-15.849c0.006-0.007,0.011-0.013,0.017-0.02c0.004-0.005,0.009-0.01,0.013-0.016c0.001-0.001,0.002-0.002,0.002-0.003
				C57.289-15.875,57.278-15.862,57.267-15.849"/>
		</g>
		<g id="g9138" transform="matrix(1.25,0,0,-1.25,390.4516,783.00256)">
			<path id="path9140" fill="#E7A294" d="M48.381-13.165c0.006-0.005,0.012-0.009,0.019-0.014
				C48.394-13.174,48.388-13.17,48.381-13.165"/>
		</g>
		<g id="g9142" transform="matrix(1.25,0,0,-1.25,390.39985,782.96168)">
			<path id="path9144" fill="#E69477" d="M48.416-13.192c0.002-0.002,0.004-0.004,0.007-0.006c0.006-0.005,0.012-0.009,0.019-0.014
				c0.002-0.001,0.004-0.003,0.005-0.004l-0.003,0.002l-0.007,0.005c-0.005,0.004-0.011,0.008-0.016,0.012
				C48.419-13.195,48.418-13.193,48.416-13.192 M48.448-13.216c0.01-0.007,0.02-0.014,0.031-0.022
				c-0.01,0.007-0.02,0.013-0.029,0.02L48.448-13.216 M48.488-13.243c0.006-0.004,0.012-0.008,0.018-0.012
				c-0.001,0.001-0.003,0.002-0.005,0.003c0,0-0.001,0-0.001,0C48.496-13.249,48.492-13.246,48.488-13.243"/>
		</g>
		<g id="g9146" transform="matrix(1.25,0,0,-1.25,377.71398,779.50668)">
			<path id="path9148" fill="#E7A294" d="M56.87-15.494L56.87-15.494L56.87-15.494C56.87-15.495,56.87-15.494,56.87-15.494
				 M57.052-15.626c0.003-0.002,0.005-0.004,0.008-0.006c0.003-0.003,0.006-0.005,0.008-0.007
				C57.063-15.635,57.058-15.63,57.052-15.626 M57.07-15.641l0.005-0.004h0l0,0l0.002-0.002c0.003-0.003,0.006-0.005,0.008-0.007
				l0.003-0.002C57.082-15.652,57.076-15.647,57.07-15.641 M57.088-15.657L57.088-15.657L57.088-15.657
				c0.007-0.006,0.013-0.012,0.018-0.017c0.004-0.003,0.008-0.007,0.012-0.011C57.109-15.675,57.098-15.667,57.088-15.657
				 M57.205-15.772c0.003-0.004,0.007-0.007,0.01-0.011c0.002-0.002,0.004-0.004,0.006-0.006
				C57.215-15.784,57.21-15.778,57.205-15.772 M57.229-15.799C57.23-15.8,57.23-15.8,57.229-15.799L57.229-15.799
				C57.23-15.8,57.23-15.8,57.229-15.799 M57.241-15.812c0.002-0.002,0.004-0.004,0.006-0.007c0,0,0,0,0,0l0.001-0.001
				c0,0,0.001-0.001,0.001-0.001c0.004-0.004,0.007-0.007,0.01-0.011c0.004-0.004,0.008-0.009,0.012-0.014
				c-0.007,0.008-0.013,0.016-0.02,0.024C57.247-15.819,57.244-15.816,57.241-15.812 M57.311-15.895
				c0.001-0.001,0.002-0.002,0.003-0.003c0.004-0.005,0.008-0.011,0.013-0.016c0.001-0.002,0.003-0.003,0.004-0.005
				c0.004-0.005,0.009-0.011,0.013-0.016l0.011-0.014c-0.013,0.017-0.027,0.034-0.041,0.051
				C57.313-15.897,57.312-15.896,57.311-15.895 M57.364-15.961c0.005-0.007,0.01-0.014,0.016-0.02
				c0.002-0.003,0.004-0.005,0.006-0.007c0.018-0.023,0.035-0.046,0.052-0.069c0.007-0.009,0.013-0.017,0.02-0.026
				C57.427-16.042,57.396-16.001,57.364-15.961"/>
		</g>
		<g id="g9150" transform="matrix(1.25,0,0,-1.25,377.78523,779.55068)">
			<path id="path9152" fill="#E69477" d="M56.822-15.465c0.003-0.002,0.005-0.003,0.008-0.005c0.001-0.001,0.002-0.001,0.003-0.002
				C56.829-15.47,56.826-15.467,56.822-15.465 M56.982-15.579L56.982-15.579l0.001-0.001C56.983-15.58,56.982-15.58,56.982-15.579
				 M56.984-15.581l0.005-0.004c0.005-0.004,0.01-0.008,0.015-0.012c-0.003,0.002-0.005,0.005-0.008,0.007
				C56.991-15.587,56.988-15.584,56.984-15.581 M57.021-15.612l0.008-0.007C57.026-15.617,57.023-15.615,57.021-15.612
				 M57.032-15.623l0.014-0.012c0.001-0.001,0.003-0.003,0.004-0.004C57.044-15.634,57.038-15.628,57.032-15.623 M57.076-15.664
				L57.076-15.664L57.076-15.664C57.076-15.664,57.076-15.664,57.076-15.664 M57.111-15.699c0.003-0.003,0.006-0.006,0.008-0.009
				l0.011-0.012C57.124-15.712,57.118-15.705,57.111-15.699 M57.158-15.748c0.004-0.004,0.007-0.008,0.011-0.012l0.001-0.001
				c-0.002,0.002-0.004,0.004-0.006,0.007C57.162-15.752,57.16-15.75,57.158-15.748 M57.17-15.762l0.002-0.002l0.001-0.001
				c0,0-0.001,0.001-0.001,0.001C57.172-15.763,57.171-15.762,57.17-15.762 M57.178-15.77c0.004-0.005,0.008-0.009,0.012-0.014
				c-0.002,0.002-0.004,0.004-0.006,0.007C57.182-15.775,57.18-15.772,57.178-15.77 M57.191-15.785l0.008-0.009
				c0.001-0.001,0.002-0.002,0.003-0.003c-0.003,0.004-0.007,0.008-0.01,0.011C57.192-15.786,57.191-15.785,57.191-15.785
				 M57.252-15.857c0.002-0.002,0.003-0.004,0.005-0.006l0.001-0.001c-0.001,0.001-0.002,0.002-0.003,0.004
				C57.254-15.859,57.253-15.858,57.252-15.857 M57.27-15.879c0.001-0.001,0.002-0.003,0.004-0.004c0,0,0,0,0.001-0.001
				C57.273-15.883,57.271-15.881,57.27-15.879 M57.322-15.946l0.005-0.006l0-0.001C57.326-15.951,57.324-15.948,57.322-15.946
				 M57.328-15.953L57.328-15.953l0.011-0.015c0.014-0.018,0.028-0.036,0.041-0.055C57.363-15.999,57.346-15.976,57.328-15.953"/>
		</g>
		<g id="g9154" transform="matrix(1.25,0,0,-1.25,401.83423,786.88618)">
			<path id="path9156" fill="#DEEBB8" d="M40.796-10.577c-0.003,0-0.006,0-0.009,0C40.79-10.577,40.793-10.577,40.796-10.577"/>
		</g>
		<g id="g9158" transform="matrix(1.25,0,0,-1.25,409.96973,778.78456)">
			<path id="path9160" fill="#DAE8A8" d="M35.375-15.976l-0.006-0.003c0,0,0,0,0.001,0.001
				C35.371-15.977,35.373-15.976,35.375-15.976 M35.327-15.995c-0.146-0.063-0.282-0.147-0.402-0.252
				c0.012,0.01,0.024,0.019,0.036,0.029c0.019,0.015,0.038,0.031,0.058,0.046c0.015,0.011,0.03,0.02,0.045,0.031
				c0.019,0.013,0.038,0.027,0.058,0.039c0.015,0.009,0.031,0.018,0.047,0.027c0.021,0.012,0.041,0.024,0.062,0.035
				c0.014,0.007,0.028,0.013,0.043,0.02c0.014,0.006,0.028,0.013,0.041,0.019C35.319-15.999,35.323-15.997,35.327-15.995
				 M34.925-16.247c-0.002-0.002-0.005-0.004-0.007-0.006l0.004,0.003L34.925-16.247 M34.911-16.258
				c-0.159-0.14-0.288-0.306-0.41-0.479l0.003,0.004c0.024,0.034,0.048,0.067,0.073,0.101c0.004,0.006,0.008,0.011,0.013,0.017
				c0.022,0.029,0.044,0.058,0.066,0.086c0.007,0.008,0.014,0.016,0.02,0.024c0.021,0.025,0.041,0.05,0.063,0.075
				c0.009,0.01,0.018,0.02,0.027,0.029c0.02,0.022,0.04,0.044,0.061,0.065c0.011,0.011,0.023,0.021,0.035,0.032
				C34.878-16.29,34.894-16.273,34.911-16.258 M34.457-16.8c-0.001-0.001-0.001-0.002-0.002-0.003
				C34.456-16.802,34.457-16.801,34.457-16.8 M34.455-16.803c-0.03-0.043-0.059-0.086-0.089-0.129
				C34.396-16.889,34.426-16.846,34.455-16.803 M34.687-17.18C34.688-17.18,34.688-17.18,34.687-17.18
				C34.688-17.18,34.688-17.18,34.687-17.18 M34.687-17.181c-0.057-0.011-0.112-0.027-0.165-0.046c0.001,0,0.002,0,0.002,0.001
				C34.576-17.207,34.63-17.192,34.687-17.181"/>
		</g>
		<g id="g9162" transform="matrix(1.25,0,0,-1.25,404.83885,792.86956)">
			<path id="path9164" fill="#DAE8A8" d="M38.794-6.589c0.002-0.001,0.005-0.003,0.008-0.004c0.011-0.006,0.022-0.012,0.034-0.017
				c-0.011,0.005-0.022,0.011-0.033,0.017l-0.001,0l-0.001,0C38.799-6.592,38.796-6.591,38.794-6.589"/>
		</g>
		<g id="g9166" transform="matrix(1.25,0,0,-1.25,405.72723,793.31106)">
			<path id="path9168" fill="#F0F2C1" d="M38.202-6.295c0.005-0.003,0.01-0.005,0.015-0.007C38.212-6.3,38.207-6.298,38.202-6.295"
				/>
		</g>
		<g id="g9170" transform="matrix(1.25,0,0,-1.25,417.44648,788.71956)">
			<path id="path9172" fill="#DFE89F" d="M30.392-9.355L30.392-9.355L30.392-9.355 M29.04-9.777L29.04-9.777
				c-0.001,0-0.001,0-0.001-0.001C29.039-9.778,29.04-9.778,29.04-9.777 M29.038-9.779C29.038-9.779,29.038-9.779,29.038-9.779
				C29.038-9.779,29.038-9.779,29.038-9.779 M28.983-9.826c-0.01-0.009-0.019-0.018-0.029-0.027
				C28.964-9.844,28.973-9.835,28.983-9.826 M28.949-9.859c-0.036-0.036-0.072-0.075-0.108-0.117l-0.007,0.004c0,0,0,0,0,0
				c-0.014,0.007-0.028,0.013-0.042,0.02l-0.001,0c0.013-0.006,0.025-0.012,0.036-0.017c0.005-0.003,0.01-0.005,0.015-0.007
				C28.877-9.934,28.913-9.895,28.949-9.859 M28.749-9.931c0.014-0.007,0.027-0.014,0.04-0.02l0,0
				C28.776-9.944,28.763-9.938,28.749-9.931"/>
		</g>
		<g id="g9174" transform="matrix(1.25,0,0,-1.25,403.58223,788.14956)">
			<path id="path9176" fill="#F0F2C1" d="M39.631-9.735c-0.007-0.002-0.014-0.004-0.021-0.006c0.006,0.002,0.012,0.003,0.019,0.005
				C39.629-9.736,39.63-9.735,39.631-9.735 M39.213-9.971l0.008-0.005C39.218-9.974,39.215-9.972,39.213-9.971"/>
		</g>
		<g id="g9178" transform="matrix(1.25,0,0,-1.25,404.55536,792.71893)">
			<path id="path9180" fill="#DFE89F" d="M38.983-6.69c0.013-0.007,0.025-0.014,0.038-0.02c-0.002,0.001-0.004,0.002-0.006,0.003
				C39.005-6.702,38.994-6.696,38.983-6.69L38.983-6.69"/>
		</g>
		<g id="g9182" transform="matrix(1.25,0,0,-1.25,403.60086,788.14456)">
			<path id="path9184" fill="#D0E4A0" d="M39.619-9.738c-0.001,0-0.002,0-0.002-0.001c-0.001,0-0.002-0.001-0.003-0.001
				c0.001,0,0.002,0,0.002,0.001C39.617-9.739,39.618-9.739,39.619-9.738 M39.198-9.975L39.198-9.975 M39.779-10.367
				c0.002-0.001,0.003-0.002,0.005-0.003c0.002-0.001,0.005-0.003,0.007-0.004l-0.001,0C39.787-10.37,39.783-10.369,39.779-10.367
				 M39.792-10.374c0.011-0.006,0.023-0.012,0.033-0.017c0.013-0.007,0.026-0.013,0.04-0.02l-0.003,0.001
				C39.841-10.398,39.818-10.387,39.792-10.374L39.792-10.374 M39.868-10.412c0.014-0.007,0.028-0.014,0.042-0.02h0h0l0,0l-0.001,0
				c-0.011,0.005-0.023,0.011-0.036,0.017L39.868-10.412"/>
		</g>
		<g id="g9186" transform="matrix(1.25,0,0,-1.25,417.54461,788.92193)">
			<path id="path9188" fill="#F0F2C1" d="M30.327-9.22l-0.001-0.001c-0.023-0.009-0.045-0.018-0.066-0.028
				c0.002,0.001,0.004,0.002,0.006,0.003c0.019,0.009,0.039,0.017,0.06,0.026L30.327-9.22 M30.256-9.251L30.256-9.251 M30.248-9.255
				L30.248-9.255L30.248-9.255 M30.245-9.256L30.245-9.256L30.245-9.256 M30.244-9.257C30.243-9.257,30.243-9.257,30.244-9.257
				C30.243-9.257,30.243-9.257,30.244-9.257 M30.242-9.257L30.242-9.257L30.242-9.257 M30.24-9.259
				C30.24-9.259,30.24-9.259,30.24-9.259L30.24-9.259 M30.238-9.259C30.238-9.26,30.238-9.26,30.238-9.259
				C30.238-9.26,30.238-9.26,30.238-9.259 M30.236-9.26C30.236-9.26,30.236-9.26,30.236-9.26C30.236-9.26,30.236-9.26,30.236-9.26
				 M30.235-9.261c0,0-0.001,0-0.001-0.001C30.234-9.261,30.234-9.261,30.235-9.261 M30.233-9.262
				c-0.311-0.156-0.48-0.43-0.669-0.704v0c0.179,0.258,0.339,0.516,0.617,0.675C30.198-9.28,30.215-9.271,30.233-9.262
				 M25.329-9.732L25.329-9.732L25.329-9.732L25.329-9.732C25.329-9.732,25.329-9.732,25.329-9.732 M26.93-9.933
				c-0.003-0.001-0.005-0.001-0.008-0.002c0,0,0,0-0.001,0C26.924-9.935,26.927-9.934,26.93-9.933"/>
		</g>
		<g id="g9190" transform="matrix(1.25,0,0,-1.25,417.56523,788.91381)">
			<path id="path9192" fill="#DFE89F" d="M30.313-9.226L30.31-9.227l-0.002-0.001L30.313-9.226 M30.309-9.228
				c-0.021-0.008-0.041-0.016-0.06-0.025c0.016,0.007,0.032,0.014,0.049,0.021L30.309-9.228 M30.165-9.296
				c-0.278-0.16-0.438-0.418-0.617-0.675c0.099,0.143,0.193,0.287,0.305,0.413C29.941-9.457,30.041-9.367,30.165-9.296
				 M27.551-9.671c-0.004-0.002-0.013-0.007-0.026-0.014c0.01,0.006,0.018,0.01,0.022,0.012c0.001,0,0.001,0.001,0.002,0.001
				L27.551-9.671 M27.451-9.724c-0.039-0.02-0.085-0.043-0.134-0.066C27.367-9.767,27.413-9.744,27.451-9.724 M27.317-9.79
				C27.317-9.791,27.317-9.791,27.317-9.79C27.317-9.791,27.317-9.791,27.317-9.79 M27.316-9.791L27.316-9.791L27.316-9.791
				 M29.518-10.014L29.518-10.014"/>
		</g>
		<g id="g9194" transform="matrix(1.25,0,0,-1.25,392.1611,794.24956)">
			<path id="path9196" fill="#E3EAA9" d="M47.242-5.67c-0.002,0-0.004-0.001-0.006-0.002c-0.003-0.001-0.006-0.001-0.009-0.002
				c-0.001,0-0.001,0-0.002-0.001C47.231-5.673,47.237-5.671,47.242-5.67"/>
		</g>
		<g id="g9198" transform="matrix(1.25,0,0,-1.25,396.91048,792.23781)">
			<path id="path9200" fill="#D3E29C" d="M44.077-7.011c0.008-0.011,0.016-0.022,0.025-0.032
				C44.093-7.032,44.085-7.021,44.077-7.011 M44.073-7.013c-0.001,0-0.001-0.001-0.002-0.001
				C44.072-7.013,44.072-7.013,44.073-7.013L44.073-7.013 M44.119-7.067c0.001-0.001,0.001-0.002,0.002-0.003
				c0.001-0.001,0.001-0.001,0.001-0.002C44.122-7.07,44.121-7.068,44.119-7.067"/>
		</g>
		<g id="g9202" transform="matrix(1.25,0,0,-1.25,413.88598,795.46781)">
			<path id="path9204" fill="#D8EAC0" d="M32.765-4.858l0.003-0.003L32.765-4.858 M31.193-5.039
				c0.011-0.002,0.021-0.005,0.032-0.007c-0.006,0.001-0.012,0.003-0.019,0.004C31.202-5.041,31.197-5.04,31.193-5.039"/>
		</g>
		<g id="g9206" transform="matrix(1.25,0,0,-1.25,402.51748,796.90806)">
			<path id="path9208" fill="#C2DD9D" d="M40.341-3.898c-0.151-0.123-0.333-0.222-0.568-0.26C40.008-4.12,40.19-4.021,40.341-3.898
				 M39.76-4.161C39.76-4.161,39.76-4.161,39.76-4.161C39.76-4.161,39.76-4.161,39.76-4.161 M39.758-4.161
				c-0.063-0.009-0.13-0.014-0.201-0.014C39.628-4.175,39.695-4.17,39.758-4.161"/>
		</g>
		<g id="g9210" transform="matrix(1.25,0,0,-1.25,403.44523,800.47206)">
			<path id="path9212" fill="#C2DD9D" d="M39.722-1.523c-0.088-0.015-0.177-0.023-0.266-0.023
				C39.546-1.546,39.635-1.538,39.722-1.523"/>
		</g>
		<g id="g9214" transform="matrix(1.25,0,0,-1.25,409.77898,778.55193)">
			<path id="path9216" fill="#FFFFFF" d="M35.502-16.131L35.502-16.131L35.502-16.131L35.502-16.131z"/>
		</g>
		<g id="g9218" transform="matrix(1.25,0,0,-1.25,409.77423,778.54768)">
			<path id="path9220" fill="#F2C5B4" d="M35.505-16.133C35.505-16.133,35.505-16.134,35.505-16.133L35.505-16.133
				C35.505-16.134,35.505-16.133,35.505-16.133"/>
		</g>
		<g id="g9222" transform="matrix(1.25,0,0,-1.25,410.01873,778.76506)">
			<path id="path9224" fill="#FFFFFF" d="M35.342-15.989L35.342-15.989L35.342-15.989L35.342-15.989z"/>
		</g>
		<g id="g9226" transform="matrix(1.25,0,0,-1.25,410.01873,778.76506)">
			<path id="path9228" fill="#EBEDA8" d="M35.342-15.989L35.342-15.989 M35.342-15.989C35.342-15.989,35.342-15.989,35.342-15.989
				L35.342-15.989C35.343-15.989,35.343-15.989,35.342-15.989L35.342-15.989"/>
		</g>
		<g id="g9230" transform="matrix(1.25,0,0,-1.25,410.01873,778.76506)">
			<path id="path9232" fill="#DAE8A8" d="M35.342-15.989L35.342-15.989L35.342-15.989C35.342-15.989,35.342-15.989,35.342-15.989"/>
		</g>
		<g id="g9234" transform="matrix(1.25,0,0,-1.25,380.13961,792.75006)">
			<path id="path9236" fill="#F0F2C1" d="M55.253-6.669l0.001-0.002l0,0L55.253-6.669L55.253-6.669z"/>
		</g>
		<g id="g9238" transform="matrix(1.25,0,0,-1.25,380.14985,792.76593)">
			<path id="path9240" fill="#DFE89F" d="M55.247-6.659L55.247-6.659L55.247-6.659L55.247-6.659z"/>
		</g>
		<g id="g9242" transform="matrix(1.25,0,0,-1.25,409.77348,778.55043)">
			<path id="path9244" fill="#FDDDCF" d="M35.505-16.132L35.505-16.132 M33.706-16.669c-0.017-0.013-0.033-0.025-0.049-0.038
				C33.673-16.695,33.689-16.682,33.706-16.669L33.706-16.669"/>
		</g>
		<g id="g9246" transform="matrix(1.25,0,0,-1.25,396.30548,782.57356)">
			<path id="path9248" fill="#F9AA80" d="M44.48-13.451c-0.017-0.013-0.033-0.025-0.049-0.038
				C44.448-13.476,44.464-13.464,44.48-13.451"/>
		</g>
		<g id="g9250" transform="matrix(1.25,0,0,-1.25,395.93948,782.85781)">
			<path id="path9252" fill="#F1B6A1" d="M44.724-13.261c0,0-0.001,0-0.001-0.001C44.724-13.262,44.724-13.262,44.724-13.261
				 M44.722-13.263L44.722-13.263L44.722-13.263 M44.721-13.264L44.721-13.264L44.721-13.264"/>
		</g>
		<g id="g9254" transform="matrix(1.25,0,0,-1.25,396.30623,782.57306)">
			<path id="path9256" fill="#EF9E7D" d="M44.48-13.451C44.48-13.451,44.48-13.451,44.48-13.451
				c-0.017-0.013-0.033-0.025-0.049-0.038c-0.014-0.011-0.028-0.022-0.042-0.034c0.013,0.011,0.026,0.021,0.039,0.032l0,0
				c0,0,0.001,0,0.001,0.001c0,0,0,0,0,0c0,0,0.001,0,0.001,0.001c0,0,0.001,0,0.001,0.001
				C44.447-13.476,44.463-13.464,44.48-13.451L44.48-13.451 M44.362-13.547c-0.001,0-0.001-0.001-0.002-0.002c0,0,0,0-0.001,0
				C44.361-13.549,44.362-13.548,44.362-13.547"/>
		</g>
		<g id="g9258" transform="matrix(1.25,0,0,-1.25,391.2361,783.53568)">
			<path id="path9260" fill="#F9AA80" d="M47.859-12.81c0.01-0.006,0.02-0.012,0.03-0.018c-0.001,0.001-0.003,0.002-0.005,0.003
				C47.875-12.82,47.867-12.815,47.859-12.81"/>
		</g>
		<g id="g9262" transform="matrix(1.25,0,0,-1.25,391.07648,783.43518)">
			<path id="path9264" fill="#EF9E7D" d="M47.965-12.876c0.003-0.002,0.007-0.005,0.011-0.007c0.004-0.002,0.007-0.004,0.011-0.007
				c0.008-0.005,0.017-0.01,0.026-0.016c-0.001,0.001-0.003,0.002-0.004,0.003L48-12.898l-0.003,0.002
				c-0.006,0.003-0.011,0.007-0.017,0.01l-0.002,0.001l-0.001,0.001l0,0c-0.002,0.001-0.005,0.003-0.007,0.004
				C47.967-12.878,47.966-12.877,47.965-12.876"/>
		</g>
		<g id="g9266" transform="matrix(1.25,0,0,-1.25,391.04148,783.41268)">
			<path id="path9268" fill="#E59377" d="M47.988-12.891l0.005-0.003c0.001-0.001,0.002-0.001,0.003-0.002
				C47.994-12.895,47.991-12.893,47.988-12.891 M48.007-12.903c0.006-0.004,0.011-0.007,0.017-0.011l-0.01,0.006l-0.004,0.003
				L48.007-12.903"/>
		</g>
		<g id="g9270" transform="matrix(1.25,0,0,-1.25,391.96336,783.96043)">
			<path id="path9272" fill="#FDDDCF" d="M47.374-12.526c0.022-0.012,0.045-0.025,0.068-0.036l0.007-0.003
				c0.047-0.024,0.094-0.047,0.141-0.07l0,0c-0.037,0.017-0.073,0.035-0.109,0.054c-0.01,0.005-0.021,0.01-0.031,0.016l-0.007,0.003
				c-0.006,0.003-0.012,0.006-0.018,0.01C47.407-12.544,47.39-12.535,47.374-12.526"/>
		</g>
		<g id="g9274" transform="matrix(1.25,0,0,-1.25,391.69935,783.81131)">
			<path id="path9276" fill="#F9AA80" d="M47.55-12.626c0.012-0.007,0.023-0.014,0.035-0.02c0.016-0.009,0.033-0.018,0.049-0.026
				c-0.002,0.001-0.004,0.002-0.006,0.003c-0.019,0.01-0.039,0.021-0.059,0.032c-0.005,0.003-0.009,0.005-0.014,0.008L47.55-12.626
				 M47.691-12.702c0.036-0.018,0.073-0.036,0.109-0.054h0h0l-0.001,0c-0.006,0.003-0.012,0.006-0.018,0.009
				c-0.006,0.003-0.011,0.005-0.017,0.008c-0.002,0.001-0.005,0.002-0.007,0.003c-0.02,0.01-0.041,0.02-0.063,0.032
				C47.693-12.702,47.692-12.702,47.691-12.702"/>
		</g>
		<g id="g9278" transform="matrix(1.25,0,0,-1.25,391.8461,783.89281)">
			<path id="path9280" fill="#EF9E7D" d="M47.452-12.572c0.019-0.011,0.039-0.022,0.059-0.032c-0.002,0.001-0.005,0.003-0.007,0.004
				c-0.011,0.006-0.022,0.012-0.033,0.018C47.465-12.578,47.458-12.575,47.452-12.572 M47.576-12.638
				c0.022-0.011,0.043-0.022,0.063-0.032c-0.012,0.006-0.025,0.012-0.038,0.019c-0.007,0.004-0.014,0.007-0.021,0.011
				C47.579-12.639,47.578-12.638,47.576-12.638 M47.664-12.681c0.006-0.003,0.012-0.006,0.018-0.009l-0.001,0
				C47.675-12.687,47.67-12.684,47.664-12.681"/>
		</g>
		<g id="g9282" transform="matrix(1.25,0,0,-1.25,417.5676,788.91281)">
			<path id="path9284" fill="#C2D53C" d="M30.311-9.226L30.311-9.226l-0.005-0.002l-0.011-0.005
				c-0.016-0.007-0.033-0.013-0.049-0.021c-0.002-0.001-0.004-0.002-0.006-0.003l-0.002-0.001c-0.027-0.012-0.052-0.025-0.076-0.04
				c-0.123-0.071-0.223-0.161-0.312-0.262c-0.111-0.127-0.205-0.27-0.305-0.413c-0.01-0.014-0.02-0.028-0.03-0.043
				c0.014,0.001,0.028,0.002,0.043,0.002c0.087,0,0.191-0.02,0.261-0.089l0.01-0.003c0.08-0.03,0.17-0.058,0.252-0.101
				c0.058-0.03,0.114-0.062,0.168-0.093c0.223,0.093,0.429,0.159,0.6,0.188c-0.107,0.173-0.223,0.364-0.349,0.573
				C30.44-9.438,30.377-9.334,30.311-9.226"/>
		</g>
		<g id="g9286" transform="matrix(1.25,0,0,-1.25,380.6376,793.52443)">
			<path id="path9288" fill="#9BC946" d="M54.922-6.153c0.064-0.098,0.143-0.213,0.237-0.34c0.657-0.888,1.279-1.072,2.106-1.072
				h4.021c-0.001,0.001-0.002,0.002-0.004,0.002c-0.264,0.09-0.551,0.321-1.003,0.636c-0.143,0.1-0.301,0.21-0.485,0.317
				c-0.222-0.092-0.461-0.21-0.699-0.345c-0.305-0.173-0.743-0.256-1.229-0.256C56.842-7.211,55.6-6.84,54.922-6.153"/>
		</g>
		<g id="g9290" transform="matrix(1.25,0,0,-1.25,396.91048,792.23781)">
			<path id="path9292" fill="#ACCD3B" d="M44.077-7.011L44.077-7.011c0,0-0.002-0.001-0.004-0.002l-0.001,0c0,0-0.001,0-0.001-0.001
				c-0.028-0.015-0.152-0.083-0.279-0.14c-0.052-0.023-0.105-0.045-0.151-0.06c-0.009-0.004-0.02-0.008-0.032-0.012
				c-0.011-0.004-0.022-0.008-0.032-0.011c-0.016-0.006-0.03-0.01-0.032-0.011h0h0c0,0,0,0,0,0l-0.01-0.003l-0.008-0.002
				l-0.003-0.001c-0.033-0.01-0.065-0.02-0.098-0.029c-0.002,0-0.003-0.001-0.005-0.001l-0.001,0h0
				c-0.003-0.001-0.005-0.001-0.005-0.001h0l0,0c0,0,0,0,0,0l-0.002,0L43.41-7.288c-0.03-0.008-0.06-0.015-0.091-0.021L43.315-7.31
				c-0.007-0.001-0.014-0.003-0.021-0.004c-0.002,0-0.004-0.001-0.006-0.001l-0.001,0c-0.009-0.002-0.019-0.004-0.028-0.005
				c-0.012-0.002-0.023-0.004-0.035-0.006l-0.005-0.001c-0.113-0.018-0.228-0.028-0.343-0.028c-0.317,0-0.637,0.07-0.931,0.217
				c0.236-0.146,0.698-0.393,1.18-0.443c0.063-0.006,0.128-0.009,0.197-0.009c0.322,0,0.71,0.066,1.119,0.142
				c-0.121,0.105-0.219,0.242-0.32,0.378c-0.001,0.001-0.001,0.001-0.001,0.002c-0.001,0.001-0.001,0.002-0.002,0.003
				c-0.006,0.008-0.012,0.016-0.018,0.024C44.093-7.032,44.085-7.021,44.077-7.011"/>
		</g>
		<g id="g9294" transform="matrix(1.25,0,0,-1.25,405.44848,777.47031)">
			<path id="path9296" fill="#E14227" d="M38.388-16.851c-0.384,0-0.908-0.091-1.618-0.379c-0.124-0.05-0.238-0.093-0.344-0.128
				c0.045-0.101,0.081-0.211,0.108-0.329c0,0,0.018-0.011,0.037-0.021c0.006-0.003,0.013-0.007,0.019-0.011
				c0.011-0.006,0.022-0.012,0.033-0.018c0.002-0.001,0.005-0.002,0.007-0.004c0.022-0.012,0.044-0.023,0.066-0.034
				c0.001-0.001,0.003-0.001,0.004-0.002c0.007-0.003,0.014-0.007,0.021-0.011c0.013-0.006,0.026-0.013,0.038-0.019
				c0.008-0.004,0.016-0.008,0.024-0.012c0.006-0.003,0.012-0.006,0.017-0.008l0.001,0c0.012-0.006,0.024-0.011,0.035-0.016l0.008,0
				c0.068,0.078,0.135,0.151,0.203,0.213c0,0,0.001,0,0.001,0c0.001,0.001,0.001,0.001,0.002,0.001
				c0.009,0.008,0.018,0.016,0.027,0.024c0.014,0.012,0.028,0.024,0.042,0.034c0.016,0.013,0.032,0.025,0.048,0.038c0,0,0,0,0,0
				c0.164,0.134,0.342,0.252,0.528,0.35c0.268,0.145,0.563,0.249,0.87,0.249c0.04,0,0.079-0.002,0.119-0.005
				c0.091-0.008,0.183-0.026,0.276-0.055l0.005-0.001h0c-0.037,0.032-0.075,0.063-0.114,0.093
				C38.725-16.873,38.573-16.851,38.388-16.851"/>
		</g>
		<g id="g9298" transform="matrix(1.25,0,0,-1.25,409.92111,787.29918)">
			<path id="path9300" fill="#C2D53C" d="M35.407-10.301c-0.056,0-0.111-0.002-0.167-0.004c-0.064-0.135-0.123-0.273-0.183-0.41
				c-0.042-0.093-0.084-0.187-0.13-0.278c-0.009-0.018-0.05-0.115-0.07-0.115c0,0-0.001,0-0.002,0l0.007-0.004
				c0.036,0.042,0.072,0.081,0.108,0.117c0.002,0.002,0.004,0.003,0.005,0.005c0.01,0.009,0.019,0.018,0.029,0.027
				c0.018,0.017,0.036,0.033,0.055,0.047c0,0,0,0,0,0.001c0,0,0.001,0,0.001,0c0,0,0.001,0.001,0.001,0.001
				c0.001,0,0.001,0.001,0.002,0.001c0.01,0.008,0.02,0.016,0.03,0.023c0,0,0,0,0,0c0,0,0.001,0.001,0.001,0.001c0,0,0,0,0,0
				c0.001,0,0.001,0.001,0.001,0.001c0,0,0.001,0.001,0.001,0.001h0c0.212,0.162,0.469,0.33,0.749,0.402
				c0.001,0,0.002,0,0.003,0.001h0c0.006,0.001,0.011,0.003,0.016,0.004c0.009,0.002,0.019,0.004,0.028,0.006h0.001
				c0.002,0,0.004,0.001,0.007,0.002l0.001,0c0.012,0.002,0.024,0.005,0.036,0.007l0.006,0.001c0.003,0,0.007,0.001,0.01,0.002
				c0.01,0.001,0.02,0.003,0.03,0.004l0.004,0c0.005,0,0.01,0.001,0.014,0.002c0.009,0.001,0.018,0.002,0.027,0.003
				c0.005,0.001,0.011,0.001,0.016,0.001c0.01,0.001,0.02,0.001,0.03,0.002c0.005,0,0.011,0,0.017,0c0.001,0,0.003,0,0.005,0
				c0.008,0,0.017,0,0.025,0c0.007,0,0.013,0,0.02,0c0.001,0,0.003,0,0.004,0c0.008,0,0.015,0,0.023-0.001
				c0.008,0,0.016-0.001,0.024-0.002c0.008,0,0.015-0.001,0.023-0.002c0.009-0.001,0.019-0.002,0.028-0.003
				c0.007-0.001,0.013-0.001,0.019-0.002c0.011-0.002,0.022-0.003,0.032-0.006c0.005-0.001,0.01-0.002,0.015-0.003
				c0.013-0.002,0.025-0.005,0.038-0.008l0.01-0.002c0.015-0.004,0.03-0.008,0.045-0.013l0.003-0.001l0.006-0.002l0,0h0
				c-0.001,0.002-0.002,0.004-0.003,0.006C36.105-10.36,35.759-10.301,35.407-10.301"/>
		</g>
	</g>
</g>
</svg>
