<?xml version="1.0" encoding="utf-8"?>
<!-- Generator: Adobe Illustrator 16.2.1, SVG Export Plug-In . SVG Version: 6.00 Build 0)  -->
<!DOCTYPE svg PUBLIC "-//W3C//DTD SVG 1.1//EN" "http://www.w3.org/Graphics/SVG/1.1/DTD/svg11.dtd">
<svg version="1.1" id="svg2367" xmlns:svg="http://www.w3.org/2000/svg"
	 xmlns="http://www.w3.org/2000/svg" xmlns:xlink="http://www.w3.org/1999/xlink" x="0px" y="0px" width="50px" height="50px"
	 viewBox="-24.5 40.5 50 50" enable-background="new -24.5 40.5 50 50" xml:space="preserve">
<path fill="#E60012" d="M-13,79.662c0.483,0.267,0.873,0.884,0.952,1.529c0.129,1.091-0.672,2.114-1.785,2.246
	c-1.113,0.138-2.165-0.714-2.268-1.874c-0.1-1.099,0.586-2.211,1.774-2.811c1.781-0.902,4.151-0.659,5.943,0.002
	c4.001,1.467,7.342,5.257,8.59,7.163c-2.091-7.504-10.572-14.113-18.164-10.773c-2.59,1.139-4.278,3.743-4.08,6.526
	c0.224,3.146,2.706,5.826,6.476,5.864c1.76,0.02,3.42-0.783,4.287-1.93C-9.816,83.666-10.399,80.647-13,79.662"/>
<path fill="#E60012" d="M13.946,79.662c-0.483,0.267-0.873,0.884-0.95,1.529c-0.131,1.091,0.672,2.114,1.783,2.246
	c1.112,0.138,2.167-0.714,2.27-1.874c0.098-1.099-0.585-2.211-1.776-2.811c-1.78-0.902-4.149-0.659-5.942,0.002
	c-4.002,1.467-7.343,5.257-8.592,7.163c2.092-7.504,10.574-14.113,18.164-10.773c2.592,1.139,4.28,3.743,4.082,6.526
	c-0.226,3.146-2.708,5.826-6.478,5.864c-1.76,0.02-3.42-0.783-4.284-1.93C10.763,83.666,11.346,80.647,13.946,79.662"/>
<path fill="#E60012" d="M0.498,59.679c7.002,0,12.675-3.64,12.675-8.133c0-3.503-3.452-6.49-8.299-7.633
	c5.734,1.168,9.88,4.569,9.88,8.592c0,4.62-5.405,7.929-10.552,8.69c-2.521,0.374-3.065,0.454-3.704,1.14
	c-0.635-0.686-1.179-0.766-3.7-1.14c-5.151-0.762-10.552-4.07-10.552-8.69c0-4.022,4.146-7.424,9.876-8.592
	c-4.843,1.143-8.299,4.13-8.299,7.633C-12.177,56.039-6.502,59.679,0.498,59.679"/>
<path fill="#E60012" d="M0.497,64.873c1.302-1.202,3.019-1.351,4.528-1.675c7.05-1.498,11.676-5.199,11.676-9.883
	c0-1.889-0.801-3.659-2.197-5.18c-2.314-2.534-6.285-4.388-10.967-4.956c8.656,0.916,15.256,5.684,15.256,11.425
	c0,5.126-4.915,8.893-12.538,10.998c-3.305,0.916-4.9,1.527-5.759,2.979c-0.859-1.452-2.45-2.063-5.756-2.979
	c-7.626-2.105-12.542-5.872-12.542-10.998c0-5.741,6.6-10.509,15.259-11.425c-4.688,0.568-8.654,2.422-10.969,4.956
	c-1.395,1.521-2.196,3.291-2.196,5.18c0,4.684,4.625,8.385,11.675,9.883C-2.522,63.522-0.806,63.671,0.497,64.873"/>
<path fill="#E60012" d="M-24.5,58.257c0-8.281,10.067-15.079,22.89-15.757c-10.153,0.684-18.068,6.247-18.068,13.027
	c0.007,4.827,4.042,9.043,10.048,11.308c1.041,0.392,1.417,0.511,2.282,0.792c2.962,0.972,6.493,2.395,7.846,5.099"/>
<path fill="#E60012" d="M0.498,72.726c1.354-2.704,4.885-4.127,7.85-5.099c0.862-0.281,1.239-0.4,2.282-0.792
	c6.002-2.265,10.039-6.48,10.049-11.308c0-6.78-7.917-12.344-18.069-13.027c12.818,0.678,22.89,7.476,22.89,15.757
	c0,5.539-3.922,10.17-11.325,13.238c-2.98,1.236-11.752,3.812-13.677,12.904c-2.021-9.119-10.697-11.668-13.677-12.904
	C-20.582,68.427-24.5,63.796-24.5,58.257"/>
<path fill="#E60012" d="M-4.261,50.053c0-2.654,2.13-4.804,4.754-4.804c2.629,0,4.758,2.149,4.758,4.804
	c0,2.652-2.128,4.804-4.758,4.804C-2.131,54.856-4.261,52.705-4.261,50.053"/>
</svg>
