<?xml version="1.0" encoding="utf-8"?>
<!-- Generator: Adobe Illustrator 16.2.1, SVG Export Plug-In . SVG Version: 6.00 Build 0)  -->
<!DOCTYPE svg PUBLIC "-//W3C//DTD SVG 1.1//EN" "http://www.w3.org/Graphics/SVG/1.1/DTD/svg11.dtd">
<svg version="1.1"
	 id="Layer_1" sodipodi:docname="AJAX.svg" inkscape:version="0.48.1 " xmlns:dc="http://purl.org/dc/elements/1.1/" xmlns:cc="http://creativecommons.org/ns#" xmlns:rdf="http://www.w3.org/1999/02/22-rdf-syntax-ns#" xmlns:svg="http://www.w3.org/2000/svg" xmlns:sodipodi="http://sodipodi.sourceforge.net/DTD/sodipodi-0.dtd" xmlns:inkscape="http://www.inkscape.org/namespaces/inkscape"
	 xmlns="http://www.w3.org/2000/svg" xmlns:xlink="http://www.w3.org/1999/xlink" x="0px" y="0px" width="50px" height="50px"
	 viewBox="50.5 35.68 50 50" enable-background="new 50.5 35.68 50 50" xml:space="preserve">
<sodipodi:namedview  inkscape:window-maximized="1" inkscape:current-layer="Layer_1" inkscape:window-height="1004" inkscape:window-x="-8" fit-margin-bottom="0" inkscape:pageopacity="0" inkscape:pageshadow="2" inkscape:window-width="1280" inkscape:window-y="-8" fit-margin-right="0" pagecolor="#ffffff" borderopacity="1" bordercolor="#666666" inkscape:cy="-9.3213325" gridtolerance="10" fit-margin-top="0" objecttolerance="10" inkscape:zoom="3.6119457" inkscape:cx="103.45528" fit-margin-left="0" guidetolerance="10" showgrid="false" id="namedview69">
	</sodipodi:namedview>
<g id="_x23_e60012ff" transform="translate(-1.0000016,-1)">
	<path id="path4" inkscape:connector-curvature="0" fill="#E60012" d="M74.695,45.578c0.822-2.275,1.394-4.633,1.816-7.011
		c0.445,2.458,1.033,4.903,1.909,7.248c0.783,2.104,1.948,4.03,2.978,6.017c0.943,1.811,1.695,3.83,1.446,5.901
		c-0.153,1.897-1.298,3.662-2.967,4.574c-1.07,0.653-2.37,0.854-3.364,1.638c-0.475-0.407-1.066-0.631-1.64-0.854
		c-1.106-0.423-2.217-0.931-3.049-1.792c-1.276-1.248-1.796-3.1-1.671-4.852c0.116-2.067,1.098-3.939,2.061-5.727
		C73.122,49.048,74.049,47.372,74.695,45.578 M75.795,58.373c-0.877,0.35-1.36,1.421-1.033,2.309
		c0.29,0.908,1.349,1.463,2.262,1.177c0.992-0.255,1.603-1.421,1.242-2.383C77.951,58.49,76.74,57.944,75.795,58.373z"/>
	<path id="path6" inkscape:connector-curvature="0" fill="#E60012" d="M51.5,54.993c2.197-1.295,4.823-1.955,7.363-1.527
		c1.581,0.232,3.135,0.941,4.175,2.183c0.731,0.853,1.22,1.884,1.569,2.946c0.331,0.995,0.483,2.042,0.888,3.016
		c0.558,1.429,1.517,2.699,2.761,3.602c1.451,1.078,3.186,1.648,4.845,2.312c1.321,0.563,2.654,1.36,3.395,2.638
		c0.503-0.87,1.308-1.52,2.164-2.024c1.146-0.681,2.441-1.034,3.652-1.575c1.553-0.655,3.046-1.584,4.073-2.95
		c0.853-1.109,1.364-2.44,1.668-3.794c0.422-1.77,1.128-3.575,2.535-4.796c1.52-1.333,3.628-1.747,5.598-1.674
		c1.876,0.081,3.699,0.703,5.314,1.646c-0.848,0.092-1.689,0.396-2.335,0.965c-0.855,0.697-1.312,1.756-1.593,2.798
		c-0.401,1.568-0.823,3.147-1.549,4.602c-0.827,1.653-2.163,3.069-3.833,3.881c-2.47,1.222-5.299,1.437-8.015,1.317
		c-1.962-0.107-4.008,0.121-5.757,1.076c-0.728,0.392-1.383,0.917-1.916,1.551c-1.323-1.575-3.359-2.371-5.367-2.573
		c-1.344-0.167-2.695,0.014-4.043-0.026c-2.373-0.054-4.817-0.447-6.884-1.676c-1.282-0.756-2.314-1.893-3.038-3.186
		c-0.681-1.234-1.106-2.59-1.475-3.945c-0.286-1.121-0.555-2.3-1.286-3.229C53.715,55.642,52.624,55.101,51.5,54.993z"/>
	<path id="path8" inkscape:connector-curvature="0" fill="#E60012" d="M68.149,54.737c0.485-0.606,1.098-1.092,1.712-1.562
		c-1.193,1.331-2.133,3.047-2.011,4.885c0.065,1.526,0.849,2.96,2.004,3.939c1.355,1.192,3.079,1.825,4.763,2.396
		c0.667,0.239,1.367,0.48,1.886,0.988c0.747-0.711,1.794-0.926,2.73-1.286c1.9-0.66,3.836-1.615,5.004-3.319
		c0.892-1.307,1.161-3.021,0.701-4.535c-0.334-1.149-0.987-2.188-1.813-3.049c1.528,1.007,2.728,2.558,3.174,4.347
		c0.403,1.588-0.004,3.34-1.016,4.621c-1.429,1.83-3.623,2.806-5.744,3.596c-1.104,0.447-2.375,0.832-3.04,1.898
		c-0.588-0.953-1.688-1.359-2.673-1.756c-1.82-0.685-3.675-1.416-5.148-2.72c-1.103-0.951-1.934-2.273-2.089-3.738
		C66.365,57.734,67.075,56.033,68.149,54.737z"/>
	<path id="path10" inkscape:connector-curvature="0" fill="#E60012" d="M67.34,70.001c3.219-1.141,7.178-0.022,9.168,2.796
		c2.209-3.149,6.896-4.181,10.24-2.302c1.526,0.856,2.671,2.271,3.45,3.816c0.867,1.685,1.264,3.555,1.993,5.292
		c0.445,1.047,1.001,2.121,1.956,2.788c0.999,0.668,2.206,0.896,3.369,1.085c-2.562,1.186-5.482,1.555-8.269,1.154
		c-2.238-0.318-4.388-1.3-6.041-2.851c-1.364-1.264-2.331-2.895-3.009-4.612c-0.391-0.941-0.611-1.976-1.239-2.801
		c-0.438-0.61-1.127-1.022-1.871-1.137c0.016-0.051,0.043-0.151,0.059-0.203c1.573-1.103,3.556-1.6,5.465-1.362
		c0.534,0.083,1.112,0.267,1.433,0.736c0.272,0.382,0.181,0.993-0.242,1.23c-0.456,0.29-1.203,0.021-1.245-0.553
		c-0.04-0.305,0.195-0.526,0.397-0.712c-0.316,0.147-0.677,0.273-0.867,0.591c-0.433,0.624-0.235,1.53,0.338,1.995
		c0.925,0.781,2.44,0.611,3.234-0.279c0.642-0.683,0.715-1.803,0.209-2.584c-0.463-0.725-1.266-1.167-2.089-1.357
		c-1.208-0.271-2.481-0.119-3.645,0.271c-1.216,0.418-2.368,1.121-3.149,2.158c-0.172,0.072-0.367,0.003-0.547,0.019
		c-0.928-0.009-1.852,0.44-2.398,1.196c-0.628,0.83-0.845,1.868-1.24,2.812c-0.677,1.713-1.646,3.344-3.008,4.604
		c-1.71,1.605-3.955,2.593-6.275,2.879c-2.713,0.338-5.545-0.029-8.028-1.194c1.316-0.204,2.727-0.475,3.753-1.385
		c1.076-1.021,1.588-2.456,2.076-3.818c0.571-1.698,1.079-3.452,2.07-4.967C64.317,71.831,65.682,70.589,67.34,70.001 M68.627,70.92
		c-0.644,0.258-1.241,0.691-1.572,1.312c-0.425,0.789-0.294,1.854,0.344,2.491c0.715,0.747,1.933,0.944,2.847,0.461
		c0.712-0.355,1.132-1.266,0.792-2.02c-0.159-0.425-0.58-0.638-0.972-0.797c0.227,0.206,0.472,0.479,0.369,0.812
		c-0.132,0.55-0.882,0.733-1.304,0.4c-0.413-0.3-0.415-0.955-0.07-1.309c0.496-0.53,1.265-0.633,1.953-0.658
		c1.713-0.051,3.502,0.398,4.863,1.466c0.035-0.029,0.07-0.061,0.108-0.09c-0.327-0.222-0.563-0.539-0.873-0.778
		c-0.979-0.783-2.172-1.286-3.4-1.508C70.689,70.529,69.603,70.538,68.627,70.92z"/>
</g>
</svg>
