<?xml version="1.0" encoding="utf-8"?>
<!-- Generator: Adobe Illustrator 16.2.1, SVG Export Plug-In . SVG Version: 6.00 Build 0)  -->
<!DOCTYPE svg PUBLIC "-//W3C//DTD SVG 1.1//EN" "http://www.w3.org/Graphics/SVG/1.1/DTD/svg11.dtd">
<svg version="1.1" id="svg2367" xmlns:svg="http://www.w3.org/2000/svg"
	 xmlns="http://www.w3.org/2000/svg" xmlns:xlink="http://www.w3.org/1999/xlink" x="0px" y="0px" width="50px" height="50px"
	 viewBox="0 0 50 50" enable-background="new 0 0 50 50" xml:space="preserve">
<path id="path3" fill="#9D451A" d="M25,50c6.677,0,12.956-2.6,17.678-7.322C47.399,37.954,50,31.677,50,25
	c0-6.676-2.601-12.954-7.322-17.677C37.956,2.603,31.677,0,25,0C11.214,0,0,11.216,0,25c0,6.678,2.599,12.954,7.321,17.678
	C12.044,47.4,18.324,50,25,50L25,50z"/>
<path id="path5" fill="#F2E500" stroke="#F2E50E" stroke-width="0.95" d="M1.143,25c0-6.372,2.48-12.363,6.989-16.87
	C12.637,3.623,18.629,1.144,25,1.144c6.374,0,12.363,2.479,16.872,6.986c4.505,4.507,6.985,10.498,6.985,16.87
	c0,13.156-10.701,23.859-23.857,23.859c-6.371,0-12.363-2.482-16.869-6.989C3.623,37.365,1.143,31.372,1.143,25L1.143,25z"/>
<path id="path7" fill="#57B8A1" d="M37.402,13.62H25.309c-0.94,0-2.096,0.669-2.563,1.486l-5.308,9.297l1.377,2.201l1.501-2.63
	c0,0,0.924-2.168,3.68-2.168s8.877,0,8.877,0c0.942,0,2.095-0.667,2.56-1.488l4.478-7.842C39.91,12.479,38.347,13.62,37.402,13.62
	L37.402,13.62z"/>
<path id="path9" fill="#57B8A1" d="M22.578,33.691c1.055,0,13.174,0,13.174,0c0.942,0,2.097-0.682,2.561-1.499l5.919-10.386
	c0,0-1.565,1.141-2.51,1.141H26.133c-0.942,0-2.096,0.67-2.565,1.489c0,0-4.515,7.836-5.179,8.999
	c-0.661,1.161-2.008,1.481-2.531,1.479c-2.108-0.017-4.141-1.299-4.141-3.798c0-3.784,5.806-2.646,5.806-2.646l-3.045-4.853
	c0,0-6.567,0.181-6.567,7.329c0,7.233,7.379,7.995,7.379,7.995h25.426l2.334-4.092c0,0-20.14,0-21.132,0
	C21.212,34.846,21.045,33.691,22.578,33.691L22.578,33.691z"/>
</svg>
