<?xml version="1.0" encoding="utf-8"?>
<!-- Generator: Adobe Illustrator 16.2.1, SVG Export Plug-In . SVG Version: 6.00 Build 0)  -->
<!DOCTYPE svg PUBLIC "-//W3C//DTD SVG 1.1//EN" "http://www.w3.org/Graphics/SVG/1.1/DTD/svg11.dtd">
<svg version="1.1" id="Ebene_1" xmlns="http://www.w3.org/2000/svg" xmlns:xlink="http://www.w3.org/1999/xlink" x="0px" y="0px"
	 width="50px" height="50px" viewBox="275.5 128.857 50 50" enable-background="new 275.5 128.857 50 50" xml:space="preserve">
<g id="I8tGob.tif">
	<g>
		<path fill-rule="evenodd" clip-rule="evenodd" fill="#214683" d="M275.521,128.865l48.708-0.008l-1.098,0.313
			c-10.257,2.89-16.688,9.46-19.273,19.853c-0.755-1.859-2.074-2.796-3.878-3.2c-2.349-0.524-4.492,0.784-5.014,3.114
			c-0.119,0.534,0.016,0.696,0.546,0.746c1.51,0.144,1.891,1.028,1.784,2.474c-0.331,4.486,0.052,8.9,1.909,13.07
			c3.085,6.918,8.695,10.771,15.751,12.822c1.006,0.292,2.029,0.525,3.042,0.786c-13.828,0-42.497,0.021-42.497,0.021
			L275.521,128.865z"/>
		<path fill-rule="evenodd" clip-rule="evenodd" fill="#EC1D25" d="M325.194,130.769c0,3.215,0.002,6.263-0.001,9.311
			c-0.011,12.427-0.011,38.479-0.011,38.479s-0.292,0.139-1.396-0.183c-10.806-3.152-17.325-10.237-19.572-21.241
			c-0.653-3.201-0.934-2.933,2.477-2.997c2.691-0.052,5.2,0.828,7.948,1.769C311.759,144.84,314.709,136.301,325.194,130.769z"/>
	</g>
</g>
</svg>
