<?xml version="1.0" encoding="utf-8"?>
<!-- Generator: Adobe Illustrator 16.2.1, SVG Export Plug-In . SVG Version: 6.00 Build 0)  -->
<!DOCTYPE svg PUBLIC "-//W3C//DTD SVG 1.1//EN" "http://www.w3.org/Graphics/SVG/1.1/DTD/svg11.dtd">
<svg version="1.1" id="svg2367" xmlns:svg="http://www.w3.org/2000/svg"
	 xmlns="http://www.w3.org/2000/svg" xmlns:xlink="http://www.w3.org/1999/xlink" x="0px" y="0px" width="50px" height="50px"
	 viewBox="0 0 50 50" enable-background="new 0 0 50 50" xml:space="preserve">
<path fill="#EC1C24" d="M49.066,31.96L24.979,7.737L0.926,31.924c-0.328-1.169-0.572-2.378-0.728-3.613L24.979,3.395L49.8,28.353
	C49.64,29.585,49.395,30.791,49.066,31.96"/>
<path fill="#EC1C24" d="M47.563,35.954L24.979,13.248L2.426,35.93c-0.423-0.894-0.796-1.816-1.118-2.771L24.976,9.362l23.708,23.828
	C48.363,34.134,47.99,35.058,47.563,35.954"/>
<path fill="#EC1C24" d="M45.562,39.403L24.979,18.706L4.419,39.379c-0.456-0.666-0.884-1.355-1.276-2.063l21.836-21.957
	l21.863,21.987C46.448,38.053,46.021,38.743,45.562,39.403"/>
<path fill="#EC1C24" d="M43.1,42.449L24.979,24.223L6.884,42.426c-0.468-0.492-0.918-1.008-1.342-1.542l19.434-19.557L44.45,40.907
	C44.021,41.436,43.57,41.951,43.1,42.449"/>
<path fill="#EC1C24" d="M40.293,44.999L24.979,29.597L9.684,44.974c-0.404-0.311-0.799-0.646-1.179-0.977l16.474-16.568
	l16.496,16.589l-0.197,0.171C40.955,44.471,40.627,44.734,40.293,44.999"/>
<path fill="#EC1C24" d="M36.983,47.19L24.979,35.114L12.99,47.169c-0.365-0.203-0.725-0.413-1.08-0.636l13.069-13.14l13.089,13.163
	C37.711,46.776,37.351,46.989,36.983,47.19"/>
<path fill="#EC1C24" d="M33.172,48.899l-8.193-8.243l-8.169,8.229c-0.331-0.12-0.66-0.237-0.984-0.372l9.15-9.212l9.18,9.23
	C33.828,48.656,33.5,48.779,33.172,48.899"/>
<path fill="#EC1C24" d="M28.745,50l-3.766-3.784l-3.753,3.772c-0.283-0.042-0.566-0.094-0.847-0.145l4.597-4.623l4.618,4.635
	C29.313,49.906,29.03,49.955,28.745,50"/>
<path fill="#EC1C24" d="M49.896,27.485L24.979,2.429L0.106,27.456C0.036,26.7,0,25.938,0,25.165c0-5.82,2.014-11.179,5.314-15.419
	C9.896,3.844,17.062,0,25.024,0C38.82,0,50,11.341,50,25.165C50,25.944,49.967,26.722,49.896,27.485"/>
</svg>
