<?xml version="1.0" encoding="utf-8"?>
<!-- Generator: Adobe Illustrator 16.2.1, SVG Export Plug-In . SVG Version: 6.00 Build 0)  -->
<!DOCTYPE svg PUBLIC "-//W3C//DTD SVG 1.1//EN" "http://www.w3.org/Graphics/SVG/1.1/DTD/svg11.dtd">
<svg version="1.1"
	 id="Ebene_1" sodipodi:docname="AJAX.svg" inkscape:version="0.48.1 " xmlns:dc="http://purl.org/dc/elements/1.1/" xmlns:cc="http://creativecommons.org/ns#" xmlns:rdf="http://www.w3.org/1999/02/22-rdf-syntax-ns#" xmlns:svg="http://www.w3.org/2000/svg" xmlns:sodipodi="http://sodipodi.sourceforge.net/DTD/sodipodi-0.dtd" xmlns:inkscape="http://www.inkscape.org/namespaces/inkscape"
	 xmlns="http://www.w3.org/2000/svg" xmlns:xlink="http://www.w3.org/1999/xlink" x="0px" y="0px" width="50px" height="50px"
	 viewBox="187.727 108.378 50 50" enable-background="new 187.727 108.378 50 50" xml:space="preserve">
<sodipodi:namedview  inkscape:window-maximized="1" inkscape:current-layer="Ebene_1" inkscape:window-height="1004" inkscape:window-x="-8" fit-margin-bottom="0" inkscape:pageopacity="0" inkscape:pageshadow="2" inkscape:window-width="1280" inkscape:window-y="-8" fit-margin-right="0" pagecolor="#ffffff" borderopacity="1" bordercolor="#666666" inkscape:cy="54.87781" gridtolerance="10" fit-margin-top="0" objecttolerance="10" inkscape:zoom="1.461032" inkscape:cx="272.79125" fit-margin-left="0" guidetolerance="10" showgrid="false" id="namedview95">
	</sodipodi:namedview>
<path id="path2416" inkscape:connector-curvature="0" fill="#1F2C51" d="M230.34,114.998l-0.018,0.109l-0.021,0.117l-0.023,0.124
	l-0.031,0.108l-0.039,0.093l-0.031,0.079l-0.023,0.023l-0.016,0.023l-0.023,0.007l-0.023,0.008l-0.016-0.008l-0.023-0.016
	l-0.016-0.023l-0.015-0.03l-0.032-0.087l-0.023-0.1l-0.015-0.117l-0.007-0.124l-0.01-0.117l0.01-0.116l0.014-0.101l0.023-0.102
	l0.031-0.086l0.031-0.068l0.031-0.063l0.039-0.046l0.023-0.017l0.023-0.007l0.016-0.008h0.023h0.016l0.022,0.015l0.017,0.017
	l0.016,0.016l0.031,0.054l0.021,0.062l0.018,0.087l0.006,0.086v0.1L230.34,114.998L230.34,114.998z"/>
<path id="path2418" inkscape:connector-curvature="0" fill="#1F2C51" d="M229.562,114.959l-0.008,0.108l-0.016,0.124l-0.023,0.117
	l-0.024,0.109l-0.03,0.101l-0.039,0.077l-0.017,0.023l-0.014,0.023l-0.023,0.016h-0.023l-0.017-0.007l-0.021-0.017l-0.018-0.022
	l-0.015-0.032l-0.038-0.077l-0.023-0.102l-0.023-0.116l-0.016-0.117l-0.008-0.124v-0.108l0.015-0.109l0.017-0.093l0.023-0.094
	l0.031-0.077l0.031-0.062l0.038-0.047l0.023-0.016l0.015-0.007l0.023-0.01h0.016h0.025l0.014,0.01l0.023,0.014l0.016,0.023
	l0.032,0.047l0.022,0.07l0.016,0.077l0.016,0.086v0.102V114.959L229.562,114.959L229.562,114.959z"/>
<path id="path2420" inkscape:connector-curvature="0" fill="#1F2C51" d="M228.823,114.998v0.117l-0.007,0.117l-0.016,0.109
	l-0.015,0.108l-0.032,0.1l-0.031,0.079l-0.023,0.03l-0.016,0.023l-0.023,0.017l-0.029,0.015h-0.025l-0.023-0.008l-0.021-0.023
	l-0.018-0.03l-0.029-0.079l-0.032-0.101l-0.03-0.233l-0.017-0.209v-0.086l0.009-0.093l0.015-0.094l0.017-0.085l0.021-0.07
	l0.032-0.061l0.023-0.025l0.015-0.015l0.025-0.009l0.021-0.007h0.023l0.023,0.007l0.023,0.017l0.023,0.016l0.032,0.047l0.03,0.062
	l0.023,0.077l0.016,0.086l0.015,0.102V114.998L228.823,114.998z"/>
<path id="path2422" inkscape:connector-curvature="0" fill="#1F2C51" d="M228.054,115.061l0.009,0.107l0.015,0.109v0.101v0.102
	v0.056l-0.007,0.037l-0.017,0.047l-0.014,0.032l-0.017,0.037L228,115.713l-0.03,0.023l-0.032,0.022l-0.038,0.008l-0.032-0.008
	l-0.029-0.007l-0.023-0.023l-0.016-0.03l-0.023-0.04l-0.016-0.046l-0.016-0.047l-0.039-0.218l-0.03-0.218l-0.016-0.093l-0.008-0.086
	v-0.094l0.008-0.078l0.016-0.069l0.03-0.054l0.016-0.023l0.023-0.024l0.024-0.007l0.03-0.007h0.023h0.031l0.022,0.014l0.023,0.008
	l0.038,0.047l0.032,0.056l0.03,0.07l0.025,0.084l0.015,0.086L228.054,115.061L228.054,115.061z"/>
<path id="path2424" inkscape:connector-curvature="0" fill="#1F2C51" d="M227.24,115.192l0.014,0.103l0.008,0.107l0.009,0.108
	l-0.009,0.103v0.046l-0.008,0.047l-0.014,0.038l-0.017,0.04l-0.015,0.03l-0.023,0.032l-0.031,0.023l-0.031,0.015l-0.039,0.009
	h-0.031l-0.023-0.017l-0.023-0.023l-0.023-0.03l-0.023-0.039l-0.016-0.04l-0.007-0.054l-0.047-0.218l-0.032-0.21l-0.006-0.094
	l-0.01-0.092v-0.086l0.01-0.086l0.014-0.07l0.024-0.054l0.023-0.023l0.015-0.015l0.023-0.017l0.031-0.007h0.023l0.031,0.007
	l0.023,0.008l0.023,0.016l0.039,0.04l0.039,0.054l0.024,0.07l0.022,0.084l0.015,0.096L227.24,115.192L227.24,115.192z"/>
<path id="path2426" inkscape:connector-curvature="0" fill="#1F2C51" d="M226.516,115.341l0.018,0.108l0.015,0.107l0.009,0.102
	l0.006,0.101l-0.006,0.047v0.047l-0.018,0.047l-0.006,0.03l-0.025,0.038L226.494,116l-0.031,0.023l-0.032,0.015l-0.038,0.017h-0.031
	l-0.024-0.017l-0.03-0.023l-0.023-0.023l-0.016-0.038l-0.016-0.047l-0.023-0.046l-0.047-0.218l-0.047-0.21l-0.015-0.092
	l-0.007-0.096l-0.008-0.085v-0.077l0.015-0.069l0.023-0.062l0.023-0.023l0.015-0.015l0.023-0.016l0.031-0.009h0.024h0.03
	l0.023,0.009l0.023,0.016l0.039,0.038l0.039,0.055l0.031,0.07l0.031,0.077l0.023,0.094L226.516,115.341L226.516,115.341
	L226.516,115.341z"/>
<path id="path2428" inkscape:connector-curvature="0" fill="#1F2C51" d="M225.849,115.566l0.015,0.109l0.016,0.108l0.008,0.1
	l0.009,0.102l-0.009,0.047v0.046l-0.015,0.04l-0.009,0.038l-0.023,0.039l-0.015,0.031l-0.032,0.023l-0.029,0.015l-0.039,0.017
	l-0.031-0.009l-0.023-0.008l-0.031-0.022l-0.023-0.032l-0.016-0.031l-0.023-0.047l-0.016-0.046l-0.047-0.218l-0.046-0.209
	l-0.017-0.094l-0.007-0.093l-0.009-0.086v-0.085l0.016-0.07l0.025-0.054l0.023-0.023l0.014-0.017l0.023-0.016l0.031-0.007h0.023
	h0.031l0.023,0.007l0.023,0.016l0.039,0.04l0.039,0.054l0.031,0.062l0.031,0.086l0.015,0.094L225.849,115.566L225.849,115.566
	L225.849,115.566z"/>
<path id="path2430" inkscape:connector-curvature="0" fill="#1F2C51" d="M225.149,115.791l0.032,0.101l0.023,0.101l0.023,0.103
	l0.014,0.101l0.01,0.046v0.047l-0.01,0.047l-0.008,0.038l-0.006,0.032l-0.023,0.04l-0.023,0.021l-0.032,0.023l-0.03,0.016
	l-0.031,0.008l-0.031-0.008l-0.023-0.023l-0.031-0.023l-0.023-0.03l-0.023-0.039l-0.023-0.047l-0.079-0.211l-0.061-0.201
	l-0.032-0.086l-0.023-0.092l-0.015-0.086l-0.009-0.077l0.009-0.079l0.015-0.061l0.018-0.023l0.014-0.017l0.023-0.023l0.024-0.008
	l0.023-0.007h0.03l0.023,0.007l0.023,0.008l0.047,0.032l0.046,0.045l0.04,0.062l0.039,0.077l0.029,0.086L225.149,115.791
	L225.149,115.791L225.149,115.791z"/>
<path id="path2432" inkscape:connector-curvature="0" fill="#1F2C51" d="M224.42,116.071l0.039,0.092l0.029,0.102l0.032,0.102
	l0.03,0.101l0.008,0.086v0.085l-0.008,0.039l-0.014,0.03l-0.025,0.031l-0.023,0.032l-0.029,0.015l-0.032,0.007h-0.023l-0.03-0.014
	l-0.023-0.023l-0.031-0.031l-0.024-0.04l-0.023-0.037l-0.093-0.201l-0.078-0.188l-0.039-0.086l-0.029-0.086L224.008,116
	l-0.009-0.077l-0.009-0.077l0.018-0.062l0.006-0.023l0.018-0.023l0.014-0.017l0.024-0.015l0.023-0.016h0.023h0.03l0.023,0.009
	l0.047,0.021l0.039,0.047l0.045,0.056l0.04,0.077l0.039,0.078L224.42,116.071L224.42,116.071L224.42,116.071z"/>
<path id="path2434" inkscape:connector-curvature="0" fill="#1F2C51" d="M223.728,116.366l0.07,0.194l0.056,0.187l0.015,0.085v0.086
	l-0.009,0.039l-0.015,0.03l-0.015,0.031l-0.025,0.032l-0.021,0.015l-0.032,0.007h-0.023l-0.022-0.015l-0.031-0.023l-0.023-0.023
	l-0.023-0.039l-0.023-0.038l-0.086-0.187l-0.078-0.187l-0.037-0.085l-0.032-0.077l-0.023-0.086l-0.009-0.078l-0.008-0.071
	l0.008-0.054l0.009-0.031l0.015-0.022l0.016-0.015l0.023-0.017l0.016-0.007l0.023-0.009h0.023l0.024,0.009l0.046,0.023l0.038,0.037
	l0.038,0.055l0.041,0.07l0.038,0.079L223.728,116.366L223.728,116.366L223.728,116.366z"/>
<path id="path2436" inkscape:connector-curvature="0" fill="#1F2C51" d="M223.035,116.778l0.11,0.17l0.094,0.171l0.03,0.086
	l0.007,0.077l0.009,0.04l-0.009,0.03l-0.015,0.04l-0.016,0.03l-0.023,0.023l-0.023,0.015h-0.023l-0.021-0.008l-0.032-0.014
	l-0.032-0.017l-0.031-0.03l-0.031-0.032l-0.123-0.171l-0.117-0.162l-0.046-0.07l-0.047-0.069l-0.038-0.079l-0.032-0.07l-0.015-0.068
	l-0.008-0.062l0.008-0.023l0.006-0.023l0.009-0.023l0.023-0.023l0.015-0.015l0.025-0.009l0.021-0.008h0.023l0.047,0.017l0.047,0.03
	l0.055,0.047l0.047,0.054l0.053,0.07L223.035,116.778L223.035,116.778z"/>
<path id="path2438" inkscape:connector-curvature="0" fill="#1F2C51" d="M222.43,117.205l0.109,0.171l0.095,0.171l0.03,0.087
	l0.016,0.076v0.04l-0.009,0.037l-0.007,0.031l-0.017,0.032l-0.023,0.021l-0.022,0.017h-0.023h-0.031l-0.03-0.017l-0.023-0.021
	l-0.032-0.032l-0.031-0.031l-0.125-0.171l-0.115-0.155l-0.054-0.077l-0.04-0.07l-0.039-0.078l-0.031-0.069l-0.016-0.07l-0.008-0.054
	l0.008-0.031v-0.023l0.016-0.022l0.016-0.023l0.023-0.017l0.016-0.007h0.023h0.023l0.046,0.007l0.056,0.03l0.047,0.049l0.053,0.054
	l0.055,0.07L222.43,117.205L222.43,117.205L222.43,117.205z"/>
<path id="path2440" inkscape:connector-curvature="0" fill="#1F2C51" d="M221.848,117.687l0.117,0.163l0.101,0.162l0.038,0.086
	l0.023,0.077v0.04v0.03l-0.015,0.039l-0.017,0.031l-0.014,0.022l-0.023,0.017l-0.025,0.008l-0.029-0.008l-0.032-0.007l-0.03-0.025
	l-0.031-0.023l-0.032-0.03l-0.132-0.163l-0.125-0.147l-0.054-0.07l-0.054-0.07l-0.039-0.068l-0.039-0.07l-0.014-0.07l-0.018-0.062
	l0.009-0.022V117.5l0.015-0.023l0.016-0.023l0.016-0.014l0.024-0.017h0.022l0.024-0.007l0.046,0.014l0.045,0.024l0.055,0.047
	l0.056,0.046l0.062,0.07L221.848,117.687L221.848,117.687L221.848,117.687z"/>
<path id="path2442" inkscape:connector-curvature="0" fill="#1F2C51" d="M221.326,118.113l0.133,0.148l0.117,0.155l0.038,0.077
	l0.032,0.079l0.006,0.037v0.031l-0.006,0.04l-0.018,0.03l-0.014,0.03l-0.024,0.017l-0.023,0.009h-0.03l-0.031-0.009l-0.031-0.023
	l-0.031-0.023l-0.039-0.023l-0.146-0.141l-0.141-0.146l-0.055-0.063l-0.054-0.061l-0.054-0.062l-0.04-0.07l-0.022-0.062
	l-0.016-0.062v-0.023v-0.03l0.006-0.023l0.018-0.023l0.015-0.017l0.023-0.016l0.017-0.007h0.023l0.054,0.007l0.046,0.016l0.062,0.04
	l0.062,0.047l0.062,0.061L221.326,118.113L221.326,118.113z"/>
<path id="path2444" inkscape:connector-curvature="0" fill="#1F2C51" d="M220.798,118.61l0.126,0.141l0.117,0.147l0.047,0.077
	l0.021,0.07l0.008,0.039v0.031l-0.008,0.032l-0.007,0.037l-0.015,0.023l-0.025,0.017l-0.021,0.008h-0.023l-0.032-0.008l-0.03-0.017
	l-0.04-0.023l-0.032-0.023l-0.146-0.131l-0.131-0.141l-0.056-0.054l-0.054-0.062l-0.046-0.062l-0.04-0.062l-0.03-0.062l-0.017-0.055
	v-0.03l0.008-0.023l0.009-0.023l0.007-0.023l0.017-0.016l0.023-0.008l0.015-0.016h0.023l0.047,0.009l0.055,0.015l0.054,0.03
	l0.056,0.049l0.061,0.054L220.798,118.61L220.798,118.61L220.798,118.61z"/>
<path id="path2446" inkscape:connector-curvature="0" fill="#1F2C51" d="M220.225,119.169l0.146,0.124l0.133,0.141l0.055,0.07
	l0.038,0.069l0.007,0.039l0.01,0.038v0.032l-0.01,0.038l-0.014,0.032l-0.023,0.021l-0.023,0.009h-0.025h-0.029l-0.039-0.016
	l-0.04-0.015l-0.038-0.023l-0.164-0.124l-0.155-0.117l-0.069-0.055l-0.062-0.055l-0.054-0.062l-0.047-0.062l-0.04-0.054
	l-0.022-0.062v-0.023v-0.031l0.007-0.022l0.007-0.023l0.018-0.023l0.015-0.017l0.023-0.007l0.015-0.008h0.056l0.054,0.015
	l0.062,0.023l0.062,0.04l0.07,0.046L220.225,119.169L220.225,119.169z"/>
<path id="path2448" inkscape:connector-curvature="0" fill="#1F2C51" d="M219.734,119.737l0.172,0.102l0.155,0.116l0.062,0.055
	l0.046,0.069l0.017,0.031l0.007,0.032l0.009,0.038l-0.009,0.039l-0.007,0.032l-0.017,0.021l-0.022,0.017l-0.023,0.007h-0.031
	l-0.04-0.007l-0.037-0.017l-0.048-0.015l-0.178-0.086l-0.172-0.094l-0.068-0.039l-0.079-0.047l-0.062-0.045l-0.055-0.056
	l-0.047-0.045l-0.029-0.056l-0.009-0.03v-0.023v-0.023l0.009-0.031l0.006-0.016l0.018-0.023l0.023-0.015l0.014-0.009l0.047-0.008
	h0.062l0.063,0.017l0.068,0.03l0.079,0.04L219.734,119.737L219.734,119.737L219.734,119.737z"/>
<path id="path2450" inkscape:connector-curvature="0" fill="#1F2C51" d="M219.33,120.382l0.164,0.101l0.154,0.108l0.062,0.062
	l0.047,0.062l0.016,0.032l0.016,0.038v0.031v0.04l-0.009,0.03l-0.015,0.023l-0.023,0.015l-0.031,0.009h-0.03l-0.04-0.009
	l-0.039-0.008l-0.038-0.016l-0.179-0.092l-0.17-0.095l-0.079-0.038l-0.069-0.047l-0.062-0.047l-0.062-0.047l-0.039-0.054
	l-0.029-0.056l-0.009-0.023l-0.007-0.03l0.007-0.023l0.009-0.023l0.006-0.021l0.016-0.017l0.017-0.016l0.023-0.015l0.046-0.009
	l0.055,0.009l0.07,0.015l0.069,0.022l0.077,0.04L219.33,120.382L219.33,120.382L219.33,120.382z"/>
<path id="path2452" inkscape:connector-curvature="0" fill="#1F2C51" d="M218.949,120.958l0.094,0.047l0.093,0.047l0.095,0.045
	l0.085,0.056l0.07,0.062l0.054,0.062l0.023,0.038l0.007,0.03l0.009,0.04l0.008,0.038l-0.008,0.04l-0.016,0.021l-0.023,0.017
	l-0.031,0.016h-0.031h-0.039l-0.046-0.016l-0.047-0.007l-0.202-0.078l-0.186-0.086l-0.086-0.039l-0.078-0.038l-0.077-0.047
	l-0.062-0.047l-0.055-0.054l-0.03-0.054l-0.018-0.023v-0.032v-0.031v-0.022l0.018-0.024l0.006-0.023l0.024-0.016l0.017-0.015
	l0.054-0.017h0.062l0.069,0.01l0.079,0.021l0.085,0.039L218.949,120.958L218.949,120.958z"/>
<path id="path2454" inkscape:connector-curvature="0" fill="#1F2C51" d="M218.64,121.702l0.171,0.096l0.156,0.107l0.061,0.055
	l0.048,0.062l0.014,0.03l0.009,0.03l0.008,0.04l-0.008,0.03l-0.009,0.032l-0.014,0.023l-0.024,0.015l-0.023,0.007h-0.031
	l-0.038-0.007l-0.04-0.008l-0.039-0.016l-0.186-0.085l-0.171-0.094l-0.071-0.039l-0.068-0.039l-0.072-0.047l-0.053-0.047
	l-0.046-0.054l-0.032-0.047l-0.008-0.03v-0.023v-0.024l0.008-0.023l0.009-0.022l0.015-0.015l0.023-0.017l0.018-0.007l0.045-0.009
	h0.062l0.062,0.016l0.07,0.031l0.077,0.032L218.64,121.702L218.64,121.702L218.64,121.702z"/>
<path id="path2456" inkscape:connector-curvature="0" fill="#1F2C51" d="M218.336,122.417l0.18,0.077l0.171,0.086l0.069,0.047
	l0.055,0.054l0.023,0.031l0.016,0.031l0.008,0.038v0.04v0.03l-0.017,0.025l-0.023,0.014l-0.022,0.017l-0.031,0.007l-0.039-0.007
	h-0.038l-0.04-0.009l-0.195-0.062l-0.186-0.062l-0.077-0.031l-0.079-0.031l-0.068-0.038l-0.062-0.039l-0.047-0.047l-0.038-0.047
	l-0.017-0.023l-0.008-0.023v-0.03l0.008-0.023l0.01-0.023l0.007-0.024l0.015-0.014l0.016-0.017l0.047-0.016h0.062h0.062l0.077,0.016
	l0.078,0.023L218.336,122.417L218.336,122.417z"/>
<path id="path2458" inkscape:connector-curvature="0" fill="#1F2C51" d="M218.041,123.234l0.194,0.046l0.194,0.062l0.077,0.039
	l0.071,0.047l0.023,0.023l0.023,0.032l0.015,0.03l0.007,0.038v0.03l-0.014,0.032l-0.017,0.017l-0.023,0.015l-0.03,0.016h-0.039
	h-0.047h-0.047l-0.208-0.03l-0.204-0.039l-0.086-0.017l-0.086-0.015l-0.076-0.032l-0.078-0.03l-0.053-0.038l-0.047-0.04
	l-0.018-0.022l-0.015-0.023v-0.023v-0.032v-0.023l0.015-0.023l0.009-0.015l0.023-0.016l0.047-0.024l0.054-0.014l0.07-0.01
	l0.086,0.01l0.085,0.014L218.041,123.234L218.041,123.234L218.041,123.234z"/>
<path id="path2460" inkscape:connector-curvature="0" fill="#1F2C51" d="M217.793,123.979l0.209,0.039l0.195,0.054l0.085,0.04
	l0.07,0.038l0.022,0.03l0.023,0.032l0.016,0.03l0.016,0.031v0.039l-0.008,0.023l-0.023,0.023l-0.023,0.015l-0.031,0.009
	l-0.038,0.008h-0.047h-0.047l-0.216-0.023l-0.203-0.024l-0.094-0.016l-0.086-0.015l-0.084-0.023l-0.078-0.03l-0.062-0.039
	l-0.047-0.04l-0.016-0.023l-0.015-0.023l-0.009-0.021v-0.023l0.009-0.025l0.007-0.023l0.017-0.023l0.015-0.014l0.047-0.023
	l0.061-0.017l0.072-0.007h0.077l0.093,0.007L217.793,123.979L217.793,123.979L217.793,123.979z"/>
<path id="path2462" inkscape:connector-curvature="0" fill="#1F2C51" d="M217.645,124.663l0.201,0.039l0.195,0.054l0.086,0.039
	l0.07,0.04l0.031,0.03l0.023,0.031l0.014,0.03l0.01,0.03v0.04l-0.01,0.023l-0.014,0.022l-0.03,0.017l-0.032,0.007l-0.039,0.008
	l-0.047,0.009l-0.046-0.009l-0.218-0.023l-0.201-0.021l-0.094-0.017l-0.086-0.016l-0.086-0.023l-0.07-0.03l-0.062-0.04l-0.053-0.038
	l-0.016-0.023l-0.008-0.023l-0.008-0.023v-0.023v-0.023l0.008-0.023l0.015-0.023l0.017-0.016l0.045-0.023l0.062-0.015l0.07-0.008
	h0.086l0.086,0.008L217.645,124.663L217.645,124.663L217.645,124.663z"/>
<path id="path2464" inkscape:connector-curvature="0" fill="#1F2C51" d="M217.475,125.431l0.209,0.023l0.194,0.04l0.086,0.03
	l0.077,0.047l0.023,0.022l0.023,0.023l0.023,0.031l0.008,0.04l0.009,0.03l-0.009,0.03l-0.016,0.025l-0.031,0.014l-0.029,0.017
	l-0.039,0.007h-0.04l-0.056,0.008l-0.217-0.015l-0.202-0.017h-0.093l-0.085-0.014l-0.086-0.017l-0.077-0.032l-0.062-0.023
	l-0.053-0.037l-0.018-0.023l-0.015-0.023l-0.009-0.023v-0.023v-0.031l0.009-0.023l0.015-0.016l0.018-0.015l0.038-0.032l0.061-0.023
	l0.07-0.007l0.086-0.007l0.085,0.007L217.475,125.431L217.475,125.431z"/>
<path id="path2466" inkscape:connector-curvature="0" fill="#1F2C51" d="M217.342,126.193l0.092,0.007l0.109,0.01l0.094,0.015
	l0.094,0.023l0.084,0.03l0.072,0.039l0.031,0.023l0.022,0.031l0.015,0.03l0.018,0.032v0.038v0.023l-0.018,0.023l-0.023,0.023
	l-0.031,0.007l-0.037,0.017l-0.049,0.009h-0.045h-0.21l-0.201-0.017h-0.087l-0.086-0.016l-0.086-0.017l-0.068-0.023l-0.062-0.03
	l-0.055-0.03l-0.016-0.024l-0.015-0.023l-0.009-0.022v-0.031v-0.023l0.009-0.022l0.009-0.024l0.014-0.016l0.048-0.031l0.054-0.023
	l0.068-0.016h0.079h0.094L217.342,126.193L217.342,126.193L217.342,126.193z"/>
<path id="path2468" inkscape:connector-curvature="0" fill="#1F2C51" d="M217.281,126.939l0.208,0.017l0.202,0.03l0.086,0.023
	l0.068,0.038l0.032,0.023l0.03,0.023l0.017,0.032l0.016,0.03l0.008,0.038l-0.008,0.023l-0.016,0.023l-0.023,0.023l-0.032,0.016
	l-0.037,0.008l-0.048,0.008l-0.047,0.008h-0.216h-0.21l-0.086-0.008l-0.094-0.008l-0.085-0.008l-0.078-0.023l-0.062-0.022
	l-0.055-0.04l-0.023-0.015l-0.006-0.023l-0.016-0.023v-0.023v-0.03l0.008-0.025l0.008-0.014l0.016-0.023l0.046-0.031l0.054-0.023
	l0.07-0.016l0.086-0.008h0.085H217.281L217.281,126.939L217.281,126.939z"/>
<path id="path2470" inkscape:connector-curvature="0" fill="#1F2C51" d="M217.249,127.777l0.208,0.017l0.203,0.03l0.086,0.031
	l0.076,0.039l0.023,0.023l0.032,0.022l0.016,0.032l0.015,0.031v0.039v0.023l-0.015,0.023l-0.03,0.023l-0.031,0.007l-0.039,0.015
	l-0.039,0.009h-0.047h-0.218l-0.208-0.009h-0.096l-0.086-0.007l-0.084-0.015l-0.078-0.023l-0.068-0.023l-0.047-0.04l-0.023-0.016
	l-0.016-0.023l-0.008-0.023v-0.03v-0.023l0.008-0.023l0.007-0.023l0.017-0.016l0.045-0.031l0.055-0.023l0.078-0.007l0.078-0.009
	h0.092H217.249L217.249,127.777L217.249,127.777z"/>
<path id="path2472" inkscape:connector-curvature="0" fill="#1F2C51" d="M217.226,128.532l0.202,0.008l0.193,0.023l0.079,0.023
	l0.069,0.038l0.031,0.023l0.021,0.024l0.023,0.03l0.009,0.03l0.009,0.039l-0.009,0.023l-0.015,0.023l-0.023,0.023l-0.023,0.017
	l-0.039,0.007l-0.04,0.008l-0.046,0.007l-0.209,0.009h-0.201h-0.086l-0.086-0.009l-0.078-0.015l-0.077-0.016l-0.062-0.031
	l-0.047-0.03l-0.023-0.017l-0.016-0.022l-0.008-0.023v-0.031v-0.023l0.008-0.023l0.007-0.023l0.017-0.016l0.039-0.031l0.055-0.022
	l0.068-0.017l0.078-0.007l0.085-0.009L217.226,128.532L217.226,128.532L217.226,128.532z"/>
<path id="path2474" inkscape:connector-curvature="0" fill="#1F2C51" d="M217.209,129.238l0.188,0.009l0.178,0.023l0.078,0.021
	l0.07,0.032l0.023,0.023l0.023,0.023l0.023,0.031l0.008,0.03l0.007,0.04l-0.007,0.023l-0.008,0.022l-0.023,0.023l-0.032,0.017
	l-0.03,0.007l-0.039,0.017l-0.047,0.007l-0.193,0.008h-0.188h-0.076l-0.078-0.008l-0.078-0.007l-0.07-0.017l-0.062-0.023
	l-0.047-0.037l-0.015-0.017l-0.015-0.023l-0.009-0.023l-0.007-0.022l0.007-0.031v-0.023l0.017-0.017l0.007-0.023l0.038-0.03
	l0.055-0.023l0.062-0.016l0.069-0.017h0.085H217.209L217.209,129.238L217.209,129.238z"/>
<path id="path2476" inkscape:connector-curvature="0" fill="#1F2C51" d="M217.195,129.969l0.186,0.007L217.56,130l0.077,0.023
	l0.07,0.038l0.023,0.017l0.023,0.03l0.016,0.032l0.015,0.03l0.009,0.031l-0.009,0.03l-0.015,0.023l-0.016,0.017l-0.031,0.016
	l-0.031,0.015l-0.038,0.009l-0.047,0.007l-0.194,0.008h-0.187l-0.077,0.009l-0.086-0.009l-0.071-0.008l-0.069-0.022l-0.062-0.024
	l-0.047-0.03l-0.015-0.023l-0.016-0.017l-0.008-0.022l-0.008-0.031v-0.023l0.008-0.022l0.008-0.024l0.016-0.016l0.039-0.031
	l0.055-0.03l0.062-0.016l0.069-0.008l0.076-0.007H217.195L217.195,129.969z"/>
<path id="path2478" inkscape:connector-curvature="0" fill="#1F2C51" d="M217.217,130.683l0.188,0.009l0.179,0.023l0.077,0.023
	l0.07,0.03l0.03,0.023l0.024,0.031l0.016,0.023l0.007,0.039l0.009,0.03v0.031l-0.016,0.023l-0.023,0.016l-0.031,0.015l-0.032,0.017
	l-0.038,0.007l-0.039,0.007l-0.193,0.009h-0.188h-0.086h-0.076l-0.079-0.016l-0.069-0.015l-0.062-0.023l-0.046-0.03l-0.015-0.025
	l-0.016-0.023l-0.008-0.023v-0.023v-0.023l0.008-0.021l0.007-0.023l0.009-0.017l0.038-0.039l0.054-0.023l0.063-0.015l0.069-0.007
	l0.085-0.009H217.217L217.217,130.683L217.217,130.683z"/>
<path id="path2480" inkscape:connector-curvature="0" fill="#1F2C51" d="M217.217,131.483l0.188,0.009l0.179,0.015l0.085,0.023
	l0.062,0.032l0.03,0.021l0.023,0.023l0.017,0.032l0.014,0.038l0.008,0.032l-0.008,0.03l-0.014,0.023l-0.017,0.016l-0.03,0.016
	l-0.031,0.016l-0.039,0.008l-0.047,0.008l-0.193,0.016h-0.188h-0.077h-0.085l-0.07-0.009l-0.07-0.015l-0.061-0.023l-0.049-0.031
	l-0.016-0.023l-0.015-0.023l-0.007-0.023l-0.008-0.023v-0.022l0.008-0.023l0.007-0.024l0.015-0.023l0.041-0.03l0.045-0.023
	l0.063-0.016l0.069-0.017l0.085-0.007H217.217L217.217,131.483L217.217,131.483z"/>
<path id="path2482" inkscape:connector-curvature="0" fill="#1F2C51" d="M217.249,132.229l0.194,0.009l0.195,0.023l0.084,0.023
	l0.07,0.03l0.029,0.023l0.023,0.023l0.025,0.031l0.016,0.03v0.032v0.03l-0.016,0.023l-0.025,0.016l-0.029,0.023l-0.031,0.008
	l-0.047,0.009l-0.038,0.007l-0.211,0.017h-0.194l-0.093,0.007l-0.085-0.007l-0.078-0.009l-0.078-0.015l-0.061-0.024l-0.049-0.031
	l-0.023-0.023l-0.014-0.023l-0.008-0.023l-0.008-0.023v-0.022l0.008-0.023l0.008-0.023l0.014-0.017l0.041-0.037l0.055-0.024
	l0.067-0.016l0.079-0.015l0.085-0.007h0.094V132.229L217.249,132.229z"/>
<path id="path2484" inkscape:connector-curvature="0" fill="#1F2C51" d="M217.326,132.952h0.203l0.185,0.023l0.087,0.023l0.068,0.03
	l0.032,0.023l0.023,0.023l0.023,0.032l0.016,0.03l0.009,0.032l-0.009,0.03l-0.016,0.023l-0.023,0.023l-0.023,0.015l-0.038,0.009
	l-0.041,0.008l-0.045,0.007l-0.209,0.017h-0.196l-0.084,0.007l-0.086-0.007l-0.085-0.008l-0.07-0.016l-0.069-0.023l-0.048-0.031
	l-0.023-0.023l-0.014-0.016l-0.01-0.023v-0.031v-0.022v-0.023l0.016-0.023l0.008-0.017l0.047-0.039l0.055-0.023l0.061-0.015
	l0.078-0.016h0.086H217.326L217.326,132.952L217.326,132.952z"/>
<path id="path2486" inkscape:connector-curvature="0" fill="#1F2C51" d="M217.365,133.636l0.203,0.007l0.186,0.023l0.086,0.015
	l0.068,0.032l0.032,0.023l0.023,0.023l0.023,0.023l0.015,0.03l0.009,0.032l-0.009,0.023l-0.015,0.023l-0.023,0.015l-0.023,0.016
	l-0.039,0.008l-0.038,0.009l-0.047,0.007l-0.21,0.015h-0.194h-0.086h-0.077l-0.07-0.008l-0.056-0.014l-0.053-0.023l-0.039-0.031
	l-0.008-0.016l-0.016-0.016l-0.007-0.023v-0.023v-0.047l0.015-0.039l0.023-0.023l0.047-0.024l0.046-0.014l0.07-0.017l0.079-0.007
	H217.365L217.365,133.636L217.365,133.636z"/>
<path id="path2488" inkscape:connector-curvature="0" fill="#1F2C51" d="M217.466,134.312h0.179l0.178,0.023l0.078,0.015
	l0.072,0.023l0.023,0.016l0.021,0.016l0.023,0.023l0.008,0.023l0.008,0.023v0.023l-0.016,0.015l-0.023,0.017l-0.054,0.016
	l-0.086,0.015l-0.187,0.009h-0.186h-0.078l-0.061-0.009h-0.056l-0.048-0.015l-0.038-0.016l-0.023-0.023l-0.015-0.031l-0.009-0.032
	v-0.038l0.009-0.031l0.015-0.023l0.023-0.017l0.038-0.015l0.056-0.007h0.062H217.466L217.466,134.312L217.466,134.312z"/>
<path id="path2490" inkscape:connector-curvature="0" fill="#1F2C51" d="M217.979,134.909h0.062l0.054,0.009l0.024,0.015
	l0.016,0.023l0.016,0.032l0.008,0.046v0.039l-0.008,0.031l-0.023,0.024l-0.023,0.014l-0.056,0.017h-0.062l-0.022,0.007h-0.023
	l-0.023-0.007l-0.024-0.017l-0.016-0.014l-0.016-0.017l-0.007-0.031v-0.038v-0.031l0.007-0.032l0.008-0.023l0.024-0.015l0.015-0.017
	l0.023-0.014h0.023h0.023V134.909z"/>
<path id="path2492" inkscape:connector-curvature="0" fill="#1F2C51" d="M217.164,134.723l-0.304-0.171l-0.288-0.195l-0.279-0.209
	l-0.264-0.233l-0.249-0.248l-0.233-0.265l-0.232-0.287l-0.21-0.295l-0.201-0.317l-0.194-0.327l-0.18-0.334l-0.171-0.35l-0.155-0.366
	l-0.146-0.363l-0.134-0.374l-0.123-0.381l-0.117-0.389l-0.101-0.389l-0.094-0.395l-0.086-0.39l-0.077-0.396l-0.062-0.396
	l-0.056-0.396l-0.046-0.389l-0.038-0.381l-0.032-0.388l-0.015-0.374l-0.015-0.365v-0.355v-0.351l0.015-0.342l0.015-0.327v-0.248
	l-0.006-0.225l-0.023-0.202l-0.032-0.172l-0.015-0.077l-0.023-0.069l-0.023-0.062l-0.032-0.054l-0.023-0.049l-0.038-0.037
	l-0.031-0.032l-0.038-0.031l-0.685-0.451l-0.691-0.442l-0.699-0.418l-0.699-0.421l-0.715-0.396l-0.715-0.389l-0.729-0.364
	l-0.723-0.358l-0.737-0.35l-0.738-0.327l-0.746-0.31l-0.746-0.296l-0.754-0.288l-0.754-0.263l-0.762-0.257l-0.761-0.233
	l-0.761-0.225l-0.77-0.203l-0.761-0.186l-0.77-0.171l-0.77-0.156l-0.77-0.14l-0.775-0.124l-0.77-0.101l-0.77-0.085l-0.77-0.07
	l-0.761-0.054l-0.77-0.032l-0.762-0.016h-0.762l-0.762,0.024l-0.752,0.038h-0.107l-0.094-0.008l-0.039-0.009l-0.031-0.007
	l-0.031-0.017l-0.023-0.023l-0.047-0.046l-0.047-0.07l-0.039-0.077l-0.045-0.108l-0.117-0.295l-0.109-0.303l-0.101-0.319
	l-0.094-0.319l-0.077-0.325l-0.068-0.325l-0.056-0.327l-0.038-0.318l-0.009-0.062l0.009-0.055l0.014-0.054l0.024-0.047l0.03-0.039
	l0.047-0.031l0.047-0.03l0.062-0.017l0.503-0.054l0.555-0.032l0.589-0.007l0.637,0.016l0.678,0.031l0.715,0.056l0.744,0.075
	l0.777,0.103l0.808,0.124l0.831,0.141l0.855,0.163l0.877,0.178l0.895,0.211l0.908,0.225l0.926,0.248l0.931,0.271l0.933,0.287
	l0.947,0.311l0.941,0.335l0.947,0.349l0.939,0.374l0.934,0.396l0.924,0.419l0.916,0.436l0.901,0.458l0.878,0.481l0.863,0.498
	l0.846,0.52l0.815,0.545l0.785,0.559l0.753,0.59l0.73,0.599l0.141,0.156l0.116,0.14l0.101,0.124l0.078,0.108l0.053,0.101
	l0.041,0.094l0.015,0.086l0.009,0.086v0.085l-0.018,0.086l-0.023,0.101l-0.029,0.101l-0.079,0.25l-0.086,0.31l-0.061,0.279
	l-0.048,0.303l-0.046,0.312l-0.04,0.326l-0.03,0.342l-0.023,0.357l-0.015,0.365l-0.009,0.372v0.39l0.017,0.389l0.016,0.396
	l0.031,0.404l0.039,0.411l0.047,0.412l0.053,0.411l0.069,0.412l0.079,0.411l0.086,0.404l0.1,0.412l0.109,0.403l0.117,0.396
	l0.131,0.39l0.141,0.38l0.154,0.373l0.172,0.364l0.179,0.35l0.187,0.336l0.201,0.325l0.218,0.311l0.233,0.288l0.24,0.279
	L217.164,134.723L217.164,134.723L217.164,134.723z"/>
<path id="path2494" inkscape:connector-curvature="0" fill="#1F2C51" d="M212.19,152.289l0.296-0.248l0.287-0.266l0.289-0.263
	l0.286-0.272l0.278-0.288l0.273-0.287l0.271-0.296l0.257-0.31l0.257-0.31l0.25-0.32l0.239-0.318l0.233-0.334l0.225-0.335
	l0.218-0.341l0.202-0.351l0.193-0.356l0.187-0.357l0.179-0.366l0.164-0.363l0.146-0.381l0.141-0.372l0.123-0.39l0.117-0.381
	l0.102-0.396l0.085-0.396l0.07-0.396l0.054-0.404l0.039-0.404l0.023-0.412l0.008-0.411l-0.008-0.411l-0.023-0.42l-0.031-0.217
	l-0.031-0.218l-0.047-0.218l-0.045-0.21l-0.055-0.201l-0.062-0.203l-0.069-0.186l-0.062-0.18l-0.132-0.317l-0.126-0.265
	l-0.093-0.194l-0.07-0.124l-0.122-0.217l-0.134-0.211l-0.14-0.21l-0.14-0.201l-0.146-0.203l-0.148-0.201l-0.156-0.186l-0.162-0.195
	l-0.156-0.186l-0.17-0.18l-0.164-0.178l-0.17-0.18l-0.18-0.171l-0.17-0.171l-0.188-0.162l-0.178-0.172l-0.374-0.318l-0.379-0.304
	l-0.39-0.295l-0.395-0.295l-0.396-0.278l-0.406-0.273l-0.41-0.264l-0.404-0.256l-0.443-0.272l-0.441-0.256l-0.436-0.25l-0.434-0.231
	l-0.443-0.227l-0.442-0.217l-0.466-0.218l-0.483-0.209l-0.637-0.257l-0.645-0.257l-0.333-0.117l-0.328-0.124l-0.333-0.108
	l-0.343-0.109l-0.334-0.109l-0.334-0.092l-0.341-0.094l-0.334-0.086l-0.343-0.085l-0.334-0.069l-0.341-0.07l-0.335-0.056
	l-0.514-0.092l-0.52-0.094l-0.521-0.101l-0.52-0.094l-0.264-0.039l-0.258-0.038l-0.264-0.032l-0.264-0.021l-0.256-0.023
	l-0.266-0.017h-0.264h-0.263l-0.241,0.008h-0.318l-0.304,0.009l-0.202,0.007l-0.076,0.007l-0.109-0.007l-0.117-0.016l-0.116-0.015
	l-0.108-0.017l-0.088-0.022l-0.037-0.01l-0.023-0.007l-0.016-0.016v-0.007l-0.186-0.115l-0.179-0.126l-0.171-0.124l-0.163-0.124
	l-0.319-0.25L195,128.144l-0.288-0.258l-0.287-0.257l-0.28-0.263l-0.279-0.266l-0.055-0.092l-0.039-0.079v-0.038l0.008-0.039
	l0.025-0.03l0.052-0.04l0.077-0.045l0.096-0.047l0.131-0.049l0.195-0.045l0.381-0.071l0.387-0.054l0.389-0.047l0.396-0.038
	l0.398-0.016l0.402-0.017l0.396,0.009l0.403,0.008l0.403,0.022l0.404,0.031l0.404,0.047l0.404,0.054l0.402,0.062l0.398,0.07
	l0.402,0.079l0.396,0.092l0.395,0.094l0.389,0.1l0.39,0.108l0.388,0.118l0.382,0.124l0.372,0.132l0.373,0.141l0.357,0.14l0.365,0.14
	l0.35,0.155l0.341,0.154l0.344,0.157l0.325,0.163l0.326,0.163l0.311,0.171l0.305,0.171l0.316,0.178l0.327,0.18l0.14,0.085
	l0.133,0.077l0.116,0.07l0.077,0.062l0.039,0.031l0.04,0.022l0.03,0.023l0.039,0.017l0.039,0.007l0.037,0.008h0.041h0.038
	l0.038-0.008l0.032-0.016l0.038-0.015l0.031-0.023l0.038-0.023l0.032-0.032l0.031-0.037l0.031-0.04l0.022-0.045l0.016-0.04
	l0.008-0.046v-0.047v-0.048l-0.008-0.054l-0.016-0.046l-0.022-0.047l-0.023-0.039l-0.031-0.047l-0.03-0.04l-0.04-0.038l-0.039-0.037
	l-0.047-0.032l-0.038-0.023l-0.047-0.023l-0.481-0.288l-0.481-0.271l-0.474-0.257l-0.474-0.24l-0.483-0.232l-0.465-0.218
	l-0.474-0.202l-0.466-0.194l-0.467-0.179l-0.457-0.163l-0.46-0.156l-0.458-0.139l-0.451-0.124l-0.442-0.117l-0.442-0.109
	l-0.436-0.092l-0.427-0.086l-0.421-0.07l-0.419-0.062l-0.411-0.054l-0.404-0.04l-0.396-0.03l-0.397-0.023l-0.381-0.015h-0.372
	l-0.364,0.007l-0.367,0.017l-0.34,0.023l-0.344,0.03l-0.334,0.047l-0.316,0.047l-0.312,0.054l-0.271,0.055l-0.28,0.047l-0.14,0.023
	l-0.123,0.016l-0.109,0.007h-0.092h-0.016l-0.031-0.016l-0.032-0.03l-0.038-0.031l-0.102-0.094l-0.125-0.116l-0.279-0.303
	l-0.325-0.351l-0.328-0.364l-0.294-0.334l-0.25-0.265l-0.154-0.163l-0.141-0.124l-0.07-0.062l-0.016-0.03l-0.006-0.032v-0.031
	l0.006-0.056l0.009-0.045l0.03-0.054l0.04-0.047l0.054-0.039l0.069-0.04l0.095-0.046l0.107-0.047l0.141-0.047l0.14-0.055l0.14-0.039
	l0.139-0.038l0.141-0.032l0.28-0.054l0.287-0.047l0.171-0.023l0.187-0.023l0.21-0.03l0.234-0.023l0.24-0.023l0.256-0.015h0.265
	l0.271,0.007l0.35,0.023l0.357,0.023l0.365,0.031l0.381,0.039l0.389,0.047l0.389,0.045l0.396,0.056l0.403,0.07l0.412,0.068
	l0.412,0.07l0.412,0.086l0.42,0.094l0.419,0.1l0.412,0.108l0.419,0.109l0.412,0.125l0.412,0.132l0.412,0.132l0.404,0.133
	l0.402,0.139l0.406,0.134l0.394,0.14l0.39,0.146l0.389,0.148l0.381,0.146l0.373,0.147l0.357,0.156l0.357,0.155l0.349,0.154
	l0.334,0.164l0.325,0.156l0.312,0.17l0.076,0.031l0.079,0.03l0.07,0.023l0.077,0.017h0.092l0.079-0.008l0.03-0.016l0.032-0.008
	l0.023-0.016l0.023-0.023l0.038-0.038l0.023-0.054l0.016-0.063v-0.062l-0.007-0.062l-0.024-0.07l-0.031-0.062l-0.038-0.07
	l-0.047-0.062l-0.056-0.056l-0.068-0.054l-0.07-0.038l-0.156-0.077l-0.171-0.079l-0.185-0.085l-0.187-0.086l-0.382-0.178
	l-0.373-0.18l-0.372-0.171l-0.382-0.163l-0.373-0.162l-0.38-0.147l-0.374-0.156l-0.372-0.14l-0.381-0.141l-0.372-0.139l-0.381-0.126
	l-0.381-0.122l-0.373-0.126l-0.381-0.109l-0.381-0.107l-0.388-0.108l-0.382-0.094l-0.381-0.093l-0.388-0.094l-0.389-0.077
	l-0.388-0.077l-0.389-0.07l-0.389-0.069l-0.395-0.063l-0.398-0.054l-0.396-0.055l-0.395-0.046l-0.405-0.04l-0.403-0.031l-0.402-0.03
	l-0.414-0.023l-0.41-0.016l-0.326-0.008l-0.336,0.008l-0.341,0.023l-0.343,0.031l-0.332,0.055l-0.336,0.062l-0.326,0.077
	l-0.316,0.086l-0.188,0.07l-0.172,0.07l-0.039,0.007l-0.047,0.008h-0.038l-0.046-0.008l-0.039-0.007l-0.046-0.017l-0.048-0.016
	l-0.045-0.03l-0.08-0.07l-0.091-0.108l-0.118-0.147l-0.125-0.17l-0.131-0.194l-0.132-0.218l-0.141-0.219l-0.132-0.234l-0.132-0.225
	l-0.124-0.218l-0.109-0.208l-0.092-0.187l-0.078-0.156l-0.055-0.132l-0.016-0.054l-0.015-0.04v-0.03v-0.023l0.022-0.016l0.039-0.023
	l0.062-0.023l0.07-0.024l0.188-0.054l0.201-0.054l0.21-0.056l0.186-0.038l0.133-0.03l0.07-0.009l0.17-0.007l0.186-0.016l0.196-0.023
	l0.218-0.016l0.232-0.023l0.271-0.024l0.302-0.021l0.342-0.017l0.372-0.016l0.397,0.009l0.437,0.015l0.466,0.023l0.503,0.047
	l0.545,0.055l0.599,0.068l0.651,0.087l0.303,0.046l0.312,0.047l0.318,0.055l0.318,0.054l0.635,0.124l0.646,0.149l0.645,0.163
	l0.645,0.171l0.652,0.194l0.645,0.201l0.646,0.218l0.636,0.225l0.631,0.242l0.62,0.255l0.606,0.257l0.6,0.271l0.582,0.279
	l0.56,0.289l0.101,0.047l0.101,0.038l0.047,0.016l0.046,0.015h0.039l0.047,0.007l0.039-0.007l0.039-0.007l0.039-0.017l0.031-0.03
	l0.03-0.031l0.032-0.047l0.023-0.054l0.015-0.07l0.009-0.031l-0.009-0.039l-0.009-0.031l-0.015-0.038l-0.047-0.077l-0.07-0.07
	l-0.077-0.062l-0.086-0.062l-0.086-0.054l-0.092-0.049l-0.203-0.092l-0.248-0.125l-0.256-0.132l-0.233-0.107l-0.505-0.211
	l-0.505-0.219l-0.513-0.201l-0.521-0.202l-0.52-0.186l-0.515-0.188l-0.52-0.178l-0.512-0.172l-0.211-0.069l-0.311-0.094
	l-0.334-0.093l-0.256-0.077l-0.109-0.031l-0.14-0.047l-0.163-0.039l-0.188-0.054l-0.193-0.047l-0.203-0.055l-0.209-0.046L199,119.55
	l-0.242-0.046l-0.303-0.062l-0.334-0.062l-0.355-0.07l-0.337-0.07l-0.31-0.054l-0.239-0.055l-0.165-0.03l-0.172-0.023l-0.248-0.039
	l-0.316-0.031l-0.352-0.039l-0.35-0.038l-0.341-0.039l-0.288-0.023l-0.218-0.023l-0.264-0.022l-0.271-0.017l-0.287-0.015
	l-0.286-0.009l-0.592-0.015l-0.605,0.008l-0.305,0.007l-0.295,0.017l-0.302,0.014l-0.296,0.024l-0.287,0.023l-0.28,0.03l-0.271,0.04
	l-0.265,0.038l-0.107,0.017l-0.086,0.007h-0.07l-0.039-0.017l-0.062-0.045l-0.069-0.078l-0.078-0.094l-0.079-0.117l-0.169-0.263
	l-0.172-0.312l-0.17-0.316l-0.156-0.304l-0.14-0.265l-0.101-0.194l-0.047-0.086l-0.039-0.086l-0.039-0.077l-0.022-0.085
	l-0.009-0.039l0.009-0.038l0.015-0.032l0.016-0.038l0.031-0.03l0.046-0.023l0.054-0.023l0.072-0.025l0.092-0.021l0.109-0.023
	l0.124-0.016l0.132-0.017l0.28-0.021l0.296-0.023l0.271-0.017l0.24-0.007l0.188-0.009h0.1l0.311-0.015l0.373-0.009h0.42l0.435,0.009
	h0.419l0.39,0.007l0.333,0.008l0.242,0.009l0.225,0.015l0.287,0.023l0.342,0.039l0.372,0.038l0.397,0.047l0.411,0.056l0.421,0.054
	l0.404,0.062l0.434,0.07l0.451,0.077l0.451,0.086l0.449,0.094l0.451,0.101l0.451,0.109l0.459,0.115l0.449,0.116l0.46,0.125
	l0.45,0.132l0.443,0.132l0.449,0.14l0.443,0.141l0.436,0.14l0.435,0.148l0.427,0.146l0.42,0.155l0.473,0.179l0.507,0.194
	l0.512,0.211l0.506,0.208l0.465,0.203l0.413,0.194l0.333,0.162l0.357,0.179l0.349,0.188l0.359,0.186l0.357,0.187l0.356,0.194
	l0.357,0.203l0.356,0.201l0.357,0.201l0.351,0.211l0.349,0.21l0.35,0.217l0.342,0.216l0.342,0.22l0.334,0.225l0.326,0.233
	l0.326,0.232l0.04,0.031l0.03,0.031l0.031,0.031l0.023,0.031l0.032,0.062l0.015,0.062v0.108l-0.008,0.07v0.109l-0.007,0.171
	l-0.009,0.171v0.109l-0.008,0.186l-0.008,0.35l-0.008,0.365l-0.008,0.25l-0.007,0.293v0.296l0.007,0.303l0.023,0.304l0.023,0.302
	l0.031,0.311l0.039,0.304l0.047,0.312l0.045,0.302l0.062,0.304l0.064,0.302l0.068,0.295l0.07,0.289l0.086,0.286l0.078,0.28
	l0.092,0.271l0.039,0.116l0.062,0.181l0.078,0.208l0.086,0.227l0.086,0.232l0.076,0.202l0.062,0.162l0.045,0.094l0.047,0.093
	l0.079,0.147l0.101,0.188l0.102,0.201l0.108,0.21l0.108,0.194l0.094,0.164l0.069,0.116l0.103,0.155l0.107,0.155l0.109,0.148
	l0.117,0.146l0.115,0.141l0.125,0.147l0.123,0.14l0.125,0.131l0.258,0.265l0.271,0.257l0.279,0.248l0.28,0.234l0.163,0.123
	l0.171,0.125l0.187,0.124l0.186,0.116l0.195,0.109l0.193,0.108l0.209,0.109l0.211,0.094l0.209,0.099l0.217,0.086l0.227,0.095
	l0.227,0.077l0.23,0.078l0.234,0.07l0.232,0.068l0.232,0.063l0.24,0.054l0.234,0.056l0.24,0.045l0.24,0.047l0.242,0.039l0.232,0.031
	l0.241,0.022l0.233,0.024l0.232,0.016l0.233,0.008l0.231,0.008h0.227l0.217-0.008l0.219-0.008l0.217-0.023l0.209-0.023l0.272-0.023
	l0.265-0.039l0.248-0.038l0.248-0.04l0.233-0.054l0.226-0.047l0.217-0.054l0.219-0.062l0.202-0.062l0.202-0.07l0.201-0.07
	l0.193-0.07l0.375-0.146l0.38-0.147l0.14-0.062l0.154-0.07l0.157-0.077l0.163-0.086l0.334-0.188l0.334-0.209l0.326-0.209
	l0.311-0.211l0.147-0.108l0.132-0.1l0.125-0.102l0.108-0.093l0.046-0.047l0.048-0.023l0.03-0.024l0.031-0.008h0.023l0.023,0.017
	l0.023,0.015l0.023,0.04l0.055,0.101l0.062,0.124l0.055,0.132l0.045,0.14l0.094,0.288l0.069,0.248l0.101,0.334l0.078,0.327
	l0.07,0.334l0.055,0.326l0.039,0.334l0.031,0.327l0.016,0.325v0.327l-0.009,0.325l-0.023,0.318l-0.032,0.327l-0.045,0.317
	l-0.055,0.32l-0.062,0.31l-0.078,0.319l-0.085,0.31l-0.101,0.311l-0.101,0.304l-0.116,0.302l-0.125,0.304l-0.133,0.296l-0.139,0.294
	l-0.154,0.295l-0.156,0.289l-0.164,0.286l-0.17,0.28l-0.18,0.28l-0.186,0.271l-0.195,0.271l-0.202,0.273l-0.201,0.264l-0.21,0.256
	l-0.295,0.343l-0.303,0.34l-0.319,0.327l-0.325,0.311l-0.336,0.312l-0.348,0.302l-0.357,0.289l-0.357,0.278l-0.374,0.271
	l-0.38,0.265l-0.381,0.257l-0.389,0.241l-0.396,0.24l-0.402,0.226l-0.404,0.226l-0.404,0.209l-0.412,0.203l-0.412,0.201l-0.42,0.187
	l-0.411,0.178l-0.419,0.172l-0.42,0.172l-0.419,0.154l-0.413,0.148l-0.418,0.139l-0.413,0.141l-0.411,0.122l-0.412,0.119
	l-0.404,0.115l-0.396,0.101l-0.395,0.102L215.143,152l-0.217,0.045l-0.365,0.07l-0.459,0.094l-0.496,0.084l-0.498,0.086
	l-0.435,0.071l-0.187,0.023l-0.155,0.007l-0.108,0.008l-0.07-0.008l-0.022-0.007l-0.009-0.017l-0.008-0.023v-0.031l0.008-0.03
	l0.016-0.023l0.023-0.032L212.19,152.289L212.19,152.289L212.19,152.289z"/>
<path id="path2496" inkscape:connector-curvature="0" fill="#1F2C51" d="M230.067,119.356l-0.07,0.008l-0.063,0.009l-0.054,0.023
	l-0.046,0.031l-0.039,0.046l-0.032,0.047l-0.022,0.054l-0.015,0.062l-0.009,0.038v0.032l0.009,0.03l0.007,0.031l0.03,0.062
	l0.04,0.062l0.055,0.046l0.069,0.048l0.07,0.03l0.077,0.017l0.07,0.007h0.078l0.07-0.007l0.062-0.023l0.023-0.008l0.023-0.016
	l0.023-0.017l0.017-0.023l0.016-0.021l0.015-0.032l0.007-0.03v-0.04v-0.038v-0.039l-0.016-0.038l-0.015-0.039l-0.038-0.077
	l-0.056-0.07l-0.062-0.062l-0.078-0.047l-0.031-0.023l-0.039-0.015l-0.039-0.009L230.067,119.356L230.067,119.356L230.067,119.356z"
	/>
<path id="path2498" inkscape:connector-curvature="0" fill="#1F2C51" d="M229.174,129.549l-0.062,0.016h-0.062l-0.07-0.016
	l-0.077-0.031l-0.07-0.039l-0.078-0.047l-0.076-0.068l-0.086-0.072l-0.086-0.076l-0.078-0.094l-0.086-0.092l-0.085-0.109
	l-0.171-0.218l-0.163-0.241l-0.163-0.248l-0.148-0.249l-0.14-0.241l-0.124-0.226l-0.109-0.209l-0.085-0.188l-0.062-0.154
	l-0.039-0.108l-0.07-0.21l-0.069-0.21l-0.056-0.218l-0.047-0.209l-0.045-0.203l-0.031-0.208l-0.032-0.211l-0.015-0.202l-0.016-0.202
	l-0.008-0.194l-0.008-0.193l0.008-0.187v-0.179l0.015-0.179l0.017-0.171l0.023-0.162l0.023-0.156l0.023-0.147l0.031-0.141
	l0.031-0.131l0.031-0.126l0.037-0.108l0.04-0.1l0.038-0.094l0.039-0.079l0.039-0.062l0.047-0.054l0.039-0.039l0.038-0.023
	l0.04-0.017l0.045,0.01l0.032,0.016l0.077,0.155l0.164,0.45l0.9,2.711l0.047,0.124l0.109,0.334l0.162,0.467l0.188,0.551l0.188,0.552
	l0.162,0.49l0.124,0.357l0.054,0.171l0.017,0.047l0.007,0.054v0.055l0.008,0.062l-0.008,0.108l-0.016,0.077l-0.008,0.04
	l-0.016,0.038l-0.023,0.047l-0.029,0.047l-0.049,0.047l-0.045,0.047l-0.062,0.037L229.174,129.549L229.174,129.549L229.174,129.549z
	"/>
<path id="path2500" inkscape:connector-curvature="0" fill="#1F2C51" d="M234.721,126.271h-0.062l-0.047,0.007l-0.038,0.017
	l-0.023,0.016l-0.009,0.015v0.023l0.009,0.023l0.015,0.023l0.125,0.116l0.133,0.117l0.015,0.031l0.017,0.031l0.014,0.031
	l0.008,0.047l0.009,0.086l0.007,0.077l-0.007,0.124l-0.009,0.179l-0.008,0.179v0.139l-0.007,0.109l0.007,0.102l0.008,0.1
	l0.009,0.078l0.007,0.031l0.017,0.031l0.014,0.023l0.023,0.017l0.017,0.007h0.023h0.031l0.022-0.007l0.054-0.023l0.063-0.048
	l0.062-0.055l0.069-0.062l0.126-0.133l0.109-0.139l0.076-0.109l0.032-0.045l0.084-0.165l0.079-0.155l0.062-0.14l0.056-0.139
	l0.053-0.141l0.055-0.148l0.047-0.162l0.045-0.18l0.01-0.023v-0.031l-0.01-0.022V126.1l-0.021-0.031l-0.031-0.022l-0.039-0.017
	l-0.039-0.007l-0.039,0.007l-0.038,0.023l-0.048,0.023l-0.055,0.023l-0.062,0.023l-0.077,0.022l-0.171,0.04l-0.187,0.023
	l-0.18,0.021l-0.17,0.025l-0.131,0.007L234.721,126.271L234.721,126.271L234.721,126.271z"/>
<path id="path2590" inkscape:connector-curvature="0" fill="#1F2C51" d="M234.021,114.68l0.225-0.125l0.24-0.109l0.25-0.092
	l0.248-0.094l0.248-0.071l0.242-0.068l0.24-0.056l0.242-0.045l0.225-0.04l0.209-0.022l0.193-0.017l0.181-0.007h0.155l0.131,0.007
	l0.108,0.025l0.079,0.023l0.047,0.038l0.006,0.047l-0.029,0.061l-0.062,0.079l-0.094,0.085l-0.115,0.093l-0.148,0.109l-0.162,0.107
	l-0.389,0.265l-0.436,0.295l-0.225,0.163l-0.241,0.163l-0.234,0.181l-0.231,0.178l-0.297,0.232l-0.302,0.226l-0.311,0.226
	l-0.304,0.201l-0.146,0.102l-0.148,0.085l-0.139,0.079l-0.141,0.068l-0.133,0.056l-0.131,0.045l-0.117,0.032l-0.109,0.017
	l-0.061,0.007l-0.063-0.007l-0.061-0.017l-0.056-0.016l-0.053-0.03l-0.055-0.031l-0.047-0.032l-0.047-0.038l-0.086-0.077
	l-0.07-0.086l-0.062-0.077l-0.046-0.062l-0.031-0.085l-0.008-0.047l0.008-0.047l0.008-0.046l0.014-0.055l0.018-0.054l0.029-0.063
	l0.079-0.116l0.093-0.133l0.117-0.139l0.139-0.141l0.156-0.14l0.18-0.147l0.185-0.147l0.202-0.147l0.21-0.147l0.217-0.148
	l0.234-0.141L234.021,114.68L234.021,114.68z M236.832,115.038l-0.248,0.201l-0.256,0.201l-0.264,0.203l-0.28,0.21l-0.573,0.411
	l-0.592,0.429l-0.598,0.426l-0.583,0.428l-0.288,0.21l-0.279,0.211l-0.271,0.216l-0.256,0.21l-0.094,0.07l-0.086,0.047l-0.086,0.032
	L232,118.556l-0.084-0.007l-0.086-0.017l-0.109-0.037l-0.115-0.056l-0.266-0.139l-0.239-0.133l-0.126-0.056l-0.132-0.054
	l-0.147-0.038l-0.17-0.03l-0.062-0.009H230.4l-0.055,0.009l-0.053,0.007l-0.056,0.023l-0.046,0.023l-0.047,0.031l-0.047,0.03
	l-0.068,0.079l-0.064,0.085l-0.053,0.093l-0.032,0.103l-0.038,0.122l-0.031,0.086l-0.024,0.047l-0.101,0.055l-0.1,0.047
	l-0.109,0.062l-0.047,0.037l-0.047,0.063l-0.015,0.054l-0.079,0.047l-0.076,0.007l-0.07-0.015l-0.062-0.039l-0.054-0.062
	l-0.038-0.086l-0.032-0.093l-0.017-0.102l-0.014-0.116v-0.115l0.007-0.117l0.017-0.116l0.021-0.109l0.032-0.101l0.038-0.094
	l0.047-0.078l0.062-0.054l0.047-0.039l0.124-0.116l0.187-0.171l0.225-0.202l0.25-0.233l0.248-0.233l0.24-0.225l0.202-0.194
	l0.179-0.178l0.188-0.203l0.192-0.209l0.202-0.219l0.211-0.225l0.209-0.232l0.218-0.233l0.218-0.225l0.109-0.101l0.101-0.094
	l0.101-0.078l0.092-0.07l0.086-0.062l0.094-0.047l0.079-0.047l0.085-0.032l0.154-0.054l0.148-0.045l0.147-0.032l0.147-0.047
	l0.162-0.047l0.195-0.047l0.227-0.047l0.263-0.047l0.296-0.046l0.326-0.047l0.365-0.047l0.402-0.047l0.156-0.008l0.248-0.007
	l0.303,0.007l0.326,0.017l0.156,0.015l0.156,0.023l0.139,0.031l0.117,0.039l0.055,0.023l0.047,0.022l0.078,0.047l0.037,0.07
	l0.01,0.07l0.029,0.07v0.046v0.055l-0.008,0.054l-0.015,0.047l-0.015,0.047l-0.062,0.093l-0.078,0.094l-0.061,0.077L236.832,115.038
	L236.832,115.038z M230.696,118.658l-0.079-0.008l-0.062-0.009h-0.054h-0.047l-0.061,0.047l-0.04,0.103v0.054l0.07,0.062
	l0.062,0.015l0.07,0.009l0.079,0.014l0.075,0.017l0.064,0.03l0.068,0.031l0.062,0.023l0.07,0.007h0.054l0.056-0.007l0.047-0.03
	l0.045-0.055l0.008-0.054l-0.023-0.056l-0.07-0.061l-0.062-0.04l-0.077-0.03l-0.086-0.023l-0.086-0.023L230.696,118.658
	L230.696,118.658z M233.795,121.889l-0.108-0.031l-0.101-0.007h-0.101l-0.086,0.015l-0.077,0.03l-0.062,0.04l-0.053,0.056
	l-0.032,0.067l-0.009,0.071l0.009,0.078l0.032,0.068l0.053,0.072l0.062,0.068l0.077,0.062l0.093,0.047l0.102,0.047l0.103,0.023
	l0.107,0.015h0.094l0.093-0.015l0.077-0.032l0.062-0.038l0.047-0.056l0.032-0.068l0.015-0.07l-0.015-0.079l-0.032-0.068l-0.047-0.07
	l-0.062-0.069l-0.077-0.063l-0.093-0.054L233.795,121.889z M233.68,121.368l-0.102-0.015l-0.108-0.009l-0.108,0.009l-0.102,0.008
	l-0.109,0.016l-0.093,0.031l-0.101,0.031l-0.086,0.038l-0.086,0.039l-0.076,0.055l-0.07,0.054l-0.056,0.062l-0.037,0.07
	l-0.032,0.077l-0.023,0.078v0.047l0.016,0.132l0.023,0.094l0.031,0.092l0.046,0.094l0.056,0.086l0.053,0.094l0.07,0.092l0.079,0.086
	l0.076,0.077l0.087,0.079l0.086,0.07l0.099,0.062l0.095,0.054l0.1,0.047l0.103,0.039l0.101,0.024l0.109,0.014h0.1h0.094l0.1-0.014
	l0.094-0.031l0.086-0.032l0.086-0.038l0.076-0.056l0.07-0.054l0.062-0.07l0.062-0.07l0.047-0.077l0.038-0.086l0.032-0.092
	l0.023-0.103l0.007-0.101v-0.101l-0.016-0.094l-0.022-0.093l-0.031-0.092l-0.047-0.079l-0.055-0.077l-0.055-0.078l-0.07-0.061
	l-0.076-0.062l-0.078-0.055l-0.085-0.055l-0.086-0.047l-0.094-0.031l-0.101-0.039l-0.101-0.023L233.68,121.368z M233.68,120.996
	h-0.156l-0.147,0.009l-0.146,0.015l-0.135,0.032l-0.131,0.031l-0.124,0.037l-0.108,0.056l-0.109,0.061l-0.094,0.063l-0.086,0.077
	l-0.068,0.086l-0.062,0.094l-0.047,0.101l-0.039,0.101l-0.031,0.115l-0.008,0.126v0.124l0.016,0.131l0.031,0.126l0.039,0.122
	l0.055,0.133l0.07,0.117l0.077,0.126l0.085,0.107l0.102,0.108l0.1,0.101l0.117,0.094l0.125,0.086l0.141,0.069l0.139,0.063
	l0.146,0.045l0.156,0.04l0.078,0.007l0.076,0.007h0.078h0.079l0.077-0.007l0.069-0.007l0.071-0.017l0.069-0.015l0.14-0.047
	l0.132-0.062l0.117-0.07l0.116-0.086l0.101-0.092l0.094-0.103l0.085-0.115l0.069-0.117l0.056-0.124l0.038-0.133l0.023-0.061
	l0.009-0.07l0.008-0.07l0.007-0.07v-0.069l-0.007-0.062v-0.07l-0.017-0.062l-0.032-0.133l-0.045-0.115l-0.062-0.117l-0.076-0.107
	l-0.086-0.103l-0.094-0.093l-0.109-0.087l-0.115-0.075l-0.125-0.07l-0.132-0.056l-0.14-0.047l-0.148-0.038l-0.146-0.023
	L233.68,120.996L233.68,120.996z M232.024,119.373l-0.079,0.03l-0.084,0.031l-0.117,0.047l-0.053,0.023l-0.056,0.055v0.077
	l0.056,0.07l0.062,0.031l0.046,0.016l0.062,0.008h0.055l0.047,0.014l0.047,0.025l0.076,0.062l0.062,0.077l0.062,0.14l0.031,0.102
	l0.031,0.093l0.015,0.103l0.024,0.054l0.031,0.047l0.085,0.068l0.047,0.023l0.054,0.009h0.054l0.047-0.009l0.163-0.054l0.171-0.047
	l0.164-0.038l0.163-0.03l0.162-0.017l0.163-0.016h0.164l0.163,0.016l0.164,0.023l0.162,0.04l0.078,0.021l0.076,0.032l0.086,0.038
	l0.078,0.039l0.078,0.038l0.086,0.056l0.078,0.054l0.077,0.055l0.085,0.062l0.078,0.069l0.076,0.077l0.086,0.077l0.086,0.094
	l0.077,0.094l0.063,0.092l0.062,0.095l0.053,0.092l0.047,0.094l0.039,0.094l0.031,0.093l0.023,0.094l0.016,0.094l0.016,0.093v0.085
	v0.094l-0.008,0.093l-0.016,0.085l-0.016,0.094l-0.031,0.086l-0.022,0.093l-0.04,0.085l-0.039,0.086l-0.047,0.085l-0.047,0.086
	l-0.053,0.077l-0.062,0.085l-0.125,0.157l-0.139,0.155l-0.156,0.141l-0.17,0.139l-0.055,0.047l-0.04,0.046l-0.038,0.078l0.008,0.07
	l0.047,0.055l0.062,0.047l0.045,0.015l0.133,0.032l0.086,0.015l0.062-0.015l0.062-0.009l0.062-0.023l0.062-0.017l0.117-0.054
	l0.115-0.062l0.109-0.078l0.101-0.092l0.103-0.094l0.092-0.101l0.086-0.117l0.077-0.117l0.07-0.116l0.07-0.124l0.054-0.124
	l0.055-0.124l0.037-0.124l0.041-0.118l0.038-0.194l0.032-0.179l0.023-0.186l0.006-0.179v-0.178l-0.006-0.18l-0.016-0.179
	l-0.031-0.179l-0.032-0.171l-0.037-0.171l-0.056-0.171l-0.053-0.171l-0.062-0.171l-0.072-0.171l-0.068-0.172l-0.086-0.171
	l-0.045-0.094l-0.072-0.115l-0.086-0.133l-0.1-0.141l-0.116-0.146l-0.117-0.164l-0.133-0.155l-0.131-0.155l-0.141-0.155
	l-0.147-0.146l-0.139-0.139l-0.148-0.126l-0.139-0.109l-0.133-0.092l-0.062-0.04l-0.062-0.03l-0.062-0.032l-0.055-0.015
	l-0.054,0.008l-0.079,0.037l-0.092,0.072l-0.109,0.077l-0.193,0.154l-0.118,0.103l-0.14,0.115l-0.162,0.126l-0.156,0.115
	l-0.141,0.125l-0.084,0.062l-0.11,0.086l-0.14,0.085l-0.139,0.093l-0.242,0.148L232.024,119.373L232.024,119.373z M214.049,136.626
	l0.286,0.428l0.257,0.427l0.225,0.428l0.203,0.435l0.17,0.435l0.146,0.442l0.119,0.437l0.092,0.442l0.07,0.442l0.039,0.443
	l0.023,0.434l-0.008,0.443l-0.023,0.436l-0.046,0.435l-0.079,0.435l-0.085,0.436l-0.116,0.428l-0.133,0.419l-0.146,0.42
	l-0.172,0.419l-0.193,0.404l-0.203,0.404l-0.225,0.396l-0.242,0.396l-0.255,0.381l-0.265,0.374l-0.287,0.372l-0.303,0.357
	l-0.311,0.351l-0.327,0.333l-0.334,0.334l-0.349,0.318l-0.25,0.217l-0.248,0.204l-0.256,0.201l-0.258,0.193l-0.256,0.188
	l-0.264,0.187l-0.264,0.171l-0.264,0.171l-0.264,0.163l-0.271,0.155l-0.273,0.154l-0.271,0.148l-0.28,0.148l-0.28,0.131l-0.278,0.14
	l-0.28,0.124l-0.288,0.124l-0.28,0.124l-0.287,0.117l-0.295,0.117l-0.582,0.218l-0.59,0.209l-0.599,0.194l-0.599,0.188l-0.605,0.187
	l-0.613,0.169l-0.357,0.18l0.076,0.108l0.576,0.016l0.574,0.017l0.584,0.014l0.589,0.017l0.591,0.008l0.598,0.008h0.6h0.59
	l0.599-0.008l0.599-0.016l0.59-0.022l0.589-0.032l0.592-0.038l0.575-0.056l0.574-0.062l0.576-0.077l0.316-0.047l0.319-0.046
	l0.312-0.04l0.294-0.038l0.265-0.04l0.233-0.037l0.192-0.032l0.141-0.023l0.879-0.164l0.862-0.178l0.419-0.093l0.42-0.101
	l0.412-0.102l0.412-0.109l0.402-0.109l0.406-0.108l0.404-0.123l0.396-0.125l0.395-0.124l0.398-0.14l0.388-0.141l0.387-0.146
	l0.39-0.147l0.38-0.164l0.381-0.163l0.38-0.179l0.382-0.178l0.381-0.188l0.372-0.201l0.381-0.201l0.374-0.21l0.372-0.225
	l0.381-0.226l0.374-0.242l0.372-0.248l0.38-0.265l0.373-0.264l0.373-0.278l0.629-0.489l0.591-0.515l0.56-0.521l0.529-0.535
	l0.489-0.544l0.465-0.559l0.429-0.575l0.388-0.584l0.356-0.589l0.319-0.606l0.288-0.605l0.248-0.614l0.217-0.622l0.171-0.622
	l0.141-0.629l0.093-0.629l0.062-0.637l0.021-0.629l-0.021-0.63l-0.062-0.638l-0.102-0.62l-0.141-0.629l-0.184-0.622l-0.227-0.614
	l-0.271-0.605l-0.318-0.606l-0.357-0.591l-0.404-0.59l-0.443-0.567l-0.498-0.566l-0.535-0.552l-0.59-0.535l-0.156-0.149
	l-0.155-0.139l-0.14-0.141l-0.141-0.14l-0.131-0.147l-0.124-0.14l-0.126-0.148l-0.107-0.14l-0.108-0.147l-0.101-0.146l-0.103-0.148
	l-0.093-0.146l-0.085-0.155l-0.077-0.156l-0.078-0.154l-0.069-0.156l-0.079-0.209l-0.07-0.219l-0.068-0.216l-0.064-0.219
	l-0.045-0.225l-0.047-0.234l-0.047-0.225l-0.031-0.233l-0.022-0.234l-0.023-0.231l-0.017-0.233l-0.007-0.232v-0.233l0.007-0.233
	l0.017-0.225l0.023-0.225l0.03-0.218l0.031-0.218l0.046-0.21l0.056-0.21l0.062-0.202l0.062-0.186l0.079-0.188l0.085-0.178
	l0.086-0.171l0.102-0.164l0.107-0.146l0.117-0.141l0.123-0.132l0.133-0.116l0.146-0.109l0.148-0.094l0.055-0.015l0.053,0.015
	l0.07,0.063l0.047,0.077l0.146,0.427l0.421,1.12l0.521,1.46l0.123,0.388l0.125,0.381l0.125,0.381l0.125,0.38l0.123,0.381
	l0.125,0.389l0.125,0.381l0.133,0.381l0.092,0.257l0.086,0.231l0.039,0.103l0.031,0.092l0.021,0.07l0.009,0.056l0.023,0.077
	l0.062,0.077l0.047,0.038l0.047,0.039l0.055,0.031l0.062,0.039l0.141,0.07l0.154,0.062l0.162,0.062l0.18,0.061l0.349,0.109
	l0.327,0.085l0.271,0.07l0.171,0.047l0.155,0.046l0.296,0.086l0.154,0.031l0.132,0.017h0.056l0.054-0.024l0.016-0.108l-0.008-0.085
	l-0.023-0.103l-0.022-0.099l-0.04-0.103l-0.039-0.115l-0.047-0.109l-0.054-0.109l-0.054-0.108l-0.055-0.109l-0.061-0.101
	l-0.056-0.094l-0.062-0.085l-0.062-0.078l-0.054-0.062l-0.056-0.047l-0.208-0.154l-0.319-0.248l-0.305-0.242l-0.131-0.101
	l-0.1-0.102l-0.117-0.086l-0.125-0.092l-0.124-0.093l-0.124-0.096l-0.117-0.092l-0.101-0.093l-0.103-0.102l-0.029-0.046
	l-0.023-0.047l-0.032-0.077v-0.054l0.047-0.069l0.056-0.04l0.062-0.021l0.069-0.025l0.078-0.017l0.077-0.007h0.077h0.086
	l0.172,0.023l0.163,0.025l0.155,0.037l0.125,0.031l0.225,0.054l0.201,0.056l0.188,0.047l0.186,0.061l0.179,0.062l0.179,0.078
	l0.195,0.093l0.201,0.117l0.218,0.115l0.187,0.118l0.077,0.054l0.079,0.054l0.07,0.055l0.053,0.062l0.056,0.07l0.046,0.077
	l0.038,0.085l0.032,0.093l0.015,0.103l0.015,0.124l0.009,0.132v0.147l-0.009,0.132l-0.015,0.117l-0.023,0.108l-0.023,0.124
	l-0.009,0.062l-0.006,0.07v0.061l0.006,0.062l0.023,0.132l0.032,0.117l0.023,0.054l0.07,0.04h0.046l0.108-0.024l0.133-0.03
	l0.047-0.017l0.047-0.014l0.069-0.047l0.055-0.047l0.03-0.056l0.017-0.069v-0.078l-0.017-0.086l-0.038-0.085l-0.016-0.054
	l-0.016-0.054l-0.015-0.062l-0.009-0.07l-0.015-0.141l-0.009-0.14l0.009-0.286v-0.25l-0.009-0.054l-0.023-0.062l-0.023-0.062
	l-0.038-0.062l-0.047-0.062l-0.047-0.056l-0.054-0.062l-0.055-0.054l-0.24-0.21l-0.21-0.163l-0.101-0.077l-0.102-0.102l-0.047-0.054
	l-0.023-0.054l-0.006-0.07l0.015-0.071l0.038-0.061l0.055-0.04l0.086-0.031l0.053-0.007l0.056-0.007l0.302,0.007h0.312l0.31-0.007
	l0.304-0.025l0.147-0.015l0.146-0.023l0.149-0.032l0.14-0.038l0.139-0.047l0.14-0.054l0.134-0.056l0.123-0.068l0.07-0.14v-0.133
	l-0.008-0.115l-0.008-0.103l-0.023-0.077l-0.031-0.07l-0.037-0.047l-0.096-0.062l-0.054-0.016l-0.062-0.007l-0.062,0.007
	l-0.077,0.008l-0.164,0.032l-0.177,0.046l-0.096-0.009l-0.092-0.007l-0.086-0.016l-0.076-0.015l-0.079-0.024l-0.077-0.022
	l-0.07-0.032l-0.07-0.038l-0.131-0.077l-0.133-0.087l-0.139-0.107l-0.149-0.117l-0.155-0.093l-0.217-0.008l-0.133-0.016
	l-0.131-0.016l-0.125-0.023l-0.125-0.031l-0.123-0.032l-0.117-0.038l-0.109-0.047l-0.108-0.046l-0.101-0.055l-0.102-0.062
	l-0.093-0.062l-0.085-0.069l-0.086-0.078l-0.078-0.077l-0.078-0.086l-0.068-0.086l-0.064-0.094l-0.062-0.101l-0.054-0.101
	l-0.047-0.108l-0.045-0.109l-0.032-0.117l-0.038-0.123l-0.023-0.125l-0.016-0.133l-0.016-0.131l-0.008-0.141l-0.008-0.147
	l0.008-0.146l0.008-0.148l0.023-0.163l0.023-0.154l0.014-0.181l0.025-0.185l0.007-0.095v-0.094l-0.007-0.092l-0.016-0.086
	l-0.023-0.085l-0.039-0.07l-0.055-0.07l-0.07-0.054l-0.086-0.039l-0.047-0.017l-0.053-0.014l-0.062-0.017h-0.07l-0.068-0.008
	l-0.079,0.008l-0.054,0.023l-0.055,0.056l-0.055,0.061l-0.054,0.048l-0.032,0.046l-0.053,0.07l-0.07,0.062l-0.07,0.039l-0.047,0.015
	l-0.084,0.032l-0.086,0.015l-0.093,0.009h-0.103h-0.141l-0.139-0.016l-0.147-0.023l-0.147-0.047l-0.069-0.023l-0.063-0.031
	l-0.061-0.03l-0.062-0.039l-0.055-0.04l-0.047-0.045l-0.047-0.047l-0.03-0.054l-0.085-0.118l-0.079-0.094l-0.086-0.068l-0.077-0.07
	l-0.076-0.062l-0.071-0.054l-0.077-0.07l-0.062-0.085l-0.062-0.094l-0.054-0.093l-0.047-0.109l-0.047-0.117l-0.039-0.115
	l-0.031-0.124l-0.023-0.126l-0.016-0.131l-0.008-0.131v-0.126l0.008-0.132l0.023-0.125l0.03-0.115l0.048-0.117l0.055-0.117
	l0.07-0.101l0.225-0.287l0.412-0.404l0.17-0.147l0.303-0.248l0.188-0.201l0.055-0.063l0.021-0.054l-0.006-0.047l-0.07-0.071
	l-0.062-0.015l-0.07-0.016l-0.07-0.008l-0.178-0.007h-0.187l-0.179,0.007l-0.179,0.008l-0.372,0.023l-0.367,0.047l-0.371,0.056
	l-0.365,0.069l-0.374,0.085l-0.365,0.094l-0.364,0.109l-0.365,0.122l-0.351,0.133l-0.349,0.141l-0.351,0.154l-0.333,0.163
	l-0.326,0.172l-0.318,0.186l-0.164,0.102l-0.201,0.124l-0.233,0.154l-0.257,0.188l-0.287,0.209l-0.297,0.248l-0.155,0.133
	l-0.163,0.131l-0.162,0.149l-0.156,0.154l-0.271,0.271l-0.248,0.273l-0.242,0.295l-0.225,0.294l-0.217,0.303l-0.202,0.312
	l-0.187,0.325l-0.178,0.325l-0.172,0.334l-0.154,0.344l-0.141,0.349l-0.133,0.349l-0.124,0.359l-0.117,0.363l-0.1,0.366
	l-0.103,0.373l-0.085,0.373l-0.077,0.38l-0.068,0.381l-0.064,0.381l-0.045,0.381l-0.047,0.388l-0.039,0.382l-0.031,0.388
	l-0.032,0.381l-0.014,0.389l-0.017,0.379l-0.008,0.381v0.381v0.382l0.008,0.381l0.017,0.364l0.116,3.076l0.101,1.089l0.07,0.419
	l0.07,0.278l0.061,0.086l0.07,0.071l0.077,0.046l0.344,0.133l0.349,0.107l0.351,0.102l0.355,0.079l0.357,0.068l0.357,0.054
	l0.365,0.032l0.357,0.023l0.365,0.007l0.365-0.007l0.357-0.016l0.365-0.031l0.357-0.047l0.357-0.054l0.357-0.07l0.349-0.079
	l0.351-0.092l0.342-0.101l0.334-0.109l0.334-0.124l0.325-0.133l0.319-0.139l0.311-0.147l0.303-0.156l0.296-0.163l0.287-0.171
	l0.278-0.179l0.266-0.186l0.256-0.188l0.242-0.201l0.232-0.203l0.225-0.208l0.133-0.132l0.068-0.07l0.062-0.056l0.078-0.023
	l0.079,0.017l0.046,0.039l0.053,0.045l0.047,0.049l0.047,0.054l0.102,0.132l0.086,0.141l0.086,0.163l0.084,0.17l0.079,0.188
	l0.077,0.186l0.131,0.374l0.117,0.364l0.094,0.327l0.069,0.255l0.07,0.28l0.062,0.271l0.047,0.28l0.047,0.279l0.031,0.28l0.023,0.28
	l0.008,0.288l0.007,0.278l-0.007,0.287l-0.008,0.288l-0.023,0.28l-0.022,0.287l-0.04,0.279l-0.045,0.288l-0.056,0.28l-0.054,0.278
	l-0.07,0.28l-0.07,0.28l-0.086,0.271l-0.086,0.271l-0.094,0.271l-0.1,0.266l-0.107,0.263l-0.109,0.257l-0.117,0.265l-0.125,0.248
	l-0.132,0.249l-0.132,0.249l-0.14,0.232l-0.147,0.241l-0.148,0.225l-0.155,0.227l-0.404,0.543l-0.426,0.528l-0.451,0.505
	l-0.466,0.489l-0.49,0.465l-0.504,0.452l-0.521,0.435l-0.538,0.412l-0.552,0.396l-0.565,0.381l-0.583,0.365l-0.591,0.342
	l-0.606,0.332l-0.612,0.312l-0.631,0.295l-0.629,0.271l-0.637,0.265l-0.645,0.248l-0.653,0.233l-0.651,0.217l-0.66,0.202l-0.66,0.18
	l-0.661,0.178l-0.661,0.156l-0.66,0.139l-0.66,0.133l-0.652,0.116l-0.652,0.102l-0.652,0.086l-0.638,0.077l-0.638,0.062
	l-0.629,0.047l-0.047-0.008l-0.076-0.039l-0.039-0.07v-0.085l0.021-0.077l0.072-0.087l0.054-0.046l0.124-0.101l0.162-0.116
	l0.357-0.265l0.365-0.281l0.375-0.309l0.38-0.327l0.372-0.349l0.381-0.374l0.373-0.396l0.365-0.404l0.357-0.428l0.35-0.442
	l0.342-0.458l0.326-0.475l0.312-0.488l0.287-0.498l0.271-0.513l0.249-0.521l0.225-0.527l0.195-0.545l0.17-0.542l0.139-0.561
	l0.103-0.56l0.07-0.567l0.032-0.566l-0.01-0.566l-0.046-0.575l-0.094-0.574l-0.141-0.576l-0.193-0.574l-0.231-0.568l-0.297-0.566
	l-0.34-0.567l-0.406-0.56l-0.194-0.241l-0.201-0.231l-0.203-0.226l-0.216-0.218l-0.227-0.209l-0.225-0.202l-0.242-0.194
	l-0.239-0.186l-0.07-0.047l-0.069-0.023h-0.063l-0.046,0.015l-0.024,0.054v0.079l0.062,0.101l0.234,0.264L214.049,136.626
	L214.049,136.626z M236.74,120.367l-0.078,0.016l-0.055-0.009l-0.054-0.023l-0.085-0.115l-0.039-0.079l-0.016-0.054l0.031-0.069
	l0.039-0.047l0.046-0.048l0.063-0.037l0.076-0.039l0.086-0.031l0.07-0.023l0.062-0.009l0.063,0.009l0.037,0.062l0.017,0.077
	l-0.009,0.056l-0.008,0.069l-0.023,0.07l-0.03,0.068l-0.047,0.063l-0.062,0.054L236.74,120.367z M236.717,119.342l-0.093,0.03
	l-0.103,0.023l-0.1,0.015l-0.093,0.017l-0.085,0.007l-0.07-0.007l-0.047-0.017l-0.023-0.047l0.038-0.062l0.056-0.054l0.07-0.056
	l0.085-0.045l0.093-0.056l0.094-0.038l0.085-0.032l0.085-0.023l0.086-0.014l0.078-0.01h0.07l0.053,0.01l0.047,0.014l0.047,0.04
	l0.009,0.046l-0.056,0.078l-0.1,0.086l-0.07,0.03l-0.07,0.04L236.717,119.342L236.717,119.342z M236.414,118.705l-0.092,0.037
	l-0.102,0.039l-0.109,0.031l-0.094,0.024l-0.093,0.015l-0.077,0.009l-0.054-0.009l-0.024-0.047l0.015-0.046l0.07-0.094l0.07-0.062
	l0.085-0.07l0.094-0.062l0.094-0.054l0.094-0.047l0.085-0.031l0.085-0.03l0.084-0.016l0.07-0.008l0.064,0.008l0.053,0.007
	l0.047,0.039l0.016,0.047l-0.016,0.047l-0.032,0.047l-0.038,0.047l-0.062,0.047l-0.063,0.045l-0.084,0.047L236.414,118.705z
	 M235.955,118.012l-0.086,0.054l-0.092,0.056l-0.102,0.047l-0.093,0.038l-0.085,0.032l-0.078,0.022l-0.055-0.009l-0.031-0.061
	l0.023-0.056l0.039-0.07l0.062-0.075l0.07-0.079l0.086-0.077l0.084-0.07l0.085-0.062l0.079-0.047l0.085-0.039l0.077-0.031
	l0.07-0.023l0.062-0.008h0.047l0.045,0.016l0.032,0.047l-0.007,0.062l-0.025,0.047l-0.029,0.061l-0.056,0.055l-0.054,0.054
	l-0.069,0.063l-0.085,0.054H235.955z M231.124,114.928l-0.015,0.062l-0.018,0.07l-0.015,0.062l-0.023,0.061l-0.023,0.055
	l-0.047,0.054l-0.046,0.023l-0.054-0.047l-0.024-0.045l-0.016-0.056l-0.016-0.07l-0.008-0.068v-0.062v-0.069l0.017-0.055
	l0.015-0.054l0.016-0.047l0.023-0.049l0.062-0.054l0.062-0.023l0.053,0.032l0.039,0.068l0.017,0.094v0.056V114.928L231.124,114.928z
	 M235.412,117.531l-0.094,0.055l-0.093,0.055l-0.103,0.047l-0.092,0.037l-0.086,0.032l-0.07,0.017h-0.053l-0.039-0.063l0.023-0.054
	l0.039-0.07l0.062-0.078l0.077-0.078l0.078-0.077l0.086-0.069l0.086-0.062l0.084-0.047l0.078-0.047l0.078-0.023l0.07-0.023
	l0.062-0.009h0.054l0.055,0.032l0.016,0.047v0.047l-0.023,0.047l-0.039,0.054l-0.047,0.062l-0.062,0.056l-0.069,0.061
	L235.412,117.531L235.412,117.531z"/>
</svg>
