<?xml version="1.0" encoding="utf-8"?>
<!-- Generator: Adobe Illustrator 16.2.1, SVG Export Plug-In . SVG Version: 6.00 Build 0)  -->
<!DOCTYPE svg PUBLIC "-//W3C//DTD SVG 1.1//EN" "http://www.w3.org/Graphics/SVG/1.1/DTD/svg11.dtd">
<svg version="1.1"
	 id="svg2" sodipodi:version="0.32" inkscape:output_extension="org.inkscape.output.svg.inkscape" sodipodi:docname="Air_India_Express_Logo.svg" inkscape:version="0.46" xmlns:inkscape="http://www.inkscape.org/namespaces/inkscape" xmlns:cc="http://creativecommons.org/ns#" xmlns:rdf="http://www.w3.org/1999/02/22-rdf-syntax-ns#" xmlns:sodipodi="http://sodipodi.sourceforge.net/DTD/sodipodi-0.dtd" xmlns:svg="http://www.w3.org/2000/svg" xmlns:dc="http://purl.org/dc/elements/1.1/"
	 xmlns="http://www.w3.org/2000/svg" xmlns:xlink="http://www.w3.org/1999/xlink" x="0px" y="0px" width="50px" height="50px"
	 viewBox="125.5 73.5 50 50" enable-background="new 125.5 73.5 50 50" xml:space="preserve">
<defs>
	
	
		<inkscape:perspective  inkscape:vp_z="1250 : 200 : 1" inkscape:vp_x="0 : 200 : 1" sodipodi:type="inkscape:persp3d" inkscape:vp_y="0 : 1000 : 0" id="perspective44" inkscape:persp3d-origin="625 : 133.33333 : 1">
		</inkscape:perspective>
</defs>
<sodipodi:namedview  id="base" objecttolerance="10.0" borderopacity="1.0" bordercolor="#666666" pagecolor="#ffffff" gridtolerance="10.0" guidetolerance="10.0" inkscape:cx="625" inkscape:zoom="0.4352" inkscape:cy="200" showgrid="false" inkscape:pageopacity="0.0" inkscape:window-height="669" inkscape:window-y="95" inkscape:window-width="640" inkscape:pageshadow="2" inkscape:current-layer="svg2" inkscape:window-x="115">
	</sodipodi:namedview>
<g id="_x23_d92b24ff">
	<path id="path5" fill="#D92B24" d="M127.871,89.536h2.16c0.132,0.637,0.264,1.273,0.395,1.911c-0.467,0-0.934,0-1.401,0
		c-0.049-0.251-0.102-0.501-0.148-0.752c-0.3-0.006-0.6-0.005-0.899,0c-0.224,0.253-0.452,0.501-0.679,0.752
		c-0.407,0-0.813,0.001-1.22-0.001C126.676,90.81,127.271,90.169,127.871,89.536 M128.341,90.288c0.146,0,0.291,0,0.437,0
		c-0.028-0.134-0.057-0.268-0.086-0.401C128.573,90.02,128.458,90.154,128.341,90.288z"/>
	<path id="path7" fill="#D92B24" d="M131.682,89.536h1.487c-0.244,0.635-0.475,1.274-0.714,1.911c-0.495,0-0.989,0-1.484,0
		C131.208,90.81,131.439,90.171,131.682,89.536z"/>
	<path id="path9" fill="#D92B24" d="M134.128,89.536h3.023c0.219,0.024,0.498,0.113,0.554,0.354
		c-0.041,0.17-0.102,0.336-0.179,0.491c-0.1,0.129-0.279,0.148-0.424,0.196c0.099,0.064,0.265,0.113,0.259,0.258
		c-0.057,0.209-0.149,0.407-0.22,0.612c-0.493-0.001-0.985,0.001-1.478,0c0.083-0.223,0.17-0.442,0.249-0.666
		c-0.212-0.162-0.499-0.068-0.745-0.093c-0.098,0.254-0.194,0.506-0.292,0.759c-0.485,0-0.971,0-1.456,0
		C133.654,90.81,133.891,90.173,134.128,89.536 M135.32,90.288c0.234-0.007,0.47,0.016,0.703-0.014
		c0.123-0.014,0.143-0.146,0.179-0.24c-0.2-0.183-0.503-0.063-0.747-0.097C135.41,90.054,135.364,90.17,135.32,90.288z"/>
	<path id="path11" fill="#D92B24" d="M142.456,89.536h1.487c-0.243,0.635-0.475,1.274-0.715,1.911c-0.494,0-0.988,0-1.482,0
		C141.982,90.81,142.214,90.171,142.456,89.536z"/>
	<path id="path13" fill="#D92B24" d="M144.901,89.536h1.114c0.347,0.313,0.687,0.637,1.032,0.953
		c0.121-0.317,0.231-0.638,0.355-0.953h1.011c-0.242,0.635-0.475,1.274-0.714,1.911c-0.385-0.005-0.771,0.01-1.155-0.006
		c-0.364-0.297-0.693-0.639-1.045-0.951c-0.117,0.318-0.232,0.638-0.349,0.957c-0.319,0-0.638,0-0.958,0
		C144.428,90.81,144.664,90.173,144.901,89.536z"/>
	<path id="path15" fill="#D92B24" d="M149.361,89.536h3.034c0.193,0.026,0.405,0.09,0.517,0.263c0.063,0.083,0.003,0.185-0.021,0.27
		c-0.135,0.353-0.262,0.71-0.397,1.062c-0.051,0.155-0.206,0.238-0.355,0.274c-0.239,0.056-0.485,0.044-0.728,0.046
		c-0.924-0.001-1.848,0-2.771-0.001C148.881,90.812,149.119,90.174,149.361,89.536 M150.679,89.942
		c-0.132,0.373-0.281,0.738-0.42,1.107c0.218-0.005,0.437,0.009,0.654-0.008c0.078-0.002,0.16-0.045,0.181-0.127
		c0.116-0.293,0.231-0.585,0.343-0.881C151.231,89.853,150.927,89.965,150.679,89.942z"/>
	<path id="path17" fill="#D92B24" d="M153.945,89.536h1.487c-0.243,0.635-0.476,1.274-0.715,1.911c-0.494,0-0.988,0-1.482,0
		C153.473,90.81,153.703,90.171,153.945,89.536z"/>
	<path id="path19" fill="#D92B24" d="M157.151,89.536h2.159c0.132,0.637,0.265,1.273,0.396,1.911
		c-0.469-0.003-0.938,0.005-1.406-0.004c-0.047-0.251-0.099-0.5-0.148-0.75c-0.296-0.002-0.593,0-0.889-0.002
		c-0.23,0.252-0.457,0.505-0.688,0.756c-0.405-0.001-0.812,0.001-1.218,0C155.957,90.81,156.55,90.169,157.151,89.536
		 M157.967,89.889c-0.115,0.134-0.23,0.266-0.345,0.398c0.145,0.001,0.289,0.001,0.436,0.001
		C158.03,90.154,158,90.021,157.967,89.889z"/>
	<path id="path21" fill="#D92B24" d="M139.13,90.665c0.042-0.114,0.085-0.23,0.129-0.345c0.365,0.002,0.729,0,1.095,0.001
		c-0.042,0.115-0.084,0.229-0.126,0.344C139.862,90.665,139.496,90.665,139.13,90.665z"/>
	<path id="path23" fill="#D92B24" d="M161.842,94.306c0.478-0.541,1.204-0.78,1.906-0.828c0.866-0.063,1.803,0.06,2.508,0.607
		c0.455,0.347,0.648,0.918,0.741,1.462c-0.413,0.06-0.827,0.119-1.239,0.179c-0.055-0.346-0.194-0.696-0.482-0.912
		c-0.394-0.297-0.916-0.326-1.391-0.297c-0.398,0.025-0.831,0.11-1.116,0.414c-0.252,0.255-0.284,0.704-0.046,0.979
		c0.154,0.188,0.393,0.271,0.616,0.348c0.78,0.259,1.589,0.422,2.37,0.681c0.311,0.104,0.629,0.212,0.888,0.42
		c0.312,0.234,0.529,0.578,0.629,0.954c0.782-0.316,1.553-0.66,2.316-1.017c0.246,0.104,0.492,0.225,0.759,0.269
		c0.102-0.02,0.186-0.085,0.274-0.135c0.406-0.239,0.813-0.479,1.203-0.747l0.022,0.063c0-0.063,0.002-0.125,0.005-0.188
		l-0.019,0.076c-0.204-0.058-0.409-0.111-0.614-0.166c0.567-0.311,1.128-0.635,1.671-0.984c-0.087-0.258-0.22-0.512-0.444-0.675
		c-0.383-0.287-0.887-0.32-1.348-0.295c-0.391,0.024-0.812,0.097-1.106,0.374c-0.235,0.21-0.317,0.569-0.191,0.857
		c0.087,0.201,0.272,0.342,0.472,0.421c0.307,0.125,0.628,0.209,0.945,0.303c-0.539,0.286-1.084,0.561-1.633,0.827
		c-0.234-0.134-0.457-0.294-0.627-0.506c-0.578-0.693-0.543-1.805,0.056-2.474c0.41-0.471,1.019-0.725,1.628-0.807
		c0.64-0.085,1.304-0.064,1.923,0.126c0.548,0.169,1.076,0.497,1.346,1.021c0,0.062,0.001,0.122,0.003,0.184l-0.033-0.029
		c-0.318,0.243-0.659,0.456-0.992,0.679c0.017,0.078,0.033,0.157,0.052,0.236c0.095-0.015,0.191-0.027,0.288-0.041
		c-0.318,0.246-0.643,0.484-0.973,0.713c-0.124,0.083-0.241,0.185-0.391,0.215c0.576,0.228,1.21,0.313,1.75,0.632
		c0.419,0.252,0.727,0.684,0.812,1.167c0.108,0.6-0.003,1.253-0.373,1.746c-0.464,0.633-1.236,0.964-1.999,1.051
		c-0.89,0.097-1.861,0.038-2.627-0.474c-0.634-0.421-0.979-1.153-1.104-1.885c0.413-0.059,0.827-0.116,1.24-0.176
		c0.052,0.314,0.145,0.629,0.34,0.885c0.458,0.604,1.298,0.709,2.001,0.619c0.371-0.046,0.747-0.184,1.005-0.465
		c0.253-0.264,0.344-0.678,0.207-1.019c-0.102-0.239-0.331-0.393-0.567-0.478c-0.635-0.236-1.305-0.355-1.949-0.56
		c-0.081-0.025-0.164-0.052-0.248-0.06c-0.122,0.034-0.228,0.109-0.339,0.168c-0.873,0.477-1.774,0.901-2.689,1.291
		c-0.041,0.426-0.188,0.847-0.464,1.178c-0.467,0.578-1.196,0.886-1.921,0.971c-0.849,0.102-1.757,0.038-2.512-0.395
		c-2.025,0.613-4.062,1.19-6.113,1.718c-4.4,1.127-8.836,2.218-13.372,2.632c-1.962,0.173-3.927,0.328-5.896,0.412h-3.153
		c-1.718-0.074-3.434-0.279-5.109-0.671c-1.005-0.251-2.051-0.669-2.677-1.538c0.422,0.293,0.896,0.5,1.38,0.671
		c0.906,0.315,1.851,0.508,2.799,0.646c1.551,0.221,3.12,0.285,4.686,0.277c3.307-0.031,6.603-0.391,9.869-0.896
		c2.457-0.382,4.9-0.852,7.329-1.383c2.041-0.439,4.067-0.943,6.095-1.438c1.181-0.296,2.351-0.632,3.517-0.982
		c0.183,0.218,0.402,0.402,0.645,0.552c0.626-0.195,1.25-0.399,1.873-0.604c-0.433-0.008-0.872-0.104-1.232-0.353
		c-0.43,0.13-0.857,0.27-1.286,0.404c-0.316-0.407-0.502-0.902-0.593-1.408c0.413-0.058,0.826-0.116,1.24-0.175
		c0.064,0.452,0.259,0.901,0.633,1.18c0.996-0.325,1.982-0.684,2.969-1.039c-0.11-0.392-0.498-0.584-0.859-0.684
		c-0.7-0.219-1.422-0.363-2.116-0.601c-0.286-0.098-0.574-0.199-0.825-0.371c-0.374-0.252-0.657-0.641-0.764-1.079
		C161.274,95.467,161.408,94.774,161.842,94.306 M165.987,98.802c0.038,0.304-0.02,0.618-0.215,0.861
		c0.5-0.196,1.001-0.394,1.497-0.602c0.031-0.251,0.009-0.503-0.045-0.748C166.814,98.479,166.402,98.645,165.987,98.802
		 M164.273,100.196c0.535,0.025,1.133-0.102,1.493-0.529C165.269,99.843,164.773,100.025,164.273,100.196z"/>
	<path id="path25" fill="#D92B24" d="M173.883,94.795c0.555-0.433,1.106-0.869,1.617-1.353c-0.506,0.51-0.99,1.041-1.509,1.538
		C173.964,94.934,173.91,94.841,173.883,94.795z"/>
	<path id="path27" fill="#D92B24" d="M127.439,93.783c0.673-0.315,1.447-0.387,2.175-0.266c0.934,0.159,1.777,0.77,2.224,1.604
		c0.416,0.777,0.506,1.684,0.471,2.553c-1.841,0.001-3.682-0.001-5.523,0.001c0.035,0.48,0.122,0.967,0.35,1.396
		c0.288,0.561,0.841,0.98,1.462,1.095c0.509,0.092,1.066,0.026,1.501-0.27c0.435-0.289,0.705-0.763,0.88-1.242
		c0.429,0.056,0.857,0.116,1.286,0.175c-0.191,0.704-0.569,1.383-1.173,1.813c-0.78,0.56-1.794,0.686-2.727,0.559
		c-0.858-0.114-1.669-0.573-2.179-1.277c-0.475-0.647-0.647-1.461-0.687-2.249v-0.529c0.036-0.604,0.128-1.215,0.379-1.77
		C126.184,94.679,126.754,94.108,127.439,93.783 M127.579,95.024c-0.459,0.4-0.684,1.01-0.715,1.608c1.379,0,2.759,0,4.138,0
		c-0.045-0.459-0.141-0.931-0.409-1.315c-0.254-0.346-0.621-0.613-1.035-0.729C128.881,94.398,128.1,94.537,127.579,95.024z"/>
	<path id="path29" fill="#D92B24" d="M143.089,93.742c0.519-0.281,1.134-0.327,1.709-0.24c0.738,0.11,1.429,0.522,1.861,1.132
		c0.534,0.723,0.749,1.633,0.762,2.52c0.019,0.913-0.125,1.869-0.634,2.646c-0.548,0.828-1.48,1.434-2.491,1.447
		c-0.782,0.04-1.555-0.337-2.04-0.943c0,1.209,0,2.419,0,3.628c-0.415,0.001-0.83,0.001-1.245,0c0-3.438,0-6.875,0-10.312
		c0.385-0.001,0.771,0,1.156,0c0,0.329,0,0.657,0,0.987C142.413,94.262,142.71,93.94,143.089,93.742 M143.866,94.486
		c-0.543,0.107-0.978,0.514-1.268,0.968c-0.421,0.704-0.475,1.557-0.433,2.355c0.042,0.692,0.224,1.437,0.764,1.913
		c0.42,0.402,1.046,0.575,1.612,0.434c0.465-0.114,0.855-0.441,1.122-0.831c0.315-0.478,0.423-1.058,0.459-1.619
		c0.029-0.569,0.007-1.149-0.148-1.702c-0.116-0.424-0.344-0.822-0.681-1.108C144.912,94.553,144.372,94.396,143.866,94.486z"/>
	<path id="path31" fill="#D92B24" d="M151.207,93.542c0.593-0.202,1.236,0.009,1.754,0.317c-0.142,0.394-0.278,0.788-0.423,1.18
		c-0.323-0.187-0.699-0.307-1.075-0.256c-0.439,0.052-0.844,0.353-1,0.77c-0.197,0.527-0.272,1.093-0.273,1.653
		c-0.002,1.287,0,2.575-0.001,3.862c-0.414,0.001-0.827,0-1.24,0c-0.002-2.481,0.001-4.964-0.002-7.446
		c0.377-0.008,0.755-0.002,1.133-0.003c0,0.38,0,0.761,0.001,1.141C150.359,94.284,150.654,93.737,151.207,93.542z"/>
	<path id="path33" fill="#D92B24" d="M155.921,93.541c0.671-0.134,1.386-0.106,2.028,0.139c0.757,0.292,1.398,0.884,1.733,1.625
		c0.336,0.738,0.412,1.568,0.376,2.371c-1.84-0.001-3.681-0.001-5.521,0c0.034,0.483,0.124,0.974,0.354,1.406
		c0.293,0.559,0.848,0.978,1.472,1.087c0.518,0.091,1.084,0.017,1.519-0.293c0.418-0.292,0.677-0.753,0.849-1.222
		c0.429,0.058,0.857,0.116,1.286,0.175c-0.189,0.712-0.577,1.394-1.188,1.823c-0.793,0.563-1.823,0.681-2.765,0.542
		c-0.92-0.135-1.779-0.674-2.263-1.473c-0.43-0.707-0.557-1.553-0.549-2.368c0.007-0.798,0.141-1.62,0.553-2.315
		C154.261,94.274,155.048,93.716,155.921,93.541 M155.312,95.042c-0.448,0.4-0.668,1.001-0.698,1.591c1.379,0,2.759,0,4.139-0.001
		c-0.056-0.555-0.191-1.149-0.61-1.548C157.411,94.324,156.069,94.315,155.312,95.042z"/>
	<path id="path35" fill="#D92B24" d="M133.281,93.618c0.51-0.001,1.02,0.003,1.53-0.001c0.562,0.841,1.127,1.681,1.658,2.543
		c0.591-0.847,1.177-1.696,1.769-2.542c0.504,0.002,1.009,0,1.514,0.001c-0.837,1.168-1.674,2.335-2.512,3.503
		c0.912,1.316,1.825,2.631,2.737,3.946c-0.512,0-1.023,0.001-1.535,0c-0.643-0.979-1.292-1.955-1.931-2.938
		c-0.646,0.979-1.291,1.961-1.938,2.938c-0.505,0-1.011,0.001-1.516,0c0.897-1.293,1.796-2.585,2.696-3.877
		C134.93,96,134.105,94.811,133.281,93.618z"/>
	<path id="path37" fill="#D92B24" d="M173.186,95.684c0.28-0.219,0.543-0.46,0.805-0.7c0.058,0.185,0.104,0.373,0.141,0.563
		C173.815,95.593,173.501,95.638,173.186,95.684z"/>
</g>
</svg>
