<?xml version="1.0" encoding="utf-8"?>
<!-- Generator: Adobe Illustrator 16.2.1, SVG Export Plug-In . SVG Version: 6.00 Build 0)  -->
<!DOCTYPE svg PUBLIC "-//W3C//DTD SVG 1.1//EN" "http://www.w3.org/Graphics/SVG/1.1/DTD/svg11.dtd">
<svg version="1.1" id="Ebene_1" xmlns="http://www.w3.org/2000/svg" xmlns:xlink="http://www.w3.org/1999/xlink" x="0px" y="0px"
	 width="50px" height="50px" viewBox="-28.516 28.417 50 50" enable-background="new -28.516 28.417 50 50" xml:space="preserve">
<path fill="#122476" d="M21.03,38.028l-11.81,8.627c3.351,1.541,5.422,3.673,5.422,6.027c0,4.703-8.256,8.514-18.437,8.514
	c-2.178,0-4.26-0.183-6.199-0.502l-11.104,8.112h42.581V38.028H21.03z"/>
<path fill="#D4011D" d="M-1.079,59.021c-2.785-0.131-9.04-1.744-9.04-7.709c0-6.345,8.063-6.182,8.063-6.182
	c-2.805,0.86-4.828,2.832-4.835,5.229c-0.01,6.536,9.102,8.339,16.104,7.39C9.214,57.752,6.5,59.383-1.079,59.021L-1.079,59.021z"/>
<path fill="#14267B" d="M-3.373,55.162c-1.434-1.178-2.322-2.758-2.317-4.802c0-0.106,0.005-0.213,0.011-0.318l0.005,0.003
	c4.161,0.132,8.252,0.927,8.252,2.599C2.576,54.27-0.407,54.896-3.373,55.162L-3.373,55.162L-3.373,55.162z"/>
<path fill="#14267B" d="M9.884,51.326h-8.35v0.422h8.35V51.326z M2.172,52.318v0.421h8.926v-0.421H2.172z M1.81,53.827h7.601v-0.422
	H1.81V53.827z M-10.905,53.788c-1.438-0.051-4.065-0.243-4.065-0.929c0-0.632,2.178-0.993,3.647-1.165c0,0,0.028-0.203,0.035-0.782
	c0.005-0.581,0.078-0.775,0.078-0.775c-4.344,0.357-8.031,1.516-8.031,2.529c0,1.318,5.363,2.525,9.231,2.699
	c0,0-0.288-0.365-0.494-0.764C-10.8,54.022-10.905,53.788-10.905,53.788z"/>
<path fill="#D4011D" d="M-22.232,52.683c0-4.699,8.253-8.514,18.438-8.514c4.366,0,8.372,0.706,11.532,1.878l11.021-8.019h-47.275
	v30.778h4.978l11.653-8.48C-18.007,58.941-22.232,56.044-22.232,52.683z"/>
</svg>
