<?xml version="1.0" encoding="utf-8"?>
<!-- Generator: Adobe Illustrator 16.2.1, SVG Export Plug-In . SVG Version: 6.00 Build 0)  -->
<!DOCTYPE svg PUBLIC "-//W3C//DTD SVG 1.1//EN" "http://www.w3.org/Graphics/SVG/1.1/DTD/svg11.dtd">
<svg version="1.1" id="Layer_1" xmlns="http://www.w3.org/2000/svg" xmlns:xlink="http://www.w3.org/1999/xlink" x="0px" y="0px"
	 width="50px" height="50px" viewBox="197.5 143.5 50 50" enable-background="new 197.5 143.5 50 50" xml:space="preserve">
<path fill="#028DAA" d="M227.611,166.375v-1.282c0.263-0.039,0.519-0.146,0.766-0.324c0.239-0.17,0.395-0.387,0.463-0.642
	c0.055-0.162,0.078-0.479,0.078-0.942v-0.387c-0.247,0.085-0.641,0.186-1.182,0.302c-0.039,0.008-0.085,0.016-0.124,0.022v-1.221
	c0.603-0.131,1.035-0.247,1.306-0.362v-0.193c0-0.371-0.093-0.634-0.277-0.796c-0.178-0.155-0.526-0.24-1.029-0.24v-1.476
	c0.039,0,0.085,0,0.124,0c0.866,0,1.506,0.101,1.932,0.302c0.426,0.208,0.718,0.463,0.889,0.78c0.178,0.317,0.263,0.896,0.263,1.73
	l-0.024,2.265c0,0.642,0.031,1.112,0.093,1.421c0.062,0.302,0.178,0.635,0.347,0.981h-1.916c-0.046-0.131-0.108-0.324-0.186-0.571
	c-0.031-0.116-0.054-0.193-0.07-0.232c-0.325,0.325-0.68,0.564-1.058,0.727C227.881,166.29,227.742,166.337,227.611,166.375z
	 M202.522,158.834c0.039,0,0.077,0,0.124,0c0.866,0,1.507,0.101,1.932,0.302c0.417,0.208,0.719,0.463,0.889,0.78
	s0.263,0.896,0.263,1.73l-0.023,2.265c0,0.642,0.031,1.112,0.093,1.421c0.062,0.302,0.178,0.635,0.348,0.981h-1.916
	c-0.046-0.131-0.108-0.324-0.186-0.571c-0.031-0.116-0.055-0.193-0.07-0.232c-0.333,0.325-0.68,0.564-1.059,0.727
	c-0.131,0.054-0.263,0.101-0.394,0.139v-1.282c0.263-0.039,0.518-0.146,0.765-0.324c0.24-0.17,0.387-0.387,0.464-0.642
	c0.046-0.162,0.069-0.479,0.069-0.942v-0.387c-0.239,0.085-0.633,0.186-1.174,0.302c-0.046,0.008-0.085,0.016-0.124,0.022v-1.221
	c0.595-0.131,1.036-0.247,1.298-0.362v-0.193c0-0.371-0.085-0.634-0.271-0.796c-0.185-0.155-0.525-0.24-1.027-0.24V158.834
	L202.522,158.834z M227.611,158.834v1.476c-0.008,0-0.008,0-0.008,0c-0.347,0-0.618,0.07-0.811,0.209
	c-0.193,0.132-0.347,0.371-0.464,0.711l-1.761-0.317c0.201-0.711,0.541-1.229,1.021-1.568
	C226.051,159.02,226.723,158.85,227.611,158.834L227.611,158.834z M227.611,161.901v1.221c-0.464,0.109-0.772,0.209-0.927,0.31
	c-0.255,0.178-0.378,0.41-0.378,0.68c0,0.278,0.1,0.51,0.301,0.703c0.202,0.201,0.464,0.302,0.772,0.302
	c0.078,0,0.155-0.008,0.232-0.023v1.282c-0.262,0.07-0.524,0.101-0.811,0.101c-0.749,0-1.344-0.201-1.777-0.609
	c-0.433-0.41-0.65-0.928-0.65-1.554c0-0.409,0.094-0.78,0.294-1.104c0.194-0.325,0.471-0.572,0.827-0.742
	c0.355-0.17,0.873-0.325,1.545-0.448C227.24,161.979,227.434,161.94,227.611,161.901L227.611,161.901z M209.484,166.313h-1.932
	v-7.316h1.793v1.043c0.309-0.495,0.587-0.819,0.834-0.974c0.248-0.154,0.525-0.232,0.834-0.232c0.44,0,0.866,0.116,1.275,0.363
	l-0.595,1.685c-0.324-0.209-0.633-0.316-0.912-0.316c-0.271,0-0.502,0.076-0.688,0.224c-0.193,0.154-0.34,0.425-0.448,0.812
	c-0.108,0.394-0.163,1.205-0.163,2.449V166.313L209.484,166.313z M213.054,166.313v-10.099h1.94v5.354l2.264-2.572h2.38
	l-2.496,2.673l2.673,4.644h-2.086l-1.839-3.284l-0.896,0.943v2.341H213.054L213.054,166.313z M220.958,158.007v-1.792h1.94v1.792
	H220.958L220.958,158.007z M220.958,166.313v-7.316h1.94v7.316H220.958z M201.232,161.229l-1.754-0.317
	c0.201-0.711,0.541-1.229,1.02-1.568c0.464-0.324,1.136-0.494,2.024-0.51v1.476c-0.008,0-0.008,0-0.016,0
	c-0.34,0-0.61,0.07-0.804,0.209C201.51,160.65,201.355,160.89,201.232,161.229L201.232,161.229z M202.522,166.375
	c-0.263,0.07-0.533,0.101-0.811,0.101c-0.75,0-1.345-0.201-1.777-0.609c-0.441-0.41-0.657-0.928-0.657-1.554
	c0-0.409,0.1-0.78,0.301-1.104c0.193-0.325,0.471-0.572,0.827-0.742s0.873-0.325,1.538-0.448c0.208-0.038,0.402-0.077,0.58-0.116
	v1.221c-0.471,0.109-0.773,0.209-0.927,0.31c-0.255,0.178-0.379,0.41-0.379,0.68c0,0.278,0.101,0.51,0.301,0.703
	c0.201,0.201,0.457,0.302,0.773,0.302c0.077,0,0.154-0.008,0.232-0.023V166.375z"/>
<path fill="#028DAA" d="M219.15,169.195c-0.023,0-0.039,0-0.054,0c-2.596,0-5.192,0-7.781,0c-0.023,0-0.039,0-0.054,0
	c0,0.008,0,0.017,0,0.023c0,0.016,0,0.031,0,0.055c-1.453,0-2.905,0-4.35,0c0-0.031,0-0.055,0-0.078
	c-1.824-0.068-3.647-0.046-5.463,0.093c-1.885-0.093-1.939-0.146-2.318-0.146c-0.054,0-0.108,0-0.162,0
	c-0.495,0.008-0.981,0.016-1.468,0.023c0-0.031,0-0.055,0-0.077c0-0.085,0-0.163,0-0.239c0-0.024,0-0.039,0-0.055
	c0-0.023,0-0.038,0-0.054c0.541,0.008,1.082,0.016,1.63,0.022c0.015,0,0.031,0,0.054,0c0.031-0.1,0.069-0.2,0.108-0.293
	c1.035-0.046,1.035-0.046,1.205-0.108c-0.008-0.03-0.016-0.055-0.023-0.077c-0.139-0.046-0.271-0.093-0.402-0.139
	c-0.039-0.31,0.51-0.201,0.726-0.217c0.518-0.008,1.036-0.016,1.553-0.023c1.089-0.023,2.179-0.038,3.276-0.054
	c0.494,0,0.997,0,1.499,0c1.189-0.07,1.189-0.07,1.715-0.163c0.533,0,1.074,0,1.615,0c0.34,0.055,0.68,0.109,1.02,0.163
	c0.518,0,1.036,0,1.554,0c2.403-0.108,4.813-0.209,7.216-0.31c2.512,0.031,5.022,0.325,7.534,0.418c0-0.016,0-0.023,0-0.031
	c0.41-0.008,0.819-0.016,1.229-0.023c0.897-0.023,1.792-0.038,2.688-0.054c0.317-0.008,0.642-0.016,0.966-0.023
	c0-0.03,0-0.03,1.283-0.03c1.437-0.017,1.437-0.017,1.584,0.022c0.016,0.154,0.016,0.154,0.084,0.247
	c2.805-0.008,5.61-0.008,8.416-0.008c0.007,0.017,0.015,0.039,0.03,0.062c0.186-0.023,0.371-0.039,0.564-0.055
	c0.178,0.178,1.978,0.146,2.311,0.163c0.178,0.008,0.441-0.047,0.564,0.076c0,0.024,0,0.047,0,0.078c-0.139,0-0.271,0-0.401,0
	c-0.417,0.015-0.827,0.031-1.237,0.054c0,0.023,0,0.054,0,0.085c-1.251,0.016-2.503,0.031-3.755,0.054c0,0.017,0,0.031,0,0.055
	c-0.34,0-0.68,0-1.02,0c0,0.015,0,0.031,0,0.055c0.069,0,0.139,0,0.217,0c0,0.038,0,0.084,0,0.131c0.131,0,0.2-0.016,0.292,0.077
	c-0.186,0.186-0.61,0.077-0.888,0.14c0,0.022,0,0.046,0,0.076c-0.41-0.008-0.819-0.015-1.229-0.022c-0.077,0-0.146,0-0.216,0
	c-0.811,0.008-1.615,0.015-2.419,0.022c-0.95,0.009-1.9,0.017-2.842,0.031c-0.024,0-0.04,0-0.055,0
	c-0.038,0.008-0.077,0.016-0.108,0.023c0,0.016,0,0.03,0,0.054c-1.251,0-2.504,0-3.755,0c0-0.023,0-0.038,0-0.054
	c-0.835-0.069-1.6,0.038-2.427,0.201c-0.942,0-1.02-0.031-2.511-0.062C223.864,169.296,223.161,169.242,219.15,169.195z"/>
<path fill="#FF8C00" d="M209.832,180.786v-7.332h0.989v7.332H209.832L209.832,180.786z M209.832,173.105h2.975
	c0,0,0.71,0,0.71,1.128c0,0.286,0.016,1.746,0.016,1.746s0.031,1.06-1.012,1.09c-0.139,0-1.329,0-1.329,0v1.815h1.662
	c0,0,2.673,0,2.673-2.92c0-0.456,0-2.141,0-2.141s-0.293-2.248-2.75-2.58c-0.324,0-1.886,0-2.944,0V173.105L209.832,173.105z
	 M227.642,171.244v1.861h-2.125c0,0-1.538,0-1.746,1.84c-0.015,0.362-0.015,1.622,1.623,2.155c0.154-0.016,2.248-0.031,2.248-0.031
	v1.815h-2.789c0,0-1.477-0.432-2.132-1.699v1.699h-1.986v-7.641h1.986v1.63c0.007-0.008,0.015-0.023,0.022-0.039
	c0.186-0.185,0.981-1.437,2.503-1.591C226.77,171.244,227.642,171.244,227.642,171.244L227.642,171.244z M215.526,171.244h1.994
	c0,0,2.318,0.2,2.774,2.21c0,0.733,0,5.431,0,5.431h-1.978v-4.798c0,0,0.201-0.804-0.834-0.981c-0.317,0-1.955,0-1.955,0V171.244z
	 M206.409,171.244h1.917v4.265h-1.917V171.244L206.409,171.244z M209.832,171.244v1.861h-0.997v-1.861
	C208.835,171.244,209.26,171.244,209.832,171.244L209.832,171.244z M209.832,173.454v7.332h-0.997v-7.332H209.832L209.832,173.454z
	 M198.628,177.022h1.282c0,0,0.085-0.015,0-0.154c-0.077-0.146-0.456-0.354-0.332-1.73c0-0.302,0-3.894,0-3.894h1.839v4.813
	c0,0,0.224,0.889,1.321,0.811c0.155,0,1.267-0.123,1.375-1.112c0-0.247,0-4.512,0-4.512h1.708v4.982c0,0,0,2.087-2.596,2.658
	c-0.17,0-4.597,0-4.597,0V177.022z"/>
</svg>
