<?xml version="1.0" encoding="utf-8"?>
<!-- Generator: Adobe Illustrator 16.2.1, SVG Export Plug-In . SVG Version: 6.00 Build 0)  -->
<!DOCTYPE svg PUBLIC "-//W3C//DTD SVG 1.1//EN" "http://www.w3.org/Graphics/SVG/1.1/DTD/svg11.dtd">
<svg version="1.1" id="svg2367" xmlns:svg="http://www.w3.org/2000/svg"
	 xmlns="http://www.w3.org/2000/svg" xmlns:xlink="http://www.w3.org/1999/xlink" x="0px" y="0px" width="50px" height="50px"
	 viewBox="393.414 106.031 50 50" enable-background="new 393.414 106.031 50 50" xml:space="preserve">
<path id="path3" fill="#009EE0" d="M394.784,135.624c7.125-1.666,14.252-4.231,21.378-8.77c6.751-4.786,11.073-10.636,14.292-16.971
	c1.237,0.94,2.471,1.88,3.708,2.82c-1.588,3.451-2.79,7.289-2.61,12.507c-3.031,2.269-6.062,3.999-9.094,4.943
	c1.631,0.279,5.2-0.603,9.046-1.65c-0.005,1.002-0.008,2.007-0.015,3.011c-12.262,1.646-24.525,3.291-36.789,4.938L394.784,135.624
	L394.784,135.624z"/>
<path id="path5" fill="#E2001A" d="M394.787,136.668c12.263-1.552,24.529-3.101,36.791-4.652c0.322,2.189,0.806,4.379,1.401,6.567
	c-12.754-0.353-25.508-0.708-38.261-1.061C394.741,137.238,394.764,136.952,394.787,136.668L394.787,136.668z"/>
<path id="path7" fill="#009036" d="M394.787,137.736c12.774,0.461,25.547,0.925,38.323,1.385c0.529,2.466,1.925,4.795,3.742,7.383
	l-0.485,0.674c-3.874-4.194-10.153-5.278-16.45-6.339c-8.628-1.262-17.002-2.017-25.129-2.279
	C394.787,138.284,394.787,138.009,394.787,137.736L394.787,137.736z"/>
<path id="path9" fill="#009EE0" d="M418.414,106.031L418.414,106.031v0.003c6.886,0,13.136,2.807,17.665,7.334
	c4.526,4.526,7.332,10.775,7.332,17.661h0.003v0.002v0.002h-0.003c0,6.886-2.806,13.136-7.334,17.662
	c-4.526,4.526-10.774,7.334-17.661,7.334v0.002h-0.001l0,0v-0.002c-6.888,0-13.137-2.808-17.665-7.334
	c-4.526-4.527-7.333-10.776-7.334-17.661h-0.001v-0.003v-0.002h0.002c0-6.886,2.807-13.135,7.334-17.662
	c4.526-4.526,10.775-7.333,17.66-7.334v-0.002H418.414L418.414,106.031z M418.414,107.115v0.002l0,0h-0.003v-0.002
	c-6.582,0-12.56,2.688-16.893,7.019c-4.333,4.334-7.021,10.312-7.021,16.896h0.002v0.002v0.003h-0.002
	c0.001,6.582,2.688,12.561,7.02,16.894c4.333,4.332,10.312,7.021,16.897,7.021v-0.004l0,0h0.003v0.004
	c6.582-0.002,12.559-2.689,16.893-7.021c4.333-4.334,7.02-10.312,7.02-16.896h-0.001v-0.002v-0.002h0.001
	c0-6.583-2.687-12.562-7.018-16.895C430.977,109.803,424.999,107.115,418.414,107.115L418.414,107.115z"/>
<path id="path11" fill="#009EE0" d="M402.602,120.307h-1.649l-0.197,0.456c-0.064,0.151-0.096,0.275-0.096,0.374
	c0,0.132,0.053,0.229,0.159,0.29c0.061,0.037,0.214,0.065,0.458,0.085v0.125h-1.554v-0.125c0.167-0.028,0.306-0.097,0.414-0.21
	c0.107-0.114,0.242-0.349,0.399-0.705l1.671-3.728h0.066l1.684,3.832c0.161,0.362,0.293,0.591,0.396,0.685
	c0.079,0.072,0.188,0.112,0.331,0.126v0.125h-2.26v-0.125h0.093c0.181,0,0.309-0.028,0.382-0.078
	c0.05-0.036,0.077-0.088,0.077-0.158c0-0.042-0.007-0.085-0.021-0.127c-0.005-0.021-0.039-0.107-0.104-0.259L402.602,120.307
	L402.602,120.307z M402.484,120.052l-0.695-1.608l-0.717,1.608H402.484L402.484,120.052z M409.068,116.966l-2.745,4.409h0.889
	c0.419,0,0.714-0.026,0.881-0.078c0.273-0.083,0.51-0.236,0.708-0.456c0.198-0.223,0.333-0.52,0.409-0.892h0.133l-0.188,1.689
	h-4.278l2.75-4.418h-0.693c-0.269,0-0.445,0.009-0.53,0.024c-0.161,0.029-0.312,0.088-0.454,0.178
	c-0.141,0.088-0.258,0.205-0.352,0.354c-0.093,0.146-0.166,0.332-0.219,0.557h-0.127l0.127-1.367H409.068L409.068,116.966z
	 M412.403,120.307h-1.649l-0.197,0.456c-0.065,0.151-0.096,0.275-0.096,0.374c0,0.132,0.052,0.229,0.158,0.29
	c0.06,0.037,0.213,0.065,0.457,0.085v0.125h-1.553v-0.125c0.167-0.028,0.305-0.097,0.412-0.21c0.108-0.114,0.242-0.349,0.4-0.705
	l1.671-3.728h0.065l1.683,3.832c0.163,0.362,0.293,0.591,0.397,0.685c0.078,0.072,0.189,0.112,0.332,0.126v0.125h-2.261v-0.125
	h0.093c0.183,0,0.31-0.028,0.383-0.078c0.05-0.036,0.076-0.088,0.076-0.158c0-0.042-0.006-0.085-0.021-0.127
	c-0.005-0.021-0.039-0.107-0.103-0.259L412.403,120.307L412.403,120.307z M412.286,120.052l-0.695-1.608l-0.718,1.608H412.286
	L412.286,120.052z M419.018,119.998l-0.176,1.641h-4.149v-0.127h0.156c0.135,0,0.244-0.026,0.326-0.073
	c0.062-0.033,0.107-0.088,0.14-0.166c0.024-0.056,0.038-0.199,0.038-0.435v-3.073c0-0.237-0.013-0.388-0.038-0.447
	c-0.026-0.061-0.076-0.111-0.154-0.156c-0.077-0.044-0.181-0.067-0.311-0.067h-0.156v-0.128h2.492v0.128h-0.203
	c-0.137,0-0.244,0.023-0.329,0.072c-0.059,0.032-0.104,0.086-0.14,0.166c-0.026,0.055-0.038,0.2-0.038,0.433v2.977
	c0,0.238,0.015,0.391,0.041,0.456c0.029,0.065,0.082,0.115,0.163,0.148c0.057,0.021,0.195,0.029,0.417,0.029h0.387
	c0.249,0,0.456-0.044,0.622-0.131c0.164-0.086,0.309-0.225,0.428-0.413c0.122-0.188,0.236-0.467,0.344-0.835h0.142V119.998z"/>
</svg>
