<?xml version="1.0" encoding="utf-8"?>
<!-- Generator: Adobe Illustrator 16.2.1, SVG Export Plug-In . SVG Version: 6.00 Build 0)  -->
<!DOCTYPE svg PUBLIC "-//W3C//DTD SVG 1.1//EN" "http://www.w3.org/Graphics/SVG/1.1/DTD/svg11.dtd">
<svg version="1.1" id="Layer_1" xmlns="http://www.w3.org/2000/svg" xmlns:xlink="http://www.w3.org/1999/xlink" x="0px" y="0px"
	 width="50px" height="50px" viewBox="35.15 71.85 50 50" enable-background="new 35.15 71.85 50 50" xml:space="preserve">
<g>
	<polygon points="72.798,87.014 77.533,87.014 77.533,101.511 85.15,101.511 85.15,105.652 72.798,105.652 	"/>
	<g>
		<path d="M66.807,102.028c0.739-1.258,1.277-2.259,1.277-2.259l2.568,5.885h-5.177l-0.386-0.956
			C65.09,104.698,66.37,102.771,66.807,102.028L66.807,102.028z"/>
		<path d="M62.518,87.014h-4.586l-8.136,18.639h5.251l5.103-13.166l2.395,5.92c0.937-1.8,1.738-3.825,2.288-6.088L62.518,87.014
			L62.518,87.014z"/>
	</g>
	<path d="M44.47,87.014h4.733v12.131c0,7.396-7.026,7.175-7.026,7.175c-4.66-0.001-7.027-3.182-7.027-3.182l3.698-2.811
		c1.332,1.923,3.107,1.775,3.107,1.775c2.22,0,2.515-2.737,2.515-2.737V87.014L44.47,87.014z"/>
	<g>
		<path fill="#E21F2A" d="M69.914,80.431c2.663,23.743-16.124,33.284-16.124,33.284c17.086-14.054,11.465-33.284,11.465-33.284
			H69.914L69.914,80.431z"/>
		
			<linearGradient id="SVGID_1_" gradientUnits="userSpaceOnUse" x1="462.5127" y1="503.0059" x2="462.5127" y2="469.7217" gradientTransform="matrix(1 0 0 1 -403.5996 -389.291)">
			<stop  offset="0" style="stop-color:#7A7C7F"/>
			<stop  offset="0.35" style="stop-color:#F5F5F5"/>
			<stop  offset="1" style="stop-color:#7A7C7F"/>
		</linearGradient>
		<path fill="url(#SVGID_1_)" d="M65.254,80.431c3.107,20.709-13.61,29.438-13.61,29.438l2.146,3.847
			C71.023,99.218,65.254,80.431,65.254,80.431L65.254,80.431z"/>
	</g>
</g>
</svg>
