<?xml version="1.0" encoding="utf-8"?>
<!-- Generator: Adobe Illustrator 16.2.1, SVG Export Plug-In . SVG Version: 6.00 Build 0)  -->
<!DOCTYPE svg PUBLIC "-//W3C//DTD SVG 1.1//EN" "http://www.w3.org/Graphics/SVG/1.1/DTD/svg11.dtd">
<svg version="1.1"
	 id="Ebene_1" xmlns:inkscape="http://www.inkscape.org/namespaces/inkscape" xmlns:dc="http://purl.org/dc/elements/1.1/" xmlns:cc="http://creativecommons.org/ns#" xmlns:sodipodi="http://sodipodi.sourceforge.net/DTD/sodipodi-0.dtd" xmlns:rdf="http://www.w3.org/1999/02/22-rdf-syntax-ns#" inkscape:version="0.48.1 " sodipodi:docname="AJAX.svg" xmlns:svg="http://www.w3.org/2000/svg"
	 xmlns="http://www.w3.org/2000/svg" xmlns:xlink="http://www.w3.org/1999/xlink" x="0px" y="0px" width="50px" height="50px"
	 viewBox="0.5 30.5 50 50" enable-background="new 0.5 30.5 50 50" xml:space="preserve">
<sodipodi:namedview  inkscape:window-maximized="1" inkscape:current-layer="Ebene_1" inkscape:window-height="1004" inkscape:window-x="-8" inkscape:zoom="1.9743676" guidetolerance="10" borderopacity="1" gridtolerance="10" showgrid="false" objecttolerance="10" pagecolor="#ffffff" bordercolor="#666666" inkscape:cy="-12.487418" inkscape:cx="205.51526" inkscape:window-width="1280" inkscape:pageopacity="0" inkscape:pageshadow="2" inkscape:window-y="-8" fit-margin-left="0" fit-margin-top="0" id="namedview13" fit-margin-bottom="0" fit-margin-right="0">
	</sodipodi:namedview>
<g id="g3" transform="translate(-7.236,-14.651)">
	<path id="path5" inkscape:connector-curvature="0" fill="#C0231E" d="M50.341,63.181h5.788l-3.543,13.951h-4.714l1.874-7.224
		l-4.413,7.224h-3.919l-0.703-7.219l-1.829,7.219h-4.84l3.048-11.925c0.295-1.166,1.343-2.023,2.598-2.026h4.855l0.581,6.106
		c0,0,2.334-4.155,2.651-4.656C48.241,63.903,49,63.181,50.341,63.181"/>
	<path id="path7" inkscape:connector-curvature="0" fill="#C0231E" d="M10.968,63.185c-1.509,0-2.28,0.762-2.632,2.024l-0.6,2.19
		h4.793l-2.468,9.733h4.831l2.519-9.733h4.353l3.031-4.214"/>
	<path id="path9" inkscape:connector-curvature="0" fill="#C0231E" d="M28.131,68.53c0.668-0.847,0.802-1.156,1.676-1.156
		l0.246,0.004l-2.466,9.756h4.81l3.571-13.977l-5.534-0.006c-2.598,0-4.073,0.564-5.18,2.059l-8.726,11.919h5.468"/>
	<path id="path11" inkscape:connector-curvature="0" fill="#014E84" d="M46.006,67.5c-5.79,0.464-12.036,2.097-16.091,6.205
		c-12.322-5.246-21.031-2.462-21.031-2.462s5.515-3.161,18.28-0.054c15.427-7.157,28.956-3.953,30.573-3.393
		C55.434,67.439,50.6,67.131,46.006,67.5"/>
</g>
</svg>
