<?xml version="1.0" encoding="utf-8"?>
<!-- Generator: Adobe Illustrator 16.2.1, SVG Export Plug-In . SVG Version: 6.00 Build 0)  -->
<!DOCTYPE svg PUBLIC "-//W3C//DTD SVG 1.1//EN" "http://www.w3.org/Graphics/SVG/1.1/DTD/svg11.dtd">
<svg version="1.1" id="svg2367" xmlns:svg="http://www.w3.org/2000/svg"
	 xmlns="http://www.w3.org/2000/svg" xmlns:xlink="http://www.w3.org/1999/xlink" x="0px" y="0px" width="50px" height="50px"
	 viewBox="393.414 106.031 50 50" enable-background="new 393.414 106.031 50 50" xml:space="preserve">
<g id="g12557" transform="matrix(1.25,0,0,-1.25,464.07838,600.41718)">
	<path id="path12559" fill="#E50012" d="M-36.238,363.12h1.534l-0.068,1.827L-36.238,363.12"/>
</g>
<g id="g12561" transform="matrix(1.25,0,0,-1.25,477.77588,584.99468)">
	<path id="path12563" fill="#E50012" d="M-38.443,360.637c-4.091-3.981-10.201-1.441-9.58,3.446c0.481,3.769,5.101,7.52,8.596,9.56
		c0.02,0.009,0.016,0.03,0.004,0.042c-0.456,0.437-1.407,1.423-2.021,2.165c-1.695,2.037-4.66,2.122-6.43-0.115l-10.058-0.936
		c-0.038-0.003-0.04-0.062,0-0.063l10.785-0.624c1.909-0.108,2.534-1.841,0.691-3.241c-6.851-5.187-8.071-10.678-6.541-15.031
		c0.011-0.027-0.033-0.048-0.05-0.024c-0.63,0.891-1.1,1.979-1.359,3.126c-3.287,2.066-5.959,6.001-5.959,10.858
		c0,7.062,5.756,12.876,12.876,12.876c7.119,0,12.874-5.814,12.874-12.876C-34.615,365.978-36.287,362.734-38.443,360.637z
		 M-35.925,348.558h-6.192l2.195,5.718h2.726l-1.733-4.509h3.466L-35.925,348.558z M-45.577,348.558l-0.045,1.125h-2.459
		l-0.909-1.125h-2.253l4.572,5.293c0.215,0.251,0.538,0.425,0.836,0.425h2.441l0.543-5.718H-45.577z M-54.914,348.366
		c-0.734,0-1.37,0.074-1.893,0.192l0.465,1.214c1.25-0.145,2.318-0.037,2.735,1.05l1.326,3.454h2.729l-1.46-3.803
		C-51.761,348.526-53.603,348.366-54.914,348.366z M-27.569,361.41c0.132,1.266,0.097,3.083-0.097,4.423
		c0,0.026-0.029,0.026-0.035,0c-0.408-1.948-1.669-4.586-4.395-6.74c-0.023-0.02-0.052,0.015-0.029,0.039
		c2.389,2.552,3.812,5.694,4.032,8.932c-0.446,1.784-1.145,3.505-2.027,5.028c-0.013,0.02-0.036,0.015-0.033-0.011
		c0.485-3.273-0.287-7.593-3.463-11.097c-0.019-0.024-0.052,0.005-0.035,0.03c2.732,3.934,3.444,8.727,2.254,13.036
		c-3.645,4.927-9.495,8.12-16.092,8.12c-6.597,0-12.446-3.193-16.091-8.12c-1.192-4.309-0.48-9.102,2.253-13.036
		c0.018-0.026-0.014-0.055-0.036-0.03c-3.174,3.504-3.948,7.824-3.463,11.097c0.003,0.026-0.019,0.03-0.033,0.011
		c-0.879-1.523-1.578-3.245-2.027-5.028c0.221-3.238,1.646-6.38,4.035-8.932c0.022-0.024-0.007-0.059-0.031-0.039
		c-2.725,2.154-3.986,4.791-4.395,6.74c-0.007,0.026-0.033,0.026-0.035,0c-0.196-1.34-0.23-3.157-0.099-4.423
		c0.688-2.154,2.156-3.961,3.66-5.265c0.026-0.02,0.002-0.058-0.027-0.038c-1.679,1.043-2.62,2.066-3.259,2.966
		c-0.013,0.02-0.033,0.013-0.029-0.009c1.844-8.98,9.896-15.893,19.578-15.893c9.68,0,17.734,6.913,19.578,15.893
		c0.003,0.023-0.016,0.029-0.03,0.009c-0.637-0.9-1.581-1.923-3.259-2.966c-0.029-0.02-0.052,0.018-0.026,0.038
		C-29.722,357.449-28.254,359.256-27.569,361.41"/>
</g>
</svg>
