<?xml version="1.0" encoding="utf-8"?>
<!-- Generator: Adobe Illustrator 16.2.1, SVG Export Plug-In . SVG Version: 6.00 Build 0)  -->
<!DOCTYPE svg PUBLIC "-//W3C//DTD SVG 1.1//EN" "http://www.w3.org/Graphics/SVG/1.1/DTD/svg11.dtd">
<svg version="1.1"
	 id="svg2" sodipodi:docname="Lionair_logo.png" inkscape:version="0.48.0 r9654" xmlns:dc="http://purl.org/dc/elements/1.1/" xmlns:cc="http://creativecommons.org/ns#" xmlns:rdf="http://www.w3.org/1999/02/22-rdf-syntax-ns#" xmlns:svg="http://www.w3.org/2000/svg" xmlns:sodipodi="http://sodipodi.sourceforge.net/DTD/sodipodi-0.dtd" xmlns:inkscape="http://www.inkscape.org/namespaces/inkscape"
	 xmlns="http://www.w3.org/2000/svg" xmlns:xlink="http://www.w3.org/1999/xlink" x="0px" y="0px" width="50px" height="50px"
	 viewBox="38.477 43.415 50 50" enable-background="new 38.477 43.415 50 50" xml:space="preserve">
<sodipodi:namedview  inkscape:window-maximized="1" inkscape:current-layer="layer1" inkscape:window-height="708" inkscape:window-x="-4" fit-margin-bottom="0" inkscape:pageopacity="0" inkscape:pageshadow="2" inkscape:window-width="1024" inkscape:window-y="-4" fit-margin-right="0" pagecolor="#ffffff" borderopacity="1" bordercolor="#666666" inkscape:cy="-28.507961" gridtolerance="10" fit-margin-top="0" objecttolerance="10" inkscape:zoom="1.7337714" inkscape:cx="34.175787" fit-margin-left="0" guidetolerance="10" showgrid="false" id="namedview4">
	</sodipodi:namedview>
<g id="layer1" transform="translate(-82.7105, 113.099)" inkscape:groupmode="layer" inkscape:label="Calque">
	<g id="rect2988">
		
			<path inkscape:connector-curvature="0" sodipodi:nodetypes="csssscscssccccscscsccsccscccsscscccccscccccccsccsssss" fill="#CC3333" d="
			M150.815-64.714c-0.991,0.02,0.715,1.768-0.613,1.882c-1.327,0.11-4.519,0.864-5.7,0.345s-0.513,1.33-0.67,2.305
			c-0.158,0.972-5.376-0.651-4.357,1.11c1.019,1.764,1.11,2.544,1.209,3.514c0.098,0.969-0.991-1.048-1.266,0.806
			c-0.32,2.148,3.859,10.752,5.643,12.093c1.72-1.673,4.07-2.706,6.658-2.706c5.275,0,9.559,4.282,9.559,9.559
			c0,5.273-4.284,9.538-9.559,9.538l-0.037,0.633c2.803,0.667,11.087-2.749,12.015-9.402c0.059-0.43,1.062,0.073,1.074-0.769
			c0.013-0.845-1.212-0.56-1.344-2.61c-0.128-2.051,1.313-1.428,1-2.421c-0.314-0.989-2.196-1.318-2.458-1.958
			c-0.26-0.636-0.306-2.432-0.345-2.552c-0.039-0.119,2.02-0.418,2.667-0.633s2.827-1.396,1.593-2.168l-2.515-0.116
			c-0.213,0.059-1.736-1.045-0.747-2.936c0.988-1.892,2.676-2.533,3.799-1.689c0,0,0.236,1.593,0.596,1.211
			c0.317-0.358,0.144-0.876,0.288-1.327c0.145-0.45,0.316,0.024,0.653-0.249c0.626-0.511,0.46-3.033,0.057-3.302
			c-0.269-0.178-3.605-0.554-3.799-0.614c-0.195-0.06-0.1-1.089-1.019-1.956c-0.918-0.871-1.522-0.596-2.936-1.709
			c-1.413-1.111-2.473-2.771-2.803-2.571c-0.329,0.2,0.628,0.957-0.365,1.055S151.811-64.733,150.815-64.714L150.815-64.714z
			 M154.176-60.337c0.098-0.01,0.192-0.007,0.286,0c0.643,0.039,1.235,0.405,1.229,0.729c-0.008,0.517-1.444-0.113-1.537,0.595
			c-0.091,0.709-0.447,1.48-0.69,1.344c-0.241-0.138-0.897-1.582-0.094-2.324C153.595-60.2,153.883-60.307,154.176-60.337
			L154.176-60.337z M162.351-57.401c0.207-0.011,0.4,0.012,0.537,0.019c0.273,0.02,0.968,0.396,0.135,0.347
			c-0.833-0.051-0.944-0.058-1.151,0.596c-0.21,0.65-0.345-0.478-0.077-0.769C161.928-57.357,162.145-57.389,162.351-57.401
			L162.351-57.401z M162.641-56.767c0.155,0,0.287,0.132,0.287,0.288s-0.132,0.288-0.287,0.288c-0.156,0-0.27-0.132-0.27-0.288
			S162.484-56.767,162.641-56.767z"/>
	</g>
	<g id="path3803">
		
			<path sodipodi:type="arc" sodipodi:rx="14.274509" sodipodi:ry="13.050981" sodipodi:cy="51.094116" sodipodi:cx="219.4196" fill="#CC3333" d="
			M159.578-35.844c0,4.253-3.504,7.701-7.827,7.701c-4.325,0-7.827-3.448-7.827-7.701c0-4.255,3.502-7.702,7.827-7.702
			C156.073-43.547,159.578-40.099,159.578-35.844z"/>
	</g>
	<g id="rect3807">
		<path inkscape:connector-curvature="0" sodipodi:nodetypes="zzsccz" fill="#CC3333" d="M131.147-63.086
			c0.592-8.047,7.427-9.17,5.762-0.939s0.877,12.082,3.364,16.226c3.452,5.752,5.41,7.897,6.029,7.757l-1.315,1.066
			C134.737-44.604,130.554-55.041,131.147-63.086z"/>
	</g>
	<g id="rect3807-1">
		<path inkscape:connector-curvature="0" sodipodi:nodetypes="zzsccz" fill="#CC3333" d="M126.13-51.626
			c-2.039-6.396,2.888-9.385,4.155-2.512c1.267,6.868,4.424,9.055,7.629,11.482c4.45,3.369,6.629,4.416,7.062,4.118l-0.686,1.229
			C134.635-38.473,128.168-45.231,126.13-51.626L126.13-51.626z"/>
	</g>
	<g id="rect3807-1-7">
		<path inkscape:connector-curvature="0" sodipodi:nodetypes="czzczc" fill="#CC3333" d="M126.172-39.098
			c-4.15-3.908-1.723-8.159,2.05-3.579c3.773,4.58,10.53,5.898,12.967,6.447c2.437,0.547,8.38,2.158,8.38,2.158
			S129.82-34.501,126.172-39.098C122.524-43.696,126.172-39.098,126.172-39.098z"/>
	</g>
	<g id="rect3807-1-7-4">
		<path inkscape:connector-curvature="0" sodipodi:nodetypes="czzczc" fill="#CC3333" d="M129.429-30.004
			c-5.195-1.92-4.638-6.642,0.476-3.979c5.112,2.661,11.659,1.276,14.046,0.842c2.384-0.437,8.312-1.253,8.312-1.253
			S134.44-27.277,129.429-30.004C124.42-32.729,129.429-30.004,129.429-30.004z"/>
	</g>
	<g id="rect3807-1-7-4-0">
		<path inkscape:connector-curvature="0" sodipodi:nodetypes="czzczc" fill="#CC3333" d="M135.175-24.256
			c-4.339,0.165-5.349-3.424-0.845-3.025c4.502,0.4,8.831-2.563,10.429-3.594c1.6-1.03,5.649-3.396,5.649-3.396
			S139.622-23.779,135.175-24.256C130.73-24.731,135.175-24.256,135.175-24.256z"/>
	</g>
	<g id="rect3807-1-7-4-0-9">
		<path inkscape:connector-curvature="0" sodipodi:nodetypes="czzczc" fill="#CC3333" d="M141.228-21.178
			c-3.413,1.402-5.27-1.165-1.562-2.165c3.711-1.002,6.294-4.634,7.269-5.924c0.975-1.293,3.512-4.365,3.512-4.365
			S144.915-22.101,141.228-21.178C137.544-20.255,141.228-21.178,141.228-21.178L141.228-21.178z"/>
	</g>
	<g id="rect3807-1-7-4-0-9-4">
		<path inkscape:connector-curvature="0" sodipodi:nodetypes="czzczc" fill="#CC3333" d="M146.283-20.55
			c-2.314,1.888-4.355,0.339-1.719-1.31c2.635-1.647,3.783-5.065,4.233-6.294c0.449-1.229,1.691-4.204,1.691-4.204
			S148.92-22.132,146.283-20.55C143.647-18.97,146.283-20.55,146.283-20.55L146.283-20.55z"/>
	</g>
	<g id="rect3807-1-7-4-0-9-4-8">
		<path inkscape:connector-curvature="0" sodipodi:nodetypes="czzczc" fill="#CC3333" d="M151.018-21.595
			c-1.224,1.748-2.93,1.077-1.437-0.567c1.494-1.645,1.619-4.218,1.691-5.15s0.348-3.221,0.348-3.221S152.525-23.195,151.018-21.595
			C149.511-19.995,151.018-21.595,151.018-21.595z"/>
	</g>
</g>
</svg>
