<?xml version="1.0" encoding="utf-8"?>
<!-- Generator: Adobe Illustrator 16.2.1, SVG Export Plug-In . SVG Version: 6.00 Build 0)  -->
<!DOCTYPE svg PUBLIC "-//W3C//DTD SVG 1.1//EN" "http://www.w3.org/Graphics/SVG/1.1/DTD/svg11.dtd">
<svg version="1.1" id="Layer_1" xmlns="http://www.w3.org/2000/svg" xmlns:xlink="http://www.w3.org/1999/xlink" x="0px" y="0px"
	 width="50px" height="50px" viewBox="297.5 111.5 50 50" enable-background="new 297.5 111.5 50 50" xml:space="preserve">
<path fill="#D35D31" d="M313.212,138.199c-1.185,1.199-0.835,3.302-0.675,3.896c0.234,0.901,0.989,2.608,3.062,1.835
	c2.076-0.77,1.503-2.752,1.247-3.341C316.635,140.11,314.567,136.826,313.212,138.199"/>
<path fill="#D35D31" d="M316.913,132.415c-1.437,0.566-1.359,2.563-0.889,4.059c0.474,1.496,1.393,2.604,3.188,1.915
	c1.791-0.693,1.164-3.093,0.567-4.207C319.187,133.063,318.038,131.968,316.913,132.415"/>
<path fill="#D35D31" d="M321.958,128.585c-1.125,0.378-1.583,1.879-1.057,4.257c0.529,2.37,2.196,2.89,3.498,2.389
	c1.304-0.498,1.805-2.588,0.889-4.453C324.375,128.917,323.103,128.2,321.958,128.585"/>
<path fill="#D35D31" d="M327.653,127.73c-1.058,0.539-0.623,3.032-0.243,4.586c0.374,1.552,0.989,3.772,2.965,3.135
	c1.975-0.637,1.986-2.92,1.634-3.877C331.128,129.201,328.832,127.128,327.653,127.73"/>
<path fill="#D35D31" d="M335.323,132.92c-1.453-0.323-1.899,0.902-2.097,2.544c-0.199,1.64,0.49,2.601,1.725,2.79
	c1.235,0.193,1.871-0.85,2.109-2.194C337.3,134.712,336.549,133.193,335.323,132.92"/>
<path fill="#D35D31" d="M327.088,151.485c4.196-2.897,8.17-5.405,8.95-7.708c0.458-1.348-0.147-3.403-5.631-4.692
	c-1.571-0.37-3.012-1.796-4.264-1.775c-2.412,0.04-3.665,2.557-4.443,3.506c-1.637,2.001-4.998,4.045-4.364,7.112
	C317.843,150.4,323.26,154.13,327.088,151.485"/>
<path fill="#D35D31" d="M311.158,135.437c0-0.423,0.343-0.768,0.768-0.768c0.422,0,0.767,0.345,0.767,0.768
	s-0.345,0.768-0.767,0.768C311.501,136.204,311.158,135.859,311.158,135.437"/>
<path fill="#D35D31" d="M314.164,129.809c0-0.421,0.344-0.764,0.769-0.764c0.422,0,0.765,0.343,0.765,0.764
	c0,0.425-0.343,0.768-0.765,0.768C314.507,130.576,314.164,130.233,314.164,129.809"/>
<path fill="#D35D31" d="M319.339,126.552c0-0.425,0.342-0.768,0.765-0.768c0.427,0,0.769,0.343,0.769,0.768
	c0,0.422-0.341,0.768-0.769,0.768C319.682,127.319,319.339,126.974,319.339,126.552"/>
<path fill="#D35D31" d="M325.797,125.656c0-0.427,0.341-0.768,0.767-0.768c0.423,0,0.767,0.341,0.767,0.768
	c0,0.422-0.344,0.769-0.767,0.769C326.138,126.425,325.797,126.078,325.797,125.656"/>
<path fill="#D35D31" d="M334.171,130.643c0-0.424,0.343-0.77,0.767-0.77c0.423,0,0.769,0.346,0.769,0.77
	c0,0.421-0.345,0.766-0.769,0.766C334.514,131.408,334.171,131.063,334.171,130.643"/>
<path fill="#7B002B" d="M333.84,149.04c-1.321,0.954-2.863,1.951-4.516,3.08l-1.328,0.913c-2,1.379-4.523,1.57-7.104,0.535
	c-2.617-1.051-4.938-3.146-5.355-5.09c-0.259-1.205-0.194-1.935-0.109-2.859c-1.078,0.21-1.9-0.027-2.435-0.303
	c-1.017-0.529-1.78-1.585-2.14-2.965c-0.045-0.168-0.237-1.169-0.237-2.156c0-0.716,0.107-1.546,0.432-2.337
	c-1.102-0.525-1.87-1.65-1.87-2.958c0-1.808,1.471-3.279,3.281-3.279c0.088,0,0.176,0.008,0.265,0.015
	c-0.283-0.476-0.448-1.026-0.448-1.617c0-1.758,1.43-3.188,3.186-3.188c0.383,0,0.749,0.071,1.085,0.197
	c0.015-0.252,0.056-0.496,0.119-0.733c-3.549-4.034-8.379-8.364-13.741-8.364h-4.136l11.538,41.817l31.454,0.002
	C339.124,156.166,336.409,152.507,333.84,149.04"/>
<path fill="#D35D31" d="M317.637,124.638c0.706-0.704,1.685-1.149,2.781-1.149c0.03,0,0.059,0.008,0.088,0.008
	c-3.617-4.434-9.12-10.245-15.331-10.245c0,0-4.919,0.004-7.675,0.004l0.784,2.847h4.638
	C308.792,116.102,313.881,120.458,317.637,124.638"/>
<path fill="#D35D31" d="M337.217,145.88c-0.465,0.696-1.126,1.366-1.931,2.037l8.773,11.833h3.441
	C344.173,155.264,340.6,150.442,337.217,145.88"/>
</svg>
