<?xml version="1.0" encoding="utf-8"?>
<!-- Generator: Adobe Illustrator 16.2.1, SVG Export Plug-In . SVG Version: 6.00 Build 0)  -->
<!DOCTYPE svg PUBLIC "-//W3C//DTD SVG 1.1//EN" "http://www.w3.org/Graphics/SVG/1.1/DTD/svg11.dtd">
<svg version="1.1" id="svg4073" xmlns:svg="http://www.w3.org/2000/svg"
	 xmlns="http://www.w3.org/2000/svg" xmlns:xlink="http://www.w3.org/1999/xlink" x="0px" y="0px" width="50px" height="50px"
	 viewBox="324.203 77.762 50 50" enable-background="new 324.203 77.762 50 50" xml:space="preserve">
<g id="layer1" transform="translate(5.1317,-401.5291)">
	
		<radialGradient id="path80_1_" cx="316.6788" cy="472.8751" r="0.6676" gradientTransform="matrix(41.134 0 0 -41.1105 -12675.2041 19933.334)" gradientUnits="userSpaceOnUse">
		<stop  offset="0" style="stop-color:#FFFFFF"/>
		<stop  offset="1" style="stop-color:#ED1849"/>
	</radialGradient>
	<path id="path80" fill="url(#path80_1_)" d="M366.314,506.963c0,0-0.76-2.762-2.46-6.27c-0.794-1.642-1.808-3.449-3.035-5.213
		c-1.101-1.594-2.606-3.021-4.039-4.424c-1.359-1.325-3.016-2.305-4.726-3.157c-3.703-1.852-7.858-2.767-11.146-2.767
		c-12.063,0-21.836,9.772-21.836,21.83c0,0.507,0.024,1.009,0.059,1.511c1.198,0.58,2.465,1.159,3.8,1.729
		c-0.19-1.053-0.292-2.134-0.292-3.24c0-10.089,8.17-18.27,18.27-18.265v0.015c11.751,0.005,21.324,10.075,21.324,21.836
		c0,2.675-0.501,5.252-1.403,7.649c1.52,0.043,2.967,0.053,4.351,0.028c2.47-3.922,3.893-8.56,3.893-13.533
		c0-14.017-11.332-25.402-25.382-25.402c-6.728,0-12.842,2.621-17.393,6.879c4.131-2.908,9.174-4.623,14.611-4.618
		C354.933,481.552,366.314,492.928,366.314,506.963"/>
	
		<radialGradient id="path100_1_" cx="316.6788" cy="472.876" r="0.6688" gradientTransform="matrix(41.1355 0 0 -41.1114 -12675.6826 19933.7207)" gradientUnits="userSpaceOnUse">
		<stop  offset="0" style="stop-color:#FFFFFF"/>
		<stop  offset="1" style="stop-color:#ED1849"/>
	</radialGradient>
	<path id="path100" fill="url(#path100_1_)" d="M341.073,499.738c-3.215,0-6.202,2.421-6.655,5.408h13.091
		C346.987,502.159,344.342,499.738,341.073,499.738"/>
	
		<radialGradient id="path120_1_" cx="316.6793" cy="472.8751" r="0.6677" gradientTransform="matrix(41.1355 0 0 -41.1114 -12675.6826 19933.7207)" gradientUnits="userSpaceOnUse">
		<stop  offset="0" style="stop-color:#FFFFFF"/>
		<stop  offset="1" style="stop-color:#ED1849"/>
	</radialGradient>
	<path id="path120" fill="url(#path120_1_)" d="M330.399,507.646c0-6.104,3.776-11.152,10.635-11.152
		c7.025,0,10.762,5.491,10.387,11.64h-17.198c0.054,3.824,2.938,6.894,7.176,6.894c3.167,0,5.228-1.798,6.66-4.258l3.171,1.71
		c-1.101,1.943-2.616,3.444-4.448,4.438c1.871,0.278,3.673,0.507,5.417,0.697c0.779-0.833,1.476-1.759,2.07-2.768
		c-0.297,1.004-0.702,1.959-1.184,2.865c1.349,0.131,2.645,0.224,3.912,0.307c1.028-2.3,1.598-4.828,1.598-7.449
		c0-9.807-7.829-18.284-17.689-18.284c-8.117,0-14.684,6.577-14.684,14.679c0,1.71,0.288,3.353,0.804,4.882
		c1.593,0.6,3.269,1.174,5.013,1.72c-1.057-1.686-1.642-3.717-1.642-5.914"/>
	
		<radialGradient id="path140_1_" cx="315.548" cy="474.3155" r="0.6669" gradientTransform="matrix(40.8864 -10.8062 -10.8184 -40.8864 -7435.6909 23340.668)" gradientUnits="userSpaceOnUse">
		<stop  offset="0" style="stop-color:#ED1849"/>
		<stop  offset="1" style="stop-color:#ED1849"/>
	</radialGradient>
	<path id="path140" fill="url(#path140_1_)" d="M340.902,528.799c7.2,0,13.324-4.53,16.097-10.781
		c-1.267-0.083-2.563-0.176-3.912-0.307c-2.378,4.462-6.845,7.531-12.233,7.531v-0.01c-8.959-0.024-16.394-6.504-17.924-15.024
		c-1.335-0.575-2.602-1.154-3.8-1.734c0.774,11.347,10.221,20.33,21.772,20.33"/>
	
		<radialGradient id="path160_1_" cx="315.5485" cy="474.3155" r="0.6666" gradientTransform="matrix(40.8864 -10.8056 -10.8184 -40.8864 -7435.6909 23340.4473)" gradientUnits="userSpaceOnUse">
		<stop  offset="0" style="stop-color:#ED1849"/>
		<stop  offset="1" style="stop-color:#ED1849"/>
	</radialGradient>
	<path id="path160" fill="url(#path160_1_)" d="M341.482,522.222c4.326,0,8.034-1.744,10.718-4.608
		c-1.744-0.19-3.547-0.419-5.417-0.697c-1.647,0.882-3.552,1.364-5.671,1.364c-4.093,0-7.269-1.865-9.072-4.716
		c-1.744-0.546-3.42-1.12-5.013-1.72C329.064,517.876,334.764,522.222,341.482,522.222"/>
	
		<radialGradient id="path180_1_" cx="315.549" cy="474.3145" r="0.6668" gradientTransform="matrix(40.8864 -10.8062 -10.8184 -40.8864 -7435.6909 23340.668)" gradientUnits="userSpaceOnUse">
		<stop  offset="0" style="stop-color:#ED1849"/>
		<stop  offset="1" style="stop-color:#ED1849"/>
	</radialGradient>
	<path id="path180" fill="url(#path180_1_)" d="M365.179,518.227c-1.384,0.024-2.831,0.01-4.351-0.028
		c-1.515,4.028-4.18,7.536-7.585,10.055c0.073-0.029,0.872-0.37,1.193-0.521c0.283-0.132,0.707-0.342,1.467-0.741
		c0.467-0.248,0.716-0.404,1.164-0.672c0.336-0.205,0.896-0.595,0.955-0.634C360.892,523.718,363.327,521.18,365.179,518.227"/>
</g>
</svg>
