<?xml version="1.0" encoding="utf-8"?>
<!-- Generator: Adobe Illustrator 16.2.1, SVG Export Plug-In . SVG Version: 6.00 Build 0)  -->
<!DOCTYPE svg PUBLIC "-//W3C//DTD SVG 1.1//EN" "http://www.w3.org/Graphics/SVG/1.1/DTD/svg11.dtd">
<svg version="1.1"
	 id="svg2" xmlns:svg="http://www.w3.org/2000/svg" xmlns:rdf="http://www.w3.org/1999/02/22-rdf-syntax-ns#" xmlns:cc="http://creativecommons.org/ns#" xmlns:dc="http://purl.org/dc/elements/1.1/" xmlns:sodipodi="http://sodipodi.sourceforge.net/DTD/sodipodi-0.dtd" xmlns:inkscape="http://www.inkscape.org/namespaces/inkscape" inkscape:version="0.48.1 " sodipodi:docname="AJAX.svg"
	 xmlns="http://www.w3.org/2000/svg" xmlns:xlink="http://www.w3.org/1999/xlink" x="0px" y="0px" width="50px" height="50px"
	 viewBox="75.25 134.854 50 50" enable-background="new 75.25 134.854 50 50" xml:space="preserve">
<sodipodi:namedview  id="namedview26" borderopacity="1" inkscape:cx="209.88725" inkscape:cy="88.180168" fit-margin-top="0" objecttolerance="10" gridtolerance="10" fit-margin-left="0" showgrid="false" inkscape:zoom="1.557718" bordercolor="#666666" guidetolerance="10" pagecolor="#ffffff" inkscape:window-width="1280" inkscape:window-maximized="1" inkscape:window-x="-8" inkscape:pageopacity="0" fit-margin-right="0" inkscape:pageshadow="2" inkscape:window-y="-8" inkscape:current-layer="svg2" inkscape:window-height="1004" fit-margin-bottom="0">
	</sodipodi:namedview>
<g id="g4" transform="translate(-0.251,-0.64532579)">
	<path id="path6" inkscape:connector-curvature="0" fill="#E60013" d="M93.865,142.985c-0.171-0.396,0.037-0.742,0.298-0.903
		c0.218-0.139,0.548-0.098,0.507-0.049c-0.04,0.049-0.087,0.137-0.104,0.267c-0.025,0.214,0.121,0.263,0.121,0.263
		s0.2-0.082,0.361-0.111c0.164-0.034,0.146,0.08,0.122,0.09c-0.093,0.032-0.208,0.017-0.515,0.269
		c-0.309,0.249-0.341,0.661-0.341,0.661S94.002,143.31,93.865,142.985 M95.398,142.782c-0.445,0-0.81,0.359-0.81,0.809
		c0,0.446,0.365,0.806,0.81,0.806c0.447,0,0.807-0.359,0.807-0.806C96.206,143.141,95.845,142.782,95.398,142.782 M99.968,145.643
		c-0.439-0.197-1.19-0.316-1.564,0.203c-0.234,0.33-0.166,0.573-0.085,0.725c0.029,0.055,0.361,0.518,0.833,0.464
		c0.473-0.058,0.864-0.229,1.211-0.449c0.346-0.22,0.423-0.314,0.423-0.314S100.62,145.932,99.968,145.643 M117.538,172.755
		c-0.808,2.009-3.057,4.104-6.567,3.576c-3.071-0.464-3.972-1.564-6.762-2.214c-2.786-0.651-3.582,0.044-4.316,0.464
		c-0.735,0.418-2.16,1.784-1.047,3.145c1.034,1.26,3.573,0.688,4.703,0.374c1.131-0.315,2.405-0.938,2.97-1.219
		c0.829-0.412,1.926-0.397,2.368-0.021c0,0-1.68,0.425-1.891,0.905c-0.208,0.483,0.248,0.617,0.54,0.637
		c0.295,0.024,0.659-0.254,1.219-0.41c0.387-0.109,1.471-0.234,2.553,0.596c0,0,0.203,0.182-0.049,0.182
		c-0.251,0-1.892-0.354-2.459,0.295c-0.564,0.647,0.105,0.881,0.483,0.881c0.376,0,1.151-0.021,1.719,0.396
		c0.563,0.42,0.763,1.216,0.67,1.387c-0.06,0.106-0.232-0.128-0.378-0.298c-0.146-0.164-0.864-0.733-1.493-0.521
		c-0.63,0.21-0.434,0.69-0.205,0.879c0.232,0.188,1.07,1.028,1.341,1.843c0.275,0.82,0.264,1.665,0.128,1.72
		c-0.085,0.033-0.245-0.61-0.776-1.382c-0.465-0.672-0.986-1.173-1.322-1.09c-0.334,0.081-0.375,1.06-0.314,1.466
		c0.076,0.503,0.272,0.942,0.292,1.089c0.022,0.146-0.187,0.044-0.604-0.291c-0.421-0.335-0.679-0.886-0.697-1.929
		c-0.01-0.845-0.246-1.17-0.812-1.028c-0.536,0.133-0.652,1.131-0.632,1.487c0.022,0.356,0.064,0.84,0,0.881
		c-0.061,0.044-0.554-0.158-0.768-1.311c-0.234-1.277,0.41-1.958,0.329-2.547c-0.085-0.585-0.591-0.812-0.974-0.207
		c-0.146,0.229-0.254,1.101-0.156,1.843c0.096,0.742-0.036,0.693-0.281,0.547c-0.242-0.146-0.703-0.72-0.753-1.921
		c-0.048-1.204-0.906-0.954-1.479-0.83c-0.571,0.12-2.218,0.524-3.848-0.229c-1.63-0.755-2.192-1.813-2.287-2.773
		c-0.097-0.96,0.011-1.338,0.034-1.558c0.024-0.217-0.265-0.485-0.633-0.169c0,0,0.186-0.331,0.633-0.659
		c0.454-0.326,0.742-0.58,0.681-0.863c-0.059-0.278-0.315-0.301-0.535-0.242c0,0,0.307-0.291,1.012-0.4
		c0.706-0.109,0.863-0.075,0.949-0.366c0.085-0.291-0.22-0.425-0.339-0.459c0,0,0.41-0.198,0.982-0.208
		c0.574-0.014,0.863-0.111,0.901-0.376c0.037-0.269-0.111-0.393-0.293-0.5c0,0,0.475-0.122,1.083,0.047
		c0.608,0.173,0.796,0.183,0.949-0.169c0.086-0.193-0.06-0.413-0.303-0.549c0,0,0.303-0.084,0.951,0.256
		c0.204,0.109,0.656,0.412,1.029,0.364c0.38-0.05,0.367-0.436,0.122-0.768c0,0,0.499,0.078,0.962,0.392
		c0.461,0.316,0.691,0.556,0.846,0.736c0.16,0.184,0.346,0.078,0.393,0.006c0.051-0.071,0.074-0.354-0.147-0.68
		c0,0,0.611,0.313,1.011,0.791c0.401,0.472,0.623,0.669,0.803,0.774c0.183,0.11,0.44,0.085,0.413-0.205
		c-0.013-0.134-0.159-0.305-0.159-0.305s0.706,0.287,1.168,0.634c0.342,0.257,0.768,0.62,1.058,0.68
		c0.293,0.062,0.452-0.191,0.328-0.411c-0.122-0.22-0.277-0.342-0.277-0.342s0.692,0.147,1.191,0.342
		c0.499,0.193,0.826,0.483,1.132,0.499c0.304,0.01,0.304-0.267,0.146-0.465c-0.161-0.192-0.293-0.219-0.293-0.219
		s0.426-0.157,1.083-0.157c0.655,0,1.36-0.121,1.347-0.474c-0.009-0.352-0.339-0.319-0.533-0.243c0,0,0.23-0.354,0.741-0.646
		c0.512-0.292,0.742-0.5,0.755-0.78c0.012-0.276-0.304-0.352-0.439-0.167c0,0,0.267-1.181-0.338-2.432
		c-0.609-1.255-1.293-1.828-1.973-2.18c-0.68-0.35-1.072-0.257-1.166-0.061c-0.098,0.194-0.73,1.848-0.742,2.167
		c-0.011,0.312,0.097,0.462,0.245,0.411c0.143-0.049,0.275-0.244,0.395-0.283c0.122-0.035,0.779-0.12,1.318,0.056
		c0.614,0.198,0.895,0.711,0.643,1.213c0,0-0.242-0.461-0.934-0.461c-0.696,0-0.952,0.21-1.039,0.322c0,0-0.181-0.103-0.277-0.153
		c-0.097-0.047-0.303,0.085-0.242,0.316c0.061,0.232,0.193,0.159,0.242,0.159c0.049,0,0.289-0.027,0.289-0.027
		s0.31,0.413,0.796,0.682c0.486,0.271,0.788,0.234,1.092,0.015c0,0-0.011,0.852-0.9,0.838c-0.886-0.011-1.494-0.887-1.506-0.958
		c-0.012-0.075-0.024-0.224-0.195-0.244c-0.171-0.026-0.267,0.35,0.074,0.438c0,0-0.171,1.057-0.048,1.472
		c0.119,0.415,0.279,0.646,0.423,0.791c0,0-0.484,0.255-0.937-0.207c-0.449-0.462-0.41-1.46-0.279-1.766
		c0.135-0.303,0.16-0.215,0.208-0.386c0.049-0.173-0.062-0.282-0.255-0.271c0,0-0.098,0.306-0.232,0.379
		c-0.132,0.073-0.816,0.409-0.985,0.864c-0.17,0.448-0.073,0.775-0.073,0.775s-0.729-0.131-0.695-0.801
		c0.038-0.669,0.727-1.211,0.993-1.381c0.267-0.171,0.492-0.2,0.543-0.14c0.046,0.059,0.279,0.134,0.302-0.148
		c0.024-0.276-0.255-0.338-0.401-0.304c-0.145,0.037-0.477-0.012-0.778-0.106c-0.303-0.101-0.84-0.244-1.474,0.144
		c0,0-0.113-0.84,0.658-1.033c0.936-0.234,1.584,0.081,1.633,0.14c0.049,0.062,0.203,0.273,0.362,0.237
		c0.16-0.037,0.16-0.203,0.16-0.474c0-0.27,0.109-1.533,0.109-1.739c0-0.205-0.227-0.37-0.696-0.155
		c-0.345,0.155-2.028,1.26-3.586,2.211c-1.558,0.95-3.052,1.401-4.805,1.824c-1.565,0.379-1.764,1.047-2.517,1.719
		c-0.816,0.729-2.276,0.642-3.089,0.652c-0.815,0.012-3.164,0-3.31,0.012c-0.142,0.015-0.24,0.291-0.083,0.379
		c0.159,0.083,0.255,0.061,0.56,0.461c0.303,0.402,0.959,1.834-0.245,2.385c0,0,0.172-0.437-0.242-1.252
		c-0.414-0.818-0.622-0.984-0.622-1.108c0-0.119,0.122-0.339-0.01-0.559c-0.132-0.22-0.548-0.088-0.523,0.146
		c0.023,0.229,0.061,0.339,0.012,0.463c-0.05,0.12-0.706,1.031-0.692,1.567c0.012,0.533,0.072,0.765,0.072,0.765
		s-0.706-0.158-0.706-0.925c0-0.765,0.362-1.622,0.709-1.954c0.257-0.239-0.039-0.52-0.176-0.526
		c-0.214-0.011-0.288,0.316-0.387,0.376c-0.097,0.062-1.676,0.056-2.14,1.05c0,0-0.667-0.838,0.377-1.475
		c0.973-0.594,1.678-0.376,1.788-0.362c0.108,0.01,0.337,0.071,0.387-0.136c0.05-0.208-0.086-0.22-0.134-0.267
		c-0.047-0.051-0.157-0.596-0.826-1.118c-0.671-0.525-1.204-0.571-1.204-0.571s0.539-0.596,1.448-0.198
		c0.913,0.405,1.122,1.072,1.106,1.279c-0.01,0.206,0.072,0.499,0.365,0.484c0.292-0.01,0.366-0.252,0.353-0.425
		c-0.011-0.169-0.132-0.267-0.132-0.267s0.265-0.852,0.181-1.497c-0.086-0.644-0.415-0.852-0.525-0.959c0,0,0.671-0.293,1.086,0.183
		c0.41,0.474,0.449,1.494,0.399,1.883c-0.05,0.391-0.111,0.537-0.196,0.598c-0.083,0.06-0.217,0.438,0.051,0.45
		c0,0,2.591-0.049,3.284-0.123c0.694-0.075,1.802-0.337,1.738-1.01c-0.047-0.511-0.384-0.562-1.49-1.097
		c-1.247-0.686-2.375-1.455-3.325-2.93c-0.949-1.47-1.175-3.103-0.535-4.582c0.585-1.349,1.18-1.837,1.204-2.105
		c0.024-0.271-0.146-0.438-0.669-0.801c-0.521-0.363-0.813-0.671-1.227-0.988c-0.414-0.315-0.645-0.29-0.707-0.154
		c-0.061,0.133-0.023,0.154,0.014,0.203c0.035,0.049,0.35,0.703,0.188,1.523c-0.178,0.908-0.725,1.14-1.368,1.14
		c0,0,0.437-0.566,0.437-1.229c0-0.654-0.037-1.214,0-1.274c0.035-0.06,0.304-0.257,0.279-0.426c-0.026-0.17-0.193-0.292-0.353-0.28
		c-0.158,0.012-0.269,0.135-0.292,0.271c-0.024,0.132-0.109,0.265-0.291,0.376c-0.183,0.108-1.021,0.641-1.278,1.045
		c-0.211,0.333-0.208,0.522-0.208,0.522s-0.595-0.207-0.411-1.032c0.18-0.827,1.13-1.204,1.446-1.313
		c0.316-0.109,0.391-0.036,0.573-0.159c0.183-0.124,0.132-0.292,0-0.464c-0.135-0.17-0.341-0.083-0.415-0.01
		c-0.071,0.073-0.295,0.059-0.576-0.062c-0.28-0.122-0.945-0.315-1.344-0.279c-0.404,0.035-0.548,0.172-0.645,0.257
		c0,0-0.183-0.681,0.569-0.986c0.757-0.303,1.559,0.051,1.837,0.207c0.28,0.157,0.416,0.255,0.486,0.338
		c0.076,0.088,0.341,0.038,0.39-0.132c0.049-0.172-0.049-0.242-0.111-0.34c-0.06-0.098-0.048-0.257-0.108-0.693
		c-0.062-0.437-0.315-1.18-0.791-1.631c0,0,0.458-0.374,1.127,0.163c0.669,0.53,0.662,1.494,0.575,1.785
		c-0.084,0.29-0.208,0.5-0.121,0.657c0.085,0.158,0.328,0.375,0.583,0.166c0.256-0.205,0.073-0.361,0.218-0.506
		c0.147-0.148,0.666-0.617,0.849-1.206c0.175-0.563,0.134-0.806-0.053-1.006c0,0,0.811,0.156,0.884,0.762
		c0.072,0.607-0.085,1.191-0.571,1.826c-0.204,0.264-0.438,0.407-0.595,0.43c-0.157,0.026-0.208,0.296-0.038,0.384
		c0.17,0.085,0.657,0.146,1.387,0.646c0.729,0.5,1.289,0.944,2.067,1.045c0.779,0.1,1.151-0.161,1.215-0.413
		c0.049-0.183-0.048-0.244-0.292-0.268c0,0,0.292-0.184,0.936-0.171c0.646,0.012,1.193,0.021,1.28-0.208
		c0.085-0.231-0.269-0.425-0.269-0.425s0.596,0.037,0.925,0.159c0.327,0.121,0.765,0.29,0.998,0.171c0.23-0.122-0.16-0.55-0.16-0.55
		s0.571,0.173,1.02,0.428c0.453,0.256,0.683,0.437,0.841,0.317c0.159-0.123-0.073-0.488-0.073-0.488s0.803,0.561,1.158,0.767
		c0.35,0.204,0.423,0.136,0.448-0.035c0.024-0.171-0.014-0.258-0.014-0.258s0.743,0.537,1.338,0.695
		c0.598,0.158,2.228,0.378,3.248-0.813c1.023-1.195,0.759-2.819-0.458-3.988c-1.214-1.167-2.632-1.754-4.018-2.181
		c-1.386-0.427-2.421-0.56-3.114-1.071c0,0-0.204,0.014-0.06,0.207c0.143,0.195,0.486,0.586,0.692,0.62
		c0.207,0.039,0.376,0.039,0.376,0.039s-0.532,0.339-1.19,0.083c-0.656-0.254-1.289-0.752-1.484-0.898
		c-0.195-0.148-0.428-0.051-0.315,0.19c0.11,0.246,0.483,0.757,0.997,1.062c0,0-0.852,0.134-1.605-0.562
		c-0.756-0.691-1.424-1.143-2.239-1.082c-0.813,0.061-1.96,0.813-2.276,0.977c-0.315,0.156-0.825,0.044-1.19-0.467
		c-0.366-0.51-0.595-0.752-1.205-1.166c-0.606-0.415-0.724-0.645-0.509-1.011c0.17-0.291,0.496-0.294,0.496-0.294
		s0.184-0.801,0.988-0.923c0,0-0.207,0.548-0.256,0.815c-0.048,0.267-0.108,0.342-0.011,0.452c0.098,0.104,0.231,0.288,0.281,0.361
		c0.047,0.076,0.132,0.063,0.18-0.036c0.049-0.096,0.352-0.618,0.827-0.582c0,0-0.268,0.572-0.182,0.924
		c0.087,0.354,0.111,0.595,0.33,0.609c0.219,0.011,0.398-0.158,0.631-0.316c0.231-0.159,0.584-0.338,0.741-0.389
		c0.161-0.049,0.172-0.134,0.183-0.342c0.014-0.203,0.039-0.656,0.549-0.981c0,0,0.122,0.594,0.389,0.981
		c0.268,0.393,0.728,0.376,1.093,0.393c0.364,0.008,1.025,0.045,1.498-0.646c0.472-0.695,0.303-0.928,0.269-1.096
		c-0.037-0.171-0.244-0.315-0.537-0.379c-0.291-0.057-0.426-0.203-0.535-0.498c-0.111-0.29-0.365-0.339-0.401-0.193
		c-0.037,0.147-0.133,0.73,0.387,1.119c0.524,0.391,0.745,0.269,0.842,0.256c0,0-0.453,0.596-1.242,0.354
		c-0.791-0.243-0.997-0.84-1.046-1.169c-0.048-0.329-0.037-0.568-0.084-0.656c-0.048-0.086-0.257-0.123-0.363,0.097
		c-0.112,0.216-0.306,0.73-0.345,0.948c0,0-0.24-0.022-0.449-0.474c-0.207-0.45-0.07-0.768-0.085-0.901
		c-0.011-0.134-0.39-0.022-0.62,0.379c-0.23,0.4-0.253,0.707-0.253,0.827c0,0-0.548-0.464-0.488-0.999
		c0.064-0.536,0.29-0.778,0.353-0.852c0.061-0.073-0.134-0.179-0.413-0.061c-0.28,0.124-1.509,0.767-2.13,1.255
		c-0.619,0.485-1.303,1.118-1.677,1.327c-0.377,0.205-1.119,0.435-1.983,0.107c-0.863-0.327-1.482-0.742-2.153-1.654
		c-0.669-0.911-1.177-1.886-1.251-2.068c-0.073-0.184,0.122-0.273,0.22-0.308c0.096-0.036,0.23,0.052,0.388,0.334
		c0.158,0.278,0.875,1.578,1.508,2.236c0.632,0.659,1.448,1.07,2.045,1.106c0.595,0.034,1.238-0.35,1.714-0.815
		c0.471-0.461,2.187-1.546,2.759-1.823c0,0-0.325-0.354-0.693-0.342c-0.364,0.014-0.862,0.632-0.937,0.874
		c0,0-0.292-0.483-0.146-0.86c0.146-0.376,0.404-0.376,0.453-0.571c0.047-0.194-0.198-0.79-0.307-0.839
		c-0.108-0.05-0.514,0.077-0.658,0.292c-0.18,0.278-0.12,0.338-0.12,0.338s-0.279-0.325-0.146-0.753
		c0.134-0.424,0.488-0.487,0.667-0.498c0.185-0.012,0.331,0.025,0.402-0.195c0.074-0.217,0.062-0.437,0.364-0.536
		c0.305-0.096,0.646,0.185,0.756,0.731c0.109,0.548,0.377,0.584,0.694,0.643c0.317,0.063,0.888,0.207,0.973,0.486
		c0.085,0.28-0.246,0.402-0.472,0.344c-0.231-0.063-0.439-0.306-0.514-0.415c-0.071-0.107-0.217,0.049-0.133,0.229
		c0.086,0.186,0.524,0.574,0.986,0.427c0.46-0.144,0.412-0.645,0.218-0.9c-0.194-0.256-0.536-0.354-0.899-0.413
		c-0.365-0.061-0.489-0.075-0.548-0.273c-0.052-0.176,0.073-0.434,0.519-0.557c-0.02-0.158-0.11-0.637-0.464-0.983
		c-0.43-0.417-0.829-0.628-1.741-0.688c-0.911-0.063-1.667-0.085-2.336-0.662c-0.671-0.575-0.963-1.77-1.079-2.326
		c-0.114-0.557-0.146-0.913-0.146-0.913c-0.025-0.21,0.032-0.364,0.198-0.408c0.169-0.039,0.305,0.096,0.346,0.294
		c0.042,0.199,0.189,1.728,0.692,2.515c0.504,0.785,1.079,0.933,2.003,0.976c0.92,0.042,1.623,0.052,2.346,0.682
		c0.625,0.545,0.743,1.517,0.743,1.517v0.028c0.309,0.117,0.575,0.376,0.72,0.581c0.213,0.308,0.398,1.106,0.554,1.461
		c0.154,0.354,0.431,0.891,1.054,1.086c0.622,0.192,1.317-0.132,1.43-0.623c0.114-0.493,0.023-0.832,0.339-1.223
		c0,0-0.239-0.208-1.069-0.208c0,0,0.169-0.224,0.044-0.349c-0.122-0.124-0.652-0.124-0.815-0.021c0,0,0.04-0.255,0.271-0.462
		c0,0-0.54-0.481-1.248,0.244c0,0-0.237-0.295,0.217-0.793c0.417-0.449,1.13-0.267,1.308-0.184c0.177,0.086,0.393,0.156,0.522,0.14
		c0.131-0.016,0.386,0.116,0.585,0.256c0.199,0.137,0.377,0.236,0.483,0.231c0.108-0.009,0.385-0.07,0.654-0.148
		c0.269-0.076,0.846-0.223,1.293,0.07c0.445,0.293,1.077,0.836,1.723,1.131c0.645,0.293,1.475,0.376,2.214,0.021
		c0.739-0.354,1.218-0.736,1.363-0.8c0.146-0.06,0.5,0.08,0.52,0.409c0.024,0.33-0.453,0.499-0.636,0.61
		c-0.183,0.104-0.256,0.228-0.231,0.304c0.024,0.075,0.261,0.102,0.782,0.17c0.524,0.069,2.157,0.225,2.915,0.27
		c0.763,0.046,1.262,0,1.6-0.384c0.341-0.388,0.482-0.5,0.603-0.563c0.237-0.117,0.542,0.102,0.569,0.397
		c0.007,0.105,0,0.452-0.755,1.043c-0.677,0.529-1.108,0.438-1.554,0.393c-0.214-0.024-2.493-0.132-3.184-0.148
		c-0.691-0.016-2.452-0.074-3.214-0.369c-0.749-0.288-0.984-0.41-1.268-0.452c-0.283-0.048-0.447-0.048-0.462,0.076
		c-0.016,0.12,0.168,0.174,0.507,0.259c0.338,0.086,0.93,0.354,1.506,0.695c0.578,0.335,0.842,0.525,1.284,0.452
		c0.186-0.029,1.056-0.275,1.324-0.369c0.269-0.09,0.585-0.063,0.713,0.284c0.134,0.347-0.145,0.64-0.606,0.754
		c-0.461,0.117-0.777,0.378-0.431,0.672c0.348,0.29,1.03,0.684,1.716,1.022c0.685,0.335,2.573,1.223,2.968,1.36
		c0.48,0.168,0.837-0.052,1.107-0.215c0.27-0.161,0.5-0.2,0.653-0.063c0.155,0.141,0.278,0.485-0.084,0.739
		c-0.361,0.252-0.753,0.53-1.205,0.493c-0.356-0.031-0.948-0.203-1.495-0.43c-0.545-0.234-3.021-1.224-4.321-1.709
		c-1.3-0.483-1.513-0.471-1.583-0.379c-0.049,0.086,0.137,0.455,0.544,0.525c0.407,0.068,0.517,0.09,0.961,0.105
		c0,0-0.506,0.28-0.168,0.547c0.186,0.148,0.53,0.039,1.216,0.131c0,0-0.369,0.361,0.015,0.509c0.385,0.144,1.224,0.141,1.546,0.244
		c0,0-0.261,0.361,0.1,0.517c0.361,0.157,1.086,0.21,1.278,0.278c0,0-0.371,0.206-0.1,0.396c0,0,1.627,1.26,2.163,2.109
		c0.533,0.849,1.258,2.829,0.517,4.512c-0.735,1.682-1.653,2.292-2.466,2.688c-0.445,0.217-0.393,0.22-0.347,0.332
		c0.045,0.073,0.281,0.026,0.522-0.018c0.237-0.049,2.805-0.935,3.307-1.225c0.412-0.237,0.112-0.416-0.07-0.537
		c-0.184-0.117-0.487-0.652-0.327-1.529c0.16-0.874,0.637-1.21,1.266-1.226c0,0-0.478,0.574-0.392,1.383
		c0.073,0.674,0.208,0.728,0.327,0.873c0,0-0.206,0.299-0.062,0.516c0.144,0.218,0.526,0.271,0.654-0.061
		c0.126-0.337-0.023-0.35,0.009-0.652c0.053-0.513,0.502-1.177,0.985-1.507c0.465-0.317,0.966-0.272,1.381,0.142
		c0,0-0.735,0.096-1.077,0.738c-0.341,0.649-0.341,0.786-0.356,0.917c-0.02,0.137-0.21,0.255-0.271,0.304
		c-0.066,0.048-0.122,0.272,0.021,0.399c0.145,0.128,0.281-0.039,0.36-0.181c0.059-0.116,0.198-0.188,0.398-0.243
		c0.202-0.057,0.957-0.172,1.562,0.202s0.7,1.032,0.486,1.395c0,0-0.246-0.489-0.847-0.65c-0.416-0.107-0.753-0.075-1.115,0
		c-0.287,0.063-0.466-0.068-0.532-0.156c-0.063-0.087-0.432-0.007-0.447,0.286c-0.018,0.295,0.134,0.413,0.294,0.402
		c0.16-0.017,0.179-0.097,0.315-0.097c0.134,0,0.848,0.396,1.184,1.083c0.336,0.685,0.12,1.219-0.182,1.419
		c0,0-0.082-0.55-0.772-1.104c-0.492-0.393-0.751-0.479-0.916-0.564c-0.118-0.065-0.095-0.361-0.078-0.458
		c0.017-0.101-0.197-0.328-0.442-0.328c-0.247,0-0.454,0.303-0.429,0.477c0.021,0.176,0.299,0.319,0.316,0.472
		c0.016,0.15,0.112,1.177,0.963,1.601c0,0-0.281,0.519-0.998,0.143c-0.716-0.372-0.908-1.147-0.952-1.485
		c-0.047-0.347,0.103-0.495,0.199-0.586c0.096-0.09,0.167-0.272,0.057-0.424c-0.112-0.147-0.321-0.078-0.439-0.006
		c-0.122,0.069-2.056,1.202-3.721,1.626c-1.323,0.335-3.129,0.748-5.891-0.231c-2.285-0.809-2.952-1.245-4.234-0.75
		c-1.179,0.449-1.882,1.47-2.048,2.193c-0.113,0.497-0.131,1.093,0.182,1.533c0,0-0.563-0.146-0.627,0.148
		c-0.06,0.293,0.197,0.447,0.799,0.537c0.68,0.103,0.877,0.168,1.11,0.278c0,0-0.637,0.207-0.396,0.564
		c0.238,0.355,0.532,0.15,0.799,0.111c0.265-0.038,1.028-0.178,1.639,0.015c0,0-0.545,0.367-0.397,0.623
		c0.154,0.252,0.422,0.275,0.903,0.008c0.482-0.264,1.563-0.631,1.918-0.631c0,0-0.344,0.47-0.191,0.647
		c0.153,0.178,0.381,0.14,0.736-0.254c0.356-0.394,1.106-1.284,1.702-1.511c0,0-0.306,0.698-0.138,0.824
		c0.163,0.125,0.368,0.013,0.547-0.256c0.177-0.264,0.887-1.458,1.446-1.802c0,0-0.102,0.584-0.027,0.725
		c0.079,0.14,0.243,0.229,0.511-0.126c0.264-0.357,0.72-1.069,1.18-1.321c0,0,0,0.608,0.189,0.635
		c0.192,0.024,0.382-0.267,0.623-0.485c0.241-0.213,0.788-0.62,1.042-0.735c0,0-0.09,0.457,0.062,0.535
		c0.152,0.075,0.407-0.054,0.711-0.255c0.305-0.202,1.016-0.497,1.485-0.497c0,0-0.176,0.192-0.149,0.28
		c0.022,0.088,0.043,0.144,0.556,0.228c0.624,0.103,2.209,0.347,3.407,1.169c1,0.776,1.978,1.589,2.739,3.391
		C118.104,168.501,118.374,170.685,117.538,172.755 M101.023,146.3l-0.056-0.119c-0.024-0.039-0.219-0.41-0.917-0.721
		c-0.611-0.271-1.405-0.298-1.808,0.271c-0.227,0.314-0.261,0.629-0.1,0.933c0.067,0.127,0.463,0.635,1.033,0.568
		c0.449-0.052,0.872-0.212,1.296-0.477c0.343-0.222,0.445-0.326,0.47-0.355L101.023,146.3z M101.751,145.736
		c-0.422-0.668-1.272-1.361-2.378-1.391c-1.109-0.03-1.557,0.684-1.603,0.744c-0.047,0.065-0.105,0.169-0.059,0.228
		c0.046,0.065,0.125,0.041,0.156-0.015c0.396-0.611,1.041-0.894,2.015-0.682c0.974,0.215,1.65,1.138,1.712,1.24
		c0.063,0.103,0.118,0.151,0.171,0.145C101.823,145.996,101.861,145.91,101.751,145.736"/>
</g>
</svg>
