<?xml version="1.0" encoding="utf-8"?>
<!-- Generator: Adobe Illustrator 16.2.1, SVG Export Plug-In . SVG Version: 6.00 Build 0)  -->
<!DOCTYPE svg PUBLIC "-//W3C//DTD SVG 1.1//EN" "http://www.w3.org/Graphics/SVG/1.1/DTD/svg11.dtd">
<svg version="1.1" id="svg2367" xmlns:svg="http://www.w3.org/2000/svg"
	 xmlns="http://www.w3.org/2000/svg" xmlns:xlink="http://www.w3.org/1999/xlink" x="0px" y="0px" width="50px" height="50px"
	 viewBox="393.414 106.031 50 50" enable-background="new 393.414 106.031 50 50" xml:space="preserve">
<path fill="#9C9C9C" d="M422.347,139.632c-1.399,2.532,2.4,4.8,3.6,2.267L422.347,139.632L422.347,139.632L422.347,139.632z
	 M414.48,134.832c-0.267,0.4-0.467,0.799-0.467,1.333c0.067,2.134,3,2.267,3,2.267s2.066-0.133,3.4-0.533
	c-2.667,10.4,6.733,8.8,7.533,5.2l2.933,1.733c-0.6,1.199-1.8,2.266-3.733,2.666c4.466,4.268,3.799,8.533,3.799,8.533
	l-32.533-20.267h0.066l8.733-5.334L414.48,134.832L414.48,134.832z"/>
<path fill="#8C7035" d="M419.547,126.031c-0.067-2.4,3-2.134,3-2.134s2.134,0.4,3.333,0.667c-4.067-12.533,12.8-7.732,5.667-2.4
	c0.2-6.266-7.667-1.867-2.466,1.733c7.667,3.467,10.801-7.732,3.266-9.332c4.534-4.269,3.867-8.534,3.867-8.534l-32.201,19.467
	h-0.066l32.533,20.267c0,0,0.668-4.266-3.866-8.534c7.534-1.6,4.4-12.8-3.267-9.333c-5.2,3.602,2.667,8,2.467,1.734
	c6.732,5.2-9.267,11.199-5.867-2.001c-1.399,0.401-3.4,0.534-3.4,0.534S419.614,128.165,419.547,126.031L419.547,126.031z"/>
</svg>
