<?xml version="1.0" encoding="utf-8"?>
<!-- Generator: Adobe Illustrator 16.2.1, SVG Export Plug-In . SVG Version: 6.00 Build 0)  -->
<!DOCTYPE svg PUBLIC "-//W3C//DTD SVG 1.1//EN" "http://www.w3.org/Graphics/SVG/1.1/DTD/svg11.dtd">
<svg version="1.1" id="svg2367" xmlns:svg="http://www.w3.org/2000/svg"
	 xmlns="http://www.w3.org/2000/svg" xmlns:xlink="http://www.w3.org/1999/xlink" x="0px" y="0px" width="50px" height="50px"
	 viewBox="393.414 106.031 50 50" enable-background="new 393.414 106.031 50 50" xml:space="preserve">
<g>
	<path fill="#FFFFFF" d="M418.413,106.061c13.807,0,25.001,11.183,25.001,24.971c0,13.792-11.194,24.976-25.001,24.976
		c-13.807,0-24.999-11.184-24.999-24.976C393.414,117.243,404.605,106.061,418.413,106.061z"/>
	<path fill="#EC1F30" d="M429.156,115.98c7.613,2.343,13.147,9.432,13.147,17.804c0,1.213-0.117,2.41-0.342,3.569l-0.029,0.162
		c-0.58,3.282-1.911,6.309-3.819,8.89l-0.033,0.042c3.347-4.249,5.334-9.603,5.334-15.419c0-13.801-11.194-24.996-25.007-24.996
		c-6.296,0-12.043,2.327-16.44,6.158l-0.052,0.051c-3.467,3.172-5.639,7.734-5.639,12.796c0,2.097,0.372,4.114,1.058,5.983
		l0.034,0.078c1.736,3.812,5.578,6.459,10.044,6.459c6.094,0,11.029-4.933,11.029-11.016l-0.027-4.749
		c0-2.186,1.212-4.078,3.009-5.054l0.019-0.013c1.404-0.767,3.013-1.205,4.727-1.205c1.035,0,2.037,0.15,2.976,0.451L429.156,115.98
		z"/>
	<path fill="#00539C" d="M399.263,147.097c4.587,5.462,11.468,8.935,19.162,8.935c6.294,0,12.042-2.326,16.44-6.162l0.054-0.042
		c3.46-3.177,5.639-7.738,5.639-12.805c0-2.097-0.375-4.11-1.056-5.971l-0.034-0.087c-1.74-3.808-5.584-6.455-10.046-6.455
		c-6.096,0-11.036,4.933-11.036,11.017l0.032,4.744c0,2.177-1.213,4.078-3.009,5.054l-0.021,0.017
		c-1.4,0.768-3.009,1.205-4.721,1.205c-1.037,0-2.037-0.162-2.982-0.463h-0.01c-7.615-2.343-13.147-9.427-13.147-17.796
		c0-1.225,0.121-2.422,0.342-3.572l0.029-0.163c0.58-3.286,1.918-6.316,3.819-8.894l0.036-0.042
		c-3.345,4.249-5.338,9.603-5.338,15.423c0,4.016,0.95,7.811,2.632,11.166c0,0,0.839,1.872,1.504,2.719
		C398.217,145.77,399.263,147.097,399.263,147.097z"/>
</g>
</svg>
