<?xml version="1.0" encoding="utf-8"?>
<!-- Generator: Adobe Illustrator 16.2.1, SVG Export Plug-In . SVG Version: 6.00 Build 0)  -->
<!DOCTYPE svg PUBLIC "-//W3C//DTD SVG 1.1//EN" "http://www.w3.org/Graphics/SVG/1.1/DTD/svg11.dtd">
<svg version="1.1"
	 id="svg2" xmlns:svg="http://www.w3.org/2000/svg" xmlns:rdf="http://www.w3.org/1999/02/22-rdf-syntax-ns#" xmlns:cc="http://creativecommons.org/ns#" xmlns:dc="http://purl.org/dc/elements/1.1/" xmlns:sodipodi="http://sodipodi.sourceforge.net/DTD/sodipodi-0.dtd" xmlns:inkscape="http://www.inkscape.org/namespaces/inkscape" inkscape:version="0.48.1 " sodipodi:docname="AJAX.svg"
	 xmlns="http://www.w3.org/2000/svg" xmlns:xlink="http://www.w3.org/1999/xlink" x="0px" y="0px" width="50px" height="50px"
	 viewBox="100.5 44.998 50 50" enable-background="new 100.5 44.998 50 50" xml:space="preserve">
<path id="path24" inkscape:connector-curvature="0" fill="#ED1C24" d="M140.947,55.946c0,0-11.344-9.831-26.76-5.423
	c0,0-12.67,2.952-13.685,16.192c0,0-0.41,10.054,9.479,17.226l-7.229,2.822l8.318-1.883c0,0,8.022,6.013,19.531,5.718
	c11.508-0.293,18.81-7.892,19.899-13.241c0,0-3.82,11.212-20.178,11.359c0,0-9.445-0.589-14.476-4.682l34.358-7.839l-24.659-23.146
	l-7.173,25.174l8.907-15.768l10.052,10.92l-23.292,9.257c0,0-9.479-6.805-8.833-16.487c0.69-10.351,10.805-14.978,16.725-15.272
	c0,0,5.494-0.36,9.627,0.95c0,0,3.285,1.034,7.187,2.868L140.947,55.946L140.947,55.946z"/>
</svg>
