<?xml version="1.0" encoding="utf-8"?>
<!-- Generator: Adobe Illustrator 16.2.1, SVG Export Plug-In . SVG Version: 6.00 Build 0)  -->
<!DOCTYPE svg PUBLIC "-//W3C//DTD SVG 1.1//EN" "http://www.w3.org/Graphics/SVG/1.1/DTD/svg11.dtd">
<svg version="1.1"
	 id="svg5949" xmlns:inkscape="http://www.inkscape.org/namespaces/inkscape" xmlns:dc="http://purl.org/dc/elements/1.1/" xmlns:cc="http://creativecommons.org/ns#" xmlns:sodipodi="http://sodipodi.sourceforge.net/DTD/sodipodi-0.dtd" xmlns:rdf="http://www.w3.org/1999/02/22-rdf-syntax-ns#" inkscape:version="0.48.1 " sodipodi:docname="Neues Dokument 3" xmlns:svg="http://www.w3.org/2000/svg"
	 xmlns="http://www.w3.org/2000/svg" xmlns:xlink="http://www.w3.org/1999/xlink" x="0px" y="0px" width="50px" height="50px"
	 viewBox="0.5 30.5 50 50" enable-background="new 0.5 30.5 50 50" xml:space="preserve">
<sodipodi:namedview  inkscape:window-maximized="1" inkscape:current-layer="layer1" inkscape:window-height="990" inkscape:window-x="-4" inkscape:document-units="px" inkscape:zoom="1.4775143" borderopacity="1.0" showgrid="false" pagecolor="#ffffff" bordercolor="#666666" inkscape:cy="260" inkscape:cx="534.53003" inkscape:window-width="1680" inkscape:pageopacity="0.0" inkscape:pageshadow="2" inkscape:window-y="-4" fit-margin-left="0" fit-margin-top="0" id="base" fit-margin-bottom="0" fit-margin-right="0">
	</sodipodi:namedview>
<g id="layer1" transform="translate(965.2056,-280.09146)" inkscape:groupmode="layer" inkscape:label="Ebene 1">
	<g id="g2498" transform="matrix(18.490194,0,0,-18.490194,-561.49347,678.58968)">
		<path id="path2500" inkscape:connector-curvature="0" fill="#00AAE7" d="M-20.201,17.885v0.676h0.422l0.127-0.381l0.127,0.381
			h0.422v-0.676h-0.254v0.506l-0.168-0.506h-0.254l-0.168,0.508v-0.508H-20.201z M-21.342,18.266l0.297,0.295h-0.254l-0.254-0.253
			v0.254h-0.254v-0.677h0.254v0.254l0.254-0.254h0.338"/>
	</g>
	<g id="g2502" transform="matrix(18.490194,0,0,-18.490194,-582.22027,637.15238)">
		<path id="path2504" inkscape:connector-curvature="0" fill="#00AAE7" d="M-19.164,15.814v-0.17h-0.676v0.676h0.254v-0.506H-19.164
			z M-19.461,17.06v0.084h0.084v0.084h0.084v-0.084h0.084V17.06h-0.083v-0.085h-0.085v0.084"/>
	</g>
	<g id="g2506" transform="matrix(18.490194,0,0,-18.490194,-747.96637,419.61603)">
		<path id="path2508" inkscape:connector-curvature="0" fill="#00AAE7" d="M-10.876,4.936c0.082,0,0.148,0.067,0.148,0.148
			c0,0.082-0.067,0.148-0.148,0.148c-0.082,0-0.148-0.067-0.148-0.148C-11.024,5.003-10.958,4.936-10.876,4.936 M-10.538,4.936
			c0.082,0,0.148,0.067,0.148,0.148c0,0.082-0.067,0.148-0.148,0.148c-0.082,0-0.148-0.067-0.148-0.148
			C-10.686,5.003-10.62,4.936-10.538,4.936 M-10.2,4.936c0.082,0,0.148,0.067,0.148,0.148c0,0.082-0.067,0.148-0.148,0.148
			s-0.148-0.067-0.148-0.148C-10.348,5.003-10.282,4.936-10.2,4.936 M-9.862,4.936c0.082,0,0.148,0.067,0.148,0.148
			c0,0.082-0.067,0.148-0.148,0.148c-0.082,0-0.148-0.067-0.148-0.148C-10.01,5.003-9.944,4.936-9.862,4.936 M-9.862,4.893h-1.014
			V4.725h1.014V4.893z"/>
	</g>
</g>
</svg>
