<?xml version="1.0" encoding="utf-8"?>
<!-- Generator: Adobe Illustrator 16.2.1, SVG Export Plug-In . SVG Version: 6.00 Build 0)  -->
<!DOCTYPE svg PUBLIC "-//W3C//DTD SVG 1.1//EN" "http://www.w3.org/Graphics/SVG/1.1/DTD/svg11.dtd">
<svg version="1.1"
	 id="Layer_1" sodipodi:docname="AJAX.svg" inkscape:version="0.48.1 " xmlns:dc="http://purl.org/dc/elements/1.1/" xmlns:cc="http://creativecommons.org/ns#" xmlns:rdf="http://www.w3.org/1999/02/22-rdf-syntax-ns#" xmlns:svg="http://www.w3.org/2000/svg" xmlns:sodipodi="http://sodipodi.sourceforge.net/DTD/sodipodi-0.dtd" xmlns:inkscape="http://www.inkscape.org/namespaces/inkscape"
	 xmlns="http://www.w3.org/2000/svg" xmlns:xlink="http://www.w3.org/1999/xlink" x="0px" y="0px" width="50px" height="50px"
	 viewBox="99.901 49.506 50 50" enable-background="new 99.901 49.506 50 50" xml:space="preserve">
<sodipodi:namedview  inkscape:window-maximized="1" inkscape:current-layer="Layer_1" inkscape:window-height="1004" inkscape:window-x="-8" fit-margin-bottom="0" inkscape:pageopacity="0" inkscape:pageshadow="2" inkscape:window-width="1280" inkscape:window-y="-8" fit-margin-right="0" pagecolor="#ffffff" borderopacity="1" bordercolor="#666666" inkscape:cy="-23.371619" gridtolerance="10" fit-margin-top="0" objecttolerance="10" inkscape:zoom="2.4350534" inkscape:cx="173.34521" fit-margin-left="0" guidetolerance="10" showgrid="false" id="namedview65">
	</sodipodi:namedview>
<g id="g3" transform="translate(-0.599204, -0.993061)">
	<path id="path5" inkscape:connector-curvature="0" fill="#EC2227" d="M136.899,55.788c0,0-7.165-4.511-16.584-1.857
		c0,0-12.674,3.646-17.053,13.861c0,0-5.896,9.486-0.461,19.967c0,0,3.258,7.341,11.941,9.422c0,0,11.103,2.987,19.241-3.176
		c0,0,12.288-6.483,12.599-20.175C146.583,73.83,147.773,61.756,136.899,55.788 M142.864,79.666
		c-2.254,6.102-12.334,12.869-12.334,12.869c-18.042,9.021-25.083-4.058-25.083-4.058c-3.978-8.492,0.889-16.588,0.889-16.588
		c4.643-9.154,13.446-12.785,13.446-12.785c12.338-5.306,19.371,0.664,19.371,0.664C149.103,67.198,142.864,79.666,142.864,79.666"
		/>
	<path id="path7" inkscape:connector-curvature="0" fill="#EC2227" d="M117.12,66.631c0,0-4.846,11.333-4.913,12.016
		c0,0-1.71,5.325-0.89,10.514l8.588,0.252c0,0-2.375-1.143-0.875-7.218c0,0,1.025-3.618,1.775-3.89c0,0,0.205-0.341,0.343,0.271
		c0,0,1.703,6.144,6.282,10.788c0,0,2.863,3.958,9.962,6.688c0,0,6.214,1.639,9.9-1.429c0,0,3.141-1.912,3.207-7.446
		c0,0,0.054-0.561-0.476-0.135c0,0-2.322,2.593-8.26,2.117c0,0-1.773,0.341-6.687-3.414l-10.448-8.6c0,0-0.477-0.344,0.204-0.412
		c0,0,6.076-1.092,7.854-2.525c0,0,5.464-2.687,6.209-6.688c0,0,1.132-4.388-0.615-6.963c0,0-0.613-0.412-0.817,0.068
		c0,0-3.124,3.223-5.818,4.95l-8.043,5.219c0,0-0.617,0.41-0.134-0.543l2.32-6.146c0,0,1.297-2.114-2.252-1.842
		c0,0-5.35,0.539-8.306,4.184c0,0-0.23,0.118,0.182,0.252L117.12,66.631z"/>
</g>
</svg>
