<?xml version="1.0" encoding="utf-8"?>
<!-- Generator: Adobe Illustrator 16.2.1, SVG Export Plug-In . SVG Version: 6.00 Build 0)  -->
<!DOCTYPE svg PUBLIC "-//W3C//DTD SVG 1.1//EN" "http://www.w3.org/Graphics/SVG/1.1/DTD/svg11.dtd">
<svg version="1.1" id="svg2367" xmlns:svg="http://www.w3.org/2000/svg"
	 xmlns="http://www.w3.org/2000/svg" xmlns:xlink="http://www.w3.org/1999/xlink" x="0px" y="0px" width="50px" height="50px"
	 viewBox="0 0 50 50" enable-background="new 0 0 50 50" xml:space="preserve">
<path id="path5" d="M0,15c2.53,0.528,4.994,1.325,7.433,2.17c0.295-0.237,0.649-0.396,1.03-0.415
	c0.753-0.057,1.457,0.253,2.164,0.46c1.917,0.633,3.601,1.823,5.545,2.389c0.938,0.294,1.95,0.355,2.907,0.122
	c1.919-0.437,3.456-1.807,5.353-2.3c1.785-0.398,3.633-0.541,5.459-0.374c1.163,0.097,2.306,0.361,3.441,0.617
	c4.8,1.131,9.432,2.959,13.738,5.365c0.016,0.221-0.272,0.145-0.396,0.089c-3.296-1.19-6.644-2.319-10.131-2.79
	c-2.548-0.342-5.214-0.286-7.648,0.627c-1.492,0.541-2.836,1.44-3.986,2.529c1.783,1.939,3.897,3.546,6.156,4.882
	c2.088,1.215,4.267,2.278,6.523,3.138c3.086,1.106,6.204,2.128,9.388,2.922c0.996,0.237,2.001,0.46,3.021,0.542
	c0,0.061,0.003,0.183,0.003,0.239c-3.846-0.144-7.721-0.286-11.491-1.112c-2.399-0.52-4.737-1.301-6.983-2.287
	c-4.727-2.062-8.912-5.111-13.102-8.068c-2.297-1.562-4.718-2.933-7.16-4.252c-3.381-1.855-7.038-3.156-10.748-4.185
	C0.322,15.245,0.08,15.224,0,15z"/>
</svg>
