<?xml version="1.0" encoding="utf-8"?>
<!-- Generator: Adobe Illustrator 16.2.1, SVG Export Plug-In . SVG Version: 6.00 Build 0)  -->
<!DOCTYPE svg PUBLIC "-//W3C//DTD SVG 1.1//EN" "http://www.w3.org/Graphics/SVG/1.1/DTD/svg11.dtd">
<svg version="1.1" id="Layer_1" xmlns="http://www.w3.org/2000/svg" xmlns:xlink="http://www.w3.org/1999/xlink" x="0px" y="0px"
	 width="50px" height="50px" viewBox="79 39 50 50" enable-background="new 79 39 50 50" xml:space="preserve">
<path id="path7312_1_" fill="#18468B" d="M92.367,57.424l-7.798,9.912c0,0-1.741,2.1,2.191,4.623l3.092-3.983l0.657,0.476
	l-2.968,4.137l2.93,2.11l-2.234,2.838c0,0-1.191,1.588,0.203,3.271l0.021,0.08l-4.281,5.859c0,0-0.348,0.454-0.388,0.648
	c-0.042,0.193-0.08,0.365,0,0.435c0.083,0.056,0.269,0.143,0.639-0.216c0.362-0.369,5.223-5.153,5.223-5.153
	s0.181-0.365,0.773-0.066c0.593,0.301,1.15,0.651,2.419-0.38c1.266-1.035,3.79-4.704,3.79-4.704l0.201,0.03l0.353,4.912l6.697,0.018
	l8.932,6.73l1.247-0.062l-14.531-11.43l0.508-0.52l3.27,2.527l-2.807-22.055L92.367,57.424"/>
<path id="path7316_1_" fill="#419629" d="M93.769,46.107c-2.934-0.033-4.656,0.234-4.656,0.234
	c-2.024,0.267-2.747,0.841-2.747,0.841c-2.262,1.408-2.008,4.857-2.008,4.857l2.244-0.07l0.033,0.369
	c0.154,1.457,1.575,1.438,1.575,1.438c2.631-0.238,3.315,0.135,3.315,0.135c0.933,0.183,0.937,1.007,0.937,1.007l7.972-0.066
	c0,0-0.417-6.054-1.306-7.37c-0.735-1.064-2.043-1.24-2.043-1.24C95.858,46.147,94.746,46.121,93.769,46.107L93.769,46.107z
	 M101.673,57.969l0.47,3.515l3.85,0.099l0.671-2.04C106.664,59.542,104.448,57.987,101.673,57.969L101.673,57.969z M107.535,60.075
	l-0.669,2.012l2.209,2.575l2.513-0.066C111.587,64.596,110.46,61.521,107.535,60.075z M102.242,62.456l0.803,5.523l3.854,0.201
	l1.472-3.047l-2.377-2.647L102.242,62.456L102.242,62.456z M111.753,65.434l-2.513,0.1l-1.34,2.914l1.977,2.242h2.78
	C113.052,67.559,111.753,65.434,111.753,65.434L111.753,65.434z M103.18,68.916l0.77,5.325l3.585-0.066l1.809-3.017l-1.944-2.106
	L103.18,68.916z M93.467,70.759l-3.114,3.852c2.33,1.728,3.683-0.3,3.683-0.3C95.503,72.541,93.467,70.759,93.467,70.759z
	 M109.877,71.63l-1.708,2.714l2.178,2.008c1.527-1.683,2.078-4.722,2.078-4.722h-2.48H109.877z M107.567,75.079l-3.515,0.103
	l0.735,5.189c2.566-0.662,4.923-3.149,4.923-3.149L107.567,75.079L107.567,75.079z"/>
<path id="path7344_1_" fill="#C4122E" d="M93.636,39.008c-6.317,0.125-10.819,4.488-10.819,4.488l3.919,3.789
	c1.769-1.189,9.245-0.641,9.245-0.641c2.725-0.099,2.979,1.408,2.979,1.408c0.609,1.342,1.206,6.763,1.206,6.763l-8.003,0.037
	c-0.542,1.372,0.201,2.578,0.201,2.578l11.318,0.066h0.168c0.37-0.044,1.122-0.654,1.474-0.801c0.75-0.314,1.494-0.783,1.976-1.479
	c0.109-0.164,0.192-0.325,0.336-0.468c0.464-0.465,1.139-0.706,1.773-0.735c0.931-0.059,1.822,0.369,2.747,0.436
	c0.765,0.051,1.56-0.044,2.244-0.436c0.698-0.406,1.236-1.061,1.641-1.811c0.201-0.388,0.301-0.855,0.568-1.207
	c0.157-0.204,0.342-0.395,0.57-0.497c0.386-0.184,0.831-0.176,1.24-0.07c0.578,0.345,1.194,0.615,1.842,0.703
	c0.482,0.065,0.969,0.021,1.406-0.201c0.223-0.113,0.444-0.304,0.602-0.502c0.225-0.271,0.318-0.625,0.402-0.973l0.569-3.613
	c0.055-0.344,0.17-0.65,0.269-0.973c0.125-0.406,0.188-0.823,0.368-1.207c0.349-0.71,0.812-1.343,1.307-1.942v-0.099
	c-0.272-0.069-0.556-0.044-0.837-0.037c-0.9,0.037-1.801,0.187-2.679,0.37c-1.737,0.392-3.417,1.101-4.824,2.278
	c-0.241,0.201-0.472,0.446-0.702,0.669l-0.268,0.202c-1.123,0.271-2.148,0.954-2.847,1.942c-0.17,0.232-0.338,0.479-0.47,0.734
	c-0.077,0.149-0.104,0.307-0.167,0.472c-0.124,0.322-0.278,0.641-0.402,0.973c-0.154,0.369-0.438,0.71-0.77,0.9
	c-0.308,0.172-0.693,0.227-1.039,0.271c-0.887,0.125-1.776,0.106-2.677,0.032c-0.896,0.074-1.816,0.33-2.58,0.868
	c-0.28,0.208-0.536,0.468-0.77,0.742c-0.406,0.464-0.659,1.061-1.14,1.437c-1.619,1.277-1.845,1.376-2.244,1.339l-0.066-0.633
	l6.765-7.065l-0.135-0.037c-1.6,1.188-2.108-1.003-2.108-1.003c-0.666-2.534-2.948-4.355-2.948-4.355
	C99.005,38.715,93.636,39.008,93.636,39.008L93.636,39.008z M93.166,58.803l0.538,0.805l5.392,0.069l0.4-0.809L93.166,58.803z
	 M94.272,60.412l0.534,0.735l3.149,0.065l0.503-0.801H94.272z M95.241,61.919l0.402,0.633h1.509l0.333-0.633H95.241z M96.247,63.759
	c-2.471-0.121-3.484,1.576-3.484,1.576c-1.226,2.166,0.067,3.753,0.067,3.753L96.247,63.759z M96.583,63.759l3.716,5.694
	c0,0,1.079-1.668-0.267-3.818C100.033,65.635,98.844,63.82,96.583,63.759L96.583,63.759z M97.553,83.185
	c-0.179,0-0.245,0.233-0.301,0.401l-0.031,4.723l0.031,0.135v0.033l0.1,0.065l2.983,0.033c0.139,0,0.252-0.109,0.3-0.234
	c-0.047-0.435-0.025-0.87,0.101-1.306h0.066c0.578,0.819,1.485,1.284,2.412,1.54l4.289,0.069l0.167-0.103l0.066-0.267
	c0.048-0.501,0.073-1.039,0.033-1.544c0.062-0.157-0.051-0.273-0.199-0.328c-0.196-0.074-0.408,0.007-0.604,0
	c-0.574-0.056-1.158-0.231-1.641-0.571c-0.528-0.373-0.985-0.886-1.205-1.51c-0.117-0.29-0.15-0.59-0.201-0.904l-0.133-0.131
	L97.553,83.185L97.553,83.185z"/>
<path id="path7380_1_" fill="#18468B" d="M93.233,45.741c-2.626,0-4.139,0.234-4.153,0.234c-2.08,0.271-2.868,0.899-2.913,0.937
	c-0.975,0.633-1.529,1.609-1.809,2.513c-0.289,0.925-0.334,1.796-0.336,2.278c0,0.23,0,0.362,0,0.369l0.035,0.333l2.242-0.103
	l0.035,0.069c0.084,0.85,0.561,1.332,1.005,1.54c0.448,0.216,0.843,0.201,0.871,0.201h0.033c0.659-0.055,1.184-0.065,1.608-0.065
	c0.625,0,1.041,0.052,1.273,0.102l0.201,0.066h0.068h0.033l0.033,0.033c0.376,0.08,0.487,0.252,0.571,0.402l0.099,0.201v0.033v0.033
	h0.102h0.569c-0.002-0.033-0.013-0.297-0.168-0.604c-0.145-0.296-0.458-0.621-0.971-0.734c-0.071-0.037-0.488-0.234-1.809-0.238
	c-0.446,0-1.002,0.04-1.675,0.106c-0.106-0.008-0.413-0.081-0.669-0.238c-0.247-0.161-0.468-0.398-0.536-0.907
	c0.084,0.008,0.108,0,0.269,0c0.523,0,1.393-0.029,2.209-0.127c0.408-0.056,0.797-0.133,1.137-0.238
	c0.34-0.114,0.625-0.241,0.839-0.505l-0.502-0.436c-0.048,0.077-0.251,0.18-0.534,0.271c-0.863,0.282-2.388,0.34-3.149,0.337
	c-0.295,0-0.47,0-0.47,0l-2.076,0.099c0-0.432,0.042-1.258,0.301-2.077c0.256-0.819,0.719-1.628,1.54-2.144h0.033
	c0.042-0.033,0.757-0.56,2.613-0.801l0.267-0.037c0.536-0.062,1.845-0.201,3.786-0.201c1.092,0,2.399,0.056,3.851,0.169h0.033
	c0.219,0.028,1.196,0.263,1.743,1.071c0.168,0.237,0.344,0.845,0.501,1.576c0.243,1.101,0.446,2.524,0.569,3.65
	c0.121,1.123,0.165,1.942,0.168,1.942l0.669-0.037c0-0.004-0.114-1.532-0.334-3.211c-0.108-0.845-0.229-1.744-0.401-2.514
	c-0.172-0.771-0.364-1.393-0.638-1.806c-0.847-1.215-2.211-1.365-2.242-1.376h-0.035C95.649,45.793,94.34,45.741,93.233,45.741
	L93.233,45.741z M89.616,48.354c0,0-1.262-0.066-1.374,1.309l2.881-0.036C91.123,49.626,90.98,48.31,89.616,48.354z"/>
</svg>
