<?xml version="1.0" encoding="utf-8"?>
<!-- Generator: Adobe Illustrator 16.2.1, SVG Export Plug-In . SVG Version: 6.00 Build 0)  -->
<!DOCTYPE svg PUBLIC "-//W3C//DTD SVG 1.1//EN" "http://www.w3.org/Graphics/SVG/1.1/DTD/svg11.dtd">
<svg version="1.1" id="svg2367" xmlns:svg="http://www.w3.org/2000/svg"
	 xmlns="http://www.w3.org/2000/svg" xmlns:xlink="http://www.w3.org/1999/xlink" x="0px" y="0px" width="50px" height="50px"
	 viewBox="0 0 50 50" enable-background="new 0 0 50 50" xml:space="preserve">
<path fill="#FF1100" d="M34.216,35.957c-8.276,0.231-15.05,3.049-22.467,4.631C7.931,41.497,4.011,42.225,0,42.736
	c1.971,0.415,4.108,0.625,6.512,0.525c12.22-0.509,19.922-4.901,30.25-5.334c2.261-0.092,5.481-0.145,8.109,0.152
	C41.816,36.835,38.429,35.842,34.216,35.957"/>
<linearGradient id="SVGID_1_" gradientUnits="userSpaceOnUse" x1="397.6875" y1="-253.8013" x2="367.9182" y2="-276.6475" gradientTransform="matrix(1 0 0 -1 -346 -240)">
	<stop  offset="0" style="stop-color:#D7D7D7"/>
	<stop  offset="1" style="stop-color:#858585"/>
</linearGradient>
<path fill="url(#SVGID_1_)" d="M31.248,15.442c-2.607,0.641-5.147,1.339-7.495,2.113c0.771,0.978,2.141,2.392,3.845,4.032
	c-3.735,6.369-7.352,12.729-7.352,12.729c1.963-1.159,6.713-4.615,11.896-8.524c4.382,3.93,9.398,8.172,12.774,10.891
	c-0.962-3.557-3.178-10.43-5.307-16.597c4.616-3.576,8.663-6.806,10.391-8.317c-3.577,0.584-7.997,1.337-12.544,2.275
	C36.665,11.905,35.965,10.13,35.452,9C34.828,9.656,33.207,12.201,31.248,15.442"/>
</svg>
