<?xml version="1.0" encoding="utf-8"?>
<!-- Generator: Adobe Illustrator 16.2.1, SVG Export Plug-In . SVG Version: 6.00 Build 0)  -->
<!DOCTYPE svg PUBLIC "-//W3C//DTD SVG 1.1//EN" "http://www.w3.org/Graphics/SVG/1.1/DTD/svg11.dtd">
<svg version="1.1"
	 id="svg6928" xmlns:inkscape="http://www.inkscape.org/namespaces/inkscape" xmlns:dc="http://purl.org/dc/elements/1.1/" xmlns:cc="http://creativecommons.org/ns#" xmlns:sodipodi="http://sodipodi.sourceforge.net/DTD/sodipodi-0.dtd" xmlns:rdf="http://www.w3.org/1999/02/22-rdf-syntax-ns#" inkscape:version="0.48.1 " sodipodi:docname="AJAX.svg" xmlns:svg="http://www.w3.org/2000/svg"
	 xmlns="http://www.w3.org/2000/svg" xmlns:xlink="http://www.w3.org/1999/xlink" x="0px" y="0px" width="50px" height="50px"
	 viewBox="0.5 30.5 50 50" enable-background="new 0.5 30.5 50 50" xml:space="preserve">
<sodipodi:namedview  inkscape:window-maximized="1" inkscape:current-layer="svg6928" inkscape:window-height="1004" inkscape:window-x="-8" inkscape:zoom="4.0593542" guidetolerance="10" borderopacity="1" gridtolerance="10" showgrid="false" objecttolerance="10" pagecolor="#ffffff" bordercolor="#666666" inkscape:cy="20.208213" inkscape:cx="138.52546" inkscape:window-width="1280" inkscape:pageopacity="0" inkscape:pageshadow="2" inkscape:window-y="-8" fit-margin-left="0" fit-margin-top="0" id="namedview11" fit-margin-bottom="0" fit-margin-right="0">
	</sodipodi:namedview>
<g id="layer1" transform="translate(25.993439,-311.71689)">
	<g id="g6953" transform="matrix(4.09183,0,0,4.09183,-2270.71,-2430.78)">
		<g id="g3009" transform="matrix(1.25,0,0,-1.25,571.084,674.657)">
			<path id="path3011" inkscape:connector-curvature="0" fill="#00ABBF" d="M-12.109-3.497l-4.496-5.406
				c-0.047-0.05-0.065-0.112-0.045-0.159c0.021-0.05,0.068-0.083,0.133-0.083l6.949-0.003c0.062,0,0.106,0.053,0.106,0.112
				c0,0.062-0.029,0.098-0.092,0.112c-0.249,0.059-1.613,0.355-2.592,0.651c-0.61,0.184-0.846,0.707-0.687,1.403
				c0.175,0.773,0.914,3.252,0.917,3.258c0.018,0.05,0.006,0.115-0.048,0.142C-12.02-3.439-12.071-3.453-12.109-3.497"/>
		</g>
		<g id="g3013" transform="matrix(1.25,0,0,-1.25,567.645,670.566)">
			<path id="path3015" inkscape:connector-curvature="0" fill="#00ABBF" d="M-10.255-5.7c2.69,0,4.88-2.189,4.88-4.899
				c0-2.687-2.19-4.877-4.88-4.877c-2.708,0-4.895,2.192-4.895,4.877C-15.154-7.889-12.963-5.7-10.255-5.7 M-10.255-6.298
				c-2.374,0-4.301-1.923-4.301-4.301c0-2.37,1.927-4.297,4.301-4.297s4.3,1.924,4.3,4.297C-5.955-8.203-7.881-6.298-10.255-6.298"
				/>
		</g>
	</g>
</g>
</svg>
