<?xml version="1.0" encoding="utf-8"?>
<!-- Generator: Adobe Illustrator 16.2.1, SVG Export Plug-In . SVG Version: 6.00 Build 0)  -->
<!DOCTYPE svg PUBLIC "-//W3C//DTD SVG 1.1//EN" "http://www.w3.org/Graphics/SVG/1.1/DTD/svg11.dtd">
<svg version="1.1" id="svg2367" xmlns:svg="http://www.w3.org/2000/svg"
	 xmlns="http://www.w3.org/2000/svg" xmlns:xlink="http://www.w3.org/1999/xlink" x="0px" y="0px" width="50px" height="50px"
	 viewBox="393.414 106.031 50 50" enable-background="new 393.414 106.031 50 50" xml:space="preserve">
<g id="g6737" transform="translate(-263.3037,348.46946)">
	<path id="path5423" fill="#EFAE00" d="M706.717-217.376c0,13.841-11.172,24.938-25.03,24.938c-13.797,0-24.97-11.098-24.97-24.878
		c0-14.086,11.172-25.122,25.397-25.122C695.606-242.438,706.717-231.096,706.717-217.376z M659.281-217.376
		c0,12.378,10.012,22.316,22.406,22.316c12.332,0,22.405-9.878,22.405-22.256c0-12.622-9.89-22.5-22.588-22.5
		C669.355-239.816,659.281-229.694,659.281-217.376z M676.192-218.414l-0.305,0.609c-1.099-0.243-3.236-1.036-5.433-2.012
		l-0.306,0.549l0.916,0.487c3.175,1.646,4.274,2.013,6.044,2.013c3.724,0,6.532-2.073,7.875-5.793c2.259-0.488,5.189-0.67,8.73-0.67
		c2.992,0,5.556,0.121,8.914,0.548l-0.855,1.037c-1.526-0.184-4.396-0.365-6.41-0.365c-2.503,0-3.968,0-4.823,0.061l-0.366,0.914
		c2.014-0.122,2.747-0.122,4.334-0.122c2.748,0,4.884,0.122,6.654,0.244l-0.854,1.159c-3.175-0.122-4.579-0.184-6.96-0.184
		c-1.282,0-2.259,0.062-3.785,0.122l-0.427,0.915c1.343-0.123,3.235-0.184,5.128-0.184s4.09,0.061,5.372,0.123l-0.854,1.097
		c-0.916-0.061-2.625-0.061-3.968-0.061c-2.137,0-4.884,0.121-6.227,0.305l-0.428,0.792c2.564-0.243,4.151-0.365,6.96-0.365
		c1.099,0,1.771,0,3.052,0.122l-0.977,1.157c-1.709-0.121-2.259-0.121-2.93-0.121c-4.701,0-7.814,0.671-10.928,2.439
		c2.869,2.865,7.57,4.817,11.844,4.817c0.366,0,0.549,0,1.465-0.062l-2.015,2.073c-11.294-2.987-13.309-3.78-23.688-9.939
		c-4.09-2.317-7.448-3.902-10.134-4.694l0.366-1.281c0.611,0.122,2.015,0.488,3.297,0.977l0.61-1.403L676.192-218.414"/>
</g>
</svg>
