<?xml version="1.0" encoding="utf-8"?>
<!-- Generator: Adobe Illustrator 16.2.1, SVG Export Plug-In . SVG Version: 6.00 Build 0)  -->
<!DOCTYPE svg PUBLIC "-//W3C//DTD SVG 1.1//EN" "http://www.w3.org/Graphics/SVG/1.1/DTD/svg11.dtd">
<svg version="1.1"
	 id="svg2" sodipodi:version="0.32" inkscape:version="0.45.1" xmlns:dc="http://purl.org/dc/elements/1.1/" xmlns:cc="http://web.resource.org/cc/" xmlns:rdf="http://www.w3.org/1999/02/22-rdf-syntax-ns#" xmlns:svg="http://www.w3.org/2000/svg" xmlns:sodipodi="http://sodipodi.sourceforge.net/DTD/sodipodi-0.dtd" xmlns:inkscape="http://www.inkscape.org/namespaces/inkscape"
	 xmlns="http://www.w3.org/2000/svg" xmlns:xlink="http://www.w3.org/1999/xlink" x="0px" y="0px" width="50px" height="50px"
	 viewBox="241.5 205.5 50 50" enable-background="new 241.5 205.5 50 50" xml:space="preserve">
<g id="layer1" transform="translate(-99.861603,-305.64115)" inkscape:groupmode="layer" inkscape:label="Layer 1">
	<path id="path4343" fill="#6B8E8B" d="M349.055,518.469c2.233-2.282,4.802-4.096,7.814-5.3c3.017-1.386,6.141-2.028,9.492-2.028
		c3.349,0,6.476,0.643,9.492,2.028c3.011,1.204,5.583,3.018,7.816,5.3c2.452,2.326,4.129,4.955,5.358,7.975
		c1.337,3.104,1.896,6.337,1.896,9.697c0,3.403-0.557,6.641-1.896,9.699c-1.229,3.016-2.906,5.688-5.358,7.971
		c-2.233,2.331-4.805,4.099-7.816,5.391c-3.018,1.294-6.145,1.939-9.492,1.939c-3.353,0-6.477-0.646-9.492-1.939
		c-3.014-1.292-5.581-3.06-7.814-5.391c-2.233-2.282-3.908-4.958-5.249-7.971c-1.227-3.059-2.006-6.296-2.006-9.699
		c0-3.36,0.781-6.594,2.006-9.697C345.147,523.422,346.822,520.793,349.055,518.469 M357.653,515.625
		c-2.68,1.118-5.024,2.714-7.147,4.781c-2.01,2.025-3.46,4.398-4.577,7.072c-1.117,2.711-1.674,5.602-1.674,8.62
		c0,3.018,0.557,5.86,1.674,8.622c1.116,2.628,2.567,4.999,4.577,7.022c2.123,2.069,4.468,3.665,7.147,4.74
		c2.792,1.209,5.582,1.812,8.486,1.812c3.013,0,5.805-0.603,8.595-1.812c2.568-1.075,4.805-2.673,6.921-4.74
		c2.014-2.023,3.463-4.395,4.582-7.022c1.338-2.762,1.899-5.604,1.899-8.622c0-3.019-0.557-5.909-1.899-8.62
		c-1.118-2.674-2.568-5.047-4.582-7.072c-2.116-2.067-4.353-3.663-6.921-4.781c-2.79-1.164-5.582-1.727-8.595-1.727
		C363.235,513.899,360.445,514.461,357.653,515.625"/>
	<polygon id="polygon4345" fill="#7C6A6C" points="373.619,535.796 364.685,535.796 364.685,537.433 358.545,533.987 
		364.685,530.75 364.685,532.431 369.933,532.431 364.685,528.122 354.416,533.772 346.821,533.727 354.082,526.308 
		354.082,530.279 365.019,524.287 374.957,532.693 385.341,532.693 385.341,535.883 378.644,535.883 381.659,538.512 
		385.118,538.512 385.118,541.831 380.653,541.831 	"/>
	<polygon id="polygon4347" fill="#7C6A6C" points="374.957,541.27 353.855,541.27 353.855,543.336 347.937,539.461 353.855,536.011 
		353.855,537.953 374.957,537.953 	"/>
	
		<path id="path4349" fill="none" stroke="#FFFFFF" stroke-width="0.8333" stroke-linecap="round" stroke-linejoin="round" stroke-miterlimit="2.613" d="
		M351.063,531.139c-0.334-0.17-0.555-0.299-0.555-0.515c0-0.215,0.22-0.435,0.555-0.559l1.119-0.217
		c0.555,0,1.002,0.043,1.116,0.217c0.447,0.127,0.557,0.344,0.557,0.559c0,0.214-0.112,0.345-0.557,0.515
		c-0.114,0.132-0.559,0.217-1.116,0.217S351.288,531.271,351.063,531.139"/>
	<path id="path4351" fill="#120B14" d="M364.685,519.761c-7.256,1.465-13.622,5.689-18.98,12.8l-0.223-0.13
		c1.9-4.269,5.808-7.712,11.611-10.34C359.106,521.013,361.673,520.191,364.685,519.761"/>
</g>
</svg>
