<?xml version="1.0" encoding="utf-8"?>
<!-- Generator: Adobe Illustrator 16.2.1, SVG Export Plug-In . SVG Version: 6.00 Build 0)  -->
<!DOCTYPE svg PUBLIC "-//W3C//DTD SVG 1.1//EN" "http://www.w3.org/Graphics/SVG/1.1/DTD/svg11.dtd">
<svg version="1.1" id="svg2367" xmlns:svg="http://www.w3.org/2000/svg"
	 xmlns="http://www.w3.org/2000/svg" xmlns:xlink="http://www.w3.org/1999/xlink" x="0px" y="0px" width="50px" height="50px"
	 viewBox="393.414 106.031 50 50" enable-background="new 393.414 106.031 50 50" xml:space="preserve">
<path id="path18" fill="#1C2D5B" d="M419.129,132.03c0.119-0.396,0.174-0.779,0.205-1.171c0.101-1.475-0.91-3.141-2.985-3.388l0,0
	h-1.041l0,0c-2.057,0.247-2.992,1.913-2.992,3.388c0,0.402,0.086,0.904,0.224,1.312c0.377,1.023,1.214,1.909,2.745,2.076
	C417.104,134.317,418.442,133.913,419.129,132.03L419.129,132.03L419.129,132.03z M416.255,122.031h27.158l-1.418,5.439h-5.526
	l-3.276,12.229h-6.097l3.277-12.229h-5.736l0,0c0.632,1.108,0.973,2.268,0.892,3.388c-0.273,4.04-2.526,8.674-9.428,8.829l0,0l0,0
	H399.51v0.012h-6.096l4.733-17.662h6.096l-3.271,12.21h5.595l0,0c-0.421-1.102-0.62-2.267-0.62-3.389
	c0-4.112,3.141-8.821,9.788-8.821c0.173,0,0.341,0,0.515,0.012l0,0L416.255,122.031z"/>
<path id="path22" fill="#1C2D5B" d="M419.155,131.937l-0.068,0.174h-3.458l1.048,0.75l0,0c0.396,0.285,0.421,0.984,0.223,1.257l0,0
	l-1.976-2.007l-2.385,0.006l-0.038-0.093l0,0c0.818-0.216,1.611-0.471,2.33-0.705l0,0l1.802-3.805l0,0
	c0.193,0.391,0.707,0.769,0.335,1.356l0,0l-1.4,2.213l0,0c0.83-0.225,1.035,0.593,1.258,0.749c0.173,0.117,0.644,0.099,0.911,0.043
	c0.279-0.062,0.018-0.348,0.253-0.348c1.146,0,0.706,0.509,1.016,0.453C419.049,131.981,419.11,131.931,419.155,131.937
	L419.155,131.937z"/>
</svg>
