<?xml version="1.0" encoding="utf-8"?>
<!-- Generator: Adobe Illustrator 16.2.1, SVG Export Plug-In . SVG Version: 6.00 Build 0)  -->
<!DOCTYPE svg PUBLIC "-//W3C//DTD SVG 1.1//EN" "http://www.w3.org/Graphics/SVG/1.1/DTD/svg11.dtd">
<svg version="1.1" id="svg2367" xmlns:svg="http://www.w3.org/2000/svg"
	 xmlns="http://www.w3.org/2000/svg" xmlns:xlink="http://www.w3.org/1999/xlink" x="0px" y="0px" width="50px" height="50px"
	 viewBox="393.414 106.031 50 50" enable-background="new 393.414 106.031 50 50" xml:space="preserve">
<path fill="#E60005" d="M423.298,112.723h20.116c-3.11,12.424-6.101,24.886-9.218,37.309h-40.782v-0.388l0.003,0.38
	C403.351,137.568,413.319,125.141,423.298,112.723 M421.041,119.911c0.005,2.672-0.006,5.349,0.006,8.021
	c-2.663,0.006-5.326-0.007-7.989,0.006c0.014,2.295,0.014,4.585,0,6.877c2.664,0.014,5.327,0,7.989,0.008
	c-0.013,2.673-0.001,5.35-0.006,8.021c2.313,0.013,4.623,0.006,6.935,0.002c-0.013-2.674,0-5.351-0.006-8.026
	c2.673,0,5.345,0.003,8.02,0c-0.004-2.294-0.004-4.59,0-6.886c-2.673,0-5.347,0-8.02,0.003c0.006-2.677-0.006-5.352,0.006-8.026
	C425.663,119.904,423.353,119.896,421.041,119.911z"/>
<g id="_x23_ffffffff">
	<path fill="#FFFFFF" d="M421.041,119.911c2.313-0.014,4.623-0.008,6.935-0.004c-0.013,2.676,0,5.353-0.006,8.029
		c2.673-0.005,5.345-0.005,8.02-0.005c-0.004,2.298-0.004,4.594,0,6.888c-2.673,0.003-5.347,0-8.02,0
		c0.006,2.673-0.006,5.35,0.006,8.026c-2.312,0.003-4.623,0.009-6.935-0.005c0.005-2.672-0.006-5.349,0.006-8.019
		c-2.663-0.008-5.326,0.006-7.989-0.008c0.014-2.295,0.014-4.582,0-6.877c2.664-0.013,5.327,0,7.989-0.006
		C421.034,125.26,421.045,122.583,421.041,119.911z"/>
</g>
</svg>
