<?xml version="1.0" encoding="utf-8"?>
<!-- Generator: Adobe Illustrator 16.2.1, SVG Export Plug-In . SVG Version: 6.00 Build 0)  -->
<!DOCTYPE svg PUBLIC "-//W3C//DTD SVG 1.1//EN" "http://www.w3.org/Graphics/SVG/1.1/DTD/svg11.dtd">
<svg version="1.1"
	 id="svg2" xmlns:inkscape="http://www.inkscape.org/namespaces/inkscape" xmlns:dc="http://purl.org/dc/elements/1.1/" xmlns:cc="http://creativecommons.org/ns#" xmlns:sodipodi="http://sodipodi.sourceforge.net/DTD/sodipodi-0.dtd" xmlns:rdf="http://www.w3.org/1999/02/22-rdf-syntax-ns#" inkscape:version="0.48.1 " sodipodi:docname="ZZ1.svg" xmlns:svg="http://www.w3.org/2000/svg"
	 xmlns="http://www.w3.org/2000/svg" xmlns:xlink="http://www.w3.org/1999/xlink" x="0px" y="0px" width="50px" height="50px"
	 viewBox="0.5 30.5 50 50" enable-background="new 0.5 30.5 50 50" xml:space="preserve">
<sodipodi:namedview  inkscape:window-maximized="1" inkscape:current-layer="svg2" inkscape:window-height="1004" inkscape:window-x="-8" inkscape:zoom="0.27847449" guidetolerance="10" borderopacity="1" gridtolerance="10" showgrid="false" objecttolerance="10" pagecolor="#ffffff" bordercolor="#666666" inkscape:cy="-190.26831" inkscape:cx="1776.9939" inkscape:window-width="1280" inkscape:pageopacity="0" inkscape:pageshadow="2" inkscape:window-y="-8" fit-margin-left="0" fit-margin-top="0" id="namedview58" fit-margin-bottom="0" fit-margin-right="0">
	</sodipodi:namedview>
<path id="path22" sodipodi:nodetypes="ccccccccccccc" inkscape:connector-curvature="0" fill="#001246" d="M12.315,43.524
	c2.627-0.048,5.262-0.007,7.892-0.022c9.875,0,19.749,0,29.625,0c0.305-0.021,0.608,0.212,0.654,0.522
	c0.064,0.351-0.109,0.688-0.25,1c-0.48,1.001-0.934,2.013-1.407,3.009c-0.222,0.48-0.628,0.855-1.104,1.077
	c-0.524,0.233-1.114,0.178-1.673,0.183c-11.584,0-23.176,0-34.762,0c-0.566-0.03-1.153,0.083-1.698-0.102
	c-0.449-0.194-0.407-0.784-0.243-1.158c0.531-1.123,1.047-2.253,1.576-3.376C11.19,44.094,11.735,43.714,12.315,43.524
	L12.315,43.524z"/>
<path id="path26" sodipodi:nodetypes="ccccccccccccccccccc" inkscape:connector-curvature="0" fill="#001246" d="M24.101,52.953
	c0.695-0.758,1.301-1.608,2.073-2.292c0.132,0.152,0.262,0.318,0.335,0.513c0.222,0.592,0.446,1.183,0.668,1.777
	c0.92,0.027,1.849-0.049,2.771,0.044c0.363,0.051,0.308,0.528,0.127,0.751c-0.563,0.739-1.22,1.4-1.802,2.123
	c0.246,0.583,0.462,1.174,0.679,1.766c0.079,0.24,0.109,0.638-0.215,0.698c-0.883,0.205-1.8,0.046-2.694,0.113
	c-0.619,0.635-1.146,1.354-1.768,1.991c-0.097,0.128-0.254,0.157-0.402,0.135c-0.349-0.68-0.568-1.422-0.846-2.131
	c-0.936-0.042-1.874,0.056-2.801-0.051c-0.395-0.049-0.34-0.538-0.146-0.776c0.562-0.744,1.252-1.392,1.802-2.146
	c-0.203-0.664-0.529-1.288-0.705-1.96c-0.09-0.316,0.25-0.513,0.522-0.518C22.497,52.914,23.299,52.972,24.101,52.953z"/>
<path id="path28" sodipodi:nodetypes="cccccccccccc" inkscape:connector-curvature="0" fill="#001246" d="M3.772,62.122
	c5.629-0.036,11.258-0.004,16.888-0.016c6.789,0.002,13.579-0.002,20.365,0.002c0.375-0.037,0.786,0.259,0.756,0.661
	c0.03,0.296-0.125,0.557-0.24,0.815c-0.467,0.991-0.929,1.987-1.391,2.981c-0.345,0.751-1.133,1.391-1.995,1.303
	c-12.347-0.007-24.693,0.008-37.036-0.004c-0.543,0-0.751-0.654-0.536-1.082c0.365-0.857,0.786-1.696,1.171-2.542
	c0.271-0.526,0.435-1.132,0.88-1.539C2.95,62.409,3.34,62.174,3.772,62.122z"/>
</svg>
