<?xml version="1.0" encoding="utf-8"?>
<!-- Generator: Adobe Illustrator 16.2.1, SVG Export Plug-In . SVG Version: 6.00 Build 0)  -->
<!DOCTYPE svg PUBLIC "-//W3C//DTD SVG 1.1//EN" "http://www.w3.org/Graphics/SVG/1.1/DTD/svg11.dtd">
<svg version="1.1"
	 id="svg2" sodipodi:version="0.32" inkscape:output_extension="org.inkscape.output.svg.inkscape" sodipodi:docname="Air_Madagascar_Logo.svg" inkscape:version="0.46" xmlns:inkscape="http://www.inkscape.org/namespaces/inkscape" xmlns:cc="http://creativecommons.org/ns#" xmlns:rdf="http://www.w3.org/1999/02/22-rdf-syntax-ns#" xmlns:sodipodi="http://sodipodi.sourceforge.net/DTD/sodipodi-0.dtd" xmlns:svg="http://www.w3.org/2000/svg" xmlns:dc="http://purl.org/dc/elements/1.1/"
	 xmlns="http://www.w3.org/2000/svg" xmlns:xlink="http://www.w3.org/1999/xlink" x="0px" y="0px" width="50px" height="50px"
	 viewBox="125.5 52 50 50" enable-background="new 125.5 52 50 50" xml:space="preserve">
<defs>
	
	
		<inkscape:perspective  inkscape:vp_z="1332.5 : 115.625 : 1" inkscape:vp_x="0 : 115.625 : 1" sodipodi:type="inkscape:persp3d" inkscape:vp_y="0 : 1000 : 0" id="perspective42" inkscape:persp3d-origin="666.25 : 77.083333 : 1">
		</inkscape:perspective>
</defs>
<sodipodi:namedview  id="base" objecttolerance="10.0" borderopacity="1.0" bordercolor="#666666" pagecolor="#ffffff" gridtolerance="10.0" guidetolerance="10.0" inkscape:cx="666.25" inkscape:zoom="0.40825516" inkscape:cy="115.625" showgrid="false" inkscape:pageopacity="0.0" inkscape:window-height="669" inkscape:window-y="51" inkscape:window-width="640" inkscape:pageshadow="2" inkscape:current-layer="svg2" inkscape:window-x="23">
	</sodipodi:namedview>
<g id="_x23_ffffffff">
</g>
<g id="_x23_7e1d2eff">
	<path id="path6" fill="#7E1D2E" d="M146.741,61.573c1.373-0.226,3.277,0.016,3.763,1.557c0.269-0.533,0.632-1.063,1.212-1.293
		c0.812-0.408,1.734-0.33,2.608-0.26c-0.853,0.727-1.206,1.835-1.462,2.887c-0.454,1.935-0.568,3.925-0.863,5.885
		c-0.087,0.427-0.15,0.875-0.378,1.253c-0.194,0.263-0.528,0.355-0.801,0.515c0.017,2.161,0,4.321,0.01,6.481
		c0.276,0.245,0.547,0.493,0.82,0.741c0.702-3.246,1.42-6.496,2.316-9.697c0.463-1.842,1.036-3.662,1.753-5.426
		c0.3-0.771,0.973-1.435,1.825-1.516c1.52-0.204,2.93,0.601,4.165,1.386c-0.55,0.13-1.126,0.26-1.565,0.638
		c-0.628,0.53-1.032,1.268-1.39,1.993c-0.712,1.513-1.396,3.032-2.102,4.544c-0.287,0.522-0.546,1.148-1.124,1.415
		c-0.569-0.007-1.108-0.244-1.664-0.355c-0.593,2.505-1.212,5.014-1.688,7.545c0.024,0.386,0.221,0.952,0.644,1.038
		c2.718-4.817,5.382-9.743,9.04-13.934c0.578-0.72,1.541-1.146,2.459-0.908c1.545,0.333,2.621,1.615,3.529,2.816
		c-1.165-0.104-2.354,0.244-3.238,1.019c-1.44,1.245-2.688,2.698-4.127,3.943c-0.386,0.293-0.808,0.656-1.319,0.638
		c-0.479-0.13-0.872-0.452-1.321-0.656c-0.228-0.174-0.339,0.2-0.45,0.326c-1.518,2.453-2.877,4.995-4.291,7.508
		c0.206,0.438,0.424,0.863,0.658,1.286c2.924-3.298,5.951-6.541,9.453-9.238c1.09-0.846,2.242-1.616,3.459-2.265
		c1.236-0.682,2.902-0.411,3.86,0.623c0.794,0.896,1.28,2.02,1.712,3.123c-1.038-0.459-2.224-0.633-3.324-0.292
		c-1.852,0.545-3.493,1.608-5.294,2.286c-0.419,0.137-0.9,0.263-1.319,0.066c-0.436-0.289-0.772-0.7-1.154-1.049
		c-2.144,1.891-4.101,3.973-6.011,6.097c-0.337,0.389-0.725,0.745-0.997,1.186c0.021,0.563,0.378,1.053,0.59,1.561
		c4.139-3.139,8.462-6.297,13.535-7.724c1.441-0.362,3.077-0.692,4.447,0.086c0.876,0.467,1.355,1.4,1.589,2.331
		c0.221,0.756,0.386,1.526,0.475,2.309c-1.758-1.482-4.196-1.353-6.329-1.026c-1.183,0.107-2.442,0.57-3.593,0.104
		c-0.386-0.43-0.606-0.975-0.898-1.468c-3.204,1.631-6.139,3.747-8.95,5.978c0.198,0.578,0.425,1.148,0.681,1.705
		c4.31-2.272,8.896-4.406,13.847-4.618c1.741-0.007,3.715,0.156,5.016,1.457c1.204,1.301,0.989,3.213,0.8,4.832
		c-0.401-0.574-0.833-1.156-1.462-1.501c-1.758-1.008-3.826-1.16-5.801-1.359c-0.615-0.108-1.303-0.119-1.821-0.508
		c-0.378-0.512-0.378-1.189-0.588-1.775c-3.442,0.849-6.665,2.372-9.767,4.062c0.078,0.46,0.293,0.927,0.196,1.397
		c-0.322,0.566-0.826,0.996-1.262,1.471c-1.136,1.108-2.316,2.238-3.795,2.868c-0.937,0.334-1.803-0.355-2.545-0.837
		c-1.242-0.953-2.389-2.035-3.396-3.229c-0.422-0.485-0.05-1.13,0.033-1.671c-3.127-1.66-6.35-3.272-9.83-4.032
		c-0.18,0.737-0.148,1.872-1.115,2.031c-1.962,0.438-4.034,0.318-5.931,1.067c-1.054,0.326-1.962,1.026-2.546,1.96
		c-0.339-1.123-0.259-2.327,0.021-3.457c0.369-1.298,1.577-2.168,2.84-2.476c2.21-0.549,4.53-0.274,6.724,0.229
		c3.558,0.808,6.85,2.428,10.07,4.088c0.23-0.567,0.458-1.138,0.675-1.709c-2.835-2.208-5.746-4.361-8.97-5.966
		c-0.291,0.481-0.493,1.026-0.875,1.448c-0.693,0.342-1.495,0.2-2.231,0.111c-1.751-0.24-3.537-0.607-5.303-0.289
		c-0.895,0.148-1.712,0.582-2.424,1.135c0.156-1.075,0.389-2.139,0.769-3.158c0.413-1.052,1.447-1.778,2.553-1.927
		c1.336-0.192,2.668,0.192,3.943,0.556c4.754,1.531,8.872,4.477,12.77,7.516c0.229-0.475,0.497-0.934,0.658-1.441
		c-0.019-0.219-0.206-0.367-0.328-0.537c-2.129-2.383-4.323-4.714-6.687-6.867c-0.609,0.479-1.136,1.386-2.045,1.097
		c-2.125-0.607-3.956-2.012-6.129-2.494c-0.99-0.236-2.018-0.019-2.933,0.382c0.355-1.015,0.821-2.001,1.46-2.868
		c0.863-1.148,2.542-1.59,3.854-0.993c0.886,0.396,1.683,0.952,2.488,1.482c4.019,2.85,7.408,6.467,10.671,10.124
		c0.232-0.415,0.45-0.841,0.643-1.278c-1.494-2.657-2.902-5.373-4.573-7.931c-0.671,0.289-1.396,1.086-2.151,0.567
		c-1.088-0.663-1.888-1.687-2.822-2.538c-1.064-0.986-2.001-2.235-3.439-2.688c-0.569-0.215-1.182-0.192-1.778-0.182
		c1.043-1.304,2.286-2.846,4.107-2.879c1.123-0.056,1.868,0.882,2.513,1.66c3.355,4.088,5.917,8.738,8.481,13.341
		c0.228-0.315,0.526-0.611,0.621-1.001c-0.467-2.575-1.116-5.113-1.697-7.671c-0.547,0.097-1.075,0.304-1.63,0.338
		c-0.54-0.134-0.766-0.712-1.029-1.142c-0.895-1.812-1.669-3.684-2.594-5.484c-0.508-0.993-1.403-1.823-2.548-1.953
		c1.091-0.812,2.422-1.445,3.808-1.431c0.928-0.011,1.746,0.638,2.096,1.472c0.717,1.752,1.295,3.561,1.751,5.398
		c0.9,3.239,1.658,6.516,2.346,9.806c0.276-0.24,0.584-0.459,0.802-0.76c0.06-2.148-0.011-4.306,0.035-6.459
		c-0.33-0.192-0.752-0.326-0.908-0.711c-0.152-0.359-0.221-0.745-0.287-1.127c-0.28-1.938-0.406-3.906-0.849-5.822
		C147.943,63.404,147.56,62.322,146.741,61.573z"/>
</g>
</svg>
