<?xml version="1.0" encoding="utf-8"?>
<!-- Generator: Adobe Illustrator 16.2.1, SVG Export Plug-In . SVG Version: 6.00 Build 0)  -->
<!DOCTYPE svg PUBLIC "-//W3C//DTD SVG 1.1//EN" "http://www.w3.org/Graphics/SVG/1.1/DTD/svg11.dtd">
<svg version="1.1" id="svg3507" xmlns:svg="http://www.w3.org/2000/svg"
	 xmlns="http://www.w3.org/2000/svg" xmlns:xlink="http://www.w3.org/1999/xlink" x="0px" y="0px" width="50px" height="50px"
	 viewBox="250.5 66.246 50 50" enable-background="new 250.5 66.246 50 50" xml:space="preserve">
<g id="layer1" transform="translate(-1260.0888,-915.54242)">
	<g id="g3497" transform="matrix(3.8739369,0,0,-3.8739369,-2645.115,1126.5226)">
		<g id="g2857" transform="translate(1031.0841,28.8449)">
			<path id="path2859" fill="#007B5E" d="M50.557-2.783c-0.418,0.016-0.764,0.074-0.872,0.107C49.44-2.603,49.2-2.558,48.98-2.403
				c-0.041,0.022-0.055,0.031-0.095,0.053c-0.019,0-0.046,0.036-0.065,0.036c-0.14,0.111-0.261,0.223-0.28,0.401
				c-0.03,0.218,0.044,0.424,0.176,0.589h0.001c0.042,0.053,0.089,0.101,0.142,0.142c0.061,0.046,0.141,0.023,0.2,0.046
				c0.039,0,0.06,0.133,0.14,0.112c0.08-0.045,0.021-0.134-0.04-0.179V-1.27c0.036-0.013,0.079-0.002,0.12-0.006
				c-0.039-0.065-0.076-0.066-0.1-0.105c0-0.022,0.08-0.022,0.08-0.043C49.2-1.492,49.081-1.448,49-1.492v-0.045
				C49.2-1.515,49.42-1.359,49.619-1.47c0,0-0.06-0.022-0.1-0.045c0.1-0.066,0.2,0,0.299-0.022c0.12-0.044,0.24,0,0.36-0.022
				c-0.02,0.044-0.08,0.022-0.101,0.067c0.161,0.044,0.321-0.045,0.48-0.089c-0.06,0.066-0.14,0.111-0.239,0.111
				c-0.06,0-0.12,0.067-0.159,0.134v0.013c0,0.017,0.003,0.031,0.02,0.031c0.05,0.012,0.106-0.011,0.159-0.031
				c0.051-0.019,0.101-0.035,0.14-0.013c0.075,0.041,0.133-0.035,0.204,0.012h0.002c0.004,0.004,0.009,0.007,0.013,0.01
				c-0.08,0.089-0.22,0-0.299,0.11c0.08,0.045,0.159,0,0.239,0.068c0.04,0.044,0.14,0.044,0.219,0.044
				c0.1,0.022,0.201-0.023,0.3-0.023c0.02,0,0.061-0.044,0.08-0.044c0.08,0,0.16-0.088,0.239-0.045c0,0.022-0.039,0.045-0.059,0.068
				c-0.061,0-0.14,0-0.18,0.067c0,0.022,0,0.045,0.02,0.045c0.099,0,0.18-0.112,0.28-0.067c-0.16,0.111-0.339,0.045-0.5,0.133
				c-0.1,0.067-0.239,0.089-0.32,0.201c-0.019-0.045-0.059-0.023-0.079-0.023c-0.02,0-0.02,0.045-0.04,0.045
				c-0.1,0-0.22-0.022-0.22,0.067c0,0.089,0.12,0.066,0.179,0.066c0.22,0.045,0.4-0.089,0.619-0.111
				c0.021,0,0.021-0.043,0.021-0.067c0-0.044-0.041-0.022-0.061-0.022c0.1-0.022,0.219-0.022,0.319-0.022
				c0.14,0,0.299-0.022,0.44-0.066c0.081-0.022,0.16-0.067,0.24-0.022c-0.061,0.044-0.18-0.023-0.159,0.088
				c0,0.044,0.079,0,0.119,0.022l-0.02,0.022c0.02,0.045,0.061,0.023,0.101,0.023c-0.14,0.065-0.28,0.132-0.42,0.199
				c0.08,0.134,0.221,0.044,0.34,0.044c0,0,0,0.045-0.02,0.045c0.041,0.067,0.101-0.022,0.16,0c-0.02,0.045-0.059,0.045-0.099,0.067
				c-0.14,0.022-0.28,0.067-0.419,0.088c0.02,0.044,0.119-0.022,0.1,0.067c-0.041,0.111-0.181,0.089-0.26,0.132
				c0.079,0.045,0.18,0.067,0.26,0.045c0.099-0.023,0.22,0.022,0.32,0c-0.159,0.156-0.38-0.023-0.56,0.133
				c0.04,0.044,0.1,0.067,0.12,0.133c0.12-0.044,0.26,0.022,0.379,0c-0.151,0.062-0.3,0.125-0.45,0.169
				c-0.009,0.004-0.018,0.007-0.028,0.009c-0.062,0.028-0.125,0.012-0.187-0.009c-0.037-0.012-0.076-0.027-0.113-0.035
				c-0.14-0.045-0.28-0.045-0.42,0.022c0.008,0.005,0.019,0.009,0.027,0.013c0.074,0.036,0.162,0.054,0.233,0.054h0.12
				c0.04,0,0,0.066,0.04,0.066c0.08,0,0.179,0.023,0.259,0c0.112-0.062,0.235-0.091,0.353-0.12c0.05-0.011,0.098-0.023,0.146-0.035
				c0.02-0.023,0.04-0.045,0.061-0.067c0.119-0.023,0.239-0.023,0.319-0.111c0.02-0.023,0.039,0,0.039,0.022
				c-0.019,0.104-0.037,0.15,0.042,0.191c0.006,0.004,0.013,0.007,0.018,0.009c-0.019,0.067-0.06,0.088-0.12,0.111
				c0.14,0.045,0.301,0.066,0.4-0.089h0.06c0,0.045,0.04,0.067,0.06,0.089c0.1,0.023,0.16-0.089,0.26-0.089
				c0.199,0.045,0.379,0.023,0.558,0.045c-0.138,0.044-0.259,0.067-0.398,0.11c-0.041,0-0.1,0-0.14,0.046
				c0.06,0.065,0.18,0.043,0.239,0.022c0.041-0.022,0.041,0.088,0.06,0.067c0.101-0.023,0.2-0.045,0.28-0.088
				c0.06-0.023,0.18-0.067,0.259-0.112c-0.079,0.177-0.339,0.155-0.339,0.311c-0.02,0.087,0.133-0.061,0.195,0.017
				c-0.378,0.089-0.756,0.054-1.134,0.117c-0.02,0.022-0.04,0.044-0.059,0.066c0.119,0.067,0.239,0.112,0.36,0.089
				c0.02-0.022,0.038-0.022,0.059-0.044c0.08,0,0.12,0,0.201-0.022v0.044c-0.14,0.045-0.28,0.022-0.419,0.045
				c-0.101,0.043-0.221-0.023-0.32-0.045c-0.34-0.022-0.679,0.045-1.019,0.022c-0.16,0-0.32,0.023-0.499,0
				c-0.14-0.044-0.299,0-0.44,0c-0.12,0.023-0.26,0-0.38-0.022c-0.099,0-0.2,0-0.279,0.045c-0.02,0.022,0,0.043,0.019,0.043
				c0.26,0.045,0.5-0.022,0.739,0c-0.099,0.089-0.239,0.045-0.359,0.067c-0.02,0-0.04,0.045-0.06,0.067
				c0.08,0.045,0.179,0.022,0.259,0.022c0.021,0,0.021-0.022,0.021-0.044h0.379l-0.02,0.022c0.261,0.066,0.519,0.022,0.779,0.066
				c-0.18,0.066-0.4-0.021-0.58,0.045c0.061,0.045,0.12,0.045,0.179,0.022c-0.019,0.045-0.099,0.023-0.118,0.067
				c0.179,0.067,0.359,0.022,0.538,0.044c0,0.044-0.039,0.089,0,0.133c0.02-0.044,0.061-0.066,0.08-0.066
				c0.12,0.022,0.22,0.043,0.3-0.067c-0.061-0.044-0.12-0.044-0.18-0.044c0.059-0.089,0.16,0,0.239-0.022
				c0.02,0,0.02-0.022,0.02-0.045c0.12,0,0.259-0.022,0.38,0.045c0.02,0,0.06-0.088,0.099-0.022
				c-0.119,0.066-0.259,0.044-0.359,0.111c-0.1,0.067-0.219,0.156-0.319,0.244c0.04,0.045,0.12,0.045,0.16,0
				c0.059-0.045,0.1-0.045,0.159-0.067c0.04-0.022,0.02,0.067,0.059,0.067c0.08,0.022,0.181,0.022,0.261-0.022
				c0.12-0.067,0.24-0.045,0.38-0.067c0.02,0,0.02,0.022,0.04,0.044c0-0.026,0.02-0.022,0.037-0.022
				c-0.117,0.1-0.265,0.005-0.377,0.089c-0.04,0.045-0.08,0.067-0.14,0.112c0.08,0.044,0.16,0.022,0.22-0.045
				c0,0.022,0,0.067,0.019,0.067c0.041,0,0.081-0.067,0.121-0.045c-0.06,0.089-0.16,0.045-0.239,0.112
				c-0.14,0.066-0.321,0.022-0.46,0.089c0,0.022,0.021,0.022,0.041,0.022c0.019,0.022,0,0.043-0.02,0.043c-0.14,0-0.28,0-0.4,0.089
				c0.12,0.067,0.261,0.044,0.379,0c0.041-0.022,0.101-0.066,0.16-0.089c0.021,0,0.081-0.021,0.081,0.023
				c-0.021,0.022-0.04,0.066-0.081,0.088c0.06,0.066,0.14-0.067,0.201,0c-0.02,0.022-0.02,0.044-0.02,0.066
				c0.099,0.067,0.259-0.066,0.32,0c0.098,0.091,0.16-0.022,0.26,0c-0.085,0.067-0.177,0.101-0.27,0.127
				c-0.129,0.034-0.263,0.055-0.389,0.119c0.019,0.044,0.06,0.044,0.1,0.044c-0.061,0.067-0.14,0.067-0.22,0.111
				c0.101,0.022,0.201,0.022,0.3,0c0.081-0.022,0.16-0.066,0.241-0.089c0.039-0.022,0.079-0.044,0.1-0.088
				c-0.061,0.134-0.14,0.199-0.26,0.244c-0.02,0.023,0,0.045,0.02,0.045c0.039,0.022,0.08-0.022,0.12-0.045
				c0.02,0,0.039,0.023,0.02,0.045c-0.02,0-0.04,0.022-0.04,0.022c0.079,0.089,0.16,0,0.239,0c0.02,0,0.041-0.044,0.061-0.067
				c0,0.023,0,0.045,0.019,0.067c-0.219,0.089-0.439,0.2-0.66,0.223c-0.179,0.022-0.359,0.022-0.539,0.022
				c-0.359,0.022-0.719,0-1.078,0.043c0.2,0.112,0.44-0.022,0.639,0.067c-0.02,0.045-0.081,0.022-0.1,0.067
				c0.14,0.088,0.319-0.067,0.44,0.022c-0.179,0.067-0.379,0.045-0.56,0.111c0.033,0.046,0.072,0.054,0.113,0.052
				c-0.023,0.023-0.066,0.064-0.012,0.104c0.06,0.023,0.14-0.022,0.2,0c-0.2,0.044-0.42,0.044-0.56,0.222
				c0.259,0.111,0.539,0.067,0.819,0.111c0.14,0.045,0.28,0.045,0.42,0c0.04-0.022,0.079-0.043,0.1-0.088
				c0.039,0.067-0.021,0.067-0.041,0.088c-0.099,0.089-0.219,0.089-0.339,0.134c-0.079,0.022-0.16,0.022-0.239,0.044
				c-0.24,0.088-0.48,0-0.739,0.044c-0.04,0.022-0.1-0.022-0.16-0.022c0.02-0.045,0.099,0,0.079-0.045
				c-0.059-0.111-0.199-0.022-0.319-0.044c-0.22-0.044-0.44,0.022-0.659,0.066c0.16,0.088,0.339,0,0.519,0.023
				c-0.021,0.022,0.039,0.044,0,0.066c0.1,0.067,0.179-0.066,0.279-0.021c0.021,0.021-0.039,0.067-0.019,0.112
				c0.019,0.044,0.059,0,0.099,0.022v0.044c0.161,0.112,0.301,0,0.459-0.066c-0.079,0.066-0.179,0.089-0.238,0.177
				c-0.021,0.044,0.02,0.066,0.04,0.066c0.16,0,0.319,0,0.459-0.066c-0.16,0.155-0.399,0.155-0.62,0.155
				c-0.319-0.022-0.659-0.089-0.978-0.022c-0.481,0.066-0.92,0.112-1.398,0.222C48.6,4.837,48.56,4.861,48.56,4.883
				c0,0.089,0.101,0,0.12,0.067l-0.02,0.022c0.04,0.043,0.099,0.043,0.14,0c0.02-0.022,0-0.045-0.021-0.045H48.74
				c-0.02-0.089,0.08-0.044,0.1-0.044c0.14-0.022,0.3,0,0.44,0.022c0.18,0.045,0.359-0.067,0.539-0.089
				c-0.02,0.022-0.079,0.022-0.06,0.067c0.06,0.089,0.18,0.022,0.26,0.022c0.16,0,0.319-0.043,0.498-0.111
				c0.04,0,0.081-0.045,0.12-0.023c0.06,0-0.02,0.023-0.02,0.044c-0.22,0.134-0.459,0.089-0.659,0.245
				c-0.02,0.022,0,0.044,0.02,0.044c0.04,0.023,0.059-0.044,0.099-0.022c-0.179,0.2-0.479,0-0.699,0.134
				c0.041,0.067,0,0.133,0.021,0.177c0.019,0.068,0.119,0.022,0.199,0.022c0.02-0.022,0.04-0.022,0.06-0.022
				c0.14-0.023,0.26-0.088,0.38-0.133c0.039-0.022-0.02,0.023-0.02,0.045c0,0.022,0.02,0.044,0.039,0.044
				c0.04,0,0.081-0.022,0.081-0.066c0.079,0.022,0.159,0.022,0.219,0c0.06-0.044,0.101-0.133,0.18-0.133
				c-0.021,0.067-0.08,0.089-0.12,0.133c-0.02,0.022,0,0.044,0.019,0.044h0.101c-0.06,0-0.101,0.022-0.14,0.022
				c-0.121,0.022-0.2,0.112-0.3,0.155c0.02,0.045,0.08,0.022,0.12,0.045c-0.12,0.089-0.3,0-0.419,0.111
				c0.119,0.067,0.22,0.067,0.34,0.045c-0.141,0.043-0.26,0.022-0.4,0.022c-0.059-0.022-0.12,0-0.16,0.067
				c-0.02,0.044,0.079,0.022,0.04,0.066c-0.081,0.045-0.18-0.022-0.28,0.023l0.02,0.022c-0.099,0.089-0.2,0.044-0.299,0.022
				c0.06-0.044-0.02-0.044-0.02-0.067c-0.14,0-0.28-0.044-0.418-0.044c-0.141-0.022-0.301-0.067-0.419-0.089
				c-0.081,0-0.14,0.111-0.241,0.133c0.02,0.045,0.081,0.023,0.12,0.023c0.16,0.022,0.34-0.045,0.5,0c0.041,0,0.14-0.067,0.16,0.044
				c-0.039,0-0.079-0.022-0.1,0.022c0.139,0.066,0.28,0,0.419,0.066c-0.08,0-0.139,0.067-0.2,0.089
				c0.061,0.11,0.141,0.023,0.2-0.022c0.039-0.023,0.06,0.045,0.099,0.022c0.101-0.089,0.22-0.156,0.34-0.111
				c-0.12,0.043-0.239,0.066-0.319,0.177c0.16,0.044,0.319,0,0.459-0.066c-0.08,0.088-0.18,0.133-0.3,0.155
				c-0.459,0.045-0.899,0.089-1.338,0.045c-0.04,0-0.16-0.09-0.18-0.023c-0.02,0.112,0.139,0.046,0.199,0.112
				c-0.079,0.066-0.179-0.045-0.219,0.044c0.199,0.089,0.419,0,0.639-0.044c-0.019,0.089-0.121,0.022-0.14,0.089
				c0,0.022,0.02,0.044,0.041,0.044c0.099,0,0.219-0.067,0.299-0.044C48.76,6.525,48.9,6.458,49.02,6.458
				c-0.08,0.09-0.18,0.09-0.26,0.112c-0.179,0.067-0.379,0.022-0.558,0.132l0.019,0.023c-0.019,0-0.039,0.022-0.039,0.022
				c0.138,0.155,0.319-0.022,0.459,0c-0.041,0-0.06,0.021-0.081,0.043c0.061,0.046,0.12,0,0.18,0.023
				c-0.359,0.088-0.72,0.088-1.098,0.156c-0.04,0-0.021,0.044-0.021,0.066c0.14,0.134,0.32,0,0.479,0.067
				c-0.199,0.022-0.42,0.041-0.619,0.022c-0.181-0.016-0.361-0.033-0.541-0.022c0.001,0,0.001,0,0.001,0
				c0-0.022,0.08-0.046,0.019-0.067c-0.099-0.022-0.199,0-0.298-0.043c0.079-0.022,0.18,0.022,0.259-0.022
				c-0.18-0.112-0.42-0.045-0.58-0.179c-0.039-0.043-0.14,0-0.199-0.022c-0.12-0.067-0.28-0.067-0.4-0.156
				c0.159-0.022,0.299,0,0.459,0.067c0.021,0,0.041-0.044,0.041-0.044c0.14,0.089,0.279,0.044,0.438,0.066
				c0.021,0.023,0.061,0,0.061,0.045c0.02-0.045,0.081-0.089,0.02-0.111c-0.14-0.045-0.26-0.134-0.399-0.089
				c-0.06,0-0.121,0-0.181-0.023c-0.04-0.022-0.08-0.067-0.14-0.067c0.02-0.022-0.08-0.043-0.019-0.043
				c0.039,0,0.06,0.043,0.12,0.043c0.04,0,0.02-0.088,0.059-0.066c0.021,0.044,0.081,0.066,0.101,0.044
				c0.179-0.022,0.378,0.089,0.54,0c0,0-0.041-0.088-0.081-0.088c-0.199,0-0.399-0.044-0.58-0.067c-0.159,0-0.34-0.067-0.519,0
				c-0.1,0.023-0.179,0-0.26-0.067c0.081-0.022,0.159,0.023,0.22-0.022c-0.08-0.088-0.2-0.088-0.299-0.156
				c-0.041-0.043-0.1-0.065-0.14-0.132c0.239,0.111,0.5,0.155,0.74,0.245c0.039,0.022,0.059-0.09,0-0.112
				c-0.034,0-0.067-0.044-0.1-0.047c0.073-0.01,0.145,0.025,0.218,0.004c0.041,0,0.12,0,0.14,0.043c0,0.022-0.06,0.046-0.08,0.068
				c0.12,0.088,0.399,0.133,0.379-0.089c0-0.043-0.059-0.022-0.079-0.022c-0.039,0.022,0,0.066-0.02,0.089
				c-0.041,0.022-0.08-0.046-0.12-0.023c0-0.066,0.12-0.022,0.101-0.11c-0.021-0.022-0.041-0.066-0.06-0.066
				c-0.241,0.044-0.44-0.067-0.659-0.045c-0.081,0-0.22,0.045-0.28-0.022c0.04,0,0.099,0,0.12-0.045
				c0-0.044-0.081-0.044-0.101-0.089c0.02,0,0.04,0,0.06-0.022c0.041,0.045,0.1,0.045,0.14,0.045
				c0.319,0.043,0.64,0.088,0.959,0.088c0.06,0,0.2,0.022,0.2-0.045c-0.02-0.11-0.179-0.043-0.3-0.067
				c-0.039-0.022-0.078-0.088-0.1-0.088c-0.14-0.044-0.258,0.045-0.399,0.022c0-0.022,0-0.044-0.019-0.044h-0.28l0.02-0.022
				c-0.02-0.045-0.08-0.023-0.12-0.023c-0.16,0.067-0.319,0.134-0.5,0.089c0.04,0,0.101,0.023,0.14,0
				c0.04-0.022,0.059-0.044,0.099-0.044c0.041-0.022,0-0.11-0.019-0.11c-0.159,0.043-0.299,0.043-0.44,0.021
				c0.041-0.067,0.12,0.022,0.14-0.046c0-0.088-0.099,0-0.12-0.066c-0.119,0.066-0.239-0.066-0.378-0.044
				c0.119-0.067,0.239,0.022,0.378-0.022c0.04,0,0.08,0.022,0.12,0.044c0.181,0.022,0.36,0.022,0.539-0.044c0,0,0-0.045-0.02-0.045
				h-0.16c-0.021,0-0.021-0.044-0.021-0.044c0.12-0.046,0.24,0.067,0.36-0.046c-0.02-0.021-0.04-0.066-0.08-0.043
				c-0.079,0.022-0.16,0-0.239,0.022c0-0.045-0.061-0.022-0.041-0.045c0.061-0.044,0.14-0.022,0.201-0.022
				c0-0.022,0.079-0.022,0.019-0.067c-0.005-0.006-0.012-0.009-0.019-0.009c0.076-0.032,0.166-0.016,0.239-0.056
				c0.021-0.023,0-0.045-0.02-0.045h-0.079c0.04-0.067,0.14,0.022,0.16-0.067c0-0.022-0.02-0.044-0.039-0.044
				c-0.22,0-0.44-0.023-0.64,0.111c-0.019,0.022,0,0.045,0.021,0.045c0.119,0.022,0.199-0.067,0.318-0.067
				c-0.119,0.089-0.299,0.044-0.419,0.155c0.04,0.045,0.08,0.045,0.14,0.045c-0.12,0.067-0.22-0.022-0.34,0
				c-0.059,0.022-0.099,0.067-0.16,0.045V5.082c-0.16-0.067-0.32-0.067-0.479-0.133c0.14-0.023,0.261,0.066,0.399,0
				c-0.019-0.045-0.1-0.023-0.1-0.088c0.1,0,0.18,0.022,0.28-0.023c-0.24-0.089-0.52-0.044-0.758-0.178
				c0.16,0.046,0.299,0.068,0.459,0.046c0.04,0,0.02-0.067,0.04-0.067c0.201,0.067,0.36,0,0.539-0.045
				c0.02-0.022,0.04-0.044,0.06-0.067c-0.099-0.043-0.22,0.023-0.319,0.023c-0.28,0.044-0.519-0.067-0.778-0.177
				c0.16,0.043,0.339,0.111,0.518,0.088c0.021,0,0.06-0.067,0.08-0.045c0.14,0,0.28-0.043,0.42-0.022
				c0.181,0.043,0.34,0.043,0.519-0.022c-0.079-0.045-0.179,0-0.26-0.023c0,0,0-0.044,0.021-0.044c-0.26-0.133-0.52,0-0.8-0.045
				c-0.119-0.043-0.22-0.067-0.339-0.067c0.179-0.021,0.379,0.09,0.539,0c0.099-0.066,0.258-0.044,0.399-0.044
				c0.021,0,0.021-0.022,0.021-0.044c0.08,0,0.08-0.044,0.098-0.111c-0.199-0.044-0.378,0.067-0.579,0.067
				c-0.02,0-0.02-0.045-0.02-0.045c0.081-0.022,0.16,0.023,0.22-0.044c-0.041-0.045-0.061-0.111-0.101-0.134
				c-0.14-0.022-0.259,0.045-0.399-0.022c0.101,0,0.22,0.022,0.24-0.067c0.02-0.044-0.06,0-0.08-0.044
				c-0.119,0.066-0.239-0.022-0.359-0.022c0.059-0.045,0.12,0.022,0.179,0c0.02,0,0.02-0.023,0.02-0.045
				c-0.02-0.022-0.02-0.044-0.039-0.044c-0.061,0-0.12-0.022-0.18-0.022c-0.16-0.022-0.339,0-0.498,0
				c0-0.044-0.06-0.022-0.041-0.044c0.08-0.023,0.179,0.066,0.259,0c-0.12-0.112-0.279,0-0.4-0.067
				c-0.059-0.045-0.14-0.067-0.179-0.134c0.16,0.022,0.3,0.111,0.459,0.067c0-0.044-0.059-0.044-0.059-0.067
				c0.04-0.022,0.12,0.022,0.16-0.022c-0.1-0.089-0.24-0.089-0.339-0.156c0.06-0.022,0.14,0.044,0.119,0
				c-0.059-0.111-0.219-0.156-0.32-0.245c0.08,0.022,0.16,0.046,0.241,0.067c0.12,0.022,0.26,0.088,0.398,0.067
				c0.061-0.023,0.041-0.088,0-0.112c-0.179,0-0.339-0.022-0.518-0.066c-0.079-0.022-0.18-0.09-0.24-0.178
				c0.12,0.066,0.24,0.178,0.381,0.133c0.04,0,0.12,0,0.139-0.045c0-0.043-0.1-0.111-0.08-0.111c0.12-0.044,0.26,0.045,0.38-0.022
				c-0.091-0.082-0.265-0.052-0.341-0.163c-0.007-0.011-0.013-0.023-0.018-0.036c0.037,0.013,0.074,0.026,0.112,0.036
				c0.023,0.004,0.044,0.008,0.068,0.008c0.28,0.022,0.539,0.134,0.819,0.067c-0.079-0.033-0.16-0.057-0.24-0.074
				c-0.381-0.083-0.77-0.023-1.148-0.108c0.069,0.004,0.13-0.034,0.189-0.084c-0.12-0.067-0.26,0.022-0.359-0.044
				c-0.08-0.044-0.199-0.022-0.26-0.133c0.12,0.022,0.26,0.155,0.319,0.022c0.02-0.068-0.159,0-0.119-0.111
				c0-0.023,0.119,0.043,0.158-0.023c0-0.022-0.059,0-0.059-0.044c0.159-0.022,0.319,0.044,0.459-0.022
				c-0.12-0.067-0.26-0.023-0.379-0.045V1.84c0.02-0.023,0.08,0,0.06-0.023c-0.04-0.067-0.16-0.022-0.221-0.089
				c0.081,0,0.14,0,0.221-0.044c0.039-0.045,0.159,0.044,0.179-0.023c0.02-0.111-0.14-0.089-0.22-0.089c-0.22,0-0.44,0-0.659-0.022
				V1.506c0.08,0.023,0.159,0.045,0.239,0c-0.179-0.132-0.398-0.066-0.599-0.155c0.12,0,0.241,0,0.359-0.066
				c-0.119-0.112-0.279-0.045-0.419-0.089c0.279-0.045,0.578,0.044,0.858-0.023c0-0.044-0.04-0.022-0.06-0.044
				c-0.08-0.022-0.16,0.022-0.24-0.022c-0.059-0.023-0.119-0.045-0.179-0.045c-0.02-0.022-0.04-0.044-0.079-0.044
				c0.119-0.045,0.219,0.089,0.339,0.044c0.06-0.044,0.16,0,0.14-0.067c0-0.044-0.1-0.022-0.14-0.111c0.06,0,0.14,0.022,0.179-0.043
				c-0.16-0.09-0.319-0.09-0.479-0.068c-0.179,0.044-0.38,0.022-0.559,0c0.059-0.022,0.12,0,0.16-0.067
				c-0.08-0.067-0.18-0.11-0.28-0.156c0.06,0,0.1,0.022,0.14,0.046c0.019,0,0.06-0.046,0.1-0.023c0,0.023,0,0.045,0.019,0.045
				c0.08,0,0.16,0.022,0.221-0.022c-0.041-0.046-0.12,0.022-0.14-0.067c0.14-0.022,0.339,0.089,0.46-0.022
				c-0.116-0.07-0.243-0.109-0.372-0.143c-0.205-0.055-0.415-0.1-0.587-0.235c0.06,0,0.16,0.023,0.2,0.023
				c0.28,0.044,0.539,0.088,0.818,0.066c0.059,0,0.18,0.022,0.16-0.066c-0.04-0.133-0.18-0.178-0.34-0.178c0,0,0-0.044,0.02-0.044
				c0.081,0.022,0.16,0,0.219,0.044c0.06,0.023,0.12,0.045,0.181,0.088c0.059,0.023,0.121,0.044,0.18,0.023
				c0.02-0.023,0.02-0.045,0.02-0.067c-0.119-0.134-0.28-0.134-0.439-0.177c0.12-0.046,0.24,0.043,0.379,0.043
				c0.12-0.022,0.221,0.067,0.36,0.045c-0.02,0.044-0.1,0.022-0.08,0.067c0.041,0.066,0.181,0.243,0.24,0.155
				c0.04-0.045-0.081-0.089-0.06-0.089c0.14-0.156,0.278,0.111,0.459,0.044v0.045c-0.061,0.022-0.12-0.023-0.181,0.022
				c0.14,0.089,0.321,0.089,0.461,0.178c0.01,0-0.004,0.005-0.022,0.013c-0.018,0.009-0.038,0.019-0.038,0.031
				c0,0.089,0.078,0.067,0.119,0.067c0.26,0.067,0.519,0.177,0.759,0.067c-0.14-0.045-0.26-0.088-0.4-0.067
				c0.061-0.088,0.201,0.067,0.22-0.067c0.003-0.01,0.003-0.021,0.002-0.031c-0.008-0.048-0.071-0.076-0.122-0.058
				c0.021-0.11,0.14,0,0.12-0.066c0-0.022-0.04-0.088-0.06-0.088c-0.099-0.045-0.22,0.022-0.319,0
				c-0.14-0.045-0.28,0.022-0.42-0.067c-0.02-0.023,0-0.045,0.021-0.045c-0.1-0.066-0.22,0-0.299-0.111h-0.061
				c0.14-0.023,0.26,0.022,0.4,0l-0.02-0.023l0.02-0.022c-0.06-0.022-0.1-0.089-0.16-0.111c-0.12-0.022-0.24,0.044-0.36-0.045
				c0.1-0.022,0.2,0.023,0.3-0.022c-0.06-0.044-0.14-0.022-0.199-0.044c0-0.023,0-0.045,0.02-0.045c0.14,0,0.3,0.022,0.44-0.022
				c-0.101-0.067-0.22-0.133-0.321-0.177c0,0-0.02,0.044-0.039,0.044c-0.08,0-0.14,0.045-0.22,0.067
				c-0.099,0.022-0.2-0.022-0.3-0.045c0.02,0,0.061,0,0.061-0.022c-0.02-0.044-0.08-0.022-0.121-0.022
				c-0.14,0.089-0.299,0.044-0.44,0.111c-0.139,0.067-0.299,0.089-0.439,0.023c0,0-0.1,0-0.06-0.023
				c0.14-0.043,0.319,0.045,0.44-0.043c-0.16-0.156-0.4-0.112-0.54-0.266c0.26,0.088,0.519,0.132,0.779,0.132
				c0.1,0,0.22,0.045,0.319-0.044c-0.219-0.045-0.399-0.156-0.619-0.222c-0.02-0.022-0.02-0.067-0.06-0.089
				c-0.201-0.066-0.38-0.155-0.539-0.266c0.1-0.023,0.201,0.065,0.299,0.065c0.12,0,0.3,0.179,0.419,0.067
				c-0.067-0.095-0.209-0.108-0.274-0.208c-0.011-0.017-0.019-0.036-0.025-0.058c0.012,0.025,0.029,0.043,0.049,0.058
				c0.017,0.011,0.034,0.02,0.052,0.031c0.099,0.022,0.179,0.045,0.259,0.11c0.041,0.023,0.1-0.022,0.14,0
				c0.06,0.046,0.121,0.067,0.179,0.09c0.021,0,0.021-0.023,0.021-0.044c-0.021-0.046-0.08-0.046-0.1-0.089
				c0.06-0.045,0.12,0.043,0.18,0.043c0.1,0,0.179,0.135,0.26,0.158c0.179,0.066,0.359,0.066,0.538,0.111
				c0.06,0,0.12,0.044,0.179,0.067c0.221,0.044,0.42,0.066,0.64,0.111c0.101,0.022,0.2,0.067,0.3,0
				c-0.24-0.111-0.499-0.155-0.759-0.155c-0.061-0.022-0.1-0.111-0.181-0.133c-0.259-0.045-0.498-0.045-0.738-0.158
				c0.12-0.065,0.258,0.067,0.379-0.022c0-0.021,0-0.066-0.02-0.066c-0.088-0.027-0.168-0.038-0.251-0.053
				c-0.048-0.01-0.097-0.019-0.149-0.036c0.101,0.023,0.22,0.067,0.321,0c-0.041-0.022-0.061-0.066-0.081-0.111
				c0-0.022,0.04-0.022,0.059-0.022c0.041,0.022,0.041,0.067,0.08,0.089c0.079,0.044,0.161,0.044,0.241,0.044
				c0.02,0,0.039-0.044,0.039-0.089c0.07,0.026,0.134,0.082,0.201,0.125c0.049,0.029,0.101,0.053,0.158,0.053
				c0.22,0.023,0.419,0.045,0.64,0.066c-0.12,0.022-0.221-0.021-0.34,0.022c0.201,0.112,0.42,0.112,0.639,0.179
				c0.041,0,0.1,0.022,0.08-0.022c-0.019-0.09-0.159,0-0.22-0.112c0.08-0.046,0.16,0,0.24-0.022c0.019,0,0.019,0.044,0.04,0.044
				c0.22,0.023,0.479,0.09,0.659-0.044c-0.181-0.067-0.38,0.044-0.559,0c-0.143-0.048-0.275-0.095-0.433-0.165l-0.044-0.001
				c-0.034-0.011-0.068-0.023-0.102-0.035h-0.14c-0.18,0-0.36,0-0.539-0.066c0,0,0-0.046,0.02-0.046
				c-0.199-0.067-0.419-0.177-0.619-0.199c-0.14,0-0.279-0.134-0.44-0.178c0.099-0.066,0.18,0.044,0.3,0.089
				c0.019,0,0.04,0,0.059-0.022c0.02-0.067,0-0.112-0.04-0.158c-0.019-0.043,0.02-0.065,0.04-0.087
				c0.039,0.087,0.14,0.177,0.22,0.087c0.02-0.021,0-0.065,0-0.087c0.08,0.111,0.199,0.2,0.319,0.2c0.04,0,0.04-0.067,0-0.088
				c0.099,0,0.18,0.066,0.259,0.133c0.06,0.022,0.12-0.045,0.181,0c0.14,0.066,0.28,0.133,0.438,0.154
				c0.021,0,0.021-0.021,0.021-0.043c0.059,0.022,0.119,0.043,0.18,0.043c0.02,0.022,0.059,0,0.059,0.045
				c0-0.023,0.08-0.023,0.02-0.066c0.201-0.022,0.4,0.043,0.599,0.043c-0.08,0.067-0.179-0.022-0.239,0.067
				c0,0.022,0,0.045,0.019,0.045c0.2,0,0.42-0.023,0.619,0c-0.1,0.089-0.24,0-0.358,0.022c-0.021,0-0.021,0.022-0.041,0.046
				c0.033,0.022,0.067,0.04,0.1,0.056l0,0c0.233,0.092,0.536,0.082,0.739,0.098c0.024,0,0.026-0.025,0.024-0.053
				c-0.002-0.019-0.005-0.04-0.005-0.058c-0.059-0.2-0.12-0.399-0.199-0.578c-0.1-0.199-0.24-0.377-0.42-0.511
				c-0.24-0.155-0.493-0.273-0.782-0.313L42.41-2.782c0-0.061-0.001-0.204,0-0.225h9.144h0.166h2.836v0.225H50.557z M51.297-0.67
				c0.039-0.023,0.1-0.023,0.14-0.067c-0.06-0.022-0.16-0.089-0.219-0.022c-0.02,0.043,0.079,0,0.06,0.043
				c-0.02,0.022-0.079-0.022-0.079,0.022C51.218-0.647,51.261-0.65,51.297-0.67 M52.117,0.973c0.138-0.022,0.298,0,0.438-0.088
				c0.021-0.021,0-0.043-0.02-0.043c-0.08,0-0.147-0.019-0.22,0.022c-0.08,0.043-0.159,0.021-0.24,0.066
				C52.096,0.951,52.096,0.973,52.117,0.973 M51.677,2.706c0.02,0,0.024-0.074,0.06-0.045c0.08,0.067,0.16,0,0.24-0.022
				c0-0.022,0.079-0.044,0.019-0.067c-0.1-0.022-0.201-0.022-0.299,0C51.657,2.595,51.597,2.684,51.677,2.706 M42.868,1.33
				c-0.04,0.11,0.22,0.11,0.34,0.11c0.02,0,0.02-0.023,0.039-0.023C43.148,1.307,42.928,1.196,42.868,1.33 M43.887,0.685
				c-0.04-0.112-0.2-0.023-0.299,0.021c0.02,0.045,0.08,0.067,0.1,0.045C43.767,0.752,43.91,0.749,43.887,0.685 M44.047,0.796
				c-0.04,0-0.12-0.022-0.12,0.022c-0.02,0.046,0.08,0.067,0.12,0.024V0.796z M44.047,1.263c0-0.023,0-0.045-0.02-0.045
				c-0.161,0.022-0.3-0.067-0.46,0c0.04,0.022,0.059,0.045,0.1,0.022v0.045c-0.08-0.022-0.16,0-0.24,0
				c0-0.045-0.02-0.045-0.04-0.067c-0.039-0.022-0.039,0.022-0.06,0.045c0-0.023,0-0.045-0.02-0.045
				c-0.019,0.045-0.039-0.022-0.06,0c-0.02,0.022-0.039,0.022-0.02,0.045c0.14,0.088,0.28,0.132,0.44,0.111
				c0.02,0,0.02-0.023,0.02-0.044c0.14,0,0.259,0.066,0.399,0c-0.02-0.023-0.039-0.023-0.059-0.023
				C44.007,1.285,44.027,1.285,44.047,1.263 M48.8-0.647c-0.041,0-0.08-0.022-0.099,0.022c0-0.022,0-0.044-0.021-0.044h-0.179
				c-0.021,0-0.021,0.044-0.021,0.066c0.021,0.023,0.061,0.045,0.101,0.045c0.06,0,0.08-0.022,0.121-0.067
				c0.039,0.022,0.078,0.045,0.119,0.022C48.821-0.626,48.8-0.647,48.8-0.647 M48.46,2.106V2.15c0.06,0,0.14,0.067,0.201,0
				C48.6,2.084,48.541,2.084,48.46,2.106 M48.541,0.529c-0.02-0.022-0.04-0.045-0.061,0c0,0.044,0,0.111,0.041,0.132
				C48.56,0.662,48.581,0.573,48.541,0.529 M48.541,0.107c0.02,0.089,0.12,0.111,0.219,0.089c0.02,0,0.02-0.022,0.02-0.044
				c-0.02-0.045-0.068-0.055-0.099-0.089c-0.059-0.066-0.12-0.2-0.201-0.178C48.401-0.093,48.501,0.019,48.541,0.107 M48.821-0.226
				c0-0.022-0.026-0.006-0.041-0.022c-0.059-0.067-0.099-0.201-0.199-0.134c0.06,0.088,0.121,0.177,0.199,0.223
				c0.021,0,0.041,0,0.041-0.023V-0.226z M48.74,0.906c-0.039,0.023-0.093,0.081-0.039,0.112c0.039,0.022,0.099,0,0.139,0
				c0.14,0.066,0.28,0.066,0.42,0.066c0.02,0,0.02-0.022,0.039-0.044c0-0.022,0-0.045-0.019-0.045
				c-0.12-0.044-0.24,0.045-0.34-0.022C48.88,0.951,48.821,0.906,48.74,0.906 M49.299-0.003c-0.099,0-0.2-0.023-0.299,0
				c0.039,0.088,0.139,0.043,0.179,0.11c0.059-0.044,0.14,0.022,0.179-0.044C49.379,0.019,49.32,0.019,49.299-0.003 M49.519-0.559
				c0,0.022,0,0.044,0.019,0.044c0.021,0,0.021,0.004,0.041,0c0.14-0.022,0.28-0.022,0.419-0.089
				c-0.019-0.022-0.039-0.066-0.059-0.066c-0.12,0.044-0.219,0.022-0.319,0.066C49.599-0.604,49.538-0.604,49.519-0.559
				 M49.979-1.092h-0.12c0-0.023,0-0.044-0.02-0.044c-0.08,0.021-0.159,0-0.22,0.044c0.061,0.133,0.179,0.067,0.299,0.067
				c0.02,0,0.061,0.022,0.08-0.023C49.998-1.07,49.998-1.092,49.979-1.092 M51.157,0.019c-0.12-0.045-0.3-0.112-0.379,0.022
				c-0.041,0.045,0.061,0.075,0.079,0.067C50.957,0.063,51.078,0.129,51.157,0.019 M50.997,0.573c0.02-0.044-0.059-0.044-0.12-0.044
				c-0.08,0-0.179-0.022-0.239,0.044C50.759,0.618,50.957,0.707,50.997,0.573 M50.658,0.995c0.059-0.044,0.12-0.066,0.18-0.066
				c0.019,0,0.04-0.023,0.04-0.045c-0.02-0.043-0.062-0.032-0.08-0.021c-0.081,0.043-0.179-0.022-0.24,0.066
				C50.598,0.951,50.618,1.018,50.658,0.995 M50.218-0.115c0.059,0,0.119,0.017,0.18,0c0.08-0.022,0.179,0,0.239-0.067
				c0.02-0.022,0-0.044-0.02-0.044c-0.101,0.022-0.2-0.022-0.3,0.022c-0.041,0-0.08,0-0.12,0.046
				C50.179-0.137,50.198-0.115,50.218-0.115 M50.218-1.07c-0.079-0.022-0.14-0.045-0.22-0.022c0.041,0.022,0.08,0.089,0.12,0.067
				C50.159-1.047,50.198-1.025,50.218-1.07 M50.078-0.515c-0.08,0.023-0.16-0.022-0.219,0c-0.02,0.023-0.06,0-0.06,0.045
				c0,0.022,0,0.022,0.02,0.045c0.021,0.022,0.028-0.047,0.061-0.023c0.059,0.045,0.16,0.023,0.219-0.022
				C50.118-0.492,50.098-0.515,50.078-0.515 M50.078,0.485c0-0.044-0.059,0-0.08-0.044c-0.019-0.022-0.039,0-0.039,0.022
				c0.02,0.022,0.035,0.045,0.08,0.045C50.058,0.508,50.078,0.485,50.078,0.485 M49.979,0.817c0.019,0,0.019-0.022,0.04-0.044
				c0-0.022,0-0.045-0.021-0.045c-0.039,0-0.08,0.045-0.119,0.023c-0.1-0.023-0.199,0.022-0.28-0.045
				c0.081-0.021,0.18,0.022,0.26-0.021c-0.179-0.088-0.4-0.156-0.58-0.112c-0.014,0.005-0.028,0.009-0.042,0.011
				c0.005-0.008,0.01-0.021,0.022-0.033c-0.06-0.043-0.101-0.088-0.179-0.088c-0.021,0-0.021-0.022-0.041-0.022
				c-0.02,0-0.02,0.022-0.02,0.044c0.036,0.078,0.104,0.087,0.176,0.105c-0.097,0.007-0.198-0.013-0.275,0.072
				c0.099,0.112,0.238,0.112,0.359,0.067c-0.02-0.022-0.02-0.022-0.041-0.043c0.081,0.043,0.201-0.023,0.241,0.067
				c0.02,0.022-0.079,0.022-0.079,0.066c0,0.024,0.059,0.046,0.099,0.046c0.08,0,0.181-0.046,0.26-0.046
				C49.839,0.796,49.899,0.817,49.979,0.817 M49.918,1.129c0,0.022-0.02,0.022-0.039,0.022c0-0.022,0-0.043-0.02-0.043
				c-0.06,0-0.1,0.022-0.16,0.043c-0.161,0.022-0.321-0.022-0.461,0.067c0.041,0.177,0.201,0.022,0.321,0.089
				c-0.239,0.11-0.52-0.134-0.719,0.044c-0.019,0.023,0.081,0.023,0.12,0.045c-0.04,0.045-0.076,0.022-0.12,0.022
				c-0.019,0-0.019,0.023-0.04,0.023c0.1,0.111,0.2,0.177,0.319,0.244c0.06,0.044,0.2,0.022,0.28-0.067
				C49.32,1.572,49.2,1.639,49.14,1.529c0-0.023,0-0.067,0.02-0.067c0.062,0,0.12,0.022,0.18,0.022
				c0.12-0.022,0.199-0.111,0.319-0.067c0.041,0.023,0.081,0.089,0.14,0.067c0.06-0.022,0.06-0.111,0-0.134H49.7
				c0.02-0.155,0.219-0.021,0.28-0.155C49.998,1.15,49.939,1.15,49.918,1.129 M49.18,2.839c0.02,0.044,0.061,0.033,0.1,0.022
				c0.079-0.022,0.16,0.043,0.22-0.022C49.42,2.75,49.159,2.661,49.18,2.839 M50.118,3.394c0.1,0.045,0.28,0.067,0.3-0.044
				c0.019-0.022-0.077-0.032-0.119-0.044c-0.159-0.045-0.32-0.089-0.48,0c0.1,0.022,0.201,0.067,0.321,0.067L50.118,3.394z
				 M50.437,1.684c0,0.022,0.021,0.022,0.041,0.044c0-0.022,0.02-0.018,0.039-0.022c0.12-0.022,0.241-0.022,0.34-0.089
				c-0.079-0.022-0.059-0.045-0.099-0.112c-0.101,0.067-0.261,0.023-0.34,0.133c0,0.022,0.041,0.022,0.06,0.022
				C50.459,1.661,50.437,1.661,50.437,1.684 M50.418,2.639c0,0.022,0.041,0.022,0.06,0.022c0.02,0,0.16,0,0.099-0.066
				C50.538,2.572,50.459,2.595,50.418,2.639 M50.179,3.15c0.099,0.044,0.203,0.076,0.299,0.022c0.039-0.022,0.08,0.022,0.12-0.022
				C50.478,3.083,50.318,3.083,50.179,3.15 M50.118,2.75c0.041-0.022,0.14-0.022,0.121-0.066c-0.06-0.133-0.259,0-0.379,0.045
				C49.939,2.772,50.047,2.79,50.118,2.75 M49.879,3.171c0,0.022,0.039,0.022,0.059,0.022V3.15
				C49.918,3.15,49.879,3.15,49.879,3.171 M49.859,2.373c-0.1-0.067-0.22-0.089-0.34-0.045c0.06,0.022,0.12,0.022,0.161,0.089
				C49.739,2.373,49.799,2.417,49.859,2.373 M49.959,2.129c-0.02,0.022,0,0.043,0.02,0.043c0.019,0,0.023,0.014,0.04,0
				c0.079-0.066,0.199,0.023,0.28-0.066c0-0.023,0-0.046-0.021-0.046C50.179,2.106,50.058,2.04,49.959,2.129 M50.019,1.529
				c-0.021,0.044,0.023,0.111,0.14,0.111c0.02,0,0.02-0.022,0.039-0.022l-0.019-0.022c0.079-0.023,0.179,0,0.259-0.09
				c0.021-0.022,0-0.044-0.019-0.044C50.278,1.462,50.078,1.395,50.019,1.529 M50.358,1.351c-0.04,0-0.119-0.021-0.16,0.045
				c0.18,0.045,0.359,0.045,0.539,0.045c0.061,0,0.14,0,0.201-0.045C50.759,1.239,50.558,1.351,50.358,1.351 M51.097,1.795
				c0-0.022,0-0.045-0.019-0.045c-0.2,0-0.42-0.044-0.619,0.067c0.059,0.067,0.16-0.022,0.22,0.067c0.039,0.045,0.109-0.019,0.179,0
				C50.938,1.906,51.058,1.906,51.097,1.795 M50.838,3.438c-0.021,0-0.04,0-0.04,0.023c0.059,0.044,0.14,0.044,0.199,0
				c-0.02-0.045-0.059-0.023-0.1-0.023c0.161-0.089,0.34,0.067,0.48-0.022c-0.14-0.044-0.282-0.054-0.44-0.089
				c-0.1-0.022-0.14,0.067-0.22,0.089C50.759,3.483,50.798,3.394,50.838,3.438 M50.698,3.26c0-0.022,0-0.044-0.02-0.044
				c-0.121,0.067-0.241-0.067-0.36,0.022c0.08,0.067,0.177,0.067,0.28,0.067C50.638,3.306,50.678,3.306,50.698,3.26 M49.918,3.572
				c0.241-0.044,0.46,0.022,0.68-0.044c-0.06-0.112-0.161,0-0.24-0.045c-0.04-0.022-0.1-0.067-0.14-0.044
				c-0.1,0.067-0.22,0.044-0.319,0.089C49.879,3.55,49.899,3.572,49.918,3.572 M49.619,3.927c0.08-0.022,0.16-0.043,0.22-0.088
				c-0.021-0.022-0.021-0.044-0.04-0.044c-0.099,0.022-0.22-0.023-0.3,0.067C49.538,3.883,49.558,3.944,49.619,3.927 M49,4.526
				c0.199,0,0.4,0.067,0.579-0.066c0.02-0.023,0-0.045-0.02-0.045c-0.1,0-0.22,0.089-0.321,0.022c-0.119-0.065-0.278,0-0.418,0
				c-0.02,0-0.02,0.046-0.02,0.067C48.86,4.571,48.939,4.526,49,4.526 M49,3.771c0.039,0,0.099,0,0.081-0.043
				C49.06,3.594,48.88,3.66,48.8,3.705C48.86,3.728,48.921,3.771,49,3.771 M48.9,2.505c0.021-0.022,0.061-0.022,0.08-0.065
				c0-0.023,0-0.046-0.02-0.046c-0.061-0.022-0.142-0.06-0.16,0C48.78,2.462,48.86,2.505,48.9,2.505 M48.8,2.04L48.78,2.017H48.74
				c-0.02,0.022,0,0.043,0.02,0.043C48.78,2.061,48.8,2.061,48.8,2.04 M48.84,5.393c0.02,0,0.047,0.006,0.06-0.023
				c0.021-0.044,0.1,0,0.12-0.044C48.961,5.305,48.86,5.26,48.8,5.305C48.84,5.326,48.8,5.37,48.84,5.393 M48.68,5.349
				c0.021-0.022,0.04-0.044,0-0.066c-0.04,0-0.1-0.023-0.1,0.022C48.56,5.349,48.649,5.384,48.68,5.349 M48.78,5.216
				c0.021,0,0.041,0.022,0.06,0.044c0.02,0,0.04-0.022,0.02-0.044c-0.08-0.067-0.219-0.089-0.319-0.046
				C48.6,5.26,48.698,5.216,48.78,5.216 M48.6,3.816c0.061,0,0.121,0,0.16-0.045c-0.058-0.043-0.138-0.111-0.219-0.087
				c-0.02,0-0.02,0.022-0.02,0.044c0.02,0.022,0.02,0.022,0.039,0.043c-0.02,0-0.08-0.022-0.08,0.023
				C48.501,3.838,48.56,3.816,48.6,3.816 M48.661,3.083c0.02-0.022,0-0.044-0.02-0.044H48.48c-0.02,0-0.02,0.022-0.039,0.022
				C48.48,3.128,48.6,3.128,48.661,3.083 M48.381,5.482c0.02,0,0.02-0.021,0.02-0.046c-0.059-0.066-0.16-0.132-0.24-0.066
				c0.041,0.066,0.1,0.044,0.14,0.09C48.32,5.482,48.361,5.436,48.381,5.482 M48.121,5.482h0.04c0.021,0,0.08,0.043,0.08,0
				c-0.02-0.046-0.08-0.112-0.139-0.046C48.101,5.461,48.101,5.482,48.121,5.482 M47.462,5.349c0.18,0.022,0.34,0.022,0.498-0.044
				c-0.019-0.067-0.078-0.045-0.119-0.045c-0.06-0.022-0.119-0.044-0.16-0.022c-0.059,0.044-0.1,0.067-0.159,0.067
				c0-0.045-0.021-0.067-0.04-0.067c-0.14-0.022-0.28-0.022-0.4,0.044C47.203,5.326,47.342,5.334,47.462,5.349 M47.502,3.572
				c0-0.022-0.019-0.044-0.019-0.044c-0.059,0.044-0.18,0.022-0.16,0.111c0,0.045,0.059,0.067,0.12,0.067
				c0.059,0,0.08-0.045,0.099-0.067c0-0.044-0.059-0.022-0.079-0.022C47.482,3.594,47.482,3.594,47.502,3.572 M47.283,4.55
				c0,0.022,0.059,0.044,0.059,0C47.342,4.526,47.283,4.526,47.283,4.55 M47.442,3.416c0.02-0.022,0-0.044-0.019-0.044
				c-0.06,0-0.1,0-0.161,0.044l-0.039-0.044c-0.04,0.022-0.079,0.066-0.079,0.111c0,0.045,0.061,0.033,0.099,0.022
				C47.322,3.483,47.382,3.461,47.442,3.416 M47.182,3.128c0,0.022,0,0.043,0.02,0.043c0.02,0,0.011-0.022,0.04-0.022
				c0.019,0,0.019-0.022,0.04-0.022C47.242,3.083,47.222,3.083,47.182,3.128 M47.162,0.906c-0.019,0-0.019,0.023-0.019,0.045
				c0,0.022,0.019,0.022,0.019,0.044C47.203,0.973,47.203,0.929,47.162,0.906 M47.063,4.193c-0.021-0.021-0.04-0.066-0.06-0.066
				c-0.08,0-0.14-0.067-0.2-0.089c-0.02,0-0.02,0.044-0.06,0.044c-0.12,0-0.261-0.022-0.379,0.067c0.099,0.089,0.22,0,0.339,0.044
				C46.803,4.238,46.943,4.26,47.063,4.193 M45.974,1.154c-0.109-0.056-0.233-0.028-0.316,0.046c0.04,0.044,0.1,0,0.14-0.022
				c0.079-0.018,0.133,0.063,0.192,0.052c0.106,0.046,0.214,0.066,0.333,0.1c0.06,0,0.1-0.045,0.14-0.09
				C46.294,1.221,46.14,1.139,45.974,1.154 M46.104,0.929c-0.12-0.112-0.28-0.088-0.38,0c0.041,0.044,0.1,0,0.14-0.023
				C45.964,0.884,46.024,1.018,46.104,0.929 M45.265,1.196c-0.039,0-0.119-0.023-0.119,0.022c0.018,0.112,0.158,0.067,0.239,0.089
				c0.12,0.044,0.216,0.023,0.359,0.023c0.021,0,0.021-0.023,0.041-0.023C45.625,1.218,45.444,1.263,45.265,1.196 M46.364,2.017
				c-0.021,0-0.06,0.022-0.06,0.043c0,0.046,0.039,0.09,0.08,0.068c0.04-0.045,0.079-0.111,0.119-0.178c0-0.022,0-0.045-0.02-0.045
				c-0.04,0-0.059,0.023-0.079,0.045v0.044C46.404,2.017,46.384,2.017,46.364,2.017 M45.724,4.171c0.16,0.067,0.339,0.021,0.5-0.044
				c-0.021-0.089-0.101-0.067-0.181-0.067c-0.099,0-0.179-0.022-0.278,0.022c0.039,0.045,0.099,0.022,0.16,0.045
				C45.864,4.149,45.785,4.105,45.724,4.171 M46.343,3.771c0.041-0.022,0-0.087,0.021-0.111c0.039-0.022,0.114,0.012,0.138-0.043
				c0.02-0.045-0.039-0.045-0.06-0.067c-0.078,0.045-0.199-0.067-0.24,0c-0.059,0.089,0.041,0.022,0.081,0.067
				c-0.179,0.067-0.358,0.022-0.539,0.067C45.944,3.705,46.144,3.771,46.343,3.771 M46.623,3.171c0-0.022-0.024-0.034-0.039-0.022
				c-0.062,0.044-0.141,0.067-0.18,0.133c0,0.022,0,0.044,0.02,0.044C46.503,3.327,46.604,3.26,46.623,3.171 M45.824,2.972
				c0.04,0.088,0.16,0.044,0.261,0c-0.041-0.045-0.08-0.067-0.1-0.111C45.925,2.839,45.805,2.927,45.824,2.972 M46.144,2.417
				c-0.059-0.044-0.097-0.089-0.16-0.089h-0.059c-0.021,0-0.041,0.022-0.021,0.045C45.964,2.44,46.085,2.483,46.144,2.417
				 M46.104,2.862c0.08,0.066,0.2,0.043,0.3,0C46.304,2.772,46.184,2.816,46.104,2.862 M46.503,1.506
				c-0.06-0.044-0.119-0.089-0.199-0.089c-0.12,0-0.219-0.087-0.34-0.043c0.06,0.111,0.18,0.043,0.26,0.111
				C46.283,1.551,46.404,1.529,46.503,1.506 M46.483,0.841c0-0.024,0.081-0.024,0.02-0.068c-0.039-0.022-0.099,0.027-0.099-0.022
				V0.707c-0.08-0.021-0.201-0.067-0.26,0.022C46.244,0.841,46.364,0.817,46.483,0.841 M46.723,0.263
				c-0.059-0.111-0.179,0.022-0.24-0.067c-0.04,0.067-0.118-0.022-0.159,0.044C46.424,0.33,46.604,0.285,46.723,0.263 M46.664,2.106
				c-0.021,0-0.06-0.023-0.08,0.022c0,0.022,0,0.043,0.02,0.043c0.019,0,0.025,0.016,0.039,0C46.664,2.15,46.723,2.129,46.664,2.106
				 M46.844,2.017c-0.061-0.023-0.1-0.044-0.162,0C46.743,2.061,46.783,2.061,46.844,2.017 M46.664,0.884
				c0.059-0.021,0.175-0.02,0.16-0.111c-0.021-0.112-0.16-0.067-0.24,0C46.604,0.817,46.623,0.884,46.664,0.884 M46.883,0.573
				c0.019-0.022,0.04-0.088,0-0.088c-0.08-0.022-0.201,0-0.201,0.066C46.682,0.64,46.832,0.631,46.883,0.573 M46.604,0.152
				c0.079,0,0.199,0.022,0.28,0c0.04-0.023,0.059-0.112,0.019-0.155c-0.12,0.155-0.318,0.066-0.499,0.066
				c-0.039,0-0.061,0.023-0.08,0.044C46.404,0.174,46.522,0.152,46.604,0.152 M46.923-0.026c0-0.023,0.02-0.067-0.02-0.089
				c-0.019,0-0.04,0.022-0.079,0.022c-0.021,0-0.021,0.023-0.041,0.045C46.824-0.026,46.883-0.026,46.923-0.026 M46.463,2.417
				c0.08,0.023,0.183,0.152,0.24,0.088c0.02-0.022,0.079,0.023,0.1,0c0.041-0.065,0.1-0.043,0.159-0.088
				c0.022-0.022,0-0.044-0.019-0.044C46.783,2.373,46.623,2.349,46.463,2.417 M46.783,3.083c-0.04,0-0.02,0.088-0.06,0.111
				c0.06,0.045,0.127,0.052,0.18,0.023c0.04-0.023,0.1-0.023,0.139-0.067C46.984,3.039,46.863,3.128,46.783,3.083 M46.803,5.06
				c0.021,0,0.021-0.023,0.041-0.023c-0.041-0.044-0.081-0.044-0.1,0C46.743,5.06,46.783,5.06,46.803,5.06 M46.384,5.238
				c0.059,0,0.098-0.018,0.16,0c0.079,0.022,0.139,0,0.2-0.022c-0.061-0.023-0.079-0.067-0.12-0.089
				c-0.079-0.045-0.18,0.022-0.259,0.066C46.364,5.216,46.364,5.238,46.384,5.238 M46.224,5.193h0.08c0.02,0,0.02-0.023,0.02-0.044
				c-0.04-0.045-0.121-0.071-0.121,0C46.203,5.17,46.224,5.193,46.224,5.193 M46.144,4.748c0.08,0.022,0.16,0,0.24-0.021
				c-0.06-0.045-0.12,0-0.181-0.045c0.101,0,0.201,0.067,0.28-0.044c-0.14-0.067-0.299-0.067-0.458-0.023
				c-0.06,0-0.099,0.023-0.16-0.022c-0.02,0.066-0.04,0.088-0.099,0.112C45.884,4.771,46.026,4.716,46.144,4.748 M45.964,4.283
				c0.159,0.044,0.34,0.044,0.499,0c0,0.022,0,0.044,0.019,0.044c0.081,0,0.199,0.067,0.24-0.044
				c0.02-0.067-0.059-0.045-0.081-0.045c-0.319-0.045-0.638-0.045-0.957-0.022C45.765,4.327,45.864,4.26,45.964,4.283 M45.925,2.55
				c-0.041-0.045-0.081-0.045-0.14-0.045c-0.061,0-0.12,0.023-0.16,0.045C45.724,2.595,45.824,2.595,45.925,2.55 M45.884,1.929
				c-0.119-0.067-0.3-0.067-0.44-0.023c0.041,0.089,0.098,0.067,0.16,0.067C45.704,1.973,45.805,2.017,45.884,1.929 M45.345,3.55
				V3.505c-0.101-0.044-0.22-0.089-0.339-0.022C45.106,3.55,45.226,3.505,45.345,3.55 M45.326,2.927l-0.021-0.022
				c0.1-0.088,0.22,0.067,0.3-0.022c0-0.022-0.05-0.002-0.059-0.022c-0.081-0.178-0.3-0.112-0.439-0.067
				c-0.061,0.021-0.14,0.021-0.2,0.067C45.026,2.927,45.185,2.994,45.326,2.927 M44.686,2.728c0.06,0.022,0.097,0,0.16,0
				c0.101,0,0.18,0.043,0.28,0.022c0.021-0.022,0.039-0.066,0.08-0.089c-0.041-0.066-0.12,0-0.179-0.022V2.572
				c-0.14-0.089-0.261,0.045-0.38,0.111C44.665,2.706,44.665,2.728,44.686,2.728 M44.646,2.129c0.04,0.022,0.061-0.022,0.081-0.045
				c0-0.023,0-0.066-0.02-0.066c-0.061,0-0.12-0.023-0.181,0.022C44.567,2.061,44.606,2.106,44.646,2.129 M44.526,1.572
				c0.38,0.023,0.758,0.045,1.139,0.067c-0.1,0.067-0.22,0-0.319,0.022c0,0-0.08,0.045-0.02,0.067
				c0.279,0.089,0.58,0.034,0.877,0.089c0.121,0.023,0.24-0.022,0.28-0.133c0.04-0.088-0.079-0.045-0.099-0.045
				c-0.2-0.022-0.42,0.067-0.599-0.043c0.119,0.022,0.239,0.022,0.359-0.023c0,0,0.08-0.044,0.02-0.044
				c-0.239-0.044-0.46-0.088-0.678-0.088c-0.101-0.023-0.22,0.022-0.321,0.044c-0.259,0.022-0.539,0.022-0.798,0.022
				C44.407,1.572,44.486,1.572,44.526,1.572 M45.026,1.351c-0.041-0.021-0.06-0.044-0.101-0.044
				c-0.02-0.178-0.219-0.089-0.319-0.178c-0.06-0.022-0.06,0.067-0.1,0.089c0.061,0.045,0.14,0.022,0.22,0.045
				c0.039,0,0.02,0.067,0.02,0.067c-0.14,0.044-0.279-0.045-0.419,0c-0.021,0.021-0.08,0.066-0.04,0.066
				c0.3,0.067,0.599,0.089,0.899,0V1.351C45.125,1.351,45.065,1.374,45.026,1.351 M44.206-0.315c-0.04,0-0.04,0.067-0.06,0.111
				c0,0.067,0.088,0.094,0.119,0.067c0.081-0.067,0.141-0.022,0.221-0.022c0.08-0.023,0.179,0.066,0.26,0.088
				c0.04,0,0.079-0.023,0.12-0.045c0.039,0,0.099,0.045,0.14,0C44.765-0.315,44.486-0.271,44.206-0.315 M44.946-0.449
				c-0.021,0-0.021-0.043-0.021-0.067c-0.08-0.066-0.199-0.044-0.26,0c-0.079,0.045-0.14-0.066-0.219,0.023
				c0.239,0.088,0.499,0.111,0.739,0.199c0.119,0.045,0.259,0.067,0.399,0C45.385-0.403,45.164-0.449,44.946-0.449 M45.584,0.063
				c-0.14-0.066-0.3-0.044-0.459-0.044c-0.239,0.044-0.439-0.067-0.679-0.134c-0.02,0-0.04,0.045-0.04,0.045
				c0.06,0.089,0.16,0.067,0.239,0.111c0.02,0.022-0.079,0.022-0.079,0.022c0.099,0.089,0.219,0.023,0.319,0.044l-0.019,0.045
				c0,0.044,0.059,0.044,0.08,0.066c0.099,0.022,0.2-0.022,0.299,0.022c0.04,0.044,0.081,0.112,0.14,0.134h0.12l0.019-0.044
				c-0.039-0.067-0.1-0.067-0.159-0.111c0.02,0,0.02-0.022,0.02-0.045c0.04,0,0.079,0,0.12,0.045
				c0.059,0.022,0.079-0.045,0.12-0.089C45.645,0.107,45.604,0.085,45.584,0.063 M45.744,0.396c-0.02,0.045-0.08,0.023-0.099,0.023
				c-0.181,0.066-0.361-0.023-0.52-0.067c-0.06-0.022-0.179-0.067-0.2,0c-0.02,0.089,0.101,0.044,0.16,0.111
				c0.04,0.022,0.12-0.022,0.159,0c0.2,0.088,0.4,0.088,0.6,0.045c0.2-0.023,0.42-0.023,0.599-0.156
				c-0.119-0.046-0.219-0.046-0.339-0.046c-0.06,0-0.08,0.089-0.14,0.112C45.884,0.419,45.805,0.441,45.744,0.396 M46.943-1.047
				c-0.04-0.089-0.119-0.022-0.179-0.045c-0.06-0.023-0.179-0.08-0.179,0c0,0.022,0.02,0.067,0.039,0.067
				c0.059,0,0.1,0.022,0.14,0.043c0.061,0,0.12,0.044,0.179,0V-1.047z M46.962-0.492c-0.019-0.045-0.099-0.067-0.118-0.023
				c0,0.045,0.019,0.09,0.04,0.134c-0.219-0.022-0.42,0-0.64-0.044c-0.12-0.045-0.263-0.085-0.34,0
				c-0.02,0.022-0.08,0.044-0.02,0.066c0.201,0.067,0.459-0.111,0.579,0.112c0.16-0.045,0.319,0.043,0.46-0.045
				C46.984-0.315,46.984-0.425,46.962-0.492 M46.984,2.795c0.039,0.021,0.112-0.023,0.118-0.045c0.021-0.066-0.06,0-0.099-0.022
				C47.003,2.75,46.923,2.772,46.984,2.795 M47.042,1.285l0.021-0.022c0.1-0.067,0.12-0.223,0.02-0.223
				C47.042,1.04,46.984,1.196,47.042,1.285 M47.123,0.817c0,0.046,0.039,0.046,0.079,0C47.162,0.796,47.123,0.773,47.123,0.817
				 M47.222,0.529c-0.04,0.044-0.079,0.111-0.079,0.177c0,0.022,0.039,0.022,0.06,0.022c0.02,0,0.011-0.024,0.02-0.043
				C47.242,0.64,47.262,0.573,47.222,0.529 M47.303,2.462c-0.041-0.022-0.12,0.088-0.041,0.134c0,0,0.032-0.003,0.041-0.023
				C47.322,2.528,47.342,2.462,47.303,2.462 M47.363-0.048c-0.02,0-0.02,0.023-0.02,0.046c0,0.022,0.02,0.022,0.02,0.043
				C47.401,0.019,47.401-0.026,47.363-0.048 M47.502,2.883c-0.039-0.022-0.059,0.022-0.079,0.044c0,0.023,0.039,0.023,0.059,0.023
				c0.019,0,0.019-0.023,0.04-0.023C47.522,2.905,47.522,2.883,47.502,2.883 M47.502,3.171c0,0.022-0.059,0.022-0.019,0.067
				c0.04,0.045,0.099,0.022,0.099-0.022C47.581,3.194,47.541,3.15,47.502,3.171 M47.723,0.508c-0.062,0.154-0.021,0.334-0.062,0.51
				c0,0.044,0.062,0.022,0.08,0.022c0.041,0,0.081-0.045,0.081-0.067C47.802,0.817,47.841,0.618,47.723,0.508 M47.642,1.572
				c0.018,0.023,0.018,0.067,0.059,0.045c0.021,0,0.035-0.029,0.021-0.045c-0.021-0.022-0.021-0.044-0.041-0.044
				C47.661,1.529,47.661,1.551,47.642,1.572 M47.581,1.75c-0.018,0.023,0,0.045,0.021,0.045c0.04,0,0.099,0.022,0.139-0.022
				c0,0,0.021,0.022,0.041,0.022c0.02-0.022,0.04-0.045,0.06-0.067C47.782,1.661,47.642,1.684,47.581,1.75 M47.642,2.328
				c0,0.045,0.087,0.08,0.12,0.045c0.019-0.023,0-0.067-0.021-0.067h0.12c0.021,0,0.14-0.022,0.081-0.044
				c-0.059-0.044-0.18,0.023-0.241-0.044c0,0.044-0.059,0-0.059,0.044c0,0.02,0,0.039,0.012,0.043
				C47.647,2.309,47.642,2.315,47.642,2.328 M47.802,3.639c0-0.044-0.101-0.067-0.159-0.044c0.018,0.023,0.039,0.066,0.08,0.066
				C47.762,3.66,47.822,3.684,47.802,3.639 M47.723,4.171h0.039l-0.021-0.022L47.723,4.171z M47.822,2.572
				c0.02,0.023,0.061,0.023,0.08,0.023c0-0.022,0.072-0.043,0.028-0.064c0.018-0.008,0.031-0.024,0.031-0.048
				c0-0.043-0.059-0.067-0.1-0.067c-0.039,0-0.059,0.088,0,0.111c0.008,0.005,0.016,0.007,0.025,0.009
				C47.862,2.545,47.834,2.559,47.822,2.572 M47.782,2.862h-0.041c0,0.022-0.08,0.043-0.018,0.066c-0.041,0.045-0.041,0.112,0,0.134
				c0.039,0,0.079,0.022,0.119-0.022c0.02-0.023,0.08-0.045,0.08-0.067c-0.039-0.067-0.14,0.022-0.199-0.045
				c0.039,0,0.099,0.023,0.138-0.022c0-0.022,0-0.043-0.02-0.043H47.782z M47.802,2.462c0-0.022,0-0.045-0.02-0.045
				c-0.041,0-0.1-0.022-0.121,0.023c0,0.043,0.062,0.043,0.101,0.043C47.782,2.483,47.782,2.462,47.802,2.462 M47.981,2.883
				c-0.039-0.022-0.079-0.044-0.12,0C47.902,2.927,47.942,2.927,47.981,2.883 M47.942,2.706c-0.02,0.044-0.1,0.066-0.081,0.133
				c0.021,0.022,0.041,0,0.041-0.023c0,0.023,0.019,0.023,0.04,0.023c0.039-0.023,0.059-0.068,0.039-0.111
				C47.981,2.728,47.961,2.706,47.942,2.706 M47.723,3.194c-0.021,0-0.021,0.023-0.021,0.045c0.061,0.089,0.181,0.045,0.26,0.045
				c0.02,0,0.02-0.023,0.04-0.023C47.921,3.171,47.822,3.194,47.723,3.194 M47.861,4.082c-0.039,0.022-0.08,0.11-0.02,0.156
				c0.02,0,0.047-0.002,0.1-0.022c0.059-0.023,0.1,0,0.12-0.067c0.019-0.044-0.02-0.044-0.041-0.067
				C47.961,4.061,47.902,4.061,47.861,4.082 M47.882,3.372c0-0.023,0.078-0.045,0.02-0.067c-0.061,0-0.12,0.022-0.161,0.044
				C47.782,3.394,47.841,3.372,47.882,3.372 M47.661,2.617h0.04c0-0.022,0.083-0.067,0.021-0.067c-0.021,0-0.062-0.022-0.08,0.022
				C47.642,2.595,47.642,2.617,47.661,2.617 M47.841,1.995c0,0.045,0.08,0.066,0.1,0.023c0.019-0.044,0-0.133-0.04-0.133
				C47.861,1.862,47.841,1.951,47.841,1.995 M47.961-0.537c-0.039,0.156-0.09,0.366,0.02,0.488c0.02,0.023,0.061,0,0.061-0.022
				C48.021-0.226,48.042-0.403,47.961-0.537 M48.042,0.352c-0.021,0.022-0.041,0.022-0.041,0.044c0.041,0.112-0.04,0.244,0.08,0.311
				C48.121,0.597,48.101,0.463,48.042,0.352 M48.141,0.863c-0.02-0.022-0.04-0.046-0.06-0.068c-0.019,0-0.039,0-0.039,0.022
				c0,0.067,0,0.156,0.059,0.156c0.006,0.002,0.011,0.004,0.017,0.004l-0.017,0.018l0.02,0.023V0.977
				C48.167,0.977,48.187,0.912,48.141,0.863 M47.541,4.949c0.021,0,0.021-0.023,0.021-0.045h0.16c0,0.022,0,0.045,0.018,0.045
				c0.021,0,0.041-0.045,0.041-0.045c0.06,0.045,0.14,0,0.179-0.043c-0.119-0.09-0.26,0-0.38,0c-0.099,0-0.219-0.023-0.32,0.043
				c0.14,0.111,0.301,0.111,0.461,0.111c0.179,0,0.339,0.045,0.518,0C48.021,4.883,47.782,5.015,47.541,4.949 M48.46-1.182
				c-0.14,0.067,0,0.268-0.02,0.424c0.02,0,0.02,0.088,0.06,0.022c0-0.022,0-0.022-0.021-0.045c0-0.022,0.006-0.028,0.021-0.044
				c0.02-0.022,0.059-0.022,0.059-0.045c0-0.067,0.021-0.089,0-0.133C48.541-1.07,48.48-1.204,48.46-1.182"/>
		</g>
	</g>
</g>
</svg>
