<?xml version="1.0" encoding="utf-8"?>
<!-- Generator: Adobe Illustrator 16.2.1, SVG Export Plug-In . SVG Version: 6.00 Build 0)  -->
<!DOCTYPE svg PUBLIC "-//W3C//DTD SVG 1.1//EN" "http://www.w3.org/Graphics/SVG/1.1/DTD/svg11.dtd">
<svg version="1.1" id="Layer_1" xmlns="http://www.w3.org/2000/svg" xmlns:xlink="http://www.w3.org/1999/xlink" x="0px" y="0px"
	 width="50px" height="50px" viewBox="0 0 50 50" enable-background="new 0 0 50 50" xml:space="preserve">
<g>
	<path fill="#439EC5" d="M0,16.188c0,0,1.266-0.121,1.702-0.074c0.503,0.058,1.517,0.469,2.016,0.525
		c0.423,0.048,1.307,0.286,1.727,0.264c0.525-0.029,1.387-0.601,2.157-0.467c4.039,0.711,10.207,7.98,14.302,7.806
		c7.396-0.321,7.222-8.165,9.18-8.165H50c-11.091,5.103-18.656,10.791-14.732,14.111c3.593,3.043,14.396-0.75,14.396-0.75
		s-4.506,4.486-12.275,4.486c-15.034,0-25.129-12.782-32.599-15.88C3.604,17.555,1.339,16.61,0,16.188z"/>
</g>
</svg>
