<?xml version="1.0" encoding="utf-8"?>
<!-- Generator: Adobe Illustrator 16.2.1, SVG Export Plug-In . SVG Version: 6.00 Build 0)  -->
<!DOCTYPE svg PUBLIC "-//W3C//DTD SVG 1.1//EN" "http://www.w3.org/Graphics/SVG/1.1/DTD/svg11.dtd">
<svg version="1.1" id="svg2367" xmlns:svg="http://www.w3.org/2000/svg"
	 xmlns="http://www.w3.org/2000/svg" xmlns:xlink="http://www.w3.org/1999/xlink" x="0px" y="0px" width="50px" height="50px"
	 viewBox="393.414 106.031 50 50" enable-background="new 393.414 106.031 50 50" xml:space="preserve">
<path id="path22" fill="#002B5C" d="M398.605,130.13l-0.176,0.675c0,0,2.216-0.036,3.112-0.036c2.046-0.002,3.292,0.185,3.429,1.432
	c0.122,0.839-0.27,1.646-0.494,2.438c-0.216,0.77-0.414,1.507-0.625,2.267c-0.226,0.802-0.468,1.507-0.897,2.047
	c-0.487,0.613-1.109,1.021-1.747,1.177c-0.877,0.214-4.466,0.086-5.466,0.086c-0.112,0.282-0.178,0.609-0.268,0.915
	c2.91,0.148,5.711-0.048,8.689,0.042c0.967,0.03,1.924,0.134,2.778-0.042c1.301-0.266,2.238-1.161,2.642-2.352
	c0.401-1.176,0.763-2.545,1.121-3.789c0.198-0.684,0.322-1.329,0.627-1.873c0.29-0.521,0.673-0.926,1.163-1.309
	c0.903-0.698,2.372-1.285,3.765-0.61c0.686,0.336,1.085,0.89,1.075,1.919c-0.008,0.886-0.306,1.612-0.538,2.438
	c-0.693,2.464-1.305,4.559-1.973,6.971c-0.218,0.791-0.386,1.639-0.671,2.308c-0.552,1.297-1.767,2.36-3.359,2.614
	c-1.333,0.21-2.852,0.042-4.255,0.042h-12.812c0,0-0.22,0.632-0.314,0.959c5.622,0.08,11.417,0.042,16.889,0.042
	c1.489,0,2.868,0.04,4.165-0.086c3.717-0.361,7.006-1.404,9.722-2.876c4.513-2.441,8.06-5.854,10.66-10.235
	c1.499-2.524,4.005-4.447,8.122-4.447c0.118-0.312,0.178-0.449,0.276-0.715H398.605L398.605,130.13z"/>
<path id="path90" fill="#ED1C24" d="M443.414,129.672c-3.154,0.072-5.514-1.283-5.74-4.137c-0.046-0.576,0.004-1.115-0.046-1.611
	c-0.154-1.578-0.494-2.821-1.029-4.053c-2.056-4.721-6.113-7.32-12.632-7.84h-20.25c-0.038,0.354-0.196,0.592-0.224,0.959h13.082
	c1.427,0,3.012-0.195,4.211,0.13c0.773,0.21,1.717,0.905,1.657,2.265c-0.03,0.697-0.355,1.438-0.582,2.223
	c-0.627,2.168-1.165,4.314-1.792,6.49c-0.408,1.413-0.698,2.918-1.567,3.964c-0.79,0.947-2.22,1.874-3.943,1.393
	c-0.627-0.174-1.02-0.396-1.299-0.827c-0.675-1.042-0.054-2.645,0.27-3.789c0.176-0.628,0.37-1.212,0.536-1.787
	c0.16-0.552,0.434-1.215,0.448-1.872c0.024-1.01-0.62-1.531-1.253-1.743c-0.751-0.25-1.834-0.13-2.822-0.13
	c-2.884,0-5.995-0.036-8.781,0.044c-0.06,0.304-0.174,0.556-0.224,0.869c2.508,0,6.539-0.313,6.539,1.745
	c0.008,0.479-0.166,1.017-0.314,1.522c-0.266,0.928-0.545,1.847-0.803,2.788c-0.132,0.478-0.222,0.972-0.404,1.395
	c-0.478,1.117-0.981,2.003-2.824,2.003h-4.902l-0.118,0.458h44.642C443.315,129.926,443.354,129.826,443.414,129.672"/>
</svg>
