<?xml version="1.0" encoding="utf-8"?>
<!-- Generator: Adobe Illustrator 16.2.1, SVG Export Plug-In . SVG Version: 6.00 Build 0)  -->
<!DOCTYPE svg PUBLIC "-//W3C//DTD SVG 1.1//EN" "http://www.w3.org/Graphics/SVG/1.1/DTD/svg11.dtd">
<svg version="1.1"
	 id="svg2" xmlns:rdf="http://www.w3.org/1999/02/22-rdf-syntax-ns#" xmlns:cc="http://creativecommons.org/ns#" xmlns:svg="http://www.w3.org/2000/svg" xmlns:dc="http://purl.org/dc/elements/1.1/" xmlns:sodipodi="http://sodipodi.sourceforge.net/DTD/sodipodi-0.dtd" xmlns:inkscape="http://www.inkscape.org/namespaces/inkscape" inkscape:version="0.46" sodipodi:version="0.32" sodipodi:docname="1200px-SilkAir_Logo.svg" inkscape:output_extension="org.inkscape.output.svg.inkscape"
	 xmlns="http://www.w3.org/2000/svg" xmlns:xlink="http://www.w3.org/1999/xlink" x="0px" y="0px" width="50px" height="50px"
	 viewBox="100.5 76.5 50 50" enable-background="new 100.5 76.5 50 50" xml:space="preserve">
<defs>
	
	
		<inkscape:perspective  id="perspective68" inkscape:persp3d-origin="750 : 202.5 : 1" inkscape:vp_z="1500 : 303.75 : 1" inkscape:vp_y="0 : 1000 : 0" sodipodi:type="inkscape:persp3d" inkscape:vp_x="0 : 303.75 : 1">
		</inkscape:perspective>
</defs>
<sodipodi:namedview  id="base" inkscape:pageshadow="2" inkscape:pageopacity="0.0" inkscape:window-width="640" inkscape:window-y="28" inkscape:window-height="669" inkscape:window-x="23" inkscape:current-layer="svg2" inkscape:cy="303.75" showgrid="false" bordercolor="#666666" inkscape:zoom="0.36266667" inkscape:cx="750" pagecolor="#ffffff" gridtolerance="10.0" borderopacity="1.0" guidetolerance="10.0" objecttolerance="10.0">
	</sodipodi:namedview>
<g id="_x23_009484ff">
	<path id="path5" fill="#009484" d="M100.5,91.375h28.166c0.735,0.498,1.363,1.137,1.949,1.8c1.379,1.533,2.609,3.239,4.304,4.45
		c0.298,0.194,0.592,0.438,0.96,0.472c-0.263-0.253-0.551-0.48-0.812-0.737c-1.179-1.13-2.206-2.402-3.311-3.603
		c-0.242-0.275-0.524-0.517-0.749-0.809c0.07,0.021,0.137,0.053,0.199,0.093c0.667,0.442,1.25,0.998,1.792,1.582
		c0.568,0.627,1.146,1.244,1.724,1.862c0.607,0.65,1.235,1.283,1.895,1.882c-0.94,0.094-1.888,0.045-2.827-0.037
		c-0.592-0.022-1.173-0.144-1.753-0.251c-0.642-0.104-1.263-0.3-1.884-0.482c0.106,0.434,0.46,0.745,0.827,0.968
		c0.603,0.382,1.302,0.624,1.812,1.142c0.336,0.333,0.402,0.836,0.7,1.196c0.781-0.349,1.608-0.61,2.46-0.708
		c0.825-0.089,1.708,0.086,2.371,0.605c0.52,0.405,0.987,0.876,1.399,1.391c0.417,0.51,0.771,1.065,1.129,1.617
		c0.622,0.959,1.227,1.931,1.898,2.856c0.52,0.725,1.063,1.434,1.635,2.118c0.033,0.038,0.064,0.079,0.067,0.132
		c-0.107-0.028-0.171-0.13-0.256-0.192c-1.503-1.337-2.596-3.045-3.727-4.69c-0.435-0.63-0.882-1.255-1.371-1.845
		c-0.347-0.412-0.691-0.832-1.112-1.17c-0.146-0.124-0.335-0.18-0.52-0.207c0.188,0.383,0.505,0.675,0.77,1.001
		c1.56,1.839,2.652,4.017,4.165,5.891c0.585,0.724,1.228,1.406,1.968,1.976c1.015,0.792,2.093,1.552,3.331,1.948H100.5V91.375
		 M105.712,101.48c-0.637,0.036-1.311,0.404-1.533,1.03c-0.119,0.304-0.176,0.66-0.04,0.968c0.185,0.452,0.493,0.838,0.785,1.225
		c0.304,0.406,0.629,0.8,0.87,1.249c0.172,0.276,0.155,0.623,0.091,0.93c-0.116,0.339-0.348,0.69-0.715,0.781
		c-0.3,0.097-0.645,0.087-0.921-0.073c-0.2-0.124-0.318-0.337-0.417-0.544c-0.11-0.235-0.107-0.501-0.133-0.754
		c-0.063-0.009-0.126-0.009-0.189-0.009c-0.06,0.483-0.137,0.964-0.235,1.44c0.252,0.13,0.538,0.175,0.812,0.239
		c0.491,0.117,1.005,0.109,1.502,0.041c0.412-0.067,0.846-0.137,1.185-0.398c0.334-0.245,0.534-0.652,0.528-1.066
		c-0.006-0.345-0.005-0.713-0.187-1.019c-0.371-0.796-1.017-1.41-1.516-2.121c-0.088-0.142-0.213-0.273-0.236-0.446
		c-0.047-0.324,0.053-0.663,0.263-0.915c0.118-0.134,0.267-0.277,0.458-0.278c0.265-0.032,0.561-0.009,0.764,0.186
		c0.351,0.265,0.478,0.704,0.651,1.083l0.053-0.011c0.061-0.45,0.116-0.903,0.14-1.354
		C107.055,101.452,106.375,101.412,105.712,101.48 M126.217,101.495c-0.135,0.308-0.307,0.599-0.456,0.899
		c-0.804,1.551-1.601,3.106-2.436,4.641c-0.192,0.338-0.551,0.561-0.932,0.614c-0.009,0.087-0.016,0.174-0.019,0.261
		c0.543-0.008,1.089,0.004,1.633-0.012c0.004-0.084,0.011-0.169,0.021-0.252c-0.155,0.024-0.302-0.085-0.342-0.231
		c-0.058-0.185,0.064-0.353,0.143-0.509c0.161-0.267,0.274-0.563,0.449-0.817c0.687-0.004,1.375-0.004,2.062-0.006
		c0.061,0.443,0.13,0.89,0.099,1.338c-0.002,0.075-0.028,0.165-0.107,0.192c-0.133,0.046-0.275,0.005-0.412,0.018
		c-0.009,0.091-0.011,0.182-0.017,0.273c0.786,0.001,1.571,0.006,2.357-0.003c0.016-0.084,0.033-0.168,0.049-0.251
		c-0.181-0.068-0.441-0.051-0.54-0.251c-0.117-0.194-0.145-0.424-0.173-0.645c-0.069-0.559-0.131-1.118-0.228-1.672
		c-0.1-0.523-0.131-1.055-0.231-1.578c-0.127-0.667-0.182-1.345-0.303-2.012C126.628,101.486,126.422,101.482,126.217,101.495
		 M120.025,102.747c0.113,0.021,0.225,0.052,0.337,0.076c-0.029,0.106-0.107,0.197-0.184,0.276
		c-0.413,0.407-0.835,0.802-1.252,1.203c-0.136,0.134-0.267,0.277-0.435,0.372c0.104-0.537,0.151-1.085,0.283-1.616
		c0.031-0.095,0.066-0.228,0.183-0.243c0.136-0.026,0.273-0.047,0.411-0.065c0.014-0.09,0.031-0.18,0.048-0.27
		c-0.745,0.002-1.489,0.001-2.233,0.001c-0.001,0.097-0.001,0.192,0,0.289c0.155,0.024,0.312,0.037,0.466,0.076
		c0.033,0.364-0.094,0.716-0.12,1.076c-0.071,0.43-0.167,0.855-0.236,1.285c-0.067,0.589-0.224,1.163-0.301,1.751
		c-0.032,0.229-0.044,0.506-0.255,0.649c-0.136,0.039-0.279,0.016-0.418,0.031c-0.017,0.088-0.034,0.177-0.048,0.265
		c0.749,0.001,1.498,0.004,2.246,0c0.01-0.092,0.023-0.185,0.029-0.276c-0.151,0.002-0.305,0.019-0.454-0.02
		c-0.099-0.13-0.051-0.297-0.042-0.446c0.06-0.477,0.172-0.942,0.253-1.414c0.036-0.207,0.047-0.418,0.088-0.624
		c0.042,0.054,0.082,0.108,0.116,0.168c0.416,0.74,0.827,1.482,1.223,2.232c0.114,0.184,0.285,0.375,0.519,0.378
		c0.417,0.008,0.834,0.008,1.251-0.003c0.007-0.027,0.013-0.054,0.021-0.08c-0.182-0.096-0.399-0.139-0.541-0.299
		c-0.419-0.418-0.643-0.974-0.933-1.48c-0.25-0.468-0.519-0.929-0.746-1.405c0.584-0.582,1.103-1.229,1.736-1.759
		c0.125-0.085,0.28-0.1,0.424-0.127c0.025-0.096,0.034-0.194,0.047-0.292c-0.479-0.002-0.958,0.001-1.436,0.001
		C120.045,102.552,120.036,102.649,120.025,102.747 M130.012,102.769c0.176,0.023,0.353,0.05,0.529,0.074
		c-0.034,0.616-0.185,1.218-0.284,1.826c-0.077,0.643-0.245,1.271-0.322,1.914c-0.073,0.315-0.083,0.653-0.244,0.943
		c-0.128,0.173-0.37,0.079-0.551,0.105c-0.012,0.092-0.021,0.184-0.031,0.275c0.737,0.004,1.474,0.003,2.21,0.001
		c0.018-0.094,0.041-0.185,0.056-0.278c-0.125-0.014-0.252,0.001-0.375-0.024c-0.083-0.023-0.19-0.085-0.167-0.187
		c0.012-0.369,0.138-0.723,0.18-1.089c0.062-0.531,0.193-1.051,0.277-1.578c0.065-0.539,0.195-1.068,0.282-1.604
		c0.023-0.106,0.03-0.251,0.143-0.306c0.178-0.055,0.367-0.062,0.551-0.09c0.019-0.097,0.035-0.194,0.026-0.292
		c-0.723-0.003-1.446-0.006-2.17-0.001C130.06,102.548,130.044,102.667,130.012,102.769 M133.284,102.477
		c-0.024,0.096-0.047,0.19-0.068,0.288c0.175-0.002,0.354-0.013,0.526,0.034c0.017,0.621-0.2,1.211-0.271,1.821
		c-0.07,0.582-0.227,1.15-0.291,1.733c-0.094,0.392-0.101,0.809-0.272,1.178c-0.14,0.151-0.365,0.085-0.545,0.097
		c-0.023,0.092-0.036,0.187-0.051,0.28c0.744,0.002,1.486,0.002,2.229,0c0.028-0.084,0.011-0.185,0.026-0.275
		c-0.157-0.035-0.4,0.034-0.475-0.152c-0.062-0.229,0.01-0.467,0.046-0.694c0.083-0.43,0.15-0.861,0.216-1.295
		c0.155-0.003,0.311-0.015,0.466-0.003c0.166,0.301,0.274,0.628,0.402,0.946c0.167,0.378,0.245,0.792,0.452,1.151
		c0.129,0.167,0.311,0.324,0.534,0.322c0.438,0.004,0.875,0.006,1.312,0.006c0.02-0.088,0.027-0.178,0.037-0.266
		c-0.287-0.047-0.626-0.102-0.8-0.363c-0.24-0.468-0.451-0.951-0.64-1.442c-0.075-0.18-0.173-0.354-0.206-0.549
		c0.343-0.081,0.677-0.243,0.909-0.514c0.171-0.196,0.252-0.451,0.312-0.699c0.087-0.388,0.06-0.828-0.184-1.154
		c-0.267-0.329-0.707-0.448-1.114-0.454C134.985,102.474,134.134,102.469,133.284,102.477 M109.289,102.48
		c-0.026,0.098-0.052,0.193-0.076,0.291c0.171,0.034,0.347,0.04,0.515,0.086c0.004,0.024,0.011,0.073,0.014,0.099
		c-0.073,0.616-0.213,1.221-0.312,1.833c-0.075,0.633-0.245,1.249-0.317,1.882c-0.069,0.314-0.091,0.651-0.267,0.931
		c-0.168,0.033-0.34,0.026-0.51,0.027c-0.014,0.097-0.033,0.19-0.052,0.287c0.741,0.028,1.481,0.015,2.222,0.011
		c0.021-0.098,0.039-0.195,0.057-0.293c-0.141-0.006-0.286,0.009-0.424-0.021c-0.09-0.059-0.118-0.174-0.105-0.274
		c0.038-0.324,0.117-0.641,0.17-0.961c0.063-0.491,0.166-0.976,0.256-1.462c0.062-0.605,0.225-1.195,0.305-1.798
		c0.018-0.096,0.039-0.206,0.125-0.266c0.175-0.068,0.366-0.055,0.548-0.081c0.022-0.097,0.04-0.192,0.063-0.288
		C110.764,102.48,110.026,102.475,109.289,102.48 M112.56,102.486c-0.004,0.092-0.006,0.184,0.011,0.274
		c0.148,0.042,0.31,0.022,0.45,0.096c0.061,0.217-0.025,0.434-0.054,0.648c-0.063,0.572-0.206,1.134-0.292,1.704
		c-0.078,0.63-0.248,1.246-0.314,1.878c-0.032,0.165-0.055,0.348-0.175,0.477c-0.13,0.119-0.32,0.053-0.477,0.065
		c-0.017,0.099-0.037,0.198-0.051,0.298c0.699,0.008,1.398,0,2.097,0.005c0.594-0.034,1.19-0.026,1.785-0.022
		c0.101-0.383,0.16-0.775,0.284-1.151c-0.106-0.01-0.215-0.006-0.319,0.021c-0.094,0.111-0.131,0.258-0.215,0.377
		c-0.169,0.208-0.388,0.398-0.658,0.455c-0.278,0.038-0.559,0.016-0.838,0.018c-0.161,0-0.369-0.07-0.391-0.255
		c0.044-0.762,0.276-1.495,0.363-2.252c0.093-0.513,0.214-1.02,0.281-1.536c0.049-0.234,0.061-0.486,0.185-0.696
		c0.138-0.134,0.345-0.074,0.514-0.128c0.015-0.094,0.038-0.187,0.06-0.278C114.056,102.479,113.308,102.475,112.56,102.486z"/>
	<path id="path7" fill="#009484" d="M129.223,91.479c0.002,0.002,0.007,0.002,0.01,0.004
		C129.23,91.481,129.226,91.481,129.223,91.479z"/>
	<path id="path9" fill="#009484" d="M129.513,91.562c0.004,0.001,0.011,0.003,0.015,0.004
		C129.524,91.565,129.517,91.563,129.513,91.562z"/>
	<path id="path11" fill="#009484" d="M129.805,91.646c0.003,0.001,0.011,0.004,0.015,0.004
		C129.816,91.649,129.809,91.646,129.805,91.646z"/>
	<path id="path13" fill="#009484" d="M130.433,91.854c0.002,0.001,0.007,0.003,0.01,0.003
		C130.44,91.856,130.435,91.854,130.433,91.854z"/>
	<path id="path15" fill="#009484" d="M130.551,91.894c0.006,0.002,0.019,0.008,0.025,0.01
		C130.57,91.901,130.557,91.896,130.551,91.894z"/>
	<path id="path17" fill="#009484" d="M130.672,91.936c0.007,0.004,0.021,0.008,0.028,0.011
		C130.692,91.943,130.679,91.939,130.672,91.936z"/>
	<path id="path19" fill="#009484" d="M130.89,92.019c0.003,0,0.008,0.002,0.011,0.004C130.898,92.021,130.894,92.019,130.89,92.019z
		"/>
	<path id="path21" fill="#009484" d="M133.849,93.477c0.002,0.001,0.007,0.005,0.009,0.006
		C133.856,93.481,133.852,93.478,133.849,93.477z"/>
	<path id="path23" fill="#009484" d="M134.224,93.725c0.002,0.002,0.009,0.006,0.011,0.008
		C134.233,93.73,134.226,93.727,134.224,93.725z"/>
	<path id="path25" fill="#009484" d="M134.348,93.809c0.002,0.003,0.009,0.006,0.012,0.008
		C134.357,93.814,134.351,93.812,134.348,93.809z"/>
	<path id="path27" fill="#009484" d="M136.64,95.81c0.002,0.002,0.006,0.007,0.007,0.009
		C136.646,95.816,136.642,95.812,136.64,95.81z"/>
	<path id="path29" fill="#009484" d="M142.643,102.599c0.001,0.002,0.005,0.008,0.006,0.01
		C142.648,102.606,142.645,102.601,142.643,102.599z"/>
	<path id="path31" fill="#009484" d="M134.83,102.812c0.251-0.028,0.51-0.039,0.758,0.015c0.258,0.036,0.468,0.243,0.55,0.484
		c0.051,0.142,0.03,0.296,0.013,0.443c-0.047,0.331-0.121,0.662-0.269,0.964c-0.125,0.249-0.398,0.406-0.673,0.406
		c-0.254,0.003-0.507-0.001-0.761-0.001c0.037-0.21,0.089-0.418,0.109-0.631C134.622,103.928,134.785,103.379,134.83,102.812z"/>
	<path id="path33" fill="#009484" d="M125.939,102.981c0.022-0.03,0.03-0.083,0.071-0.096c0.071,0.692,0.162,1.382,0.2,2.077
		c0.026,0.231,0.048,0.463,0.073,0.694c-0.597,0.002-1.194,0.004-1.791-0.002C124.928,104.742,125.45,103.868,125.939,102.981z"/>
	<path id="path35" fill="#009484" d="M147.101,110.517c0.001,0.002,0.004,0.007,0.005,0.01
		C147.105,110.523,147.103,110.519,147.101,110.517z"/>
	<path id="path37" fill="#009484" d="M147.516,111.142c0.002,0.002,0.005,0.008,0.007,0.01
		C147.521,111.149,147.518,111.144,147.516,111.142z"/>
	<path id="path39" fill="#009484" d="M147.6,111.267c0.002,0.002,0.005,0.007,0.007,0.01
		C147.605,111.273,147.602,111.269,147.6,111.267z"/>
	<path id="path41" fill="#009484" d="M147.806,111.564c0.002,0.003,0.005,0.007,0.007,0.009
		C147.811,111.571,147.808,111.567,147.806,111.564z"/>
</g>
<g id="_x23_ffffffff">
	<path id="path44" fill="#FFFFFF" d="M128.666,91.375h0.232c0.105,0.043,0.217,0.07,0.326,0.104c0.002,0.002,0.007,0.002,0.01,0.004
		c0.093,0.026,0.187,0.053,0.28,0.079c0.004,0.001,0.011,0.003,0.015,0.004c0.092,0.024,0.185,0.051,0.277,0.079
		c0.003,0.001,0.011,0.004,0.015,0.004c0.207,0.057,0.41,0.13,0.612,0.204c0.002,0.001,0.007,0.003,0.01,0.003
		c0.027,0.01,0.081,0.028,0.108,0.037c0.006,0.002,0.019,0.008,0.025,0.01c0.024,0.008,0.072,0.024,0.096,0.032
		c0.007,0.004,0.021,0.008,0.028,0.011c0.064,0.021,0.126,0.046,0.19,0.072c0.003,0,0.008,0.002,0.011,0.004
		c1.03,0.382,2.015,0.877,2.948,1.454c0.002,0.001,0.007,0.005,0.009,0.006c0.123,0.08,0.245,0.159,0.365,0.242
		c0.002,0.002,0.009,0.006,0.011,0.008c0.028,0.019,0.085,0.058,0.113,0.076c0.002,0.003,0.009,0.006,0.012,0.008
		c0.556,0.405,1.113,0.814,1.618,1.285c0.234,0.224,0.444,0.47,0.663,0.708c0.002,0.002,0.006,0.007,0.007,0.009
		c0.468,0.555,0.921,1.127,1.455,1.62c0.525,0.454,1.125,0.86,1.814,1.01c0.73,0.137,1.493-0.053,2.214,0.162
		c0.577,0.272,1.048,0.72,1.474,1.187c-0.507-0.012-1.017-0.001-1.518,0.077c-0.528,0.047-1.066,0.175-1.51,0.478
		c0.387,0.374,0.794,0.728,1.157,1.125c0.322,0.357,0.654,0.712,0.911,1.122c0.001,0.002,0.005,0.008,0.006,0.01
		c1.569,2.588,2.811,5.362,4.452,7.908c0.001,0.002,0.004,0.007,0.005,0.01c0.132,0.207,0.269,0.412,0.41,0.615
		c0.002,0.002,0.005,0.008,0.007,0.01c0.02,0.028,0.058,0.086,0.077,0.115c0.002,0.002,0.005,0.007,0.007,0.01
		c0.066,0.096,0.133,0.191,0.199,0.288c0.002,0.003,0.005,0.007,0.007,0.009l0.051,0.052h-0.163
		c-1.238-0.396-2.316-1.156-3.331-1.948c-0.74-0.569-1.382-1.252-1.968-1.976c-1.513-1.874-2.605-4.052-4.165-5.891
		c-0.265-0.326-0.582-0.618-0.77-1.001c0.185,0.027,0.373,0.083,0.52,0.207c0.42,0.338,0.765,0.758,1.112,1.17
		c0.489,0.59,0.936,1.215,1.371,1.845c1.131,1.646,2.224,3.354,3.727,4.69c0.085,0.062,0.149,0.164,0.256,0.192
		c-0.003-0.053-0.035-0.094-0.067-0.132c-0.571-0.685-1.115-1.394-1.635-2.118c-0.671-0.926-1.277-1.897-1.898-2.856
		c-0.358-0.552-0.713-1.107-1.129-1.617c-0.412-0.515-0.879-0.985-1.399-1.391c-0.663-0.52-1.545-0.694-2.371-0.605
		c-0.852,0.098-1.68,0.359-2.46,0.708c-0.297-0.36-0.363-0.863-0.7-1.196c-0.51-0.518-1.21-0.76-1.812-1.142
		c-0.367-0.223-0.721-0.534-0.827-0.968c0.622,0.183,1.242,0.379,1.884,0.482c0.58,0.107,1.162,0.229,1.753,0.251
		c0.939,0.082,1.887,0.131,2.827,0.037c-0.66-0.599-1.288-1.231-1.895-1.882c-0.579-0.618-1.156-1.235-1.724-1.862
		c-0.542-0.584-1.125-1.14-1.792-1.582c-0.062-0.04-0.129-0.071-0.199-0.093c0.225,0.292,0.507,0.533,0.749,0.809
		c1.105,1.2,2.131,2.473,3.311,3.603c0.26,0.257,0.549,0.484,0.812,0.737c-0.368-0.034-0.662-0.277-0.96-0.472
		c-1.695-1.211-2.925-2.917-4.304-4.45C130.028,92.512,129.401,91.873,128.666,91.375z"/>
	<path id="path46" fill="#FFFFFF" d="M105.712,101.48c0.662-0.068,1.342-0.028,1.977,0.183c-0.024,0.451-0.079,0.904-0.14,1.354
		l-0.053,0.011c-0.173-0.379-0.3-0.818-0.651-1.083c-0.203-0.194-0.499-0.218-0.764-0.186c-0.19,0.001-0.34,0.145-0.458,0.278
		c-0.21,0.252-0.31,0.591-0.263,0.915c0.023,0.173,0.148,0.305,0.236,0.446c0.499,0.711,1.145,1.325,1.516,2.121
		c0.182,0.306,0.181,0.674,0.187,1.019c0.006,0.414-0.194,0.821-0.528,1.066c-0.339,0.262-0.773,0.331-1.185,0.398
		c-0.497,0.068-1.011,0.076-1.502-0.041c-0.274-0.064-0.559-0.109-0.812-0.239c0.098-0.477,0.176-0.957,0.235-1.44
		c0.063,0,0.126,0,0.189,0.009c0.026,0.253,0.023,0.519,0.133,0.754c0.098,0.207,0.217,0.42,0.417,0.544
		c0.277,0.16,0.621,0.17,0.921,0.073c0.368-0.091,0.6-0.442,0.715-0.781c0.064-0.307,0.082-0.653-0.091-0.93
		c-0.241-0.449-0.566-0.843-0.87-1.249c-0.292-0.387-0.6-0.772-0.785-1.225c-0.136-0.308-0.08-0.664,0.04-0.968
		C104.402,101.885,105.075,101.517,105.712,101.48z"/>
	<path id="path48" fill="#FFFFFF" d="M126.217,101.495c0.205-0.013,0.411-0.009,0.618-0.002c0.122,0.667,0.176,1.345,0.303,2.012
		c0.1,0.523,0.132,1.055,0.231,1.578c0.097,0.554,0.159,1.113,0.228,1.672c0.029,0.221,0.057,0.45,0.173,0.645
		c0.098,0.2,0.358,0.183,0.54,0.251c-0.016,0.083-0.033,0.167-0.049,0.251c-0.786,0.009-1.571,0.004-2.357,0.003
		c0.005-0.092,0.008-0.183,0.017-0.273c0.136-0.013,0.279,0.028,0.412-0.018c0.079-0.027,0.105-0.117,0.107-0.192
		c0.032-0.448-0.038-0.895-0.099-1.338c-0.687,0.002-1.375,0.002-2.062,0.006c-0.175,0.254-0.289,0.551-0.449,0.817
		c-0.078,0.156-0.201,0.324-0.143,0.509c0.04,0.146,0.187,0.256,0.342,0.231c-0.01,0.083-0.017,0.168-0.021,0.252
		c-0.544,0.016-1.09,0.004-1.633,0.012c0.003-0.087,0.01-0.174,0.019-0.261c0.381-0.054,0.74-0.276,0.932-0.614
		c0.835-1.534,1.632-3.09,2.436-4.641C125.911,102.094,126.082,101.803,126.217,101.495 M125.939,102.981
		c-0.489,0.887-1.011,1.761-1.447,2.674c0.597,0.006,1.194,0.004,1.791,0.002c-0.025-0.231-0.047-0.463-0.073-0.694
		c-0.038-0.695-0.128-1.385-0.2-2.077C125.969,102.898,125.961,102.951,125.939,102.981z"/>
	<path id="path50" fill="#FFFFFF" d="M120.025,102.747c0.01-0.098,0.02-0.195,0.048-0.289c0.479,0,0.957-0.003,1.436-0.001
		c-0.013,0.098-0.022,0.196-0.047,0.292c-0.144,0.027-0.298,0.042-0.424,0.127c-0.634,0.529-1.152,1.177-1.736,1.759
		c0.227,0.477,0.496,0.938,0.746,1.405c0.29,0.507,0.514,1.062,0.933,1.48c0.141,0.16,0.359,0.203,0.541,0.299
		c-0.008,0.026-0.014,0.053-0.021,0.08c-0.417,0.011-0.834,0.011-1.251,0.003c-0.234-0.003-0.404-0.194-0.519-0.378
		c-0.396-0.75-0.808-1.492-1.223-2.232c-0.034-0.06-0.073-0.114-0.116-0.168c-0.042,0.206-0.053,0.417-0.088,0.624
		c-0.082,0.472-0.193,0.938-0.253,1.414c-0.009,0.149-0.058,0.316,0.042,0.446c0.149,0.038,0.302,0.021,0.454,0.02
		c-0.006,0.092-0.02,0.185-0.029,0.276c-0.749,0.004-1.497,0.001-2.246,0c0.015-0.088,0.031-0.177,0.048-0.265
		c0.139-0.016,0.283,0.008,0.418-0.031c0.21-0.144,0.223-0.421,0.255-0.649c0.077-0.588,0.234-1.162,0.301-1.751
		c0.069-0.43,0.165-0.855,0.236-1.285c0.026-0.36,0.153-0.712,0.12-1.076c-0.153-0.039-0.311-0.052-0.466-0.076
		c-0.001-0.097-0.001-0.192,0-0.289c0.745,0,1.489,0.001,2.233-0.001c-0.017,0.09-0.034,0.18-0.048,0.27
		c-0.138,0.019-0.274,0.039-0.411,0.065c-0.117,0.016-0.152,0.148-0.183,0.243c-0.132,0.531-0.178,1.079-0.283,1.616
		c0.168-0.095,0.299-0.238,0.435-0.372c0.417-0.401,0.84-0.796,1.252-1.203c0.076-0.079,0.154-0.17,0.184-0.276
		C120.25,102.799,120.138,102.769,120.025,102.747z"/>
	<path id="path52" fill="#FFFFFF" d="M130.012,102.769c0.032-0.102,0.047-0.221,0.109-0.31c0.724-0.005,1.447-0.002,2.17,0.001
		c0.009,0.098-0.007,0.195-0.026,0.292c-0.184,0.028-0.373,0.035-0.551,0.09c-0.113,0.055-0.12,0.199-0.143,0.306
		c-0.086,0.536-0.216,1.065-0.282,1.604c-0.084,0.527-0.215,1.047-0.277,1.578c-0.042,0.366-0.167,0.72-0.18,1.089
		c-0.023,0.102,0.084,0.163,0.167,0.187c0.123,0.025,0.25,0.011,0.375,0.024c-0.015,0.094-0.038,0.185-0.056,0.278
		c-0.736,0.002-1.473,0.003-2.21-0.001c0.01-0.092,0.02-0.184,0.031-0.275c0.181-0.026,0.423,0.067,0.551-0.105
		c0.16-0.29,0.17-0.628,0.244-0.943c0.077-0.643,0.245-1.271,0.322-1.914c0.1-0.608,0.25-1.21,0.284-1.826
		C130.365,102.818,130.188,102.792,130.012,102.769z"/>
	<path id="path54" fill="#FFFFFF" d="M133.284,102.477c0.85-0.008,1.701-0.003,2.55-0.004c0.408,0.006,0.848,0.125,1.114,0.454
		c0.244,0.326,0.271,0.767,0.184,1.154c-0.06,0.248-0.14,0.503-0.312,0.699c-0.232,0.271-0.566,0.433-0.909,0.514
		c0.032,0.194,0.131,0.369,0.206,0.549c0.189,0.491,0.4,0.975,0.64,1.442c0.174,0.262,0.513,0.316,0.8,0.363
		c-0.01,0.088-0.017,0.178-0.037,0.266c-0.437,0-0.875-0.002-1.312-0.006c-0.223,0.002-0.405-0.155-0.534-0.322
		c-0.207-0.359-0.285-0.773-0.452-1.151c-0.127-0.318-0.236-0.646-0.402-0.946c-0.155-0.012-0.311,0-0.466,0.003
		c-0.066,0.434-0.133,0.865-0.216,1.295c-0.036,0.228-0.107,0.465-0.046,0.694c0.075,0.187,0.317,0.117,0.475,0.152
		c-0.015,0.091,0.002,0.191-0.026,0.275c-0.743,0.002-1.486,0.002-2.229,0c0.015-0.094,0.028-0.188,0.051-0.28
		c0.18-0.012,0.405,0.055,0.545-0.097c0.171-0.369,0.179-0.786,0.272-1.178c0.064-0.583,0.221-1.151,0.291-1.733
		c0.071-0.61,0.288-1.2,0.271-1.821c-0.171-0.047-0.351-0.036-0.526-0.034C133.237,102.667,133.26,102.572,133.284,102.477
		 M134.83,102.812c-0.045,0.567-0.208,1.116-0.272,1.681c-0.021,0.213-0.072,0.421-0.109,0.631c0.254,0,0.507,0.004,0.761,0.001
		c0.275,0,0.548-0.157,0.673-0.406c0.148-0.302,0.222-0.633,0.269-0.964c0.018-0.147,0.038-0.302-0.013-0.443
		c-0.082-0.241-0.292-0.448-0.55-0.484C135.339,102.772,135.081,102.783,134.83,102.812z"/>
	<path id="path56" fill="#FFFFFF" d="M109.289,102.48c0.737-0.006,1.475,0,2.212,0.002c-0.024,0.096-0.042,0.191-0.063,0.288
		c-0.183,0.026-0.374,0.013-0.548,0.081c-0.086,0.06-0.107,0.17-0.125,0.266c-0.08,0.603-0.242,1.192-0.305,1.798
		c-0.09,0.486-0.192,0.971-0.256,1.462c-0.053,0.32-0.132,0.637-0.17,0.961c-0.013,0.101,0.015,0.216,0.105,0.274
		c0.139,0.03,0.284,0.016,0.424,0.021c-0.018,0.098-0.035,0.195-0.057,0.293c-0.741,0.004-1.481,0.018-2.222-0.011
		c0.019-0.097,0.038-0.19,0.052-0.287c0.17-0.001,0.342,0.006,0.51-0.027c0.176-0.279,0.198-0.616,0.267-0.931
		c0.072-0.633,0.243-1.249,0.317-1.882c0.099-0.612,0.238-1.217,0.312-1.833c-0.003-0.025-0.01-0.074-0.014-0.099
		c-0.168-0.046-0.344-0.052-0.515-0.086C109.237,102.674,109.263,102.578,109.289,102.48z"/>
	<path id="path58" fill="#FFFFFF" d="M112.56,102.486c0.748-0.012,1.497-0.008,2.244-0.004c-0.022,0.092-0.045,0.185-0.06,0.278
		c-0.168,0.054-0.376-0.006-0.514,0.128c-0.125,0.21-0.136,0.462-0.185,0.696c-0.067,0.517-0.188,1.023-0.281,1.536
		c-0.087,0.757-0.319,1.49-0.363,2.252c0.022,0.185,0.23,0.255,0.391,0.255c0.279-0.002,0.56,0.021,0.838-0.018
		c0.271-0.057,0.489-0.247,0.658-0.455c0.084-0.119,0.122-0.266,0.215-0.377c0.104-0.026,0.212-0.03,0.319-0.021
		c-0.124,0.376-0.183,0.769-0.284,1.151c-0.595-0.004-1.191-0.012-1.785,0.022c-0.699-0.005-1.398,0.003-2.097-0.005
		c0.015-0.1,0.034-0.199,0.051-0.298c0.157-0.013,0.347,0.054,0.477-0.065c0.12-0.129,0.143-0.312,0.175-0.477
		c0.067-0.632,0.237-1.248,0.314-1.878c0.086-0.57,0.229-1.132,0.292-1.704c0.029-0.215,0.114-0.432,0.054-0.648
		c-0.14-0.073-0.301-0.054-0.45-0.096C112.554,102.67,112.555,102.578,112.56,102.486z"/>
</g>
<g id="_x23_00246aff">
	<path id="path61" fill="#00246A" d="M128.897,91.375H150.5v20.25h-2.636l-0.051-0.052c-0.002-0.002-0.005-0.006-0.007-0.009
		c-0.066-0.097-0.133-0.192-0.199-0.288c-0.001-0.003-0.005-0.008-0.007-0.01c-0.02-0.029-0.058-0.087-0.077-0.115
		c-0.002-0.002-0.005-0.008-0.007-0.01c-0.141-0.203-0.278-0.408-0.41-0.615c-0.001-0.003-0.004-0.008-0.005-0.01
		c-1.641-2.546-2.882-5.32-4.452-7.908c-0.001-0.002-0.005-0.008-0.006-0.01c-0.256-0.41-0.588-0.765-0.911-1.122
		c-0.363-0.397-0.771-0.751-1.157-1.125c0.444-0.303,0.982-0.431,1.51-0.478c0.501-0.078,1.011-0.089,1.518-0.077
		c-0.426-0.467-0.896-0.914-1.474-1.187c-0.721-0.215-1.484-0.025-2.214-0.162c-0.688-0.149-1.289-0.556-1.814-1.01
		c-0.533-0.493-0.987-1.065-1.455-1.62c-0.001-0.002-0.005-0.007-0.007-0.009c-0.219-0.238-0.429-0.484-0.663-0.708
		c-0.504-0.471-1.062-0.88-1.618-1.285c-0.003-0.002-0.009-0.005-0.012-0.008c-0.028-0.019-0.085-0.058-0.113-0.076
		c-0.002-0.002-0.009-0.006-0.011-0.008c-0.12-0.083-0.243-0.162-0.365-0.242c-0.002-0.001-0.007-0.005-0.009-0.006
		c-0.933-0.577-1.918-1.072-2.948-1.454c-0.003-0.002-0.008-0.004-0.011-0.004c-0.064-0.026-0.126-0.051-0.19-0.072
		c-0.007-0.003-0.021-0.007-0.028-0.011c-0.024-0.008-0.072-0.024-0.096-0.032c-0.006-0.002-0.019-0.008-0.025-0.01
		c-0.028-0.009-0.081-0.027-0.108-0.037c-0.002,0-0.008-0.002-0.01-0.003c-0.202-0.074-0.405-0.147-0.612-0.204
		c-0.004,0-0.012-0.003-0.015-0.004c-0.092-0.028-0.185-0.055-0.277-0.079c-0.004-0.001-0.011-0.003-0.015-0.004
		c-0.094-0.026-0.188-0.053-0.28-0.079c-0.002-0.002-0.007-0.002-0.01-0.004C129.115,91.445,129.003,91.418,128.897,91.375z"/>
</g>
</svg>
