<?xml version="1.0" encoding="utf-8"?>
<!-- Generator: Adobe Illustrator 16.2.1, SVG Export Plug-In . SVG Version: 6.00 Build 0)  -->
<!DOCTYPE svg PUBLIC "-//W3C//DTD SVG 1.1//EN" "http://www.w3.org/Graphics/SVG/1.1/DTD/svg11.dtd">
<svg version="1.1"
	 id="svg2" sodipodi:version="0.32" inkscape:output_extension="org.inkscape.output.svg.inkscape" sodipodi:docname="Air_Mauritius_Logo.svg" inkscape:version="0.46" xmlns:inkscape="http://www.inkscape.org/namespaces/inkscape" xmlns:cc="http://creativecommons.org/ns#" xmlns:rdf="http://www.w3.org/1999/02/22-rdf-syntax-ns#" xmlns:sodipodi="http://sodipodi.sourceforge.net/DTD/sodipodi-0.dtd" xmlns:svg="http://www.w3.org/2000/svg" xmlns:dc="http://purl.org/dc/elements/1.1/"
	 xmlns="http://www.w3.org/2000/svg" xmlns:xlink="http://www.w3.org/1999/xlink" x="0px" y="0px" width="50px" height="50px"
	 viewBox="125.5 60.5 50 50" enable-background="new 125.5 60.5 50 50" xml:space="preserve">
<defs>
	
	
		<inkscape:perspective  inkscape:vp_z="628.75 : 72.5 : 1" inkscape:vp_x="0 : 72.5 : 1" sodipodi:type="inkscape:persp3d" inkscape:vp_y="0 : 1000 : 0" id="perspective39" inkscape:persp3d-origin="314.375 : 48.333333 : 1">
		</inkscape:perspective>
</defs>
<sodipodi:namedview  id="base" objecttolerance="10.0" borderopacity="1.0" bordercolor="#666666" pagecolor="#ffffff" gridtolerance="10.0" guidetolerance="10.0" inkscape:cx="314.375" inkscape:zoom="0.86520875" inkscape:cy="72.5" showgrid="false" inkscape:pageopacity="0.0" inkscape:window-height="669" inkscape:window-y="95" inkscape:window-width="640" inkscape:pageshadow="2" inkscape:current-layer="svg2" inkscape:window-x="92">
	</sodipodi:namedview>
<g id="_x23_ffffffff">
</g>
<g id="_x23_c1012fff">
	<path id="path6" fill="#C1012F" d="M137.127,81.478c3.511-1.146,7.409-0.869,10.804,0.543c1.747,0.661,3.268,1.813,5.064,2.356
		c3.246,1.041,6.705,0.898,10.069,0.808c2.754-0.025,5.589,1.275,7.082,3.641c-1.084-0.539-2.22-1.095-3.465-1.068
		c-2.318-0.024-4.345,1.252-6.546,1.771c-1.555,0.43-3.182,0.407-4.778,0.35c-1.317-0.046-2.594-0.421-3.91-0.475
		c-2.042-0.139-4.068,0.227-6.101,0.378c-6.598,0.541-13.263,0.71-19.846-0.124c7.759-0.075,15.62-0.079,23.219-1.858
		c1.182-0.296,2.356-0.641,3.465-1.145c-2.472-0.591-4.719-1.814-6.839-3.184C142.938,81.889,139.994,81.174,137.127,81.478z"/>
	<path id="path8" fill="#C1012F" d="M167.014,81.913c2.879-0.427,6.019-0.105,8.486,1.539c-0.838-0.203-1.656-0.5-2.52-0.562
		c-2.522-0.23-5.043,0.537-7.238,1.739c-0.428,0.3-0.947,0.064-1.414,0.028c-1.645-0.272-3.314-0.062-4.969-0.058
		C161.757,83.34,164.347,82.405,167.014,81.913z"/>
</g>
</svg>
