<?xml version="1.0" encoding="utf-8"?>
<!-- Generator: Adobe Illustrator 16.2.1, SVG Export Plug-In . SVG Version: 6.00 Build 0)  -->
<!DOCTYPE svg PUBLIC "-//W3C//DTD SVG 1.1//EN" "http://www.w3.org/Graphics/SVG/1.1/DTD/svg11.dtd">
<svg version="1.1" id="Ebene_1" xmlns="http://www.w3.org/2000/svg" xmlns:xlink="http://www.w3.org/1999/xlink" x="0px" y="0px"
	 width="50px" height="50px" viewBox="219.661 177.375 50 50" enable-background="new 219.661 177.375 50 50" xml:space="preserve">
<path fill="#006699" d="M249.635,208.076c-0.333-1.999-1.333-3.996-2.914-5.911c-1.5-1.83-3.249-2.831-5.08-2.914l-2.247,0.084
	l-1.833,0.582c-3.748,1.584-7.827,4.829-11.989,9.574c-3.997,4.081-5.912,6.826-5.912,8.16c6.745-8.658,12.406-13.571,17.068-14.82
	l1.915-0.25l1.414,0.085c3.415,0.415,5.413,2.665,5.912,6.575c0.416,5.247,1.082,7.911,1.667,7.911c0.665,0,3.08-2.831,7.159-8.327
	c2.581-3.663,4.911-5.411,7.326-5.328l1.583,0.418l0.915,0.416c2.583,1.747,3.663,5.826,3.165,12.071c0,1.249,0.25,1.83,0.749,1.665
	c0.333-0.083,0.668-1.998,1.001-5.661c0.664-8.326-1.251-12.239-5.829-11.906l-1.916,0.335l-1.082,0.331
	c-3.914,2.081-7.161,4.662-9.575,7.659C250.382,209.241,249.966,208.991,249.635,208.076z"/>
<path fill="#009999" d="M263.705,203.915l-1.583-0.418c0.333,3.663,0.333,8.075,0.084,13.32c0,0.749,0.249,0.917,0.666,0.834
	l0.249-1.75C263.454,211.407,263.705,207.41,263.705,203.915z"/>
<path fill="#009999" d="M263.705,200.5c-0.25-9.74-2.083-14.904-5.494-15.32c-5.08-0.664-9.99,2.331-14.739,9.076l-4.077,5.078
	l2.247-0.083c5.411-5.744,9.74-8.491,13.155-8.41c3.663,0.168,5.994,3.498,6.993,9.99L263.705,200.5z"/>
<path fill="#009999" d="M238.645,202.581l-1.915,0.25c-6.744,8.741-9.741,13.405-8.992,13.986
	C231.733,211.156,235.397,206.411,238.645,202.581z"/>
</svg>
