<?xml version="1.0" encoding="utf-8"?>
<!-- Generator: Adobe Illustrator 16.2.1, SVG Export Plug-In . SVG Version: 6.00 Build 0)  -->
<!DOCTYPE svg PUBLIC "-//W3C//DTD SVG 1.1//EN" "http://www.w3.org/Graphics/SVG/1.1/DTD/svg11.dtd">
<svg version="1.1"
	 id="svg2" xmlns:dc="http://purl.org/dc/elements/1.1/" xmlns:cc="http://creativecommons.org/ns#" xmlns:rdf="http://www.w3.org/1999/02/22-rdf-syntax-ns#" xmlns:sodipodi="http://sodipodi.sourceforge.net/DTD/sodipodi-0.dtd" xmlns:inkscape="http://www.inkscape.org/namespaces/inkscape" sodipodi:docname="peach logo.svg" inkscape:version="0.48.1 " xmlns:svg="http://www.w3.org/2000/svg"
	 xmlns="http://www.w3.org/2000/svg" xmlns:xlink="http://www.w3.org/1999/xlink" x="0px" y="0px" width="50px" height="50px"
	 viewBox="200.5 93.757 50 50" enable-background="new 200.5 93.757 50 50" xml:space="preserve">
<sodipodi:namedview  pagecolor="#ffffff" showgrid="false" inkscape:cy="67.124415" inkscape:cx="299.11256" inkscape:zoom="1" borderopacity="1.0" bordercolor="#666666" fit-margin-top="0" fit-margin-left="0" id="base" inkscape:window-x="-8" inkscape:pageshadow="2" inkscape:window-width="1024" fit-margin-right="0" inkscape:current-layer="layer2" inkscape:window-height="715" inkscape:document-units="px" inkscape:pageopacity="0.0" inkscape:window-maximized="1" inkscape:window-y="-8" fit-margin-bottom="0">
	</sodipodi:namedview>
<g id="layer2" transform="translate(-69.850867,-774.29337)" inkscape:label="1" inkscape:groupmode="layer">
	<g id="g4414" transform="matrix(0.86397753,0,0,0.86397753,9.5012873,126.61083)">
		<path id="rect3884-5-6-0" inkscape:connector-curvature="0" sodipodi:nodetypes="cccccccsccsccccs" fill="#C240BF" d="
			M348.998,878.047v9.131v5.319h2.538c0.049-3.341-0.008-6.785,0-9.828v-4.622H348.998z M354.395,881.857
			c-0.755,0-1.473,0.156-2.126,0.432v2.969c0.525-0.58,1.283-0.945,2.126-0.945c1.508,0,2.743,1.165,2.856,2.644v5.541h2.538
			c0-1.772,0-3.55,0-5.319C359.789,884.24,357.375,881.857,354.395,881.857z"/>
		<path id="path3769-6-8-5" inkscape:connector-curvature="0" sodipodi:nodetypes="sssccsccsssccs" fill="#C240BF" d="
			M320.52,881.857c-2.98,0-5.397,2.384-5.397,5.321c0,2.94,2.417,5.319,5.397,5.319c2.322,0,4.299-1.443,5.059-3.472h-2.869
			c-0.526,0.624-1.311,1.02-2.191,1.02c-1.188,0-2.206-0.723-2.641-1.753h7.916c0.077-0.358,0.119-0.732,0.119-1.113
			C325.914,884.24,323.5,881.857,320.52,881.857L320.52,881.857z M320.52,884.313c1.063,0,1.989,0.581,2.484,1.441h-4.969
			C318.53,884.894,319.457,884.313,320.52,884.313L320.52,884.313z"/>
		<path id="path3769-6-9-3" inkscape:connector-curvature="0" sodipodi:nodetypes="sssccsssccccs" fill="#C240BF" d="
			M331.823,881.857c-2.98,0-5.397,2.384-5.397,5.321c0,2.94,2.417,5.319,5.397,5.319c0.755,0,1.473-0.151,2.126-0.428v-2.966
			c-0.525,0.58-1.283,0.942-2.126,0.942c-1.582,0-2.866-1.283-2.866-2.867c0-1.581,1.283-2.865,2.866-2.865
			c1.503,0,2.736,1.159,2.856,2.631v5.553h2.537v-5.372C337.188,884.211,334.785,881.857,331.823,881.857z"/>
		<path id="path3769-6-2-5" inkscape:connector-curvature="0" fill="#C240BF" d="M343.104,881.857c-2.98,0-5.397,2.384-5.397,5.321
			c0,2.94,2.417,5.319,5.397,5.319c2.341,0,4.335-1.467,5.081-3.521h-2.846c-0.526,0.652-1.332,1.068-2.235,1.068
			c-1.583,0-2.866-1.283-2.866-2.867c0-1.581,1.283-2.865,2.866-2.865c0.904,0,1.709,0.419,2.235,1.072h2.846
			C347.439,883.329,345.445,881.857,343.104,881.857z"/>
		
			<path id="path3769-6-95-7" inkscape:connector-curvature="0" sodipodi:nodetypes="sccsssccssscccccccccccccccc" fill="#C240BF" d="
			M309.264,881.857c-1.476,0-2.813,0.587-3.788,1.535c0.601,0.688,1.041,1.518,1.263,2.43c0.484-0.898,1.433-1.509,2.525-1.509
			c1.582,0,2.865,1.284,2.865,2.865c0,1.584-1.283,2.867-2.865,2.867c-0.848,0-1.61-0.369-2.135-0.953v2.977
			c0.654,0.278,1.377,0.428,2.135,0.428c2.98,0,5.394-2.379,5.394-5.319C314.658,884.24,312.244,881.857,309.264,881.857z
			 M301.917,881.935v2.525c0.7,0.234,1.277,0.728,1.619,1.37c0.222-0.917,0.663-1.749,1.265-2.438
			C303.909,882.583,302.963,882.118,301.917,881.935L301.917,881.935z M305.136,883.751c-0.76,0.888-1.229,2.027-1.266,3.272
			c0,0.001,0,0.001,0,0.002l-0.003,0.388c0,2.916,0,5.834,0,8.75h2.538c0-2.97,0-5.942,0-8.912c0.001-0.076-0.002-0.156-0.003-0.225
			C306.366,885.779,305.896,884.641,305.136,883.751L305.136,883.751z"/>
	</g>
</g>
</svg>
