<?xml version="1.0" encoding="utf-8"?>
<!-- Generator: Adobe Illustrator 16.2.1, SVG Export Plug-In . SVG Version: 6.00 Build 0)  -->
<!DOCTYPE svg PUBLIC "-//W3C//DTD SVG 1.1//EN" "http://www.w3.org/Graphics/SVG/1.1/DTD/svg11.dtd">
<svg version="1.1" id="svg2367" xmlns:svg="http://www.w3.org/2000/svg"
	 xmlns="http://www.w3.org/2000/svg" xmlns:xlink="http://www.w3.org/1999/xlink" x="0px" y="0px" width="50px" height="50px"
	 viewBox="393.414 106.031 50 50" enable-background="new 393.414 106.031 50 50" xml:space="preserve">
<path fill="#00265D" d="M443.414,113.948c-12.543-9.623-29.273-9.663-42.254-4.441c-2.932,3.048-5.192,6.723-6.489,10.773
	C412.277,106.054,435.545,110.125,443.414,113.948z"/>
<path fill="#00265D" d="M424.822,119.162c1.164-0.834,2.124-1.541,3.078-2.1c1.418,1.605,3.494,2.177,4.818,1.252
	c0.835-0.579,1.139-1.639,0.961-2.793c0.783,0.114,1.555,0.344,2.463,0.693c0.451,0.145,0.996-1.659,0.29-1.72
	C428.899,113.463,424.72,119.257,424.822,119.162z M432.198,117.723c-0.996,0.767-2.656,0.289-3.823-0.936
	c1.569-0.929,2.904-1.366,4.34-1.346C433.008,116.323,432.753,117.298,432.198,117.723z"/>
<path fill="#00265D" d="M431.041,112.763c-14.431-2.88-28.173,2.981-37.356,11.877c-0.437,2.961-0.339,5.979,0.231,8.903
	C404.209,117.938,423.141,112.78,431.041,112.763z"/>
<path fill="#00265D" d="M425.3,115.102c-14.158,2.089-24.7,11.698-30.162,22.728c0.901,2.389,2.167,4.637,3.69,6.676
	C403.566,127.938,418.252,117.635,425.3,115.102z"/>
<path fill="#00265D" d="M423.141,117.77c-11.947,6.325-19.421,18.512-21.304,30.17c1.765,1.692,3.729,3.193,5.905,4.418
	c0.308-13.189,7.226-23.643,14.193-30.376C421.858,120.445,422.264,119.001,423.141,117.77z"/>
<path fill="#00265D" d="M424.346,127.719c-1.111-1.387-1.799-2.77-2.159-4.115c-6.513,7.685-10.105,20.215-10.186,30.766
	c2.16,0.795,4.438,1.354,6.792,1.662c-1.705-24.723,13.977-36.351,24.043-39.998C435.451,117.844,429.5,121.935,424.346,127.719z"/>
</svg>
