<?xml version="1.0" encoding="utf-8"?>
<!-- Generator: Adobe Illustrator 16.2.1, SVG Export Plug-In . SVG Version: 6.00 Build 0)  -->
<!DOCTYPE svg PUBLIC "-//W3C//DTD SVG 1.1//EN" "http://www.w3.org/Graphics/SVG/1.1/DTD/svg11.dtd">
<svg version="1.1" id="svg2367" xmlns:svg="http://www.w3.org/2000/svg"
	 xmlns="http://www.w3.org/2000/svg" xmlns:xlink="http://www.w3.org/1999/xlink" x="0px" y="0px" width="50px" height="50px"
	 viewBox="393.414 106.031 50 50" enable-background="new 393.414 106.031 50 50" xml:space="preserve">
<g id="g7914" transform="translate(509.4393,493.6272)">
	<path id="path7916" fill="#FFFFFF" d="M-66.026-362.596c0,13.805-11.193,24.996-24.999,24.996c-13.808,0-25-11.191-25-24.996
		c0-13.807,11.192-24.998,25-24.998C-77.219-387.594-66.026-376.402-66.026-362.596"/>
</g>
<g id="g7918" transform="translate(501.8442,493.6269)">
	<path id="path7920" fill="#DB262B" d="M-78.372-362.595h19.939c0-4.621-1.195-8.731-2.882-11.687
		c-0.858-1.503-5.152-7.792-6.626-7.792h-2.453c-9.456,0-18.714,8.968-18.714,18.252l27.444-9.841
		c-0.239,0.364-7.725,4.489-8.834,5.136c-1.511,0.884-2.916,1.587-4.408,2.495C-76.296-365.18-78.372-364.754-78.372-362.595"/>
</g>
<g id="g7926" transform="translate(490.3937,493.6269)">
	<path id="path7928" fill="#DB262B" d="M-96.98-362.595h7.361l-2.764-4.906l5.059,1.243l9.042-16.282l21.332,0.006
		c-0.561-0.766-5.115-3.114-6.306-3.51c-2.413-0.795-4.943-1.551-8.109-1.551h-1.383C-85.823-387.595-96.98-375.944-96.98-362.595"
		/>
</g>
<g id="g7930" transform="translate(509.4392,493.6269)">
	<path id="path7932" fill="#2F2483" d="M-66.028-362.595h-19.939c0.046,1.994,2.143,2.686,3.583,3.477
		c1.495,0.818,2.916,1.758,4.395,2.501c1.327,0.67,8.098,4.374,8.893,5.064l-27.568-9.766c-0.039,9.094,9.127,18.2,18.214,18.2
		h2.914c1.423,0,5.892-6.339,6.699-7.871C-67.166-354.159-66.028-357.809-66.028-362.595"/>
</g>
<g id="g7934" transform="translate(493.1978,493.6269)">
	<path id="path7936" fill="#2F2483" d="M-92.422-362.595h-7.362c0,13.457,11.142,24.998,24.386,24.998h0.459
		c3.43,0,6.164-0.595,8.625-1.496c1.754-0.647,5.55-2.29,6.404-3.562h-21.165L-92.422-362.595z"/>
</g>
</svg>
