<?xml version="1.0" encoding="utf-8"?>
<!-- Generator: Adobe Illustrator 16.2.1, SVG Export Plug-In . SVG Version: 6.00 Build 0)  -->
<!DOCTYPE svg PUBLIC "-//W3C//DTD SVG 1.1//EN" "http://www.w3.org/Graphics/SVG/1.1/DTD/svg11.dtd">
<svg version="1.1"
	 id="svg2918" xmlns:svg="http://www.w3.org/2000/svg" xmlns:rdf="http://www.w3.org/1999/02/22-rdf-syntax-ns#" xmlns:cc="http://creativecommons.org/ns#" xmlns:dc="http://purl.org/dc/elements/1.1/" xmlns:sodipodi="http://sodipodi.sourceforge.net/DTD/sodipodi-0.dtd" xmlns:inkscape="http://www.inkscape.org/namespaces/inkscape" inkscape:output_extension="org.inkscape.output.svg.inkscape" inkscape:version="0.46" sodipodi:docname="Cobham plc logo.svg" sodipodi:version="0.32"
	 xmlns="http://www.w3.org/2000/svg" xmlns:xlink="http://www.w3.org/1999/xlink" x="0px" y="0px" width="50px" height="50px"
	 viewBox="53 28 50 50" enable-background="new 53 28 50 50" xml:space="preserve">
<defs>
	
	
		<inkscape:perspective  id="perspective2926" inkscape:vp_z="744.09448 : 526.18109 : 1" inkscape:vp_x="0 : 526.18109 : 1" inkscape:vp_y="0 : 1000 : 0" sodipodi:type="inkscape:persp3d" inkscape:persp3d-origin="372.04724 : 350.78739 : 1">
		</inkscape:perspective>
</defs>
<sodipodi:namedview  id="base" inkscape:document-units="px" borderopacity="1.0" inkscape:cx="100.80464" inkscape:cy="-20.024544" objecttolerance="10" gridtolerance="10000" showgrid="false" inkscape:zoom="3.959798" bordercolor="#666666" guidetolerance="10" pagecolor="#ffffff" inkscape:window-width="1302" inkscape:window-x="-8" inkscape:pageopacity="0.0" inkscape:pageshadow="2" inkscape:window-y="-8" inkscape:current-layer="layer1" inkscape:window-height="838">
	</sodipodi:namedview>
<path id="path2696" fill="#009EE0" d="M81.488,50.207c0.224,0,0.471-0.182,0.552-0.404l0.295-0.811
	c0.271-0.745,1.095-1.351,1.84-1.351h0.81l-1.916,5.264h-2.159l0.639-1.754h-2.563c-0.224,0-0.471,0.182-0.552,0.405l-0.492,1.349
	h-2.159l1.424-3.913c0.271-0.745,1.096-1.351,1.841-1.351h0.809l-0.933,2.565H81.488z"/>
<path id="path2664" fill="#009EE0" d="M55.503,51.961c-0.224,0-0.339-0.182-0.258-0.404l0.934-2.564
	c0.082-0.223,0.329-0.404,0.553-0.404h4.041c0.027-0.547-0.34-0.946-0.944-0.946H55.86c-0.746,0-1.569,0.605-1.841,1.351
	l-0.933,2.564c-0.271,0.745,0.113,1.349,0.859,1.349h3.967c0.604,0,1.26-0.397,1.631-0.944H55.503z"/>
<path id="path2676" fill="#009EE0" d="M64.881,51.961c0.224,0,0.471-0.182,0.552-0.404l0.933-2.564
	c0.082-0.223-0.034-0.404-0.257-0.404H63.95c-0.224,0-0.471,0.182-0.553,0.404l-1.075,2.969H64.881z M61.164,52.905
	c-0.746,0-1.13-0.604-0.858-1.349l0.934-2.564c0.27-0.745,1.094-1.351,1.839-1.351h4.589c0.745,0,1.129,0.605,0.857,1.351
	l-0.933,2.564c-0.271,0.745-1.096,1.349-1.841,1.349H61.164z"/>
<path id="path2680" fill="#009EE0" d="M89.629,50.207c0.224,0,0.471-0.182,0.552-0.404l0.294-0.811
	c0.082-0.223-0.033-0.404-0.257-0.404h-2.158c-0.224,0-0.471,0.182-0.553,0.404l-0.442,1.215H89.629z M87.127,51.151
	c-0.224,0-0.47,0.182-0.553,0.405l-0.491,1.349h-2.159l1.424-3.913c0.271-0.745,1.095-1.351,1.84-1.351h4.588
	c0.745,0,1.129,0.605,0.858,1.351l-1.425,3.913h-2.158l0.638-1.754H87.127z"/>
<path id="path2684" fill="#009EE0" d="M70.381,51.961l0.295-0.81c0.081-0.224,0.329-0.404,0.552-0.404h2.16
	c0.223,0,0.338,0.181,0.257,0.404l-0.148,0.405c-0.081,0.223-0.328,0.404-0.551,0.404H70.381z M71.167,49.802l0.294-0.81
	c0.082-0.223,0.329-0.404,0.553-0.404h2.159c0.224,0,0.339,0.182,0.257,0.404l-0.147,0.405c-0.082,0.224-0.329,0.404-0.552,0.404
	H71.167z M76.554,49.088l0.036-0.096c0.271-0.745-0.114-1.351-0.859-1.351h-4.588c-0.745,0-1.569,0.605-1.84,1.351l-1.425,3.913
	h5.937c0.746,0,1.569-0.604,1.841-1.349l0.034-0.093c0.187-0.514,0.063-0.96-0.276-1.188C75.918,50.048,76.367,49.602,76.554,49.088
	"/>
<path id="path2700" fill="#009EE0" d="M99.571,47.642c-0.368,0-0.755,0.147-1.085,0.387c-0.156-0.239-0.436-0.387-0.804-0.387
	h-2.366c-0.745,0-1.57,0.605-1.841,1.351l-1.424,3.913h2.159l1.423-3.913c0.082-0.223,0.329-0.404,0.553-0.404h0.675
	c0.223,0,0.338,0.182,0.257,0.404l-1.432,3.913h2.159l1.431-3.913c0.082-0.223,0.329-0.404,0.553-0.404h0.675
	c0.223,0,0.338,0.182,0.257,0.404l-1.432,3.913h2.159l1.424-3.913c0.271-0.745-0.112-1.351-0.857-1.351H99.571z"/>
</svg>
