<?xml version="1.0" encoding="utf-8"?>
<!-- Generator: Adobe Illustrator 16.2.1, SVG Export Plug-In . SVG Version: 6.00 Build 0)  -->
<!DOCTYPE svg PUBLIC "-//W3C//DTD SVG 1.1//EN" "http://www.w3.org/Graphics/SVG/1.1/DTD/svg11.dtd">
<svg version="1.1" id="Layer_1" xmlns="http://www.w3.org/2000/svg" xmlns:xlink="http://www.w3.org/1999/xlink" x="0px" y="0px"
	 width="50px" height="50px" viewBox="213 108 50 50" enable-background="new 213 108 50 50" xml:space="preserve">
<g id="_x23_fcfefcff">
</g>
<g id="_x23_04438aff">
	<path fill="#04438A" d="M238.437,126.388c0.13-0.665,0.28-1.325,0.423-1.988c1.089,0.002,2.176,0.003,3.266,0
		c-0.141,0.652-0.286,1.306-0.408,1.964C240.626,126.414,239.53,126.372,238.437,126.388z"/>
	<path fill="#04438A" d="M251.658,126.349c0.127-0.651,0.279-1.297,0.416-1.947c1.089-0.003,2.178,0.003,3.267-0.003
		c-0.143,0.661-0.282,1.325-0.422,1.987C253.832,126.364,252.741,126.432,251.658,126.349z"/>
	<path fill="#04438A" d="M258.141,124.675c1.086,0.004,2.175,0.002,3.262,0.002c-0.184,0.879-0.362,1.759-0.558,2.636
		c0.718,0,1.436,0.004,2.155-0.002c-0.16,0.72-0.302,1.443-0.465,2.163c-0.715-0.004-1.43,0-2.144,0
		c-0.247,1.166-0.503,2.33-0.746,3.496c-0.061,0.229-0.054,0.57,0.232,0.636c0.604,0.129,1.23,0.043,1.842,0.023
		c-0.159,0.677-0.271,1.364-0.452,2.035c-1.009,0.179-2.044,0.182-3.067,0.16c-0.598-0.045-1.276-0.111-1.716-0.567
		c-0.406-0.436-0.339-1.085-0.251-1.627c0.297-1.385,0.592-2.772,0.882-4.16c-0.567,0.004-1.134-0.004-1.701,0.009
		c0.148-0.724,0.316-1.442,0.453-2.168c0.568,0.005,1.136-0.002,1.704,0.006C257.766,126.437,257.945,125.555,258.141,124.675z"/>
	<path fill="#04438A" d="M216.96,127.232c1.303-0.293,2.651-0.276,3.978-0.209c1.011,0.109,2.126,0.282,2.874,1.04
		c0.448,0.432,0.539,1.086,0.483,1.678c-1.216,0.006-2.431,0.002-3.647,0.003c-0.017-0.289-0.148-0.583-0.436-0.689
		c-0.625-0.25-1.333-0.236-1.985-0.111c-0.409,0.073-0.814,0.381-0.833,0.824c0.112,0.305,0.47,0.37,0.751,0.423
		c0.831,0.11,1.665,0.187,2.497,0.288c0.847,0.092,1.734,0.171,2.491,0.597c0.475,0.259,0.806,0.763,0.824,1.31
		c0.016,0.818-0.306,1.647-0.9,2.216c-0.655,0.624-1.531,0.945-2.399,1.138c-0.926,0.211-1.881,0.227-2.826,0.26
		c-1.38-0.065-2.879-0.092-4.054-0.917c-0.649-0.447-0.874-1.286-0.74-2.035c1.261-0.004,2.521-0.001,3.781-0.002
		c0.048,0.233,0.057,0.523,0.28,0.668c0.379,0.269,0.867,0.285,1.313,0.297c0.49,0.001,1.017-0.01,1.445-0.281
		c0.235-0.156,0.418-0.473,0.302-0.755c-0.143-0.229-0.443-0.266-0.686-0.312c-0.969-0.131-1.94-0.241-2.911-0.36
		c-0.697-0.086-1.424-0.199-2.017-0.602c-0.408-0.273-0.644-0.763-0.618-1.25c0.039-0.738,0.316-1.472,0.804-2.03
		C215.308,127.777,216.134,127.425,216.96,127.232z"/>
	<path fill="#04438A" d="M228.89,128.426c0.874-0.8,2.029-1.283,3.216-1.321c1.085-0.043,2.243,0.127,3.139,0.787
		c0.659,0.483,1.059,1.263,1.146,2.069c0.161,1.636-0.482,3.332-1.69,4.448c-1.038,0.977-2.449,1.516-3.867,1.571
		c-1.143,0.053-2.453-0.148-3.222-1.087c-0.249,1.258-0.535,2.508-0.796,3.763c-1.09,0-2.181,0-3.272,0
		c0.812-3.78,1.612-7.563,2.416-11.346c1.061,0.003,2.121,0.007,3.182-0.002C229.058,127.683,228.978,128.056,228.89,128.426
		 M230.401,129.451c-0.8,0.142-1.535,0.671-1.859,1.426c-0.258,0.606-0.404,1.345-0.082,1.955c0.251,0.477,0.796,0.69,1.303,0.751
		c0.751,0.077,1.562-0.026,2.192-0.469c0.717-0.514,1.06-1.418,1.06-2.277c0-0.464-0.222-0.933-0.632-1.164
		C231.784,129.34,231.059,129.345,230.401,129.451z"/>
	<path fill="#04438A" d="M236.471,135.65c0.581-2.783,1.174-5.563,1.775-8.342c1.086,0.01,2.174,0.005,3.262,0.002
		c-0.592,2.78-1.178,5.562-1.775,8.342C238.646,135.645,237.558,135.648,236.471,135.65z"/>
	<path fill="#04438A" d="M241.054,135.645c0.605-2.776,1.187-5.557,1.776-8.335c1.065,0.007,2.129,0.004,3.193,0.001
		c-0.612,2.776-1.188,5.559-1.78,8.339C243.18,135.645,242.117,135.652,241.054,135.645z"/>
	<path fill="#04438A" d="M249.679,135.648c0.597-2.779,1.179-5.562,1.78-8.34c1.088,0.009,2.175,0.004,3.265,0.003
		c-0.589,2.778-1.188,5.554-1.767,8.334C251.865,135.648,250.772,135.647,249.679,135.648z"/>
	<path fill="#04438A" d="M238.945,137.379c0.143,0.001,0.285,0.003,0.429,0.006c-0.287,1.37-0.585,2.739-0.871,4.111
		c-0.147,0.003-0.293,0.007-0.438,0.011C238.349,140.128,238.64,138.752,238.945,137.379z"/>
	<path fill="#04438A" d="M240.675,137.379c0.146,0.001,0.291,0.003,0.438,0.004c-0.046,0.213-0.094,0.426-0.143,0.637
		c-0.143,0.003-0.284,0.007-0.426,0.011C240.583,137.812,240.626,137.595,240.675,137.379z"/>
	<path fill="#04438A" d="M234.486,138.025c0.045-0.213,0.088-0.426,0.129-0.639c0.148-0.004,0.295-0.008,0.442-0.012
		c-0.046,0.217-0.094,0.434-0.141,0.649C234.772,138.024,234.629,138.024,234.486,138.025z"/>
	<path fill="#04438A" d="M230.775,138.633c0.468-0.236,1.014-0.211,1.521-0.167c0.322,0.032,0.722,0.232,0.704,0.609
		c-0.07,0.709-0.332,1.39-0.377,2.104c0.11,0.004,0.328,0.015,0.437,0.021c-0.048,0.107-0.096,0.215-0.145,0.323
		c-0.19,0.002-0.381,0.004-0.571,0.006c-0.068-0.149-0.112-0.309-0.144-0.469c-0.444,0.471-1.135,0.591-1.754,0.513
		c-0.304-0.04-0.639-0.219-0.701-0.546c-0.074-0.442,0.204-0.894,0.613-1.063c0.681-0.302,1.462-0.114,2.154-0.375
		c0.042-0.229,0.146-0.561-0.128-0.687c-0.383-0.147-0.82-0.112-1.219-0.049c-0.322,0.054-0.507,0.332-0.643,0.602
		c-0.131-0.007-0.264-0.014-0.396-0.021C230.28,139.126,230.449,138.79,230.775,138.633 M230.832,140.171
		c-0.295,0.042-0.618,0.235-0.642,0.562c-0.073,0.279,0.201,0.488,0.45,0.516c0.51,0.074,1.072-0.062,1.448-0.429
		c0.243-0.228,0.275-0.579,0.362-0.883C231.923,140.092,231.37,140.082,230.832,140.171z"/>
	<path fill="#04438A" d="M236.899,138.556c0.269-0.132,0.575-0.116,0.867-0.114c-0.036,0.146-0.07,0.294-0.105,0.441
		c-0.605-0.12-1.285,0.16-1.515,0.757c-0.213,0.603-0.288,1.245-0.437,1.865c-0.145-0.002-0.29-0.006-0.434-0.009
		c0.211-0.986,0.416-1.975,0.625-2.961c0.149-0.003,0.3-0.005,0.45-0.007c-0.051,0.216-0.102,0.432-0.155,0.648
		C236.405,138.943,236.6,138.675,236.899,138.556z"/>
	<path fill="#04438A" d="M242.366,139.066c0.309-0.33,0.713-0.592,1.175-0.62c0.386-0.022,0.857-0.026,1.124,0.305
		c0.221,0.289,0.156,0.673,0.088,1.003c-0.132,0.589-0.245,1.183-0.384,1.77c-0.105-0.001-0.316-0.004-0.421-0.005
		c0.124-0.688,0.307-1.362,0.424-2.051c0.057-0.245-0.063-0.518-0.309-0.603c-0.653-0.198-1.502,0.031-1.764,0.717
		c-0.215,0.629-0.287,1.299-0.456,1.94c-0.105-0.001-0.315-0.003-0.419-0.004c0.199-0.998,0.417-1.994,0.625-2.99
		c0.151,0.002,0.301,0.003,0.453,0.006C242.455,138.71,242.411,138.889,242.366,139.066z"/>
	<path fill="#04438A" d="M245.631,139.611c0.277-0.677,0.967-1.165,1.703-1.172c0.477-0.027,1.034,0.063,1.325,0.486
		c0.25,0.349,0.179,0.8,0.151,1.201c-0.973,0.004-1.946-0.004-2.92,0.004c-0.021,0.36,0.046,0.787,0.403,0.969
		c0.651,0.321,1.55,0.098,1.913-0.554c0.145,0.005,0.291,0.012,0.438,0.02c-0.299,0.461-0.733,0.858-1.286,0.97
		c-0.554,0.111-1.243,0.117-1.647-0.344C245.35,140.747,245.415,140.107,245.631,139.611 M246.983,138.854
		c-0.477,0.119-0.809,0.511-1.019,0.934c0.828,0.012,1.656,0.008,2.485,0.004c-0.053-0.265-0.074-0.576-0.302-0.759
		C247.833,138.758,247.369,138.772,246.983,138.854z"/>
	<path fill="#04438A" d="M249.804,139.182c0.174-0.496,0.727-0.714,1.215-0.736c0.423-0.015,0.908-0.033,1.248,0.264
		c0.203,0.178,0.173,0.465,0.204,0.706c-0.128,0.005-0.254,0.009-0.381,0.014c-0.072-0.232-0.147-0.536-0.432-0.58
		c-0.408-0.056-0.88-0.109-1.242,0.128c-0.175,0.126-0.347,0.474-0.105,0.611c0.603,0.275,1.367,0.097,1.905,0.528
		c0.33,0.481-0.094,1.144-0.59,1.32c-0.594,0.208-1.291,0.237-1.876-0.013c-0.345-0.134-0.396-0.525-0.38-0.847
		c0.131-0.008,0.265-0.016,0.397-0.021c0.04,0.206,0.06,0.467,0.28,0.567c0.461,0.174,0.987,0.146,1.452-0.003
		c0.28-0.105,0.565-0.599,0.213-0.778c-0.55-0.242-1.204-0.104-1.735-0.402C249.701,139.796,249.688,139.436,249.804,139.182z"/>
	<path fill="#04438A" d="M234.374,138.529c0.146,0.001,0.29,0.002,0.436,0.004c-0.204,0.996-0.417,1.99-0.636,2.983
		c-0.14,0.003-0.28,0.006-0.419,0.009C233.926,140.521,234.172,139.528,234.374,138.529z"/>
	<path fill="#04438A" d="M240.425,138.532c0.15-0.001,0.299-0.002,0.45-0.002c-0.216,0.985-0.435,1.969-0.631,2.958
		c-0.149,0.015-0.298,0.027-0.447,0.041C239.999,140.529,240.216,139.531,240.425,138.532z"/>
</g>
<g id="_x23_e02119ff">
	<path fill="#E02119" d="M247.162,128.046c0.883-0.745,2.048-1.267,3.222-1.062c-0.233,0.98-0.417,1.974-0.649,2.955
		c-1.197-0.201-2.539-0.229-3.579,0.493c-0.429,0.265-0.687,0.704-0.93,1.129C245.439,130.212,246.093,128.915,247.162,128.046z"/>
</g>
</svg>
