<?xml version="1.0" encoding="utf-8"?>
<!-- Generator: Adobe Illustrator 16.2.1, SVG Export Plug-In . SVG Version: 6.00 Build 0)  -->
<!DOCTYPE svg PUBLIC "-//W3C//DTD SVG 1.1//EN" "http://www.w3.org/Graphics/SVG/1.1/DTD/svg11.dtd">
<svg version="1.1" id="svg2" xmlns:svg="http://www.w3.org/2000/svg"
	 xmlns="http://www.w3.org/2000/svg" xmlns:xlink="http://www.w3.org/1999/xlink" x="0px" y="0px" width="50px" height="50px"
	 viewBox="200.5 108 50 50" enable-background="new 200.5 108 50 50" xml:space="preserve">
<g id="g12" transform="matrix(1.25,0,0,-1.25,-578.91762,1050.0912)">
	<path id="path24" fill="#E5087D" d="M643.595,736.259c1.978,1.937,5.341,3.511,5.96,2.893c0.659-0.256-0.686-2.57-0.807-3.242
		c0.593,0.255,1.843,2.07,2.436,2.327c0.296,0.12,0.941,0.014,1.13-0.269c0.148-0.228,0.297-1.036,0.458-1.266
		c2.839,1.723,7.454,2.973,10.763,3.378l-1.479-1.359c-2.691-0.338-6.741-0.458-8.987-2.772c-0.511-0.202-0.862-0.148-1.009,0.242
		c-0.108,0.297-0.35,1.211-0.485,1.413c-0.846-0.349-2.798-2.705-3.646-3.068c-0.457-0.189-0.565,0-0.645,0.229
		c0.094,0.565,1.964,3.31,1.453,3.471c-2.84-1.211-4.831-3.915-5.638-4.749c-0.348-0.363-0.511,0.066-0.551,0.066l0.592,1.534
		c-1.117-0.242-2.099-0.646-3.135-1.224v0.794C641.173,735.317,642.33,735.828,643.595,736.259 M640.003,737.954v-0.297
		c0.067,0.095,0.148,0.202,0.215,0.31L640.003,737.954z M640.003,738.586l0.659,0.041l0.713,1.022l-1.373-0.094V738.586z
		 M640.003,733.864c-1.184-0.646-2.449-1.52-4.051-2.57c-0.403-0.162-2.139-0.699-2.085,0.323l3.189,4.601
		c-3.578-1.385-6.243-3.914-10.037-8.853c-0.875-0.566-3.176-1.561-3.485-0.632c0.862,4.427,2.341,9.23,4.629,13.334l3.915,0.928
		c-3.323-4.345-4.642-9.083-5.422-12.136c3.243,3.822,7.979,7.656,11.356,8.733l0.175,0.242l1.816,0.121v-0.297
		c-1.211-1.789-1.938-3.283-3.202-5.113c1.13,0.834,2.166,1.522,3.202,2.113V733.864L640.003,733.864z M640.003,739.555l-0.62-0.041
		l-0.753-1.009l1.373,0.081V739.555z"/>
	<path id="path28" fill="#E5087D" d="M651.243,727.128l0.68,1.191c0.685,0.261,1.198,0.344,1.464,0.303
		c0.266-0.04,0.342-0.172,0.314-0.408c-0.047-0.389-0.304-0.769-0.502-1.087h0.942c0.176,0.221,0.392,0.518,0.449,1.003
		c0.058,0.485-0.215,0.905-0.732,0.951c-0.517,0.048-1.055-0.025-1.588-0.156l0.146,0.262h-0.909l-1.193-2.059H651.243
		L651.243,727.128z M650.531,729.183l-1.18-2.055h-0.92l1.181,2.059L650.531,729.183z M656.69,728.214l-0.251-0.356h1.045
		c0.326,0,1.465-0.02,1.391,0.545c-0.142,1.068-3.429,1.191-3.889-0.116c-0.648-1.85,2.917-1.318,3.659-1.109
		c-0.036,0.116-0.07,0.23-0.105,0.346c-0.408-0.198-2.685-0.47-2.77,0.333c-0.08,0.744,0.773,0.889,1.328,0.889
		c0.857,0,0.961-0.533,0.386-0.533H656.69L656.69,728.214z M663.128,728.528c-1.149,0.25-1.531,0.266-2.038,0.209
		c-0.22-0.025-0.441-0.105-0.449-0.22c-0.01-0.141,0.083-0.211,0.429-0.23c0.68-0.037,1.778-0.073,1.756-0.596
		c-0.013-0.313-0.398-0.784-2.164-0.752c-0.575,0.01-1.306,0.155-1.725,0.27c0.076,0.105,0.154,0.21,0.23,0.315
		c0.407-0.084,0.92-0.198,1.568-0.167c1.275,0.073,1.318,0.427,0.24,0.5c-0.805,0.056-1.355,0.17-1.17,0.795
		c0.263,0.893,2.237,0.617,3.24,0.303L663.128,728.528L663.128,728.528z M639.776,727.128h0.941c0.439,0.806,1.092,1.7,2.121,1.713
		c0.648,0.009,0.366-0.292-0.02-0.502c-0.23-0.134-0.659-0.155-0.93-0.198l-0.115-0.251c0.784-0.156,1.192-0.523,1.401-0.921h1.066
		c-0.157,0.419-0.721,0.774-1.286,0.995c0.324,0.031,0.753,0.166,1.003,0.345c0.136,0.095,0.415,0.393,0.251,0.585
		c-0.277,0.325-0.816,0.388-1.348,0.324c-0.377-0.041-0.774-0.157-1.139-0.303l0.146,0.251h-0.909L639.776,727.128z
		 M645.797,727.817c-0.083-0.156-0.052-0.261,0.042-0.303c1.181,0.303,1.934,0.355,2.341,0.23l-0.021-0.553
		c-0.868,0.24-1.99,0.06-2.738-0.105c-0.308-0.067-0.94,0.052-0.585,0.68l0.805,1.422h0.92L645.797,727.817L645.797,727.817z
		 M632.396,727.128c0.616,0.669,1.13,1.217,1.997,1.589c0.627,0.261,1.452,0.429,2.164,0.46c0.062,0,1.547,0.135,1.003-0.67
		l-0.919-1.38h-1.025l1.066,1.462c0.262,0.345-0.104,0.284-0.313,0.263c-0.784-0.084-1.547-0.441-2.217-1.119
		c0.063,0.009,0.712,0.239,1.673,0.239l-0.377-0.417c-0.417-0.016-1.498-0.037-1.787-0.429H632.396L632.396,727.128z
		 M638.982,729.187l-1.192-2.059h0.93l1.179,2.059H638.982z"/>
</g>
</svg>
