<?xml version="1.0" encoding="utf-8"?>
<!-- Generator: Adobe Illustrator 16.2.1, SVG Export Plug-In . SVG Version: 6.00 Build 0)  -->
<!DOCTYPE svg PUBLIC "-//W3C//DTD SVG 1.1//EN" "http://www.w3.org/Graphics/SVG/1.1/DTD/svg11.dtd">
<svg version="1.1"
	 id="svg2" xmlns:dc="http://purl.org/dc/elements/1.1/" xmlns:cc="http://creativecommons.org/ns#" xmlns:rdf="http://www.w3.org/1999/02/22-rdf-syntax-ns#"
	 xmlns="http://www.w3.org/2000/svg" xmlns:xlink="http://www.w3.org/1999/xlink" x="0px" y="0px" width="50px" height="50px"
	 viewBox="270.5 229 50 50" enable-background="new 270.5 229 50 50" xml:space="preserve">
<g id="layer1">
	<g id="path95">
		<path d="M306.371,243.077h6.521l7.608,19.565h-5.434l-5.437-12.936l-5.434,12.936h-5.435L306.371,243.077z"/>
	</g>
	<g id="path99">
		<path d="M279.195,243.077h4.349v13.587c0,0,0.752,5.979-7.609,5.979c-3.361,0-5.435-2.5-5.435-2.5l2.174-2.936
			c0,0,1.769,1.627,3.261,1.63c4.195,0.013,3.26-2.717,3.26-2.717V243.077z"/>
	</g>
	<g id="path133-8">
		<path fill="#E11E28" d="M315.087,237.152h4.348c0,0-0.553,17.474-4.348,22.718c-3.744,5.172-11.413,10.978-11.413,10.978
			l-3.262-3.804c0,0,9.301-6.271,11.957-10.87C315.054,251.528,315.087,237.152,315.087,237.152z"/>
	</g>
	<g id="path133-8-6-9">
		<g>
			<defs>
				<path id="SVGID_1_" d="M315.086,237.152c0,0,1.372,16.836-2.718,22.827c-4.089,5.989-8.696,10.868-8.696,10.868l-3.26-3.804
					c0,0,8.974-6.271,11.63-10.87C314.727,251.528,315.086,237.152,315.086,237.152z"/>
			</defs>
			<clipPath id="SVGID_2_">
				<use xlink:href="#SVGID_1_"  overflow="visible"/>
			</clipPath>
			<path clip-path="url(#SVGID_2_)" fill="#808080" d="M300.411,237.152v33.694V237.152z"/>
			<rect x="300.411" y="237.152" clip-path="url(#SVGID_2_)" fill="#808080" width="3.724" height="33.694"/>
			<rect x="304.135" y="237.152" clip-path="url(#SVGID_2_)" fill="#808080" width="3.724" height="33.694"/>
			<rect x="307.858" y="237.152" clip-path="url(#SVGID_2_)" fill="#808080" width="7.448" height="33.694"/>
			<rect x="315.306" y="237.152" clip-path="url(#SVGID_2_)" fill="#808080" width="1.153" height="33.694"/>
		</g>
	</g>
	<g id="path130">
		<path d="M285.718,243.077v4.348h5.435v15.218h4.891v-15.218h4.891v-4.348H285.718z"/>
	</g>
</g>
</svg>
