<?xml version="1.0" encoding="utf-8"?>
<!-- Generator: Adobe Illustrator 16.2.1, SVG Export Plug-In . SVG Version: 6.00 Build 0)  -->
<!DOCTYPE svg PUBLIC "-//W3C//DTD SVG 1.1//EN" "http://www.w3.org/Graphics/SVG/1.1/DTD/svg11.dtd">
<svg version="1.1" id="Layer_1" xmlns="http://www.w3.org/2000/svg" xmlns:xlink="http://www.w3.org/1999/xlink" x="0px" y="0px"
	 width="50px" height="50px" viewBox="166.499 93.315 50 50" enable-background="new 166.499 93.315 50 50" xml:space="preserve">
<path fill="#00519E" d="M176.583,135.647l-3.567,7.668h42.654v-50h-19.372l-5.595,12.013c-1.724,0.857-3.1,2.303-3.397,3.913
	c-0.058,0.32-0.13,0.711-0.212,1.15c-1.225-1.537-3.89-3.856-8.789-3.856c-5.985,0-8.791,3.856-9.863,5.926h2.842
	c0,0-0.382,3.657-0.265,4.747c0.117,1.092,0.443,2.539,0.443,2.539s0.494-0.009,1.556,0.02c1.062,0.027,1.554,0.1,1.554,0.1
	l0.509-1.514l2.961-2.295l2.825,2.417c-0.924,1.094-1.481,2.503-1.481,4.045c0,0.229,0.012,0.453,0.035,0.672
	c-1-0.163-2.278-0.342-3.535-0.434c-0.22-0.02-1.122-0.028-1.413-0.036l-1.102,1.608l4.858,7.783l-1.453,3.122"/>
<path fill="#F4B400" d="M195.517,109.105h16.46l0.741-1.175H196.05L195.517,109.105z M191.937,117.043h5.774l0.742-1.181h-5.981
	L191.937,117.043z M193.728,113.079h15.754l0.741-1.182h-15.965L193.728,113.079z M194.016,103.867
	c-3.339,0-6.709,2.366-7.334,5.107c-1.523-1.449-4.181-3.092-8.375-3.092c-6.261,0-9.245,3.945-10.465,6.286l-0.513,0.995h3.208
	c-0.111,1.159-0.286,3.291-0.193,4.145c0.123,1.116,0.443,2.55,0.455,2.606l0.122,0.545l0.555-0.01c0.005,0,0.497-0.011,1.527,0.021
	c0.996,0.028,1.471,0.093,1.478,0.093l0.554,0.077l0.628-1.853l2.357-1.826l1.92,1.636c-0.774,1.125-1.207,2.452-1.23,3.826
	c-0.999-0.149-1.93-0.26-2.772-0.32c-0.135-0.005-0.415-0.013-0.825-0.022c-0.241-0.004-0.985-0.026-0.985-0.026l-1.565,2.283
	l5.311,8.502h6.51l-0.911-1.353h-4.848l-4.442-7.114l0.642-0.941c0.083,0,0.91,0.02,1.012,0.028c1.03,0.073,2.199,0.218,3.473,0.429
	l0.881,0.145l-0.094-0.886c-0.021-0.201-0.037-0.404-0.037-0.602c0-1.317,0.473-2.599,1.327-3.604l0.433-0.514l-3.756-3.219
	l-3.558,2.758l-0.405,1.198c-0.261-0.021-0.613-0.04-1.064-0.052c-0.433-0.009-0.771-0.019-1.024-0.019
	c-0.104-0.51-0.249-1.291-0.319-1.936c-0.091-0.834,0.345-5.355,0.345-5.355h-2.412c1.338-2.032,3.946-4.563,8.678-4.563
	c4.422,0,6.904,2.012,8.07,3.372c-0.389,2.12-1.071,5.887-1.191,6.547h1.378l1.413-7.77c0.402-2.179,3.281-4.165,6.042-4.165h20.403
	l0.853-1.357H194.016L194.016,103.867z M178.265,125.699l-1.24-0.105l2.692,3.899l2.068-0.521l-0.697-1.04l-0.863,0.219l-0.79-1.145
	c1.31,0.16,3.444,0.471,5.398,1.006c3.132,0.851,8.25,2.605,8.302,2.624l0.384-1.117c-0.054-0.021-5.209-1.791-8.379-2.647
	C181.939,125.999,178.415,125.708,178.265,125.699z"/>
</svg>
