<?xml version="1.0" encoding="utf-8"?>
<!-- Generator: Adobe Illustrator 16.2.1, SVG Export Plug-In . SVG Version: 6.00 Build 0)  -->
<!DOCTYPE svg PUBLIC "-//W3C//DTD SVG 1.1//EN" "http://www.w3.org/Graphics/SVG/1.1/DTD/svg11.dtd">
<svg version="1.1"
	 id="svg10368" inkscape:version="0.48.1 r9760" sodipodi:docname="New document 20" xmlns:dc="http://purl.org/dc/elements/1.1/" xmlns:cc="http://creativecommons.org/ns#" xmlns:svg="http://www.w3.org/2000/svg" xmlns:rdf="http://www.w3.org/1999/02/22-rdf-syntax-ns#" xmlns:inkscape="http://www.inkscape.org/namespaces/inkscape" xmlns:sodipodi="http://sodipodi.sourceforge.net/DTD/sodipodi-0.dtd"
	 xmlns="http://www.w3.org/2000/svg" xmlns:xlink="http://www.w3.org/1999/xlink" x="0px" y="0px" width="50px" height="50px"
	 viewBox="182.161 75.847 50 50" enable-background="new 182.161 75.847 50 50" xml:space="preserve">
<sodipodi:namedview  inkscape:document-units="px" inkscape:current-layer="layer1" inkscape:pageshadow="2" inkscape:pageopacity="0.0" inkscape:window-x="0" inkscape:window-y="0" inkscape:window-height="752" fit-margin-bottom="0" fit-margin-right="0" inkscape:window-maximized="0" inkscape:window-width="1280" borderopacity="1.0" bordercolor="#666666" showgrid="false" pagecolor="#ffffff" inkscape:cy="60.346594" fit-margin-top="0" fit-margin-left="0" id="base" inkscape:zoom="1.7535695" inkscape:cx="231.66053">
	</sodipodi:namedview>
<g id="layer1" transform="translate(-38.500264,-65.15098)" inkscape:groupmode="layer" inkscape:label="Layer 1">
	<g id="g14279" transform="translate(-89.7955,-760.6206)">
		<g id="g11064" transform="matrix(8.9188309,0,0,-8.9188309,149.51748,825.77158)">
			<path id="path11066" inkscape:connector-curvature="0" fill="#FDDD04" d="M20.314-8.504c0.539,0,0.977-0.437,0.977-0.977
				c0-0.539-0.437-0.976-0.977-0.976s-0.976,0.437-0.976,0.976C19.338-8.941,19.775-8.504,20.314-8.504 M20.314-8.821
				c-0.364,0-0.659-0.295-0.659-0.66c0-0.364,0.295-0.659,0.659-0.659c0.364,0,0.66,0.295,0.66,0.659
				C20.974-9.116,20.678-8.821,20.314-8.821"/>
		</g>
		<g id="g11068" transform="matrix(8.9188309,0,0,-8.9188309,169.83729,929.27818)">
			<path id="path11070" inkscape:connector-curvature="0" fill="#00A650" d="M18.98-1.706c-0.083-0.454-0.48-0.798-0.957-0.798
				c-0.537,0-0.973,0.437-0.973,0.974c0,0.324,0.158,0.612,0.401,0.788l0.215-0.229c-0.183-0.118-0.306-0.324-0.306-0.559
				c0-0.366,0.296-0.663,0.662-0.663c0.344,0,0.626,0.263,0.658,0.6L18.98-1.706z"/>
		</g>
		<g id="g11072" transform="matrix(8.9188309,0,0,-8.9188309,142.53222,885.24145)">
			<path id="path11074" inkscape:connector-curvature="0" fill="#ED1C24" d="M20.773-4.599c-0.155-0.083-0.276-0.228-0.325-0.411
				c-0.083-0.311,0.07-0.631,0.35-0.766l0.119-0.053c-0.107-0.022-0.259-0.12-0.323-0.194c-0.371,0.216-0.566,0.66-0.449,1.094
				c0.064,0.236,0.203,0.425,0.391,0.551l0.008-0.018l0.058-0.072l0.086-0.086L20.773-4.599z"/>
		</g>
		<g id="g11076" transform="matrix(8.9188309,0,0,-8.9188309,159.35492,907.07653)">
			<path id="path11078" inkscape:connector-curvature="0" fill="#00ADEF" d="M19.668-3.164c-0.093-0.247-0.032-0.536,0.174-0.723
				c0.27-0.246,0.689-0.226,0.934,0.044c0.067,0.073,0.114,0.157,0.143,0.246l0.31-0.056c-0.039-0.144-0.112-0.283-0.22-0.4
				c-0.362-0.399-0.979-0.429-1.377-0.066c-0.27,0.245-0.369,0.608-0.294,0.94L19.668-3.164z"/>
		</g>
		<g id="g11080" transform="matrix(8.9188309,0,0,-8.9188309,161.04952,864.37406)">
			<path id="path11082" inkscape:connector-curvature="0" fill="#111941" d="M19.557-5.969L19.555-5.97h0
				c-0.152-0.1-0.335-0.158-0.531-0.158c-0.196,0-0.381,0.056-0.534,0.155c0.067,0.092,0.163,0.168,0.269,0.216
				c0.081-0.036,0.169-0.054,0.265-0.054c0.094,0,0.181,0.019,0.263,0.055C19.394-5.813,19.477-5.877,19.557-5.969"/>
		</g>
		<g id="g11084" transform="matrix(8.9188309,0,0,-8.9188309,149.59151,851.88422)">
			<path id="path11086" inkscape:connector-curvature="0" fill="#00ADEF" d="M20.309-6.789c0.194,0,0.375-0.057,0.527-0.155
				c-0.024-0.045-0.09-0.106-0.156-0.15c-0.041-0.029-0.081-0.05-0.11-0.064l-0.002,0.001c-0.079,0.035-0.168,0.054-0.26,0.054
				c-0.365,0-0.661-0.296-0.661-0.66c0-0.365,0.296-0.662,0.661-0.662c0.343,0,0.626,0.262,0.658,0.599
				c0.088,0.046,0.214,0.14,0.312,0.162l0.004-0.099c0-0.539-0.437-0.975-0.974-0.975c-0.539,0-0.975,0.437-0.975,0.975
				C19.335-7.226,19.771-6.789,20.309-6.789"/>
		</g>
		<g id="g11088" transform="matrix(8.9188309,0,0,-8.9188309,161.376,880.83555)">
			<path id="path11090" inkscape:connector-curvature="0" fill="#111941" d="M19.535-4.888l0.005,0.009
				c0.058,0.087,0.095,0.189,0.105,0.299l0.079,0.056c0.075,0.046,0.163,0.09,0.233,0.105l0.004-0.099
				c0.001-0.22-0.069-0.424-0.203-0.598C19.702-5.039,19.63-4.958,19.535-4.888"/>
		</g>
		<g id="g11092" transform="matrix(8.9188309,0,0,-8.9188309,187.22627,900.43209)">
			<path id="path11094" inkscape:connector-curvature="0" fill="#00A650" d="M17.838-3.601c-0.221-0.22-0.521-0.314-0.808-0.279
				c-0.014,0.09-0.01,0.221,0.014,0.316c0.202-0.032,0.416,0.029,0.572,0.184c0.259,0.259,0.259,0.676,0,0.935
				c-0.258,0.259-0.676,0.259-0.935,0c-0.051-0.052-0.093-0.111-0.124-0.173l-0.007-0.017l-0.131,0.068l-0.123,0.039l-0.039,0.009
				c0.047,0.107,0.115,0.207,0.203,0.296c0.381,0.38,0.998,0.38,1.379,0C18.218-2.603,18.218-3.221,17.838-3.601"/>
		</g>
		<g id="g11096" transform="matrix(8.9188309,0,0,-8.9188309,163.53617,897.80184)">
			<path id="path11098" inkscape:connector-curvature="0" fill="#ED1C24" d="M19.394-3.774c0,0.293-0.194,0.561-0.49,0.64
				c-0.17,0.045-0.341,0.021-0.485-0.056c-0.046,0.025-0.154,0.095-0.234,0.225c0.226,0.153,0.463,0.225,0.799,0.135
				c0.337-0.09,0.66-0.43,0.713-0.805L19.394-3.774z"/>
		</g>
		<g id="g11100" transform="matrix(8.9188309,0,0,-8.9188309,185.71553,917.8157)">
			<path id="path11102" inkscape:connector-curvature="0" fill="#111941" d="M17.937-2.459c0.104,0.24,0.053,0.52-0.138,0.727
				c-0.257,0.255-0.675,0.259-0.933,0.003c-0.066-0.072-0.121-0.152-0.153-0.24L16.404-1.9c0.046,0.143,0.126,0.278,0.24,0.392
				c0.2,0.2,0.484,0.302,0.754,0.285c0.246-0.015,0.481-0.134,0.624-0.285c0.299-0.32,0.328-0.708,0.247-0.952H17.937z"/>
		</g>
		<g id="g11104" transform="matrix(8.9188309,0,0,-8.9188309,163.17403,922.71936)">
			<path id="path11106" inkscape:connector-curvature="0" fill="#FDDD04" d="M19.417-2.137c-0.022,0.132-0.079,0.239-0.179,0.339
				c-0.174,0.178-0.414,0.237-0.636,0.171l-0.002,0.001c-0.112,0.043-0.228,0.101-0.32,0.204c0.051,0.031,0.106,0.054,0.161,0.075
				c0.341,0.13,0.746,0.051,1.02-0.229c0.196-0.198,0.293-0.461,0.285-0.72C19.641-2.279,19.522-2.232,19.417-2.137"/>
		</g>
	</g>
</g>
</svg>
