<?xml version="1.0" encoding="utf-8"?>
<!-- Generator: Adobe Illustrator 16.2.1, SVG Export Plug-In . SVG Version: 6.00 Build 0)  -->
<!DOCTYPE svg PUBLIC "-//W3C//DTD SVG 1.1//EN" "http://www.w3.org/Graphics/SVG/1.1/DTD/svg11.dtd">
<svg version="1.1" id="svg2367" xmlns:svg="http://www.w3.org/2000/svg"
	 xmlns="http://www.w3.org/2000/svg" xmlns:xlink="http://www.w3.org/1999/xlink" x="0px" y="0px" width="50px" height="50px"
	 viewBox="-24.5 40.5 50 50" enable-background="new -24.5 40.5 50 50" xml:space="preserve">
<g>
	<path fill="#EF001E" d="M24.348,44.012c-0.163-1.984-1.862-3.559-3.867-3.511c-15.477,0.36-30.59,5.271-43.373,13.988
		c-1.657,1.13-2.082,3.426-1.048,5.092c1.676,2.706,3.471,5.271,5.424,7.751l2.24-9.185c0.216-0.789,0.741-1.318,1.432-1.641
		c0.766-0.355,1.855-0.496,3.416-0.477h0.688l-0.467,1.823l4.864-1.823h3.864l-0.749,3.101h-5.62
		c-1.689,0.046-2.953,0.952-3.315,2.466h-0.002l-0.819,3.27l-0.005,0.031c-0.018,0.101-0.303,1.296-0.31,1.394
		c-0.06,0.383,0.02,0.857,0.292,1.277c0.271,0.42,0.751,0.767,1.576,0.874c0.154,0.02,0.312,0.013,0.467,0.017h5.48l-0.772,3.127
		h-8.67c6.953,7.704,15.318,14.04,24.81,18.561c1.781,0.847,3.998,0.121,4.935-1.616c2.907-5.393,5.205-11.097,6.842-16.978h-1.855
		l-0.052-2.1c-0.006-0.202-0.177-0.232-0.257-0.229h-4.102c-0.269-0.005-0.365,0.062-0.456,0.271l-0.921,2.059H8.297l7.827-15.472
		l8.257,0.005C24.684,52.072,24.678,48.037,24.348,44.012z M10.679,59.158H4.817c-1.611-0.027-1.964,1.749-0.921,2.397l3.753,2.788
		c3.096,2.336,1.281,7.235-3.483,7.242h-9.268l0.745-3.151h5.961c2.038,0.008,3.029-1.777,1.574-2.775
		c-1.429-0.996-2.355-1.792-3.775-2.801c-2.867-2.035-1.517-6.777,3.299-6.804h8.739L10.679,59.158z"/>
	<path fill="#EF001E" d="M19.172,60.073l-2.881,6.396c-0.119,0.249-0.045,0.489,0.173,0.471h2.888
		c0.25-0.015,0.329-0.214,0.303-0.519l-0.188-6.332C19.462,59.87,19.271,59.852,19.172,60.073z"/>
</g>
</svg>
