<?xml version="1.0" encoding="utf-8"?>
<!-- Generator: Adobe Illustrator 16.2.1, SVG Export Plug-In . SVG Version: 6.00 Build 0)  -->
<!DOCTYPE svg PUBLIC "-//W3C//DTD SVG 1.1//EN" "http://www.w3.org/Graphics/SVG/1.1/DTD/svg11.dtd">
<svg version="1.1"
	 id="svg2" sodipodi:version="0.32" inkscape:version="0.45.1" xmlns:dc="http://purl.org/dc/elements/1.1/" xmlns:cc="http://web.resource.org/cc/" xmlns:rdf="http://www.w3.org/1999/02/22-rdf-syntax-ns#" xmlns:svg="http://www.w3.org/2000/svg" xmlns:sodipodi="http://sodipodi.sourceforge.net/DTD/sodipodi-0.dtd" xmlns:inkscape="http://www.inkscape.org/namespaces/inkscape"
	 xmlns="http://www.w3.org/2000/svg" xmlns:xlink="http://www.w3.org/1999/xlink" x="0px" y="0px" width="50px" height="50px"
	 viewBox="269 102 50 50" enable-background="new 269 102 50 50" xml:space="preserve">
<g id="layer1" transform="translate(-273.56405,-446.68181)" inkscape:groupmode="layer" inkscape:label="Layer 1">
	<path id="path7129" fill="#004FA3" d="M560.634,589.782c-2.498-2.083-5.438-4.063-5.673-8.191c-0.139-2.44,0.902-3.78,0.996-5.969
		c0.154-3.657-0.722-5.78-2.884-7.744c-0.518,0.435-0.978,0.729-1.708,0.647c-2.47-0.27-2.577-3.255-4.944-3.473
		c-1-0.097-1.5,0.405-1.958,1.025l-0.907-0.92l1.099-1.132l-1.72-0.005l-0.37-1.385c0.902,0.124,1.446-0.389,1.502-1.115h18.347
		c-1.282,0.308-1.884,1.75-3.187,1.956c-0.825,0.08-1.345-0.161-1.95-0.591c-0.107,0-0.228,0.11-0.228,0.224
		c0,0.438,1.331,0.809,1.774,0.802c2.242-0.048,2.668-2.391,5.234-2.391h28.506l-4.046,3.575c-0.363,0.324-0.837,0.432-1.261,0.432
		l-27.129,0.007l0.701,0.762l26.405,0.004l-4.225,3.583c-0.361,0.307-0.892,0.415-1.368,0.415h-17.016l0.705,0.757h16.4
		l-4.178,3.486c-0.443,0.368-1.089,0.444-1.668,0.444h-8.995l0.703,0.788h8.585l-4.143,3.608c-0.333,0.295-0.813,0.443-1.258,0.443
		h-2.064c0.012,0.729,0.759,0.737,1.197,0.695h1.144L560.634,589.782z M553.293,560.891c-0.19-0.133-0.595-1.141-0.518-1.761
		c0.093-0.783,0.733-1.559,1.525-1.55c0.914,0.017,1.619,0.591,2.65,0.604c0.434,0.007,0.808-0.303,1.066-0.44
		c-0.19,0.9-0.713,1.929-1.654,2.173c-0.755,0.191-1.739-0.135-2.388,0.131C553.607,560.195,553.373,560.692,553.293,560.891"/>
</g>
</svg>
