<?xml version="1.0" encoding="utf-8"?>
<!-- Generator: Adobe Illustrator 16.2.1, SVG Export Plug-In . SVG Version: 6.00 Build 0)  -->
<!DOCTYPE svg PUBLIC "-//W3C//DTD SVG 1.1//EN" "http://www.w3.org/Graphics/SVG/1.1/DTD/svg11.dtd">
<svg version="1.1" id="Layer_1" xmlns="http://www.w3.org/2000/svg" xmlns:xlink="http://www.w3.org/1999/xlink" x="0px" y="0px"
	 width="50px" height="50px" viewBox="125.75 71 50 50" enable-background="new 125.75 71 50 50" xml:space="preserve">
<g id="svg2816" xmlns:svg="http://www.w3.org/2000/svg">
	<path id="path2832" fill="#ED192D" d="M128.126,87.154h11.885c1.166,0,2.044,0.368,2.39,2.02c0.384,1.838,0.226,3.118-1.845,3.265
		l-3.731,0.267c2.746,17.332,18.804,22.981,27.547,4.314c1.447-3.091,1.92-3.654,3.506-3.26c2.147,0.533,2.441,1.636,1.418,4.752
		c-7.559,23.013-32.964,25.321-37.951-5.413l-3.031,0.218c-2.467,0.177-2.564-1.901-2.564-3.058
		C125.75,87.974,126.6,87.154,128.126,87.154L128.126,87.154"/>
	<path id="path2834" fill="#ED192D" d="M171.344,76.022c2.434,0,4.406,1.972,4.406,4.406s-1.973,4.407-4.406,4.407
		s-4.405-1.973-4.405-4.407S168.91,76.022,171.344,76.022L171.344,76.022"/>
</g>
</svg>
