<?xml version="1.0" encoding="utf-8"?>
<!-- Generator: Adobe Illustrator 16.2.1, SVG Export Plug-In . SVG Version: 6.00 Build 0)  -->
<!DOCTYPE svg PUBLIC "-//W3C//DTD SVG 1.1//EN" "http://www.w3.org/Graphics/SVG/1.1/DTD/svg11.dtd">
<svg version="1.1"
	 id="svg8952" xmlns:dc="http://purl.org/dc/elements/1.1/" xmlns:cc="http://creativecommons.org/ns#" xmlns:svg="http://www.w3.org/2000/svg" xmlns:rdf="http://www.w3.org/1999/02/22-rdf-syntax-ns#"
	 xmlns="http://www.w3.org/2000/svg" xmlns:xlink="http://www.w3.org/1999/xlink" x="0px" y="0px" width="50px" height="50px"
	 viewBox="396.957 95.756 50 50" enable-background="new 396.957 95.756 50 50" xml:space="preserve">
<g id="layer1" transform="translate(18.681542,-404.05493)">
	<g id="g9101" transform="matrix(2.834645,0,0,2.834645,-251.75539,-730.43856)">
		<g id="g7462" transform="matrix(1.25,0,0,-1.25,58.473295,1444.3583)">
			<g>
				<g id="g7464">
					<g id="g7474" transform="translate(245.6489,823.022)">
						<path id="path7476" fill="#EC1D26" d="M-112.006-19.837c0,0,0.374,0.2,0.984,0.161c0,0,0.394,0.276,0.867,0.255
							c0,0,0.434,0,0.906-0.395c0,0,0.295-0.194,0.472,0c0,0,0.06,0.612,0.472,1.045c0,0,0.158,0.373,0.394,0.63
							c0,0,0.275,0.292,0.434,0.905c0,0,0.237,0.496,0.771,0.807c0,0,0.687,0.456,1.611,0.751c0,0,0.63,0.138,1.281,0.57
							c0,0,0.354,0.453,1.161,0.355c0,0,0.849,0.019,1.145,0c0,0,1.043-0.176,0.118-0.472c0,0-1.224-0.493-1.657-0.809
							c0,0-0.706-0.706-1.022-1.125c0,0,0.473-0.489-0.197-1.038l-0.591-0.71l-0.412-0.514c0,0-0.454-1.298-0.926-1.516
							c0,0-0.217-0.293,0.237-0.59c0,0,0.728-0.57,1.045-1.025c0,0,0.215-0.391,0.804-0.551c0,0,0.946-0.075,1.046-0.256
							c0,0,0.352-0.356-0.631-1.064c0,0-0.848-0.489-1.28-0.056c0,0-0.295,0.488-0.572,0.728c-0.304,0.261-0.69,0.144-1.043,0.184
							c-0.168,0.02-0.752,0.305-0.886,0.23c0,0-0.828-0.475-1.497-0.81c0,0-0.352-0.392-0.513-0.59c0,0-0.273-0.804-1.061-0.945
							l-1.538-2.207c0,0-0.294-0.234-0.529-0.155c0,0-0.67-1.002-1.182-0.769c0,0-0.355-0.254-0.316,0.631
							c0,0,0.275,4.412,2.58,5.673c0,0,0.826,0.297,1.024,0.729c0,0,0.236,0.374,0.472,0.392c0,0,0.198,0.493-0.257,0.65
							c0,0-0.53,0.414-0.53,0.473c0,0-0.355,0.08-0.376,0.158C-111.201-20.109-111.671-20.109-112.006-19.837"/>
					</g>
				</g>
			</g>
		</g>
	</g>
</g>
</svg>
