<?xml version="1.0" encoding="utf-8"?>
<!-- Generator: Adobe Illustrator 16.2.1, SVG Export Plug-In . SVG Version: 6.00 Build 0)  -->
<!DOCTYPE svg PUBLIC "-//W3C//DTD SVG 1.1//EN" "http://www.w3.org/Graphics/SVG/1.1/DTD/svg11.dtd">
<svg version="1.1" xmlns="http://www.w3.org/2000/svg" xmlns:xlink="http://www.w3.org/1999/xlink" x="0px" y="0px" width="50px"
	 height="50px" viewBox="0 0 50 50" enable-background="new 0 0 50 50" xml:space="preserve">
<g id="Layer_1">
	<g id="FFVWK9.tif">
		<g>
			<path fill-rule="evenodd" clip-rule="evenodd" fill="#74746D" d="M38.778,34.398c-0.168-0.06-0.339-0.112-0.504-0.181
				c-0.864-0.358-1.258-1.276-0.869-2.06c0.232-0.467,0.617-0.779,1.123-0.904c0.799-0.197,1.563-0.154,2.224,0.416
				c0.301,0.261,0.46,0.593,0.521,0.981c0.025,0.163-0.013,0.218-0.188,0.217c-1.022-0.008-2.044-0.004-3.065-0.004
				c-0.258,0-0.282,0.027-0.198,0.274c0.132,0.388,0.417,0.641,0.799,0.748c0.736,0.207,1.43,0.139,2.013-0.422
				c0.086-0.083,0.462-0.021,0.499,0.083c0.021,0.059-0.032,0.092-0.063,0.13c-0.292,0.363-0.684,0.558-1.128,0.664
				c-0.054,0.013-0.12-0.006-0.156,0.057C39.45,34.398,39.114,34.398,38.778,34.398z M39.277,32.471
				c0.423,0,0.845-0.006,1.267,0.003c0.185,0.003,0.196-0.061,0.12-0.204c-0.102-0.191-0.229-0.354-0.417-0.466
				c-0.384-0.226-0.8-0.315-1.238-0.253c-0.481,0.067-0.887,0.271-1.118,0.735c-0.074,0.147-0.04,0.188,0.119,0.188
				C38.432,32.468,38.854,32.472,39.277,32.471z"/>
			<path fill-rule="evenodd" clip-rule="evenodd" fill="#74746D" d="M11.665,34.398c-0.145-0.044-0.291-0.084-0.435-0.133
				c-0.688-0.231-1.175-0.87-1.144-1.538c0.029-0.633,0.377-1.093,0.927-1.346c0.787-0.362,1.586-0.353,2.351,0.11
				c0.411,0.249,0.639,0.619,0.744,1.076c0.061,0.264,0.028,0.302-0.241,0.302c-1.021,0-2.043,0.005-3.064-0.004
				c-0.193-0.002-0.208,0.075-0.164,0.22c0.147,0.483,0.505,0.752,0.971,0.85c0.689,0.146,1.335,0.05,1.864-0.475
				c0.081-0.079,0.42-0.021,0.484,0.079c0.042,0.063-0.021,0.094-0.047,0.127c-0.293,0.373-0.691,0.571-1.144,0.676
				c-0.062,0.015-0.134-0.003-0.182,0.056C12.278,34.398,11.971,34.398,11.665,34.398z M10.655,32.465c0.226,0,0.42,0,0.615,0
				c0.7,0,1.401-0.004,2.101,0.003c0.181,0.002,0.201-0.05,0.116-0.196c-0.095-0.164-0.201-0.312-0.362-0.425
				c-0.394-0.273-0.833-0.341-1.291-0.284C11.294,31.63,10.883,31.896,10.655,32.465z"/>
			<path fill-rule="evenodd" clip-rule="evenodd" fill="#74746D" d="M43.684,34.398c-0.317-0.076-0.622-0.177-0.896-0.362
				c-0.977-0.661-0.982-1.82-0.022-2.503c0.712-0.508,2.034-0.534,2.699,0.083c0.034,0.032,0.068,0.092,0.125,0.069
				c0.07-0.028,0.032-0.102,0.042-0.154c0.002-0.015-0.001-0.03,0.001-0.045c0.017-0.088-0.054-0.223,0.045-0.257
				c0.118-0.04,0.26-0.021,0.389-0.009c0.082,0.008,0.052,0.092,0.053,0.145c0.005,0.94,0.008,1.882,0.017,2.822
				c0.001,0.129-0.046,0.171-0.166,0.156c-0.029-0.004-0.059-0.005-0.087,0c-0.208,0.036-0.297-0.041-0.262-0.257
				c0.01-0.062,0.001-0.129,0.001-0.255c-0.364,0.335-0.771,0.471-1.194,0.566C44.18,34.398,43.932,34.398,43.684,34.398z
				 M44.226,31.535c-0.452-0.001-0.771,0.084-1.064,0.262c-0.718,0.437-0.792,1.255-0.164,1.809c0.605,0.531,1.725,0.516,2.315-0.04
				c0.44-0.412,0.481-1.133,0.033-1.556C44.995,31.681,44.584,31.544,44.226,31.535z"/>
			<path fill-rule="evenodd" clip-rule="evenodd" fill="#74746D" d="M31.813,34.398c-0.293-0.103-0.6-0.16-0.863-0.346
				c-1.093-0.771-0.873-2.074,0.167-2.652c0.693-0.385,1.959-0.375,2.652,0.288c0.287,0.274,0.442,0.619,0.498,1.013
				c0.024,0.166-0.065,0.17-0.19,0.17c-1.035-0.003-2.072,0.004-3.107-0.007c-0.209-0.002-0.237,0.075-0.182,0.241
				c0.15,0.462,0.496,0.727,0.943,0.825c0.696,0.154,1.35,0.061,1.886-0.467c0.083-0.081,0.416-0.029,0.482,0.074
				c0.047,0.072-0.027,0.106-0.057,0.145c-0.292,0.361-0.683,0.559-1.129,0.66c-0.061,0.014-0.133-0.008-0.179,0.056
				C32.427,34.398,32.12,34.398,31.813,34.398z M32.263,32.465c0.422,0,0.845-0.006,1.267,0.003c0.177,0.004,0.173-0.05,0.111-0.187
				c-0.166-0.361-0.468-0.544-0.826-0.651c-0.688-0.207-1.586-0.048-1.938,0.653c-0.094,0.189-0.029,0.185,0.119,0.184
				C31.418,32.463,31.84,32.465,32.263,32.465z"/>
			<path fill-rule="evenodd" clip-rule="evenodd" fill="#74746D" d="M16.482,34.398c-0.211-0.091-0.445-0.119-0.648-0.234
				c-0.512-0.292-0.893-0.669-0.939-1.302c-0.04-0.545,0.207-0.942,0.611-1.269c0.765-0.615,2.174-0.627,2.913,0.102
				c0.069-0.048,0.032-0.119,0.033-0.176c0.006-0.299,0.166-0.412,0.449-0.316c0.062,0.021,0.06,0.056,0.06,0.114
				c0.003,0.933,0.013,1.865,0.017,2.797c0,0.079,0.047,0.188-0.075,0.222c-0.134,0.037-0.29,0.062-0.404-0.006
				c-0.095-0.057-0.021-0.203-0.039-0.31c-0.008-0.047,0.026-0.109-0.038-0.134c-0.048-0.018-0.077,0.032-0.108,0.06
				c-0.286,0.254-0.648,0.339-0.999,0.452C17.038,34.398,16.76,34.398,16.482,34.398z M16.914,33.995
				c0.441-0.005,0.819-0.112,1.151-0.365c0.57-0.433,0.574-1.286,0.006-1.716c-0.606-0.457-1.467-0.51-2.104-0.089
				c-0.577,0.382-0.802,1.061-0.261,1.658C16.035,33.847,16.465,33.982,16.914,33.995z"/>
			<path fill-rule="evenodd" clip-rule="evenodd" fill="#74746D" d="M47.67,34.398c-0.203-0.108-0.442-0.145-0.619-0.302
				c-0.058-0.053-0.216-0.103-0.094-0.208c0.095-0.083,0.146-0.321,0.371-0.147c0.325,0.252,0.69,0.341,1.086,0.166
				c0.167-0.074,0.303-0.186,0.322-0.382c0.019-0.204-0.11-0.327-0.274-0.408c-0.241-0.119-0.495-0.214-0.733-0.338
				c-0.3-0.154-0.601-0.326-0.646-0.71c-0.056-0.467,0.299-0.845,0.833-0.907c0.453-0.053,0.846,0.088,1.199,0.367
				c0.091,0.073,0.079,0.111,0,0.181c-0.134,0.119-0.236,0.18-0.417,0.035c-0.26-0.209-0.574-0.288-0.902-0.138
				c-0.349,0.159-0.375,0.472-0.063,0.692c0.133,0.093,0.277,0.162,0.425,0.225c0.167,0.071,0.337,0.138,0.5,0.216
				c0.328,0.157,0.586,0.379,0.57,0.778c-0.017,0.418-0.294,0.644-0.649,0.799c-0.055,0.024-0.138-0.003-0.165,0.081
				C48.166,34.398,47.918,34.398,47.67,34.398z"/>
			<path fill-rule="evenodd" clip-rule="evenodd" fill="#74746D" d="M20.469,34.398c-0.184-0.127-0.424-0.149-0.589-0.309
				c-0.053-0.051-0.22-0.095-0.085-0.205c0.096-0.078,0.144-0.309,0.354-0.149c0.307,0.229,0.646,0.339,1.025,0.204
				c0.198-0.071,0.379-0.182,0.396-0.419c0.018-0.233-0.154-0.345-0.333-0.441c-0.32-0.17-0.678-0.259-0.978-0.473
				c-0.497-0.357-0.471-1.009,0.067-1.306c0.462-0.254,0.922-0.187,1.371,0.049c0.045,0.023,0.101,0.046,0.125,0.085
				c0.053,0.083,0.27,0.066,0.175,0.232c-0.107,0.188-0.273,0.205-0.442,0.089c-0.307-0.211-0.634-0.299-0.982-0.108
				c-0.286,0.155-0.297,0.438-0.032,0.631c0.219,0.159,0.475,0.247,0.721,0.352c0.148,0.062,0.289,0.136,0.422,0.224
				c0.473,0.311,0.512,0.856,0.097,1.238c-0.165,0.152-0.373,0.217-0.568,0.307C20.965,34.398,20.717,34.398,20.469,34.398z"/>
			<path fill-rule="evenodd" clip-rule="evenodd" fill="#9D1F21" d="M28.637,20.089c0.106,0.076,0.106-0.005,0.106-0.073
				c0.002-0.132,0.001-0.264,0.001-0.395c0-1.268,0.003-2.535-0.004-3.803c-0.001-0.161,0.038-0.21,0.205-0.208
				c0.67,0.006,1.34-0.004,2.009-0.008c0.067,0.067,0.036,0.152,0.036,0.229c0.003,4.057,0.005,8.113,0.011,12.172
				c0.001,0.173-0.027,0.235-0.22,0.23c-0.634-0.014-1.27-0.008-1.904-0.002c-0.131,0.002-0.181-0.027-0.173-0.168
				c0.012-0.24,0.003-0.48,0.003-0.718c-0.084-0.024-0.117,0.034-0.156,0.071c-1.541,1.475-3.954,1.334-5.417-0.039
				c-1.113-1.043-1.605-2.326-1.555-3.839c0.028-0.841,0.179-1.654,0.599-2.385c0.682-1.186,1.661-1.989,3.058-2.185
				c1.239-0.172,2.334,0.146,3.267,0.991c0-0.001-0.002,0.011-0.002,0.011l0.011-0.002c0.011,0.012,0.022,0.024,0.033,0.036
				c0-0.001-0.002,0.012-0.002,0.012l0.012-0.001c0.012,0.011,0.023,0.021,0.033,0.033c0-0.001-0.001,0.012-0.001,0.012l0.012-0.002
				C28.612,20.068,28.625,20.078,28.637,20.089z M26.628,21.031c-1.302,0.015-2.034,0.468-2.496,1.367
				c-0.319,0.621-0.328,1.274-0.205,1.937c0.341,1.831,2.55,2.641,3.971,1.456c0.743-0.618,0.965-1.449,0.92-2.371
				C28.75,21.993,27.617,20.99,26.628,21.031z"/>
			<path fill-rule="evenodd" clip-rule="evenodd" fill="#9D1F21" d="M7.138,27.282C6.86,27.52,6.626,27.725,6.36,27.89
				c-1.46,0.905-3.382,0.729-4.692-0.42c-1.229-1.077-1.737-2.444-1.66-4.052c0.061-1.283,0.481-2.415,1.407-3.332
				c1.218-1.206,3.083-1.516,4.615-0.76c0.399,0.197,0.75,0.468,1.115,0.824c0-0.312,0.008-0.568-0.003-0.824
				c-0.006-0.14,0.032-0.185,0.179-0.184c0.649,0.009,1.299,0.01,1.948,0c0.142-0.001,0.166,0.044,0.166,0.174
				c-0.004,2.911-0.004,5.822,0,8.734c0,0.141-0.033,0.182-0.179,0.181c-0.649-0.009-1.299-0.007-1.948-0.001
				c-0.133,0.002-0.178-0.029-0.172-0.168C7.147,27.823,7.138,27.584,7.138,27.282z M2.288,23.629
				c0.007,0.152,0.003,0.307,0.024,0.458c0.021,0.158,0.053,0.317,0.1,0.47c0.591,1.902,2.68,2.214,3.891,1.261
				c1.142-0.899,1.218-2.882,0.389-3.894c-0.861-1.052-2.424-1.117-3.312-0.486C2.632,21.971,2.278,22.711,2.288,23.629z"/>
			<path fill-rule="evenodd" clip-rule="evenodd" fill="#9D1F21" d="M38.75,24.357c-1.153,0-2.307,0.004-3.46-0.004
				c-0.183,0-0.205,0.055-0.165,0.216c0.348,1.42,1.535,2.065,2.916,1.922c0.66-0.069,1.232-0.337,1.717-0.788
				c0.092-0.086,0.16-0.106,0.283-0.047c0.524,0.254,1.052,0.498,1.584,0.736c0.151,0.067,0.196,0.111,0.075,0.266
				c-0.795,1.018-1.83,1.604-3.113,1.748c-1.065,0.119-2.121,0.086-3.102-0.398c-1.647-0.815-2.515-2.162-2.607-3.994
				c-0.042-0.822,0.069-1.628,0.417-2.385c0.429-0.934,1.094-1.652,1.992-2.154c0.864-0.481,1.8-0.605,2.766-0.539
				c1.066,0.074,2.032,0.436,2.828,1.162c0.744,0.68,1.218,1.525,1.409,2.521c0.099,0.516,0.15,1.036,0.132,1.563
				c-0.006,0.15-0.05,0.18-0.189,0.179C41.071,24.355,39.911,24.357,38.75,24.357L38.75,24.357z M37.604,22.573
				c0.787,0,1.573-0.003,2.36,0.003c0.142,0.002,0.144-0.052,0.104-0.152c-0.092-0.229-0.21-0.445-0.365-0.639
				c-1.096-1.364-3.638-1.29-4.458,0.645c-0.057,0.133-0.034,0.15,0.107,0.148C36.103,22.569,36.853,22.574,37.604,22.573z"/>
			<path fill-rule="evenodd" clip-rule="evenodd" fill="#9D1F21" d="M13.995,20.088c0.342-0.256,0.643-0.492,0.971-0.692
				c1.287-0.784,2.988-0.588,4.042,0.479c0.466,0.473,0.666,1.064,0.741,1.706c0.09,0.771,0.042,1.546,0.052,2.317
				c0.02,1.373,0.002,2.745,0.01,4.117c0.001,0.175-0.045,0.219-0.217,0.217c-0.628-0.011-1.256-0.01-1.883-0.001
				c-0.157,0.003-0.19-0.044-0.19-0.194c0.006-1.482,0.008-2.964,0.003-4.445c-0.001-0.487-0.012-0.977-0.134-1.452
				c-0.289-1.124-1.352-1.302-2.141-0.946c-0.673,0.303-0.987,0.896-1.15,1.579c-0.105,0.442-0.088,0.897-0.092,1.348
				c-0.01,1.3-0.006,2.599,0.001,3.897c0.001,0.174-0.047,0.217-0.216,0.215c-0.635-0.011-1.271-0.01-1.905-0.001
				c-0.148,0.001-0.18-0.046-0.18-0.185c0.003-2.912,0.003-5.824-0.001-8.738c0-0.141,0.044-0.166,0.173-0.164
				c0.649,0.006,1.299,0.006,1.949-0.001c0.134-0.001,0.178,0.031,0.171,0.169C13.986,19.553,13.995,19.795,13.995,20.088z"/>
			<path fill-rule="evenodd" clip-rule="evenodd" fill="#9D1F21" d="M46.798,28.457c-1.334,0.016-2.346-0.455-3.141-1.402
				c-0.106-0.126-0.128-0.206,0.002-0.342c0.378-0.395,0.747-0.799,1.097-1.217c0.15-0.18,0.226-0.158,0.374-0.004
				c0.402,0.42,0.891,0.703,1.465,0.818c0.299,0.061,0.594,0.033,0.867-0.125c0.415-0.24,0.491-0.619,0.185-0.984
				c-0.195-0.233-0.452-0.387-0.719-0.525c-0.638-0.332-1.31-0.604-1.881-1.057c-0.488-0.388-0.882-0.843-1.076-1.447
				c-0.304-0.951,0.083-2.025,0.903-2.648c1.106-0.839,2.885-0.764,4.014,0.021c0.32,0.223,0.601,0.482,0.842,0.788
				c0.066,0.084,0.081,0.136-0.001,0.219c-0.422,0.423-0.841,0.851-1.257,1.279c-0.102,0.104-0.14-0.009-0.184-0.052
				c-0.269-0.262-0.563-0.483-0.908-0.631c-0.296-0.126-0.606-0.15-0.918-0.061c-0.215,0.062-0.378,0.197-0.428,0.424
				c-0.047,0.217,0.072,0.371,0.234,0.502c0.253,0.202,0.556,0.312,0.839,0.459c0.631,0.326,1.264,0.64,1.849,1.055
				c1.406,0.998,1.475,3.429-0.303,4.468C48.05,28.348,47.394,28.476,46.798,28.457z"/>
			<path fill-rule="evenodd" clip-rule="evenodd" fill="#74746D" d="M29.674,34.343c-0.15,0-0.301-0.004-0.451,0.001
				c-0.104,0.004-0.132-0.077-0.171-0.144c-0.223-0.376-0.449-0.751-0.662-1.133c-0.062-0.111-0.133-0.151-0.258-0.15
				c-0.635,0.005-1.271,0.006-1.905,0c-0.132-0.001-0.212,0.038-0.278,0.157c-0.198,0.357-0.42,0.701-0.612,1.062
				c-0.088,0.166-0.192,0.236-0.377,0.21c-0.1-0.015-0.203-0.003-0.302-0.003c-0.038-0.085,0.024-0.132,0.055-0.184
				c0.76-1.314,1.522-2.626,2.285-3.938c0.119-0.205,0.215-0.22,0.319-0.039c0.788,1.365,1.573,2.731,2.357,4.099
				C29.68,34.29,29.674,34.307,29.674,34.343z M26.28,32.514c0.585,0,1.134,0.002,1.683-0.001c0.12-0.001,0.077-0.073,0.042-0.133
				c-0.251-0.431-0.504-0.859-0.749-1.293c-0.059-0.103-0.099-0.09-0.148-0.007C26.838,31.547,26.569,32.014,26.28,32.514z"/>
			<path fill-rule="evenodd" clip-rule="evenodd" fill="#74746D" d="M6.329,31.761c0.221-0.226,0.425-0.372,0.662-0.468
				c0.601-0.243,1.445-0.203,1.903,0.256c0.197,0.198,0.28,0.442,0.313,0.701c0.083,0.653,0.041,1.311,0.049,1.966
				c0.001,0.079-0.026,0.114-0.11,0.128c-0.376,0.06-0.429,0.019-0.428-0.356c0-0.423-0.02-0.848,0.006-1.269
				c0.07-1.16-0.764-1.306-1.514-1.093c-0.562,0.159-0.858,0.58-0.867,1.162c-0.006,0.459-0.02,0.919-0.008,1.378
				c0.006,0.251-0.162,0.165-0.28,0.175c-0.125,0.011-0.236,0.027-0.233-0.177c0.013-0.934,0.01-1.868,0.007-2.802
				c0-0.118,0.027-0.163,0.156-0.165c0.342-0.004,0.342-0.01,0.343,0.326C6.329,31.58,6.329,31.638,6.329,31.761z"/>
			<path fill-rule="evenodd" clip-rule="evenodd" fill="#74746D" d="M1.057,32.188c0-0.643,0.004-1.284-0.002-1.927
				c-0.002-0.141,0.018-0.207,0.185-0.203c0.356,0.008,0.357-0.003,0.357,0.355c0,1.103,0.005,2.204-0.002,3.306
				c-0.001,0.188,0.061,0.234,0.238,0.231c0.533-0.01,1.065,0.003,1.598-0.007c0.164-0.003,0.189,0.06,0.19,0.202
				c0.001,0.148-0.035,0.202-0.194,0.199c-0.73-0.007-1.46-0.006-2.189,0c-0.143,0-0.188-0.041-0.186-0.187
				c0.007-0.657,0.003-1.314,0.003-1.971C1.055,32.188,1.056,32.188,1.057,32.188z"/>
			<path fill-rule="evenodd" clip-rule="evenodd" fill="#74746D" d="M35.042,33.502c0-0.713,0.005-1.427-0.001-2.141
				c-0.002-0.281,0.2-0.129,0.311-0.156c0.135-0.033,0.203,0.031,0.192,0.18c-0.004,0.062-0.07,0.16,0.023,0.191
				c0.074,0.025,0.11-0.078,0.164-0.121c0.333-0.268,0.698-0.371,1.121-0.266c0.155,0.039,0.125,0.09,0.059,0.188
				c-0.092,0.135-0.173,0.219-0.373,0.186c-0.372-0.062-0.704,0.183-0.867,0.56c-0.152,0.354-0.113,0.729-0.133,1.097
				c-0.016,0.312-0.01,0.628,0,0.941c0.005,0.146-0.046,0.2-0.188,0.184c-0.05-0.006-0.103-0.005-0.153,0
				c-0.139,0.015-0.196-0.036-0.188-0.185c0.011-0.218,0.002-0.438,0.002-0.656C35.021,33.502,35.032,33.502,35.042,33.502z"/>
			<path fill-rule="evenodd" clip-rule="evenodd" fill="#74746D" d="M4.243,32.755c0-0.452,0.005-0.903-0.003-1.355
				c-0.002-0.143,0.021-0.207,0.186-0.203c0.318,0.01,0.319-0.001,0.319,0.327c0,0.874-0.01,1.749,0.006,2.624
				c0.003,0.211-0.096,0.207-0.234,0.194c-0.126-0.011-0.298,0.076-0.287-0.188c0.018-0.466,0.005-0.933,0.005-1.399
				C4.236,32.755,4.24,32.755,4.243,32.755z"/>
			<path fill-rule="evenodd" clip-rule="evenodd" fill="#74746D" d="M5.553,29.787c-0.341,0.301-0.641,0.582-0.958,0.841
				c-0.153,0.124-0.349,0.021-0.577,0.069c0.268-0.32,0.499-0.594,0.728-0.869c0.027-0.033,0.06-0.041,0.096-0.041
				C5.064,29.787,5.287,29.787,5.553,29.787z"/>
			<path fill-rule="evenodd" clip-rule="evenodd" fill="#74746D" d="M33.289,29.787c-0.345,0.303-0.643,0.574-0.953,0.832
				c-0.161,0.133-0.36,0.034-0.591,0.067c0.265-0.305,0.499-0.573,0.731-0.844c0.049-0.057,0.112-0.056,0.178-0.056
				C32.849,29.787,33.044,29.787,33.289,29.787z"/>
		</g>
	</g>
</g>
<g id="Layer_2">
</g>
</svg>
