<?xml version="1.0" encoding="utf-8"?>
<!-- Generator: Adobe Illustrator 16.2.1, SVG Export Plug-In . SVG Version: 6.00 Build 0)  -->
<!DOCTYPE svg PUBLIC "-//W3C//DTD SVG 1.1//EN" "http://www.w3.org/Graphics/SVG/1.1/DTD/svg11.dtd">
<svg version="1.1" id="svg2367" xmlns:svg="http://www.w3.org/2000/svg"
	 xmlns="http://www.w3.org/2000/svg" xmlns:xlink="http://www.w3.org/1999/xlink" x="0px" y="0px" width="50px" height="50px"
	 viewBox="393.414 106.031 50 50" enable-background="new 393.414 106.031 50 50" xml:space="preserve">
<path id="path2516" fill="#FF0000" d="M420.606,154.62c-1.559-1.228-2.41-2.747-2.402-4.288c0.003-1.315,2.402-8.39,5.334-15.723
	c2.933-7.329,5.237-13.407,5.123-13.508c-0.115-0.102-6.737,2.402-14.718,5.564c-13.274,5.259-14.711,5.649-16.89,4.586
	c-1.311-0.639-2.762-2.309-3.222-3.707c-1.615-4.889,0.564-6.287,22.797-14.609c18.54-6.946,20.527-7.515,22.901-6.531
	c4.738,1.963,5.021,4.742,1.506,14.802c-5.412,15.485-11.974,32.731-12.737,33.474C426.429,156.507,422.97,156.479,420.606,154.62
	L420.606,154.62z"/>
</svg>
