<?xml version="1.0" encoding="utf-8"?>
<!-- Generator: Adobe Illustrator 16.2.1, SVG Export Plug-In . SVG Version: 6.00 Build 0)  -->
<!DOCTYPE svg PUBLIC "-//W3C//DTD SVG 1.1//EN" "http://www.w3.org/Graphics/SVG/1.1/DTD/svg11.dtd">
<svg version="1.1" id="svg2" xmlns:svg="http://www.w3.org/2000/svg"
	 xmlns="http://www.w3.org/2000/svg" xmlns:xlink="http://www.w3.org/1999/xlink" x="0px" y="0px" width="50px" height="50px"
	 viewBox="350.5 100.5 50 50" enable-background="new 350.5 100.5 50 50" xml:space="preserve">
<g id="layer1">
	<path id="text3302" fill="#252F86" d="M369.128,120.52h2.734v3.418c0.269-0.293,0.586-0.537,0.928-0.684
		c0.342-0.098,0.732-0.195,1.147-0.195c0.879,0,1.587,0.293,2.148,0.928s0.854,1.514,0.854,2.686c0,0.781-0.122,1.465-0.391,2.051
		s-0.61,1.025-1.074,1.318s-0.952,0.439-1.514,0.439c-0.488,0-0.928-0.098-1.318-0.293c-0.293-0.146-0.635-0.488-0.977-0.928v1.074
		h-2.539V120.52z M371.838,126.77c0,0.586,0.122,1.025,0.342,1.318c0.244,0.293,0.537,0.391,0.879,0.391s0.61-0.098,0.83-0.391
		c0.22-0.244,0.317-0.732,0.317-1.367c0-0.537-0.098-0.977-0.317-1.221c-0.22-0.293-0.464-0.391-0.781-0.391
		c-0.366,0-0.684,0.146-0.903,0.391C371.96,125.793,371.838,126.184,371.838,126.77L371.838,126.77z M378.381,120.52h2.734v9.814
		h-2.734V120.52z M390.686,130.334h-2.539v-1.172c-0.391,0.488-0.757,0.83-1.147,1.025s-0.879,0.293-1.44,0.293
		c-0.732,0-1.318-0.195-1.758-0.684c-0.415-0.439-0.635-1.123-0.635-2.051v-4.541h2.734v3.906c0,0.488,0.098,0.781,0.244,0.977
		c0.171,0.195,0.415,0.293,0.708,0.293c0.317,0,0.586-0.146,0.806-0.391c0.195-0.244,0.293-0.684,0.293-1.367v-3.418h2.734V130.334z
		 M400.5,127.453h-5.469c0.049,0.439,0.171,0.781,0.366,0.977c0.269,0.293,0.61,0.439,1.025,0.439c0.269,0,0.513-0.049,0.757-0.195
		c0.146-0.049,0.317-0.195,0.488-0.439l2.686,0.244c-0.415,0.732-0.903,1.221-1.489,1.562c-0.586,0.293-1.416,0.439-2.49,0.439
		c-0.952,0-1.685-0.098-2.222-0.391c-0.562-0.244-1.001-0.684-1.343-1.27c-0.366-0.586-0.537-1.27-0.537-2.051
		c0-1.074,0.342-2.002,1.074-2.686c0.708-0.684,1.685-1.025,2.93-1.025c1.025,0,1.831,0.146,2.417,0.488
		c0.586,0.293,1.025,0.732,1.343,1.318s0.464,1.367,0.464,2.295V127.453z M397.741,126.135c-0.073-0.537-0.195-0.879-0.439-1.123
		c-0.22-0.244-0.537-0.342-0.903-0.342c-0.439,0-0.781,0.195-1.05,0.537c-0.146,0.195-0.269,0.537-0.293,0.928H397.741z"/>
	<path id="text3298" fill="#828282" d="M355.554,129.455c-0.464,0.391-0.879,0.635-1.294,0.781
		c-0.415,0.195-0.854,0.244-1.318,0.244c-0.781,0-1.392-0.195-1.807-0.537c-0.415-0.391-0.635-0.879-0.635-1.465
		c0-0.391,0.073-0.684,0.244-0.977c0.146-0.293,0.366-0.537,0.61-0.684c0.269-0.195,0.562-0.293,0.879-0.391
		c0.22-0.098,0.586-0.146,1.074-0.195c0.952-0.098,1.685-0.244,2.148-0.391c0-0.195,0-0.293,0-0.342c0-0.488-0.122-0.83-0.342-1.025
		c-0.317-0.293-0.757-0.391-1.367-0.391c-0.586,0-1.001,0.098-1.27,0.293s-0.464,0.537-0.586,1.025l-1.196-0.146
		c0.122-0.488,0.293-0.928,0.537-1.221s0.61-0.537,1.074-0.732c0.464-0.146,1.001-0.244,1.611-0.244s1.099,0.098,1.465,0.195
		c0.391,0.146,0.659,0.342,0.854,0.586c0.171,0.195,0.293,0.488,0.366,0.781c0.049,0.244,0.049,0.586,0.049,1.123v1.611
		c0,1.123,0.049,1.807,0.098,2.1c0.049,0.342,0.146,0.586,0.293,0.879h-1.245C355.651,130.09,355.578,129.797,355.554,129.455
		L355.554,129.455z M355.456,126.77c-0.439,0.195-1.099,0.342-1.978,0.439c-0.488,0.098-0.854,0.146-1.05,0.244
		s-0.366,0.244-0.488,0.391c-0.098,0.195-0.146,0.391-0.146,0.586c0,0.293,0.122,0.586,0.366,0.781
		c0.244,0.244,0.586,0.342,1.05,0.342s0.879-0.098,1.245-0.293s0.635-0.488,0.806-0.83c0.122-0.293,0.195-0.684,0.195-1.221V126.77z
		 M359.387,121.887v-1.367h1.196v1.367H359.387z M359.387,130.334v-7.129h1.196v7.129H359.387z M363.732,130.334v-7.129h1.074v1.074
		c0.269-0.488,0.537-0.83,0.757-0.977c0.244-0.146,0.488-0.244,0.781-0.244c0.415,0,0.83,0.146,1.245,0.391l-0.415,1.123
		c-0.293-0.195-0.586-0.244-0.879-0.244c-0.269,0-0.513,0.049-0.732,0.195c-0.195,0.195-0.342,0.391-0.439,0.684
		c-0.122,0.439-0.195,0.879-0.195,1.416v3.711H363.732z"/>
</g>
</svg>
