<?xml version="1.0" encoding="utf-8"?>
<!-- Generator: Adobe Illustrator 16.2.1, SVG Export Plug-In . SVG Version: 6.00 Build 0)  -->
<!DOCTYPE svg PUBLIC "-//W3C//DTD SVG 1.1//EN" "http://www.w3.org/Graphics/SVG/1.1/DTD/svg11.dtd">
<svg version="1.1"
	 id="svg2" xmlns:inkscape="http://www.inkscape.org/namespaces/inkscape" xmlns:dc="http://purl.org/dc/elements/1.1/" xmlns:cc="http://creativecommons.org/ns#" xmlns:sodipodi="http://sodipodi.sourceforge.net/DTD/sodipodi-0.dtd" xmlns:rdf="http://www.w3.org/1999/02/22-rdf-syntax-ns#" inkscape:version="0.48.1 " sodipodi:docname="AJAX.svg" xmlns:svg="http://www.w3.org/2000/svg"
	 xmlns="http://www.w3.org/2000/svg" xmlns:xlink="http://www.w3.org/1999/xlink" x="0px" y="0px" width="50px" height="50px"
	 viewBox="0.5 30.5 50 50" enable-background="new 0.5 30.5 50 50" xml:space="preserve">
<sodipodi:namedview  inkscape:window-maximized="1" inkscape:current-layer="svg2" inkscape:window-height="1004" inkscape:window-x="-8" inkscape:zoom="1.4977536" guidetolerance="10" borderopacity="1" gridtolerance="10" showgrid="false" objecttolerance="10" pagecolor="#ffffff" bordercolor="#666666" inkscape:cy="128.00579" inkscape:cx="332.59634" inkscape:window-width="1280" inkscape:pageopacity="0" inkscape:pageshadow="2" inkscape:window-y="-8" fit-margin-left="0" fit-margin-top="0" id="namedview48" fit-margin-bottom="0" fit-margin-right="0">
	</sodipodi:namedview>
<g id="polygon8">
	<polygon fill="#FFBF00" points="0.5,71.413 37.584,71.413 50.5,38.58 50.5,38.58 29.542,38.58 	"/>
</g>
<g id="path10">
	<path inkscape:connector-curvature="0" fill="#FFFFFF" d="M36.266,59.741c0.059-0.246,0.103-0.568,0.133-0.768
		c0.025-0.2-0.375-1.298-0.467-1.567c-0.088-0.272-0.236-1.062-0.181-1.253c0.08-0.273,0.154-0.441,0.261-0.656
		c0.101-0.214,0.181-0.341,0.387-0.597c0.206-0.257,0.67-1.026,0.826-1.712c0.048-0.219,0.658-1.11,0.696-1.138
		c0.046-0.035,0.025,0.6,0,0.74c-0.025,0.144,0.71-0.141,0.773-0.199c0.065-0.055-0.296,0.941-0.361,1.025
		c-0.063,0.089,0.334-0.013,0.439-0.055c0.101-0.046,0.374,0.1,0.336,0.169c-0.04,0.071-1.112,1.228-1.318,1.341
		c-0.208,0.114-0.375,0.41-0.465,0.57c-0.09,0.153-0.141,1.036,0,0.826c0.141-0.215,0.826-0.711,0.904-0.742
		c0.076-0.027,0.389,0.229,0.389,0.229s-1.474,1.694-1.497,1.88c-0.029,0.185,0.429-0.097,0.429-0.097s-0.185,1.846-0.249,2.23
		c-0.065,0.385-0.273,0.755-0.387,0.911c-0.12,0.157-0.517,0.303-0.778,0.343l-0.703,0.115c0.072,0.392,0.135,0.883,0.109,1.026
		c-0.038,0.214-0.193,0.812-0.593,1.28c-0.4,0.474-0.606,0.729-0.724,0.94c-0.116,0.216-0.193,0.971-0.076,1.169
		c0.116,0.202,0.568,1.156,0.568,1.369c0,0.216-0.09,0.397-0.179,0.569c-0.093,0.171-0.375,0.896-0.439,1.169
		c-0.063,0.27-0.13,1.081-0.13,1.081c0,0.131-0.322,0.884-0.334,0.942c-0.015,0.059-0.481,0.385-0.75,0.341
		c-0.273-0.045-0.623,0.029-0.671-0.057c-0.053-0.085-0.132-0.284-0.103-0.397c0.025-0.114,0.5-0.6,0.62-0.716
		c0.116-0.113,0.542-1.065,0.644-1.45c0.105-0.385,0.208-1.241,0.154-1.369c-0.049-0.128-0.93-0.94-1.056-1.167
		c-0.126-0.228-0.387-0.892-0.528-1.304c-0.141-0.412-0.635,0.067-0.764,0.223c-0.13,0.158-0.412,0.77-0.334,0.997
		c0.078,0.229,0.389,0.597,0.389,0.656c0,0.057-0.248,0.441-0.364,0.458c-0.115,0.013-0.502,0.067-0.696,0.113
		c-0.193,0.042-1.55,0.568-1.627,0.568h-0.412c-0.118,0-0.244,0.673-0.286,0.77c-0.038,0.101-0.269,0.311-0.362,0.341
		c-0.336,0.115-0.85-0.114-1.005-0.228c-0.097-0.071-0.312-0.355-0.183-0.509c0.132-0.16,0.57-0.77,0.776-1.028
		c0.111-0.137,0.93-0.057,1.497-0.257c0.223-0.077,1.213-0.427,1.292-0.626c0.08-0.2,0.16-0.233,0.107-0.364
		c-0.052-0.13-0.206-0.328-0.361-0.496c-0.154-0.173-1.012-0.904-0.595-1.447c0.265,0.005,1.266,0.114,0.824,0
		c-0.438-0.113-0.852-0.029-1.291-0.029c-0.438,0-0.646-0.027-0.982-0.113c-0.334-0.084-1.266-0.828-1.575-1.167
		c-0.309-0.343-1.627-1.31-1.833-1.396c-0.206-0.086-0.362-0.141-0.465-0.229c-0.103-0.082-0.088-0.246-0.242-0.564
		c-0.156-0.312-0.997-1.656-1.152-1.771c-0.154-0.109-0.696,0.942-0.829,1.225c-0.128,0.285-0.048,0.599,0,0.744
		c0.055,0.139,0.105,0.252,0.105,0.397c0,0.145-0.048,0.429-0.181,0.6c-0.13,0.168,0.05,0.197,0.156,0.369
		c0.105,0.169-0.105,0.682-0.231,0.911c-0.128,0.229-0.286,0.37-0.391,0.343c-0.101-0.029-0.256-0.343-0.387-0.572
		c-0.13-0.225-0.101-0.425-0.025-0.627c0.076-0.199,0.105-0.285,0.105-0.454c0-0.172-0.233-0.315-0.261-0.542
		c-0.025-0.228,0.051-0.399,0.208-0.656c0.153-0.257,0.595-1.424,0.646-1.652c0.05-0.228,0.088-0.711,0.181-0.884
		c0.181-0.341,0.593-0.341,0.774-0.227c0.181,0.113,1.36,0.719,1.089,0.531c-0.006-0.021-0.038-0.157-0.08-0.586
		c-0.048,0.05-0.644-0.852-0.75-0.97c-0.154-0.17-0.259-0.313-0.465-0.141c-0.206,0.172-1.316,1.14-1.161,1.366
		c0.151,0.228-0.156,0.543-0.156,0.543s-0.059,0.297,0.13,0.399c0.568,0.315-0.025,1.001-0.053,1.083c0,0-0.498-0.002-0.591-0.031
		c-0.036-0.009-0.517-0.652-0.494-0.824c0.027-0.173,0.105-0.4,0.132-0.543c0.025-0.141-0.05-0.341-0.105-0.425
		c-0.027-0.044-0.015-0.155,0.105-0.315c0.229-0.315,0.568-0.826,0.852-1.14c0.282-0.313,0.952-1.422,1.083-1.48
		s0.208-0.199,0.364-0.113c0.154,0.084,0.759,0.454,0.759,0.454c-0.135-0.29-0.332-0.715-0.385-0.82
		c-0.074-0.17-0.166-0.518-0.065-0.547c0.105-0.031,0.261-0.031,0.467,0.226c0.206,0.256-0.53-0.904-0.656-1.104
		c-0.132-0.201-0.172-0.547-0.172-0.547s0.387,0.14,0.515,0.313c0.132,0.171-0.217-0.479-0.317-0.649
		c-0.101-0.17-0.301-0.492-0.198-0.576c0.105-0.089,0.353-0.168,0.172-0.421c-0.181-0.256-0.429-1.005-0.509-1.202
		c-0.076-0.202,0.673,0.084,0.673,0.084c-0.206-0.257-1.295-2.04-1.186-2.279c0.126-0.286,0.997,0.46,0.816,0.203
		c-0.181-0.254-1.733-2.323-1.463-2.597c0.218-0.219,0.513,0.067,0.521,0.055c0-0.002-0.021-0.033-0.084-0.113
		c-0.256-0.341-1.266-1.508-1.056-1.765c0.206-0.256,0.206-0.256,0.542,0c0.333,0.257,0.261,0.045-0.088-0.25
		c-0.791-0.66-0.925-1.196-0.921-1.203c0.004-0.004,0.967,0.095,1.708,0.804c-0.635-0.715-2.41-2.775-2.275-2.939
		c0.206-0.255,2.014,0.996,2.735,1.682c0.724,0.68,2.065,2.534,2.66,3.531c0.53,0.894,1.569,3.808,1.548,3.816
		c0.151,0.031,0.256,0.088,0.412,0.141c0.298,0.101,0.829,0.474,1.114,0.742c0.284,0.27,0.526,0.684,0.749,1.081
		c0.223,0.401,0.412,1.14,0.515,1.623c0.105,0.486,0.078,1.271,0.053,1.624c-0.027,0.357-0.141,0.914-0.21,1.085
		c-0.08,0.208-0.185,0.391-0.206,0.425c-0.012-0.173-0.063,0.328,0.055,0.77c0.072,0.286,0.202,0.66,0.294,0.832
		c0.181-0.159,0.572-0.5,0.761-0.748c0.312-0.399,0.492-1.296,0.467-2.137c-0.025-0.766-0.181-2.221-0.311-2.932
		c-0.13-0.71-0.206-1.764-0.13-2.477c0.08-0.711,0.492-2.082,0.829-2.708c0.336-0.627,1.369-1.935,1.989-2.532
		c0.618-0.6,0.854-0.828,1.625-1.482c0.776-0.654,2.584-1.68,3.202-2.021s1.834-0.854,2.351-0.997
		c0.517-0.147,2.675-0.77,2.997-0.77c0.464,0,0,0.513-0.233,0.686c-0.229,0.168-1.03,0.879-1.367,1.136
		c-0.261,0.199,0.076,0.343,0.336,0.286c0.256-0.055,0.462,0.227,0.332,0.483s-1.935,1.937-1.653,1.88
		c0.286-0.055,0.724-0.084,0.803,0.202c0.069,0.272-2.225,1.909-1.964,1.822c0.256-0.084,0.362,0.313,0.311,0.457
		c-0.055,0.141-0.622,0.713-1.009,0.912c-0.387,0.198-0.955,0.511-0.618,0.511c0.332,0-0.233,0.684-0.467,0.911
		c-0.231,0.229-0.875,0.864-0.824,0.996c0.128,0.343-0.21,0.77-0.623,1.115c-0.412,0.34-0.626,0.403-0.412,0.569
		c0.259,0.2-0.05,0.57-0.286,0.826c-0.231,0.257-0.761,0.598-0.412,0.598c0.467,0,0.236,0.597,0.025,0.799
		c-0.204,0.198-0.694,0.341-0.539,0.625c0.181,0.334-0.08,0.542-0.286,0.683c-0.206,0.142-0.631,0.009-0.284,0.228
		c0.179,0.113-0.57,0.883-0.57,0.997c0,0.283-0.361,0.456-0.361,0.713c0,0.639-1.005,0.683-0.955,0.826
		c0.118,0.326-0.181,0.542-0.412,0.656c-0.231,0.113-0.647,0.168-0.412,0.399c0.24,0.235-0.717,0.673-0.593,0.656
		c0.034,0.044,1.058,0.382,1.371,0.37c0.309-0.018,2.141,0.029,2.271,0.057s1.11,0.671,1.316,0.939
		c0.208,0.27,0.414,0.627,0.492,0.884C35.345,60.91,36.06,60.624,36.266,59.741L36.266,59.741z"/>
</g>
<g id="path12">
	<path inkscape:connector-curvature="0" fill="#F20000" d="M29.159,64.557c0.025,0.055,0.048,0.113,0.069,0.168
		c0.08,0.185,0.276,0.37,0.429,0.54c0.153,0.173,0.309,0.372,0.362,0.498c0.05,0.127,0.013,0.299-0.065,0.497
		c-0.076,0.201-0.336,0.315-0.57,0.414c-0.231,0.099-0.542,0.17-0.761,0.257c-0.219,0.084-0.517,0.099-0.723,0.153
		c-0.206,0.057-0.244,0.031-0.452,0.031c-0.208,0-0.154-0.044-0.309,0.027c-0.16,0.073-0.12,0.131-0.168,0.271
		c-0.05,0.143-0.168,0.241-0.286,0.401c-0.116,0.155-0.128,0.128-0.257,0.284c-0.13,0.153-0.04,0.086-0.04,0.217
		c0,0.126,0.048,0.097,0.221,0.21c0.168,0.117,0.374,0.16,0.567,0.189c0.193,0.027,0.271-0.018,0.362-0.047
		c0.092-0.027,0.168-0.185,0.206-0.286c0.038-0.099,0.013-0.17,0.038-0.354c0.029-0.186,0.067-0.257,0.105-0.37
		c0.04-0.116,0.076-0.1,0.195-0.1c0.116,0,0.362,0.027,0.439,0.027c0.076,0,0.063-0.044,0.139-0.084
		c0.078-0.044,0.439-0.214,0.686-0.301c0.244-0.084,0.673-0.155,0.866-0.197c0.193-0.046,0.555-0.071,0.668-0.089
		c0.118-0.012,0.13-0.055,0.168-0.113c0.042-0.055,0.063-0.113,0.063-0.168c0-0.057-0.113-0.173-0.256-0.328
		c-0.143-0.157-0.088-0.188-0.168-0.412c-0.076-0.228,0-0.357,0.013-0.513c0.013-0.156,0.21-0.412,0.336-0.572
		c0.116-0.139,0.387-0.21,0.553-0.252h0.368c0.013,0.033,0.025,0.062,0.034,0.097c0.143,0.412,0.481,1.056,0.61,1.284
		c0.13,0.226,0.387,0.454,0.656,0.671c0.273,0.215,0.361,0.439,0.414,0.567c0.053,0.131,0.04,0.341,0.04,0.558
		c0,0.215-0.093,0.355-0.193,0.74c-0.105,0.385-0.322,0.812-0.425,1.096c-0.105,0.286-0.233,0.414-0.349,0.527
		c-0.118,0.116-0.246,0.186-0.391,0.328c-0.137,0.142-0.101,0.153-0.126,0.271c-0.027,0.113,0.051,0.186,0.101,0.271
		c0.053,0.084,0.08,0,0.349,0.044c0.271,0.042,0.581-0.031,0.686-0.071c0.103-0.044,0.143-0.089,0.156-0.144s0.013-0.143,0-0.283
		c-0.013-0.144,0.061-0.186,0.101-0.301c0.04-0.116,0.118-0.156,0.181-0.24c0.067-0.086,0.05-0.143,0.05-0.271
		c0-0.133-0.013-0.343-0.013-0.486c0-0.141,0.118-0.328,0.181-0.597c0.065-0.273,0.118-0.442,0.153-0.627
		c0.04-0.186,0.208-0.412,0.299-0.585c0.09-0.168,0.09-0.298,0.09-0.513c0-0.213-0.027-0.324-0.116-0.425
		c-0.093-0.101-0.107-0.202-0.261-0.328c-0.154-0.13-0.128-0.257-0.244-0.454c-0.116-0.2-0.048-0.412-0.038-0.673
		c0.008-0.193,0.069-0.313,0.149-0.454h0.353c-0.13,0.227-0.168,0.438-0.195,0.584c-0.04,0.215,0,0.388,0.065,0.585
		c0.063,0.2,0.32,0.454,0.438,0.609c0.118,0.158,0.143,0.304,0.143,0.43s0.012,0.471-0.015,0.611
		c-0.025,0.142-0.048,0.339-0.048,0.339s-0.21,0.131-0.336,0.273c-0.13,0.143-0.065,0.199-0.105,0.354
		c-0.038,0.159-0.063,0.416-0.141,0.559c-0.078,0.14-0.103,0.324-0.141,0.455c-0.04,0.13,0.04,0.37,0.04,0.513
		s-0.053,0.215-0.168,0.354c-0.116,0.143-0.166,0.227-0.181,0.315c-0.013,0.088,0,0.13,0.048,0.201
		c0.055,0.069,0.055,0.055-0.025,0.142c-0.076,0.086-0.168,0.216-0.319,0.34c-0.156,0.129-0.286,0.087-0.584,0.142
		c-0.294,0.057-0.244,0-0.5-0.015c-0.259-0.013-0.194-0.045-0.322-0.069c-0.133-0.03-0.093-0.129-0.133-0.286
		c-0.038-0.156,0.027-0.315,0.063-0.441c0.042-0.129,0.248-0.313,0.391-0.47c0.139-0.157,0.244-0.271,0.332-0.343
		c0.092-0.071,0.065-0.113,0.132-0.271c0.061-0.154,0.229-0.439,0.313-0.64c0.076-0.199,0.193-0.883,0.219-1.196
		c0.025-0.315-0.156-0.614-0.246-0.744c-0.09-0.127-0.427-0.324-0.583-0.442c-0.153-0.113-0.113-0.212-0.294-0.496
		c-0.181-0.283-0.248-0.611-0.313-0.782c-0.023-0.059-0.053-0.135-0.093-0.223c-0.027,0.002-0.053,0.006-0.088,0.009
		c-0.116,0.015-0.132,0.042-0.41,0.143c-0.288,0.097-0.273,0.257-0.336,0.383c-0.063,0.13-0.05,0.286-0.05,0.441
		s0.294,0.471,0.375,0.585c0.076,0.113,0.038,0.17-0.042,0.326c-0.076,0.157-0.141,0.17-0.256,0.285
		c-0.118,0.114-0.143,0.084-0.492,0.154c-0.349,0.071-0.723,0.103-1.043,0.187c-0.324,0.086-0.66,0.229-0.789,0.326
		c-0.128,0.101-0.128,0.101-0.193,0.13c-0.065,0.03-0.181-0.017-0.336,0c-0.153,0.015-0.116,0.087-0.141,0.186
		c-0.023,0.099-0.025,0.227-0.051,0.399c-0.029,0.173-0.103,0.257-0.223,0.357c-0.114,0.101-0.32,0.168-0.476,0.215
		c-0.155,0.042-0.361-0.047-0.467-0.057c-0.101-0.015-0.269-0.142-0.464-0.326c-0.196-0.186-0.128-0.202-0.233-0.387
		c-0.101-0.186,0.042-0.315,0.13-0.412c0.092-0.102,0.286-0.357,0.376-0.442c0.092-0.084,0.166-0.256,0.273-0.427
		c0.101-0.17,0.41-0.155,0.583-0.141c0.166,0.013,0.32-0.029,0.542-0.055c0.219-0.029,0.294-0.057,0.4-0.086
		c0.103-0.032,0.218-0.087,0.618-0.217c0.401-0.128,0.593-0.239,0.698-0.354c0.105-0.115-0.04-0.328-0.132-0.498
		c-0.088-0.171-0.317-0.328-0.462-0.498c-0.141-0.173-0.181-0.286-0.284-0.484c-0.025-0.046-0.046-0.086-0.061-0.13h0.349V64.557
		L29.159,64.557z"/>
</g>
<g id="path14">
	<path inkscape:connector-curvature="0" fill="#F20000" d="M19.888,57.688c-0.013,0.015-0.021,0.029-0.034,0.042
		c-0.118,0.16-0.147,0.193-0.143,0.202c0.004,0.004,0.044-0.013,0.067,0.029c0.05,0.084,0.153,0.315,0.128,0.454
		c-0.027,0.143-0.154,0.228-0.179,0.399c-0.03,0.173,0.076,0.257,0.206,0.543c0.086,0.188,0.103,0.239,0.134,0.261
		c0.019,0.013,0.038,0.013,0.072,0.025c0.092,0.024,0.494-0.021,0.559-0.03l0.048-0.115c0.032-0.082,0.072-0.191,0.116-0.284
		c0.076-0.17,0.027-0.227-0.156-0.343c-0.181-0.113-0.181-0.283-0.206-0.427c-0.027-0.143,0.13-0.313,0.13-0.313
		s0.206,0.029,0.051-0.199c-0.072-0.105-0.067-0.186-0.042-0.242h0.34c-0.021,0.034-0.042,0.065-0.067,0.102
		c-0.105,0.141,0.025,0.197,0,0.34c-0.025,0.142-0.156,0.2-0.181,0.313s0.13,0.144,0.257,0.286c0.025,0.027,0.046,0.046,0.063,0.063
		l0.042-0.093c0.076-0.173,0.076-0.341,0.076-0.514c0-0.168-0.126-0.312,0.027-0.454c0.015-0.017,0.031-0.029,0.048-0.044h0.462
		c-0.025,0.013-0.046,0.027-0.071,0.044c-0.181,0.114-0.259,0.171-0.259,0.37c0,0.198,0,0.313-0.052,0.539
		c-0.048,0.229-0.128,0.686-0.254,0.912c-0.133,0.228-0.181,0.572-0.337,0.828c-0.153,0.257-0.258,0.425-0.233,0.656
		c0.03,0.228,0.233,0.37,0.233,0.541c0,0.17,0,0.17-0.078,0.372c-0.076,0.197-0.13,0.399,0,0.626c0.13,0.226,0.153,0.4,0.259,0.425
		c0.103,0.03,0.132,0.055,0.256-0.17c0.133-0.225,0.233-0.339,0.261-0.511c0.025-0.173-0.027-0.228-0.132-0.401
		c-0.103-0.171-0.181-0.313-0.05-0.486c0.13-0.168,0.231-0.225,0.231-0.37c0-0.143-0.128-0.313-0.181-0.454
		c-0.05-0.141-0.13-0.341,0-0.627c0.132-0.285,0.286-0.768,0.362-1.025c0.076-0.257,0.076-0.43,0.258-0.543
		c0.183-0.113,0.231-0.139,0.389-0.029c0.151,0.115,0.412,0.485,0.568,0.77c0.155,0.286,0.465,0.854,0.62,1.167
		c0.154,0.313,0.181,0.485,0.284,0.57c0.103,0.088,0.155-0.03,0.361,0.057c0.21,0.086,0.724,0.401,0.955,0.597
		c0.231,0.2,0.646,0.486,0.955,0.826c0.311,0.343,0.467,0.572,0.773,0.798c0.312,0.229,0.442,0.312,0.774,0.401
		c0.336,0.084,0.542,0.113,0.984,0.113c0.437,0,0.824-0.057,1.266,0.055c0.438,0.118,0.568,0.118,0.824,0.257
		c0.261,0.143,0.492,0.374,0.492,0.374s-0.618-0.288-1.19-0.315c-0.333-0.017-0.627-0.025-0.894-0.025
		c-0.01,0.053-0.027,0.126-0.036,0.181c-0.008,0.072,0.044,0.206,0.109,0.346h-0.349c-0.067-0.152-0.113-0.291-0.172-0.402
		c-0.025-0.048-0.055-0.092-0.076-0.128c-0.389,0-0.854,0-1.19-0.116c-0.338-0.113-1.11-0.826-1.392-1.112
		c-0.286-0.285-0.904-0.941-1.213-1.11c-0.313-0.172-0.772-0.399-0.904-0.429c-0.132-0.025-0.208-0.055-0.208-0.055
		s-0.412-0.91-0.591-1.282c-0.183-0.37-0.336-0.684-0.494-0.824c-0.155-0.144-0.311-0.286-0.412-0.257
		c-0.105,0.027-0.181,0.313-0.258,0.483c-0.076,0.171-0.229,0.514-0.282,0.656c-0.055,0.141-0.156,0.197-0.055,0.427
		c0.107,0.226,0.212,0.454,0.181,0.598c-0.025,0.141-0.181,0.427-0.181,0.427s-0.025,0.199,0.027,0.313
		c0.055,0.115,0.286,0.312,0.21,0.456c-0.08,0.143-0.286,0.74-0.439,0.942c-0.155,0.199-0.259,0.285-0.364,0.312
		c-0.101,0.032-0.076,0-0.231-0.199c-0.155-0.202-0.387-0.541-0.41-0.74c-0.027-0.202-0.107-0.286,0-0.427
		c0.103-0.142,0.206-0.402,0.206-0.402l-0.154-0.225c-0.08-0.115-0.256-0.257-0.181-0.513c0.076-0.255,0.181-0.654,0.256-0.827
		l0.053-0.117c-0.103-0.013-0.328-0.034-0.469-0.053c-0.181-0.031-0.206-0.141-0.309-0.286c-0.103-0.141-0.103-0.454-0.208-0.597
		c-0.101-0.142-0.05-0.343,0-0.457c0.055-0.113,0.156-0.256,0.156-0.256s-0.13-0.198-0.181-0.37
		c-0.034-0.107,0.017-0.223,0.057-0.299H19.888L19.888,57.688L19.888,57.688z M22.743,57.688c0.105,0.067,0.214,0.143,0.313,0.21
		c0-0.05,0-0.119,0.004-0.193c-0.004-0.004-0.006-0.011-0.008-0.017h0.288c-0.023,0.177-0.046,0.332-0.038,0.37
		c0.273,0.185,1.253,1.098,1.434,1.268c0.181,0.171,0.208,0.257-0.051,0.142c-0.258-0.114-0.412-0.198-0.773-0.484
		c-0.362-0.285-0.619-0.485-0.98-0.742c-0.362-0.256-0.648-0.427-0.829-0.54c-0.006-0.004-0.015-0.009-0.023-0.013H22.743
		L22.743,57.688L22.743,57.688z M28.448,57.688c-0.09,0.055-0.172,0.101-0.25,0.128c-0.387,0.144-1.135,0.228-1.135,0.228
		s0.383-0.162,0.768-0.354L28.448,57.688L28.448,57.688L28.448,57.688z M31.039,57.688c-0.116,0.059-0.216,0.104-0.309,0.128
		c-0.21,0.057,0.051,0.257-0.13,0.427c-0.181,0.171-0.181,0.315-0.412,0.37l-0.025,0.007c0.046,0.036,0.109,0.069,0.164,0.095
		c0.13,0.057,0.273,0.029,0.568,0.017c0.299-0.017,1.06-0.017,1.447-0.017c0.391,0,0.441-0.029,0.904,0.042
		c0.467,0.071,0.71,0.257,1.138,0.529c0.427,0.27,0.67,0.654,0.864,0.911c0.088,0.115,0.172,0.309,0.244,0.498l0.042-0.017
		c0.167-0.071,0.387-0.355,0.5-0.782c0.116-0.425,0.208-0.968,0.168-1.182c-0.032-0.164-0.206-0.658-0.324-1.026h0.34
		c0.063,0.155,0.13,0.315,0.177,0.483c0.092,0.315,0.168,0.627,0.141,0.829c-0.025,0.197-0.049,0.555-0.154,0.782
		c-0.101,0.227-0.319,0.571-0.425,0.695c-0.105,0.129-0.246,0.286-0.311,0.343l-0.084,0.076l0.029,0.093
		c0.021,0.008,0.042,0.019,0.067,0.031c0.092,0.044,0.166,0.141,0.427,0.101c0.256-0.044,0.557-0.157,0.671-0.313
		c0.118-0.155,0.361-0.485,0.429-0.868c0.061-0.385,0.088-0.826,0.128-1.068c0.038-0.241,0.053-0.485,0.103-0.671
		c0.038-0.139,0.126-0.397,0.162-0.511h0.317c-0.072,0.273-0.225,1.169-0.236,1.411c-0.012,0.252-0.113,0.967-0.334,1.35
		c-0.221,0.388-0.296,0.585-0.465,0.698c-0.168,0.114-0.271,0.273-0.467,0.257c-0.193-0.015-0.45-0.029-0.57-0.071
		c-0.057-0.021-0.109-0.032-0.145-0.038c0.044,0.219,0.055,0.782,0.031,1.092c-0.027,0.327-0.208,0.67-0.374,0.998
		c-0.166,0.326-0.376,0.512-0.696,0.852c-0.101,0.107-0.176,0.213-0.231,0.313h-0.354c0.027-0.044,0.053-0.093,0.08-0.143
		c0.12-0.215,0.324-0.439,0.723-0.908c0.402-0.472,0.505-1.041,0.542-1.254c0.04-0.217-0.153-1.068-0.229-1.326
		c-0.08-0.257-0.301-0.612-0.502-0.882c-0.208-0.271-0.61-0.628-0.738-0.713c-0.132-0.086-0.298-0.185-0.423-0.216
		c-0.132-0.025-0.517-0.055-0.866-0.042c-0.349,0.012-1.072,0-1.383,0.017c-0.31,0.013-0.682-0.017-0.892-0.06
		c-0.206-0.042-0.194-0.113-0.333-0.197c-0.084-0.051-0.143-0.118-0.174-0.16c-0.124,0.021-0.259,0.055-0.423,0.144
		c-0.307,0.172-0.902,0.627-1.005,0.854l-0.105,0.228c0,0-0.076-0.257,0.08-0.543c0.156-0.284,0.256-0.454,0.644-0.654
		c0.387-0.199,0.984-0.343,1.112-0.456s0.359-0.37-0.053-0.227c-0.41,0.145-0.771,0.256-0.98,0.256c0,0,0.051-0.084,0.465-0.286
		c0.189-0.088,0.414-0.197,0.631-0.298h0.812V57.688L31.039,57.688z M37.524,57.688c-0.025,0.023-0.053,0.055-0.093,0.101
		c-0.116,0.139-0.221,0.312-0.254,0.383c-0.042,0.071-0.029,0.131-0.08,0.131c-0.05,0-0.076,0.042-0.092-0.057
		c-0.013-0.1-0.05-0.27-0.025-0.454c0.006-0.032,0.011-0.067,0.015-0.102h0.53V57.688L37.524,57.688z M31.592,64.557
		c0.019-0.009,0.042-0.013,0.055-0.018l0.019-0.004l-0.036-0.067c-0.076-0.155-0.136-0.313-0.229-0.485
		c-0.09-0.171-0.322-0.439-0.502-0.596c-0.181-0.155-0.269-0.301-0.505-0.485c-0.229-0.186-0.244-0.288-0.374-0.441
		c-0.128-0.156-0.063-0.186-0.063-0.186s0.013,0.044,0.208,0.186c0.191,0.141,0.296,0.185,0.553,0.37
		c0.261,0.185,0.585,0.527,0.764,0.768c0.166,0.225,0.343,0.58,0.481,0.954h-0.37V64.557z"/>
</g>
<g id="path16">
	<path inkscape:connector-curvature="0" fill="#F20000" d="M19.579,57.688c0.023-0.046,0.044-0.071,0.044-0.071
		s0.698-0.884,0.904-1.14c0.208-0.257,0.751-1.024,0.932-1.281c0.181-0.256,0.181-0.285,0.389-0.401
		c0.206-0.113,0.282,0.031,0.515,0.116c0.067,0.024,0.137,0.069,0.208,0.126c-0.105-0.158-0.265-0.399-0.336-0.696
		c-0.105-0.425-0.13-0.313-0.025-0.425c0.101-0.113,0.206-0.084,0.206-0.084s-0.336-0.458-0.439-0.744
		c-0.103-0.282-0.128-0.596-0.128-0.596s0.076-0.115,0.181-0.086c0.053,0.015,0.08,0.033,0.092,0.042
		c-0.05-0.075-0.277-0.438-0.324-0.639c-0.055-0.228-0.105-0.286,0.025-0.313c0.13-0.032,0.286-0.057,0.286-0.057
		s-0.442-0.827-0.518-1.083c-0.08-0.257-0.105-0.313-0.052-0.427c0.052-0.114,0-0.142,0.181-0.085
		c0.181,0.055,0.389,0.169,0.389,0.169s-0.438-0.654-0.618-1.024c-0.181-0.372-0.337-0.543-0.413-0.826
		c-0.08-0.286-0.13-0.401-0.13-0.401s0.048-0.114,0.206-0.114c0.156,0,0.362,0.029,0.362,0.029s-0.774-1.138-0.98-1.566
		c-0.21-0.429-0.361-0.656-0.286-0.799s0.286-0.084,0.286-0.084l0.103,0.027c0,0-0.725-1.026-0.852-1.251
		c-0.132-0.228-0.155-0.286-0.105-0.43c0.05-0.141,0.153-0.141,0.256-0.168c0.105-0.029,0.21,0,0.21,0s-0.623-0.513-0.723-0.74
		c-0.107-0.229-0.133-0.288-0.133-0.401c0-0.116-0.048-0.173,0.133-0.173c0.181,0,0.41,0.032,0.591,0.116
		c0.181,0.084,0.439,0.197,0.439,0.197s-0.673-0.824-0.934-1.136c-0.257-0.315-0.49-0.571-0.644-0.77
		c-0.156-0.199-0.286-0.34-0.181-0.485c0.101-0.141,0.025-0.225,0.438-0.115c0.412,0.113,1.421,0.685,1.833,1.027
		c0.415,0.343,1.449,1.426,1.678,1.71c0.233,0.284,1.035,1.367,1.266,1.767c0.233,0.399,1.06,1.907,1.266,2.477
		c0.208,0.568,0.518,1.338,0.593,1.653c0.046,0.172,0.071,0.323,0.088,0.42c0.091,0.018,0.185,0.042,0.273,0.076
		c0.467,0.185,1.266,0.728,1.459,1.068c0.143,0.248,0.584,0.74,0.723,1.14c0.143,0.399,0.505,1.678,0.505,2.137
		c0,0.456,0.013,1.381-0.143,1.862c-0.151,0.488-0.269,0.658-0.309,0.787c-0.017,0.057-0.036,0.104-0.048,0.143
		c0.008,0.071,0.019,0.135,0.025,0.168c0.042,0.186,0.09,0.397,0.168,0.57c0.042,0.095,0.105,0.189,0.151,0.254
		c0.354-0.334,0.883-0.974,0.932-1.68c0.053-0.797,0-2.647-0.284-4.13c-0.286-1.482-0.181-1.596-0.13-2.193
		c0.05-0.6,0.334-2.033,0.698-2.679c0.593-1.054,1.781-2.536,2.608-3.276c0.826-0.74,2.275-1.796,3.02-2.221
		c0.749-0.427,2.353-1.282,3.255-1.594c0.906-0.315,2.326-0.744,3.024-0.828s1.186-0.142,0.879,0.315
		c-0.313,0.456-0.879,0.996-1.14,1.198c-0.257,0.197-0.669,0.595-0.669,0.595s0.362-0.17,0.616-0.057
		c0.259,0.116,0.362,0.286,0.078,0.715c-0.284,0.425-0.749,0.966-1.031,1.225c-0.286,0.254-0.467,0.454-0.467,0.454
		s0.415-0.029,0.542,0.086c0.13,0.115,0.261,0.313-0.128,0.742c-0.389,0.425-1.033,0.913-1.266,1.081
		c-0.233,0.172-0.288,0.227-0.288,0.227s0.313,0.284,0.107,0.541c-0.208,0.256-0.494,0.626-0.904,0.883
		c-0.412,0.255-0.671,0.427-0.671,0.427s0.154,0.313-0.208,0.711c-0.362,0.399-1.112,1.112-1.112,1.112s0.361,0.372,0.105,0.684
		c-0.259,0.313-1.009,1.026-1.009,1.026s0.156,0.315-0.13,0.656l-0.568,0.683c0,0,0.336,0.171,0.286,0.339
		c-0.05,0.173-0.286,0.602-0.518,0.828c-0.231,0.228-0.361,0.373-0.361,0.373s0.231,0.199-0.025,0.511
		c-0.261,0.315-0.517,0.513-0.517,0.513s0.05,0.313-0.231,0.538c-0.286,0.229-0.362,0.286-0.362,0.286s0.101,0.202-0.181,0.43
		c-0.286,0.225-0.231,0.197-0.231,0.197s0.151,0.202,0.027,0.341c-0.132,0.143-0.441,0.458-0.776,0.599c0,0,0.181,0.341-0.128,0.57
		c-0.172,0.128-0.326,0.225-0.467,0.301h-0.816c0.263-0.124,0.507-0.235,0.635-0.301c0.233-0.115,0.771-0.543,0.181-0.399
		c-0.591,0.143-0.931,0.284-1.06,0.343c-0.128,0.057-0.101-0.116,0.027-0.2c0.13-0.088,0.259-0.113,0.673-0.286
		c0.412-0.172,1.085-0.429,1.291-0.542c0.21-0.113,0.387-0.425-0.151-0.2c-0.542,0.229-0.723,0.343-0.854,0.402
		c-0.13,0.055-0.412,0-0.156-0.118c0.256-0.113,0.98-0.483,1.186-0.598c0.21-0.113,0.776-0.567,0.336-0.399
		c-0.438,0.173-0.749,0.286-0.904,0.343c-0.151,0.057-0.438,0.057-0.101-0.084c0.334-0.141,1.136-0.574,1.392-0.742
		c0.261-0.17,0.623-0.572,0.231-0.454c-0.387,0.113-0.694,0.284-1.056,0.483c-0.362,0.198-0.313,0.257-0.414,0.228
		c-0.103-0.029-0.128-0.057,0.103-0.228c0.231-0.168,0.412-0.341,0.854-0.513c0.438-0.173,0.724-0.257,0.93-0.399
		c0.206-0.139,0.567-0.541,0.103-0.399c-0.465,0.141-1.163,0.511-1.422,0.655c-0.258,0.144-0.309,0.144-0.309,0.144
		s0.156-0.228,0.492-0.429c0.334-0.198,0.463-0.37,1.056-0.682c0.597-0.315,0.774-0.488,0.984-0.682
		c0.206-0.201,0.282-0.599-0.05-0.487c-0.336,0.117-0.854,0.456-1.112,0.626c-0.259,0.171-0.646,0.484-0.776,0.629
		c-0.128,0.141-0.284,0.313-0.284,0.198c0-0.114,0.053-0.198,0.233-0.37c0.181-0.171,1.031-0.827,1.342-1.083
		c0.311-0.257,0.749-0.541,0.98-0.797c0.233-0.255,0.492-0.627,0.233-0.6c-0.259,0.031-0.494,0.202-0.776,0.374
		c-0.282,0.169-0.9,0.654-1.03,0.824c-0.13,0.169-0.387,0.486-0.412,0.372c-0.025-0.115,0.13-0.343,0.542-0.683
		c0.412-0.341,0.799-0.742,1.188-0.999c0.387-0.255,0.595-0.427,1.009-0.768c0.41-0.341,0.57-0.427,0.591-0.567
		c0.027-0.144,0.027-0.202-0.13-0.173c-0.151,0.029-0.332,0.057-0.723,0.286c-0.387,0.225-1.085,0.711-1.292,0.852
		s-0.643,0.456-0.799,0.513s-0.233,0.057-0.181-0.057c0.05-0.113,0.309-0.168,0.593-0.397c0.282-0.229,1.495-1.14,2.065-1.482
		c0.572-0.341,1.058-0.77,1.293-0.997c0.229-0.227,0.621-0.739,0.284-0.739s-0.312,0.027-0.568,0.139
		c-0.261,0.117-1.655,0.943-1.964,1.14c-0.312,0.201-0.724,0.513-0.829,0.54c-0.101,0.031-0.229-0.057,0.029-0.197
		c0.257-0.142,1.935-1.254,2.376-1.482c0.437-0.226,1.447-0.74,1.835-0.94c0.387-0.197,0.824-0.54,0.877-0.684
		c0.05-0.141-0.027-0.37-0.286-0.283c-0.256,0.084-1.859,0.742-2.557,1.196c-0.698,0.458-0.98,0.485-1.266,0.656
		c-0.286,0.172-0.438,0.37-0.542,0.256c-0.105-0.113-0.181-0.029,0.206-0.256c0.391-0.228,2.38-1.363,2.791-1.569
		c0.75-0.37,1.293-0.681,1.861-0.996c0.566-0.313,1.316-1.024,1.367-1.167c0.051-0.142,0.025-0.343-0.256-0.286
		c-0.286,0.057-0.593,0.172-1.035,0.401c-0.435,0.225-2.218,1.236-2.502,1.451c-0.414,0.315-1.627,1.028-1.732,1.112
		c-0.101,0.086-0.278,0.057-0.048-0.141c0.387-0.341,1.806-1.138,2.09-1.311c0.288-0.17,1.939-1.253,2.326-1.537
		c0.389-0.286,1.884-1.596,2.017-1.853c0.128-0.254,0.229-0.511-0.025-0.456c-0.261,0.059-1.215,0.343-1.449,0.513
		c-0.233,0.173-2.065,1.338-2.454,1.624c-0.391,0.285-1.085,0.742-1.371,0.967l-0.568,0.458c0,0,0.315-0.382,0.644-0.683
		c0.467-0.427,3.129-2.337,3.8-2.793c0.671-0.454,1.911-1.482,2.143-1.65c0.231-0.173,0.724-0.6,0.412-0.514
		c-0.311,0.085-2.426,0.598-2.944,0.74c-0.517,0.146-1.703,0.627-2.326,0.97c-0.618,0.341-2.399,1.367-3.175,2.021
		c-0.773,0.656-1.007,0.884-1.627,1.48c-0.618,0.598-1.602,1.763-1.935,2.389c-0.336,0.631-0.698,1.969-0.776,2.68
		c-0.076,0.71-0.103,1.764,0.025,2.477c0.132,0.713,0.34,2.166,0.361,2.936c0.027,0.839-0.153,1.851-0.462,2.25
		c-0.25,0.319-0.7,0.753-1.068,0.982h-0.618c0.233-0.116,0.473-0.244,0.627-0.354c-0.097-0.162-0.257-0.461-0.334-0.76
		c-0.118-0.441-0.231-0.542-0.231-1.112c0-0.569-0.038-1.793-0.025-2.234c0.013-0.442-0.065-0.997-0.208-1.453
		c-0.141-0.457-0.515-1.054-0.736-1.281c-0.221-0.229-0.671-0.613-0.957-0.77c-0.284-0.155-0.425-0.214-0.425-0.214
		s-0.076-0.058,0.051-0.058c0.126,0,0.347,0.015,0.541,0.129c0.195,0.115,0.597,0.341,0.75,0.498
		c0.156,0.158,0.635,0.713,0.723,0.928c0.093,0.214,0.261,0.471,0.362,0.912c0.105,0.441,0.196,1.152,0.196,1.653
		c0,0.496,0.048,1.122,0.065,1.408c0.004,0.093,0.013,0.248,0.025,0.425c0.021-0.04,0.042-0.084,0.063-0.141
		c0.067-0.17,0.221-0.768,0.248-1.125c0.025-0.354,0.013-1.024-0.092-1.506c-0.105-0.487-0.286-1.114-0.505-1.51
		c-0.221-0.401-0.438-0.784-0.723-1.056c-0.282-0.269-0.671-0.597-0.967-0.695c-0.294-0.102-0.618-0.2-0.787-0.2
		c-0.111,0-0.206,0.006-0.256,0.009c0.008,0.106-0.004,0.283-0.015,0.376c-0.015,0.099-0.053,0.17-0.053,0.17
		s-0.088,0.013-0.088-0.046c0-0.057,0.04-0.281-0.013-0.41c-0.055-0.128-0.181-0.301-0.235-0.355
		c-0.048-0.055-0.151-0.143-0.151-0.143v0.202c0,0.113-0.03,0.168,0.025,0.256c0.053,0.084,0.053,0.169,0.053,0.24
		s-0.04,0.202-0.04,0.202s-0.155-0.14-0.235-0.318c-0.029,0.011-0.061,0.027-0.086,0.045c-0.078,0.057-0.12,0.071-0.168,0.201
		c-0.053,0.129-0.078,0.226-0.093,0.299c-0.012,0.071-0.048,0.099-0.179,0.158c-0.13,0.052-0.181,0.052-0.258,0.17
		c-0.078,0.113-0.154,0.215-0.194,0.385c-0.04,0.17-0.09,0.301-0.04,0.498c0.05,0.2,0.118,0.27,0.118,0.514
		c0,0.239,0.013,0.494-0.013,0.708c-0.029,0.217-0.065,0.514-0.118,0.627c-0.051,0.115-0.196,0.288-0.248,0.355
		c-0.048,0.071-0.048,0.101,0,0.173c0.052,0.071,0.12,0.157,0.21,0.227c0.09,0.071,0.168,0.155,0.219,0.186
		c0.053,0.029,0.029,0.128,0.029,0.128s-0.193,0-0.349-0.141c-0.156-0.142-0.231-0.228-0.286-0.341
		c-0.053-0.113-0.101-0.202-0.025-0.273c0.078-0.069,0.181-0.168,0.219-0.27c0.04-0.101,0.105-0.454,0.118-0.768
		s0.078-0.343,0.025-0.511c-0.048-0.172-0.206-0.341-0.193-0.585c0.013-0.241,0.065-0.496,0.155-0.739
		c0.091-0.244,0.091-0.341,0.244-0.442c0.156-0.101,0.286-0.17,0.362-0.227c0.08-0.055,0.092-0.156,0.092-0.156
		s-0.206-0.084-0.286-0.241c-0.076-0.156-0.193-0.228-0.208-0.412c-0.013-0.186-0.038-0.255-0.038-0.255s0.025-0.071,0.181-0.017
		c0.153,0.057,0.219,0.071,0.362,0.215c0.141,0.141,0.206,0.286,0.254,0.328c0.055,0.042,0.12,0.042,0.12,0.042l0.032-0.005
		c0-0.017-0.004-0.035-0.004-0.05c-0.015-0.257-0.04-0.457,0.025-0.585c0.063-0.128,0.076-0.197,0.13-0.257
		c0.05-0.055,0.13-0.113,0.156-0.042c0.023,0.071-0.013,0.102,0.076,0.242c0.088,0.141,0.118,0.128,0.218,0.257
		c0.046,0.052,0.084,0.113,0.118,0.166c0.055-0.009,0.286-0.047,0.563-0.021c-0.185-0.467-1.089-2.755-1.624-3.65
		c-0.591-0.997-1.804-2.761-2.532-3.444c-0.719-0.686-1.472-1.342-1.933-1.51c-0.469-0.172-0.57-0.257-0.57-0.088
		c0,0.172-0.027,0.029,0.231,0.315c0.257,0.283,1.06,1.224,1.522,1.766c0.467,0.539,2.17,2.906,2.223,3.077
		c0.053,0.17-0.027,0.225-0.128,0.027c-0.107-0.198-0.984-1.422-1.268-1.708c-0.284-0.286-0.876-0.826-1.291-1.083
		c-0.414-0.254-0.57-0.313-0.725-0.313c-0.074,0-0.105-0.013-0.109-0.008c-0.004,0.004,0.031,0.033,0.084,0.122
		c0.101,0.17,0.49,0.571,0.799,0.91c0.313,0.343,0.518,0.574,0.904,1.056c0.389,0.481,1.316,1.592,1.575,1.993
		c0.258,0.397,0.414,0.6,0.309,0.541c-0.101-0.055-0.438-0.627-0.618-0.824c-0.181-0.202-0.829-0.999-1.085-1.283
		c-0.257-0.286-0.518-0.572-0.852-0.828c-0.336-0.257-0.414-0.282-0.517-0.257c-0.103,0.031-0.078,0.057,0,0.202
		c0.078,0.143,0.646,0.996,0.906,1.337c0.256,0.341,0.953,1.224,1.186,1.594c0.231,0.37,0.879,1.199,0.879,1.199
		s-0.05,0.199-0.156,0.029c-0.105-0.173-0.696-0.942-1.032-1.367c-0.334-0.429-0.671-0.799-0.904-0.999
		c-0.229-0.199-0.309-0.256-0.359-0.141c-0.051,0.113-0.103,0.084,0.078,0.315c0.181,0.228,1.133,1.851,1.314,2.107
		c0.181,0.259,1.034,1.652,1.034,1.652s0,0.084-0.155-0.113c-0.156-0.2-0.648-0.799-0.829-1.026
		c-0.181-0.227-0.387-0.399-0.593-0.513c-0.204-0.111-0.231-0.027-0.101,0.201c0.126,0.226,0.98,1.849,1.186,2.107
		c0.208,0.254,0.467,0.656,0.467,0.656s-0.03,0.168-0.156,0c-0.13-0.173-0.13-0.144-0.412-0.43
		c-0.284-0.285-0.389-0.399-0.542-0.427c-0.151-0.027-0.181-0.057-0.103,0.142c0.076,0.201,0.231,0.683,0.412,0.941
		c0.181,0.257,0.62,1.11,0.62,1.11s0.025,0.173-0.21-0.139c-0.229-0.315-0.41-0.513-0.513-0.427
		c-0.105,0.084,0.025,0.284,0.128,0.454c0.105,0.173,0.494,1.028,0.494,1.028s-0.08,0-0.208-0.173
		c-0.13-0.172-0.389-0.34-0.389-0.34s-0.051,0.168,0.078,0.37c0.13,0.199,0.515,0.912,0.591,1.083
		c0.08,0.17,0.261,0.511,0.261,0.511s-0.025,0.088-0.231-0.168c-0.21-0.259-0.311-0.375-0.414-0.343
		c-0.101,0.027-0.025,0.17,0.053,0.343c0.067,0.151,0.305,0.647,0.353,0.75c0.088,0.071,0.185,0.137,0.292,0.188
		c0.221,0.101,0.511,0.189,0.67,0.229c0.078-0.16,0.126-0.28,0.259-0.486c0.208-0.313,0.301-0.425,0.402-0.597
		c0.105-0.171,0.349-0.585,0.425-0.842c0.08-0.256,0.197-0.597,0.233-0.782c0.036-0.185,0.061-0.256,0.061-0.256
		s0.094,0.143,0.067,0.353c-0.027,0.217-0.052,0.501-0.208,0.884c-0.153,0.387-0.153,0.441-0.334,0.715
		c-0.181,0.269-0.374,0.582-0.557,0.883c-0.179,0.299-0.322,0.64-0.452,0.881c-0.13,0.242-0.324,0.684-0.336,0.94
		c-0.004,0.097-0.017,0.21-0.027,0.315h-0.288c-0.08-0.131-0.174-0.286-0.252-0.385c-0.155-0.2-0.336-0.486-0.542-0.654
		c-0.206-0.172-0.206-0.088-0.311,0c-0.101,0.084-0.309,0.313-0.591,0.596c-0.217,0.216-0.301,0.334-0.372,0.441h-0.341
		c0.034-0.065,0.092-0.102,0.092-0.102s0.312-0.397,0.515-0.624c0.208-0.228,0.49-0.543,0.696-0.713c0.208-0.17,0.391,0,0.542,0.17
		c0.109,0.118,0.425,0.585,0.61,0.867c0.013-0.098,0.036-0.189,0.061-0.27c0.132-0.37,0.233-0.656,0.465-1.026l0.025-0.042
		c-0.031-0.021-0.08-0.046-0.151-0.071c-0.156-0.055-0.517-0.257-0.774-0.37c-0.261-0.118-0.517-0.374-0.67-0.459
		c-0.156-0.084-0.156,0-0.284,0.06c-0.13,0.055-0.181,0.281-0.286,0.454c-0.101,0.172-0.492,0.711-0.772,1.026
		c-0.273,0.301-0.593,0.782-0.822,1.098h-0.317V57.688L19.579,57.688z M21.246,57.688c0.151-0.118,0.353-0.193,0.469-0.271
		c0.133-0.084,0.286-0.143,0.57,0c0.126,0.062,0.291,0.162,0.458,0.271h-0.662c-0.141-0.082-0.238-0.073-0.37,0H21.246
		L21.246,57.688L21.246,57.688z M35.879,57.688c-0.036-0.109-0.067-0.21-0.088-0.286c-0.09-0.326-0.269-0.567-0.244-0.952
		c0.027-0.385,0.013-0.6,0.181-0.884c0.168-0.285,0.296-0.498,0.591-0.897c0.298-0.399,0.412-0.598,0.517-0.795
		c0.101-0.202,0.101-0.228,0.116-0.458c0.015-0.228-0.015-0.299,0.105-0.541c0.118-0.241,0.078-0.254,0.321-0.582
		c0.244-0.328,0.45-0.598,0.644-0.698c0.196-0.099,0.442-0.186,0.362,0.042c-0.074,0.229-0.193,0.458-0.219,0.631
		c-0.025,0.168-0.063,0.339-0.05,0.41c0.015,0.069,0.015,0.086,0.015,0.086s0-0.086,0.181-0.215c0.181-0.13,0.387-0.214,0.515-0.256
		c0.13-0.044,0.257-0.029,0.322-0.029c0.065,0,0.168,0.029,0.065,0.101c-0.105,0.069-0.181,0.128-0.299,0.27
		c-0.118,0.141-0.311,0.382-0.349,0.542c-0.038,0.155-0.038,0.228-0.038,0.228s0.048-0.015,0.193-0.029
		c0.143-0.018,0.334-0.018,0.467,0.015c0.128,0.027,0.181,0.057,0.229,0.113c0.048,0.059,0.04,0.086-0.048,0.141
		c-0.092,0.059-0.261,0.188-0.324,0.27c-0.063,0.088-0.143,0.227-0.206,0.341c-0.065,0.117-0.118,0.285-0.198,0.357
		c-0.076,0.071-0.128,0.157-0.229,0.315c-0.101,0.155-0.309,0.256-0.439,0.343c-0.13,0.082-0.244,0.113-0.349,0.269
		c-0.103,0.158-0.193,0.286-0.219,0.402c-0.025,0.113-0.038,0.21-0.038,0.21s0.038-0.055,0.139-0.181
		c0.103-0.131,0.078-0.158,0.259-0.273c0.181-0.114,0.193-0.142,0.361-0.156c0.166-0.013,0.166,0.015,0.322-0.057
		c0.154-0.069,0.166-0.113,0.244-0.185c0.078-0.069,0.181-0.186,0.168-0.044c-0.013,0.141-0.025,0.429-0.09,0.626
		c-0.065,0.202-0.168,0.459-0.259,0.558c-0.09,0.099-0.336,0.286-0.492,0.385c-0.154,0.099-0.349,0.227-0.463,0.341
		c-0.12,0.113-0.168,0.227-0.168,0.227s0.101-0.071,0.256-0.155c0.153-0.084,0.286-0.171,0.402-0.215
		c0.115-0.044,0.271-0.128,0.153,0.044c-0.114,0.171-0.231,0.386-0.299,0.583c0,0.013-0.006,0.025-0.01,0.044h-0.317
		c0.012-0.035,0.021-0.057,0.021-0.057s-0.025,0.006-0.076,0.057h-0.53c0.03-0.166,0.08-0.351,0.154-0.473
		c0.09-0.139,0.181-0.299,0.334-0.484c0.141-0.168,0.261-0.185,0.467-0.298c0.206-0.114,0.231-0.158,0.319-0.257
		c0.093-0.099,0.143-0.257,0.143-0.257s-0.042-0.055-0.118-0.027c-0.08,0.027-0.193,0.027-0.312,0.099
		c-0.115,0.072-0.282,0.114-0.424,0.328c-0.141,0.213-0.299,0.37-0.336,0.455c-0.038,0.084-0.076,0.185-0.076,0.185l-0.052,0.029
		c0,0-0.013-0.084-0.013-0.199c0-0.116-0.04-0.315-0.013-0.47c0.025-0.157,0.065-0.599,0.154-0.757
		c0.092-0.155,0.286-0.571,0.494-0.681c0.204-0.116,0.437-0.273,0.591-0.415c0.155-0.141,0.231-0.256,0.349-0.409
		c0.118-0.16,0.168-0.217,0.208-0.288c0.04-0.07,0.025-0.171-0.078-0.129c-0.103,0.044-0.21,0.071-0.284,0.173
		c-0.078,0.097-0.221,0.252-0.221,0.252l-0.08,0.059c0,0-0.025,0.03-0.012-0.143c0.012-0.168,0-0.454,0.04-0.595
		c0.04-0.144,0.105-0.328,0.167-0.415c0.067-0.084,0.12-0.185,0.12-0.185s0.013-0.086-0.048-0.027
		c-0.067,0.057-0.198,0.141-0.273,0.27c-0.076,0.128-0.256,0.385-0.286,0.441c-0.025,0.057-0.09,0.069-0.09,0.069
		s-0.048,0.017-0.048-0.069c0-0.084-0.05-0.057-0.025-0.328c0.025-0.27,0.025-0.427,0.048-0.568
		c0.025-0.143,0.076-0.321,0.025-0.288c-0.038,0.032-0.025-0.012-0.141,0.173c-0.114,0.186-0.257,0.313-0.322,0.525
		c-0.061,0.215-0.103,0.242-0.141,0.459c-0.038,0.212,0,0.281-0.105,0.525c-0.103,0.24-0.168,0.354-0.282,0.496
		c-0.118,0.144-0.118,0.215-0.324,0.472c-0.202,0.256-0.244,0.298-0.349,0.511c-0.101,0.214-0.181,0.286-0.254,0.557
		c-0.053,0.191-0.04,0.257,0,0.572c0.04,0.313,0.073,0.441,0.168,0.711c0.042,0.126,0.097,0.259,0.154,0.399H35.879L35.879,57.688
		L35.879,57.688z M23.723,48.905c0,0,0.013,0.09,0.034,0.145c0.023,0.013,0.044,0.027,0.059,0.043l0.223,0.243l0.067,0.089
		l0.067-0.093l-0.084-0.101l-0.225-0.246C23.828,48.945,23.723,48.905,23.723,48.905L23.723,48.905z M24.093,51.176
		c0.025-0.073,0.057-0.137,0.114-0.161c0.059-0.027,0.084-0.04,0.155-0.04c0.069,0,0.13,0.027,0.177,0.053
		c0.046,0.024,0.084,0.092,0.025,0.092c-0.03,0-0.07-0.004-0.114-0.004l0.038,0.021c0.025,0.013,0.046,0.036,0.05,0.055
		c0.061-0.031,0.097,0.005,0.13,0.005c0.038,0-0.013,0.065-0.059,0.093l-0.019,0.008c0.01,0.004,0.019,0.009,0.027,0.009
		c0.033,0-0.013,0.062-0.059,0.092c-0.044,0.025-0.105,0.076-0.177,0.118c-0.069,0.038-0.069,0.051-0.176,0.038
		c-0.109-0.009-0.118-0.076-0.118-0.076s0.038-0.037,0.076-0.064c-0.021-0.023-0.025-0.045-0.025-0.045s0.08-0.079,0.139-0.104
		c0.042-0.02,0.105-0.023,0.168-0.038c-0.063-0.004-0.141,0-0.181,0.029c-0.063,0.038-0.168,0.091-0.168,0.091l-0.08,0.064
		c0,0,0-0.042,0.023-0.117C24.053,51.248,24.07,51.203,24.093,51.176L24.093,51.176z M24.093,53.803l-0.05-0.009
		c-0.034,0.057-0.002,0.118-0.002,0.118s-0.082-0.017-0.132-0.029c-0.044-0.013-0.044-0.063-0.057-0.142
		c-0.011-0.075,0-0.09,0.048-0.155c0-0.04,0.013-0.057,0.048-0.107c0.044-0.065,0.162-0.05,0.233-0.065
		c0.071-0.015,0.164,0.133,0.164,0.133s-0.021,0.025-0.105,0.04c0.034,0.031,0.055,0.067,0.055,0.067s-0.025,0.027-0.105,0.04
		c-0.067,0.013-0.088,0.021-0.116,0.055C24.081,53.777,24.093,53.803,24.093,53.803L24.093,53.803L24.093,53.803z M23.86,54.013
		h0.181c0.154,0,0.229,0.015,0.334-0.057c0.059-0.044,0.12-0.078,0.16-0.133c0.004-0.013,0.004-0.029,0.009-0.044
		c0.027-0.153,0.04-0.555,0.092-0.755c0.044-0.177,0.017-0.299,0.093-0.383c0.012-0.055,0.036-0.101,0.084-0.137
		c0.044-0.031,0.071-0.061,0.092-0.084c-0.013,0.009-0.034,0.015-0.063,0.023c-0.09,0.013-0.141,0-0.141,0s0.023-0.137,0.08-0.226
		c0.023-0.064,0.059-0.137,0.111-0.168c0.105-0.057,0.181-0.057,0.312-0.086s0.193-0.029,0.261-0.113
		c0.063-0.087,0.168-0.215,0.244-0.328c0.076-0.111,0.101-0.156,0.181-0.171c0.076-0.015,0.206,0.015,0.206,0.015
		s0.05,0.072-0.025,0.102l-0.027,0.008c0,0,0.05,0.072-0.025,0.097c-0.078,0.032-0.141,0.018-0.221,0.144
		c-0.08,0.13-0.153,0.357-0.244,0.441c-0.093,0.086-0.053,0.143-0.21,0.157c-0.145,0.016-0.223-0.027-0.322,0.021
		c0.118-0.015,0.273-0.015,0.273-0.015s0.04,0.055-0.015,0.113l-0.025,0.029c0.004,0.023,0,0.051-0.027,0.08
		c-0.048,0.055-0.065,0.084-0.179,0.168c-0.071,0.053-0.135,0.105-0.181,0.162c-0.017,0.133-0.03,0.385-0.03,0.486
		c0,0.101-0.012,0.273-0.012,0.401c0,0.105,0.019,0.153-0.051,0.229c-0.004,0.05-0.025,0.097-0.103,0.164
		c-0.128,0.113-0.153,0.168-0.359,0.153c-0.21-0.015-0.324-0.027-0.412-0.057c-0.093-0.027-0.093-0.129-0.093-0.129h0.101
		C23.86,54.08,23.86,54.013,23.86,54.013L23.86,54.013L23.86,54.013z"/>
</g>
</svg>
