<?xml version="1.0" encoding="utf-8"?>
<!-- Generator: Adobe Illustrator 16.2.1, SVG Export Plug-In . SVG Version: 6.00 Build 0)  -->
<!DOCTYPE svg PUBLIC "-//W3C//DTD SVG 1.1//EN" "http://www.w3.org/Graphics/SVG/1.1/DTD/svg11.dtd">
<svg version="1.1" id="Layer_1" xmlns="http://www.w3.org/2000/svg" xmlns:xlink="http://www.w3.org/1999/xlink" x="0px" y="0px"
	 width="50px" height="50px" viewBox="192.5 103.5 50 50" enable-background="new 192.5 103.5 50 50" xml:space="preserve">
<path fill="#231F20" d="M192.5,123.794c0-0.257,0.082-0.894,0.912-0.894c0.082,0,0.28,0,0.479,0.099
	c0.454,0.219,0.454,0.598,0.454,1.192c0.795-0.953,1.789-1.39,3.062-1.39c2.542,0,4.428,1.945,4.428,5.342
	c0,2.461-1.075,5.359-4.208,5.359c-1.651,0-2.425-0.654-3.282-1.41v4.149c0,0.26-0.076,0.913-0.932,0.913
	c-0.158,0-0.316-0.038-0.454-0.099c-0.397-0.217-0.458-0.517-0.458-0.814V123.794 M197.188,124.331c-1.87,0-2.879,1.429-2.879,3.711
	c0,2.303,0.953,3.991,2.858,3.991c1.05,0,1.727-0.535,2.104-1.052c0.556-0.756,0.678-1.867,0.678-2.8
	C199.949,127.131,199.868,124.331,197.188,124.331z"/>
<path fill="#231F20" d="M211.307,132.054c-1.213,1.329-2.701,1.449-3.653,1.449c-1.034,0-2.466-0.138-3.597-1.389
	c-1.228-1.351-1.269-3.179-1.269-3.911c0-0.953,0.097-2.622,1.228-3.913c1.233-1.368,2.884-1.488,3.735-1.488
	c2.919,0,4.866,1.868,4.866,5.261C212.616,128.956,212.519,130.703,211.307,132.054 M209.997,130.961
	c0.693-0.894,0.734-2.164,0.734-2.779c0-1.927-0.637-3.851-3.057-3.851c-0.54,0-1.59,0.078-2.344,1.13
	c-0.52,0.756-0.678,1.807-0.678,2.742c0,1.01,0.179,2.104,0.734,2.817c0.397,0.495,1.171,1.013,2.303,1.013
	C208.586,132.033,209.457,131.678,209.997,130.961z"/>
<path fill="#231F20" d="M215.53,124.768c0.377-1.132,1.514-1.867,2.686-1.867c0.214,0,1.09,0,1.09,0.894
	c0,0.696-0.556,0.815-0.836,0.854c-0.494,0.077-1.014,0.158-1.548,0.496c-1.31,0.914-1.31,2.303-1.31,3.495v3.949
	c0,0.319-0.062,0.833-0.912,0.833c-0.815,0-0.897-0.556-0.897-0.833v-8.854c0-0.239,0.082-0.834,0.876-0.834
	c0.774,0,0.851,0.595,0.851,0.834V124.768"/>
<path fill="#231F20" d="M221.904,124.568h-1.054c-0.219,0-0.754-0.078-0.754-0.774c0-0.714,0.535-0.773,0.754-0.773h1.075v-2.325
	c0-0.256,0.077-0.851,0.892-0.851c0.856,0,0.912,0.573,0.912,0.851v2.325h1.233c0.24,0,0.754,0.06,0.754,0.773
	c0,0.696-0.535,0.774-0.754,0.774h-1.233v5.042c0,1.191,0.021,1.333,0.081,1.568c0.138,0.577,0.515,0.676,1.055,0.717
	c0.474,0.018,0.973,0.061,0.973,0.753c0,0.695-0.637,0.773-1.172,0.773c-2.762,0-2.762-1.487-2.762-3.035V124.568"/>
<path fill="#231F20" d="M228.141,128.657c0.036,0.893,0.234,1.688,0.775,2.345c0.672,0.834,1.488,0.971,2.282,0.971
	c1.569,0,2.125-0.812,2.481-1.368c0.317-0.537,0.418-0.734,0.857-0.734c0.433,0,1.029,0.257,1.029,0.833
	c0,0.081,0,0.138-0.021,0.197c-0.076,0.38-0.418,0.815-0.631,1.055c-1.371,1.548-3.159,1.548-3.715,1.548
	c-1.294,0-2.604-0.258-3.617-1.39c-0.892-1.013-1.31-2.443-1.31-3.872c0-2.502,1.35-5.421,4.865-5.421
	c0.438,0,0.877,0.041,1.29,0.14c0.896,0.219,1.671,0.654,2.288,1.487c0.652,0.915,0.994,2.205,0.994,3.316
	c0,0.833-0.637,0.894-0.897,0.894H228.141 M233.838,127.169c-0.076-1.311-0.795-2.76-2.68-2.76c-0.417,0-1.233,0.039-1.926,0.654
	c-0.795,0.696-0.973,1.648-1.075,2.105H233.838L233.838,127.169z"/>
<path fill="#231F20" d="M238.725,124.768c0.381-1.132,1.513-1.867,2.685-1.867c0.213,0,1.09,0,1.09,0.894
	c0,0.696-0.556,0.815-0.835,0.854c-0.495,0.077-1.009,0.158-1.549,0.496c-1.31,0.914-1.31,2.303-1.31,3.495v3.949
	c0,0.319-0.062,0.833-0.912,0.833c-0.815,0-0.897-0.556-0.897-0.833v-8.854c0-0.239,0.083-0.834,0.877-0.834
	c0.775,0,0.851,0.595,0.851,0.834L238.725,124.768"/>
</svg>
