<?xml version="1.0" encoding="utf-8"?>
<!-- Generator: Adobe Illustrator 16.2.1, SVG Export Plug-In . SVG Version: 6.00 Build 0)  -->
<!DOCTYPE svg PUBLIC "-//W3C//DTD SVG 1.1//EN" "http://www.w3.org/Graphics/SVG/1.1/DTD/svg11.dtd">
<svg version="1.1" id="svg3714" xmlns:svg="http://www.w3.org/2000/svg"
	 xmlns="http://www.w3.org/2000/svg" xmlns:xlink="http://www.w3.org/1999/xlink" x="0px" y="0px" width="50px" height="50px"
	 viewBox="176.922 102.062 50 50" enable-background="new 176.922 102.062 50 50" xml:space="preserve">
<g id="layer1" transform="translate(-123.57813,-445.79968)">
	<path id="path206" fill="#9C9D9F" d="M348.681,563.305c-0.558,0-0.992,0.082-1.3,0.248c-0.354,0.192-0.532,0.492-0.532,0.9v0.729
		c0,0.256,0.065,0.452,0.193,0.59c0.128,0.138,0.376,0.293,0.746,0.466c0.249,0.114,0.517,0.238,0.804,0.366
		c0.204,0.108,0.303,0.347,0.303,0.717v0.422c0,0.089-0.02,0.159-0.062,0.206c-0.041,0.048-0.103,0.073-0.187,0.073
		s-0.148-0.024-0.193-0.073c-0.046-0.047-0.066-0.117-0.066-0.206v-1.149h-1.573v1.163c0,0.409,0.183,0.701,0.552,0.88
		c0.301,0.146,0.723,0.221,1.266,0.221c0.558,0,0.998-0.082,1.314-0.248c0.37-0.192,0.553-0.492,0.553-0.9v-0.818
		c0-0.313-0.11-0.56-0.328-0.738c-0.105-0.09-0.38-0.233-0.824-0.431l-0.611-0.28c-0.225-0.121-0.337-0.293-0.337-0.518v-0.511
		c0-0.09,0.026-0.155,0.079-0.2c0.053-0.044,0.115-0.069,0.19-0.069c0.067,0,0.127,0.025,0.179,0.073
		c0.053,0.047,0.08,0.113,0.08,0.196v1.062h1.539v-1.073c0-0.408-0.177-0.701-0.532-0.88
		C349.64,563.375,349.224,563.305,348.681,563.305z M312.314,565.13c-1.108,0-1.97,0.186-2.584,0.549
		c-0.704,0.419-1.056,1.075-1.056,1.971v7.11c0,0.909,0.361,1.571,1.08,1.991c0.599,0.35,1.452,0.524,2.56,0.524
		c1.108,0,1.961-0.161,2.561-0.483c0.749-0.405,1.122-1.048,1.122-1.928v-2.243h-3.13v2.218c0,0.196-0.043,0.345-0.131,0.449
		c-0.089,0.104-0.223,0.158-0.4,0.158c-0.178,0-0.308-0.05-0.396-0.155c-0.089-0.104-0.135-0.255-0.135-0.452v-2.763h4.193v-4.531
		c0-0.896-0.373-1.54-1.122-1.933C314.261,565.291,313.407,565.13,312.314,565.13z M320.571,565.13
		c-1.108,0-1.976,0.186-2.605,0.549c-0.733,0.419-1.101,1.075-1.101,1.971v7.11c0,0.909,0.367,1.571,1.101,1.991
		c0.614,0.35,1.482,0.524,2.605,0.524c1.109,0,1.952-0.161,2.537-0.483c0.718-0.391,1.08-1.034,1.08-1.928v-7.319
		c0-0.782-0.349-1.382-1.045-1.794C322.445,565.338,321.589,565.13,320.571,565.13z M342.457,565.13
		c-1.108,0-1.971,0.186-2.585,0.549c-0.703,0.419-1.055,1.075-1.055,1.971v7.11c0,0.909,0.361,1.571,1.08,1.991
		c0.599,0.35,1.452,0.524,2.56,0.524c1.107,0,1.96-0.161,2.56-0.483c0.749-0.405,1.122-1.048,1.122-1.928v-2.243h-3.13v2.218
		c0,0.196-0.043,0.345-0.131,0.449s-0.222,0.158-0.4,0.158c-0.177,0-0.308-0.05-0.396-0.155c-0.088-0.104-0.135-0.255-0.135-0.452
		v-2.763h4.192v-4.531c0-0.896-0.373-1.54-1.122-1.933C344.403,565.291,343.55,565.13,342.457,565.13z M300.645,565.199v12.008
		h3.126v-3.89h0.704c0.833,0,1.509-0.104,2.025-0.317c0.516-0.217,0.873-0.522,1.062-0.921c0.194-0.397,0.29-1.035,0.29-1.908v-1.19
		c0-0.855-0.049-1.49-0.148-1.897c-0.1-0.407-0.289-0.754-0.569-1.039c-0.281-0.289-0.689-0.554-1.259-0.662
		c-0.616-0.122-1.086-0.176-2.122-0.176L300.645,565.199z M324.967,565.199v12.004h3.122v-3.882h0.704
		c0.834,0,1.509-0.107,2.026-0.321c0.515-0.214,0.869-0.521,1.062-0.921s0.293-1.035,0.293-1.908v-1.19
		c0-0.855-0.052-1.489-0.152-1.897c-0.1-0.407-0.289-0.755-0.568-1.042c-0.281-0.288-0.692-0.549-1.26-0.659
		c-0.618-0.119-1.084-0.176-2.122-0.176L324.967,565.199z M332.83,565.209v11.966h5.417v-2.735h-2.315v-9.23H332.83z
		 M304.31,566.958c0.1-0.006,0.505,0.004,0.521,0.569v3.358c0,0,0.01,0.558-0.583,0.53c0,0-0.469,0.025-0.483-0.544l0.003-3.33
		c0,0-0.04-0.521,0.521-0.58C304.289,566.962,304.295,566.96,304.31,566.958L304.31,566.958z M328.627,566.958
		c0.101-0.005,0.505,0.005,0.521,0.569v3.354c0,0,0.01,0.564-0.583,0.538c0,0-0.473,0.023-0.486-0.548l0.007-3.33
		c0,0-0.041-0.522,0.518-0.58C328.604,566.962,328.613,566.96,328.627,566.958L328.627,566.958z M312.335,566.973
		c0.177,0,0.311,0.051,0.4,0.148c0.088,0.098,0.131,0.242,0.131,0.438v2.73h-1.063v-2.73c0-0.195,0.052-0.34,0.156-0.438
		C312.062,567.023,312.187,566.973,312.335,566.973z M320.526,566.973c0.177,0,0.309,0.051,0.397,0.148s0.134,0.242,0.134,0.438
		v7.28c0,0.197-0.046,0.345-0.134,0.449s-0.22,0.158-0.397,0.158c-0.178,0-0.312-0.054-0.4-0.158
		c-0.089-0.104-0.131-0.252-0.131-0.449v-7.28c0-0.195,0.052-0.34,0.155-0.438S320.378,566.973,320.526,566.973z M342.478,566.973
		c0.178,0,0.312,0.051,0.4,0.148s0.131,0.242,0.131,0.438v2.73h-1.062v-2.73c0-0.195,0.052-0.34,0.155-0.438
		C342.205,567.023,342.331,566.973,342.478,566.973z M329.449,578.266v0.173c0.592,0.036,0.607,0.047,0.607,0.383v3.04
		c0,0.336-0.015,0.347-0.607,0.383v0.176h3.495l0.079-1.076h-0.2c-0.134,0.787-0.504,0.866-1.211,0.866
		c-0.336,0-0.579-0.015-0.72-0.062c-0.142-0.055-0.169-0.154-0.169-0.449v-2.877c0-0.336,0.019-0.347,0.646-0.383v-0.173H329.449z
		 M333.793,578.266v0.173c0.592,0.036,0.607,0.047,0.607,0.383v3.04c0,0.336-0.015,0.347-0.607,0.383v0.176h1.876v-0.176
		c-0.585-0.036-0.603-0.047-0.603-0.383v-3.04c0-0.336,0.018-0.347,0.603-0.383v-0.173H333.793z M336.653,578.266v0.173
		c0.592,0.036,0.607,0.047,0.607,0.383v2.377c0,0.318-0.015,0.547-0.049,0.746c-0.04,0.252-0.202,0.275-0.552,0.3v0.176h1.597
		v-0.176c-0.438-0.03-0.601-0.048-0.642-0.3c-0.033-0.199-0.044-0.428-0.044-0.746v-2.395h0.014
		c0.963,1.206,1.917,2.409,2.867,3.616h0.445v-2.936c0-0.318,0.015-0.548,0.048-0.746c0.041-0.252,0.203-0.275,0.553-0.3v-0.173
		H339.9v0.173c0.438,0.029,0.598,0.048,0.638,0.3c0.034,0.198,0.048,0.428,0.048,0.746v2.104l-0.013-0.011
		c-0.882-1.104-1.758-2.208-2.626-3.312H336.653L336.653,578.266z M342.433,578.266v0.173c0.593,0.036,0.607,0.047,0.607,0.383v3.04
		c0,0.336-0.014,0.347-0.607,0.383v0.176H346l0.083-1.039h-0.204c-0.155,0.732-0.456,0.829-1.304,0.829
		c-0.317,0-0.56-0.015-0.701-0.062c-0.141-0.055-0.169-0.154-0.169-0.449v-1.327h0.942c0.572,0,0.599,0.146,0.659,0.523h0.204
		v-1.266h-0.204c-0.06,0.372-0.086,0.514-0.659,0.514h-0.942v-1.452c0-0.192,0.033-0.218,0.249-0.218h0.659
		c0.768,0,0.923,0.152,1.017,0.776h0.201v-0.983H342.433z"/>
	<path id="path242" fill="#0076BD" d="M300.5,578.266v0.173c0.377,0.012,0.458,0.037,0.594,0.354c0.215,0.505,0.464,1.104,0.7,1.705
		l0.759,1.922h0.479l0.859-2.074c0.276-0.666,0.545-1.279,0.708-1.597c0.141-0.282,0.223-0.293,0.586-0.311v-0.173h-1.487v0.173
		l0.369,0.031c0.176,0.012,0.182,0.071,0.148,0.187c-0.074,0.264-0.281,0.789-0.524,1.39l-0.701,1.726l-0.014-0.015l-0.625-1.542
		c-0.208-0.522-0.418-1.052-0.593-1.531c-0.054-0.15-0.034-0.202,0.128-0.214l0.349-0.031v-0.173H300.5z M305.645,578.266v0.173
		c0.593,0.036,0.607,0.047,0.607,0.383v3.04c0,0.336-0.015,0.347-0.607,0.383v0.176h1.877v-0.176
		c-0.585-0.036-0.604-0.047-0.604-0.383v-3.04c0-0.336,0.018-0.347,0.604-0.383v-0.173H305.645z M308.512,578.266v0.173
		c0.592,0.036,0.607,0.047,0.607,0.383v3.04c0,0.336-0.015,0.347-0.607,0.383v0.176h3.571l0.079-1.039h-0.2
		c-0.155,0.732-0.459,0.829-1.308,0.829c-0.316,0-0.559-0.015-0.701-0.062c-0.141-0.055-0.169-0.154-0.169-0.449v-1.327h0.945
		c0.572,0,0.599,0.146,0.659,0.523h0.2v-1.266h-0.2c-0.061,0.372-0.087,0.514-0.659,0.514h-0.945v-1.452
		c0-0.192,0.033-0.218,0.248-0.218h0.663c0.768,0,0.92,0.152,1.015,0.776h0.204v-0.983H308.512z M313.104,578.266v0.173
		c0.593,0.036,0.607,0.047,0.607,0.383v2.377c0,0.318-0.015,0.547-0.049,0.746c-0.04,0.252-0.202,0.275-0.552,0.3v0.176h1.598
		v-0.176c-0.438-0.03-0.602-0.048-0.642-0.3c-0.034-0.199-0.045-0.428-0.045-0.746v-2.395h0.014
		c0.963,1.207,1.918,2.409,2.868,3.616h0.445v-2.936c0-0.318,0.015-0.548,0.048-0.746c0.041-0.252,0.202-0.275,0.552-0.3v-0.173
		h-1.598v0.173c0.438,0.029,0.598,0.048,0.638,0.3c0.034,0.198,0.049,0.428,0.049,0.746v2.104l-0.014-0.011
		c-0.882-1.104-1.758-2.208-2.626-3.312H313.104L313.104,578.266z M318.877,578.266v0.173c0.593,0.036,0.607,0.047,0.607,0.383
		v2.377c0,0.318-0.015,0.547-0.049,0.746c-0.04,0.252-0.202,0.275-0.552,0.3v0.176h1.594v-0.176c-0.438-0.03-0.598-0.048-0.639-0.3
		c-0.034-0.199-0.048-0.428-0.048-0.746v-2.395h0.014c0.963,1.207,1.921,2.409,2.871,3.616h0.442v-2.936
		c0-0.318,0.014-0.548,0.048-0.746c0.041-0.252,0.202-0.275,0.552-0.3v-0.173h-1.594v0.173c0.438,0.029,0.598,0.048,0.639,0.3
		c0.033,0.198,0.048,0.428,0.048,0.746v2.104l-0.014-0.011c-0.882-1.104-1.757-2.208-2.626-3.312H318.877L318.877,578.266z
		 M326.285,578.266l-0.708,1.776c-0.209,0.523-0.492,1.242-0.728,1.788c-0.142,0.324-0.201,0.396-0.625,0.414v0.176h1.48v-0.176
		l-0.352-0.031c-0.202-0.019-0.219-0.075-0.166-0.238c0.115-0.36,0.256-0.733,0.411-1.159h1.507l0.453,1.146
		c0.067,0.175,0.033,0.24-0.182,0.259l-0.304,0.024v0.176h1.725v-0.176c-0.391-0.03-0.465-0.047-0.586-0.358l-1.429-3.62H326.285z
		 M326.336,578.869h0.021l0.666,1.719h-1.339C325.9,579.987,326.135,579.397,326.336,578.869z"/>
</g>
</svg>
