<?xml version="1.0" encoding="utf-8"?>
<!-- Generator: Adobe Illustrator 16.2.1, SVG Export Plug-In . SVG Version: 6.00 Build 0)  -->
<!DOCTYPE svg PUBLIC "-//W3C//DTD SVG 1.1//EN" "http://www.w3.org/Graphics/SVG/1.1/DTD/svg11.dtd">
<svg version="1.1" id="svg14813" xmlns:svg="http://www.w3.org/2000/svg"
	 xmlns="http://www.w3.org/2000/svg" xmlns:xlink="http://www.w3.org/1999/xlink" x="0px" y="0px" width="50px" height="50px"
	 viewBox="462.5 126.5 50 50" enable-background="new 462.5 126.5 50 50" xml:space="preserve">
<path id="path14049" d="M500.533,133.13c3.659-0.604,6.485,0.163,7.532,2.354c0.585,1.224,0.083,2.757-1.172,4.387
	c2.593-0.089,4.556,0.708,5.375,2.418c0.896,1.871-0.874,4.511-4.12,7.148c0.068,0.718,0.104,1.447,0.104,2.186
	c0,12.633-10.241,22.876-22.876,22.876c-12.634,0-22.876-10.243-22.876-22.876c0-12.636,10.242-22.877,22.876-22.877
	c0.502,0,1,0.016,1.497,0.048c2.27-0.572,4.125-0.31,4.926,0.866c0.447,0.131,0.89,0.276,1.325,0.433
	c3.51-0.862,6.295-0.333,7.254,1.673C500.578,132.18,500.623,132.64,500.533,133.13 M486.168,143.875
	c-4.87,1.947-9.528,2.904-12.935,2.938c-0.06,0-0.123-0.054-0.128-0.112l-0.016-0.142c-0.005-0.056,0.043-0.128,0.1-0.139
	c2.214-0.478,4.554-1.174,6.974-2.143c8.981-3.59,15.134-8.887,14.07-11.771c-0.806-0.371-1.607-0.636-2.425-0.846
	c-1.061,2.081-4.882,4.777-9.621,6.652c-2.865,1.138-4.694,1.498-7.253,1.689c-0.061,0.006-0.124-0.055-0.13-0.113l-0.014-0.137
	c-0.005-0.057,0.043-0.122,0.098-0.137c1.004-0.273,1.629-0.449,3.224-1.088c5.572-2.227,9.487-5.431,9.634-7.462
	c-2.228-0.087-4.511,0.21-6.757,0.939c-10.199,3.314-15.777,14.268-12.464,24.465c3.313,10.198,14.267,15.781,24.465,12.464
	c8.112-2.633,13.303-10.102,13.419-18.181c-2.905,2.053-6.567,4.142-10.758,5.814c-5.779,2.312-11.383,3.456-15.399,3.476
	c-0.06,0.002-0.123-0.055-0.128-0.113l-0.015-0.146c-0.006-0.054,0.043-0.123,0.099-0.137c2.595-0.588,6.003-1.561,8.889-2.713
	c9.916-3.966,16.788-9.158,16.115-13.169c-0.149-0.406-0.677-1.303-0.762-1.365c-3.224,2.819-8.195,5.741-13.992,8.06
	c-6.099,2.439-11.359,3.485-15.628,3.62c-0.059,0-0.122-0.057-0.127-0.115l-0.015-0.147c-0.007-0.054,0.041-0.126,0.099-0.137
	c2.738-0.621,5.198-1.441,8.248-2.661c10.908-4.36,18.514-10.783,17.532-14.435c-0.399-0.391-0.771-0.818-1.2-1.172
	C497.147,138.19,492.145,141.485,486.168,143.875"/>
</svg>
