<?xml version="1.0" encoding="utf-8"?>
<!-- Generator: Adobe Illustrator 16.2.1, SVG Export Plug-In . SVG Version: 6.00 Build 0)  -->
<!DOCTYPE svg PUBLIC "-//W3C//DTD SVG 1.1//EN" "http://www.w3.org/Graphics/SVG/1.1/DTD/svg11.dtd">
<svg version="1.1" id="svg3062" xmlns:svg="http://www.w3.org/2000/svg"
	 xmlns="http://www.w3.org/2000/svg" xmlns:xlink="http://www.w3.org/1999/xlink" x="0px" y="0px" width="50px" height="50px"
	 viewBox="211.501 246.005 50 50" enable-background="new 211.501 246.005 50 50" xml:space="preserve">
<g id="layer1" transform="translate(-173.28456,-270.42879)">
	<path id="path3147" fill="#254AA5" d="M405.614,542.731v10.499c0.117,0,0.394-0.155,0.516-0.208
		c0.158-0.07,0.346-0.115,0.531-0.125c0.457-0.028,0.911,0.037,1.354,0.053c0.848,0.026,1.482-0.199,2.063-0.693
		c0.256-0.22,0.437-0.497,0.598-0.771c0.733-1.254,0.318-2.62-0.583-3.604c-0.193-0.211-0.521-0.564-0.771-0.666
		c0-0.048,0.114-0.175,0.141-0.225c0.047-0.097,0.075-0.201,0.098-0.308c0.146-0.695-0.135-1.366-0.526-1.854
		c-0.377-0.47-0.889-0.705-1.417-0.896c-0.249-0.082-0.501-0.159-0.755-0.239c-0.184-0.055-0.38-0.103-0.547-0.203
		c-0.177-0.107-0.322-0.257-0.453-0.422c-0.081-0.103-0.168-0.212-0.213-0.338H405.614L405.614,542.731z M407.197,545.267
		c0.47,0.25,1.099,0.669,0.984,1.323c-0.035,0.188-0.115,0.354-0.25,0.489c-0.125,0.116-0.283,0.197-0.442,0.255
		c-0.064,0.024-0.131,0.044-0.198,0.068c-0.03,0-0.007,0.046-0.005,0.072c0.031,0.224,0.11,0.419,0.255,0.579
		c0.111,0.117,0.261,0.172,0.391,0.254c0.412,0.268,0.912,0.46,1.193,0.891c0.386,0.592,0.294,1.558-0.308,1.98
		c-0.131,0.092-0.279,0.163-0.433,0.212c-0.087,0.024-0.171,0.051-0.26,0.073c-0.046,0.005-0.099,0.008-0.152,0.016
		c-0.25-0.008-0.502-0.011-0.755-0.016v-0.02c-0.038,0-0.021-0.114-0.021-0.146v-1.308V545.267L407.197,545.267z M424.822,545.709
		c-0.167,0.19-0.385,0.33-0.572,0.5c-0.247,0.212-0.488,0.427-0.736,0.636v0.021h-0.02v0.021c0.101,0,0.171,0.141,0.193,0.219
		c0.025,0.099,0.008,0.236,0.01,0.349v0.776v3.468c0,0.273,0.053,1.146-0.073,1.308v0.021h-0.02v0.016h1.292
		c0-0.033-0.036-0.067-0.047-0.094c-0.024-0.071-0.038-0.144-0.04-0.22c-0.026-0.507-0.006-1-0.006-1.525
		c0.023,0,0.02-0.003,0.02,0.021c0.078,0,0.167,0.079,0.224,0.12c0.431,0.296,0.694,0.708,0.776,1.219
		c0.024,0.129,0.037,0.327-0.02,0.442c0,0.021,0.003,0.021-0.02,0.021v0.016h1.29c0-0.183-0.035-0.349-0.068-0.516
		c-0.127-0.631-0.391-1.256-0.895-1.688c-0.075-0.062-0.146-0.128-0.235-0.166v-0.036c0.072,0,0.167-0.107,0.22-0.146
		c0.476-0.391,0.74-0.973,0.76-1.604h-0.849c-0.105,0-0.259-0.019-0.329,0.031c0,0.002,0,0.002,0,0.005h-0.009
		c0.012,0.056,0.017,0.11,0.03,0.166v0.225c-0.039,0.303-0.51,0.803-0.802,0.917v0.02h-0.036v-3.348
		C424.86,546.717,424.891,545.789,424.822,545.709L424.822,545.709z M432.552,545.709c-0.436,0.379-0.874,0.756-1.313,1.136
		c-0.026,0-0.015,0.015-0.015,0.042c0.091,0,0.161,0.151,0.177,0.219c0.001,0.129,0.001,0.261,0.004,0.391v0.786v3.438
		c0,0.271,0.058,1.125-0.072,1.286v0.021h-0.017v0.016h1.298c0-0.024,0-0.016-0.026-0.016c-0.01-0.045-0.028-0.094-0.043-0.137
		c-0.008-0.066-0.017-0.132-0.026-0.196c0-0.497-0.006-0.994-0.006-1.49h0.038c0,0.03,0.063,0.053,0.089,0.067
		c0.5,0.276,0.888,0.808,0.905,1.406c0.006,0.114,0.01,0.237-0.03,0.328c0,0.021,0.004,0.021-0.021,0.021v0.016h1.292
		c0-0.738-0.368-1.626-0.865-2.12c-0.101-0.1-0.208-0.2-0.332-0.25v-0.036c0.083,0,0.198-0.127,0.259-0.183
		c0.448-0.42,0.695-0.931,0.714-1.567c-0.152,0-1.116-0.023-1.167,0.021c-0.01,0.004,0.042,0.346,0.021,0.438
		c-0.072,0.29-0.514,0.783-0.802,0.886v0.02h-0.043v-3.457v-0.771C432.572,545.92,432.583,545.792,432.552,545.709L432.552,545.709z
		 M417.531,548.871c-0.115,0.037-0.241,0.049-0.349,0.104c-0.086,0.041-0.172,0.095-0.26,0.136v0.015h-0.016
		c0-0.055-0.106-0.198-0.157-0.218c-0.091-0.041-0.237-0.021-0.343-0.021h-0.625c-0.091,0.003-0.181,0.007-0.277,0.01
		c-0.016,0.009-0.038,0.018-0.056,0.026c-0.019,0.053,0.09,0.192,0.104,0.26c0,0.144,0.004,0.286,0.006,0.423v3.422h0.016
		c0,0.03,0.085,0.016,0.115,0.016h1.072v-2.021c0-0.18-0.037-0.519,0.026-0.656c0.095-0.211,0.367-0.35,0.595-0.296
		c0.135,0.031,0.299,0.161,0.339,0.296c0.046,0.155,0.014,0.382,0.014,0.563v1.396c0,0.162-0.031,0.385,0.021,0.525
		c0.03,0.082,0.118,0.156,0.204,0.177c0.112,0.027,0.249,0.012,0.371,0.016h0.791v-0.016c-0.092,0-0.146-0.195-0.155-0.262
		c-0.006-0.166-0.012-0.329-0.012-0.494v-0.756v-0.848c0-0.461,0.013-0.892-0.192-1.239c-0.063-0.115-0.181-0.226-0.282-0.308
		c-0.121-0.106-0.244-0.185-0.395-0.219C417.911,548.863,417.719,548.871,417.531,548.871L417.531,548.871z M412.863,548.881
		c-0.122-0.001-0.251,0.006-0.368,0.006c-0.08,0.027-0.159,0.043-0.235,0.067c-0.138,0.052-0.32,0.194-0.405,0.323
		c-0.342,0.487-0.345,1.191-0.459,1.796c-0.023,0.171-0.049,0.342-0.066,0.516c-0.02,0.139-0.042,0.299-0.023,0.442
		c0.036,0.239,0.171,0.451,0.351,0.615c0.348,0.317,0.937,0.458,1.448,0.375c0.072-0.015,0.144-0.034,0.203-0.072
		c0.055-0.035,0.11-0.11,0.183-0.11c0.073-0.003,0.109,0.079,0.161,0.121c0.049,0.04,0.106,0.065,0.172,0.077
		c0.371,0.003,0.739,0.002,1.109,0.006v-0.016c-0.197,0-0.216-0.702-0.198-0.871c0.026-0.271,0.016-0.571,0.016-0.858v-1.323
		c0-0.231-0.039-0.545,0.01-0.755c0.021-0.104,0.103-0.235,0.172-0.312v-0.021h-0.907c-0.106,0-0.244-0.018-0.329,0.021
		c-0.076,0.032-0.107,0.108-0.129,0.182h-0.02v-0.02c-0.036,0-0.079-0.052-0.109-0.069c-0.072-0.037-0.149-0.071-0.224-0.088
		C413.104,548.89,412.987,548.883,412.863,548.881L412.863,548.881z M421.02,548.881c-0.124-0.001-0.25,0.006-0.371,0.006
		c-0.078,0.027-0.152,0.045-0.232,0.067c-0.155,0.062-0.336,0.197-0.428,0.339c-0.322,0.484-0.322,1.14-0.433,1.723
		c-0.06,0.31-0.144,0.716-0.099,1.048c0.017,0.144,0.093,0.278,0.178,0.391c0.332,0.428,0.885,0.629,1.457,0.589
		c0.227-0.02,0.434-0.095,0.646-0.131v0.869c-0.003,0.115,0.011,0.239-0.016,0.34c-0.013,0.059-0.042,0.107-0.082,0.15
		c-0.124,0.126-0.25,0.131-0.397,0.204c-0.402,0-1.135,0.043-1.371-0.235h-0.014v-0.021c-0.037,0-0.021,0.113-0.021,0.146v1.401
		h0.021c0-0.232,0.687-0.193,0.869-0.214c0.338-0.037,0.697-0.01,1.026-0.077c0.382-0.079,0.767-0.356,0.921-0.725
		c0.25-0.57,0.21-1.291,0.21-1.985v-2.369v-0.734c0-0.141-0.012-0.297,0.014-0.422c0.026-0.113,0.106-0.208,0.146-0.317
		c0.03,0,0.026-0.009,0.026-0.036h-0.854c-0.118,0-0.261-0.018-0.359,0.021c-0.086,0.024-0.124,0.105-0.141,0.182
		c-0.043,0-0.113-0.074-0.152-0.099c-0.063-0.023-0.126-0.046-0.193-0.067C421.268,548.894,421.144,548.883,421.02,548.881
		L421.02,548.881z M428.989,548.881c-0.144,0-0.283,0.006-0.422,0.006c-0.049,0.016-0.096,0.025-0.145,0.036
		c-0.521,0-0.878,0.442-1.004,0.886c-0.092,0.316-0.112,0.679-0.146,1.011c-0.038,0.326-0.095,0.712-0.046,1.062
		c0.059,0.402,0.339,0.783,0.701,0.97c0.481,0.243,1.264,0.254,1.803,0.099c0.395-0.119,0.741-0.428,0.891-0.812
		c0.191-0.47,0.028-1.308-0.036-1.813c-0.023-0.193-0.046-0.395-0.105-0.567c-0.067-0.21-0.188-0.425-0.355-0.583
		C429.848,548.912,429.42,548.88,428.989,548.881z M413.083,549.829c0.194,0,0.372-0.001,0.479,0.146
		c0.054,0.074,0.072,1.641,0.021,1.777c-0.049,0.136-0.181,0.279-0.312,0.349c-0.049,0.021-0.098,0.036-0.146,0.056
		c-0.221,0-0.395-0.081-0.48-0.275c-0.056-0.132-0.043-0.26-0.036-0.417c0.004-0.467,0.067-1.196,0.308-1.53
		C412.959,549.871,413.024,549.859,413.083,549.829z M421.223,549.829c0.171,0,0.393-0.012,0.48,0.135
		c0.062,0.088,0.063,1.719,0.01,1.845c-0.089,0.19-0.231,0.273-0.396,0.392c-0.198,0-0.333-0.022-0.453-0.179
		c-0.257-0.357-0.039-1.771,0.198-2.083C421.108,549.877,421.159,549.862,421.223,549.829L421.223,549.829z M428.842,549.881
		c0.172,0,0.323-0.001,0.434,0.119c0.196,0.21,0.18,0.711,0.198,1.021c0.007,0.134,0.026,0.287,0.009,0.423
		c-0.013,0.184-0.061,0.357-0.139,0.51c-0.066,0.121-0.177,0.168-0.277,0.246c-0.169,0-0.305-0.008-0.417-0.121
		c-0.276-0.276-0.216-0.876-0.199-1.281c0.015-0.273,0.022-0.575,0.168-0.782C428.675,549.932,428.759,549.924,428.842,549.881z
		 M404.728,550.418c-0.047,0.125-0.135,0.246-0.213,0.354c-0.387,0.507-0.967,0.664-1.521,0.875
		c-0.359,0.137-0.711,0.317-1.025,0.548c-1.062,0.76-1.47,2.01-1.672,3.26c-0.064,0.385-0.13,0.78-0.13,1.192h-0.016
		c0,0.028-0.217,0.019-0.255,0.037c-0.095,0-0.217-0.02-0.297,0.016c-0.345,0-0.656,0.002-0.943-0.095
		c-0.192-0.063-0.348-0.184-0.537-0.254v-0.016h-0.015c0,0.635,0.235,1.073,0.771,1.385c0.166,0.093,0.352,0.186,0.558,0.202
		c0.18,0.019,0.366,0.003,0.537-0.01c0,0.125-0.117,0.396-0.162,0.516c-0.315,0.839-0.935,1.493-1.735,1.901
		c-0.184,0.093-0.375,0.206-0.578,0.271v0.035c0.053,0.026,0.107,0.046,0.162,0.073c0.084,0.03,0.161,0.062,0.245,0.09
		c0.35,0.079,0.763,0.116,1.162,0.087c1.607-0.126,2.285-1.596,2.38-3.062c0.321,0,0.652-0.085,0.979-0.053
		c0.138,0.015,0.282,0.031,0.407,0.079c0.088,0.034,0.171,0.07,0.255,0.099c0-0.147-0.079-0.314-0.125-0.443
		c-0.237-0.614-0.729-0.78-1.349-0.859c0.046-0.293,0.095-0.583,0.141-0.88c0.145-0.778,0.422-2.709,1.427-2.739v5.932v1.068
		c0,0.171,0.022,0.377-0.016,0.531c-0.025,0.113-0.11,0.254-0.224,0.312c0,0.033,0.168,0.021,0.203,0.021h1.812v-0.021
		c-0.088,0-0.16-0.12-0.177-0.187c-0.063-0.194-0.031-0.467-0.031-0.692v-1.6v-5.479v-1.781
		C404.744,550.921,404.786,550.603,404.728,550.418L404.728,550.418z M405.948,554.585v0.02c-0.132,0-0.27,0.078-0.365,0.151
		c-0.651,0.522-0.258,1.623,0.599,1.511c0.901-0.114,1.042-1.386,0.188-1.641C406.24,554.588,406.102,554.585,405.948,554.585
		L405.948,554.585z M425.707,556.647c-0.065,0.028-0.134,0.056-0.203,0.089c-0.043,0.006-0.083,0.015-0.131,0.021h-0.776
		c-0.095,0-0.233-0.015-0.313,0.021c-0.368,0-0.722,0.181-0.931,0.464c-0.427,0.566-0.046,1.221,0.431,1.615
		c0.316,0.257,0.652,0.375,0.773,0.806c0.028,0.106,0.014,0.204-0.058,0.281c-0.184,0.179-0.714-0.07-0.871-0.183
		c-0.083-0.07-0.164-0.142-0.244-0.214v-0.015c-0.046,0-0.035,0.074-0.038,0.109c0,0.459,0,0.92,0,1.381h0.038
		c0-0.024,0.004-0.025,0.02-0.037c0.158-0.101,0.356-0.094,0.567-0.094h0.72c0.102-0.003,0.207-0.009,0.312-0.01
		c0.271-0.061,0.516-0.24,0.682-0.47c0.598-0.848-0.146-1.546-0.74-2.104c-0.134-0.128-0.398-0.237-0.395-0.448
		c0-0.072,0.017-0.116,0.078-0.15c0.057-0.039,0.136-0.061,0.214-0.038c0.214,0.058,0.282,0.188,0.567,0.188
		c0.071,0,0.138-0.01,0.193-0.036c0.072-0.028,0.109-0.089,0.125-0.156C425.753,557.559,425.763,556.689,425.707,556.647
		L425.707,556.647z M422.317,556.726c-0.296,0.001-0.581,0.022-0.641,0.083c-0.126,0.122-0.083,0.396-0.083,0.588v1.489
		c0,0.31,0.04,0.676-0.078,0.923c-0.104,0.211-0.188,0.216-0.365,0.327c-0.29,0-0.448-0.285-0.526-0.516
		c-0.076-0.231-0.064-0.601-0.089-0.859c-0.049-0.581-0.101-1.163-0.149-1.744c0.003-0.111,0.058-0.22,0.155-0.261v-0.021h-1.218
		c-0.085,0.059-0.157,0.107-0.193,0.208c-0.046,0.133-0.011,0.301,0.006,0.438c0.04,0.312,0.081,0.622,0.124,0.932
		c0.129,0.697,0.125,1.868,0.641,2.334c0.099,0.086,0.207,0.139,0.323,0.198c0.154,0.076,0.326,0.147,0.522,0.156
		c0.252,0.015,0.592,0.042,0.812-0.073h0.036v0.625c-0.007,0.302-0.01,0.531-0.25,0.704c-0.112,0.079-0.242,0.079-0.359,0.141
		c-0.358,0-0.823,0.007-1.036-0.292h-0.022v-0.021c-0.03,0-0.01,0.101-0.01,0.131v1.286h0.032c0-0.031,0.036-0.03,0.057-0.036
		c0.111-0.047,0.251-0.034,0.385-0.037c0.217-0.006,0.458-0.009,0.688-0.021c0.155-0.004,0.331-0.009,0.474-0.047
		c0.444-0.116,1.043-0.519,1.233-0.969c0.198-0.479,0.136-1.119,0.136-1.704v-2.5v-0.863c0-0.142-0.024-0.312,0.016-0.438
		c0.017-0.057,0.059-0.104,0.109-0.131v-0.021C422.923,556.735,422.613,556.723,422.317,556.726L422.317,556.726z M417.86,556.73
		c-0.073,0.002-0.144,0.012-0.194,0.037c-0.073,0.029-0.098,0.097-0.135,0.155v0.017h-0.01c0-0.03-0.058-0.052-0.083-0.068
		c-0.27-0.155-0.605-0.135-0.959-0.135c-0.082,0.028-0.17,0.055-0.254,0.078c-0.126,0.05-0.294,0.169-0.381,0.281
		c-0.106,0.143-0.194,0.316-0.238,0.49c-0.135,0.514-0.193,1.064-0.271,1.599c-0.036,0.241-0.102,0.545-0.036,0.786
		c0.063,0.239,0.231,0.455,0.437,0.62c0.293,0.231,0.957,0.368,1.371,0.271c0.075-0.015,0.135-0.032,0.198-0.073
		c0.049-0.032,0.092-0.097,0.155-0.1c0.081-0.004,0.109,0.078,0.157,0.121c0.049,0.039,0.105,0.061,0.163,0.073
		c0.139,0.003,0.281,0.007,0.421,0.01h0.697v-0.016c-0.032,0-0.05-0.039-0.066-0.063c-0.146-0.241-0.121-0.574-0.121-0.895v-1.875
		c0.006-0.311,0.012-0.624,0.016-0.938c0.016-0.11,0.099-0.263,0.171-0.349v-0.021h-0.822
		C418.006,556.735,417.932,556.73,417.86,556.73L417.86,556.73z M405.832,556.735c-0.101,0.067-0.157,0.125-0.188,0.244
		c-0.006,0.103-0.008,0.206-0.015,0.308v0.589v2.042c0,0.214,0.038,0.652-0.031,0.823c-0.022,0.052-0.056,0.085-0.094,0.129h-0.026
		v0.021h1.5v-0.021c-0.288,0-0.219-0.635-0.219-0.859v-2.077c-0.005-0.303-0.057-0.67-0.01-0.974
		c0.014-0.082,0.044-0.166,0.119-0.204v-0.021H405.832L405.832,556.735z M407.348,556.735c0.131,0.197,0.073,0.803,0.073,1.089
		c-0.002,0.95,0,1.898,0,2.85c-0.009,0.07-0.025,0.129-0.073,0.182v0.015h-0.021v0.021h1.333v-0.021
		c-0.125,0-0.093-0.714-0.093-0.859v-0.864c0-0.176-0.031-0.387,0.01-0.552c0.081-0.329,0.353-0.566,0.671-0.651
		c0.218-0.059,0.531,0.032,0.683,0.157h0.02c-0.042-0.312-0.08-0.63-0.124-0.944c-0.014-0.076-0.008-0.188-0.048-0.25
		c-0.054-0.077-0.154-0.115-0.239-0.14c-0.389-0.111-0.651,0.12-0.901,0.354c-0.176,0-0.13-0.25-0.13-0.385H407.348L407.348,556.735
		z M410.244,556.735c0.05,0.051,0.096,0.089,0.115,0.151c0.052,0.159,0.024,0.355,0.036,0.531c0.019,0.329,0.037,0.659,0.057,0.99
		c0.058,0.943,0.356,1.584,1.069,2.166c0.121,0.101,0.239,0.235,0.379,0.296c0,0.029,0.02,0.021,0.046,0.021
		c0.049-0.126,0.092-0.257,0.141-0.385c0.115-0.276,0.224-0.556,0.339-0.829c0.055-0.126,0.109-0.254,0.167-0.385
		c0.033-0.051,0.09-0.088,0.156-0.078c0.044,0.009,0.082,0.042,0.109,0.078c0.106,0.168,0.162,0.384,0.24,0.562
		c0.145,0.328,0.309,0.691,0.411,1.036h0.037c0-0.024,0.018-0.024,0.036-0.036c0.177-0.114,0.337-0.27,0.5-0.406
		c0.084-0.083,0.177-0.167,0.266-0.245c0.149-0.191,0.276-0.411,0.385-0.625c0.293-0.563,0.29-1.469,0.323-2.161
		c0.004-0.18-0.001-0.351,0.036-0.512c0.013-0.064,0.055-0.117,0.115-0.15v-0.021h-1.089c-0.161,0-0.342-0.016-0.474,0.036
		c-0.01,0.022,0.046,0.064,0.063,0.089c0.121,0.141,0.095,0.944,0.052,1.156c-0.027,0.137-0.056,0.28-0.083,0.411h-0.02
		c-0.043-0.085-0.092-0.172-0.141-0.26c-0.144-0.265-0.285-0.54-0.474-0.781c-0.089-0.117-0.197-0.219-0.288-0.34
		c-0.257,0-0.808,1.161-0.957,1.361v0.02h-0.021c-0.03-0.137-0.059-0.28-0.087-0.421c-0.043-0.283-0.039-0.616-0.006-0.902
		c0.007-0.052,0.012-0.109,0.02-0.161c0.02-0.064,0.07-0.128,0.126-0.172v-0.016h0.026v-0.021H410.244L410.244,556.735z
		 M417.057,557.672c0.164,0,0.365,0,0.464,0.125c0.026,0.039,0.04,0.084,0.046,0.137c0,0.378,0,0.759,0,1.141
		c0,0.17,0.04,0.418-0.032,0.562c-0.055,0.125-0.164,0.239-0.286,0.308c-0.049,0.023-0.092,0.045-0.14,0.067
		c-0.167,0-0.313-0.03-0.412-0.155c-0.27-0.361-0.049-1.745,0.183-2.062C416.926,557.732,416.995,557.702,417.057,557.672
		L417.057,557.672z"/>
	<path id="path3237" fill="#ED1C24" d="M402.328,540.612c0.036,0.108-0.02,0.206,0.017,0.294c0,0.168,0.003,0.328,0.003,0.498
		c-0.032,0.784-0.083,1.556-0.083,2.338c0,0.726-0.035,1.227-0.035,1.696c0.003,0.124-0.022,0.781-0.017,0.902
		c0.004,0.402-0.081,0.771-0.131,1.153c-0.157,1.244-0.753,2.35-1.701,3.186c-0.337,0.293-0.682,0.54-1.055,0.754
		c-0.118,0.057-0.236,0.118-0.355,0.177c-0.013,0.003-0.023,0.009-0.041,0.009h-0.048c-0.193-0.123-0.386-0.247-0.581-0.366
		c-0.407-0.235-0.875-0.415-1.361-0.485c-0.232-0.032-0.503-0.067-0.755-0.032c-1.527,0.194-3.076,1.374-3.776,2.733
		c-0.212,0.41-0.376,0.826-0.466,1.304c-0.057,0.335-0.063,0.764-0.023,1.119c0.124,1.315,0.599,2.386,1.511,3.296
		c0.486,0.481,0.99,0.872,1.529,1.237c0.197,0.122,0.402,0.249,0.597,0.375c0.02,0.009,0.035,0.009,0.035,0.039h0.022v0.016
		c-0.803-0.026-1.72-0.493-2.328-0.912c-0.445-0.311-0.878-0.606-1.274-1.016c-0.219-0.22-0.403-0.47-0.572-0.716
		c-0.195-0.289-0.401-0.572-0.551-0.885c-0.421-0.875-0.658-1.979-0.588-3.088c0.042-0.664,0.192-1.28,0.399-1.859
		c0.116-0.321,0.3-0.613,0.473-0.906c0.899-1.471,2.479-2.402,3.845-3.326c0.883-0.592,1.763-1.192,2.648-1.785
		c0.846-0.572,1.687-1.13,2.416-1.899c0.662-0.706,1.194-1.53,1.584-2.372C401.829,541.731,402.194,540.98,402.328,540.612"/>
	<path id="path3243" fill="#B49142" d="M402.197,536.722c0.036,0.1,0.021,0.24,0.021,0.364v0.793c0,0.509-0.021,1.123-0.079,1.601
		c-0.136,1.077-0.63,1.896-1.165,2.776c-0.186,0.302-0.396,0.576-0.591,0.867c-0.177,0.254-0.367,0.516-0.587,0.741
		c-0.36,0.372-0.752,0.708-1.149,1.007c-0.635,0.473-1.248,0.937-1.919,1.342c-0.683,0.412-1.334,0.875-1.993,1.322
		c-1.408,0.945-2.856,2.028-3.836,3.472c-0.279,0.41-0.469,0.864-0.645,1.322c-0.278,0.717-0.432,1.564-0.375,2.442
		c0.049,0.796,0.293,1.512,0.576,2.191c0.189,0.437,0.404,0.861,0.687,1.255c0.322,0.469,0.756,0.905,1.202,1.283
		c0.456,0.388,0.911,0.743,1.4,1.066c0.067,0.047,0.691,0.349,0.764,0.349c0,0.008-0.436-0.079-0.436-0.065
		c-0.889-0.186-1.722-0.666-2.389-1.209c-1.634-1.343-2.724-3.196-2.822-5.366c-0.038-0.757,0.006-1.494,0.25-2.129
		c0.996-2.583,3.425-4.576,5.627-6.227c0.768-0.585,1.536-1.168,2.305-1.747c0.495-0.375,0.991-0.751,1.488-1.128
		c0.147-0.146,0.294-0.293,0.445-0.437c0.792-0.793,1.49-1.632,2.054-2.555c0.161-0.263,0.326-0.525,0.463-0.8
		c0.242-0.5,0.434-1.052,0.544-1.616C402.096,537.339,402.181,537.035,402.197,536.722"/>
	<path id="path3249" fill="#254AA5" d="M401.961,519.365c0.145,0,0.288,0,0.369,0.121c0.098,0.139,0.052,0.543,0.052,0.745
		c0.008,1.009,0.052,10.974,0.052,11.602c0.015,0.691-0.006,1.527-0.016,2.227c-0.028,1.887-0.672,3.575-1.496,5.063
		c-0.314,0.561-0.573,1.136-1.019,1.636c-0.316,0.355-0.635,0.707-0.985,1.036c-0.687,0.64-1.411,1.207-2.138,1.768
		c-0.755,0.629-1.509,1.257-2.266,1.878c-0.531,0.4-1.063,0.8-1.572,1.25c-0.327,0.287-0.637,0.586-0.961,0.88
		c-0.333,0.302-0.633,0.654-0.95,0.983c-0.94,0.965-1.779,2.062-2.172,3.309c-0.142,0.436-0.244,0.854-0.307,1.33
		c-0.054,0.406-0.018,0.857,0.01,1.266c0.131,2.095,1.102,3.954,2.745,5.229c0.511,0.396,1.046,0.751,1.63,1.004
		c0.118,0.051,0.332,0.183,0.459,0.183v0.018c-1.969-0.241-3.733-0.935-5.248-2.07c-0.29-0.211-0.552-0.464-0.809-0.717
		c-1.867-1.863-2.783-4.509-2.505-7.378c0.125-1.335,0.439-2.579,0.965-3.714c0.887-1.922,2.339-3.465,3.967-4.938
		c0.359-0.296,0.714-0.591,1.067-0.887c0.615-0.487,1.21-0.99,1.815-1.504c0.279-0.243,0.557-0.484,0.837-0.728
		c0.816-0.769,1.665-1.509,2.417-2.352c0.905-1.024,1.776-2.062,2.525-3.162c0.451-0.664,0.861-1.344,1.271-2.021
		c0.319-0.526,0.583-1.085,0.835-1.646c0.877-2.004,1.441-4.336,1.517-6.73c0.025-0.765-0.029-1.481-0.131-2.171
		c-0.042-0.237-0.083-0.476-0.129-0.716c-0.035-0.165-0.084-0.349-0.063-0.533C401.743,519.486,401.852,519.421,401.961,519.365"/>
</g>
</svg>
