<?xml version="1.0" encoding="utf-8"?>
<!-- Generator: Adobe Illustrator 16.2.1, SVG Export Plug-In . SVG Version: 6.00 Build 0)  -->
<!DOCTYPE svg PUBLIC "-//W3C//DTD SVG 1.1//EN" "http://www.w3.org/Graphics/SVG/1.1/DTD/svg11.dtd">
<svg version="1.1"
	 id="svg3349" xmlns:dc="http://purl.org/dc/elements/1.1/" xmlns:cc="http://creativecommons.org/ns#" xmlns:rdf="http://www.w3.org/1999/02/22-rdf-syntax-ns#" xmlns:sodipodi="http://sodipodi.sourceforge.net/DTD/sodipodi-0.dtd" xmlns:inkscape="http://www.inkscape.org/namespaces/inkscape" sodipodi:version="0.32" inkscape:output_extension="org.inkscape.output.svg.inkscape" sodipodi:docname="Pakistan_International_Airlines_Logo.svg" inkscape:version="0.46" xmlns:svg="http://www.w3.org/2000/svg"
	 xmlns="http://www.w3.org/2000/svg" xmlns:xlink="http://www.w3.org/1999/xlink" x="0px" y="0px" width="50px" height="50px"
	 viewBox="100.5 65.5 50 50" enable-background="new 100.5 65.5 50 50" xml:space="preserve">
<defs>
	
	
		<inkscape:perspective  inkscape:vp_z="1348.75 : 223.75 : 1" inkscape:vp_y="0 : 1000 : 0" inkscape:vp_x="0 : 223.75 : 1" sodipodi:type="inkscape:persp3d" id="perspective3457" inkscape:persp3d-origin="674.375 : 149.16667 : 1">
		</inkscape:perspective>
</defs>
<sodipodi:namedview  pagecolor="#ffffff" gridtolerance="10.0" showgrid="false" inkscape:cy="223.75" inkscape:cx="674.375" inkscape:zoom="0.40333642" borderopacity="1.0" bordercolor="#666666" guidetolerance="10.0" objecttolerance="10.0" id="base" inkscape:window-x="92" inkscape:pageshadow="2" inkscape:window-width="640" inkscape:current-layer="svg3349" inkscape:window-height="669" inkscape:pageopacity="0.0" inkscape:window-y="95">
	</sodipodi:namedview>
<g id="_x23_ffffffff">
</g>
<g id="_x23_01402bff">
	<path id="path3355" fill="#01402B" d="M133.484,72.113c1.582-0.393,3.19,0.119,4.79,0.029c0.349,0.175,0.42,0.627,0.166,0.911
		c-0.989,0.761-1.806,1.725-2.793,2.482c-0.125,0.272-0.271,0.551-0.27,0.859c0.052,1.305,0.015,2.611,0.027,3.917
		c-0.021,0.669,0.072,1.352-0.112,2.006c-0.081,0.439-0.36,0.8-0.636,1.138c-0.508,0.626-1.051,1.24-1.707,1.716
		c-0.239,0.178-0.539,0.168-0.747-0.049c0.113-0.696,0.498-1.335,0.483-2.055c-0.076-1.614,0.033-3.235-0.061-4.848
		c0.024-0.52,0.206-1.048,0.568-1.429c0.694-0.691,1.391-1.378,2.073-2.081c-0.024-0.066-0.067-0.199-0.091-0.267
		c-1.02-0.091-2.067-0.19-3.067,0.104c-0.396,0.137-0.731,0.418-1.138,0.522c-0.383,0.112-0.615-0.466-0.343-0.704
		c0.548-0.551,1.106-1.097,1.727-1.568C132.695,72.519,133.037,72.209,133.484,72.113z"/>
	<path id="path3357" fill="#01402B" d="M122.738,72.312c0.235-0.216,0.685-0.348,0.896-0.037c0.101,0.295-0.044,0.592-0.192,0.841
		c-0.262,0.441-0.443,0.959-0.39,1.479c0.022,0.847,1.047,1.417,1.802,1.139c0.833-0.481,1.496-1.204,2.121-1.926
		c0.248-0.294,0.674-0.484,1.048-0.327c0.812,0.316,1.472,0.948,1.936,1.675c0.709,1.154,1.181,2.477,1.233,3.839
		c0.027,0.855-0.168,1.735-0.653,2.448c-0.543,0.725-1.307,1.246-1.888,1.936c-0.16,0.167-0.081,0.386-0.022,0.576
		c0.422,0.2,0.843,0.412,1.297,0.531c-0.046,0.066-0.089,0.136-0.13,0.205c0.097-0.023,0.183-0.067,0.262-0.13
		c1.566,0.648,3.164,1.308,4.494,2.385c1.008,0.769,1.726,1.98,1.717,3.271c-0.058,1.43-0.475,2.854-1.254,4.058
		c-0.897,1.48-2.263,2.614-3.715,3.527c-2.781,1.674-5.942,2.604-9.123,3.153c-1.581,0.278-3.181,0.394-4.781,0.497
		c0.366,0.954,1.184,1.664,2.129,2.018c1.191,0.469,2.487,0.569,3.755,0.611c0.838,0.092,1.674-0.031,2.513-0.026
		c1.034-0.021,2.064-0.107,3.096-0.155c3.135-0.281,6.253-1.017,9.11-2.357c1.647-0.812,3.301-1.841,4.292-3.435
		c0.68-1.076,0.79-2.492,0.27-3.655c-0.423-0.869-1.221-1.477-2.048-1.937c-1.08-0.552-2.178-1.064-3.245-1.642l0.045-0.121
		c0.037-0.094,0.073-0.188,0.109-0.281c-0.202-0.095-0.371-0.24-0.495-0.422c0.07-0.09,0.142-0.181,0.215-0.27
		c-0.027-0.191-0.036-0.383-0.005-0.574c0.008-0.025,0.025-0.078,0.034-0.102c0.551-0.415,0.956-0.983,1.459-1.449
		c0.483-0.438,0.914-0.933,1.301-1.455c0.306-0.478,0.206-1.077,0.074-1.594c-0.276-1.065-0.994-1.926-1.626-2.796
		c-0.211-0.243-0.455-0.573-0.809-0.548c-0.393,0.13-0.832,0.263-1.226,0.064c-0.034-0.116-0.068-0.229-0.102-0.346
		c0.036-0.11,0.071-0.22,0.108-0.33c0.533-0.379,0.974-0.866,1.477-1.281c0.478-0.442,0.984-0.854,1.447-1.312
		c0.309-0.308,0.865-0.281,1.163,0.032c0.822,0.764,1.638,1.576,2.167,2.579c0.458,0.892,0.667,1.979,0.301,2.942
		c-0.301,0.852-0.978,1.484-1.506,2.195c-0.325,0.418-0.543,0.908-0.881,1.315c-0.169,0.215-0.341,0.504-0.204,0.777
		c0.175,0.458,0.66,0.668,0.995,0.99c1.474,1.285,2.814,2.894,3.219,4.855c0.362,1.643-0.108,3.364-0.98,4.77
		c-1.336,2.046-2.89,4.014-4.936,5.394c-1.951,1.332-4.161,2.21-6.312,3.162c-2.666,1.183-5.556,1.874-8.473,1.965
		c-1.439,0.026-2.889-0.117-4.283-0.487c-1.357-0.396-2.752-1.027-3.581-2.223c-0.609-0.835-0.782-1.935-0.572-2.936
		c0.112-0.638,0.411-1.219,0.636-1.82c-1.623-0.165-3.265-0.237-4.854-0.629c-1.271-0.292-2.507-0.788-3.579-1.54
		c-0.649-0.474-1.312-1.021-1.598-1.799c-0.36-0.929-0.22-1.951,0.006-2.893c0.152-0.551,0.271-1.129,0.642-1.579
		c-0.314-0.236-0.725-0.147-1.089-0.182c-0.795-0.072-1.611-0.106-2.364-0.396c-0.451-0.163-0.861-0.42-1.251-0.694
		c-0.438-0.298-0.914-0.576-1.222-1.02c-0.309-0.586-0.284-1.332,0.058-1.899c0.309-0.456,0.769-0.774,1.164-1.147
		c0.67-0.652,1.382-1.256,2.063-1.897c0.532-0.451,0.983-1.009,1.606-1.338c0.76-0.405,1.618-0.64,2.481-0.631
		c1.141,0.003,2.282-0.009,3.425,0.009c0.701,0.029,0.998-0.903,1.717-0.816c0.109,0.164,0.209,0.334,0.297,0.51
		c-0.064,0.126-0.103,0.271-0.208,0.373c-0.586,0.587-1.18,1.163-1.752,1.763c-0.612,0.644-1.48,1.061-2.375,1.061
		c-1.722,0.004-3.443-0.002-5.165,0c-0.561,0.311-0.981,0.978-0.789,1.625c0.161,0.731,0.959,1.133,1.662,1.099
		c6.563,0.001,13.128,0.001,19.691,0c0.657-0.04,1.322,0.121,1.97-0.055c0.438-0.056,0.75-0.552,1.219-0.382
		c0.042,0.149,0.088,0.298,0.137,0.447c-0.163,0.311-0.448,0.521-0.691,0.763c-0.636,0.613-1.299,1.197-1.919,1.825
		c-0.547,0.584-1.352,0.886-2.14,0.927c-5.087,0.021-10.176-0.021-15.263,0.021c-0.124,0.29-0.326,0.607-0.199,0.929
		c0.209,0.387,0.501,0.731,0.846,1.006c1.078,0.848,2.423,1.244,3.742,1.536c2.741,0.562,5.552,0.595,8.34,0.572
		c2.39,0.019,4.786-0.032,7.155-0.372c1.489-0.221,2.986-0.544,4.345-1.214c0.719-0.387,1.448-0.854,1.871-1.575
		c0.598-0.943,0.653-2.254,0.05-3.207c-0.657-0.889-1.691-1.356-2.627-1.886c-1.968-1.11-4.177-1.652-6.303-2.368
		c-0.303-0.175-0.483-0.464-0.565-0.796c0.107-0.306,0.212-0.648,0.495-0.841c0.388-0.271,0.789-0.526,1.135-0.848
		c0.841-0.656,1.717-1.316,2.317-2.215c0.409-0.576,0.254-1.349-0.016-1.951c-0.518-1.036-0.94-2.162-1.781-2.992
		c-0.323-0.287-0.666-0.62-1.126-0.64c-0.733,0.698-1.493,1.376-2.187,2.119c-0.247,0.182-0.436,0.537-0.774,0.526
		c-0.383-0.113-0.398-0.573-0.402-0.906c-0.613-0.323-1.319-0.764-1.417-1.515c-0.188-0.866,0.018-1.781,0.488-2.522
		C121.664,73.307,122.188,72.785,122.738,72.312z"/>
</g>
<g id="_x23_02402bff">
	<path id="path3366" fill="#02402B" d="M123.409,78.806c0.206-0.186,0.469-0.078,0.677,0.041c0.023,0.569-0.511,0.995-0.471,1.575
		c0.015,1.728-0.011,3.456,0.013,5.184c0.088,0.42,0.074,0.884-0.191,1.241c-0.593,0.643-1.266,1.216-1.818,1.894
		c-0.038,0-0.114-0.001-0.153-0.001c-0.222-0.017-0.438,0.048-0.648,0.113c-0.094-0.056-0.188-0.11-0.282-0.164
		c0.156-0.509,0.372-1.018,0.358-1.561c-0.102-1.241-0.031-2.488-0.052-3.735c0.024-0.62-0.096-1.268,0.147-1.86
		c0.183-0.591,0.712-0.956,1.116-1.39C122.526,79.682,123.017,79.293,123.409,78.806z"/>
</g>
<g id="_x23_04402bff">
	<path id="path3369" fill="#04402B" d="M148.639,85.128c0.128-0.07,0.282-0.017,0.421-0.024c0.431,0.451,0.849,0.91,1.271,1.369
		c0.199,0.192,0.21,0.514,0.091,0.753c-0.247,0.314-0.553,0.579-0.806,0.889c-0.264,0.288-0.52,0.691-0.971,0.624
		c-0.505-0.43-0.877-0.99-1.375-1.425c-0.288-0.102-0.699-0.13-0.913,0.133c-0.35,0.358-0.681,0.735-1.026,1.098
		c-0.185,0.214-0.541,0.249-0.737,0.032c-0.383-0.391-0.742-0.804-1.109-1.21c-0.07-0.084-0.141-0.168-0.214-0.251
		c-0.015-0.211-0.018-0.442,0.147-0.601c0.391-0.454,0.797-0.903,1.229-1.317c0.386-0.297,0.781,0.123,1.007,0.414
		c0.409,0.393,0.727,0.932,1.25,1.17C147.613,86.397,147.973,85.579,148.639,85.128z"/>
</g>
<g id="_x23_03402cff">
	<path id="path3372" fill="#03402C" d="M146.38,88.687c0.204-0.2,0.583-0.29,0.793-0.052c0.396,0.408,0.772,0.835,1.159,1.25
		c0.234,0.23,0.207,0.641-0.018,0.868c-0.387,0.419-0.783,0.829-1.173,1.244c-0.126,0.147-0.337,0.117-0.508,0.106
		c-0.314-0.221-0.528-0.553-0.818-0.8c-0.272-0.41-0.889-0.761-0.604-1.331C145.601,89.545,146.013,89.135,146.38,88.687z"/>
</g>
<g id="_x23_132b22ff">
	<path id="path3375" fill="#132B22" d="M120.537,88.688c0.093,0.054,0.188,0.108,0.282,0.164c0.21-0.065,0.426-0.13,0.648-0.113
		l0.094,0.048c-0.254,0.246-0.502,0.695-0.928,0.533C120.329,89.234,120.434,88.897,120.537,88.688z"/>
	<path id="path3377" fill="#132B22" d="M137.265,90.868c-0.621-0.327-0.694-1.246-0.13-1.663c-0.031,0.191-0.022,0.383,0.005,0.574
		c-0.073,0.089-0.145,0.18-0.215,0.27c0.125,0.182,0.293,0.327,0.495,0.422c-0.037,0.094-0.073,0.188-0.109,0.281L137.265,90.868z"
		/>
</g>
<g id="_x23_c1d4ceff">
	<path id="path3380" fill="#C1D4CE" d="M106.812,99.041C106.862,99.098,106.862,99.098,106.812,99.041z"/>
</g>
<g id="_x23_fefefeff">
</g>
<g id="_x23_fefcfdff">
</g>
<g id="_x23_fefdfeff">
</g>
<g id="_x23_fcfafbff">
</g>
<g id="_x23_fbf9faff">
</g>
<g id="_x23_fcfbfbff">
</g>
<g id="_x23_fdfbfcff">
</g>
</svg>
