<?xml version="1.0" encoding="utf-8"?>
<!-- Generator: Adobe Illustrator 16.2.1, SVG Export Plug-In . SVG Version: 6.00 Build 0)  -->
<!DOCTYPE svg PUBLIC "-//W3C//DTD SVG 1.1//EN" "http://www.w3.org/Graphics/SVG/1.1/DTD/svg11.dtd">
<svg version="1.1"
	 id="Ebene_1" xmlns:dc="http://purl.org/dc/elements/1.1/" xmlns:cc="http://creativecommons.org/ns#" xmlns:rdf="http://www.w3.org/1999/02/22-rdf-syntax-ns#" xmlns:sodipodi="http://sodipodi.sourceforge.net/DTD/sodipodi-0.dtd" xmlns:inkscape="http://www.inkscape.org/namespaces/inkscape" sodipodi:docname="Philippine-Airlines-logo.svg" inkscape:version="0.48.4 r9939" xmlns:svg="http://www.w3.org/2000/svg"
	 xmlns="http://www.w3.org/2000/svg" xmlns:xlink="http://www.w3.org/1999/xlink" x="0px" y="0px" width="50px" height="50px"
	 viewBox="186.933 52.285 50 50" enable-background="new 186.933 52.285 50 50" xml:space="preserve">
<sodipodi:namedview  pagecolor="#ffffff" gridtolerance="10" showgrid="false" inkscape:cy="-14.003659" inkscape:cx="218.57346" inkscape:zoom="1.461032" borderopacity="1" bordercolor="#666666" fit-margin-top="0" guidetolerance="10" fit-margin-left="0" objecttolerance="10" id="namedview26" inkscape:window-x="-8" inkscape:pageshadow="2" inkscape:window-width="1366" fit-margin-right="0" inkscape:current-layer="Ebene_1" inkscape:window-height="705" inkscape:pageopacity="0" inkscape:window-maximized="1" inkscape:window-y="-8" fit-margin-bottom="0">
	</sodipodi:namedview>
<g id="g236" transform="matrix(0.308267,0,0,0.308267,-14.067767,-12.715397)">
	<g id="g274">
		<polygon id="polygon276" fill="#213548" points="745.084,338.214 761.664,245.695 652.035,338.214 		"/>
		<path id="path278" inkscape:connector-curvature="0" fill="#FFCB00" d="M748.854,286.105l0.767-30.25l-2.545,2.154l-0.71,28.356
			l-3.421,12.586l0,0c0,0.006-0.006,0.006-0.013,0.006l0.013-0.006l-5.876-10.727l-3.128-19.134l-2.208,1.866l2.764,17.268v13.502
			l0.074-0.025c-0.047,0.019-0.09,0.038-0.136,0.067l0.062-0.035l-8.1-9.494l-6.969-10.894l-1.872,1.581l6.662,10.419l3.165,12.13
			l0.089-0.044c-0.062,0.044-0.117,0.082-0.173,0.117l0.084-0.073l-10.815-7.312l-6.843-8.636l-1.834,1.546l6.776,8.553
			l6.095,10.907l-12.426-4.98l-9.101-7.175l-1.831,1.549l9.369,7.394l8.598,9.086l0.081-0.092c-0.044,0.054-0.087,0.111-0.13,0.171
			l0.046-0.079l-13.479-2.328l-13.964-6.146l-1.958,1.654l14.751,6.497l10.299,7.245l0.071-0.117
			c-0.043,0.082-0.084,0.174-0.127,0.266l0.055-0.149l-13.269-0.925l-20.425-5.528l-2.124,1.796l21.77,5.886l11.226,6.022
			l-13.152,1.549l-33.531-1.907l-2.52,2.126l35.713,2.031l12.152,3.39l45.737-37.888L748.854,286.105L748.854,286.105
			L748.854,286.105L748.854,286.105z"/>
		<polygon id="polygon280" fill="#FF0000" points="797.656,338.214 814.232,245.695 704.603,338.214 		"/>
	</g>
</g>
</svg>
