<?xml version="1.0" encoding="utf-8"?>
<!-- Generator: Adobe Illustrator 16.2.1, SVG Export Plug-In . SVG Version: 6.00 Build 0)  -->
<!DOCTYPE svg PUBLIC "-//W3C//DTD SVG 1.1//EN" "http://www.w3.org/Graphics/SVG/1.1/DTD/svg11.dtd">
<svg version="1.1"
	 id="svg3161" xmlns:dc="http://purl.org/dc/elements/1.1/" xmlns:cc="http://creativecommons.org/ns#" xmlns:rdf="http://www.w3.org/1999/02/22-rdf-syntax-ns#" xmlns:svg="http://www.w3.org/2000/svg" xmlns:sodipodi="http://sodipodi.sourceforge.net/DTD/sodipodi-0.dtd" xmlns:inkscape="http://www.inkscape.org/namespaces/inkscape" sodipodi:docname="AJAX.svg" inkscape:version="0.48.1 "
	 xmlns="http://www.w3.org/2000/svg" xmlns:xlink="http://www.w3.org/1999/xlink" x="0px" y="0px" width="50px" height="50px"
	 viewBox="140.5 88.372 50 50" enable-background="new 140.5 88.372 50 50" xml:space="preserve">
<sodipodi:namedview  inkscape:cy="-61.704265" inkscape:cx="204.34442" inkscape:zoom="1.2913821" showgrid="false" pagecolor="#ffffff" bordercolor="#666666" borderopacity="1" objecttolerance="10" gridtolerance="10" guidetolerance="10" id="namedview48" fit-margin-right="0" fit-margin-bottom="0" inkscape:current-layer="svg3161" inkscape:window-y="-8" inkscape:window-x="-8" inkscape:window-maximized="1" inkscape:pageopacity="0" inkscape:pageshadow="2" inkscape:window-width="1280" inkscape:window-height="1004" fit-margin-left="0" fit-margin-top="0">
	</sodipodi:namedview>
<g id="g3169" transform="matrix(1.25,0,0,-1.25,-10.000725,152.87428)">
	<g id="g114623" transform="matrix(1.37934,0,0,1.37934,-249.936,-657.607)">
		<g>
			<defs>
				<path id="SVGID_1_" d="M290.819,508.489c-0.583-0.585-10.493-12.714-11.542-13.771l0,0c-0.642-0.643-1.226-0.996-1.635-1.115
					l0,0c-0.574-0.231-3.982-1.392-9.154-2.971l0,0h24.518l4.482,17.978l-0.112,0.073c-0.289,0.005-1.03,0.016-1.926,0.016l0,0
					C293.818,508.698,291.674,508.662,290.819,508.489"/>
			</defs>
			<clipPath id="SVGID_2_">
				<use xlink:href="#SVGID_1_"  overflow="visible"/>
			</clipPath>
			
				<linearGradient id="path3375_1_" gradientUnits="userSpaceOnUse" x1="546.3184" y1="855.8931" x2="583.7903" y2="879.9627" gradientTransform="matrix(1.3793 0 0 -1.3793 -489.5243 1686.0192)">
				<stop  offset="0" style="stop-color:#15B8EC"/>
				<stop  offset="0.55" style="stop-color:#15B8EC"/>
				<stop  offset="0.72" style="stop-color:#006BB6"/>
				<stop  offset="1" style="stop-color:#006BB6"/>
			</linearGradient>
			<path id="path3375" inkscape:connector-curvature="0" clip-path="url(#SVGID_2_)" fill="url(#path3375_1_)" d="M275.598,522.723
				l-22.559-34.817l29.959-19.337l22.564,34.816L275.598,522.723z"/>
		</g>
		<g>
			<defs>
				<path id="SVGID_3_" d="M289.488,503.504c-1.275-0.003-2.429-0.518-3.267-1.352l0,0l-0.666-1.422
					c0.7,1.468,2.198,2.486,3.935,2.49l0,0c0.63,0.002,1.23-0.131,1.771-0.369l0,0l-1.359,0.637
					c-0.132,0.011-0.265,0.017-0.401,0.017l0,0C289.497,503.504,289.493,503.504,289.488,503.504 M293.866,498.872
					c0.002-0.659-0.142-1.284-0.402-1.844l0,0l0.67,1.431c0.011,0.134,0.016,0.27,0.016,0.407l0,0
					c-0.003,1.273-0.517,2.425-1.347,3.262l0,0l-0.369,0.172l-0.994,0.466C292.875,502.053,293.862,500.577,293.866,498.872
					 M284.867,499.26c-0.012-0.138-0.018-0.278-0.018-0.417l0,0c0.004-1.269,0.513-2.416,1.337-3.252l0,0l1.405-0.659
					c-1.451,0.706-2.453,2.195-2.458,3.918l0,0c-0.002,0.65,0.14,1.268,0.395,1.823l0,0L284.867,499.26L284.867,499.26z
					 M289.511,494.493c-0.003,0-0.008,0-0.011,0l0,0c-0.638,0-1.244,0.138-1.791,0.383l0,0l1.025-0.48l0.379-0.178
					c0.131-0.01,0.264-0.016,0.398-0.015l0,0c1.271,0.003,2.422,0.515,3.258,1.343l0,0l0.68,1.451
					C292.752,495.521,291.251,494.498,289.511,494.493"/>
			</defs>
			<clipPath id="SVGID_4_">
				<use xlink:href="#SVGID_3_"  overflow="visible"/>
			</clipPath>
			<g id="g3393" clip-path="url(#SVGID_4_)">
				<g id="g3399">
					<g id="g3401" transform="scale(1,-1)">
						<g id="g3403">
							<path id="path3405" inkscape:connector-curvature="0" fill="#F9F790" d="M283.694-496.756l3.702-7.905l0.889,0.416
								l-3.702,7.904L283.694-496.756L283.694-496.756z"/>
							<path id="path3407" inkscape:connector-curvature="0" fill="#F9F790" d="M284.583-496.341l3.702-7.904
								c0,0,0.065,0.031,0.178,0.084l-3.702,7.904C284.648-496.311,284.583-496.341,284.583-496.341L284.583-496.341z"/>
							<path id="path3409" inkscape:connector-curvature="0" fill="#F9F489" d="M284.761-496.257l3.702-7.904
								c0.113,0.053,0.276,0.129,0.47,0.22l-3.702,7.905C285.037-496.128,284.875-496.204,284.761-496.257L284.761-496.257z"/>
							<path id="path3411" inkscape:connector-curvature="0" fill="#F9EE77" d="M285.231-496.037l3.702-7.905
								c0.389,0.183,0.908,0.426,1.427,0.669l-3.702,7.903C286.139-495.612,285.621-495.855,285.231-496.037L285.231-496.037z"/>
							<path id="path3413" inkscape:connector-curvature="0" fill="#FAD947" d="M286.658-495.369l3.702-7.903
								c0.519,0.243,1.037,0.486,1.427,0.668l-3.701,7.903C287.696-494.883,287.178-495.125,286.658-495.369L286.658-495.369z"/>
							<path id="path3415" inkscape:connector-curvature="0" fill="#FAC71B" d="M288.085-494.7l3.701-7.903
								c0.194,0.092,0.357,0.167,0.47,0.221l-3.701,7.903C288.442-494.533,288.28-494.609,288.085-494.7L288.085-494.7z"/>
							<path id="path3417" inkscape:connector-curvature="0" fill="#FBC10E" d="M288.556-494.48l3.701-7.903
								c0.114,0.053,0.178,0.083,0.178,0.083l-3.701,7.903C288.734-494.396,288.669-494.427,288.556-494.48z"/>
							<path id="path3419" inkscape:connector-curvature="0" fill="#FBBF09" d="M288.734-494.396l3.701-7.903l1.714,0.801
								l-3.702,7.905L288.734-494.396z"/>
							<path id="path3421" inkscape:connector-curvature="0" fill="#FABB09" d="M290.447-493.594l3.702-7.905l1.155,0.541
								l-3.701,7.905L290.447-493.594z"/>
						</g>
					</g>
				</g>
			</g>
		</g>
		<g>
			<defs>
				<path id="SVGID_5_" d="M289.491,503.503c-2.57-0.006-4.65-2.09-4.644-4.659c0.007-2.57,2.095-4.65,4.665-4.644
					c1.852,0.006,3.444,1.089,4.189,2.656l0.022,0.048c0.275,0.596,0.429,1.261,0.427,1.961c-0.005,1.853-1.091,3.45-2.661,4.195
					l-0.032,0.016c-0.594,0.276-1.257,0.427-1.956,0.427H289.491L289.491,503.503z M289.491,503.22
					c2.41,0.006,4.369-1.944,4.376-4.349c0.005-2.412-1.944-4.37-4.355-4.377h-0.011c-2.406,0-4.363,1.947-4.371,4.355
					C285.126,501.254,287.079,503.215,289.491,503.22z M289.496,503.028c-1.659-0.004-3.089-0.97-3.761-2.367l-0.037-0.08
					c-0.241-0.529-0.376-1.118-0.374-1.736c0.004-1.658,0.978-3.092,2.383-3.762l0.053-0.022c0.535-0.245,1.131-0.386,1.758-0.385
					c1.123,0.003,2.144,0.459,2.891,1.181c0.031,0.026,0.059,0.053,0.085,0.086c-0.027,0.026-0.053,0.053-0.085,0.08
					c-1.491,1.482-3.528,2.41-5.782,2.458l-0.251-0.25v1.084h0.032c0.912,0.003,1.718-0.08,2.484-0.288
					c-0.417,0.183-0.855,0.318-1.299,0.416v0.845l4.804,0.016h1.031c-0.226,0.6-0.582,1.138-1.036,1.566
					c-0.306,0.296-0.656,0.541-1.042,0.732l-0.155,0.069c-0.515,0.229-1.085,0.358-1.683,0.358H289.496L289.496,503.028z
					 M293.53,499.967l-1.133-0.006h-0.999l-0.027-0.172h1.026l1.176,0.006C293.559,499.855,293.544,499.907,293.53,499.967z
					 M293.643,499.459l-1.246-0.006l-2.596-0.005c1.038-0.585,1.926-1.404,2.602-2.372c0.053-0.073,0.103-0.141,0.15-0.214v-0.011
					c0,0-0.001-0.004,0-0.005c-0.002-0.002,0-0.004,0-0.011v-0.833c0.279,0.298,0.518,0.635,0.7,1.004l0.075,0.166
					c0.229,0.518,0.354,1.093,0.353,1.694C293.681,499.071,293.67,499.261,293.643,499.459L293.643,499.459z"/>
			</defs>
			<clipPath id="SVGID_6_">
				<use xlink:href="#SVGID_5_"  overflow="visible"/>
			</clipPath>
			
				<linearGradient id="path3437_1_" gradientUnits="userSpaceOnUse" x1="561.7935" y1="859.2804" x2="572.1542" y2="864.1267" gradientTransform="matrix(1.3793 0 0 -1.3793 -489.5243 1686.0192)">
				<stop  offset="0" style="stop-color:#F9F5A5"/>
				<stop  offset="0.3352" style="stop-color:#FBDA63"/>
				<stop  offset="0.5813" style="stop-color:#FFC409"/>
				<stop  offset="1" style="stop-color:#FFBF0A"/>
			</linearGradient>
			<path id="path3437" inkscape:connector-curvature="0" clip-path="url(#SVGID_6_)" fill="url(#path3437_1_)" d="M287.257,505.037
				l-3.943-8.426l8.426-3.943l3.943,8.426L287.257,505.037z"/>
		</g>
	</g>
</g>
</svg>
