<?xml version="1.0" encoding="utf-8"?>
<!-- Generator: Adobe Illustrator 16.2.1, SVG Export Plug-In . SVG Version: 6.00 Build 0)  -->
<!DOCTYPE svg PUBLIC "-//W3C//DTD SVG 1.1//EN" "http://www.w3.org/Graphics/SVG/1.1/DTD/svg11.dtd">
<svg version="1.1"
	 id="svg2" sodipodi:version="0.32" inkscape:output_extension="org.inkscape.output.svg.inkscape" sodipodi:docname="2000px-Air_Niugini.svg" inkscape:version="0.46" xmlns:inkscape="http://www.inkscape.org/namespaces/inkscape" xmlns:cc="http://creativecommons.org/ns#" xmlns:rdf="http://www.w3.org/1999/02/22-rdf-syntax-ns#" xmlns:sodipodi="http://sodipodi.sourceforge.net/DTD/sodipodi-0.dtd" xmlns:svg="http://www.w3.org/2000/svg" xmlns:dc="http://purl.org/dc/elements/1.1/"
	 xmlns="http://www.w3.org/2000/svg" xmlns:xlink="http://www.w3.org/1999/xlink" x="0px" y="0px" width="50px" height="50px"
	 viewBox="75.5 137.5 50 50" enable-background="new 75.5 137.5 50 50" xml:space="preserve">
<defs>
	
	
		<inkscape:perspective  inkscape:vp_z="2500 : 1220 : 1" inkscape:vp_x="0 : 1220 : 1" sodipodi:type="inkscape:persp3d" inkscape:vp_y="0 : 1000 : 0" id="perspective59" inkscape:persp3d-origin="1250 : 813.33333 : 1">
		</inkscape:perspective>
</defs>
<sodipodi:namedview  id="base" objecttolerance="10.0" borderopacity="1.0" bordercolor="#666666" pagecolor="#ffffff" gridtolerance="10.0" guidetolerance="10.0" inkscape:cx="1250" inkscape:zoom="0.18934426" inkscape:cy="1220" showgrid="false" inkscape:pageopacity="0.0" inkscape:window-height="669" inkscape:window-y="23" inkscape:window-width="640" inkscape:pageshadow="2" inkscape:current-layer="svg2" inkscape:window-x="23">
	</sodipodi:namedview>
<g id="_x23_752650ff">
	<path id="path5" fill="#752650" d="M102.979,138.932c1.339-0.692,2.784-1.166,4.265-1.432c0.149,0.805,0.226,1.627,0.291,2.444
		c0.072,1.016,0.097,2.037,0.041,3.057c-0.063,1.094-0.208,2.191-0.548,3.237c-0.018,0.018-0.036,0.036-0.05,0.054
		c-2.074,0.068-4.144,0.427-6.103,1.119c-2.178,0.772-4.23,1.999-5.778,3.735c-0.002-0.054-0.004-0.106,0-0.158
		c0.125-1.134,0.35-2.256,0.691-3.348c0.413-1.318,0.993-2.59,1.743-3.756C98.869,141.793,100.768,140.063,102.979,138.932z"/>
	<path id="path7" fill="#752650" d="M92.138,152.697c3.07,0.108,6.157,0.662,8.981,1.905c1.423,0.625,2.773,1.425,3.986,2.398
		c1.073,0.861,2.04,1.855,2.865,2.953c1.547,2.052,2.598,4.455,3.152,6.958c0.668,3.023,0.645,6.187-0.004,9.207
		c-0.09,0.012-0.176,0.019-0.264,0.027c-1.166,2.525-2.739,4.888-4.769,6.806c-1.087,1.023-2.299,1.919-3.616,2.627
		c-1.217,0.656-2.521,1.156-3.867,1.477c-3.293,0.798-6.815,0.496-9.975-0.703c-2.451-0.927-4.701-2.379-6.558-4.228
		c-2.005-1.988-3.546-4.443-4.439-7.127c-0.833-2.475-1.106-5.131-0.867-7.729c0.267-2.999,1.192-5.914,2.517-8.608
		c0.07-0.14,0.142-0.279,0.209-0.421c0.169,0.092,0.332,0.196,0.506,0.278c-1.341,2.763-2.272,5.749-2.525,8.818
		c-0.214,2.552,0.061,5.153,0.888,7.581c0.911,2.703,2.502,5.17,4.582,7.125c2.089,1.968,4.662,3.425,7.433,4.177
		c1.623,0.444,3.314,0.646,4.997,0.577c1.795-0.069,3.578-0.45,5.243-1.127c2.523-1.015,4.746-2.71,6.495-4.782
		c1.233-1.441,2.241-3.065,3.075-4.766c-0.548-0.054-1.091-0.158-1.619-0.311c-0.444,1.13-1.01,2.218-1.747,3.185
		c-0.755,1.001-1.678,1.876-2.728,2.562c-1.035,0.677-2.191,1.161-3.396,1.433c-1.621,0.364-3.328,0.333-4.935-0.084
		c-1.333-0.346-2.598-0.956-3.688-1.795c-0.951-0.728-1.767-1.627-2.403-2.638c-0.634-1.001-1.091-2.11-1.377-3.258
		c-0.343-1.365-0.445-2.784-0.369-4.188c0.196-0.034,0.398-0.034,0.596,0c-0.068,1.545,0.071,3.108,0.517,4.595
		c0.345,1.156,0.882,2.259,1.613,3.219c0.716,0.949,1.618,1.754,2.642,2.36c1.286,0.767,2.755,1.216,4.245,1.336
		c1.673,0.133,3.379-0.145,4.92-0.81c1.287-0.55,2.455-1.38,3.397-2.418c0.962-1.055,1.673-2.324,2.124-3.677
		c-0.9-0.313-1.763-0.732-2.561-1.251c0.361-0.478,0.712-0.97,1.003-1.497c0.828-1.468,1.333-3.118,1.477-4.799
		c0.241-2.658-0.442-5.351-1.727-7.676c-1.74,0.152-3.51,0-5.186-0.497c-1.667-0.489-3.229-1.316-4.599-2.379
		C94.678,156.208,93.239,154.551,92.138,152.697z"/>
</g>
<g id="_x23_efcc78ff">
	<path id="path38" fill="#EFCC78" d="M106.979,146.292c0.014-0.018,0.032-0.036,0.05-0.054c0.002,0.012,0.004,0.033,0.004,0.045
		c1.691-0.043,3.389,0.079,5.05,0.401c1.573,0.305,3.12,0.78,4.577,1.457c1.258,0.588,2.453,1.332,3.488,2.265
		c0.703,0.637,1.328,1.362,1.828,2.167c-1.01-0.516-2.009-1.058-3.014-1.582c-1.044-0.814-2.158-1.54-3.351-2.117
		c-1.535-0.751-3.19-1.267-4.881-1.528c-3.708-0.575-7.575,0.061-10.944,1.7c-1.505,0.736-2.923,1.675-4.12,2.854
		c2.353,0.352,4.667,1.03,6.791,2.112c2.417,1.224,4.565,2.982,6.215,5.134c1.567,2.035,2.694,4.398,3.353,6.876
		c0.811,3.046,0.942,6.268,0.41,9.374c-0.456,2.645-1.4,5.224-2.893,7.465c-0.891,1.334-1.979,2.545-3.253,3.523
		c-0.092,0.063-0.208,0.048-0.313,0.063c-0.372,0.038-0.751,0.066-1.121,0.002c1.177-0.816,2.196-1.849,3.048-2.999
		c1.601-2.164,2.645-4.707,3.215-7.331c0.649-3.021,0.672-6.184,0.004-9.207c-0.554-2.503-1.605-4.906-3.152-6.958
		c-0.825-1.098-1.792-2.092-2.865-2.953c-1.213-0.974-2.563-1.773-3.986-2.398c-2.825-1.243-5.911-1.797-8.981-1.905
		c-0.336-0.236-0.667-0.48-0.969-0.76c0.989-0.293,2.036-0.277,3.053-0.167c0.108,0.01,0.219,0.034,0.328,0.021
		c0.187-0.209,0.355-0.44,0.548-0.645c1.548-1.736,3.6-2.963,5.778-3.735C102.835,146.719,104.905,146.36,106.979,146.292z"/>
</g>
<g id="_x23_dda137ff">
	<path id="path41" fill="#DDA137" d="M84.3,146.748c0.522-0.343,1.162-0.439,1.777-0.439c0.694,0.009,1.393,0.126,2.043,0.376
		c-0.089,0.672-0.149,1.349-0.196,2.025c-0.536-0.017-1.039-0.233-1.505-0.483c-0.683-0.369-1.295-0.854-1.917-1.316
		C84.434,146.858,84.357,146.813,84.3,146.748z"/>
	<path id="path43" fill="#DDA137" d="M88.98,146.836c0.654-0.21,1.341-0.313,2.028-0.343c1.658-0.067,3.335,0.331,4.78,1.147
		c-0.341,1.092-0.566,2.214-0.691,3.348c-0.004,0.052-0.002,0.104,0,0.158c-0.193,0.204-0.361,0.436-0.548,0.645
		c-0.109,0.014-0.22-0.011-0.328-0.021c0.201-0.331,0.338-0.719,0.296-1.11c-0.045-0.501-0.353-0.941-0.743-1.24
		c-0.403-0.313-0.892-0.506-1.392-0.596c-0.239-0.045-0.484-0.05-0.724-0.086c-0.048-0.187-0.186-0.336-0.347-0.436
		c-0.352-0.219-0.803-0.252-1.191-0.114C89.623,147.865,89.147,147.424,88.98,146.836z"/>
</g>
<g id="_x23_3b6a54ff">
	<path id="path46" fill="#3B6A54" d="M88.12,146.685c0.291,0.02,0.578,0.078,0.86,0.151c0.167,0.588,0.642,1.029,1.141,1.353
		c0.228,0.388,0.437,0.807,0.496,1.26c0.302-0.045,0.62-0.104,0.866-0.297c0.125-0.098,0.198-0.255,0.177-0.413
		c0.24,0.036,0.485,0.041,0.724,0.086c0.5,0.09,0.989,0.282,1.392,0.596c0.39,0.299,0.698,0.739,0.743,1.24
		c0.042,0.392-0.096,0.779-0.296,1.11c-1.017-0.11-2.064-0.126-3.053,0.167c-0.482-0.162-0.941-0.408-1.314-0.758
		c-0.498-0.45-0.854-1.025-1.218-1.582c-0.207-0.317-0.425-0.636-0.713-0.888C87.971,148.033,88.031,147.356,88.12,146.685z"/>
</g>
<g id="_x23_ac151cff">
	<path id="path49" fill="#AC151C" d="M99.786,149.046c3.37-1.64,7.236-2.275,10.944-1.7c1.691,0.262,3.346,0.777,4.881,1.528
		c1.193,0.577,2.307,1.303,3.351,2.117l0.047,0.056c-1.492-0.503-3.035-0.863-4.604-1.016c-0.983-0.089-1.986-0.089-2.956,0.123
		c-0.11,0.029-0.221,0.045-0.322,0.091c2.712,0.919,5.285,2.322,7.406,4.258c2.004,1.812,3.584,4.094,4.561,6.617
		c1.257,3.232,1.535,6.822,0.886,10.222c-0.575,3.042-1.882,5.947-3.816,8.366c-1.723,2.162-3.955,3.916-6.475,5.057
		c-2.173,0.995-4.545,1.524-6.928,1.64c-0.165,0-0.331,0.027-0.498,0.002l0.027-0.022c1.274-0.979,2.363-2.189,3.253-3.523
		c1.492-2.241,2.437-4.82,2.893-7.465c0.532-3.106,0.401-6.328-0.41-9.374c-0.658-2.478-1.786-4.841-3.353-6.876
		c-1.65-2.151-3.799-3.91-6.215-5.134c-2.124-1.082-4.438-1.761-6.791-2.112C96.863,150.721,98.281,149.782,99.786,149.046z"/>
</g>
<g id="_x23_ffffffff">
	<path id="path52" fill="#FFFFFF" d="M90.121,148.188c0.389-0.138,0.839-0.104,1.191,0.114c0.161,0.1,0.298,0.249,0.347,0.436
		c0.021,0.158-0.051,0.315-0.177,0.413c-0.246,0.193-0.563,0.252-0.866,0.297C90.558,148.995,90.349,148.576,90.121,148.188z"/>
</g>
</svg>
