<?xml version="1.0" encoding="utf-8"?>
<!-- Generator: Adobe Illustrator 16.2.1, SVG Export Plug-In . SVG Version: 6.00 Build 0)  -->
<!DOCTYPE svg PUBLIC "-//W3C//DTD SVG 1.1//EN" "http://www.w3.org/Graphics/SVG/1.1/DTD/svg11.dtd">
<svg version="1.1"
	 id="svg8651" xmlns:dc="http://purl.org/dc/elements/1.1/" xmlns:cc="http://creativecommons.org/ns#" xmlns:rdf="http://www.w3.org/1999/02/22-rdf-syntax-ns#" xmlns:svg="http://www.w3.org/2000/svg"
	 xmlns="http://www.w3.org/2000/svg" xmlns:xlink="http://www.w3.org/1999/xlink" x="0px" y="0px" width="50px" height="50px"
	 viewBox="396.957 115.067 50 50" enable-background="new 396.957 115.067 50 50" xml:space="preserve">
<g id="layer1" transform="translate(63.584117,-387.48579)">
	<g id="g8724" transform="matrix(4.8061474,0,0,4.8061474,-2651.8662,-2387.3909)">
		<g id="g6651" transform="matrix(1.25,0,0,-1.25,551.29297,618.04819)">
			<path id="path6653" fill="#EE293D" d="M57.315,6.834c1.573,0.54,2.915,1.341,3.048,1.455c-0.653-0.197-0.926,0.054-0.926,0.054
				c0.185,0.046,0.704,0.14,0.824,0.445c0.093,0.351-0.25,0.49-0.462,0.666c-1.276,0.804-2.608,1.47-3.93,2.164
				c1.96-0.157,3.754-1.18,5.761-0.736l-0.435-0.429c-0.111-0.157-0.25-0.388-0.102-0.573l0.102-0.092c0,0,0.352-0.169,0.703,0.129
				c0.351,0.298,1.381,2.16,2.293,1.628c-1.526-0.716-1.568-1.611-2.475-2.577C60.928,8.07,59.554,7.295,57.315,6.834"/>
		</g>
	</g>
</g>
</svg>
