<?xml version="1.0" encoding="utf-8"?>
<!-- Generator: Adobe Illustrator 16.2.1, SVG Export Plug-In . SVG Version: 6.00 Build 0)  -->
<!DOCTYPE svg PUBLIC "-//W3C//DTD SVG 1.1//EN" "http://www.w3.org/Graphics/SVG/1.1/DTD/svg11.dtd">
<svg version="1.1"
	 id="Ebene_1" xmlns:dc="http://purl.org/dc/elements/1.1/" xmlns:cc="http://creativecommons.org/ns#" xmlns:rdf="http://www.w3.org/1999/02/22-rdf-syntax-ns#" xmlns:svg="http://www.w3.org/2000/svg" xmlns:sodipodi="http://sodipodi.sourceforge.net/DTD/sodipodi-0.dtd" xmlns:inkscape="http://www.inkscape.org/namespaces/inkscape" sodipodi:docname="AJAX.svg" inkscape:version="0.48.1 "
	 xmlns="http://www.w3.org/2000/svg" xmlns:xlink="http://www.w3.org/1999/xlink" x="0px" y="0px" width="50px" height="50px"
	 viewBox="128.764 65.35 50 50" enable-background="new 128.764 65.35 50 50" xml:space="preserve">
<sodipodi:namedview  inkscape:cy="-12.487418" inkscape:cx="205.51526" inkscape:zoom="1.9743676" showgrid="false" pagecolor="#ffffff" bordercolor="#666666" borderopacity="1" objecttolerance="10" gridtolerance="10" guidetolerance="10" id="namedview13" fit-margin-right="0" fit-margin-bottom="0" inkscape:current-layer="Ebene_1" inkscape:window-y="-8" inkscape:window-x="-8" inkscape:window-maximized="1" inkscape:pageopacity="0" inkscape:pageshadow="2" inkscape:window-width="1280" inkscape:window-height="1004" fit-margin-left="0" fit-margin-top="0">
	</sodipodi:namedview>
<g id="g3" transform="translate(-7.236,-14.651)">
	<path id="path5" inkscape:connector-curvature="0" fill="#C0231E" d="M178.605,98.041h5.789l-3.544,13.951h-4.714l1.873-7.224
		l-4.413,7.224h-3.918l-0.704-7.22l-1.829,7.22h-4.84l3.048-11.924c0.296-1.167,1.343-2.023,2.598-2.027h4.855l0.581,6.107
		c0,0,2.335-4.156,2.651-4.657C176.505,98.761,177.265,98.041,178.605,98.041"/>
	<path id="path7_2_" inkscape:connector-curvature="0" fill="#C0231E" d="M139.233,98.045c-1.508,0-2.28,0.762-2.633,2.023
		l-0.6,2.191h4.794l-2.469,9.732h4.831l2.519-9.732h4.352l3.032-4.215H139.233z"/>
	<path id="path9" inkscape:connector-curvature="0" fill="#C0231E" d="M156.395,103.389c0.667-0.848,0.801-1.157,1.675-1.157
		l0.246,0.004l-2.467,9.756h4.811l3.572-13.977l-5.535-0.006c-2.598,0-4.073,0.564-5.18,2.059l-8.726,11.92h5.468"/>
	<path id="path11" inkscape:connector-curvature="0" fill="#014E84" d="M174.27,102.358c-5.79,0.464-12.036,2.097-16.091,6.205
		c-12.322-5.245-21.031-2.462-21.031-2.462s5.515-3.161,18.28-0.053c15.428-7.158,28.956-3.953,30.573-3.393
		C183.699,102.298,178.865,101.991,174.27,102.358"/>
</g>
</svg>
