<?xml version="1.0" encoding="utf-8"?>
<!-- Generator: Adobe Illustrator 16.2.1, SVG Export Plug-In . SVG Version: 6.00 Build 0)  -->
<!DOCTYPE svg PUBLIC "-//W3C//DTD SVG 1.1//EN" "http://www.w3.org/Graphics/SVG/1.1/DTD/svg11.dtd">
<svg version="1.1" id="svg1884" xmlns:svg="http://www.w3.org/2000/svg"
	 xmlns="http://www.w3.org/2000/svg" xmlns:xlink="http://www.w3.org/1999/xlink" x="0px" y="0px" width="50px" height="50px"
	 viewBox="251.681 344.336 50 50" enable-background="new 251.681 344.336 50 50" xml:space="preserve">
<g id="layer1">
	<polygon id="_96972784" fill="#E10915" points="251.684,392.33 301.681,392.328 251.681,346.343 	"/>
	<path id="_47722280" fill="#FFFFFF" d="M251.681,358.235c0.012,0.353,0.074,1.11,0.205,1.518
		c1.992,6.242,13.287,3.776,20.645,14.29c0.006,0,1.396,0.154,2.34-1.539c0,0-1.952-0.149-2.071-1.621c0,0,3.997,0.798,6.398,2.744
		c0,0,0.033,0.869-2.762,0.885c-0.556,0.036-0.793,0.075-1.68,0.945c0,0-2.238,2.432-4.513,2.396
		c-0.694-0.025-1.224-0.291-1.257-0.496c0,0-0.094-0.295,0.428-0.188c0,0,1.217,0.325,1.788-0.2c0,0-0.518-0.743-1.422-0.735
		c-0.542-0.031-1.118,0.152-1.478,0.645c0,0-1.805,2.272,3.345,4.664c7.485,3.274,11.654,8.1,11.051,9.354c0.007,0.003,0,0,0,0
		c-0.73-0.525-6.812-8.101-17.302-8.97c0,0,0.054-0.159,0.097-0.376c1.094-5.245-1.348-8.796-4.107-10.824
		c-2.787-2.25-8.105-4.107-9.703-9.095V358.235L251.681,358.235z"/>
</g>
</svg>
