<?xml version="1.0" encoding="utf-8"?>
<!-- Generator: Adobe Illustrator 16.2.1, SVG Export Plug-In . SVG Version: 6.00 Build 0)  -->
<!DOCTYPE svg PUBLIC "-//W3C//DTD SVG 1.1//EN" "http://www.w3.org/Graphics/SVG/1.1/DTD/svg11.dtd">
<svg version="1.1" id="svg3123" xmlns:svg="http://www.w3.org/2000/svg"
	 xmlns="http://www.w3.org/2000/svg" xmlns:xlink="http://www.w3.org/1999/xlink" x="0px" y="0px" width="50px" height="50px"
	 viewBox="15.665 29.835 50 50" enable-background="new 15.665 29.835 50 50" xml:space="preserve">
<polygon id="polygon3083" fill="#FDB827" points="35.359,50.355 37.87,50.355 34.861,52.511 35.122,51.406 35.999,50.763 
	35.283,50.765 "/>
<path id="path3101" fill="#003263" d="M60.879,56.194c-0.222,1.048,0.527,1.425,1.37,1.425c0.753,0,1.569-0.229,2.328-0.444
	l-0.706,1.883c-0.763,0.161-1.535,0.256-2.276,0.256c-2.03,0-3.668-0.646-3.105-3.295c0.152-0.713,1.062-3.736,4.458-3.736
	c2.094,0,3.023,1.034,2.626,2.903c-0.072,0.336-0.168,0.672-0.304,1.009H60.879 M63.271,54.971c0.166-0.78-0.056-1.184-0.668-1.184
	c-0.689,0-1.199,0.605-1.387,1.184H63.271z M58.644,54.527c-0.483-0.188-1.004-0.323-1.552-0.323c-0.984,0-1.738,0.605-1.961,1.653
	c-0.214,1.009,0.185,1.533,1.144,1.533c0.536,0,1.112-0.135,1.651-0.323l-0.731,2.004c-0.661,0.161-1.315,0.242-1.955,0.242
	c-2.08,0-3.017-1.184-2.545-3.402c0.151-0.712,0.937-3.629,4.155-3.629c0.831,0,1.49,0.081,2.103,0.255L58.644,54.527
	 M47.937,53.316l0.02,0.027c0.768-0.794,1.63-1.062,2.613-1.062c1.251,0,2.23,0.497,1.881,2.137
	c-0.077,0.363-0.827,3.052-1.184,4.732h-2.516c0.326-1.17,0.689-2.34,0.938-3.509c0.14-0.658,0.077-1.265-0.664-1.265
	c-0.651,0-1.186,0.472-1.499,1.104c-0.368,0.713-0.742,2.231-1.099,3.67h-2.541c0.727-2.218,1.293-4.464,1.808-6.708h2.49
	L47.937,53.316 M38.813,52.698c1.061-0.242,2.119-0.416,3.103-0.416c2.017,0,2.529,0.712,2.292,1.827
	c-0.071,0.337-1.002,3.697-1.289,5.042h-2.451c0.314-0.994,0.565-2.004,0.829-2.998c-0.546,0.35-2.027,0.403-2.194,1.196
	c-0.09,0.417,0.243,0.538,0.587,0.538c0.23,0,0.468-0.04,0.703-0.121l-0.732,1.466c-0.357,0.054-0.695,0.081-1.039,0.081
	c-2.337,0-1.985-1.775-1.954-1.924c0.603-2.836,4.772-1.962,5.022-3.145c0.094-0.444-0.333-0.539-0.678-0.539
	c-0.894,0-1.905,0.311-2.802,0.633L38.813,52.698 M33.225,59.167l1.636-6.597l2.45,0.021l-1.636,6.575L33.225,59.167z
	 M29.831,59.167l2.189-8.798h2.41l-2.149,8.797L29.831,59.167z M26.484,59.152l2.188-8.797h2.41l-2.149,8.797H26.484z
	 M21.784,50.357l-6.119,8.791h2.847l1.836-2.622l2.922,0.037l0.287,2.585h2.847l-1.224-7.705l0.937-1.086H21.784z M22.896,52.355
	l0.325,2.385h-1.948L22.896,52.355z"/>
</svg>
