<?xml version="1.0" encoding="utf-8"?>
<!-- Generator: Adobe Illustrator 16.2.1, SVG Export Plug-In . SVG Version: 6.00 Build 0)  -->
<!DOCTYPE svg PUBLIC "-//W3C//DTD SVG 1.1//EN" "http://www.w3.org/Graphics/SVG/1.1/DTD/svg11.dtd">
<svg version="1.1"
	 id="svg2" inkscape:output_extension="org.inkscape.output.svg.inkscape" sodipodi:version="0.32" xmlns:inkscape="http://www.inkscape.org/namespaces/inkscape" xmlns:dc="http://purl.org/dc/elements/1.1/" xmlns:cc="http://creativecommons.org/ns#" xmlns:sodipodi="http://sodipodi.sourceforge.net/DTD/sodipodi-0.dtd" xmlns:rdf="http://www.w3.org/1999/02/22-rdf-syntax-ns#" inkscape:version="0.48.1 " sodipodi:docname="AJAX.svg" xmlns:svg="http://www.w3.org/2000/svg"
	 xmlns="http://www.w3.org/2000/svg" xmlns:xlink="http://www.w3.org/1999/xlink" x="0px" y="0px" width="50px" height="50px"
	 viewBox="0.5 30.5 50 50" enable-background="new 0.5 30.5 50 50" xml:space="preserve">
<defs>
	
	
		<inkscape:perspective  inkscape:persp3d-origin="372.04724 : 350.78739 : 1" inkscape:vp_z="744.09448 : 526.18109 : 1" inkscape:vp_y="0 : 1000 : 0" sodipodi:type="inkscape:persp3d" inkscape:vp_x="0 : 526.18109 : 1" id="perspective9">
		</inkscape:perspective>
</defs>
<sodipodi:namedview  inkscape:window-maximized="0" inkscape:current-layer="g11" inkscape:window-height="750" inkscape:window-x="-8" inkscape:zoom="2.483428" guidetolerance="10.0" borderopacity="1.0" gridtolerance="10.0" showgrid="false" objecttolerance="10.0" pagecolor="#ffffff" bordercolor="#666666" inkscape:cy="48.980558" inkscape:cx="148.87599" inkscape:window-width="1280" inkscape:pageopacity="0.0" inkscape:pageshadow="2" inkscape:window-y="-8" fit-margin-left="0" fit-margin-top="0" id="base" fit-margin-bottom="0" fit-margin-right="0">
	</sodipodi:namedview>
<g id="g11" transform="matrix(1.25,0,0,-1.25,-233.49635,650.19761)" inkscape:groupmode="layer" inkscape:label="bookingguide">
	<g id="g2901" transform="matrix(1.6346852,0,0,1.6346852,-480.32465,383.92554)">
		<g id="g151" transform="translate(542.6324,64.7148)">
			<path id="path153" inkscape:connector-curvature="0" fill="#747F8A" d="M-115.451-8.122c0-0.107-1.508-0.208-3.661-0.292
				c-0.379,0.215-0.668,0.433-0.881,0.62C-117.382-7.887-115.451-8.001-115.451-8.122"/>
		</g>
		<g id="g155" transform="translate(539.8502,71.2535)">
			<path id="path157" inkscape:connector-curvature="0" fill="#747F8A" d="M-114.217-11.025c0-0.089-1.263-0.174-3.071-0.247
				c0.26,0.152,0.526,0.302,0.807,0.456C-115.116-10.877-114.217-10.95-114.217-11.025"/>
		</g>
		<g id="g159" transform="translate(515.6267,57.1865)">
			<path id="path161" inkscape:connector-curvature="0" fill="#747F8A" d="M-103.459-4.778c-0.836-0.01-1.571-0.015-2.145-0.015
				c-0.825,0-1.494,0.255-1.494,0.569s0.669,0.569,1.494,0.569c0.73,0,1.721-0.008,2.856-0.023
				c-0.439-0.632-0.648-1.014-0.667-1.039C-103.428-4.735-103.442-4.757-103.459-4.778"/>
		</g>
		<g id="g163" transform="translate(516.4374,55.817)">
			<path id="path165" inkscape:connector-curvature="0" fill="#747F8A" d="M-103.82-4.17c0.276-0.335,0.54-0.613,0.895-0.919
				c0,0,0.133-0.191,0.539-0.029c0.413,0.168,0.763,0.396,1.155,0.925c1.15-0.02,2.371-0.045,3.572-0.072
				c0.099-0.144,0.298-0.442,0.547-0.811c-3.349-0.087-6.983-0.137-8.844-0.137c-0.776,0-1.406,0.239-1.406,0.535
				c0,0.296,0.63,0.534,1.406,0.534c0.566,0,1.297-0.004,2.135-0.013C-103.823-4.162-103.82-4.17-103.82-4.17"/>
		</g>
		<g id="g167" transform="translate(514.1071,50.7933)">
			<path id="path169" inkscape:connector-curvature="0" fill="#747F8A" d="M-102.785-1.939c-0.688,0-1.245,0.212-1.245,0.474
				c0,0.262,0.558,0.475,1.245,0.475c1.82,0,5.552-0.056,8.75-0.146c0.154-0.22,0.308-0.441,0.454-0.642
				C-96.872-1.877-100.877-1.939-102.785-1.939"/>
		</g>
		<g id="g171" transform="translate(533.2043,48.0615)">
			<path id="path173" inkscape:connector-curvature="0" fill="#747F8A" d="M-111.265-0.727c-2.686-0.119-7.301-0.196-9.219-0.196
				c-0.54,0-0.978,0.167-0.978,0.373c0,0.206,0.438,0.373,0.978,0.373c1.834,0,6.144-0.073,8.862-0.181
				C-111.499-0.491-111.378-0.614-111.265-0.727"/>
		</g>
		<g id="g175" transform="translate(520.606,46.2503)">
			<path id="path177" inkscape:connector-curvature="0" fill="#747F8A" d="M-105.671,0.078c1.583,0,6.406-0.12,6.406-0.265
				c0-0.146-4.822-0.266-6.406-0.266c-0.308,0-0.558,0.119-0.558,0.266C-106.228-0.042-105.978,0.078-105.671,0.078"/>
		</g>
		<g id="g179" transform="translate(520.6375,63.7869)">
			<path id="path181" inkscape:connector-curvature="0" fill="#747F8A" d="M-105.685-7.71c-1.993-0.034-3.78-0.053-4.93-0.053
				c-0.825,0-1.494,0.254-1.494,0.568c0,0.314,0.669,0.569,1.494,0.569c1.334,0,3.529-0.026,5.909-0.071
				C-105.059-7.044-105.386-7.385-105.685-7.71"/>
		</g>
		<g id="g183" transform="translate(538.2264,68.3606)">
			<path id="path185" inkscape:connector-curvature="0" fill="#747F8A" d="M-113.496-9.741c1.169-0.064,1.904-0.133,1.904-0.205
				c0-0.081-0.889-0.156-2.267-0.224C-113.565-9.948-113.5-9.755-113.496-9.741"/>
		</g>
		<g id="g187" transform="translate(512.5949,67.0302)">
			<path id="path189" inkscape:connector-curvature="0" fill="#747F8A" d="M-102.113-9.15c-0.775,0-1.404,0.24-1.404,0.534
				c0,0.296,0.629,0.536,1.404,0.536c1.593,0,4.48-0.039,7.375-0.104c-0.355-0.3-0.693-0.596-1.011-0.887
				C-98.29-9.121-100.706-9.15-102.113-9.15"/>
		</g>
		<g id="g191" transform="translate(528.1628,70.6191)">
			<path id="path193" inkscape:connector-curvature="0" fill="#747F8A" d="M-109.026-10.743c-2.961-0.076-6.169-0.121-7.813-0.121
				c-0.689,0-1.245,0.212-1.245,0.473c0,0.26,0.557,0.475,1.245,0.475c1.816,0,5.539-0.056,8.731-0.147
				c-0.159-0.115-0.32-0.231-0.481-0.354C-108.737-10.526-108.883-10.634-109.026-10.743"/>
		</g>
		<g id="g195" transform="translate(516.6219,73.8511)">
			<path id="path197" inkscape:connector-curvature="0" fill="#747F8A" d="M-103.902-12.179c-0.539,0-0.977,0.166-0.977,0.373
				c0,0.206,0.438,0.373,0.977,0.373c2.036,0,7.115-0.09,9.696-0.218c-0.165-0.107-0.329-0.221-0.495-0.332
				C-97.39-12.1-101.987-12.179-103.902-12.179"/>
		</g>
		<g id="g199" transform="translate(511.4938,60.4085)">
			<path id="path201" inkscape:connector-curvature="0" fill="#747F8A" d="M-101.623-6.209c-0.84,0-1.522,0.258-1.522,0.579
				c0,0.319,0.682,0.579,1.522,0.579c1.052,0,2.628-0.016,4.409-0.043c-0.335-0.393-0.627-0.758-0.875-1.084
				C-99.508-6.199-100.747-6.209-101.623-6.209"/>
		</g>
		<g id="g203" transform="translate(519.6024,77.1242)">
			<path id="path205" inkscape:connector-curvature="0" fill="#747F8A" d="M-105.225-13.633c0,0.146,0.25,0.264,0.559,0.264
				c1.582,0,6.405-0.118,6.405-0.264c0-0.144-4.821-0.265-6.405-0.265C-104.976-13.895-105.225-13.777-105.225-13.633"/>
		</g>
		<g id="g207" transform="translate(542.9166,62.2206)">
			<path id="path209" inkscape:connector-curvature="0" fill="#5C0632" d="M-115.577-7.016c0.011-0.288,0.009-0.574-0.005-0.855
				c-2.805-0.111-5.466-0.281-5.466-0.47c0-0.185,2.601-0.355,5.373-0.463c-0.049-0.321-0.111-0.635-0.188-0.943
				c-2.735-0.111-5.27-0.275-5.27-0.462c0-0.177,2.367-0.338,4.99-0.452c-0.12-0.334-0.256-0.66-0.409-0.971
				c-2.253-0.108-4.113-0.253-4.113-0.411c0-0.148,1.626-0.284,3.675-0.39c-0.115-0.187-0.235-0.371-0.36-0.543
				c-0.134-0.189-0.28-0.377-0.432-0.561c-1.28-0.099-2.161-0.209-2.161-0.327c0-0.102,0.63-0.198,1.601-0.282
				c-0.531-0.525-1.155-1.015-1.893-1.442c0,0-0.869,0.747-1.586,1.623c-0.639,0.78-1.996,2.835-2.316,3.294
				c-0.32,0.46-0.529,0.593-0.903,0.46c-0.501-0.177-1.083-0.266-1.262-0.266c-0.18,0-0.278,0.071,0.023,0.188
				c0.299,0.123,1.483,0.68,2.064,1.833c0.654,1.297,0.078,3.093,0.078,3.093c-0.218-0.96-0.718-1.317-0.718-1.317
				c0.161,0.891-0.014,1.697-0.454,2.264l-0.244-1.127c0,0-0.155,0.008-0.534-0.313c-0.379-0.321-0.483-0.785-0.483-0.785
				c0.298-0.12,0.656,0.179,0.656,0.179c-0.458-1.717-1.115-3.112-1.595-3.851c-0.48-0.74-0.874-1.018-1.354-1.213
				c-0.406-0.162-0.54,0.028-0.54,0.028c-0.355,0.306-0.619,0.587-0.894,0.919c0,0-0.023,0.039,0.053,0.038
				c0.197-0.003,0.549,0.336,0.626,0.475c0.088,0.16,0.079,0.284,0.035,0.292c-0.043,0.008-0.118-0.12-0.498-0.36
				c-0.378-0.238-0.551-0.073-0.678,0.06c-0.099,0.107-0.002,0.237,0.06,0.321c0.057,0.075,2.062,3.81,7.362,7.734
				c6.945,5.142,11.383,6.532,11.635,6.631c0.167,0.066,0.441,0.153,0.504,0.09c0.069-0.072,0.103-0.13,0.094-0.214
				c-0.009-0.085-0.053-0.126-0.375-0.269c-2.667-1.175-5.779-3.132-7.547-4.272c-2.174-1.061-4.251-2.573-4.327-2.609
				c-0.167-0.104-0.044-0.255,0.058-0.193c3.672,2.444,7.977,4.109,12.737,5.47c0.227,0.065,0.352,0.065,0.39,0.015
				c0.042-0.056,0.061-0.12,0.069-0.189c0.005-0.087-0.068-0.133-0.261-0.211c-5.112-1.899-8.88-3.663-11.303-5.294
				c0,0-0.25-0.152-0.253-0.326c-0.002-0.066,0.134-0.074,0.134-0.074c1.212-0.022,2.834-0.092,3.607-0.138
				c0,0-0.11-0.391-0.85-0.704c-0.57-0.243-1.098-0.204-1.62-0.209c-0.117,0.002-0.214-0.115-0.122-0.24
				C-120.73-4.815-119.618-6.606-115.577-7.016"/>
		</g>
	</g>
</g>
</svg>
