<?xml version="1.0" encoding="utf-8"?>
<!-- Generator: Adobe Illustrator 16.2.1, SVG Export Plug-In . SVG Version: 6.00 Build 0)  -->
<!DOCTYPE svg PUBLIC "-//W3C//DTD SVG 1.1//EN" "http://www.w3.org/Graphics/SVG/1.1/DTD/svg11.dtd">
<svg version="1.1" id="svg2367" xmlns:svg="http://www.w3.org/2000/svg"
	 xmlns="http://www.w3.org/2000/svg" xmlns:xlink="http://www.w3.org/1999/xlink" x="0px" y="0px" width="50px" height="50px"
	 viewBox="0 0 50 50" enable-background="new 0 0 50 50" xml:space="preserve">
<path fill-rule="evenodd" clip-rule="evenodd" fill="#F4A628" d="M13.633,10.965c2.303-0.33,8.333-1.207,10.417-1.646
	c2.082-0.439,13.707-2.194,19.734-2.303c6.033-0.109,5.703,0.33,5.924,1.425c0.109,1.098,0.657,1.537-0.111,2.523
	c-0.657,1.096-1.973,1.534-3.837,2.303c-3.289,1.316-18.091,5.262-20.066,6.249c3.071-0.218,7.567-1.096,11.954-1.205
	c2.851,0,3.286,0.548,3.507,1.864c0.33,1.316,0.439,2.082-1.534,2.851c-1.973,0.766-4.275,1.643-8.992,2.962
	c-6.469,1.861-10.415,2.85-15.241,4.822c2.63,0.33,7.017-0.108,10.527,0c5.373,0.219,5.592,0.878,5.7,2.412
	c0.221,1.537,0.33,1.973-1.863,2.962c-2.194,0.986-6.14,2.085-8.333,2.521c-2.193,0.438-10.526,2.193-12.061,2.633
	c-1.425,0.329-2.632,2.084-4.935,2.85c-2.412,0.769-3.507,0.439-4.275-1.315c-0.66-1.316,0.986-2.521,3.071-3.068
	c2.082-0.66,8.112-1.976,10.635-2.633c2.63-0.659,7.674-2.082,9.429-2.741c-2.303,0-7.895,0.109-12.17,0.221
	c-2.523,0-3.51-0.111-3.949-1.976c-0.33-1.864,0.439-2.523,2.742-3.289c2.302-0.769,5.703-2.302,7.894-3.071
	c2.303-0.656,8.444-2.85,10.197-3.289c-4.164-0.109-13.595,1.973-16.119,2.523c-1.864,0.439-2.084-0.221-2.741-1.537
	c-0.766-1.316,0.112-2.194,1.316-2.521c1.425-0.33,4.167-1.646,8.006-3.18c3.177-1.316,7.564-2.523,10.853-3.728
	c3.071-0.989,8.225-2.742,9.979-3.51c-1.426,0-7.564,0.986-11.622,1.534c-4.058,0.547-10.965,1.866-11.955,2.302
	c-1.096,0.439-2.3,0.221-3.068-1.316C11.99,11.952,12.647,11.074,13.633,10.965L13.633,10.965z"/>
</svg>
