<?xml version="1.0" encoding="utf-8"?>
<!-- Generator: Adobe Illustrator 16.2.1, SVG Export Plug-In . SVG Version: 6.00 Build 0)  -->
<!DOCTYPE svg PUBLIC "-//W3C//DTD SVG 1.1//EN" "http://www.w3.org/Graphics/SVG/1.1/DTD/svg11.dtd">
<svg version="1.1"
	 id="svg3492" xmlns:dc="http://purl.org/dc/elements/1.1/" xmlns:cc="http://creativecommons.org/ns#" xmlns:rdf="http://www.w3.org/1999/02/22-rdf-syntax-ns#" xmlns:svg="http://www.w3.org/2000/svg"
	 xmlns="http://www.w3.org/2000/svg" xmlns:xlink="http://www.w3.org/1999/xlink" x="0px" y="0px" width="50px" height="50px"
	 viewBox="396.957 127.469 50 50" enable-background="new 396.957 127.469 50 50" xml:space="preserve">
<g id="layer1" transform="translate(40.583341,-373.99329)">
	<path id="path3239" fill="#004990" d="M392.536,520.882c0.104-0.316-0.131-0.543-0.38-0.543l-18.263,0.043
		c-0.548,0-1.316,0.283-1.705,0.954l-4.665,8.578c-0.298,0.55-1.022,0.949-1.706,0.949l-1.418-0.002
		c-0.428,0.002-0.787-0.464-0.524-0.947l4.676-8.607c0.204-0.373-0.037-0.918-0.536-0.922c-0.214-0.002-3.604,0-4.114,0
		c-0.596,0-1.223,0.288-1.625,0.992c-0.305,0.534-5.785,9.873-5.785,9.873c-0.346,0.574,0.12,1.202,0.667,1.206h11.042
		c0.754-0.001,1.399-0.385,1.724-0.937l4.649-8.58c0.402-0.739,0.837-0.967,1.713-0.967l1.207,0.001
		c0.444,0,0.806,0.457,0.527,0.966l-4.533,8.328c-0.284,0.521,0.098,1.182,0.683,1.185l3.856-0.003
		c0.705,0.001,1.453-0.416,1.755-0.97l4.624-8.538c0.481-0.886,0.841-0.969,1.699-0.969l5.458-0.016
		c0.367,0.013,0.498-0.245,0.574-0.354L392.536,520.882L392.536,520.882z M399.325,532.458h-3.317c0,0,3.486-7.097,3.909-7.94
		c0.32-0.634,0.712-0.672,1.078-0.672h2.05c0,0-1.065,2.131-1.112,2.208l0.096,0.003c0,0,1.441-2.284,3.377-2.344
		c0.768-0.025,1.647,0.926,0.156,2.177c-1.042-0.209-3.062,0.242-4.107,2.181C401.155,528.625,399.325,532.458,399.325,532.458
		 M396.86,520.641c0.081-0.131,0.258-0.295,0.575-0.295s2.075,0.007,2.269,0.005c0.206-0.002,0.521,0.223,0.342,0.59
		c-0.109,0.227-0.701,1.442-0.773,1.565c-0.072,0.122-0.246,0.295-0.49,0.295c-0.245,0-2.182,0-2.301,0
		c-0.395,0-0.502-0.39-0.408-0.576C396.247,521.879,396.86,520.641,396.86,520.641 M388.554,528.433
		c-0.307,0.006-0.687,0.07-0.998,0.15c-0.31,0.081-0.589,0.188-0.84,0.319c-0.213,0.114-0.389,0.248-0.536,0.404
		c-0.143,0.153-0.252,0.322-0.329,0.503c-0.091,0.219-0.093,0.396-0.001,0.532c0.09,0.136,0.302,0.186,0.501,0.186
		c0.385,0,0.796-0.186,1.176-0.552C387.908,529.608,388.553,528.433,388.554,528.433 M386.73,524.036
		c0.25-0.18,0.73-0.223,0.768-0.223l2.995,0.003c0.51,0,0.942,0.045,1.291,0.131c0.712,0.178,1.099,0.558,1.185,1.258
		c0.044,0.366-0.037,0.8-0.246,1.297c-0.049,0.121-0.113,0.33-0.223,0.508c-0.109,0.18-2.254,4.261-2.928,5.442h-3.117
		c0,0,0.714-1.314,0.761-1.393l-0.095-0.004c0,0-1.423,1.516-3.253,1.53c-0.382,0.004-0.689-0.056-0.922-0.167
		c-0.229-0.112-0.401-0.288-0.513-0.528c-0.107-0.218-0.152-0.479-0.14-0.782c0.012-0.302,0.091-0.63,0.238-0.979
		c0.135-0.321,0.312-0.625,0.531-0.914c0.218-0.284,0.472-0.544,0.76-0.779c0.264-0.21,0.554-0.395,0.877-0.559
		c0.322-0.163,0.68-0.308,1.07-0.434c0.448-0.144,0.982-0.263,1.605-0.363s1.284-0.168,1.979-0.201
		c0.222-0.356,0.252-0.422,0.252-0.661c0-0.17-0.203-0.344-0.466-0.344c-0.195,0-3.597,0.101-3.583,0.072l0.636-1.237
		C386.257,524.59,386.541,524.171,386.73,524.036 M398.745,523.842l-4.128,8.055l-0.274,0.556h-3.265
		c1.372-2.677,2.67-5.216,4.042-7.893c0.166-0.241,0.053-0.15,0.346-0.458c0.173-0.168,0.529-0.229,0.718-0.26H398.745
		L398.745,523.842z"/>
</g>
</svg>
