<?xml version="1.0" encoding="utf-8"?>
<!-- Generator: Adobe Illustrator 16.2.1, SVG Export Plug-In . SVG Version: 6.00 Build 0)  -->
<!DOCTYPE svg PUBLIC "-//W3C//DTD SVG 1.1//EN" "http://www.w3.org/Graphics/SVG/1.1/DTD/svg11.dtd">
<svg version="1.1" id="svg4052" xmlns:svg="http://www.w3.org/2000/svg"
	 xmlns="http://www.w3.org/2000/svg" xmlns:xlink="http://www.w3.org/1999/xlink" x="0px" y="0px" width="50px" height="50px"
	 viewBox="462.5 113.5 50 50" enable-background="new 462.5 113.5 50 50" xml:space="preserve">
<path id="path2959" fill="#EE3338" d="M484.244,146.811c0,0-3.257,0-5.651-2.3c0,0-2.298-2.251-2.298-5.46c0,0,0-3.21,2.298-5.461
	c0,0,2.394-2.297,5.651-2.297v-3.881c0,0-4.933,0-8.429,3.4c0,0-3.497,3.45-3.497,8.238c0,0,0,4.837,3.497,8.237
	c0,0,3.496,3.401,8.429,3.401V146.811"/>
<path id="path2961" fill="#D4B35F" d="M496.073,139.051c0,0,0,4.837-3.448,8.237c0,0-3.497,3.401-8.381,3.401v-1.964
	c0,0,4.119,0,6.992-2.827c0,0,2.874-2.871,2.874-6.848H496.073"/>
<path id="path2963" fill="#0071B8" d="M504.167,139.051c0,0,0.525,8.549-5.365,14.296c0,0-6.37,5.195-14.558,5.195v-3.925
	c0,0,6.561,0,11.207-4.551c0,0,4.694-4.597,4.694-11.016H504.167"/>
<path id="path2965" fill="#EE3338" d="M500.861,155.382c0,0-6.896,6.801-16.618,6.801v-3.641c0,0,8.188,0,14.033-5.698
	c0,0,5.89-5.746,5.89-13.793h3.64C507.806,139.051,507.806,148.58,500.861,155.382"/>
<path id="path2967" fill="#D4B35F" d="M470.163,125.257c0,0-5.842,5.75-5.842,13.794c0,0,0,8.047,5.842,13.793
	c0,0,5.842,5.698,14.081,5.698v1.822c0,0-8.957,0-15.374-6.274c0,0-6.37-6.228-6.37-15.039c0,0,0-8.812,6.37-15.04
	c0,0,6.417-6.271,15.374-6.271v1.77C484.244,119.51,476.005,119.51,470.163,125.257"/>
<path id="path2969" fill="#0071B8" d="M484.244,127.412c0,0-4.933,0-8.429,3.4c0,0-3.497,3.45-3.497,8.238c0,0,0,4.837,3.497,8.237
	c0,0,3.496,3.401,8.429,3.401v3.928c0,0-6.561,0-11.207-4.551c0,0-4.694-4.597-4.694-11.016c0,0,0-6.416,4.694-10.967
	c0,0,4.646-4.597,11.207-4.597V127.412"/>
<path id="path2971" fill="#D4B35F" d="M489.32,132.299l7.52-10.921v15.804h-3.88v-3.206l-3.64,1.101V132.299"/>
<path id="path2973" fill="#D4B35F" d="M512.5,132.299l-7.47-10.921v15.804h3.926v-3.206l3.544,1.101V132.299"/>
<path id="path2975" fill="#D4B35F" d="M503.066,114.817v19.06h-4.215v-19.06H503.066"/>
<path id="path2977" fill="#FFFFFF" d="M470.163,125.257c0,0-5.842,5.75-5.842,13.794c0,0,0,8.047,5.842,13.793
	c0,0,5.842,5.698,14.081,5.698v-3.925c0,0-6.561,0-11.207-4.551c0,0-4.694-4.597-4.694-11.016c0,0,0-6.416,4.694-10.967
	c0,0,4.646-4.597,11.207-4.597v-3.978C484.244,119.51,476.005,119.51,470.163,125.257"/>
<path id="path2979" fill="#FFFFFF" d="M496.073,139.051h4.071c0,0,0,6.419-4.694,11.016c0,0-4.646,4.551-11.207,4.551v-3.928
	c0,0,4.885,0,8.381-3.401C492.625,147.288,496.073,143.888,496.073,139.051"/>
</svg>
