<?xml version="1.0" encoding="utf-8"?>
<!-- Generator: Adobe Illustrator 16.2.1, SVG Export Plug-In . SVG Version: 6.00 Build 0)  -->
<!DOCTYPE svg PUBLIC "-//W3C//DTD SVG 1.1//EN" "http://www.w3.org/Graphics/SVG/1.1/DTD/svg11.dtd">
<svg version="1.1" id="Layer_1" xmlns="http://www.w3.org/2000/svg" xmlns:xlink="http://www.w3.org/1999/xlink" x="0px" y="0px"
	 width="50px" height="50px" viewBox="75.5 41.5 50 50" enable-background="new 75.5 41.5 50 50" xml:space="preserve">
<path fill="#757776" d="M116.289,61.692h-0.203c-0.202,0.204-1.923-0.303-2.429-0.505c-1.012-0.102-1.923-0.203-3.037-0.203h-2.125
	c-7.288,0-15.284,3.44-19.737,6.377c-2.732,1.922-4.959,3.541-7.187,5.869c-1.214,1.116-2.023,2.229-3.137,3.442
	c-0.608,0.608-2.632,3.44-2.936,3.643l0.102,0.103c0,0,1.315-1.519,1.517-1.62c0.506-0.606,1.012-1.112,1.519-1.619
	c0.911-0.81,2.429-2.328,3.34-3.036c2.531-1.822,4.555-3.745,7.288-5.365c3.036-1.72,4.858-2.832,8.401-4.251
	c2.227-0.81,7.792-1.922,10.829-1.922c3.138,0,5.87,0.605,7.996,1.62c1.316,0.708,1.721,1.112,2.833,1.922
	c0.912,0.606,1.822,2.227,2.329,2.531c0-3.847-2.833-5.567-5.465-6.781L116.289,61.692L116.289,61.692z"/>
<path fill="#757776" d="M89.873,81.834c2.125-4.148,4.757-7.487,8.097-10.424c1.518-1.417,3.339-2.935,5.162-4.049
	c0.607-0.506,5.668-3.442,5.668-3.543c-1.315,0-3.341,0-4.251,0.406c-1.012,0.606-2.025,0.908-3.037,1.519
	c-2.024,1.314-3.542,2.226-5.567,3.643c-2.53,1.924-7.39,6.881-8.198,10.222L89.873,81.834L89.873,81.834z M110.216,59.365
	l-0.202-1.114h-3.138L110.216,59.365L110.216,59.365z M114.366,55.419c0.709,0,1.721,0,2.431-0.103
	c1.011-0.203,1.011-0.102,1.011,1.217L114.366,55.419L114.366,55.419z M116.086,61.692h0.203c1.012,0,3.036-0.908,4.555-0.908h1.215
	c1.519,0,2.328,0.504,3.441,0.708c0-1.217-0.506-4.251-1.113-4.759c-0.506-0.404-3.542-1.417-4.454-1.417l-0.81-2.937
	c-0.406,0-1.619-0.302-2.327-0.402c-0.811-0.203-1.419-0.306-2.431-0.407c-1.517-0.303-3.339-0.404-5.161-0.404h-1.417
	c-6.376,0-13.462,2.024-17.915,4.049c-2.734,1.318-4.656,2.431-7.085,3.948c-0.911,0.507-2.53,1.621-3.239,2.227
	c-0.405,0.404-1.013,0.811-1.519,1.215c-0.304,0.304-1.215,1.112-1.518,1.314l0.101,0.102l0.102-0.102c0.1,0,0.1-0.101,0.202-0.101
	c0.101-0.102,0.202-0.102,0.303-0.202c0.203-0.202,0.405-0.304,0.607-0.406c0.405-0.302,0.911-0.504,1.316-0.808
	c0.911-0.506,1.822-1.013,2.733-1.521c2.025-1.01,3.746-1.719,5.871-2.631c3.238-1.315,9.514-3.036,13.967-3.036h2.429
	c1.315,0,2.531,0.102,3.644,0.204c1.012,0.1,2.631,0.606,3.339,0.606c0.607,2.53,0.101,1.924,2.531,2.732
	c1.113,0.405,0.911-0.101,1.822,0.81C115.884,60.073,116.086,60.882,116.086,61.692L116.086,61.692z"/>
</svg>
