<?xml version="1.0" encoding="utf-8"?>
<!-- Generator: Adobe Illustrator 16.2.1, SVG Export Plug-In . SVG Version: 6.00 Build 0)  -->
<!DOCTYPE svg PUBLIC "-//W3C//DTD SVG 1.1//EN" "http://www.w3.org/Graphics/SVG/1.1/DTD/svg11.dtd">
<svg version="1.1" id="svg3037" xmlns:svg="http://www.w3.org/2000/svg"
	 xmlns="http://www.w3.org/2000/svg" xmlns:xlink="http://www.w3.org/1999/xlink" x="0px" y="0px" width="50px" height="50px"
	 viewBox="363.172 54.674 50 50" enable-background="new 363.172 54.674 50 50" xml:space="preserve">
<g id="layer1" transform="translate(49.814732,-507.47415)">
	<path id="path14" fill="#00529C" d="M338.087,580.026c0,0-0.867-0.104-4.536,1.365c-4.546,1.822-6.893,4.411-6.893,4.411
		c-0.11,0.091-0.162,0.192-0.171,0.306c-0.088,1.128,4.41,3.177,4.41,3.177c-7.511,5.083-17.54,7.271-17.54,7.271
		c32.408,0.167,39.623-11.276,39.623-11.276c1.329-0.736,5.829-1.289,8.325-1.556c1.042-0.113,1.751,0.049,1.971,0.046
		c0.053,0,0.079-0.016,0.081-0.036c0.007-0.067-0.162-0.206-0.162-0.206c-1.294-0.799-5.184-1.02-5.184-1.02
		s-1.706-1.748-6.389-1.366c-3.881,0.312-10.754,2.501-10.754,2.501C339.115,583.031,338.02,581.708,338.087,580.026z"/>
	<path id="path16" fill="#E03128" d="M338.723,578.087c0.287-0.017,0.961,0.098,1.104,0.488c0,0-1.055-0.634-14.372,3.596
		c-4.175,1.322-10.471-3.065-12.082-4.434C313.372,577.738,318.41,579.065,338.723,578.087"/>
</g>
</svg>
