<?xml version="1.0" encoding="utf-8"?>
<!-- Generator: Adobe Illustrator 16.2.1, SVG Export Plug-In . SVG Version: 6.00 Build 0)  -->
<!DOCTYPE svg PUBLIC "-//W3C//DTD SVG 1.1//EN" "http://www.w3.org/Graphics/SVG/1.1/DTD/svg11.dtd">
<svg version="1.1" id="Layer_1" xmlns="http://www.w3.org/2000/svg" xmlns:xlink="http://www.w3.org/1999/xlink" x="0px" y="0px"
	 width="50px" height="50px" viewBox="90.5 48 50 50" enable-background="new 90.5 48 50 50" xml:space="preserve">
<g>
	<path fill="#5F6367" d="M132.456,77.663c0,0,0.907,0.955,1.235,2.276c0,0-1.962-0.157-2.746,0.447c0,0,0.06,0.552,0.97,1.529
		c0,0,0.168,0.284-0.231,0.545c-0.373,0.231-2.276,0.358-2.343-1.642c0,0-1.22,1.492-2.895,1.269c0,0-1.32-0.164-1.406-1.402
		c0,0,1.268,0.246,2.275-0.225c0,0-0.033-0.82-1.19-1.626c0,0,0.903-1.179,2.958-1.731c0,0-0.403-1.775,0.183-3.573
		c0.601-1.806,0.899-2.238,1.052-2.634c0.167-0.373,0.351-1.313,0.048-2.32c0,0,4.771-0.097,4.79,5.014
		C135.157,73.59,135.201,76.433,132.456,77.663 M127.084,86.438l-2.798-1.275l2.753-0.903l2.637,1.201L127.084,86.438z
		 M122.383,81.805c-1.604-0.09-2.186-1.687-2.186-1.687c-0.806,1.052-2.462,0.888-2.462,0.888c-1.332-0.306-1.425-1.462-1.425-1.462
		c1.466-0.291,1.843-0.828,1.843-0.828c-0.335-0.933-1.921-1.455-1.921-1.455c0.951-1.507,3.003-2.275,3.003-2.275
		c-0.798-0.836-1.03-1.656-1.235-3.015c-0.209-1.402,0.153-3.559,0.153-3.559c0.418-1.933,1.146-2.865,1.772-3.686
		c0.679-0.806,1.351-0.701,1.351-0.701c0.892,0.097,1.697,0.574,1.697,0.574c1.071,0.619,1.828,1.537,2.179,2.021
		c0.313,0.478,1.347,2.798,0.063,5.708c-1.294,2.872-2.619,3.425-2.619,3.425c1.992,1.909,1.984,2.775,1.984,2.775
		c-1.645,0-2.085,0.917-2.085,0.917c0.403,0.799,1.582,1.098,1.582,1.098C123.738,81.871,122.383,81.805,122.383,81.805
		 M121.32,86.057c-0.56,0-1.015-0.439-1.015-1.007c0-0.574,0.455-1.015,1.015-1.015c0.541,0,0.992,0.44,0.992,1.015
		C122.312,85.617,121.861,86.057,121.32,86.057 M115.676,86.057l-2.678-1.081l2.678-1.082l2.727,1.082L115.676,86.057z
		 M111.155,80.118c0,0-0.597,1.597-2.186,1.687c0,0-1.362,0.066-1.69-1.254c0,0,1.153-0.306,1.574-1.104
		c0,0-0.444-0.917-2.097-0.917c0,0-0.015-0.858,2.003-2.775c0,0-1.354-0.553-2.638-3.425c-1.279-2.91-0.257-5.223,0.079-5.708
		c0.339-0.484,1.093-1.395,2.167-2.021c0,0,0.802-0.478,1.712-0.574c0,0,0.653-0.098,1.317,0.708
		c0.634,0.813,1.403,1.746,1.787,3.679c0,0,0.373,2.156,0.16,3.559c-0.198,1.358-0.429,2.179-1.234,3.015
		c0,0,2.033,0.769,2.999,2.275c0,0-1.6,0.522-1.925,1.455c0,0,0.384,0.537,1.843,0.828c0,0-0.06,1.164-1.44,1.462
		C113.587,81.006,111.953,81.17,111.155,80.118 M110.036,86.057c-0.541,0-1.022-0.439-1.022-1.007c0-0.537,0.485-0.984,1.022-0.984
		c0.556,0,0.974,0.447,0.974,0.984C111.009,85.617,110.591,86.057,110.036,86.057 M104.253,86.438l-2.623-0.97l2.664-1.209
		l2.746,0.918L104.253,86.438z M99.627,82.528c-0.362-0.254-0.231-0.545-0.231-0.545c0.911-0.963,0.989-1.515,0.989-1.515
		c-0.791-0.604-2.731-0.447-2.731-0.447c0.321-1.343,1.216-2.269,1.216-2.269c-2.757-1.291-2.682-4.111-2.682-4.111
		c0-5.08,4.782-4.998,4.782-4.998c-0.302,0.992-0.112,1.939,0.038,2.343c0.157,0.373,0.474,0.783,1.067,2.604
		c0.578,1.798,0.175,3.559,0.175,3.559c2.044,0.567,2.939,1.738,2.939,1.738c-1.16,0.807-1.16,1.635-1.16,1.635
		c0.981,0.484,2.272,0.224,2.272,0.224c-0.097,1.253-1.429,1.395-1.429,1.395c-1.645,0.217-2.891-1.245-2.891-1.245
		C101.922,82.879,100.03,82.774,99.627,82.528 M139.525,73.44c1.022-0.343,0.899-1.47,0.899-1.47
		c-0.22-1.328-1.608-1.142-1.608-1.142c0.877-1.029,0.183-1.835,0.183-1.835c-0.679-0.851-1.753-0.299-1.753-0.299
		c0.489-1.089-0.157-1.642-0.157-1.642c-0.858-0.753-1.753,0.03-1.753,0.03c-0.026-1.067-0.794-1.306-0.794-1.306
		c-0.907-0.396-1.57,0.425-1.57,0.425c-0.664-1.827-1.966-0.895-2.276-0.769c-0.31,0.187-0.339,0-0.339,0
		c-0.06-2.2-1.936-1.372-1.936-1.372c0.511-1.104-0.381-1.724-0.381-1.724c-0.966-0.597-1.768,0.238-1.768,0.238
		c-0.097-1.454-1.175-1.029-1.518-0.895c-0.325,0.074-1.034,0.097-1.034,0.097c-2.227-0.276-3.051-0.149-3.051-0.149
		c-2.708-0.052-4.992,4.439-4.992,4.439v0.045l-0.041-0.045c0,0-2.316-4.491-5.017-4.439c0,0-0.829-0.127-3.048,0.149
		c0,0-0.694-0.022-1.037-0.097c-0.339-0.135-1.421-0.56-1.5,0.895c0,0-0.809-0.835-1.775-0.238c0,0-0.892,0.619-0.377,1.724
		c0,0-1.888-0.828-1.951,1.372c0,0-0.007,0.187-0.343,0c-0.299-0.126-1.601-1.059-2.261,0.769c0,0-0.675-0.82-1.567-0.425
		c0,0-0.78,0.238-0.81,1.306c0,0-0.903-0.783-1.765-0.03c0,0-0.645,0.553-0.171,1.642c0,0-1.048-0.552-1.705,0.299
		c0,0-0.705,0.806,0.183,1.835c0,0-1.425-0.187-1.623,1.142c0,0-0.108,1.127,0.888,1.47c0,0-1.171,0.553-0.962,1.492
		c0,0,0.071,0.94,1.287,1.119c0,0-1.015,0.672-0.593,1.619c0,0,0.403,1.097,1.705,0.776c0,0-0.492,1.142,0.265,1.648
		c0,0,0.713,0.604,1.589,0.015c0,0,0.466-0.171,0.657,0.157c0,0,0.332,0.529-0.362,1.312c0,0,3.783-0.32,4.801,5.782h30.956
		c1.022-6.103,4.857-5.782,4.857-5.782c-0.709-0.783-0.366-1.312-0.366-1.312c0.175-0.328,0.642-0.157,0.642-0.157
		c0.88,0.59,1.611-0.015,1.611-0.015c0.728-0.507,0.254-1.648,0.254-1.648c1.313,0.32,1.731-0.776,1.731-0.776
		c0.377-0.947-0.623-1.619-0.623-1.619c1.22-0.179,1.269-1.119,1.269-1.119C140.688,73.993,139.525,73.44,139.525,73.44
		 M100.504,90.72c0.06,0.717,0.086,1.381,0.086,1.381h30.079c0,0,0.026-0.627,0.085-1.291c0.071-0.731,0.153-1.306,0.153-1.306
		h-30.56C100.348,89.504,100.444,90.108,100.504,90.72 M113.949,60.705c0,0-0.97-0.022-1.604,0.291c0,0,2.246,0.604,3.331,3.208
		C116.769,61.6,119,60.996,119,60.996c-0.597-0.313-1.604-0.291-1.604-0.291c-0.097-0.344-0.474-0.612-0.474-0.612
		c0.295-0.351,0.88-0.746,0.88-0.746l-2.126-5.043l-2.119,5.043c0,0,0.582,0.396,0.873,0.746
		C114.426,60.093,114.046,60.361,113.949,60.705"/>
	<path fill="#A6844B" d="M132.187,77.269c0,0,0.907,0.947,1.235,2.268c0,0-1.962-0.156-2.746,0.455c0,0,0.06,0.545,0.97,1.522
		c0,0,0.168,0.283-0.231,0.537c-0.377,0.246-2.272,0.373-2.343-1.627c0,0-1.228,1.485-2.899,1.261c0,0-1.32-0.164-1.402-1.402
		c0,0,1.268,0.246,2.279-0.224c0,0-0.041-0.82-1.19-1.627c0,0,0.899-1.171,2.955-1.73c0,0-0.411-1.775,0.183-3.574
		c0.601-1.806,0.896-2.238,1.052-2.626c0.168-0.381,0.354-1.32,0.045-2.32c0,0,4.775-0.104,4.79,5.006
		C134.884,73.187,134.937,76.029,132.187,77.269 M126.808,86.035l-2.787-1.276l2.753-0.902l2.63,1.201L126.808,86.035z
		 M122.107,81.409c-1.601-0.104-2.186-1.694-2.186-1.694c-0.802,1.053-2.455,0.881-2.455,0.881
		c-1.332-0.291-1.425-1.455-1.425-1.455c1.466-0.291,1.847-0.82,1.847-0.82c-0.336-0.94-1.933-1.463-1.933-1.463
		c0.963-1.515,3.011-2.275,3.011-2.275c-0.798-0.828-1.03-1.656-1.235-3.021c-0.209-1.396,0.157-3.552,0.157-3.552
		c0.407-1.925,1.142-2.864,1.768-3.686c0.679-0.806,1.351-0.709,1.351-0.709c0.892,0.104,1.697,0.582,1.697,0.582
		c1.063,0.627,1.824,1.537,2.171,2.022c0.324,0.484,1.361,2.798,0.067,5.707c-1.291,2.873-2.615,3.417-2.615,3.417
		c1.992,1.926,1.98,2.783,1.98,2.783c-1.645,0-2.082,0.918-2.082,0.918c0.403,0.806,1.582,1.104,1.582,1.104
		C123.469,81.469,122.107,81.409,122.107,81.409 M121.055,85.654c-0.56,0-1.018-0.447-1.018-1.007c0-0.575,0.458-1.016,1.018-1.016
		c0.538,0,0.981,0.44,0.981,1.016C122.037,85.207,121.593,85.654,121.055,85.654 M115.407,85.654l-2.678-1.082l2.678-1.082
		l2.731,1.082L115.407,85.654z M110.886,79.715c0,0-0.597,1.59-2.19,1.694c0,0-1.358,0.06-1.686-1.261c0,0,1.149-0.299,1.57-1.104
		c0,0-0.437-0.918-2.093-0.918c0,0-0.019-0.857,2.003-2.783c0,0-1.354-0.544-2.638-3.417c-1.279-2.909-0.261-5.223,0.082-5.707
		c0.336-0.485,1.089-1.396,2.164-2.022c0,0,0.798-0.478,1.716-0.582c0,0,0.649-0.089,1.317,0.709
		c0.63,0.821,1.399,1.761,1.787,3.686c0,0,0.37,2.156,0.157,3.552c-0.198,1.365-0.429,2.193-1.235,3.021c0,0,2.03,0.761,3,2.275
		c0,0-1.6,0.522-1.921,1.463c0,0,0.377,0.529,1.839,0.82c0,0-0.063,1.164-1.444,1.455C113.314,80.596,111.688,80.768,110.886,79.715
		 M109.767,85.654c-0.545,0-1.026-0.447-1.026-1.007c0-0.538,0.481-0.978,1.026-0.978c0.556,0,0.974,0.439,0.974,0.978
		C110.741,85.207,110.323,85.654,109.767,85.654 M103.981,86.035l-2.619-0.971l2.656-1.208l2.75,0.917L103.981,86.035z
		 M99.359,82.125c-0.358-0.261-0.239-0.552-0.239-0.552c0.914-0.955,0.996-1.507,0.996-1.507c-0.791-0.612-2.734-0.455-2.734-0.455
		c0.324-1.344,1.22-2.261,1.22-2.261c-2.757-1.291-2.686-4.111-2.686-4.111c0-5.081,4.783-5.007,4.783-5.007
		c-0.298,1-0.104,1.94,0.041,2.351c0.153,0.373,0.474,0.783,1.067,2.604c0.574,1.799,0.175,3.552,0.175,3.552
		c2.041,0.574,2.939,1.746,2.939,1.746c-1.164,0.813-1.164,1.634-1.164,1.634c0.981,0.478,2.268,0.224,2.268,0.224
		c-0.09,1.254-1.421,1.396-1.421,1.396c-1.649,0.216-2.898-1.246-2.898-1.246C101.653,82.483,99.762,82.371,99.359,82.125
		 M139.252,73.038c1.019-0.344,0.899-1.478,0.899-1.478c-0.22-1.32-1.604-1.134-1.604-1.134c0.877-1.03,0.179-1.836,0.179-1.836
		c-0.675-0.843-1.75-0.298-1.75-0.298c0.489-1.09-0.157-1.635-0.157-1.635c-0.865-0.761-1.753,0.022-1.753,0.022
		c-0.03-1.06-0.794-1.306-0.794-1.306c-0.907-0.396-1.571,0.426-1.571,0.426c-0.66-1.828-1.966-0.896-2.275-0.761
		c-0.31,0.171-0.339,0-0.339,0c-0.06-2.209-1.94-1.381-1.94-1.381c0.515-1.104-0.373-1.724-0.373-1.724
		c-0.966-0.597-1.772,0.239-1.772,0.239c-0.097-1.455-1.179-1.022-1.518-0.896c-0.329,0.074-1.037,0.097-1.037,0.097
		c-2.227-0.275-3.044-0.149-3.044-0.149c-2.716-0.052-4.995,4.439-4.995,4.439v0.045l-0.041-0.045c0,0-2.316-4.491-5.018-4.439
		c0,0-0.832-0.126-3.047,0.149c0,0-0.694-0.022-1.037-0.097c-0.343-0.135-1.421-0.567-1.5,0.896c0,0-0.81-0.836-1.779-0.239
		c0,0-0.884,0.619-0.38,1.724c0,0-1.884-0.828-1.944,1.381c0,0-0.007,0.171-0.347,0c-0.291-0.135-1.593-1.067-2.257,0.761
		c0,0-0.675-0.821-1.571-0.426c0,0-0.78,0.246-0.802,1.306c0,0-0.903-0.783-1.769-0.022c0,0-0.653,0.545-0.171,1.635
		c0,0-1.048-0.545-1.708,0.298c0,0-0.702,0.806,0.19,1.836c0,0-1.429-0.187-1.63,1.134c0,0-0.112,1.134,0.888,1.478
		c0,0-1.171,0.552-0.959,1.492c0,0,0.071,0.933,1.284,1.119c0,0-1.011,0.671-0.593,1.619c0,0,0.403,1.104,1.708,0.783
		c0,0-0.489,1.134,0.265,1.642c0,0,0.716,0.611,1.593,0.007c0,0,0.462-0.164,0.656,0.164c0,0,0.329,0.53-0.373,1.313
		c0,0,3.791-0.321,4.809,5.782h30.956c1.026-6.104,4.861-5.782,4.861-5.782c-0.716-0.783-0.369-1.313-0.369-1.313
		c0.175-0.328,0.638-0.164,0.638-0.164c0.884,0.604,1.615-0.007,1.615-0.007c0.731-0.508,0.25-1.642,0.25-1.642
		c1.317,0.32,1.735-0.783,1.735-0.783c0.373-0.948-0.619-1.619-0.619-1.619c1.212-0.187,1.268-1.119,1.268-1.119
		C140.417,73.59,139.252,73.038,139.252,73.038 M100.232,90.31c0.063,0.724,0.085,1.388,0.085,1.388h30.086
		c0,0,0.022-0.626,0.086-1.298c0.067-0.724,0.146-1.298,0.146-1.298h-30.553C100.083,89.102,100.176,89.705,100.232,90.31
		 M113.676,60.302c0,0-0.966-0.022-1.604,0.291c0,0,2.25,0.604,3.335,3.208c1.089-2.604,3.328-3.208,3.328-3.208
		c-0.597-0.313-1.608-0.291-1.608-0.291c-0.097-0.343-0.478-0.611-0.478-0.611c0.295-0.351,0.884-0.739,0.884-0.739l-2.126-5.051
		l-2.119,5.051c0,0,0.578,0.389,0.873,0.739C114.162,59.69,113.77,59.959,113.676,60.302"/>
</g>
</svg>
