<?xml version="1.0" encoding="utf-8"?>
<!-- Generator: Adobe Illustrator 16.2.1, SVG Export Plug-In . SVG Version: 6.00 Build 0)  -->
<!DOCTYPE svg PUBLIC "-//W3C//DTD SVG 1.1//EN" "http://www.w3.org/Graphics/SVG/1.1/DTD/svg11.dtd">
<svg version="1.1" id="svg2367" xmlns:svg="http://www.w3.org/2000/svg"
	 xmlns="http://www.w3.org/2000/svg" xmlns:xlink="http://www.w3.org/1999/xlink" x="0px" y="0px" width="50px" height="50px"
	 viewBox="0 0 50 50" enable-background="new 0 0 50 50" xml:space="preserve">
<g>
	<polygon fill="#FCEE21" points="29.299,43.586 33.927,43.586 48.887,8 44.215,8 	"/>
	<g>
		<polygon fill="#EC2427" points="32.992,43.586 35.04,43.586 50,8 47.908,8 		"/>
		<polygon fill="#18488B" points="0.91,43.589 29.586,43.589 29.863,43.567 30.114,43.505 30.367,43.377 30.622,43.228 
			30.854,43.06 31.046,42.849 31.213,42.617 31.318,42.362 45.185,9.227 45.266,8.972 45.289,8.761 45.266,8.549 45.205,8.358 
			45.077,8.212 44.908,8.105 44.716,8.021 44.465,8 33.22,8 32.988,8.042 32.756,8.126 32.523,8.252 32.313,8.423 31.891,8.804 
			31.488,9.227 0.191,42.362 0.065,42.574 0,42.785 0.021,42.976 0.105,43.166 0.252,43.334 0.443,43.484 0.655,43.567 		"/>
		<path fill="#FFFFFF" d="M26.015,20.406c4.659,0,8.444,3.808,8.444,8.465c0,4.679-3.785,8.487-8.444,8.487
			c-4.68,0-8.509-3.809-8.509-8.487C17.506,24.214,21.334,20.406,26.015,20.406L26.015,20.406z M25.461,31.615l7.233,1.32
			c0.724-1.214,1.125-2.553,1.125-4.064c0-2.275-1.019-4.361-2.593-5.806L25.461,31.615L25.461,31.615z M25.822,32.829l3.637,2.979
			l-6.742-3.321c-0.617-0.168-1.211-0.212-1.787-0.232c-0.659-0.021-1.255,0.085-1.936,0.191c1.318,2.533,3.957,4.275,7.021,4.275
			c2.68,0,5.084-1.384,6.488-3.51L25.822,32.829L25.822,32.829z"/>
	</g>
</g>
<path fill="#18488B" d="M22.569,31.104L22.569,31.104c-0.683-0.083-1.063-0.189-1.619-0.127c-0.638,0.044-1.509,0.619-2.062,1.215
	c-0.466-1.003-0.724-2.127-0.724-3.32c0-4.296,3.51-7.826,7.851-7.826c1.85,0,3.595,0.679,4.934,1.786L22.569,31.104"/>
</svg>
