<?xml version="1.0" encoding="utf-8"?>
<!-- Generator: Adobe Illustrator 16.2.1, SVG Export Plug-In . SVG Version: 6.00 Build 0)  -->
<!DOCTYPE svg PUBLIC "-//W3C//DTD SVG 1.1//EN" "http://www.w3.org/Graphics/SVG/1.1/DTD/svg11.dtd">
<svg version="1.1" id="svg2367" xmlns:svg="http://www.w3.org/2000/svg"
	 xmlns="http://www.w3.org/2000/svg" xmlns:xlink="http://www.w3.org/1999/xlink" x="0px" y="0px" width="50px" height="50px"
	 viewBox="0 0 50 50" enable-background="new 0 0 50 50" xml:space="preserve">
<path id="path6192" fill="#1082AD" d="M20.765,7.43L30,16.667l-5.493,19.345l-7.005-6.869l-4.169-16.644"/>
<path id="path6194" fill="#1082AD" d="M36.25,31.248h10.42l-8.335,7.639l-13.828-2.875"/>
<path id="path6196" fill="#122E53" d="M38.334,38.889l-12.5,3.425L11.251,50l13.254-13.988"/>
<path id="path6198" fill="#7EC2D4" d="M17.502,43.403L5,45.835L11.251,50"/>
<path id="path6200" fill="#122E53" d="M36.25,31.248h10.42l-5.282-2.081"/>
<path id="path6202" fill="#122E53" d="M44.839,32.924l1.829,1.824v-3.496"/>
<path id="path6204" fill="#7EC2D4" d="M36.25,31.248L30,16.667l-5.493,19.345"/>
<path id="path6206" fill="#122E53" d="M13.333,12.502l2.085-10.417L7.083,0"/>
<path id="path6208" fill="#7EC2D4" d="M20.765,7.43l-5.347-5.345l-2.085,10.414"/>
</svg>
