<?xml version="1.0" encoding="utf-8"?>
<!-- Generator: Adobe Illustrator 16.2.1, SVG Export Plug-In . SVG Version: 6.00 Build 0)  -->
<!DOCTYPE svg PUBLIC "-//W3C//DTD SVG 1.1//EN" "http://www.w3.org/Graphics/SVG/1.1/DTD/svg11.dtd">
<svg version="1.1" id="svg2367" xmlns:svg="http://www.w3.org/2000/svg"
	 xmlns="http://www.w3.org/2000/svg" xmlns:xlink="http://www.w3.org/1999/xlink" x="0px" y="0px" width="50px" height="50px"
	 viewBox="393.414 106.031 50 50" enable-background="new 393.414 106.031 50 50" xml:space="preserve">
<path id="path5" fill="#C0172B" d="M418.199,106.031h0.734c1.146,0.036,2.296,0.117,3.431,0.282
	c4.042,0.577,7.92,2.237,11.133,4.759c3.695,2.905,6.761,6.718,8.392,11.158c1.673,4.533,1.928,9.546,0.971,14.269
	c-0.898,4.385-3.147,8.447-6.233,11.672c-3.188,3.396-7.298,5.992-11.847,7.094c-5.067,1.241-10.53,0.999-15.402-0.905
	c-4.104-1.604-7.799-4.286-10.532-7.749c-2.401-3.063-4.133-6.658-4.918-10.479c-1.155-5.643-0.36-11.693,2.383-16.775
	c2.109-4.057,5.353-7.517,9.297-9.829C409.394,107.266,413.787,106.053,418.199,106.031 M414.96,117.641
	c-2.133,0.081-4.31,0.157-6.358,0.806c-1.59,0.576-3.11,1.503-4.122,2.881c-1.074,1.452-1.456,3.331-1.274,5.102
	c0.201,1.782,1.245,3.354,2.536,4.541c1.531,1.452,3.458,2.36,5.158,3.587c0.715,0.519,1.506,1.053,1.886,1.885
	c0.457,0.961,0.181,2.172-0.581,2.894c-1.131,1.123-2.785,1.476-4.323,1.533c-1.494,0.025-3-0.047-4.474-0.319
	c-0.432-0.067-0.853-0.226-1.292-0.219c-0.374,0.078-0.484,0.491-0.604,0.806c-0.25,0.772-0.549,1.538-0.783,2.312
	c-0.152,0.403,0.017,0.936,0.458,1.049c1.391,0.437,2.857,0.547,4.304,0.618c1.787,0.068,3.604,0.062,5.353-0.373
	c2.166-0.507,4.196-1.663,5.64-3.372c1.379-1.607,2.032-3.845,1.606-5.934c-0.369-1.718-1.502-3.163-2.792-4.308
	c-1.775-1.613-4.016-2.589-5.808-4.179c-1.109-0.885-1.206-2.754-0.206-3.755c0.694-0.721,1.688-1.064,2.664-1.186
	c1.916-0.222,3.848-0.173,5.773-0.193c0.48,0.025,0.979-0.197,1.197-0.639c0.442-0.85,0.705-1.769,1.043-2.649
	c0.077-0.25,0.224-0.583-0.019-0.789c-0.238-0.155-0.537-0.111-0.806-0.123C417.747,117.628,416.352,117.603,414.96,117.641
	 M422.852,118.334c-0.306,0.737-0.554,1.503-0.846,2.247c-0.1,0.304-0.257,0.62-0.195,0.943c0.054,0.256,0.34,0.3,0.555,0.292
	c2.272-0.004,4.543-0.028,6.813-0.034c-2.052,4.612-4.04,9.254-6.217,13.806c-0.146,0.268-0.157,0.777,0.244,0.801
	c1.081,0.042,2.166,0.025,3.245,0.011c0.54-0.002,1.005-0.378,1.194-0.876c2.514-5.699,5.008-11.411,7.524-17.111
	c0.065-0.172,0.15-0.354,0.127-0.54c-0.127-0.265-0.452-0.244-0.694-0.256c-3.515,0.002-7.032,0-10.549,0
	C423.553,117.582,423.037,117.858,422.852,118.334z"/>
<g id="_x23_ffffffff">
	<path id="path24_1_" fill="#FFFFFF" d="M414.96,117.641c1.392-0.038,2.786-0.013,4.179-0.024c0.269,0.012,0.567-0.032,0.806,0.123
		c0.242,0.206,0.096,0.539,0.019,0.789c-0.338,0.881-0.601,1.8-1.043,2.649c-0.219,0.441-0.717,0.664-1.197,0.639
		c-1.926,0.021-3.857-0.028-5.773,0.193c-0.976,0.121-1.97,0.465-2.664,1.186c-1,1.001-0.903,2.87,0.206,3.755
		c1.792,1.59,4.032,2.565,5.808,4.179c1.29,1.145,2.423,2.59,2.792,4.308c0.426,2.089-0.228,4.326-1.606,5.934
		c-1.443,1.709-3.474,2.865-5.64,3.372c-1.749,0.436-3.566,0.441-5.353,0.373c-1.447-0.071-2.913-0.182-4.304-0.618
		c-0.441-0.113-0.61-0.646-0.458-1.049c0.233-0.774,0.533-1.54,0.783-2.312c0.12-0.314,0.23-0.728,0.604-0.806
		c0.438-0.007,0.859,0.151,1.292,0.219c1.474,0.272,2.979,0.345,4.474,0.319c1.538-0.058,3.192-0.41,4.323-1.533
		c0.762-0.722,1.038-1.933,0.581-2.894c-0.38-0.832-1.171-1.366-1.886-1.885c-1.7-1.227-3.627-2.135-5.158-3.587
		c-1.292-1.188-2.335-2.759-2.536-4.541c-0.181-1.771,0.201-3.649,1.274-5.102c1.012-1.378,2.532-2.305,4.122-2.881
		C410.651,117.798,412.828,117.722,414.96,117.641z"/>
	<path id="path26_1_" fill="#FFFFFF" d="M422.852,118.334c0.185-0.477,0.701-0.752,1.202-0.718c3.517,0,7.034,0.002,10.549,0
		c0.242,0.012,0.567-0.009,0.694,0.256c0.023,0.186-0.062,0.368-0.127,0.54c-2.517,5.7-5.011,11.412-7.524,17.111
		c-0.189,0.498-0.654,0.874-1.194,0.876c-1.079,0.015-2.164,0.031-3.245-0.011c-0.401-0.023-0.391-0.533-0.244-0.801
		c2.177-4.552,4.165-9.193,6.217-13.806c-2.271,0.006-4.541,0.03-6.813,0.034c-0.215,0.008-0.501-0.036-0.555-0.292
		c-0.062-0.323,0.096-0.64,0.195-0.943C422.298,119.837,422.546,119.072,422.852,118.334z"/>
</g>
</svg>
