<?xml version="1.0" encoding="utf-8"?>
<!-- Generator: Adobe Illustrator 16.2.1, SVG Export Plug-In . SVG Version: 6.00 Build 0)  -->
<!DOCTYPE svg PUBLIC "-//W3C//DTD SVG 1.1//EN" "http://www.w3.org/Graphics/SVG/1.1/DTD/svg11.dtd">
<svg version="1.1" id="Ebene_1" xmlns="http://www.w3.org/2000/svg" xmlns:xlink="http://www.w3.org/1999/xlink" x="0px" y="0px"
	 width="50px" height="50px" viewBox="250.5 89.179 50 50" enable-background="new 250.5 89.179 50 50" xml:space="preserve">
<path fill="#E2631C" d="M267.899,111.344h0.155c1.241-0.155-0.155,1.551,1.085,1.704l0.775-0.464
	c0.155,0.464-0.31,1.396,0.465,1.396c0.621,0.155,1.861-0.312,2.17,0.309c0.31,1.086-0.93,0.775-1.085,1.396
	c-0.775,0.155-1.705,0.775-2.17,1.086c-1.085,0.93-2.636,1.396-3.1,2.945l0.31,0.311c2.48-1.085,4.495-2.636,7.286-3.102
	c-2.171,1.706-4.961,3.875-7.286,5.58l-1.551-3.409l-0.31,0.311c-0.155,1.394,0.31,2.944,0,4.495
	c-0.62-0.155-1.396-0.309-2.015-0.309l-0.311,0.62c-1.084-0.155-1.705-0.931-2.635-1.24c-0.31,0.153-0.31,0.31-0.31,0.62
	l0.775,0.465c-1.085,0.155-2.326,0.464-3.101,1.239c-0.31-0.311-0.464,0-0.774,0l0.31,0.31c2.17-0.31,4.496-0.31,6.821-0.31
	c0.31,0.774,1.24,1.085,2.17,1.085c0.465-0.155,0.156-1.085,0.62-0.62c0.775,0.775,0.93,1.86,1.24,2.791
	c0.621-0.62,0.311-2.017,0.465-2.791c0.31,0.155,0.62,1.085,1.24,0.62c0.31-0.465,0.775-0.931,0.465-1.551
	c-0.311-0.465-1.24-0.773-1.24-1.394c1.24-0.62,2.635,0.153,3.875,0.464c0.774-0.619-0.155-1.239-0.155-2.017
	c1.085-0.62,2.79-0.773,3.72-1.394c-2.016,0-4.031,0.62-6.045,1.084c1.86-1.859,3.875-3.875,6.201-5.271
	c1.55,0.311,3.721,0.62,4.03,2.326l-0.309,0.31l0.62,0.775l-0.931,0.929c0.621,1.55,2.635,3.257,0.621,4.807
	c-1.085,1.085-2.325,1.86-4.031,1.86c-1.55-0.775-3.101-2.016-4.806-2.636c1.086,1.86,2.791,3.412,3.256,5.582
	c0,0,0.155,0.773-0.311,1.704c-0.464,0.466-1.549,1.706-2.325,1.86c-0.621,0.311-0.621-0.465-1.241-0.154
	c-0.464-0.465-0.31-1.396-0.929-1.706c-0.931-0.155-0.621,1.86-1.706,0.622c-1.705,0.464-3.255,1.238-5.271,1.084
	c0-1.396-0.31-3.102,0.31-4.342c-0.465-0.775,0.775-0.929,0-1.706c-2.79,1.242-4.341,3.257-5.736,5.583
	c-0.62,0-0.775,0.465-1.55,0.31c-0.621-0.465-1.55-0.929-1.861-1.551c-0.31-0.466,0.621-1.551-0.464-1.551
	c-0.775-0.153-1.706-0.465-2.326-0.93c-0.465-0.775,0.155-1.861-0.465-2.637c-0.309-3.252,1.396-5.113,3.566-6.509l-0.311-1.085
	c0.775,0.465,1.396,0,1.551-0.62c0.31-0.311,0.155-1.085,0.775-1.396c0.31-0.465,0.31-1.396,1.085-1.704
	c2.015,2.324,2.946,5.58,5.736,7.286c0.465-0.154,0.931,0.465,1.241-0.154c-0.465-1.396-1.861-1.861-2.326-3.412
	c-0.155-1.24-0.31-2.326-0.155-3.876h0.155c0-0.931,0.465-2.479,0.465-2.479s0.31-0.311,0.31-0.466
	c0.31-0.774,0.93-1.396,1.86-1.396c0.931-0.465,2.325,0.311,3.101,0L267.899,111.344L267.899,111.344z"/>
<path fill="#EECE39" d="M296.269,99.871c-0.775,0.466-1.86,1.241-1.24,2.171c0.465,0.311,0.775,0.155,1.551,0
	c0.774-0.465,2.015-1.085,1.86-2.171C297.819,98.786,296.733,99.561,296.269,99.871z M283.092,112.274
	c0,0.31-0.62,0.775-0.155,1.085c0.155,0.155,0.465,0.155,1.24,0c0.464-0.465,2.015-1.24,1.24-2.016
	C284.642,111.188,283.712,111.499,283.092,112.274z M293.013,99.097c-1.084,0.464-2.325,0.929-2.325,2.169
	c0.155,0.621,0.62,0.621,0.62,0.775c-0.31-0.155-1.55,0.311-1.706,0.931c0-0.465-0.62-0.931-1.085-0.775
	c-1.084,0.465-2.79,1.24-2.635,2.48c0.31,1.239,2.016-0.156,2.791-0.31c-4.67,4.995-10.173,9.074-15.503,13.044
	c-2.066,1.618-4.555,3.546-6.666,5.094c-0.102-0.152-0.204-0.39-0.305-0.672l-1.245-2.738l-0.31,0.31
	c-0.155,1.396,0.31,2.944,0,4.495c-0.621-0.153-1.396-0.309-2.015-0.309l-0.31,0.62c-1.085-0.155-1.706-0.93-2.636-1.24
	c-0.31,0.155-0.31,0.31-0.31,0.62l0.775,0.465c-1.085,0.155-2.326,0.464-3.101,1.239c-0.31-0.309-0.464,0-0.774,0l0.31,0.31
	c2.171-0.31,4.496-0.31,6.821-0.31c0.31,0.775,1.24,1.085,2.17,1.085c0.465-0.155,0.156-1.085,0.621-0.62
	c0.717,0.718,0.904,1.696,1.173,2.576l0.1,0.168c0.567-0.639,0.28-1.986,0.431-2.744c0.311,0.155,0.62,1.085,1.24,0.62
	c0.31-0.465,0.775-0.929,0.465-1.549c-0.31-0.465-1.24-0.775-1.24-1.396c1.24-0.62,2.635,0.155,3.875,0.464
	c0.775-0.619-0.155-1.238-0.155-2.015c1.085-0.62,2.79-0.775,3.721-1.396c-2.016,0-4.031,0.62-6.046,1.084
	c1.833-1.832,3.817-3.811,6.098-5.205c3.764-3.196,7.547-6.251,11.265-9.367c0.31,0.311,0.62,0.622,1.085,0.622
	c1.085-0.312,2.17-0.932,2.791-2.016c0.31-0.467-0.155-0.931-0.621-0.931l1.705-1.24c0.62-0.775,0.31-1.24,0-1.551
	c0.929-0.465,2.171-1.085,2.171-2.325C293.944,99.097,293.478,99.097,293.013,99.097z M300.161,94.658
	c-0.62-0.31-0.84-0.237-1.46,0.103c-0.149,0.148-0.055,0.054-0.337,0.306c-0.454,0.323-0.874,0.737-1.165,1.085
	c-0.466,0.619-0.31,0.931-0.155,1.239c0.62,0.312,0.93,0.156,1.55,0c0.609-0.363,1.494-1.11,1.777-1.864
	C300.673,95.028,300.374,94.871,300.161,94.658z"/>
</svg>
