<?xml version="1.0" encoding="utf-8"?>
<!-- Generator: Adobe Illustrator 16.2.1, SVG Export Plug-In . SVG Version: 6.00 Build 0)  -->
<!DOCTYPE svg PUBLIC "-//W3C//DTD SVG 1.1//EN" "http://www.w3.org/Graphics/SVG/1.1/DTD/svg11.dtd">
<svg version="1.1" id="Layer_1" xmlns="http://www.w3.org/2000/svg" xmlns:xlink="http://www.w3.org/1999/xlink" x="0px" y="0px"
	 width="50px" height="50px" viewBox="100.5 58 50 50" enable-background="new 100.5 58 50 50" xml:space="preserve">
<desc>Logo of Shandong Airlines</desc>
<g>
	<path id="path11" fill="#3E4095" d="M125.5,58.042c1.539,0,3.034,0.129,4.487,0.385c-6.367,5.471-11.196,8.761-8.162,21.753
		c3.291,14.272-4.231,15.469-10.47,21.409h25.599c4.358-3.461,9.7-8.247,8.417-15.641c-0.982-5.769,1.625-8.59,3.89-10.726
		c0.812,2.436,1.24,5.041,1.24,7.777c0,13.761-11.24,24.999-25,24.999c-13.76,0-25-11.238-25-24.999c0-13.762,11.239-25,25-25
		V58.042L125.5,58.042L125.5,58.042L125.5,58.042L125.5,58.042z M137.893,61.334c0.684,0.384,1.324,0.811,1.923,1.238
		c-2.394,1.838-4.958,3.761-6.881,5.982c-7.991,9.273,3.077,19.531-5.982,28.463c2.606-5.855,2.393-10.854,1.068-19.231
		c-0.897-5.598,3.888-12.009,9.915-16.452H137.893L137.893,61.334z M144.858,67.231c0.427,0.555,0.855,1.11,1.282,1.665
		c-3.419,2.395-8.163,4.701-7.649,11.325c0.598,7.906-0.343,13.845-4.061,17.094c2.692-5.427,3.077-12.095,2.094-18.59
		C135.67,73.043,139.901,70.607,144.858,67.231L144.858,67.231L144.858,67.231L144.858,67.231L144.858,67.231z"/>
</g>
</svg>
