<?xml version="1.0" encoding="utf-8"?>
<!-- Generator: Adobe Illustrator 16.2.1, SVG Export Plug-In . SVG Version: 6.00 Build 0)  -->
<!DOCTYPE svg PUBLIC "-//W3C//DTD SVG 1.1//EN" "http://www.w3.org/Graphics/SVG/1.1/DTD/svg11.dtd">
<svg version="1.1" id="svg4385" xmlns:svg="http://www.w3.org/2000/svg"
	 xmlns="http://www.w3.org/2000/svg" xmlns:xlink="http://www.w3.org/1999/xlink" x="0px" y="0px" width="50px" height="50px"
	 viewBox="451.5 399.5 50 50" enable-background="new 451.5 399.5 50 50" xml:space="preserve">
<linearGradient id="path3551_1_" gradientUnits="userSpaceOnUse" x1="958.3838" y1="347.2739" x2="958.3838" y2="345.4454" gradientTransform="matrix(14.9943 0 0 14.9943 -13893.7773 -4768.8716)">
	<stop  offset="0" style="stop-color:#06246C"/>
	<stop  offset="1" style="stop-color:#3481B9"/>
</linearGradient>
<path id="path3551" fill="url(#path3551_1_)" d="M484.961,410.828c-1.911,0-3.465,1.549-3.465,3.464l0.02,15.149v0.079
	c0.147,3.479,2.652,8.65,8.945,8.65h7.573c1.916,0,3.465-1.548,3.465-3.465c0-1.91-1.549-3.464-3.465-3.464h-7.573
	c-1.803,0-1.968-1.452-2.017-2.017v-14.934C488.444,412.377,486.876,410.828,484.961,410.828z M497.271,432.769
	c1.057,0,1.919,0.854,1.919,1.919c0,1.042-0.867,1.897-1.919,1.897c-1.056,0-1.937-0.856-1.937-1.879
	C495.334,433.615,496.188,432.769,497.271,432.769z M452.515,411.848c1.352-1.354,3.543-1.354,4.897,0l7.758,7.757l7.75-7.757
	c1.354-1.354,3.544-1.354,4.905,0c1.352,1.353,1.352,3.544,0,4.896l-7.758,7.758l7.758,7.759c1.352,1.352,1.352,3.544,0,4.897
	c-1.354,1.352-3.551,1.352-4.905,0l-7.75-7.751l-7.758,7.751c-1.354,1.352-3.545,1.352-4.897,0c-1.354-1.354-1.354-3.546,0-4.897
	l7.75-7.759l-7.75-7.758C451.161,415.398,451.161,413.2,452.515,411.848"/>
<path id="path3123" fill="#D38D5F" d="M495.356,434.994c0.143,0.893,0.949,1.592,1.9,1.592h0.005
	C496.305,436.584,495.499,435.886,495.356,434.994 M499.17,434.488c0.007,0.063,0.01,0.129,0.01,0.195
	C499.18,434.617,499.177,434.552,499.17,434.488 M497.265,432.768c-1.078,0-1.932,0.853-1.932,1.944
	c0-1.091,0.852-1.943,1.935-1.944H497.265"/>
</svg>
