<?xml version="1.0" encoding="utf-8"?>
<!-- Generator: Adobe Illustrator 16.2.1, SVG Export Plug-In . SVG Version: 6.00 Build 0)  -->
<!DOCTYPE svg PUBLIC "-//W3C//DTD SVG 1.1//EN" "http://www.w3.org/Graphics/SVG/1.1/DTD/svg11.dtd">
<svg version="1.1" id="Layer_1" xmlns="http://www.w3.org/2000/svg" xmlns:xlink="http://www.w3.org/1999/xlink" x="0px" y="0px"
	 width="50px" height="50px" viewBox="157.336 90.5 50 50" enable-background="new 157.336 90.5 50 50" xml:space="preserve">
<rect x="157.336" y="106.435" fill="#C41230" width="50" height="18.13"/>
<path fill="#FFFFFF" d="M204.515,122.211c-0.001-0.059-0.021-0.104-0.06-0.137s-0.09-0.05-0.152-0.051
	c-0.048,0-0.092,0.011-0.13,0.031s-0.066,0.051-0.087,0.091c-0.011,0.021-0.016,0.042-0.016,0.065H204.515 M204.737,122.344h-0.679
	c0,0.081,0.014,0.156,0.047,0.229c0.029,0.073,0.078,0.132,0.142,0.178c0.063,0.046,0.144,0.069,0.241,0.071
	c0.078,0,0.151-0.014,0.222-0.037v0.157c-0.097,0.022-0.193,0.034-0.292,0.036c-0.138-0.001-0.249-0.028-0.334-0.08
	c-0.086-0.051-0.148-0.123-0.188-0.214c-0.04-0.091-0.059-0.194-0.057-0.312c0-0.097,0.015-0.183,0.049-0.259
	c0.033-0.075,0.084-0.135,0.154-0.179c0.07-0.043,0.163-0.065,0.275-0.065c0.143,0.001,0.25,0.042,0.318,0.12
	c0.07,0.078,0.104,0.18,0.104,0.305V122.344L204.737,122.344z M186.885,121.575c-0.076-0.021-0.154-0.03-0.234-0.031
	c-0.079,0.002-0.136,0.025-0.173,0.069c-0.039,0.044-0.058,0.1-0.058,0.167v0.11h0.351v0.155h-0.351v0.905H186.2v-0.905h-0.21
	v-0.155h0.21v-0.124c0-0.132,0.042-0.228,0.119-0.288c0.078-0.062,0.188-0.091,0.33-0.09c0.079-0.001,0.159,0.005,0.237,0.02
	V121.575z M187.22,122.952h-0.223v-1.538h0.223V122.952z M188.519,121.892l-0.583,1.519h-0.216l0.165-0.45l-0.447-1.068h0.247
	l0.308,0.767l0.28-0.767H188.519L188.519,121.892z M188.971,121.643h-0.266v-0.229h0.266V121.643z M188.95,122.952h-0.222v-1.061
	h0.222V122.952z M190.254,122.952h-0.222v-0.578c0-0.044,0-0.088-0.003-0.132c0-0.052-0.012-0.094-0.032-0.125
	c-0.02-0.032-0.062-0.048-0.124-0.05c-0.072,0.003-0.13,0.028-0.178,0.078c-0.045,0.05-0.079,0.108-0.099,0.175
	c-0.023,0.066-0.034,0.128-0.034,0.182v0.45h-0.221v-1.061h0.221v0.228c0.039-0.077,0.084-0.138,0.146-0.183
	c0.061-0.046,0.139-0.068,0.231-0.069c0.078,0.001,0.141,0.018,0.186,0.05c0.046,0.032,0.08,0.074,0.1,0.127
	c0.021,0.054,0.031,0.11,0.031,0.173L190.254,122.952L190.254,122.952z M191.491,122.995c-0.003,0.157-0.052,0.269-0.147,0.336
	c-0.096,0.065-0.229,0.099-0.395,0.097c-0.122,0-0.242-0.013-0.36-0.038v-0.203c0.054,0.025,0.107,0.045,0.164,0.061
	c0.056,0.016,0.114,0.024,0.174,0.024c0.129,0,0.221-0.028,0.271-0.086c0.05-0.057,0.073-0.14,0.071-0.249v-0.165
	c-0.03,0.06-0.073,0.104-0.135,0.135c-0.062,0.031-0.127,0.046-0.192,0.046c-0.109-0.001-0.191-0.029-0.25-0.083
	s-0.099-0.121-0.123-0.202s-0.033-0.162-0.031-0.244c-0.001-0.085,0.009-0.169,0.033-0.254c0.024-0.084,0.066-0.155,0.127-0.213
	c0.062-0.057,0.146-0.087,0.256-0.089c0.065,0.001,0.125,0.016,0.184,0.045c0.056,0.029,0.098,0.072,0.124,0.126l0.005-0.146h0.222
	V122.995L191.491,122.995z M191.269,122.397c0.001-0.05-0.007-0.104-0.02-0.161c-0.017-0.059-0.042-0.107-0.079-0.148
	c-0.038-0.041-0.09-0.063-0.157-0.064c-0.068,0.002-0.117,0.026-0.15,0.071c-0.033,0.046-0.054,0.1-0.065,0.16
	c-0.012,0.061-0.015,0.115-0.015,0.163c0,0.047,0.005,0.099,0.015,0.157c0.011,0.059,0.033,0.109,0.065,0.153
	c0.033,0.043,0.082,0.066,0.147,0.068c0.068-0.003,0.12-0.026,0.158-0.071c0.038-0.046,0.064-0.1,0.079-0.161
	C191.262,122.503,191.271,122.448,191.269,122.397z M193.353,121.575c-0.077-0.021-0.154-0.03-0.234-0.031
	c-0.078,0.002-0.136,0.025-0.174,0.069c-0.037,0.044-0.054,0.1-0.054,0.167v0.11h0.349v0.155h-0.349v0.905h-0.223v-0.905h-0.21
	v-0.155h0.21v-0.124c0.002-0.132,0.042-0.228,0.119-0.288c0.079-0.062,0.189-0.091,0.33-0.09c0.08-0.001,0.158,0.005,0.237,0.02
	V121.575L193.353,121.575z M194.398,122.422c0.002,0.104-0.016,0.197-0.05,0.281c-0.034,0.083-0.09,0.149-0.167,0.198
	c-0.076,0.05-0.175,0.075-0.301,0.075c-0.125,0-0.226-0.025-0.302-0.074c-0.074-0.05-0.132-0.115-0.166-0.198
	c-0.034-0.084-0.052-0.178-0.05-0.282c-0.002-0.104,0.016-0.199,0.05-0.282c0.034-0.084,0.091-0.149,0.166-0.197
	c0.076-0.049,0.178-0.074,0.302-0.075c0.126,0.001,0.226,0.026,0.301,0.075c0.077,0.049,0.132,0.115,0.167,0.198
	C194.382,122.224,194.4,122.318,194.398,122.422z M194.152,122.422c0.001-0.058-0.004-0.116-0.017-0.178
	c-0.012-0.061-0.037-0.112-0.077-0.155c-0.039-0.042-0.099-0.064-0.178-0.065c-0.08,0.001-0.14,0.023-0.179,0.065
	c-0.039,0.041-0.064,0.093-0.076,0.153c-0.013,0.062-0.018,0.121-0.018,0.18c0,0.058,0.006,0.118,0.018,0.179
	c0.012,0.061,0.038,0.113,0.076,0.155c0.04,0.041,0.099,0.063,0.179,0.065c0.079-0.002,0.138-0.024,0.176-0.066
	c0.04-0.043,0.064-0.095,0.078-0.154C194.148,122.539,194.154,122.479,194.152,122.422z M195.262,122.086
	c-0.094,0.001-0.168,0.02-0.222,0.057c-0.053,0.037-0.09,0.087-0.113,0.149s-0.033,0.134-0.033,0.21v0.45h-0.222v-1.061h0.222v0.215
	c0.033-0.074,0.079-0.134,0.143-0.175c0.062-0.042,0.138-0.063,0.225-0.063V122.086z M197.041,122.344h-0.68
	c0,0.081,0.016,0.156,0.048,0.229c0.03,0.073,0.078,0.132,0.142,0.178c0.064,0.046,0.144,0.069,0.242,0.071
	c0.078,0,0.151-0.014,0.222-0.037v0.157c-0.097,0.022-0.193,0.034-0.292,0.036c-0.138-0.001-0.25-0.028-0.335-0.08
	c-0.086-0.051-0.147-0.123-0.188-0.214s-0.058-0.194-0.058-0.312c0-0.097,0.016-0.183,0.05-0.259
	c0.032-0.075,0.083-0.135,0.154-0.179c0.071-0.043,0.162-0.065,0.274-0.065c0.144,0.001,0.25,0.042,0.319,0.12
	s0.105,0.18,0.104,0.305V122.344L197.041,122.344z M196.82,122.211c-0.002-0.059-0.021-0.104-0.061-0.137
	c-0.04-0.033-0.091-0.05-0.154-0.051c-0.048,0-0.092,0.011-0.129,0.031c-0.039,0.021-0.067,0.051-0.087,0.091
	c-0.011,0.021-0.017,0.042-0.017,0.065H196.82z M198.219,121.892l-0.406,1.061h-0.226l-0.444-1.061h0.247l0.305,0.771l0.278-0.771
	H198.219L198.219,121.892z M199.227,122.344h-0.681c0,0.081,0.017,0.156,0.046,0.229c0.033,0.073,0.079,0.132,0.143,0.178
	c0.063,0.046,0.144,0.069,0.242,0.071c0.077,0,0.15-0.014,0.221-0.037v0.157c-0.095,0.022-0.193,0.034-0.292,0.036
	c-0.138-0.001-0.251-0.028-0.336-0.08c-0.085-0.051-0.148-0.123-0.187-0.214c-0.04-0.091-0.06-0.194-0.06-0.312
	c0-0.097,0.017-0.183,0.05-0.259c0.034-0.075,0.084-0.135,0.157-0.179c0.069-0.043,0.162-0.065,0.271-0.065
	c0.145,0.001,0.251,0.042,0.32,0.12c0.071,0.078,0.105,0.18,0.105,0.305V122.344z M199.005,122.211
	c-0.001-0.059-0.022-0.104-0.062-0.137c-0.039-0.033-0.09-0.05-0.153-0.051c-0.049,0-0.091,0.011-0.129,0.031
	c-0.038,0.021-0.066,0.051-0.087,0.091c-0.009,0.021-0.016,0.042-0.016,0.065H199.005z M200.085,122.086
	c-0.093,0.001-0.167,0.02-0.22,0.057c-0.054,0.037-0.092,0.087-0.114,0.149c-0.022,0.062-0.033,0.134-0.032,0.21v0.45h-0.222v-1.061
	h0.222v0.215c0.032-0.074,0.078-0.134,0.141-0.175c0.063-0.042,0.139-0.063,0.225-0.063V122.086z M201.225,121.892l-0.584,1.519
	h-0.216l0.165-0.45l-0.444-1.068h0.245l0.309,0.767l0.28-0.767H201.225L201.225,121.892z M202.365,122.422
	c0.001,0.104-0.017,0.197-0.051,0.281c-0.034,0.083-0.089,0.149-0.167,0.198c-0.074,0.05-0.175,0.075-0.299,0.075
	c-0.126,0-0.228-0.025-0.303-0.074c-0.076-0.05-0.134-0.115-0.167-0.198c-0.035-0.084-0.052-0.178-0.051-0.282
	c-0.001-0.104,0.016-0.199,0.051-0.282c0.033-0.084,0.091-0.149,0.167-0.197c0.075-0.049,0.177-0.074,0.303-0.075
	c0.125,0.001,0.225,0.026,0.301,0.075s0.13,0.115,0.165,0.198S202.366,122.318,202.365,122.422z M202.118,122.422
	c0.001-0.058-0.004-0.116-0.017-0.178c-0.012-0.061-0.038-0.112-0.078-0.155c-0.038-0.042-0.096-0.064-0.175-0.065
	c-0.081,0.001-0.141,0.023-0.18,0.065c-0.04,0.041-0.065,0.093-0.078,0.153c-0.013,0.062-0.018,0.121-0.017,0.18
	c-0.002,0.058,0.004,0.118,0.017,0.179c0.012,0.061,0.038,0.113,0.078,0.155c0.04,0.041,0.099,0.063,0.18,0.065
	c0.079-0.002,0.137-0.024,0.175-0.066c0.038-0.043,0.063-0.095,0.078-0.154C202.114,122.539,202.119,122.479,202.118,122.422z
	 M203.554,122.952h-0.222v-0.578c0-0.044,0-0.088-0.003-0.132c-0.001-0.052-0.014-0.094-0.032-0.125
	c-0.022-0.032-0.063-0.048-0.124-0.05c-0.072,0.003-0.132,0.028-0.177,0.078c-0.046,0.05-0.08,0.108-0.101,0.175
	c-0.023,0.066-0.034,0.128-0.034,0.182v0.45h-0.22v-1.061h0.22v0.228c0.039-0.077,0.086-0.138,0.146-0.183
	c0.061-0.046,0.139-0.068,0.231-0.069c0.077,0.001,0.139,0.018,0.185,0.05c0.048,0.032,0.081,0.074,0.101,0.127
	c0.021,0.054,0.03,0.11,0.03,0.173V122.952L203.554,122.952z"/>
<path fill="#FFFFFF" d="M178.868,114.244l-1.101,0.349c-0.022-0.218-0.09-0.38-0.205-0.486c-0.115-0.106-0.266-0.159-0.451-0.159
	c-0.143,0.003-0.271,0.043-0.385,0.122c-0.113,0.079-0.189,0.181-0.227,0.306c-0.035,0.144,0.012,0.268,0.141,0.37
	c0.129,0.104,0.297,0.204,0.503,0.301c0.207,0.097,0.41,0.208,0.608,0.332c0.199,0.124,0.351,0.278,0.456,0.463
	c0.106,0.185,0.123,0.417,0.049,0.697c-0.144,0.473-0.408,0.83-0.796,1.073c-0.387,0.243-0.84,0.365-1.356,0.366
	c-0.245,0.005-0.472-0.023-0.681-0.087c-0.209-0.063-0.393-0.191-0.548-0.388c-0.157-0.194-0.277-0.487-0.363-0.878l1.166-0.271
	c-0.01,0.226,0.041,0.403,0.152,0.534c0.111,0.13,0.287,0.196,0.527,0.199c0.185-0.001,0.34-0.038,0.463-0.111
	c0.123-0.073,0.205-0.176,0.244-0.308c0.044-0.177,0.002-0.321-0.125-0.433c-0.126-0.111-0.293-0.213-0.501-0.304
	c-0.207-0.092-0.412-0.197-0.612-0.316c-0.199-0.119-0.352-0.275-0.455-0.47c-0.103-0.192-0.114-0.447-0.03-0.763
	c0.089-0.299,0.239-0.547,0.45-0.743c0.21-0.196,0.455-0.342,0.731-0.439c0.277-0.096,0.562-0.144,0.852-0.144
	c0.452,0.005,0.803,0.112,1.052,0.324C178.673,113.594,178.822,113.882,178.868,114.244 M180.922,114.259l-0.736,2.601
	c0.165,0.23,0.375,0.344,0.634,0.34c0.166,0.012,0.327-0.06,0.483-0.215c0.157-0.153,0.301-0.46,0.436-0.92l0.288-1.012
	c0.126-0.46,0.153-0.767,0.085-0.921c-0.069-0.153-0.19-0.225-0.362-0.213C181.494,113.914,181.218,114.027,180.922,114.259z
	 M180.011,113.187h1.118l-0.163,0.575c0.177-0.157,0.394-0.306,0.668-0.442c0.275-0.139,0.552-0.212,0.831-0.221
	c0.468,0.002,0.762,0.164,0.881,0.484c0.12,0.321,0.092,0.787-0.086,1.399l-0.325,1.152c-0.17,0.612-0.407,1.079-0.708,1.399
	c-0.303,0.321-0.687,0.482-1.156,0.485c-0.158,0.001-0.319-0.037-0.48-0.118c-0.162-0.081-0.358-0.216-0.587-0.406l-0.75,2.64
	h-1.214L180.011,113.187z M190.55,114.821h-1.204l0.058-0.21c0.049-0.184,0.022-0.322-0.079-0.416
	c-0.102-0.095-0.26-0.143-0.476-0.143c-0.214,0-0.401,0.048-0.554,0.143c-0.157,0.094-0.26,0.232-0.316,0.416l-0.533,1.884
	c-0.05,0.184-0.024,0.322,0.08,0.417c0.1,0.095,0.258,0.142,0.474,0.143c0.215-0.001,0.4-0.048,0.555-0.143
	c0.155-0.095,0.26-0.233,0.316-0.417l0.084-0.297h1.213c-0.187,0.643-0.486,1.1-0.902,1.388c-0.417,0.289-0.93,0.431-1.54,0.428
	c-0.612,0.003-1.044-0.139-1.297-0.428c-0.254-0.288-0.293-0.745-0.119-1.37l0.374-1.325c0.181-0.624,0.481-1.081,0.897-1.37
	c0.416-0.289,0.928-0.431,1.539-0.428c0.598-0.003,1.026,0.135,1.281,0.413C190.656,113.783,190.705,114.222,190.55,114.821z
	 M194.879,115.82h-2.64l-0.18,0.629c-0.062,0.233-0.041,0.406,0.06,0.517c0.099,0.11,0.255,0.165,0.461,0.163
	c0.254-0.005,0.455-0.069,0.604-0.194c0.147-0.124,0.247-0.28,0.298-0.468h1.212c-0.167,0.492-0.452,0.872-0.849,1.143
	c-0.399,0.269-0.904,0.406-1.518,0.41c-0.585-0.006-1.007-0.156-1.27-0.453c-0.262-0.296-0.323-0.706-0.18-1.231l0.439-1.553
	c0.156-0.524,0.45-0.934,0.878-1.231c0.429-0.296,0.938-0.446,1.526-0.452c0.571,0.008,0.992,0.155,1.26,0.444
	c0.27,0.288,0.337,0.679,0.21,1.17L194.879,115.82z M192.489,114.931h1.427l0.074-0.262c0.061-0.212,0.052-0.377-0.03-0.497
	c-0.083-0.12-0.246-0.182-0.49-0.183c-0.246,0.001-0.441,0.062-0.593,0.183c-0.149,0.12-0.254,0.285-0.312,0.497L192.489,114.931z
	 M202.137,115.82h-2.64l-0.179,0.629c-0.062,0.233-0.042,0.406,0.057,0.517c0.101,0.11,0.257,0.165,0.463,0.163
	c0.254-0.005,0.457-0.069,0.604-0.194c0.146-0.124,0.247-0.28,0.296-0.468h1.215c-0.169,0.492-0.453,0.872-0.85,1.143
	c-0.399,0.269-0.906,0.406-1.519,0.41c-0.584-0.006-1.006-0.156-1.269-0.453c-0.261-0.296-0.321-0.706-0.181-1.231l0.44-1.553
	c0.156-0.524,0.45-0.934,0.88-1.231c0.429-0.296,0.938-0.446,1.525-0.452c0.571,0.008,0.992,0.155,1.261,0.444
	c0.269,0.288,0.338,0.679,0.209,1.17L202.137,115.82z M199.75,114.931h1.426l0.075-0.262c0.06-0.212,0.05-0.377-0.033-0.497
	c-0.081-0.12-0.244-0.182-0.489-0.183c-0.245,0.001-0.443,0.062-0.593,0.183c-0.148,0.12-0.254,0.285-0.313,0.497L199.75,114.931z
	 M203.515,114.285h-0.633l0.251-0.89h0.634l0.461-1.646h1.213l-0.461,1.646h0.782l-0.253,0.89h-0.78l-0.688,2.425
	c-0.031,0.118-0.006,0.206,0.078,0.264c0.082,0.057,0.207,0.086,0.372,0.085c0.084,0.002,0.168-0.001,0.244-0.008l-0.262,0.925
	c-0.241,0.032-0.477,0.047-0.707,0.044c-0.402,0.003-0.699-0.069-0.891-0.217c-0.192-0.147-0.243-0.389-0.153-0.726L203.515,114.285
	z M195.898,116.478l0.866-3.046l0.475-1.679h1.214l-0.476,1.679l-1.467,5.049c-0.184,0.62-0.481,1.074-0.896,1.361
	c-0.416,0.288-0.929,0.432-1.54,0.427c-0.611,0.005-1.045-0.139-1.298-0.427c-0.252-0.289-0.292-0.745-0.119-1.37l1.225-0.003
	l-0.091,0.283c-0.048,0.184-0.021,0.322,0.08,0.416c0.101,0.094,0.26,0.141,0.476,0.142c0.215-0.001,0.4-0.048,0.556-0.142
	c0.155-0.094,0.26-0.232,0.315-0.416l0.11-0.385L195.898,116.478z M184.796,113.187h1.215l-1.345,4.745h-1.213L184.796,113.187z
	 M186.146,112.743h-1.214l0.276-0.994h1.214L186.146,112.743z"/>
<g>
	<g>
		<defs>
			<path id="SVGID_1_" d="M171.084,115.731c0.055-0.276,0.359-0.582,0.677-0.682c0.315-0.1,0.518,0.043,0.458,0.314
				c-0.059,0.271-0.356,0.568-0.666,0.67C171.241,116.138,171.029,116.003,171.084,115.731 M163.508,108.865
				c0.367-0.993,1.524-1.756,2.543-1.688c0.984,0.065,1.449,0.884,1.074,1.813c-0.369,0.915-1.429,1.642-2.406,1.637
				C163.708,110.624,163.148,109.841,163.508,108.865 M166.519,110.545c0.291-0.721,1.129-1.295,1.851-1.272
				c0.703,0.021,1.019,0.601,0.725,1.289c-0.291,0.677-1.076,1.23-1.776,1.242C166.6,111.815,166.232,111.257,166.519,110.545
				 M169.043,111.987c0.229-0.528,0.842-0.962,1.358-0.964c0.506,0,0.722,0.415,0.491,0.925c-0.227,0.504-0.811,0.925-1.316,0.944
				C169.06,112.913,168.817,112.51,169.043,111.987 M170.822,113.004c0.18-0.396,0.639-0.729,1.019-0.738
				c0.374-0.011,0.527,0.294,0.347,0.681c-0.179,0.382-0.623,0.706-0.996,0.727C170.812,113.695,170.643,113.396,170.822,113.004
				 M172.113,113.741c0.141-0.301,0.491-0.558,0.776-0.571c0.282-0.013,0.394,0.217,0.251,0.512
				c-0.141,0.294-0.48,0.546-0.762,0.565C172.093,114.267,171.973,114.04,172.113,113.741 M158.23,120.244
				c-0.316-0.623,0.314-1.591,1.394-2.134c1.059-0.532,2.106-0.431,2.353,0.2c0.237,0.612-0.365,1.512-1.356,2.035
				C159.61,120.882,158.535,120.848,158.23,120.244 M162.4,119.334c-0.185-0.478,0.3-1.204,1.078-1.607
				c0.766-0.397,1.501-0.315,1.65,0.165c0.145,0.471-0.323,1.158-1.054,1.551C163.334,119.842,162.581,119.799,162.4,119.334
				 M166.032,118.561c-0.106-0.365,0.268-0.914,0.834-1.214c0.559-0.298,1.079-0.233,1.165,0.136
				c0.084,0.361-0.281,0.888-0.82,1.183C166.665,118.964,166.136,118.922,166.032,118.561 M168.654,118.003
				c-0.062-0.283,0.229-0.702,0.65-0.931c0.418-0.227,0.795-0.175,0.847,0.11c0.051,0.28-0.234,0.688-0.641,0.911
				C169.101,118.322,168.717,118.284,168.654,118.003 M170.596,117.592c-0.038-0.223,0.19-0.546,0.509-0.723
				c0.317-0.173,0.598-0.134,0.629,0.088c0.032,0.221-0.192,0.537-0.503,0.71C170.918,117.843,170.634,117.81,170.596,117.592
				 M159.917,114.681c0.022-0.871,0.985-1.82,2.119-2.094c1.101-0.265,1.91,0.221,1.839,1.059c-0.07,0.816-0.958,1.698-2.012,1.995
				C160.779,115.944,159.895,115.527,159.917,114.681 M163.779,115.024c0.055-0.64,0.764-1.344,1.566-1.556
				c0.784-0.209,1.342,0.141,1.262,0.764c-0.078,0.611-0.747,1.276-1.506,1.501C164.324,115.963,163.725,115.651,163.779,115.024
				 M167.058,115.342c0.065-0.476,0.59-1.001,1.166-1.165c0.564-0.161,0.952,0.092,0.873,0.558c-0.077,0.458-0.58,0.963-1.131,1.133
				C167.403,116.041,166.993,115.81,167.058,115.342 M169.384,115.567c0.062-0.359,0.461-0.758,0.883-0.886
				c0.417-0.126,0.695,0.061,0.625,0.416c-0.068,0.349-0.454,0.735-0.863,0.866C169.613,116.097,169.323,115.921,169.384,115.567"/>
		</defs>
		<clipPath id="SVGID_2_">
			<use xlink:href="#SVGID_1_"  overflow="visible"/>
		</clipPath>
		
			<linearGradient id="SVGID_3_" gradientUnits="userSpaceOnUse" x1="517.9883" y1="-256.5781" x2="506.8869" y2="-252.0929" gradientTransform="matrix(1 0 0 -1 -346 -140)">
			<stop  offset="0" style="stop-color:#FFDD00"/>
			<stop  offset="1" style="stop-color:#F58220"/>
		</linearGradient>
		<polygon clip-path="url(#SVGID_2_)" fill="url(#SVGID_3_)" points="178.066,109.042 160.07,101.771 153.13,118.949 
			171.126,126.22 		"/>
	</g>
</g>
</svg>
