<?xml version="1.0" encoding="utf-8"?>
<!-- Generator: Adobe Illustrator 16.2.1, SVG Export Plug-In . SVG Version: 6.00 Build 0)  -->
<!DOCTYPE svg PUBLIC "-//W3C//DTD SVG 1.1//EN" "http://www.w3.org/Graphics/SVG/1.1/DTD/svg11.dtd">
<svg version="1.1" id="Layer_1" xmlns="http://www.w3.org/2000/svg" xmlns:xlink="http://www.w3.org/1999/xlink" x="0px" y="0px"
	 width="50px" height="50px" viewBox="-14.601 65.832 50 50" enable-background="new -14.601 65.832 50 50" xml:space="preserve">
<metadata><?xpacket begin="﻿" id="W5M0MpCehiHzreSzNTczkc9d"?>
<x:xmpmeta xmlns:x="adobe:ns:meta/" x:xmptk="Adobe XMP Core 5.3-c011 66.145661, 2012/02/06-14:56:27        ">
   <rdf:RDF xmlns:rdf="http://www.w3.org/1999/02/22-rdf-syntax-ns#">
      <rdf:Description rdf:about=""
            xmlns:dc="http://purl.org/dc/elements/1.1/">
         <dc:format>image/svg+xml</dc:format>
      </rdf:Description>
      <rdf:Description rdf:about=""
            xmlns:xmp="http://ns.adobe.com/xap/1.0/"
            xmlns:xmpGImg="http://ns.adobe.com/xap/1.0/g/img/">
         <xmp:CreatorTool>Adobe Illustrator CS6 (Macintosh)</xmp:CreatorTool>
         <xmp:CreateDate>2014-03-31T15:58:23+02:00</xmp:CreateDate>
         <xmp:ModifyDate>2014-03-31T15:58:23+02:00</xmp:ModifyDate>
         <xmp:MetadataDate>2014-03-31T15:58:23+02:00</xmp:MetadataDate>
         <xmp:Thumbnails>
            <rdf:Alt>
               <rdf:li rdf:parseType="Resource">
                  <xmpGImg:width>176</xmpGImg:width>
                  <xmpGImg:height>256</xmpGImg:height>
                  <xmpGImg:format>JPEG</xmpGImg:format>
                  <xmpGImg:image>/9j/4AAQSkZJRgABAgEAeAB4AAD/7QAsUGhvdG9zaG9wIDMuMAA4QklNA+0AAAAAABAAeAAAAAEA&#xA;AQB4AAAAAQAB/+4ADkFkb2JlAGTAAAAAAf/bAIQABgQEBAUEBgUFBgkGBQYJCwgGBggLDAoKCwoK&#xA;DBAMDAwMDAwQDA4PEA8ODBMTFBQTExwbGxscHx8fHx8fHx8fHwEHBwcNDA0YEBAYGhURFRofHx8f&#xA;Hx8fHx8fHx8fHx8fHx8fHx8fHx8fHx8fHx8fHx8fHx8fHx8fHx8fHx8fHx8f/8AAEQgBAACwAwER&#xA;AAIRAQMRAf/EAaIAAAAHAQEBAQEAAAAAAAAAAAQFAwIGAQAHCAkKCwEAAgIDAQEBAQEAAAAAAAAA&#xA;AQACAwQFBgcICQoLEAACAQMDAgQCBgcDBAIGAnMBAgMRBAAFIRIxQVEGE2EicYEUMpGhBxWxQiPB&#xA;UtHhMxZi8CRygvElQzRTkqKyY3PCNUQnk6OzNhdUZHTD0uIIJoMJChgZhJRFRqS0VtNVKBry4/PE&#xA;1OT0ZXWFlaW1xdXl9WZ2hpamtsbW5vY3R1dnd4eXp7fH1+f3OEhYaHiImKi4yNjo+Ck5SVlpeYmZ&#xA;qbnJ2en5KjpKWmp6ipqqusra6voRAAICAQIDBQUEBQYECAMDbQEAAhEDBCESMUEFURNhIgZxgZEy&#xA;obHwFMHR4SNCFVJicvEzJDRDghaSUyWiY7LCB3PSNeJEgxdUkwgJChgZJjZFGidkdFU38qOzwygp&#xA;0+PzhJSktMTU5PRldYWVpbXF1eX1RlZmdoaWprbG1ub2R1dnd4eXp7fH1+f3OEhYaHiImKi4yNjo&#xA;+DlJWWl5iZmpucnZ6fkqOkpaanqKmqq6ytrq+v/aAAwDAQACEQMRAD8A5PnTumdirsVdirsVdirs&#xA;VdirsVdirsVdirsVdirsVdirsVdirsVdirsVZz+SX/k09A/4yyf8mJMxtX/dluwfWGDZktLsVdir&#xA;sVdirsVdirsVdirsVdirsVdirsVdirsVdirsVdirsVdirOfyS/8AJp6B/wAZZP8AkxJmNq/7st2D&#xA;6wwbMlpdirsVdirsVdirsVdirsVdirsVdirsVdirsVdirsVdirsVdirsVZz+SX/k09A/4yyf8mJM&#xA;xtX/AHZbsH1hg2ZLS7FXYq7FXYq7FXYq7FXYqn2jeRPOGsqr6dpU8sL7rOyiKIj2kkKIfoOa3Vdr&#xA;6XBtkyRB7uZ+QsuRj0uSf0xLKbX8hfPEycpJLK2NPsSzOT/yTjkH45p8ntfo4nYTl7gP0kOXHsrK&#xA;e4IqX/nHzzYAPSv7Bz3DNMv6omyqPtnpusJ/7H/imR7Iyd8ft/Uk2pfkz5/slLrYpdoNybaVGP8A&#xA;wLFHP0DM7B7UaLJtxGP9YH9oaZ9m5o9L9zD77Tr+wnNvfW0trOvWKZGjb7mAObzDnhkjxQkJDyNu&#xA;FKBiaIpD5axdirsVdirsVdirsVZz+SX/AJNPQP8AjLJ/yYkzG1f92W7B9YYNmS0uxV2KuxV2KuxV&#xA;2Kso8l/l7r/mu4/0NPQsI24z38oPpqe6r/O1Ow+mmajtTtrDo4+o3M8ojn+wfgOXptJPKduXe928&#xA;qflT5S8vKkq24v78dby6Acg/8Vp9hPoFffPOu0faHU6na+CH82P6TzP3eTvsGgx4+lnvLMc0Tmux&#xA;V2KuxVCanpGl6pbG11G1iu4D/uuZA4HuK9D7jL8GpyYZcWORifJhPHGYqQt5J51/IhAkl75Wc8hV&#xA;m0yZq19opG/U/wDwWdr2V7XGxDUj/OH6R+r5On1PZXXH8njd1a3NpcSW1zE0NxExWWKQFWVh1BBz&#xA;useSM4iUTcT1dNKJBo81LJsXYq7FXYq7FWc/kl/5NPQP+Msn/JiTMbV/3ZbsH1hg2ZLS7FXYq7FX&#xA;Yq7FWeflj+Wlx5pu/rl7yh0O3akrjZpmG/pxn/iTdvnnOdvdux0ceCG+aXLy8z+gOw0OiOU2fpD6&#xA;NsrK0sbWK0s4Ut7aFeMUMYCqo9gM8ty5ZZJGUjcj1L0kYiIoclbK2SHvNR0+yXneXUVsn80zrGPv&#xA;YjLceGeQ1CJl7hbGUxHmaSS6/MfyJbEiTXLRqf76kEv/ACb55sMfYmslyxT+Ir72iWsxD+IJFr/5&#xA;seWnsjHoOuW66pUGFZ7W6mjfqOBMafDXx3+WbHR+zuoE7zYpeH1qUAR57ndx8uvhXokOL3FhHl/8&#xA;zfzQGpRaMbOK5v8AUpudp9eilQIj1J48WjPpKATXegzf6zsHs7wzl4jGGMb8JB3+31FwcWtz8XDV&#xA;mXf+OT2/T11BbOIag8Ul5T981ujRxcvBVdpGoPc/dnn+YwMjwAiPSzZ+wB3sLr1c0RlTJhf5i/lr&#xA;p3muzaeELb63Ev8Ao910DgdI5adV8D1H4Zv+xO3J6OVH1YjzHd5j8buDrNFHKLG0nzXfWN3YXk1n&#xA;eRNBdQMUmicUKsOoz1bFljkiJwNxPIvMyiYmjzUMsYuxV2KuxVnP5Jf+TT0D/jLJ/wAmJMxtX/dl&#xA;uwfWGDZktLsVdirsVdiqc+UvLV35k1+10m2qvrNWaWlRHEu7ufkOnidswO0tdHS4ZZZdOQ7z0Dfp&#xA;8JyzEQ+kLzzB5L8kaVBp893FaQ20YSG0X45iOtfTSrVY7liKVzyvFo9Xr8hnGJkZHc8h8zt8HpZZ&#xA;cWCIBNU8817/AJyEfk0eg6aAu9Li9NSflFGdv+Dzp9H7Gdc0/hH9Z/U67L2v/MHzYafOf5nea7v6&#xA;paXl3PI3/HvYj0VC/wCV6QX4fdjm9/kvs/Rx4pRgB3y3+/8AQ4X5nPlNAn4Ml0X8hPMF64uNfv0s&#xA;+Zq8Uf8ApEx9maoQH3BbNVqvbDDjHDghxf7Efr+5ycXZU5bzNfazzSPyW8h6eA0trJfyj9u6kLCv&#xA;+onBPvGc5qfajWZeUhAf0R+k2XYY+zcMel+9l+n6PpOnJw0+ygtF6UgjSP8A4iBmkzanLlNzlKXv&#xA;JLmQxxj9IAV5La2kmimkiR5oCxhkZQWQsOLcSdxUbGmVicgCAdjz82RiCbVMgl2KuxV5V+eHkZb7&#xA;Tj5lsY/9NslpfKo3kgH7Zp3j/wCI/LOy9lO1jjyfl5n0T+nyl3fH7/e6ntPS8UeMcxz9zwXPR3n3&#xA;Yq7FXYqzn8kv/Jp6B/xlk/5MSZjav+7Ldg+sMGzJaXYq7FXYq7FXonlnWf8ABXkqXWYADr3mB3g0&#xA;5mAYQ21uaPLQ+MhoAdjQeBzl9fpfz+rGI/3OEAy85S5D5feXZYMngYuIfXPl7gwC5ubi6uJLm5la&#xA;a4lYvLK5LMzHqSTnS48cYREYiojo6+UiTZR/ljQZ9f1+y0iBuD3cnEv14ooLO1O/FFJzG1+rGmwy&#xA;yn+Ef2fa2YMRyTER1fVWgeXtJ0HTo9P0y3WCBAORAHN27vI3VmPjnjms1uXUZDPIbJ+zyHcHq8WG&#xA;OONRCY5itrsVdirsVdirsVdiq2WKOWJ4pVDxSKVdGFQVYUII98lGRibHMIIt8m+c/L7eX/M+oaUa&#xA;+nBITAx7xOOcZr/qsK++ez9l6z8zp4ZepG/vGx+15HU4fDyGKSZsGh2KuxVnP5Jf+TT0D/jLJ/yY&#xA;kzG1f92W7B9YYNmS0uxV2KuxV2BXp/5xeU7vSbHy7NGhNla2MdhKRuqzx1ck+8nIn6M5L2Z7Rjmn&#xA;mB+uUzP4Hb7P0u17R05gIHoBTzDOudUnHlDzA3l7zJYawEMgtZCZIxSrRupSQCvfgxpmD2lo/wAz&#xA;p54rriH28x9rfp8vhzEu59U6Jrml63p0WoaZcLcW0o2ZTuppUq46qw7g547qtJkwTMMg4ZD8beT1&#xA;eLLGcbibCOzGbHYq7FXYq7FXYq7FXYq8L/5yG0tYtX0vU1FPrUDwSEeMDBgT70l/DPRPYvUXinj/&#xA;AJsgfn/Y6HteFSjLvDyTO1dO7FXYqzn8kv8Ayaegf8ZZP+TEmY2r/uy3YPrDBsyWl2KuxV2Ko/QY&#xA;BPrunQN9mW6hQ18GkUZjayfDhme6MvubMQuYHmH1xqGnWOo2ctlfQJcWk68ZYZBVSOv+1nimHNPF&#xA;MTgeGQ6vYTgJCjuHinnL8iL63aS78syfWrf7R0+VgJl9kc0Vx7Gh+ed92X7XQlUdQOE/zhy+I6fd&#xA;7nR6nsojfHv5PKbyzu7K4e2vIHt7iM0khlUo6n3VqHOyxZY5IiUSJRPUOplExNHYozQvMeuaDdfW&#xA;tJvJLSU05hDVHA6B0NVYfMZRq9Dh1EeHLESH45HmGeLNPGbiaenaJ/zkLexqsetaYk5GxuLVzGfm&#xA;Y35An/ZDOS1XsZA74p15S3+0fqLtMXa5/iHyZ1ov5w+RNU4qb42Ezf7qvF9KnzkHKL/hs53VezOs&#xA;w/w8Y/o7/Zz+xz8faOGXWvezKC4guIlmgkWaJxVJI2DKR7EbZopwMTUhRc0EHcL8il2KuxV2KuxV&#xA;5X/zkLBXy1ps9PsXnDl4c4nNPp4Z2PsZL/CJj+h+kfrdT2uPQD5vBM9IefdirsVZz+SX/k09A/4y&#xA;yf8AJiTMbV/3ZbsH1hg2ZLS7FXYq7FUbolwLbWrC5NAIbmGQk9PgkB3+7MfVw48U498SPsbMRqQP&#xA;m+ws8OeydiqV675Y0DXoPQ1ayjulAorsKSL/AKki0dfoOZmk1+bTyvFIx+74jk1ZcEMgqQt5Z5j/&#xA;AOcfalpvL1/TuLS8/wCNZUH3Ar9OdhovbLpnh8Y/qP6/g6nN2T1gfm8113yN5s0LkdS02aKFetwo&#xA;9SGn/GROSj6TnV6TtbTaj+7mCe7kfkd3WZdLkx/UEhzZOOmGk6/rejy+rpd9NZvWrek5VW/1l+y3&#xA;0jMXU6PDnFZIiXvDZjyzh9Jp6H5f/P3zDacYtZtYtSiHWZP3E3/Cgxn/AIEZzGs9jsE98UjA93Mf&#xA;r+0uyxdrTH1DiemeXvzY8la3xjS9FldN/wAe95SI19nJMZ+hq5yet9ndXp9zHij3x3+zn9js8Ovx&#xA;T60fNmAIIqNwehzSOa7ArsVeU/8AOQ06r5e0u35HlJdmQLXYiOJgTT2552XsXD9/OXdD7yP1Op7X&#xA;PoA83g2ejvPuxV2Ks5/JL/yaegf8ZZP+TEmY2r/uy3YPrDBsyWl2KuxV2KuxV9deVNWXV/LWmakr&#xA;czc28bSHr+840kH0OCM8T7Q0/g6ieP8AmyPy6fY9hgyccBLvCa5hNzsVdirsVY9rH5feTNXq19pM&#xA;DSN1miX0ZCT3LxFGP05s9N2zq8H0ZJV3HcfI242TSYp84hgHmL/nH2zkVpfL9+0Mm5Frd/Gh9hIg&#xA;5L9KtnS6L2ymNs8LHfHn8v2h1+bskfwH5vJPMHlnW/L96bPVrV7aU7ox3RwP2kcVVh8s7XR6/DqY&#xA;cWKXEPtHvDp8uGeM1IUleZjUyHy55981+XnX9HX7i3XraSn1ICPDg32fmtDms13Y+m1I/eRHF3jY&#xA;/P8AW5OHV5Mf0nbue+fl5+ZOn+brZ4jH9V1a3UNcWtaqy1p6kR6la9fD8T5t212HPRSBvixy5H9B&#xA;8/veg0etjmHdIMyzROa8H/5yD1ZZ9e07S0aosoGlkp2e4YbH/Yxqfpz0b2M03DhnkP8AHKvhH9pd&#xA;B2vkuYj3D73lGdm6h2KuxVnP5Jf+TT0D/jLJ/wAmJMxtX/dluwfWGDZktLsVdirsVdir3T8gPMyz&#xA;6bd+Xpn/AH1oxubQHvDIf3gH+q+/+yzzv2x0HDkjnHKWx945fMfc77snPcTA9N3recU7h2KuxV2K&#xA;uxV2Kse8/aPpGqeU9Rj1NV9GCCSeOZusUkaEq6nxH49M2fY+py4dTA4+ZkBXeCeTjavHGWM8Xc+U&#xA;c9meSdirN/yZW8b8wtONvXiqzG48PS9Jga/7KlPemc/7UGP5GfF/Rr32HP7NvxhXm+k7q6t7S1mu&#xA;rhxHbwI0s0h6KiDkxPyAzynHjlOQjEWSaD00pACy+SvNOuy695hv9WkqPrUpaNT1WMfDGv8AsUAG&#xA;e09n6QafBDEP4R9vX7XkM+XxJmXelWZrS7FXYqzn8kv/ACaegf8AGWT/AJMSZjav+7Ldg+sMGzJa&#xA;XYq7FXYq7FUy8ua9e6DrVrq1mf31s/LiejqdnQ+zKSMxNdo4anFLFPlL7O4/Btw5TjkJDo+rPL+v&#xA;afr2kW+qWD87e4WtD9pGGzIw7Mp2OeN6zST0+U45j1R/FvW4csckRIcimOYrY7FXYqgNQ8waFptf&#xA;0hqNtaEdRNKiH7mIOZOHR5sv0QlL3AlrnlhHmQGH61+d3kjT1ZbWWXUpxsEt0ISvu8nAU91rm80v&#xA;sprMn1AYx5n9Av7acLJ2nijy9TyTzz+aeu+ak+qFFsdLDBvqcRLFyNx6rmnOnhQD2zteyfZ/Dozx&#xA;fXk7z09w6fe6jVa6eXblHuYVm/cFUt7ee5njt7eNpp5WCRRICzMx2AVRuSchOcYgykaASASaD6O/&#xA;Kj8vD5X057y/AOtXygTKKEQx1qIgR1PQv7/Kp8t9ou2vzeTgh/dQ5eZ7/wBX7XpdBo/CjZ+osa/P&#xA;Hz4iQnytp8tZZKNqkin7K9Vhr4t9pvag7nNr7J9kEn8zMbD6P+K/U43amq28OPx/U8Sz0B0TsVdi&#xA;rsVZz+SX/k09A/4yyf8AJiTMbV/3ZbsH1hg2ZLS7FXYq7FXYq7FU/wDLHnrzN5ZSePSLr0orggyR&#xA;uqyLyH7QVgQGptms1/ZGn1ZByxsx+DkYNVkxXwnmm835y/mLJUDVBGCKEJb24+mpjJzDj7MaEfwX&#xA;/nS/W3HtHMf4vsCX3H5l+fZ689buRX/fbCP/AIgFzIh2Foo8sUfjv97WdbmP8RSm78w+YLwEXmp3&#xA;dyD1E08j1/4Jj4Zm49Fgh9MIR90QGqWacuZJ+KX5lNTsVdirI/KfkHzJ5nmA062K2oNJb6WqQr4/&#xA;F+0fZanNV2j2xp9IPWfV/NHP9nxcnT6SeU+kbd73zyN+WWheVIxMg+uaqy0lvpBQivURLvwH4++e&#xA;b9rdvZtYaPpx/wA0fp7/ALnodLooYt+cu9K/zN/NS08uwSaZpTrPrrihIoyWwP7T9i/gv0nwOZ2D&#xA;7PS1RGTIKw/7r3eXn8vKnW68Yxwx+v7nzxPPNPNJPM7STSsXkkYkszMakknqSc9PhARAAFAPOEkm&#xA;yp5JDsVdirsVZz+SX/k09A/4yyf8mJMxtX/dluwfWGDZktLsVdirsVdirsVdirsVdirsVdirKvLX&#xA;5Z+cPMBR7WyMFo1P9MuaxRUPdajk/wDsQc02u7e0um2lK5fzY7n9Q+Ll4dFkycht3l655U/I7y5p&#xA;ZS41djq12KH03HG3U/8AGOp5/wCyNPbOK7Q9rM+b04v3cf8AZfPp8Pm7jB2XCG8vUfsZhrXmjyv5&#xA;btgNQvILNEUelbLT1OI6BIUq1PkKZo9L2fqNVL0RlLz6fEnZzMmfHiHqIDx/zp+emo6gkll5djaw&#xA;tWqrXj0+sMP8gCoj/E/LO47L9koYyJ5zxy/m/wAPx7/u97p9T2pKW0Nh39XlTMzsXclmYksxNSSe&#xA;pJzsQABQdS1hQ7FXYq7FXYqzn8kv/Jp6B/xlk/5MSZjav+7Ldg+sMGzJaXYq7FXYq7FXYq7FXYq7&#xA;FXYqmmg+Yr/Q7g3Nklu01QVeeCKYqR3QyKxX6Mw9ZooaiPDMyrykR865t2LMYGxXyZVL+d/5gOKL&#xA;dQRnxWCM/wDEg2aePspoh/DI/wCcXKPaebvHySbUfzJ89agpW51q4CtsVhIgBHuIRHmdg7D0eL6c&#xA;cfj6v91bTPW5Zc5H7vuY47u7l3Ys7GrMTUknuSc2oAAoOMtwodirsVdirsVdirsVZz+SX/k09A/4&#xA;yyf8mJMxtX/dluwfWGDZktLsVdirsVdirsVdirsVdirsVdirsVdirsVdirsVdirsVdirsVdirOfy&#xA;S/8AJp6B/wAZZP8AkxJmNq/7st2D6wwbMlpdirsVdirsVdirsVdirsVdirsVdirsVdirsVdirsVd&#xA;irsVdirsVZz+SX/k09A/4yyf8mJMxtX/AHZbsH1hg2ZLS7FXYq7FXYq7FX055ItbVv8AnGy5laFD&#xA;L+itYPqFQWqHuaGtK5p8pP5j4j9Dn4x+6+BfMebhwHYq7FXYq7FXYq7FXYq7FXYq7FXYq7FXYqzn&#xA;8kv/ACaegf8AGWT/AJMSZjav+7Ldg+sMGzJaXYqnXk/ynqnmvzBbaLpoHr3BJeV68I413eR6dlH3&#xA;9Mry5BCNlnCBkaD3ib8q/wAivJ0EcHmy/F1fSLyP1ieWNzvTkkFqVcL4Vr881o1GbJ9I2/He5fhY&#xA;4/UuP5N/k55x06Z/Jt+La5iH27ed7hUYj4fWhnZpKH5rg/NZcZ9YXwYSHpfPnmHQdR0DWrzR9RQJ&#xA;eWUhjlANVPdWU/yspDD2ObSExIAhw5RINF9M/llp11qf/OPS6baKGur6w1S2t1YhQZJZrhEBJ6fE&#xA;2ajUSAz2ehH6HPxC8Ve9IbX8qPyW8pWsVt511OG71eVA0qS3MkIUkV/dxQMkgXwZ+uWnU5pn0DZg&#xA;MOOP1HdV1/8AITyF5i0FtT8h3SxT8SbX07g3FrKy9UZnMjo3avLbuMENZOMqmstPGQuL5xmhlgmk&#xA;hmQxzRMUkjYUZWU0II8Qc2oLhPXvyk/I238y6UPMXmK4ktdHYt9VgiIR5VjJDyO7AhEBFOlTv074&#xA;Op1fAeGPNycODiFnkyo6P/zizHN9TaaB5lPAy/Wb8oT0r6iv6X0g0yni1PP9TZWH8WlP5j/kJo9t&#xA;5el8y+TLpp7SGL6zLaM4mR7cDkZIJV60XehrUdD2M8GsJlwzYZdOKuLwrNk4j3l/yB0jUPy90bU9&#xA;E+sv5g1S3sJW9WVTboblUadyoSoRFZj1r881n50jIQfpFuZ+XBiCOadap+TX5T+WvKt9HqU8d1rs&#xA;dnNLBPdXbQSNMsRK+nAkka050oCG+ZyEdVlnIVyvuZHDCI35sQ/JP8pfK3nTQL6/1h7pZ7a79CMW&#xA;8iovD00fcFH3q2X6vUyxyADXgwiQsp9of5M/lv5W0m2vPzG1CP8ASN2vL6i9wYYkqN1QRMsshWvx&#xA;MDx/Wap6rJM1jGzOOGMR6k3m/JT8ofNulyS+T71baePYT2tw90iuegmimd2HyqpyA1eWB9YZeBCQ&#xA;9L568zeW9U8t63daNqkYjvLVuLcd1ZSKq6HaqspqM2mPIJiw4UomJopXk2LOfyS/8mnoH/GWT/kx&#xA;JmNq/wC7Ldg+sMGzJaXYq9b/AOcaNS0+z8/XEF06xz31jJBZsxpykEkchQe7KhP0Zg6+JMNuhcnS&#xA;kCTJvzf/ACP84635pvvMWivFfxXgjJs3kEUyFI1j4qZKRstEqPiHhTKdLq4RiInZszYJE2Hm+in8&#xA;xPyx1way2jy20io8Dm8hlNq6ydi8bIrUIBFH65lz8PNGraI8WM3SR+dPOGpebtdk1rUYYILuVEjd&#xA;bVWRCIxxBo7SNWnvlmLEIRoMJzMjZfSf5TaodJ/IW21VVDtp9pqV0EPQmG4uJKfTxzU6mPFnrvI/&#xA;Q52E1jv3vlfUNQvNRvp7+9mae7uXaWeZzVmdjUk5uYxAFB15N7vd/wDnFS8uOfmKyLk24FtMqGtF&#xA;c+orEf6wAr8hmu7RHIuZpDzeTfmbHHH+YfmNEXiv6RuTQeLSEn8Tmbp/7uPucbL9R97K1/NTzZr3&#xA;kaPyHo2iF1W1htWmshNLO0cXHkSiA/3nH4vmco/LxjPjJbPFkY8ICR2X5MfmheU9Ly/cLX/fzRQf&#xA;8nXTwy06rGOrAYJno+ifIflXWfLH5TT6RrDKbxILyRokb1FjWQMwTl071NNqnNVmyCeWx5OdjgYw&#xA;ovkHN66x9eS+ZJ/Lf5EWOtW1Bc22h2It2IqBLLDFFG1D14vIDTNEMfHmI/pF2XFw478nyTeXl3e3&#xA;Ut3dzPcXM7F5ppGLOzHclmO5ObwAAUHXE2+k/wDnFr/lENW/7aB/5MR5qe0PrHuc7SfSXhH5g+Zb&#xA;vzJ5w1TVLiQusk7paqeiQRsViQD2Ub+9TmxwYxCADiZJcUiUz/J3zHdaH+YejyRSFYL24Sxu0rRW&#xA;juWEfxV7KzB/oyOqgJYynDKpB6N/zlTpEKXWg6wi0mmSa0nanVYyskf/ACcfMTs6WxDfqxyLwTNm&#xA;4bOfyS/8mnoH/GWT/kxJmNq/7st2D6wwbMlpdirI/J/kXzj5oeeXy1Zm6k09o2mdZ4YWjaTkYyPV&#xA;eM/7rO48Mpy5oQ+o82yGOUuTLNP/ADz/ADT8t3UumX9zHfSWMjQTwX6CV1eJijqZYyjsQR1LnKZa&#xA;PHMWNr7mwZ5x2L1H8vP+cgbDzVq1voGr6X9SvL3lHFLG/qwSNxJ4srAMnICn7WYefRGA4gXIx6gS&#xA;NEPMv+chPJuj+XPNttNpMK2trqcBne1QURJVcq5QDZVYUNPGuZeiymcd+jj6iAjLZ6d5G/8AWZ7n&#xA;/tlax/ycucw83+MfGP6HIx/3XwL5ezcuve8/84qf8dDzH/xitf8AiUuaztHlFzNJzLzP8yYJLj8z&#xA;dft4hWWbU5o0HizSkD9eZmA1jHucfL9Z976J8wanoX5Ofl/bLptgtxcO6W6DZDPcFCzzTuASdlP4&#xA;KKDpqoRlnnuXOkRijs8a1H/nI/8AMu65fV5rSwB6fV7dWI/5HmbM+OhxjzcU6mb2L8sdY1zWfyiv&#xA;NT1q4kuru5W+YTy0qyKGUcQKAKCpFAMwdRGMcoA8nJxSJhZfJmbt1z6h88/+sz23/bK0f/k5bZps&#xA;P+MfGX6XYZP7r4B8vZuXXvpn/nFr/lENW/7aB/5MR5qO0PrHuc/SfSXzhqenz6dqV3p9wCs9nNJB&#xA;KpFCGjYq23zGbWMrFuCRRpPfyy0ubU/zB8v2kSlj9ehlkA/33A4lkO3giHK9RKoE+TPELkHrX/OV&#xA;WpR/869pitWQfWLmRa9FPBENPejZg9nR5lydWeQfP2bRwmc/kl/5NPQP+Msn/JiTMbV/3ZbsH1hg&#xA;2ZLS7FXo35IfmLaeTPMkw1Ko0jU0WK7kUFjE6EmOXiKlgvJgQN969qZiavAckduYb8GThO/J695m&#xA;/JnyF5/vZPMOi6uIJ7uj3Mtm0dxBI56uUqCrn9r4uvatcwceqniHCQ5MsEZ7gu8tflP+X/5bXQ8x&#xA;61rAmurZWNvNdlIY0JBBaOIFmeShoNz7CuOTUzyjhAWOGMNyXif5vef4/Ovmxr61Vk0y0jFtYK4o&#xA;zIpLNIw7F2b7qZsNNh8ONHm4ubJxSeteTNf0KH/nHW40+bUrWO/OmasgtHmjWYs73PBfTLcqtyFB&#xA;TfMLLCXj3W1j9DkQkPCq+hfNubZwXt3/ADjJq+k6bfa+2o3tvZLJFbCM3EqRBiGkrx5kVpXNd2hE&#xA;kCg5elkATbzn8w75G/MXXb2zmWRP0jNLbzxsGU0kJVlYVBzLwD92Ae5oyH1F9Gi78mfnL5IjsZLs&#xA;W98OE8tvGw+sWt0ikFgjbunxMK9CD1B6amp4J30c645YsPT/AJx38j+Xj+kPNfmYvp8ZLekypZBw&#xA;P2SxklZvklCe2ZH56ctox3+bV+WjHeRZ/wCSPPfkfzbpuoaFojLY2toDY2tqeMTvbNGFWaKI7hal&#xA;gB123pWmYuXDOBEju3Y8kZCg+Z/zN8l2fk7zL+hrS/8A0iggSV5uKqVd2YFCFZ9xxzb6fKckbIpw&#xA;csOE09m856/oU3/OOtvp8OpWsl+NM0lDaJNG0wZHtua+mG5VXiaim2YGKEvHutrP6XJnIeFV9A+b&#xA;c2zgvpn/AJxa/wCUQ1b/ALaB/wCTEeajtD6x7nP0n0lW1r8uvy4/NSVte0fUmstVei3wh4s3JAFI&#xA;nt2IIcbDkCAffrghnyYfSRsssccm4O6N8veTvy5/KK1n1fU9SEupSIVFzccRKV6+nbQLVvipv1Pu&#xA;BkZ5cmc0BsyjCOPcl88fmJ51ufOPmq61qZDFC1IrO3JqY4I68FPualm9yc2mDEMcacLJPiNsay5r&#xA;Zz+SX/k09A/4yyf8mJMxtX/dluwfWGDZktLsVdiq5JHjcPGxRx0ZTQj6RgS55HkcvIxdz1ZjUn6T&#xA;iq3Ch2KuxV2KuxVtWKkMpIYGoI6g4FXSSySuXkdnc9WYkn7zilZhQ7FXYq7FX0z/AM4tf8ohq3/b&#xA;QP8AyYjzUdofWPc5+k+kvnC+d01K4dGKsJnIYGhHxHuM2o5OCeaHd2dizkszGpYmpJwoW4VdirOf&#xA;yS/8mnoH/GWT/kxJmNq/7st2D6wwbMlpdirsVdirsVdirsVR2h6U2raxZ6Yk0ds15MkInmPGNC5p&#xA;yc9gMhOXCCWURZpZq+ntpurXunNKk7WU8tu08RrG5icpzQ91bjUYYysAoIo0reXtFn1zXLHR7d0i&#xA;nv50t45JK8FaQ0BagJpgnPhiT3JjGzSP0byhPqepavYfXba1k0i2uLmR52KrL9WcIY49t3bl8IyM&#xA;stAGuaYwskdzH8tYOxV2KuxV2Ksw8l/mr5t8nWE9joskKQXEvryCWISHnxC7EnwXMfLp45DZbYZZ&#xA;R5MSlkaWV5X+07Fmp4k1OXhrWYUOxV2Ks5/JL/yaegf8ZZP+TEmY2r/uy3YPrDBsyWl2KuxV2Kux&#xA;V2KvctC029/RGkReVPy5tdXsJLaN9T1TXLdFlnmb+9aCSWRQkf8AKwqPbbfWzkLPFOj3By4jYVG/&#xA;ekmv+UPL+mfn5Z6DbWqnR5r2zLWUnxx8Z1RnSjV+GrHY5ZDLI4DI86LGUAMldF/kvy35evfzq8w6&#xA;Pe2UT6TDLqqR23BSsaRSOqempBAKD7PhjlySGEEHfZYRByEdN0DofmXRNb/NDyn+htDt9DsbO9hi&#xA;ijh+KSVfVBV53oC707muSnjMccrNmmMZAzFCm/IekaXqfm3zwmoWsV0ttpWqXNuJVDBJo5k4SLXo&#xA;y8jQ45pERjXeE4wCZX3FE+Qo/Ken/lVrPmPWNFg1e9stSjiskmFKu8acVdhv6YLFivfpgzcRyiIN&#xA;bLj4RAki91LzV+gfMn5VxeboNEs9F1e01X9Gzrp0fowSxmH1a+kDQH4l33Ox8ccfFDLwWSKvdZ1K&#xA;HFVG2Uaf5MuvLXlPQpdF8lW/mrV9Vt0vtSvb+IXEMKygMsEcZIAYKdz9O9dqZZRORuXCB3NghwxF&#xA;CyWOfmX5H0XTvMPlW+lsj5e03zF6f6UsC1RZyRyItyVPZQkoI/zGXafMTGQviMeXmwy4wCOls013&#xA;y8mmahNZzfl1ZX/kQxkQappEa3GpmMp8Eom9QSE13NQP9Y98eE7F8ZE+48m2UaP0+ny5vniYRCaQ&#xA;RFjEGIjLgBuNduQBIBp13zaBwlmFDsVdirsVZz+SX/k09A/4yyf8mJMxtX/dluwfWGDZktLsVdir&#xA;sVdirsVezecPMn5Zeb7u013UfMV/a28NvEk3lKK2lY8ouqRT8hAgY9/p+WvxY8kBwgD+s5U5QluT&#xA;8EH5q86+Tb782NC852WoSSWjS202p27wOrW31fgtK/7sqAfsj78ljxTGIwIROcTMSQHlXzt5d0/8&#xA;2dd8xXU7JpV9JqTW0wjdmYXTs0VUA5CoPcbZLJikcQiOYpEJgTJ6bsR8i6rZaT5y0XU75zHZ2d5D&#xA;NcOAWIRGBY8RUnL80TKBA7mrGakCyPyP5u0PSvMXm29vZmjt9W0zULWyYIzFpbmVGiBABK1Cnc5V&#xA;mxSlGIHQhnCYBPmCg9P8y6RD+U2q+XZJWGq3WpxXUMPBipiRFUnnTiNx0rkpYz4ol0pAkOAjrboP&#xA;MukJ+UFx5aaVv0vJrYv1h4Nx9D6skfLnTjXkvStcTjPi8XThXiHBXW2SN5l8kecPLeiW2v6/c+Wd&#xA;a0O3WxedLeW6huYI6BDxhIYPTqT79dsp8OcJHhHEC2cUZAWaIY/5k1/yKvmPRf0NYS32iaV6YvpL&#xA;xn9W/IYGVmVmIQMooKAfLLccJ8Js0T9jCUo2K5Mz0LzD+V/l3zC/mXR/NmoQafye4XylFazpVnBP&#xA;otKW9AoGO1f+C75ROGSceExF/wA5tjKETYPweQ61qP6S1i+1ERCAXtxLceiu4T1XL8R02HKmZ0I0&#xA;AHGkbNoLJMXYq7FXYqzn8kv/ACaegf8AGWT/AJMSZjav+7Ldg+sMGzJaXYq7FXYq7FXYq7FXYq7F&#xA;XYq7FXYq7FXYq7FXYq7FXYq7FXYq7FWc/kl/5NPQP+Msn/JiTMbV/wB2W7B9YYNmS0uxV2KuxV2K&#xA;uxV2KuxV2KuxV2KuxV2KuxV2KuxV2KuxV2KuxV2Ks5/JL/yaegf8ZZP+TEmY2r/uy3YPrDBsyWl2&#xA;KuxV2KuxV2KuxV2KuxV2KuxV2KuxV2KuxV2KuxV2KuxV2KuxVnP5Jf8Ak09A/wCMsn/JiTMbV/3Z&#xA;bsH1hg2ZLS7FXYq7FXYq7FXYq7FXYq7FXYq7FXYq7FXYq7FXYq7FXYq7FXYqzn8kv/Jp6B/xlk/5&#xA;MSZjav8Auy3YPrD/AP/Z</xmpGImg:image>
               </rdf:li>
            </rdf:Alt>
         </xmp:Thumbnails>
      </rdf:Description>
      <rdf:Description rdf:about=""
            xmlns:xmpMM="http://ns.adobe.com/xap/1.0/mm/"
            xmlns:stRef="http://ns.adobe.com/xap/1.0/sType/ResourceRef#"
            xmlns:stEvt="http://ns.adobe.com/xap/1.0/sType/ResourceEvent#">
         <xmpMM:DocumentID>xmp.did:0980117407206811822A8F71932DF228</xmpMM:DocumentID>
         <xmpMM:InstanceID>xmp.iid:0980117407206811822A8F71932DF228</xmpMM:InstanceID>
         <xmpMM:DerivedFrom rdf:parseType="Resource">
            <stRef:instanceID>xmp.iid:0880117407206811822A8F71932DF228</stRef:instanceID>
            <stRef:documentID>xmp.did:0880117407206811822A8F71932DF228</stRef:documentID>
            <stRef:originalDocumentID>uuid:17ABE22BB46CDF11A97DE2A67F9CD460</stRef:originalDocumentID>
         </xmpMM:DerivedFrom>
         <xmpMM:OriginalDocumentID>uuid:17ABE22BB46CDF11A97DE2A67F9CD460</xmpMM:OriginalDocumentID>
         <xmpMM:History>
            <rdf:Seq>
               <rdf:li rdf:parseType="Resource">
                  <stEvt:action>saved</stEvt:action>
                  <stEvt:instanceID>xmp.iid:0880117407206811822A8F71932DF228</stEvt:instanceID>
                  <stEvt:when>2014-03-31T15:57:35+02:00</stEvt:when>
                  <stEvt:softwareAgent>Adobe Illustrator CS6 (Macintosh)</stEvt:softwareAgent>
                  <stEvt:changed>/</stEvt:changed>
               </rdf:li>
               <rdf:li rdf:parseType="Resource">
                  <stEvt:action>saved</stEvt:action>
                  <stEvt:instanceID>xmp.iid:0980117407206811822A8F71932DF228</stEvt:instanceID>
                  <stEvt:when>2014-03-31T15:58:23+02:00</stEvt:when>
                  <stEvt:softwareAgent>Adobe Illustrator CS6 (Macintosh)</stEvt:softwareAgent>
                  <stEvt:changed>/</stEvt:changed>
               </rdf:li>
            </rdf:Seq>
         </xmpMM:History>
      </rdf:Description>
      <rdf:Description rdf:about=""
            xmlns:pdf="http://ns.adobe.com/pdf/1.3/">
         <pdf:Trapped>False</pdf:Trapped>
      </rdf:Description>
      <rdf:Description rdf:about=""
            xmlns:xmpTPg="http://ns.adobe.com/xap/1.0/t/pg/"
            xmlns:stDim="http://ns.adobe.com/xap/1.0/sType/Dimensions#"
            xmlns:xmpG="http://ns.adobe.com/xap/1.0/g/">
         <xmpTPg:MaxPageSize rdf:parseType="Resource">
            <stDim:w>50.000000</stDim:w>
            <stDim:h>50.000000</stDim:h>
            <stDim:unit>Pixels</stDim:unit>
         </xmpTPg:MaxPageSize>
         <xmpTPg:NPages>1</xmpTPg:NPages>
         <xmpTPg:HasVisibleTransparency>False</xmpTPg:HasVisibleTransparency>
         <xmpTPg:HasVisibleOverprint>False</xmpTPg:HasVisibleOverprint>
         <xmpTPg:PlateNames>
            <rdf:Seq>
               <rdf:li>Cyan</rdf:li>
               <rdf:li>Magenta</rdf:li>
               <rdf:li>Yellow</rdf:li>
               <rdf:li>Black</rdf:li>
            </rdf:Seq>
         </xmpTPg:PlateNames>
         <xmpTPg:SwatchGroups>
            <rdf:Seq>
               <rdf:li rdf:parseType="Resource">
                  <xmpG:groupName>Default Swatch Group</xmpG:groupName>
                  <xmpG:groupType>0</xmpG:groupType>
               </rdf:li>
            </rdf:Seq>
         </xmpTPg:SwatchGroups>
      </rdf:Description>
   </rdf:RDF>
</x:xmpmeta>
                                                                                                    
                                                                                                    
                                                                                                    
                                                                                                    
                                                                                                    
                                                                                                    
                                                                                                    
                                                                                                    
                                                                                                    
                                                                                                    
                                                                                                    
                                                                                                    
                                                                                                    
                                                                                                    
                                                                                                    
                                                                                                    
                                                                                                    
                                                                                                    
                                                                                                    
                                                                                                    
                           
<?xpacket end="w"?>
	</metadata>
<g>
	<rect x="-6.376" y="65.832" fill="#1E417C" width="34" height="50"/>
</g>
<g>
	<path fill="#FEE14E" d="M11.218,71.488c-5.467,0-9.899,4.433-9.899,9.899c0,2.614,1.016,4.991,2.672,6.764
		c8.695-0.344,9.443-1.872,9.443-1.872c1.657-1.524-2.575-2.767-2.575-2.767c-4.515-1.067-7.526-2.962-7.526-2.962
		c-3.008-1.794,0.052-3.835,0.052-3.835c4.81-2.2,9.03-1.893,9.03-1.893l-0.827-0.632l0.921-0.051v-0.242l0.389,0.049l0.242,0.293
		l1.408-0.05l-0.776,0.582L13.435,75.5l-0.583-0.435c-5.195,0.921-6.408,2.038-6.408,2.038c-2.381,2.329,2.184,3.545,2.184,3.545
		c3.016,0.694,8.009,2.718,8.009,2.718c3.138,1.421,0.876,3.641,0.876,3.641c-1.6,1.859-5.733,3.52-7.578,4.194
		c0.419,0.055,0.846,0.081,1.282,0.081c5.467,0,9.899-4.429,9.899-9.896C21.116,75.92,16.686,71.488,11.218,71.488"/>
</g>
<g>
	<path fill="#FFFFFF" d="M1.026,99.219c-0.012-0.352-0.137-0.935-1.315-0.935c-0.289,0-1.104,0.097-1.104,0.787
		c0,0.455,0.286,0.562,1.007,0.742l0.933,0.232c1.156,0.286,1.56,0.71,1.56,1.465c0,1.145-0.944,1.834-2.194,1.834
		c-2.196,0-2.354-1.272-2.386-1.941h0.901c0.031,0.435,0.16,1.134,1.473,1.134c0.671,0,1.275-0.264,1.275-0.88
		c0-0.444-0.31-0.594-1.105-0.793l-1.081-0.267c-0.773-0.192-1.284-0.583-1.284-1.348c0-1.219,1.007-1.771,2.1-1.771
		c1.986,0,2.119,1.465,2.119,1.739H1.026L1.026,99.219z"/>
</g>
<g>
	<path fill="#FFFFFF" d="M7.908,103.184H6.974v-3.626c0-0.752-0.211-1.242-1.101-1.242c-0.766,0-1.549,0.444-1.549,1.845v3.023H3.39
		v-7.612h0.934v2.812h0.023c0.262-0.352,0.729-0.903,1.621-0.903c0.859,0,1.94,0.352,1.94,1.927V103.184z"/>
</g>
<g>
	<path fill="#FFFFFF" d="M9.467,99.324C9.509,98,10.388,97.48,11.755,97.48c0.446,0,2.061,0.125,2.061,1.548v3.19
		c0,0.232,0.116,0.33,0.306,0.33c0.084,0,0.202-0.021,0.309-0.042v0.677c-0.16,0.044-0.299,0.107-0.511,0.107
		c-0.827,0-0.952-0.423-0.983-0.846c-0.361,0.389-0.924,0.898-2.005,0.898c-1.019,0-1.738-0.646-1.738-1.601
		c0-0.467,0.137-1.55,1.685-1.74l1.538-0.191c0.221-0.02,0.488-0.104,0.488-0.657c0-0.581-0.425-0.902-1.306-0.902
		c-1.061,0-1.211,0.648-1.272,1.071L9.467,99.324L9.467,99.324z M12.88,100.355c-0.148,0.115-0.379,0.199-1.537,0.348
		c-0.458,0.063-1.187,0.204-1.187,0.901c0,0.604,0.306,0.966,1.006,0.966c0.869,0,1.717-0.561,1.717-1.304V100.355z"/>
</g>
<g>
	<path fill="#FFFFFF" d="M16.667,103.184h-0.933v-5.545h0.879v0.923h0.021c0.371-0.648,0.859-1.081,1.559-1.081
		c0.117,0,0.169,0.01,0.244,0.031v0.965h-0.35c-0.869,0-1.421,0.679-1.421,1.482V103.184z"/>
</g>
<g>
	<path fill="#FFFFFF" d="M19.275,97.639h0.882v0.784h0.021c0.223-0.317,0.646-0.942,1.652-0.942c1.475,0,2.315,1.208,2.315,2.768
		c0,1.326-0.554,3.097-2.442,3.097c-0.744,0-1.229-0.352-1.473-0.744h-0.021v2.782h-0.934V97.639L19.275,97.639z M21.682,102.537
		c1.017,0,1.494-0.921,1.494-2.142c0-0.71-0.073-2.08-1.515-2.08c-1.348,0-1.494,1.453-1.494,2.357
		C20.167,102.146,21.09,102.537,21.682,102.537"/>
</g>
<g>
	<path fill="#FFFFFF" d="M3.141,107.463c0.02-0.565,0.393-0.784,0.975-0.784c0.189,0,0.873,0.052,0.873,0.658v1.354
		c0,0.1,0.052,0.14,0.132,0.14c0.036,0,0.086-0.006,0.13-0.016v0.286c-0.067,0.02-0.125,0.044-0.215,0.044
		c-0.354,0-0.407-0.179-0.422-0.359c-0.151,0.166-0.39,0.383-0.849,0.383c-0.433,0-0.739-0.273-0.739-0.681
		c0-0.197,0.056-0.656,0.716-0.739l0.654-0.078c0.094-0.013,0.205-0.046,0.205-0.281c0-0.249-0.181-0.383-0.553-0.383
		c-0.453,0-0.514,0.275-0.541,0.456H3.141z M4.594,107.899c-0.065,0.05-0.163,0.086-0.654,0.149
		c-0.195,0.026-0.505,0.085-0.505,0.381c0,0.259,0.127,0.413,0.428,0.413c0.368,0,0.729-0.24,0.729-0.557v-0.387H4.594z"/>
</g>
<g>
	<path fill="#FFFFFF" d="M5.916,105.867h0.397v0.451H5.916V105.867z M6.313,109.102H5.916v-2.358h0.397V109.102z"/>
</g>
<g>
	<path fill="#FFFFFF" d="M7.608,109.102H7.211v-2.358h0.374v0.396h0.008c0.158-0.275,0.365-0.46,0.663-0.46
		c0.052,0,0.071,0.006,0.101,0.013v0.408H8.214c-0.371,0-0.605,0.29-0.605,0.634V109.102z"/>
</g>
<g>
	<rect x="9.012" y="105.867" fill="#FFFFFF" width="0.333" height="3.234"/>
</g>
<g>
	<path fill="#FFFFFF" d="M10.229,105.867h0.397v0.451h-0.397V105.867z M10.626,109.102h-0.397v-2.358h0.397V109.102z"/>
</g>
<g>
	<path fill="#FFFFFF" d="M13.39,109.102h-0.397v-1.45c0-0.412-0.119-0.618-0.506-0.618c-0.227,0-0.62,0.145-0.62,0.786v1.282h-0.399
		v-2.358h0.373v0.336h0.011c0.086-0.126,0.308-0.399,0.713-0.399c0.366,0,0.825,0.148,0.825,0.819V109.102z"/>
</g>
<g>
	<path fill="#FFFFFF" d="M16.223,108.362c-0.011,0.114-0.122,0.446-0.418,0.646c-0.111,0.07-0.262,0.16-0.638,0.16
		c-0.664,0-1.056-0.498-1.056-1.179c0-0.73,0.35-1.312,1.131-1.312c0.681,0,1.013,0.54,1.013,1.373h-1.719
		c0,0.491,0.228,0.776,0.684,0.776c0.375,0,0.596-0.29,0.605-0.466H16.223z M15.846,107.736c-0.024-0.364-0.177-0.703-0.659-0.703
		c-0.365,0-0.653,0.339-0.653,0.703H15.846z"/>
</g>
<g>
	<path fill="#FFFFFF" d="M18.313,107.417c-0.001-0.149-0.057-0.398-0.558-0.398c-0.121,0-0.469,0.042-0.469,0.337
		c0,0.191,0.124,0.234,0.429,0.315l0.397,0.096c0.492,0.121,0.661,0.305,0.661,0.622c0,0.486-0.4,0.78-0.931,0.78
		c-0.935,0-1.003-0.541-1.014-0.824h0.383c0.013,0.184,0.065,0.48,0.625,0.48c0.283,0,0.544-0.11,0.544-0.374
		c0-0.189-0.134-0.249-0.472-0.339l-0.458-0.109c-0.33-0.081-0.545-0.247-0.545-0.572c0-0.518,0.426-0.752,0.892-0.752
		c0.841,0,0.901,0.619,0.901,0.738H18.313L18.313,107.417z"/>
</g>
</svg>
