<?xml version="1.0" encoding="utf-8"?>
<!-- Generator: Adobe Illustrator 16.2.1, SVG Export Plug-In . SVG Version: 6.00 Build 0)  -->
<!DOCTYPE svg PUBLIC "-//W3C//DTD SVG 1.1//EN" "http://www.w3.org/Graphics/SVG/1.1/DTD/svg11.dtd">
<svg version="1.1" id="Layer_1" xmlns="http://www.w3.org/2000/svg" xmlns:xlink="http://www.w3.org/1999/xlink" x="0px" y="0px"
	 width="50px" height="50px" viewBox="75.5 55.833 50 50" enable-background="new 75.5 55.833 50 50" xml:space="preserve">
<g>
	<path fill="#F0B600" d="M109.728,84.72c0-1.357-1.211-1.443-2.25-1.443c-0.979,0-2.129,0.163-2.433,1.481l1.602,0.192
		c0.14-0.308,0.261-0.548,0.806-0.548c0.364,0,0.623,0.154,0.623,0.413c0,0.04-0.009,0.155-0.051,0.337
		c-0.192,0.059-0.347,0.097-0.997,0.173c-1.264,0.146-2.477,0.28-2.477,1.703c0,0.174,0.018,0.568,0.304,0.934
		c0.208,0.261,0.466,0.53,1.29,0.53c0.822,0,1.297-0.482,1.507-0.684c0,0.22,0.008,0.297,0.061,0.567h1.679
		c-0.051-0.174-0.113-0.365-0.113-0.693c0-0.385,0.139-1.048,0.217-1.413C109.669,85.471,109.728,85.057,109.728,84.72z
		 M107.59,86.922c-0.181,0.308-0.519,0.53-0.831,0.53c-0.277,0-0.528-0.173-0.528-0.52c0-0.49,0.588-0.587,1.359-0.741l0.242-0.048
		C107.791,86.393,107.746,86.653,107.59,86.922z"/>
	<path fill="#F0B600" d="M99.798,84.325c0.511,0,0.572,0.288,0.606,0.453l1.61-0.192c-0.13-0.693-0.45-1.309-1.982-1.309
		c-1.94,0-2.399,1.154-2.399,1.761c0,1.097,1.046,1.3,1.714,1.415c0.51,0.085,0.744,0.133,0.744,0.461
		c0,0.424-0.477,0.53-0.718,0.53c-0.597,0-0.685-0.443-0.718-0.607L96.959,87c0.113,0.99,0.623,1.492,2.157,1.492
		c1.185,0,1.688-0.28,2.103-0.684c0.424-0.414,0.493-0.856,0.493-1.174c0-0.963-0.676-1.223-1.609-1.377
		c-0.527-0.086-0.936-0.144-0.936-0.509C99.166,84.605,99.288,84.325,99.798,84.325z"/>
	<path fill="#FDECCA" d="M111.432,78.974c0.732-0.438,1.351-0.847,3.106-1.114c0.013-0.001,0.025-0.005,0.033-0.014
		c0.013-0.016,0.011-0.041-0.014-0.057c-0.013-0.01-0.034-0.014-0.053-0.016c-0.063-0.006-0.14-0.007-0.227-0.007
		c-0.668,0-1.956,0.166-2.992,0.624c-1.216,0.538-2.016,1.481-2.71,2.069h1.146C110.219,80.066,110.647,79.443,111.432,78.974z"/>
	<polygon fill="#F0B600" points="97.622,81.488 95.898,81.488 95.656,82.806 97.379,82.806 	"/>
	<polygon fill="#F0B600" points="104.989,81.488 103.266,81.488 101.941,88.376 103.673,88.376 	"/>
	<polygon fill="#F0B600" points="94.574,88.376 96.306,88.376 97.266,83.392 95.535,83.392 	"/>
	<path fill="#283C66" d="M76.817,81.488L75.5,88.376h1.602l0.166-0.817c0.165,0.297,0.518,0.934,1.488,0.934
		c1.507,0,2.156-1.887,2.156-3.129c0-0.653-0.19-2.087-1.567-2.087c-0.511,0-0.814,0.116-1.238,0.473l0.432-2.262H76.817
		L76.817,81.488z M78.626,84.528c0.606,0,0.606,0.712,0.606,0.846c0,1.078-0.434,1.828-0.918,1.828
		c-0.183,0-0.658-0.125-0.658-0.875C77.656,85.653,77.933,84.528,78.626,84.528z"/>
	<path fill="#F0B600" d="M119.833,88.376l1.333-6.889h-1.723l-0.495,2.567c-0.181-0.277-0.527-0.788-1.428-0.788
		c-1.333,0-2.14,1.606-2.14,3.155c0,1.039,0.399,2.07,1.568,2.07c0.639,0,0.944-0.223,1.358-0.637l0.019,0.02l-0.086,0.5
		L119.833,88.376L119.833,88.376z M117.652,87.241c-0.27,0-0.588-0.192-0.588-0.866c0-0.981,0.397-1.817,0.917-1.817
		c0.139,0,0.657,0.086,0.657,0.874C118.638,85.798,118.474,87.241,117.652,87.241z"/>
	<path fill="#F0B600" d="M112.729,88.376h1.724l0.579-3.021c0.062-0.328,0.113-0.722,0.113-0.886c0-0.087,0-1.193-1.22-1.193
		c-0.952,0-1.42,0.52-1.732,0.886l-0.017-0.02l0.147-0.75h-1.612l-0.959,4.983h1.731l0.424-2.176
		c0.114-0.595,0.416-1.528,1.091-1.528c0.181,0,0.338,0.125,0.338,0.413c0,0.135-0.01,0.173-0.069,0.492L112.729,88.376z"/>
	<path fill="#283C66" d="M83.751,86.404c-0.061,0.327-0.112,0.73-0.112,0.894c0,0.079,0,1.195,1.229,1.195
		c0.952,0,1.42-0.521,1.732-0.896l0.017,0.019l-0.156,0.761h1.62l0.961-4.983h-1.733l-0.423,2.175
		c-0.113,0.594-0.415,1.509-1.1,1.509c-0.172,0-0.328-0.105-0.328-0.403c0-0.126,0-0.164,0.06-0.481l0.545-2.799H84.34
		L83.751,86.404z"/>
	<polygon fill="#283C66" points="80.915,88.376 82.647,88.376 83.963,81.488 82.241,81.488 	"/>
	<path fill="#F0B600" d="M123.283,84.325c0.511,0,0.572,0.288,0.607,0.453l1.61-0.192c-0.13-0.693-0.451-1.309-1.982-1.309
		c-1.939,0-2.398,1.154-2.398,1.761c0,1.097,1.047,1.3,1.714,1.415c0.51,0.085,0.743,0.133,0.743,0.461
		c0,0.424-0.475,0.53-0.718,0.53c-0.597,0-0.683-0.443-0.717-0.607L120.444,87c0.112,0.99,0.622,1.492,2.155,1.492
		c1.186,0,1.688-0.28,2.104-0.684c0.424-0.414,0.493-0.856,0.493-1.174c0-0.963-0.676-1.223-1.61-1.377
		c-0.527-0.086-0.935-0.144-0.935-0.509C122.652,84.605,122.773,84.325,123.283,84.325z"/>
	<path fill="#283C66" d="M94.207,85.374c0-0.27-0.044-1.087-0.694-1.625c-0.268-0.221-0.683-0.472-1.653-0.472
		c-0.675,0-1.186,0.105-1.75,0.549c-0.7,0.558-1.124,1.415-1.124,2.375c0,0.674,0.206,1.176,0.476,1.521
		c0.312,0.405,0.796,0.771,1.974,0.771c1.566,0,2.148-0.713,2.502-1.396l-1.662-0.174c-0.138,0.193-0.32,0.454-0.796,0.454
		c-0.719,0-0.787-0.752-0.805-1.001h3.419C94.12,86.201,94.207,85.701,94.207,85.374z M92.5,85.451h-1.671
		c0.208-0.808,0.649-1.058,0.987-1.058c0.372,0,0.71,0.231,0.71,0.771C92.527,85.258,92.509,85.431,92.5,85.451z"/>
	<path fill="#FDECCA" d="M99.337,74.815c-0.067,0.012-0.167,0.059-0.077,0.114c0.048,0.016,0.288,0.062,0.335,0.078
		c0.282,0.068,2.796,0.608,4.891,2.305c0.301-0.216,0.611-0.436,0.933-0.649c-2.629-1.715-5.678-1.849-6.045-1.849
		C99.353,74.814,99.341,74.814,99.337,74.815z"/>
	<path fill="#F9DA90" d="M117.544,75.988c0.029-0.029,0.028-0.081-0.019-0.115c-0.025-0.018-0.064-0.028-0.103-0.036
		c-0.23-0.035-0.532-0.054-0.887-0.054c-1.333,0-3.415,0.263-5.195,0.896c-2.561,0.91-4.453,2.55-5.851,3.781h2.251
		c0.985-0.774,1.893-1.879,3.481-2.717c1.485-0.787,2.821-1.421,6.257-1.731C117.505,76.01,117.529,76.003,117.544,75.988z"/>
	<path fill="#F0B600" d="M123.1,73.774c0.072,0.007,0.151,0.004,0.151,0.004c0.031,0,0.057-0.026,0.057-0.059
		c0-0.03-0.02-0.053-0.047-0.058c-2.387-0.344-4.275-0.487-5.847-0.487c-2.609,0-4.345,0.394-6.03,0.909
		c-4.532,1.385-9.557,5.961-9.849,6.122c-0.367,0.203-0.729,0.254-0.729,0.254h3.354c0.518,0,0.862-0.293,0.862-0.293
		c0.047-0.048,0.099-0.096,0.148-0.145c2.08-1.876,3.618-2.973,6.007-4.116C114.962,74.089,119.161,73.633,123.1,73.774z"/>
	<path fill="#F0B600" d="M84.733,75.314c-0.202,0.104,0,0.273,0,0.273c6.578-0.312,8.543,0.448,10.578,1.385
		c1.481,0.681,4.167,2.673,4.854,3.173c0.065,0.014,0.141,0.019,0.223,0.018c0.222-0.035,0.494-0.095,0.679-0.199
		c0.087-0.047,0.255-0.163,0.483-0.333c0.184-0.158,0.398-0.339,0.645-0.544c-4.881-3.838-8.405-4.479-10.905-4.479
		C88.662,74.608,84.841,75.257,84.733,75.314z"/>
	<path fill="#F9DA90" d="M95.337,74.55c-0.121,0.021-0.181,0.101-0.021,0.202c0.085,0.025,0.589,0.127,0.589,0.127
		s3.23,1.017,6.711,3.839c0.396-0.316,0.914-0.705,1.396-1.063c-3.177-2.516-8.382-3.105-8.666-3.105
		C95.343,74.549,95.339,74.55,95.337,74.55z"/>
</g>
</svg>
