<?xml version="1.0" encoding="utf-8"?>
<!-- Generator: Adobe Illustrator 16.2.1, SVG Export Plug-In . SVG Version: 6.00 Build 0)  -->
<!DOCTYPE svg PUBLIC "-//W3C//DTD SVG 1.1//EN" "http://www.w3.org/Graphics/SVG/1.1/DTD/svg11.dtd">
<svg version="1.1" id="svg2367" xmlns:svg="http://www.w3.org/2000/svg"
	 xmlns="http://www.w3.org/2000/svg" xmlns:xlink="http://www.w3.org/1999/xlink" x="0px" y="0px" width="50px" height="50px"
	 viewBox="393.414 106.031 50 50" enable-background="new 393.414 106.031 50 50" xml:space="preserve">
<path id="path5553" fill="#163A90" d="M394.48,106.031c-0.587,0-1.067,0.479-1.067,1.065v47.865c0,0.588,0.479,1.069,1.067,1.069
	h47.916c0.588,0,1.018-0.481,1.018-1.069v-47.865c0-0.587-0.43-1.065-1.018-1.065H394.48"/>
<path id="path5555" fill="#FCFFFF" d="M425.003,129.22c-1.709,0-3.844,0-4.165,0l-0.479,0.212l-11.581,14.393l0.054,0.268
	c0.268,0,1.015,0,1.389,0l0.32-0.108l3.095-3.998l0.159-0.053h3.842l0.107,0.053l-0.8,3.943l0.213,0.163c0.534,0,4.429,0,4.961,0
	l0.214-0.108c0,0,0.587-2.987,2.827-14.552L425.003,129.22z M414.757,138.598l4.162-5.436l0.106-0.052v0.052l-1.014,5.436
	l-0.105,0.056h-3.096L414.757,138.598"/>
<path id="path5557" fill="#FCFFFF" d="M397.948,142.117c-0.054,0.215,0.054,0.482,0.374,0.746c0.587,0.479,2.349,1.495,5.123,1.495
	c5.016,0,6.883-3.252,6.244-5.973c-0.161-0.746-1.174-4.741-1.282-5.275c-0.426-1.601,0.373-2.718,1.815-2.718
	c1.281,0,2.133,0.476,2.88,0.958l0.268-0.16l0.159-0.961c0,0,0.108-0.268-0.213-0.424c-0.426-0.267-1.602-0.906-4.055-0.906
	c-4.482,0-6.458,2.93-5.656,6.022c0.267,1.014,1.281,4.904,1.281,5.599c0,0.318,0.159,2.29-2.188,2.343
	c-2.081,0-3.629-1.492-4.108-1.972l-0.321,0.104L397.948,142.117"/>
<path id="path5559" fill="#FCFFFF" d="M423.613,142.225c-0.051,0.16,0.053,0.426,0.373,0.693c0.586,0.477,2.192,1.44,5.017,1.44
	c5.017,0,6.883-3.252,6.244-5.973c-0.16-0.746-1.175-4.741-1.332-5.275c-0.377-1.601,0.373-2.718,1.865-2.718
	c1.28,0,2.134,0.476,2.881,0.958l0.268-0.16l0.161-0.961c0,0,0.104-0.268-0.216-0.424c-0.476-0.267-1.598-0.906-4.052-0.906
	c-4.537,0-6.458,2.93-5.656,6.022c0.265,1.014,1.28,4.904,1.28,5.599c0,0.318,0.159,2.29-2.187,2.343
	c-2.08,0-3.63-1.492-4.109-1.972l-0.32,0.104L423.613,142.225"/>
</svg>
