<?xml version="1.0" encoding="utf-8"?>
<!-- Generator: Adobe Illustrator 16.2.1, SVG Export Plug-In . SVG Version: 6.00 Build 0)  -->
<!DOCTYPE svg PUBLIC "-//W3C//DTD SVG 1.1//EN" "http://www.w3.org/Graphics/SVG/1.1/DTD/svg11.dtd">
<svg version="1.1" id="svg2367" xmlns:svg="http://www.w3.org/2000/svg"
	 xmlns="http://www.w3.org/2000/svg" xmlns:xlink="http://www.w3.org/1999/xlink" x="0px" y="0px" width="50px" height="50px"
	 viewBox="393.414 106.031 50 50" enable-background="new 393.414 106.031 50 50" xml:space="preserve">
<path fill="#EE452A" d="M408.51,152.046c0,2.209-2.411,3.985-5.41,3.985c-2.985,0-5.396-1.776-5.396-3.985
	c0-2.194,2.415-3.988,5.401-3.988C406.099,148.053,408.51,149.846,408.51,152.046"/>
<path fill="#EE452A" d="M412.288,142.537c0,1.842-2.115,3.332-4.732,3.347c-2.63-0.015-4.748-1.505-4.748-3.347
	c0-1.849,2.118-3.313,4.748-3.313C410.172,139.218,412.288,140.689,412.288,142.537"/>
<path fill="#EE452A" d="M415.386,134.598c0,1.476-1.805,2.684-4.029,2.688c-2.237,0-4.05-1.207-4.05-2.688
	c0-1.474,1.816-2.684,4.05-2.684C413.582,131.914,415.386,133.13,415.386,134.598"/>
<path fill="#EE452A" d="M423.636,112.927c-0.007,0.583-0.94,1.063-2.104,1.063c-1.166,0-2.109-0.48-2.109-1.063
	c0-0.59,0.943-1.054,2.109-1.054C422.696,111.873,423.629,112.334,423.636,112.927"/>
<path fill="#EE452A" d="M426.074,106.801c0,0.418-0.704,0.755-1.58,0.755c-0.88,0-1.586-0.337-1.592-0.755
	c0-0.421,0.712-0.77,1.592-0.77C425.37,106.031,426.074,106.38,426.074,106.801"/>
<path fill="#EE452A" d="M424.923,109.704c0,0.492-0.81,0.879-1.832,0.885c-1.006,0-1.82-0.393-1.82-0.885
	c0-0.482,0.814-0.875,1.82-0.875C424.111,108.829,424.923,109.222,424.923,109.704"/>
<path fill="#EE452A" d="M418.006,127.625c0,1.198-1.541,2.166-3.444,2.166c-1.882,0-3.427-0.968-3.427-2.166
	c0-1.189,1.542-2.165,3.427-2.165C416.465,125.462,418.006,126.436,418.006,127.625"/>
<path fill="#EE452A" d="M420.273,121.815c0,0.95-1.312,1.729-2.941,1.729c-1.618,0-2.931-0.778-2.931-1.729
	c0-0.967,1.312-1.748,2.931-1.748C418.961,120.067,420.273,120.848,420.273,121.815"/>
<path fill="#EE452A" d="M421.122,151.389c0,1.988-2.196,3.579-4.907,3.579c-2.706,0-4.907-1.604-4.907-3.579
	c0-1.989,2.201-3.6,4.901-3.6C418.925,147.789,421.122,149.4,421.122,151.389"/>
<path fill="#EE452A" d="M431.913,148.407c0,1.751-1.983,3.152-4.427,3.152c-2.437,0-4.422-1.401-4.422-3.152
	c0-1.746,1.985-3.176,4.422-3.176C429.924,145.232,431.913,146.659,431.913,148.407"/>
<path fill="#EE452A" d="M437.414,142.322c0,1.371-1.616,2.49-3.628,2.49c-1.99,0-3.606-1.119-3.606-2.49
	c0-1.388,1.616-2.505,3.606-2.505C435.789,139.817,437.414,140.934,437.414,142.322"/>
<path fill="#EE452A" d="M432.144,131.476c0,0.922-1.182,1.654-2.621,1.654c-1.465,0-2.654-0.732-2.654-1.654
	c0-0.912,1.189-1.664,2.654-1.664C430.965,129.812,432.144,130.558,432.144,131.476"/>
<path fill="#EE452A" d="M422.215,116.96c0,0.759-1.114,1.385-2.494,1.385c-1.369,0-2.487-0.626-2.487-1.385
	c0-0.764,1.118-1.376,2.487-1.376C421.098,115.584,422.215,116.202,422.215,116.96"/>
<path fill="#EE452A" d="M436.447,136.014c0,1.118-1.367,2.017-3.069,2.017c-1.697,0-3.07-0.904-3.07-2.017
	c0-1.104,1.373-2.015,3.079-2.015C435.074,134.006,436.447,134.909,436.447,136.014"/>
</svg>
