<?xml version="1.0" encoding="utf-8"?>
<!-- Generator: Adobe Illustrator 16.2.1, SVG Export Plug-In . SVG Version: 6.00 Build 0)  -->
<!DOCTYPE svg PUBLIC "-//W3C//DTD SVG 1.1//EN" "http://www.w3.org/Graphics/SVG/1.1/DTD/svg11.dtd">
<svg version="1.1"
	 id="svg7148" xmlns:rdf="http://www.w3.org/1999/02/22-rdf-syntax-ns#" xmlns:cc="http://creativecommons.org/ns#" xmlns:svg="http://www.w3.org/2000/svg" xmlns:dc="http://purl.org/dc/elements/1.1/"
	 xmlns="http://www.w3.org/2000/svg" xmlns:xlink="http://www.w3.org/1999/xlink" x="0px" y="0px" width="50px" height="50px"
	 viewBox="396.957 208.61 50 50" enable-background="new 396.957 208.61 50 50" xml:space="preserve">
<g id="layer1" transform="translate(84.84785,-263.29783)">
	<g id="g7181" transform="matrix(13.253192,0,0,13.253192,-4598.8716,-4781.5126)">
		<path id="path6192" fill="#1082AD" d="M372.054,396.95l0.697,0.697l-0.415,1.46l-0.529-0.518l-0.314-1.256"/>
		<path id="path6194" fill="#1082AD" d="M373.223,398.747h0.786l-0.629,0.576l-1.043-0.217"/>
		<path id="path6196" fill="#122E53" d="M373.38,399.323l-0.943,0.258l-1.1,0.58l1-1.056"/>
		<path id="path6198" fill="#7EC2D4" d="M371.808,399.664l-0.943,0.183l0.472,0.314"/>
		<path id="path6200" fill="#122E53" d="M373.223,398.747h0.786l-0.399-0.157"/>
		<path id="path6202" fill="#122E53" d="M373.871,398.873l0.138,0.138v-0.264"/>
		<path id="path6204" fill="#7EC2D4" d="M373.223,398.747l-0.471-1.1l-0.415,1.46"/>
		<path id="path6206" fill="#122E53" d="M371.494,397.332l0.157-0.786l-0.629-0.157"/>
		<path id="path6208" fill="#7EC2D4" d="M372.054,396.95l-0.403-0.403l-0.157,0.786"/>
	</g>
</g>
</svg>
