<?xml version="1.0" encoding="utf-8"?>
<!-- Generator: Adobe Illustrator 16.2.1, SVG Export Plug-In . SVG Version: 6.00 Build 0)  -->
<!DOCTYPE svg PUBLIC "-//W3C//DTD SVG 1.1//EN" "http://www.w3.org/Graphics/SVG/1.1/DTD/svg11.dtd">
<svg version="1.1" id="svg2367" xmlns:svg="http://www.w3.org/2000/svg"
	 xmlns="http://www.w3.org/2000/svg" xmlns:xlink="http://www.w3.org/1999/xlink" x="0px" y="0px" width="50px" height="50px"
	 viewBox="393.414 106.031 50 50" enable-background="new 393.414 106.031 50 50" xml:space="preserve">
<path fill="#FCB130" d="M407.709,151.642c0,0,6.496-9.825,7.204-10.839c0.848-1.18,0.848-3.149,0.075-4.156
	c-0.294-0.546-10.251-16.551-10.251-16.551c-0.942-1.729-0.69-2.894-0.125-3.768c0.961-1.454,2.201-3.326,2.201-3.326
	s11.71,18.721,12.237,19.561c1.303,2.137,1.032,4.341-0.208,6.089c-1.051,1.525-8.567,12.99-8.567,12.99"/>
<path fill="#FCB130" d="M405.084,153.444c0,0,8.153-11.981,8.854-12.882c0.829-1.115,0.674-2.78,0-3.718
	c-0.316-0.559-10.874-16.906-10.874-16.906s-1.552,2.321-2.125,3.226c-0.587,0.858-0.934,1.985,0.113,3.764
	c0,0,7.724,12.15,8.01,12.675c0.629,0.994,0.6,2.824-0.12,3.952c-0.55,0.96-8.474,12.478-8.474,12.478h22.821
	c2.336,0,3.613-0.885,4.77-2.501c0.916-1.338,4.695-6.843,5.309-7.709c0.55-0.882,1.732-1.413,2.166-1.413h1.839l-3.493-5.324
	h-4.649c-1.119,0-2.374,0.961-3.075,1.938c-0.448,0.779-4.295,6.469-4.936,7.365c-0.411,0.573-0.941,0.995-1.484,0.995h-1.42
	c0.208-0.452,6.801-10.06,8.089-12.121c1.567-2.539,1.899-5.851,0.057-9.046c-0.637-1.146-13.975-22.184-13.975-22.184
	s-1.62,2.43-2.332,3.557c-0.637,0.878-0.561,2.113,0.418,3.764c0,0,11.25,17.915,11.796,18.748c1.303,2.016,1.085,4.713,0,6.56
	c-0.893,1.488-8.639,13.104-8.639,13.104h5.821c2.219,0,2.863-0.735,3.365-1.522c0.546-0.779,4.223-6.148,4.623-6.736
	c0.396-0.535,1.36-2.02,2.629-2.02h4.272v0.894c-1.786,0.177-2.505,0.712-3.112,1.56c-0.651,0.825-5.052,7.17-5.504,7.837
	c-0.591,0.84-1.168,1.684-2.908,1.684"/>
</svg>
