<?xml version="1.0" encoding="utf-8"?>
<!-- Generator: Adobe Illustrator 16.2.1, SVG Export Plug-In . SVG Version: 6.00 Build 0)  -->
<!DOCTYPE svg PUBLIC "-//W3C//DTD SVG 1.1//EN" "http://www.w3.org/Graphics/SVG/1.1/DTD/svg11.dtd">
<svg version="1.1" id="svg2367" xmlns:svg="http://www.w3.org/2000/svg"
	 xmlns="http://www.w3.org/2000/svg" xmlns:xlink="http://www.w3.org/1999/xlink" x="0px" y="0px" width="50px" height="50px"
	 viewBox="393.414 106.031 50 50" enable-background="new 393.414 106.031 50 50" xml:space="preserve">
<path id="path7807" fill="#1C4E9D" d="M412.299,131.919c-0.117-0.265-0.201-0.53-0.295-0.803l-13.911,0.803l2.812,1.358
	L412.299,131.919L412.299,131.919z M414.196,134.371c-0.12-0.086-0.241-0.199-0.354-0.291c-0.238-0.207-0.45-0.415-0.587-0.625
	l-6.96,1.312l2.964,0.997L414.196,134.371L414.196,134.371z M419.695,133.812c0.334-0.052,0.833-0.232,1.221-0.534l-2.019-3.994
	l2.103-1.005l-1.771-1.537l-0.712,0.326l-3.051,1.386l0.895,2.011l1.445-0.645L419.695,133.812L419.695,133.812L419.695,133.812z
	 M423.129,125.462c0.77,0.916,1.337,2.045,1.634,3.351h-1.27c-0.092-0.384-0.212-0.774-0.364-1.128
	c-0.85-2.25-2.601-3.846-4.611-5.18c-0.268-0.15-0.506-0.326-0.77-0.474c0.264,0.092,0.502,0.178,0.77,0.268
	C420.347,123.036,421.975,124.045,423.129,125.462L423.129,125.462z M423.129,137.575l0.394,0.71l-0.394,0.181l-1.033,0.474
	l-1.181-2.342c-0.741,0.258-1.565,0.412-2.398,0.439c-0.89,0.034-1.811-0.089-2.61-0.354l-1.001,2.256
	c-0.329,0.024-0.771,0-1.065-0.212c-0.151-0.089-0.301-0.236-0.359-0.442l0.359-0.594l0.858-1.54
	c-0.271-0.179-0.504-0.295-0.745-0.535l0.713-0.854c1.219,0.741,2.545,1.144,3.851,1.144c1.305,0.037,2.6-0.381,3.814-1.235
	l0.797,0.236l0.332,0.123c-0.119,0.089-0.209,0.169-0.332,0.265c-0.234,0.23-0.439,0.471-0.819,0.679L423.129,137.575
	L423.129,137.575L423.129,137.575z M439.743,131.529l3.67-2.331h-19.891c0,0.83-0.121,1.544-0.394,2.158
	c-0.764,1.98-2.687,2.93-4.611,2.902c-1.889-0.053-3.818-1.033-4.676-2.841c-0.301-0.657-0.475-1.355-0.475-2.22h-19.954
	l3.641,2.331l15.244-0.787c0.295,1.088,0.836,2.041,1.543,2.741c1.215,1.279,2.958,1.98,4.676,1.98
	c1.689,0.04,3.4-0.581,4.611-1.946c0.655-0.707,1.158-1.629,1.456-2.729L439.743,131.529L439.743,131.529z M438.735,131.919
	l-2.816,1.306l-11.247-1.306c0.092-0.265,0.182-0.53,0.266-0.803L438.735,131.919L438.735,131.919z M430.594,134.789l-3.081,1.033
	l-4.384-1.327l-0.379-0.124c0.146-0.113,0.264-0.227,0.379-0.384c0.185-0.145,0.332-0.356,0.504-0.505L430.594,134.789
	L430.594,134.789z M432.073,134.62l2.457-1.138l-10.121-1.211c-0.089,0.326-0.358,0.591-0.542,0.863L432.073,134.62L432.073,134.62
	L432.073,134.62z M404.751,134.62l-2.453-1.076l10.177-1.234c0.182,0.288,0.356,0.553,0.564,0.825L404.751,134.62L404.751,134.62"/>
</svg>
