<?xml version="1.0" encoding="utf-8"?>
<!-- Generator: Adobe Illustrator 16.2.1, SVG Export Plug-In . SVG Version: 6.00 Build 0)  -->
<!DOCTYPE svg PUBLIC "-//W3C//DTD SVG 1.1//EN" "http://www.w3.org/Graphics/SVG/1.1/DTD/svg11.dtd">
<svg version="1.1" id="svg2367" xmlns:svg="http://www.w3.org/2000/svg"
	 xmlns="http://www.w3.org/2000/svg" xmlns:xlink="http://www.w3.org/1999/xlink" x="0px" y="0px" width="50px" height="50px"
	 viewBox="393.414 106.031 50 50" enable-background="new 393.414 106.031 50 50" xml:space="preserve">
<g id="g4722" transform="translate(50.6457,550.2384)">
	<path id="path4724" fill="#A39161" d="M390.036-407.995l-0.063,0.107c-4.078,7.161-11.72,11.98-20.491,11.98
		c-13.045,0-23.621-10.672-23.621-23.84c0-4.316,1.139-8.366,3.13-11.858l0.053-0.095l-0.026-0.087l-0.087,0.031l-0.06,0.084
		c-0.353,0.514-0.682,1.056-0.998,1.601c-6.484,11.426-2.486,26.041,8.933,32.648c11.414,6.609,25.933,2.703,32.413-8.719
		c0.319-0.549,0.608-1.113,0.874-1.68l0.051-0.112l-0.028-0.094L390.036-407.995z"/>
</g>
<g id="g4726" transform="translate(34.9207,568.2581)">
	<path id="path4728" fill="#A39161" d="M379.424-456.195c-3.358,0.722-9,4.209-10.2,9.997c3.621-4.314,7.392-6.583,10.278-7.11
		c-2.954,2.229-5.73,7.433-4.868,11.08c1.563-3.876,4.3-7.669,6.809-9.051c-1.42,2.366-1.886,8.082-0.526,10.603
		c0.318-3.272,1.343-7.523,2.958-9.625l0.478,4.104h-0.55l0.579,4.179h-0.459l0.481,4.177h-0.396l0.607,4.176l-1.956,1.009v0.144
		h5.099v-0.144l-1.957-1.009l-0.595,0.464l0.591-0.464l0.6-4.176h-0.392l0.481-4.177h-0.46l0.583-4.179h-0.554l0.48-4.104
		c1.616,2.102,2.638,6.353,2.957,9.625c1.364-2.521,0.895-8.236-0.524-10.603c2.509,1.382,5.242,5.175,6.812,9.051
		c0.86-3.647-1.914-8.852-4.869-11.08c2.886,0.527,6.653,2.796,10.27,7.11c-1.192-5.788-6.834-9.275-10.196-9.997
		c3.7-0.373,7.305,0.826,10.575,2.43c-3.551-4.137-8.908-5.638-12.45-5.229c0.598-0.638,1.179-0.978,2.082-1.248
		c-1.498-0.707-3.826-0.338-4.732,0.689c0,0-0.167-1.916-1.253-2.673c-1.092,0.757-1.251,2.673-1.251,2.673
		c-0.913-1.027-3.237-1.396-4.731-0.689c0.901,0.271,1.475,0.61,2.081,1.248c-3.546-0.408-8.906,1.093-12.455,5.229
		C372.125-455.369,375.728-456.568,379.424-456.195"/>
</g>
<g id="g4730" transform="translate(38.9766,552.3417)">
	<path id="path4732" fill="#A39161" d="M382.161-413.622c-0.28,0.187-0.626,0.424-1.011,0.688c-0.386-0.265-0.733-0.502-1.011-0.688
		c-1.503-1.017-14.198-9.593-19.685-3.526c5.063-2.027,12.568,1.803,18.747,5.563c-1.546,1.065-3.308,2.293-4.804,3.314
		c-2.371-2.32-3.253-1.948-3.467-1.858c-0.233,0.098-0.397,0.314-0.407,0.582c-0.003,0.353,0.263,0.646,0.602,0.655
		c0.341,0.008,0.629-0.273,0.634-0.624l-0.015-0.142c0.658,0.418,1.269,0.98,2.804,2.579c1.561,1.632,2.166,2.078,2.625,2.353
		c0.316,0.188,0.638,0.233,0.836,0.216c0.322-0.016,0.643-0.251,0.658-0.618c0.02-0.365-0.25-0.664-0.598-0.669
		c-0.342-0.006-0.633,0.273-0.633,0.636v0.062c-0.424-0.312-0.877-0.871-1.782-1.859c1.488-0.858,3.38-2.093,5.496-3.428
		c2.115,1.335,4.007,2.569,5.493,3.428c-0.901,0.988-1.354,1.548-1.784,1.859v-0.062c0.001-0.362-0.29-0.642-0.635-0.636
		c-0.35,0.005-0.616,0.304-0.595,0.669c0.017,0.367,0.334,0.603,0.658,0.618c0.196,0.018,0.516-0.028,0.838-0.216
		c0.459-0.274,1.065-0.721,2.627-2.353c1.529-1.599,2.147-2.161,2.799-2.579l-0.011,0.142c0.008,0.351,0.294,0.632,0.629,0.624
		c0.339-0.01,0.609-0.303,0.606-0.655c-0.013-0.268-0.176-0.484-0.407-0.582c-0.214-0.09-1.097-0.462-3.468,1.854
		c-1.494-1.018-3.262-2.245-4.806-3.311c6.182-3.761,13.688-7.591,18.748-5.563C396.354-423.214,383.661-414.638,382.161-413.622"/>
</g>
<g id="g4734" transform="translate(30.5174,547.5707)">
	<path id="path4736" fill="#A39161" d="M376.452-400.859c-0.196-0.087-0.397-0.198-0.503-0.215
		c-0.068-0.008-0.132,0.007-0.177,0.056c-0.042,0.054-0.056,0.159-0.012,0.247c0.026,0.062,0.101,0.18,0.298,0.354
		c0.829,0.727,2.499,1.379,6.901-1.107c-0.135-0.135-0.271-0.28-0.417-0.428c-0.295-0.309-0.555-0.576-0.785-0.81
		C379.433-401.278,377.591-400.39,376.452-400.859"/>
</g>
<g id="g4738" transform="translate(46.2279,547.5707)">
	<path id="path4740" fill="#A39161" d="M387.055-400.859c-1.141,0.469-2.982-0.42-5.308-1.902c-0.231,0.233-0.483,0.501-0.786,0.81
		c-0.142,0.147-0.281,0.293-0.412,0.428c4.394,2.486,6.068,1.834,6.897,1.107c0.201-0.175,0.273-0.292,0.3-0.354
		c0.048-0.088,0.034-0.193-0.013-0.247c-0.042-0.049-0.104-0.063-0.174-0.056C387.455-401.057,387.252-400.945,387.055-400.859"/>
</g>
</svg>
