<?xml version="1.0" encoding="utf-8"?>
<!-- Generator: Adobe Illustrator 16.2.1, SVG Export Plug-In . SVG Version: 6.00 Build 0)  -->
<!DOCTYPE svg PUBLIC "-//W3C//DTD SVG 1.1//EN" "http://www.w3.org/Graphics/SVG/1.1/DTD/svg11.dtd">
<svg version="1.1" id="Layer_1" xmlns="http://www.w3.org/2000/svg" xmlns:xlink="http://www.w3.org/1999/xlink" x="0px" y="0px"
	 width="50px" height="50px" viewBox="77 65 50 50" enable-background="new 77 65 50 50" xml:space="preserve">
<path fill="#00477F" d="M125.786,89.354c-0.917-0.562-2.058-0.648-3.095-0.453c-0.983,0.166-1.892,0.599-2.791,1.011
	c-0.899,0.401-1.814,0.78-2.702,1.208c-1.658,0.76-3.357,1.432-5.065,2.068c0.058-0.333,0.089-0.668,0.129-1.003
	c0.015-0.136,0.038-0.268,0.05-0.405c0.108-1.168,0.11-2.347,0.004-3.517c-0.021-0.216-0.056-0.427-0.083-0.64
	c-0.046-0.354-0.092-0.706-0.156-1.056c-0.044-0.243-0.1-0.48-0.153-0.72c-0.075-0.326-0.151-0.647-0.241-0.969
	c-0.065-0.223-0.132-0.442-0.203-0.662c-0.109-0.339-0.228-0.672-0.355-1.001c-0.075-0.191-0.149-0.382-0.23-0.569
	c-0.146-0.34-0.302-0.674-0.469-1.005c-0.09-0.18-0.18-0.361-0.275-0.539c-0.054-0.098-0.096-0.199-0.151-0.295
	c-0.071-0.125-0.161-0.235-0.233-0.36c-0.255-0.423-0.522-0.834-0.808-1.234c-0.132-0.186-0.263-0.373-0.402-0.555
	c-0.413-0.536-0.846-1.055-1.314-1.539c-0.029-0.031-0.06-0.06-0.091-0.09c-0.465-0.475-0.96-0.915-1.476-1.334
	c-0.166-0.139-0.339-0.265-0.511-0.395c-0.406-0.309-0.824-0.598-1.256-0.869c-0.116-0.075-0.221-0.165-0.34-0.235
	c-0.058-0.034-0.121-0.056-0.18-0.09c-0.634-0.37-1.288-0.703-1.967-0.99c-0.185-0.078-0.374-0.142-0.561-0.212
	c-0.571-0.219-1.154-0.406-1.75-0.564c-0.172-0.044-0.342-0.096-0.515-0.137c-0.742-0.172-1.499-0.3-2.273-0.373
	c-0.134-0.012-0.268-0.012-0.402-0.021c-0.404-0.029-0.808-0.063-1.219-0.063c-0.233,0-0.461,0.026-0.693,0.036
	c-0.127,0.004-0.255-0.013-0.381-0.006c-0.108,0.006-0.213,0.035-0.321,0.042c-0.561,0.047-1.112,0.119-1.657,0.217
	c-0.169,0.03-0.34,0.046-0.509,0.08c-0.677,0.144-1.335,0.337-1.982,0.558c-0.222,0.074-0.438,0.162-0.657,0.247
	c-0.483,0.188-0.955,0.394-1.418,0.622c-0.195,0.097-0.392,0.188-0.584,0.29c-0.616,0.333-1.215,0.699-1.787,1.103
	c-0.026,0.018-0.056,0.031-0.082,0.05c-0.074,0.054-0.138,0.121-0.211,0.177c-0.531,0.393-1.037,0.815-1.522,1.265
	c-0.152,0.14-0.304,0.277-0.452,0.423c-0.526,0.521-1.026,1.07-1.486,1.656c-0.106,0.134-0.198,0.277-0.301,0.413
	c-0.364,0.492-0.704,1.003-1.021,1.531c-0.114,0.191-0.23,0.379-0.339,0.576c-0.354,0.646-0.677,1.312-0.954,2.002
	c-0.017,0.045-0.043,0.085-0.061,0.129c-0.097,0.247-0.166,0.503-0.251,0.754c-0.094,0.271-0.193,0.542-0.275,0.819
	c-0.094,0.321-0.167,0.648-0.243,0.975c-0.064,0.273-0.132,0.543-0.184,0.818c-0.063,0.341-0.107,0.686-0.152,1.028
	c-0.035,0.271-0.074,0.54-0.097,0.813c-0.03,0.345-0.041,0.691-0.051,1.037C77.023,89.602,77,89.799,77,90
	c0,0.096,0.012,0.188,0.013,0.281c0.002,0.1-0.007,0.197-0.004,0.297c0.008,0.337,0.041,0.672,0.069,1.007
	c0.009,0.116,0.012,0.235,0.024,0.35c0.059,0.586,0.143,1.166,0.258,1.742c0,0.006,0.002,0.01,0.003,0.016
	c0.108,0.538,0.243,1.067,0.398,1.594c0.055,0.188,0.121,0.37,0.181,0.554c0.112,0.341,0.228,0.68,0.36,1.013
	c0.083,0.21,0.173,0.419,0.264,0.628c0.131,0.3,0.269,0.597,0.416,0.89c0.104,0.207,0.209,0.408,0.319,0.608
	c0.158,0.289,0.327,0.572,0.5,0.853c0.119,0.189,0.235,0.381,0.361,0.566c0.176,0.262,0.365,0.513,0.555,0.766
	c0.147,0.197,0.292,0.396,0.448,0.588c0.023,0.028,0.043,0.059,0.067,0.088c0.054,0.064,0.117,0.118,0.171,0.182
	c0.382,0.449,0.784,0.877,1.207,1.286c0.116,0.111,0.232,0.22,0.351,0.329c0.439,0.402,0.897,0.783,1.375,1.139
	c0.079,0.06,0.156,0.125,0.236,0.183c0.584,0.423,1.192,0.812,1.826,1.159l0,0c0.614,0.337,1.254,0.628,1.908,0.891
	c0.044,0.017,0.085,0.042,0.129,0.06c0.057,0.021,0.116,0.032,0.172,0.053c0.654,0.247,1.322,0.458,2.008,0.626
	c0.045,0.01,0.088,0.025,0.133,0.035c1.272,0.3,2.591,0.473,3.951,0.473c0.191,0,0.376-0.023,0.565-0.029
	c0.127-0.006,0.253-0.013,0.38-0.021c0.676-0.036,1.341-0.109,1.995-0.223c0.05-0.009,0.102-0.007,0.151-0.017
	c0.03-0.006,0.06-0.016,0.091-0.021c0.437-0.082,0.864-0.186,1.288-0.3c0.096-0.025,0.191-0.048,0.287-0.075
	c0.43-0.124,0.85-0.266,1.266-0.421c0.102-0.038,0.204-0.077,0.306-0.117c0.377-0.149,0.748-0.31,1.113-0.486
	c0.172-0.08,0.341-0.166,0.511-0.252c0.271-0.142,0.54-0.285,0.804-0.44c0.11-0.065,0.228-0.119,0.338-0.186
	c0.238-0.146,0.485-0.311,0.739-0.49c0.144-0.1,0.277-0.211,0.418-0.312c0.137-0.104,0.272-0.207,0.41-0.316
	c0.821-0.641,1.585-1.354,2.285-2.128c0.222-0.239,0.431-0.477,0.63-0.716c0.046-0.056,0.092-0.111,0.136-0.167
	c0.283-0.351,0.546-0.696,0.754-1.024c0.021-0.034,0.039-0.064,0.06-0.1c0.511-0.754,0.955-1.554,1.352-2.385
	c0.032-0.064,0.062-0.132,0.092-0.197c0.155-0.335,0.309-0.67,0.442-1.014c0.09-0.229,0.168-0.466,0.249-0.699
	c0.086-0.253,0.184-0.497,0.26-0.754c1.38-0.829,2.883-1.413,4.347-2.073c1.315-0.582,2.602-1.232,3.907-1.835
	c0.589-0.263,1.175-0.55,1.799-0.72c0.997-0.278,2.039-0.36,3.068-0.408c0.756-0.038,1.507,0.071,2.259,0.094
	C126.633,90.03,126.246,89.644,125.786,89.354z"/>
<g id="_x23_fecc00ff_3_">
	<g>
		<path fill="#FFF500" d="M85.209,75.476c2.63-1.841,5.805-2.897,9.016-2.977c3.047-0.094,6.113,0.68,8.753,2.209
			c2.938,1.692,5.34,4.286,6.843,7.323c1.745,3.493,2.251,7.559,1.539,11.391c-0.979,0.239-1.985-0.096-2.787-0.654
			c-2.435-1.627-4.666-3.555-6.676-5.685c-1.206-1.242-2.224-2.674-2.958-4.246c-0.087-0.172-0.173-0.371-0.372-0.436
			c-2.663-1.152-5.322-2.314-7.991-3.449c0.873,2.291,2.505,4.245,4.492,5.657c-1.629-0.379-3.204-0.978-4.702-1.723
			c-2.668-1.378-5.156-3.069-7.688-4.678c0.56,1.851,1.324,3.635,2.239,5.333c0.988,1.893,2.055,3.778,3.544,5.327
			c1.438,1.558,3.133,2.888,5.037,3.826c2.813,1.406,5.767,2.519,8.778,3.418c-1.301,0.942-2.844,1.476-4.394,1.846
			c-1.501,0.355-3.024,0.612-4.536,0.913c-1.621,0.317-3.25,0.606-4.874,0.916c-0.508,0.105-1.041,0.213-1.473,0.521
			c-0.243,0.176-0.119,0.555,0.096,0.698c0.622,0.452,1.453,0.425,2.17,0.255c1.344-0.333,2.658-0.773,4.003-1.101
			c2.073-0.522,4.207-0.793,6.342-0.871c1.894-0.077,3.808-0.056,5.672-0.446c1.983-0.479,3.664-1.688,5.337-2.796
			c-0.548,1.596-1.374,3.089-2.345,4.469c-0.773,1.038-2.651,2.958-3.849,3.82c-2.136,1.541-4.64,2.573-7.246,2.97
			c-2.672,0.379-5.441,0.152-7.986-0.753c-3.095-1.091-5.844-3.12-7.832-5.727c-1.892-2.466-3.102-5.44-3.496-8.518
			c-0.379-3.088-0.004-6.28,1.194-9.155C80.329,80.083,82.472,77.367,85.209,75.476z"/>
	</g>
</g>
</svg>
