<?xml version="1.0" encoding="utf-8"?>
<!-- Generator: Adobe Illustrator 16.2.1, SVG Export Plug-In . SVG Version: 6.00 Build 0)  -->
<!DOCTYPE svg PUBLIC "-//W3C//DTD SVG 1.1//EN" "http://www.w3.org/Graphics/SVG/1.1/DTD/svg11.dtd">
<svg version="1.1" id="Logo" xmlns:svg="http://www.w3.org/2000/svg"
	 xmlns="http://www.w3.org/2000/svg" xmlns:xlink="http://www.w3.org/1999/xlink" x="0px" y="0px" width="50px" height="50px"
	 viewBox="450.5 165.5 50 50" enable-background="new 450.5 165.5 50 50" xml:space="preserve">
<g id="TWIN_x5F_JET" transform="matrix(0.9916173,0,0,0.9916173,1.5870982,-0.2833245)">
	<path id="path4" d="M456.677,187.152h-2.403l0.487-1.416h6.393l-0.487,1.416h-2.296l-2.13,6.242h-1.695L456.677,187.152z"/>
	<path id="path6" d="M466.487,193.394h-1.673l0.526-5.47h-0.021l-3.101,5.47h-1.695l0.482-7.658h1.684l-0.63,5.61h0.021l3.162-5.61
		h1.609l-0.542,5.588h0.022l3.074-5.588h1.684L466.487,193.394z"/>
	<path id="path8" d="M471.495,185.736h1.695l-2.627,7.658h-1.695L471.495,185.736z"/>
	<path id="path10" d="M474.241,185.736h1.738l1.365,5.449h0.021l1.811-5.449h1.545l-2.627,7.658h-1.684l-1.396-5.373h-0.021
		l-1.801,5.373h-1.577L474.241,185.736z"/>
	<path id="path12" d="M487.155,191.216c-0.541,1.502-1.447,2.361-3.11,2.361c-1.201,0-2.26-0.516-2.084-1.855
		c0.054-0.409,0.178-0.784,0.295-1.181h1.534c-0.119,0.332-0.236,0.655-0.268,0.901c-0.062,0.473,0.302,0.719,0.732,0.719
		c0.869,0,1.067-0.612,1.33-1.309l1.735-5.116h1.695L487.155,191.216z"/>
	<path id="path14" d="M490.483,185.736h5.846l-0.476,1.416h-4.162l-0.559,1.641h3.851l-0.451,1.309h-3.851l-0.644,1.876h4.226
		l-0.487,1.416h-5.91L490.483,185.736z"/>
	<path id="path16" d="M498.654,187.152h-2.403l0.487-1.416h6.393l-0.487,1.416h-2.296l-2.13,6.242h-1.695L498.654,187.152z"/>
</g>
<polygon id="Line" points="451.933,192.64 500.164,192.64 500.127,192.77 451.896,192.77 "/>
<g id="Partenaire" transform="matrix(0.9916173,0,0,0.9916173,1.5870982,-0.2833245)">
	<path id="path20" d="M453.581,196.214h1.011c0.493,0,0.731,0.241,0.669,0.709c-0.042,0.321-0.333,0.81-1.088,0.81h-0.763
		l-0.361,1.051h-0.342L453.581,196.214z M453.51,197.445h0.774c0.367,0,0.597-0.217,0.637-0.522
		c0.041-0.317-0.139-0.422-0.365-0.422h-0.723L453.51,197.445z"/>
	<path id="path22" d="M455.339,197.485c0.115-0.414,0.489-0.605,0.885-0.605c0.36,0,0.667,0.098,0.617,0.475
		c-0.014,0.104-0.067,0.238-0.102,0.339l-0.185,0.506c-0.025,0.077-0.074,0.181-0.086,0.267c-0.011,0.087,0.024,0.115,0.075,0.115
		c0.029,0,0.07-0.014,0.1-0.026l-0.077,0.227c-0.05,0.026-0.139,0.043-0.193,0.043c-0.169,0-0.246-0.1-0.207-0.262l-0.006-0.008
		c-0.152,0.173-0.345,0.27-0.658,0.27c-0.31,0-0.549-0.144-0.499-0.525c0.071-0.54,0.604-0.576,1.019-0.612
		c0.327-0.029,0.474-0.047,0.507-0.295c0.027-0.201-0.18-0.244-0.342-0.244c-0.234,0-0.476,0.093-0.544,0.335H455.339
		L455.339,197.485z M455.612,198.556c0.237,0,0.424-0.079,0.553-0.244c0.119-0.141,0.159-0.306,0.225-0.479h-0.007
		c-0.144,0.079-0.387,0.097-0.614,0.126c-0.224,0.032-0.427,0.1-0.458,0.338C455.289,198.471,455.439,198.556,455.612,198.556z"/>
	<path id="path24" d="M457.424,196.923h0.288l-0.142,0.4h0.007c0.177-0.256,0.422-0.443,0.734-0.443c0.036,0,0.073-0.007,0.108,0
		l-0.115,0.327c-0.028-0.004-0.061-0.004-0.09-0.004c-0.075,0-0.112,0-0.186,0.018c-0.175,0.043-0.319,0.156-0.435,0.303
		c-0.098,0.118-0.165,0.294-0.212,0.435l-0.284,0.823h-0.306L457.424,196.923z"/>
	<path id="path26" d="M459.011,196.923h0.37l-0.093,0.27h-0.371l-0.374,1.093c-0.009,0.043-0.021,0.08-0.027,0.122
		c-0.013,0.097,0.073,0.126,0.167,0.126c0.061,0,0.12-0.014,0.18-0.032l-0.091,0.28c-0.074,0.015-0.147,0.022-0.219,0.022
		c-0.227,0-0.409-0.065-0.378-0.301c0.007-0.055,0.02-0.098,0.038-0.156l0.396-1.155h-0.313l0.093-0.269h0.313l0.188-0.551h0.306
		L459.011,196.923z"/>
	<path id="path28" d="M459.531,197.946c-0.015,0.053-0.026,0.107-0.033,0.161c-0.038,0.288,0.174,0.449,0.423,0.449
		c0.266,0,0.466-0.125,0.583-0.356h0.306c-0.151,0.411-0.518,0.625-0.924,0.625c-0.616,0-0.732-0.423-0.69-0.747
		c0.094-0.712,0.604-1.199,1.114-1.199c0.547,0,0.748,0.299,0.68,0.823c-0.013,0.098-0.042,0.191-0.06,0.242H459.531
		L459.531,197.946z M460.688,197.676c0.056-0.264-0.028-0.526-0.366-0.526c-0.36,0-0.585,0.237-0.713,0.526H460.688z"/>
	<path id="path30" d="M461.583,196.923h0.295l-0.095,0.28h0.007c0.182-0.208,0.449-0.323,0.704-0.323
		c0.349,0,0.498,0.152,0.455,0.479c-0.01,0.079-0.05,0.219-0.102,0.363l-0.366,1.061h-0.305l0.38-1.086
		c0.024-0.068,0.073-0.224,0.081-0.289c0.023-0.175-0.11-0.258-0.29-0.258c-0.169,0-0.358,0.094-0.489,0.217
		c-0.12,0.093-0.197,0.24-0.256,0.388l-0.351,1.028h-0.306L461.583,196.923z"/>
	<path id="path32" d="M463.29,197.485c0.115-0.414,0.489-0.605,0.884-0.605c0.36,0,0.668,0.098,0.617,0.475
		c-0.014,0.104-0.067,0.238-0.102,0.339l-0.185,0.506c-0.024,0.077-0.074,0.181-0.085,0.267c-0.012,0.087,0.024,0.115,0.075,0.115
		c0.029,0,0.07-0.014,0.1-0.026l-0.077,0.227c-0.05,0.026-0.139,0.043-0.193,0.043c-0.168,0-0.245-0.1-0.207-0.262l-0.006-0.008
		c-0.152,0.173-0.345,0.27-0.658,0.27c-0.309,0-0.549-0.144-0.499-0.525c0.071-0.54,0.604-0.576,1.019-0.612
		c0.328-0.029,0.474-0.047,0.507-0.295c0.027-0.201-0.18-0.244-0.342-0.244c-0.233,0-0.476,0.093-0.544,0.335H463.29L463.29,197.485
		z M463.562,198.556c0.238,0,0.424-0.079,0.554-0.244c0.119-0.141,0.159-0.306,0.225-0.479h-0.007
		c-0.144,0.079-0.387,0.097-0.614,0.126c-0.224,0.032-0.427,0.1-0.458,0.338C463.239,198.471,463.389,198.556,463.562,198.556z"/>
	<path id="path34" d="M465.374,196.923h0.306l-0.633,1.859h-0.306L465.374,196.923z M465.796,196.589h-0.31l0.129-0.374h0.309
		L465.796,196.589z"/>
	<path id="path36" d="M466.137,196.923h0.288l-0.142,0.4h0.007c0.178-0.256,0.422-0.443,0.734-0.443c0.036,0,0.073-0.007,0.108,0
		l-0.115,0.327c-0.028-0.004-0.06-0.004-0.09-0.004c-0.075,0-0.111,0-0.185,0.018c-0.175,0.043-0.319,0.156-0.436,0.303
		c-0.098,0.118-0.165,0.294-0.212,0.435l-0.285,0.823h-0.306L466.137,196.923z"/>
	<path id="path38" d="M467.168,197.946c-0.015,0.053-0.026,0.107-0.033,0.161c-0.038,0.288,0.174,0.449,0.423,0.449
		c0.266,0,0.466-0.125,0.582-0.356h0.306c-0.151,0.411-0.518,0.625-0.924,0.625c-0.616,0-0.732-0.423-0.69-0.747
		c0.094-0.712,0.604-1.199,1.114-1.199c0.547,0,0.748,0.299,0.68,0.823c-0.013,0.098-0.042,0.191-0.06,0.242H467.168
		L467.168,197.946z M468.326,197.676c0.056-0.264-0.028-0.526-0.366-0.526c-0.36,0-0.585,0.237-0.713,0.526H468.326z"/>
</g>
<g id="FLYInGBlue" transform="matrix(0.9916173,0,0,0.9916173,1.5870982,-0.2833245)">
	<path id="path41" fill="#002454" d="M477.347,195.852l-0.995,1.357l-0.978-1.357h-0.658l1.367,1.826v1.268h0.521v-1.284l1.379-1.81
		H477.347L477.347,195.852z M473.995,195.852h-0.521v3.094h2.373v-0.447h-1.852V195.852L473.995,195.852z M470.79,198.946h0.511
		v-1.347h1.82v-0.457h-1.82v-0.833h1.905v-0.457h-2.415V198.946L470.79,198.946z M483.903,197.251c0,0.448,0,0.448,0,0.448
		c1,0,1,0,1,0c-0.064,0.531-0.495,0.868-1.1,0.868c-0.353,0-1.152-0.111-1.152-1.152c0-0.574,0.289-1.173,1.131-1.173
		c0.537,0,0.853,0.194,0.995,0.611c0,0.02,0,0.02,0,0.02c0.548,0,0.548,0,0.548,0c-0.01-0.041-0.01-0.041-0.01-0.041
		c-0.153-0.684-0.7-1.048-1.562-1.048c-0.743,0-1.626,0.437-1.626,1.674c0,0.726,0.437,1.573,1.648,1.573
		c0.615,0,0.947-0.258,1.141-0.474c0.073,0.368,0.073,0.368,0.073,0.368c0,0.022,0,0.022,0,0.022c0.379,0,0.379,0,0.379,0
		c0-1.695,0-1.695,0-1.695H483.903z M478.057,198.946h0.516v-3.094h-0.516V198.946z M478.878,195.852c0.584,0,0.584,0,0.584,0
		c0,0.5,0,0.5,0,0.5c0.011,0,0.011,0,0.011,0c0.279-0.426,0.763-0.569,1.205-0.569c0.742,0,1.295,0.316,1.295,1.079
		c0,2.084,0,2.084,0,2.084c-0.585,0-0.585,0-0.585,0c0-1.958,0-1.958,0-1.958c0-0.463-0.289-0.715-0.915-0.715
		c-0.537,0-1.01,0.315-1.01,0.904c0,1.769,0,1.769,0,1.769c-0.584,0-0.584,0-0.584,0V195.852L478.878,195.852z"/>
	<path id="path43" fill="#0095D8" d="M497.02,197.162c-0.079-0.551-0.51-0.857-1.058-0.857c-0.547,0-1.026,0.315-1.11,0.857H497.02z
		 M494.832,197.609c0.052,0.621,0.605,0.958,1.131,0.958c0.332,0,0.779-0.111,0.979-0.543c0.616,0,0.616,0,0.616,0
		c-0.289,0.737-0.968,1.032-1.573,1.032c-1.184,0-1.768-0.752-1.768-1.621c0-0.878,0.584-1.625,1.768-1.625
		c0.81,0,1.653,0.473,1.653,1.715c0,0.084,0,0.084,0,0.084H494.832z M489.107,198.499c0-2.647,0-2.647,0-2.647
		c-0.526,0-0.526,0-0.526,0c0,3.094,0,3.094,0,3.094c2.367,0,2.367,0,2.367,0c0-0.447,0-0.447,0-0.447H489.107z M487.286,198.499
		h-1.19v-0.941h1.232c0.495,0,0.563,0.289,0.563,0.452C487.891,198.336,487.686,198.499,487.286,198.499z M486.097,196.31h1.168
		c0.342,0,0.495,0.137,0.495,0.411c0,0.247-0.174,0.389-0.463,0.389c-1.199,0-1.199,0-1.199,0L486.097,196.31L486.097,196.31z
		 M487.891,197.283c0.258-0.115,0.385-0.326,0.385-0.636c0-0.353-0.169-0.795-0.969-0.795h-1.726v3.094h1.831
		c0.689,0,0.995-0.469,0.995-0.91C488.407,197.652,488.233,197.394,487.891,197.283z M494.063,198.904c-0.589,0-0.589,0-0.589,0
		c0-0.458,0-0.458,0-0.458c-0.011,0-0.011,0-0.011,0c-0.273,0.431-0.768,0.573-1.21,0.573c-0.742,0-1.284-0.315-1.284-1.083
		c0-2.084,0-2.084,0-2.084c0.584,0,0.584,0,0.584,0c0,1.964,0,1.964,0,1.964c0,0.447,0.279,0.715,0.905,0.715
		c0.542,0,1.016-0.321,1.016-0.921c0-1.758,0-1.758,0-1.758c0.589,0,0.589,0,0.589,0V198.904z"/>
</g>
</svg>
