<?xml version="1.0" encoding="utf-8"?>
<!-- Generator: Adobe Illustrator 16.2.1, SVG Export Plug-In . SVG Version: 6.00 Build 0)  -->
<!DOCTYPE svg PUBLIC "-//W3C//DTD SVG 1.1//EN" "http://www.w3.org/Graphics/SVG/1.1/DTD/svg11.dtd">
<svg version="1.1" id="svg2489" xmlns:svg="http://www.w3.org/2000/svg"
	 xmlns="http://www.w3.org/2000/svg" xmlns:xlink="http://www.w3.org/1999/xlink" x="0px" y="0px" width="50px" height="50px"
	 viewBox="60.343 36.517 50 50" enable-background="new 60.343 36.517 50 50" xml:space="preserve">
<g id="g2498" transform="matrix(1.25,0,0,-1.25,-262.2048,547.198)">
	<path id="path2534" fill="#FFBA00" d="M281.566,377.357l-0.122,0.312c0,0,3.258-0.37,4.116,1.044v0.184
		c0,0-5.286-0.306-6.268,3.934c0,0-2.946-0.004-2.952,0c-0.213,0.268-0.895,1.438-1.352,3.012c-0.125,0.423-1.107,3.566,2.276,4.491
		c3.379,0.919,5.212,0.878,5.778,2.395c0.549,1.464,1.266,2.459,1.96,3.024c0.304,0.245,0.517,0.361,0.686,0.418
		c0.29,0.07,0.43-0.122,0.43-0.122s0.498-0.648-0.027-1.023c-0.529-0.376-1.159-0.696-1.884-2.634
		c-0.747-2.002-2.625-2.176-3.628-2.415c-0.776-0.186-3.436-0.602-4.116-1.741c-0.618-1.044,0.031-2.485,0.137-2.793
		c0.486-1.282,0.755-1.666,0.755-1.666s4.516-0.02,5.316-0.02c1.109,0,1.543-0.32,2.089-0.986c0.127-0.151,0.357-0.29,0.614-0.245
		c0.502,0.086,0.921,0.431,0.921,0.431s0.431,0.241,0.063,0.863c-0.371,0.612-1.039,1.393-2.148,1.348
		c-0.994-0.041-5.851-0.255-5.851-0.255s-1.115,1.856-0.3,2.716c0.966,1.019,7.134,2.107,9.036,2.274
		c1.719,0.155,2.985,0.241,2.94-0.649c-0.012-0.306-0.025-0.516,0.049-0.63c0.092-0.149,0.306-0.166,0.549-0.113
		c0.086,0.02,0.233,0.12,0.29,0.214c0.68,0.755,2.013,3.389,2.013,3.389s1.666,2.989-1.043,3.383
		c-1.162,0.168-3.875,0.063-3.875,0.063s-0.42-0.047-0.611,0.368c-0.247,0.402-0.496,0.902-0.19,1.168
		c0.249,0.214,0.623,0.528,0.306,1.167c-0.212,0.578-0.404,0.602-0.845,0.602c-1.787,0.009-15.994,0-15.994,0
		s-0.984-0.049-0.37-1.096c0.613-1.043,0.821-1.455,0.494-1.658c-0.441-0.272-2.337,1.845-2.77,2.277
		c-0.429,0.428-1.656,0.634-2.703,0.673c-1.074,0.043-2.152,0-2.152,0s-0.516,0.019-0.31-0.673c0.278-0.913,1.098-3.199,1.838-3.571
		c0.733-0.367,2.346-0.672,2.346-0.672s0.68-0.038,0.49-0.677c-0.118-0.419-0.837-0.276-1.014-0.276
		c-0.308,0-0.523-0.216-0.523-0.216s-3.352-2.587-3.279-7.741c0.073-4.98,2.775-8.72,2.568-10.382
		c-0.17-1.38-1.18-2.172-2.611-2.605l-0.057-0.233c0,0,1.292-1.352,3.938-1.292c2.638,0.065,4.093,1.421,4.24,2.034h0.178
		c0,0,0.98-2.456-2.652-2.993l-0.123-0.296c0,0,1.699-1.078,3.973-0.901c3.679,0.288,7.564,3.255,10.32,2.744
		c1.978-0.367,1.294-2.021,1.294-2.021l0.221-0.216c0,0,1.566,1.078,2.221,2.777c0.371,0.968,0.554,2.264-0.237,3.42
		C284.765,377.09,281.566,377.357,281.566,377.357z M282.101,394.762c-0.492-0.2-0.85-0.173-0.978,0.043
		c-0.13,0.219-0.253,0.8-0.6,0.819c-0.349,0.014-0.78-0.019-0.78-0.019s0.651-1.214-0.706-1.377
		c-1.231-0.149-1.125,1.12-0.905,1.251l-2.823-0.338l-0.018,0.157c0,0,0.694,0.663,1.192,0.778c0.496,0.12,3.963,0.661,3.963,0.661
		s0.847,0.102,1.117-0.19c0.265-0.296,0.735-0.82,0.792-0.884C282.497,395.516,282.62,394.972,282.101,394.762"/>
	<path id="path2536" fill="#FF8700" d="M266.017,387.286c0,0-2.209-1.427-0.986-5.57c1.176-3.987,1.929-4.424,1.601-6.052
		l0.245-0.051c0,0,0.998,2.335,0.186,4.065c-0.947,2.023-1.247,4.25-1.219,5.6c0.027,1.266,0.4,1.898,0.4,1.898L266.017,387.286"/>
	<path id="path2538" fill="#FF8700" d="M269.39,381.735c0,0-1.609-1.145-0.384-3.734c0.655-1.38,0.817-2.602,0.635-3.332l0.223-0.08
		c0,0,0.768,1.435,0.466,2.803c-0.227,1.055-1.343,2.491-0.77,4.209L269.39,381.735"/>
	<path id="path2540" fill="#FF8700" d="M272.822,386.851c-0.065,3.573,2.27,4.263,2.27,4.263l-0.08,0.155
		c0,0-1.531-0.024-2.315-1.205c-0.841-1.253-0.076-3.213-0.076-3.213H272.822"/>
	<path id="path2542" fill="#FF8700" d="M283.318,375.874c0,0,1.993-1.109,1.331-4.694l0.129-0.137c0,0,2.276,3.534-1.411,4.967
		L283.318,375.874"/>
	<path id="path2544" fill="#FFBA00" d="M279.66,386.029c2.519,1.047,5.043,0.367,6.029-0.245c3.783-2.368,6.451-0.616,6.451-0.616
		l-0.09,0.237c-2.766-0.124-4.03,1.298-5.567,1.917c-4.475,1.792-6.948-1.106-6.948-1.106L279.66,386.029"/>
	<path id="path2546" fill="#FF8700" d="M270.766,400.034c0,0,0.073-0.319,0.394-0.266c0,0,3.614,0.266,7.603,0.266h-0.008h-0.014
		c3.993,0,7.882-0.266,7.882-0.266c0.311-0.053,0.449,0.266,0.449,0.266s0.145,1.698,1.472,3.513
		c0.823,1.121,3.504,3.523,1.805,3.15c0,0-1.905-0.58-3.914-1.802c0,0-1.935-0.88-1.339-2.054c0,0,0.8-1.498-1.433-1.317
		c-1.958,0.159-1.954,1.38-1.1,1.777c0.425,0.194,1.129,0.073,1.129,0.073s0.774-0.415,0.496,0.32
		c-0.241,0.623-0.619,2.066-2.254,1.668c0,0-0.872-0.312-0.378,0.167c0.504,0.488,0.686,0.805,0.1,1.493
		c-0.594,0.7-1.294,1.37-1.294,1.37c-0.325,0.343-0.654,0-0.654,0s-0.571-0.5-1.476-1.221c-0.968-0.765-0.884-1.213-0.475-1.657
		c0.496-0.555-0.517-0.149-0.517-0.149c-1.674,0.443-2.337-0.935-2.684-1.634c-0.357-0.71,0.363-0.388,0.363-0.388
		s0.357,0.173,1.033,0.022c0.968-0.214,0.768-1.8-1.431-1.835c-2.107-0.034-1.384,1.311-1.384,1.311
		c0.954,1.105-0.198,1.902-0.198,1.902c-1.237,1.121-3.787,1.968-3.787,1.968c-1.941,0.491-0.155-1.182-0.155-1.182
		C271.24,403.151,270.766,400.034,270.766,400.034"/>
</g>
</svg>
