<?xml version="1.0" encoding="utf-8"?>
<!-- Generator: Adobe Illustrator 16.2.1, SVG Export Plug-In . SVG Version: 6.00 Build 0)  -->
<!DOCTYPE svg PUBLIC "-//W3C//DTD SVG 1.1//EN" "http://www.w3.org/Graphics/SVG/1.1/DTD/svg11.dtd">
<svg version="1.1"
	 id="Layer_1" xmlns:cc="http://web.resource.org/cc/" xmlns:svg="http://www.w3.org/2000/svg" xmlns:dc="http://purl.org/dc/elements/1.1/" xmlns:rdf="http://www.w3.org/1999/02/22-rdf-syntax-ns#" xmlns:sodipodi="http://sodipodi.sourceforge.net/DTD/sodipodi-0.dtd" xmlns:inkscape="http://www.inkscape.org/namespaces/inkscape" inkscape:version="0.45.1" sodipodi:version="0.32"
	 xmlns="http://www.w3.org/2000/svg" xmlns:xlink="http://www.w3.org/1999/xlink" x="0px" y="0px" width="50px" height="50px"
	 viewBox="328.5 82.5 50 50" enable-background="new 328.5 82.5 50 50" xml:space="preserve">
<path id="path297" fill="#0077C0" d="M352.535,100.895c0,0-0.613-1.127-0.632-2.061c-0.019-0.932-0.139-2.756-0.454-3.982
	c-0.317-1.229-1.346-3.684-2.334-5.271c-0.991-1.583-1.485-2.872-2.693-3.605c-1.208-0.732-1.525-1.368-2.573-1.585
	c-1.05-0.22-1.962-0.456-2.557,0.136c-0.594,0.595-1.721,1.604-1.843,2.753c-0.119,1.147-0.021,2.834,1.026,5.032
	c1.05,2.199,2.079,4.655,3.366,6.342c1.287,1.686,3.643,4.718,3.643,4.718s-1.037-0.462-1.506-0.728
	c-1.124-0.63-1.919-1.458-2.81-1.754c-0.893-0.299-2.24-1.028-3.328-1.129s-2.674-0.299-3.684-0.438
	c-1.01-0.141-3.189-0.339-4.121-0.122c-0.931,0.22-2.457,0.633-2.696,1.545c-0.239,0.909-0.437,2.494,0.019,3.107
	c0.456,0.614,1.129,1.368,2.812,1.865c1.683,0.497,2.771,0.991,3.684,1.428c0.909,0.435,2.829,1.154,4.246,1.312
	c1.528,0.171,2.646,0.396,3.122,0.358c0.478-0.041,3.195-0.035,3.195-0.035s-0.676,0.432-1.737,0.879
	c-1.265,0.529-3.081,1.151-4.368,2.042c-1.289,0.893-2.123,0.912-2.758,1.428s-1.105,1.354-1.382,1.986
	c-0.277,0.636-0.581,0.924-1.056,1.556c-0.478,0.638-1.686,2.082-1.922,2.994c-0.239,0.909-0.339,1.803,0.135,2.356
	c0.475,0.557,1.466,1.545,3.228,1.01c1.767-0.532,3.626-0.967,4.875-1.74c1.249-0.771,2.932-1.661,4.262-3.067
	c1.327-1.406,4.617-4.93,4.617-4.93s-0.377,1.13-1.05,2.753c-0.676,1.623-1.349,3.844-1.39,5.149
	c-0.041,1.309-0.043,3.488,0.114,5.19c0.16,1.702,0.554,2.891,1.406,4.102c0.85,1.208,1.9,2.022,3.008,1.466
	c1.113-0.554,1.906-1.146,2.242-2.552c0.339-1.409,0.497-2.875,0.855-3.743c0.356-0.874,1.526-3.189,1.507-5.111
	c-0.022-1.92,0.082-2.614-0.217-4.3c-0.293-1.684-0.79-3.564-0.79-3.564s0.535,0.572,1.189,1.981
	c0.654,1.403,1.385,3.171,3.166,4.753c1.783,1.586,4.357,3.966,5.844,4.859c1.485,0.891,2.932,2.101,3.86,1.683
	c0.934-0.412,1.745-1.661,1.962-3.107c0.217-1.444,0.535-2.992-0.535-4.734c-1.067-1.746-2.769-3.567-4.75-5.152
	c-1.979-1.585-3.225-2.598-4.512-3.293c-1.287-0.692-2.913-1.563-2.913-1.563s0.792,0,1.9,0.435c1.11,0.437,2.913,0.975,4.3,0.975
	c1.387,0,2.872-0.098,4.617-0.573c1.743-0.473,3.228-0.755,4.256-1.484c0.95-0.674,1.705-1.148,2.378-1.583
	c0.676-0.435,2.121-1.208,1.648-2.356c-0.475-1.147-1.347-2.101-3.152-2.636c-1.802-0.534-4.81-1.213-6.971-0.877
	c-2.161,0.337-3.923,0.674-5.627,1.228s-4.97,1.84-4.97,1.84s0.494-0.893,2.139-2.258c1.642-1.365,2.972-2.375,4.023-4.335
	c1.05-1.963,1.805-2.832,2.201-4.615c0.399-1.783,0.22-2.041,0.399-2.973c0.176-0.931,0.969-2.516,0.635-3.287
	c-0.337-0.771-1.566-1.645-2.872-1.487c-1.309,0.16-2.994,0.85-3.944,1.721s-2.329,2.202-3.866,5.25
	C354.261,95.329,352.535,100.895,352.535,100.895"/>
<path id="path299" fill="#FFFFFF" d="M351.5,99.659c0,0-0.613-1.13-0.632-2.058c-0.019-0.934-0.139-2.758-0.454-3.985
	c-0.317-1.227-1.346-3.687-2.334-5.269c-0.991-1.586-1.485-2.875-2.693-3.607c-1.21-0.736-1.523-1.368-2.576-1.586
	c-1.047-0.22-1.962-0.458-2.554,0.136c-0.594,0.595-1.724,1.604-1.843,2.756c-0.119,1.146-0.021,2.831,1.026,5.029
	c1.05,2.199,2.079,4.656,3.366,6.342c1.287,1.683,3.483,4.561,3.483,4.561s-1.167-0.418-1.485-0.855
	c-0.315-0.437-1.425-1.469-2.318-1.768c-0.888-0.295-2.592-0.732-3.684-0.83c-1.088-0.101-2.047-0.105-3.057-0.244
	c-1.012-0.139-3.189-0.34-4.121-0.12c-0.931,0.218-2.695,0.967-2.935,1.876c-0.236,0.912-0.404,1.325,0.462,2.405
	c0.478,0.598,0.722,1.338,2.405,1.838c1.683,0.497,2.414,1.102,3.323,1.542c0.912,0.434,2.886,1.004,4.297,1.213
	c0.861,0.128,1.078,0.317,3.266,0.514c0.44,0.038,3.662,0.092,3.662,0.092s-1.295,0.833-2.424,1.051
	c-1.126,0.214-3.119,0.776-4.408,1.667c-1.29,0.89-2.139,1.229-2.774,1.745c-0.632,0.516-1.061,1.202-1.338,1.835
	c-0.28,0.633-0.494,1.002-0.969,1.637c-0.478,0.633-1.688,2.079-1.925,2.989c-0.239,0.912-0.448,1.669,0.03,2.223
	c0.473,0.554,1.466,1.545,3.228,1.01c1.762-0.532,3.624-0.964,4.875-1.737c1.246-0.771,2.932-1.664,4.259-3.07
	c1.327-1.405,4.62-4.93,4.62-4.93s-0.377,1.13-1.053,2.753c-0.673,1.623-1.349,3.844-1.39,5.149
	c-0.038,1.309-0.041,3.485,0.117,5.188c0.157,1.705,0.551,2.896,1.406,4.107c0.85,1.205,1.897,2.02,3.008,1.466
	c1.11-0.557,1.903-1.151,2.24-2.555c0.339-1.408,0.497-2.872,0.855-3.746c0.355-0.871,1.525-3.187,1.509-5.108
	c-0.022-1.922,0.079-2.614-0.217-4.297c-0.296-1.687-0.79-3.567-0.79-3.567s0.535,0.573,1.187,1.981
	c0.654,1.403,1.384,3.171,3.168,4.753c1.783,1.589,4.356,3.967,5.841,4.859c1.485,0.891,2.932,2.099,3.86,1.684
	c0.934-0.416,1.746-1.662,1.965-3.108c0.217-1.444,0.535-2.991-0.532-4.731c-1.069-1.748-2.771-3.57-4.753-5.155
	c-1.979-1.585-3.225-2.598-4.515-3.293c-1.287-0.691-2.913-1.563-2.913-1.563s0.793,0,1.903,0.435c1.108,0.438,2.91,0.975,4.3,0.975
	c1.385,0,2.87-0.101,4.615-0.57c1.743-0.475,3.23-0.757,4.259-1.484c0.953-0.676,1.705-1.148,2.378-1.586
	c0.673-0.437,2.12-1.205,1.645-2.355c-0.475-1.151-1.346-2.102-3.149-2.637c-1.8-0.534-4.813-1.21-6.974-0.874
	c-2.158,0.332-3.92,0.668-5.627,1.228c-1.702,0.551-4.97,1.84-4.97,1.84s0.494-0.896,2.139-2.261s2.975-2.375,4.026-4.335
	c1.05-1.963,1.802-2.831,2.199-4.615c0.399-1.786,0.22-2.041,0.399-2.972c0.179-0.932,0.972-2.514,0.635-3.288
	c-0.337-0.773-1.563-1.645-2.872-1.487s-2.991,0.85-3.944,1.724c-0.95,0.871-2.326,2.202-3.865,5.245
	C353.227,94.092,351.5,99.659,351.5,99.659"/>
<path id="path309" fill="#A3DEF9" d="M358.488,116.177c-0.087-0.052,3.439,4.063,5.082,5.158c1.643,1.097,4.064,2.581,4.458,2.581
	c0.391,0-3.912-3.206-5.315-4.536C361.303,118.053,358.786,116.359,358.488,116.177"/>
<path id="path311" fill="#A3DEF9" d="M362.467,100.275c2.97-0.627,5.519-1.341,8.836-0.942c2.579,0.315,4.481,1.414,5.236,2.349
	c0,0-0.869-0.516-2.267-0.86c-3.648-0.896-2.346-0.236-5.394-0.47s-2.97-0.312-4.221-0.155L362.467,100.275z"/>
<path id="path313" fill="#A3DEF9" d="M351.387,107.447c0.423-0.685,0.719-0.736,1.583,0.575c0.616,0.857,1.547,1.621,1.922,2.213
	c0.548,0.86,1.254,2.578,1.8,3.363c0,0-0.942-2.427-1.412-3.755c-0.47-1.327-3.222-2.348-1.504-3.051
	c0.641-0.258,0.125-0.747,0.516-0.747c0.407,0.027,1.971,0.48,1.99,0.489c0.052,0.016-2.199-0.692-1.729-1.719
	c0.47-1.028,0.722-1.001,1.607-1.661c0.89-0.662,2.839-1.447,2.839-1.447c-1.376,0.454-2.685,0.853-3.483,1.168
	c-0.771,0.304-1.354,0.809-1.846,1.034c-0.217,0.021-0.521-0.163-0.638-0.288c-0.166-0.182-0.12-0.412-0.16-0.665
	c0.073-0.73,0.098-1.458,0.073-2.196c-0.03-0.841-0.198-1.356,1.053-3.938c1.251-2.581,2.34-2.137,3.941-4.411
	c0.627-0.888,1.563-3.752,2.036-4.846c0.467-1.094,1.203-2.983,3.233-3.61c1.075-0.334,2.003,0.171,2.003,0.171
	c-0.47-1.254-2.172-0.771-3.814-0.304c-1.64,0.47-3.719,1.748-5.723,6.792c-0.328,0.825-1.189,2.959-1.555,3.771
	c-0.687,1.512-0.923,1.683-1.526,3.23c-0.225,0.583-0.475,1.161-0.695,1.745c-0.07,0.192-0.22,0.407-0.266,0.603
	c-0.008,0.038-0.011,0.073-0.016,0.111c-0.021,0.404,0.339,0.717,0.47,1.072c0.101,0.269,0.179,1.189,0.16,1.49
	c0.016,0.564-0.589,0.486-0.763,0.573c-0.689,0.355-1.678-0.079-2.253-0.552c-0.931-0.888-2.112-2.209-2.63-2.733
	c-1.699-1.724-1.455-4.033-2.807-6.028c-1.33-1.955-4.979-3.328-3.442-6.488c0.801-1.64,0-2.814,0.627-3.673
	c0.594-0.825-3.988,1.64-0.236,9.066c3.751,7.43,4.848,7.112,5.161,7.818c0.182,0.407,0.548,0.996,0.961,1.441
	c-0.166,0.648-2.617-1.138-3.377-1.521c-1.439-0.717-1.729-0.882-4.962-1.362s-4.373-0.476-5.866-0.6
	c-2.875-0.239-3.713,1.379-3.713,1.379c1.737-0.839,3.233-1.138,4.851-0.72c1.618,0.421,2.948,0.092,5.043,0.57
	c2.096,0.478,5.795,2.776,7.378,3.179c1.203,0.301,3.526,0.475,3.942,1.243c1.061,1.976-1.754,0.999-2.671,2.212
	c-1.14,1.51-1.976,1.76-5.103,2.935c-3.127,1.17-5.709,2.579-6.567,4.222c-0.86,1.64-2.033,2.812-2.736,3.906
	c-0.703,1.094-1.8,4.221,1.094,4.142c0,0-2.256-0.404-1.403-2.035c0.773-1.475,0.776-2.495,2.497-3.201
	c1.721-0.703,0.682-3.464,2.948-4.481c2.267-1.016,4.335-1.298,5.689-1.686c1.672-0.478,2.807-2.677,3.722-3.273
	c2.424-1.58,3.548,0.035,2.565,2.459C350.195,109.429,350.968,108.131,351.387,107.447"/>
<path id="path315" fill="#A3DEF9" d="M348.873,115.004c-0.388,1.252-0.63,2.346-0.937,4.534c-0.31,2.188-0.155,2.188-0.312,4.142
	c-0.157,1.955,0,2.736,0.782,4.379c1.735,3.643,2.555,2.02,2.812,2.033c0,0-1.306,0.404-1.485-3.597
	c-0.038-0.831,0.157-2.267-0.079-3.594c-0.233-1.33,0.469-3.052,0.469-3.991c0-0.937-1.04-5.111-0.491-6.989L348.873,115.004z"/>
<path id="path317" fill="#FFFFFF" d="M352.527,104.646c0.32,0.261,0.554,0.567,0.385,0.923c-0.171,0.354-0.567,0.81-1.037,0.595
	c-0.467-0.212-0.594-0.396-0.608-0.793c-0.016-0.396,0.127-0.766,0.538-0.822C352.217,104.491,352.301,104.461,352.527,104.646"/>
</svg>
