<?xml version="1.0" encoding="utf-8"?>
<!-- Generator: Adobe Illustrator 16.2.1, SVG Export Plug-In . SVG Version: 6.00 Build 0)  -->
<!DOCTYPE svg PUBLIC "-//W3C//DTD SVG 1.1//EN" "http://www.w3.org/Graphics/SVG/1.1/DTD/svg11.dtd">
<svg version="1.1" id="svg2367" xmlns:svg="http://www.w3.org/2000/svg"
	 xmlns="http://www.w3.org/2000/svg" xmlns:xlink="http://www.w3.org/1999/xlink" x="0px" y="0px" width="50px" height="50px"
	 viewBox="393.414 106.031 50 50" enable-background="new 393.414 106.031 50 50" xml:space="preserve">
<path fill="#D50000" d="M433.4,117.031h-14.012v28.025h8.031v-7.999h5.981c5.545,0,10.014-4.469,10.014-10.014
	C443.415,121.534,438.945,117.031,433.4,117.031z M433.385,129.061h-5.981v-3.998h5.981c1.109,0,2.016,0.872,2.016,1.981
	C435.4,128.153,434.494,129.061,433.385,129.061z"/>
<path id="path5976" fill="#BFCE00" d="M419.388,117.031v28.025l-1.479-5.008h-9.005l-1.512,5.008h-7.997v-19.994h-5.981v-8.031
	H419.388z M415.49,132.052l-2.083-6.989l-2.117,6.989H415.49"/>
<path id="path5978" fill="#75AF00" d="M399.395,145.057h7.997v-19.994h6.015v-8.031h-6.015L399.395,145.057"/>
<path id="path5980" fill="#AA0000" d="M419.388,145.057h8.031l-8.031-28.025V145.057"/>
</svg>
