<?xml version="1.0" encoding="utf-8"?>
<!-- Generator: Adobe Illustrator 16.2.1, SVG Export Plug-In . SVG Version: 6.00 Build 0)  -->
<!DOCTYPE svg PUBLIC "-//W3C//DTD SVG 1.1//EN" "http://www.w3.org/Graphics/SVG/1.1/DTD/svg11.dtd">
<svg version="1.1" id="Layer_1" xmlns="http://www.w3.org/2000/svg" xmlns:xlink="http://www.w3.org/1999/xlink" x="0px" y="0px"
	 width="50px" height="50px" viewBox="8.23 37.952 50 50" enable-background="new 8.23 37.952 50 50" xml:space="preserve">
<path fill="#525350" d="M55.188,59.936L55.188,59.936c0.262-0.84,1.417-1.522,2.099-1.522c0.576,0,0.943,0.316,0.943,0.893v0.84
	c0,0.524-0.524,0.839-1.101,0.839c-1.26,0-1.89,1.103-1.89,2.413v2.31c0,0.576-0.262,0.892-0.786,0.892h-0.998
	c-0.524,0-0.839-0.315-0.839-0.892v-6.349c0-0.578,0.315-0.893,0.839-0.893h0.893c0.523,0,0.839,0.314,0.839,0.893V59.936"/>
<path fill="#525350" d="M37.664,59.936L37.664,59.936c0.262-0.84,1.417-1.521,2.152-1.521c0.524,0,0.891,0.315,0.891,0.893v0.839
	c0,0.524-0.471,0.84-1.048,0.84c-1.26,0-1.89,1.102-1.89,2.413v2.309c0,0.577-0.262,0.893-0.84,0.893h-0.997
	c-0.524,0-0.786-0.315-0.786-0.893v-6.349c0-0.577,0.262-0.892,0.786-0.892h0.893c0.575,0,0.839,0.314,0.839,0.892V59.936"/>
<path fill="#F69E25" d="M50.414,57.574L50.414,57.574c-1.155,0-2.047-0.944-2.047-2.046c0-1.155,0.892-2.099,2.047-2.099
	c1.101,0,1.993,0.943,1.993,2.099C52.407,56.63,51.515,57.574,50.414,57.574"/>
<path fill="#525350" d="M15.733,57.574L15.733,57.574c-1.102,0-2.046-0.944-2.046-2.046c0-1.155,0.944-2.099,2.046-2.099
	c1.154,0,2.046,0.943,2.046,2.099C17.779,56.63,16.834,57.574,15.733,57.574"/>
<path fill="#525350" d="M45.167,61.563h0.262v-0.105c0-0.682-0.578-0.893-1.155-0.893c-0.524,0-1.102,0.158-1.521,0.315
	c-0.524,0.262-0.892,0.157-1.154-0.368l-0.21-0.366c-0.262-0.473-0.157-0.893,0.367-1.154c0.63-0.262,1.574-0.63,2.781-0.63
	c2.256,0,3.672,1.259,3.672,3.253v4.093c0,0.577-0.315,0.892-0.892,0.892H46.53c-0.577,0-0.839-0.314-0.839-0.892v-0.053
	c0-0.105,0-0.21,0-0.21l-0.053,0.053c0,0-0.787,1.259-2.413,1.259c-1.574,0-2.728-1.049-2.728-2.413
	C40.498,62.192,43.172,61.563,45.167,61.563 M43.854,64.867L43.854,64.867c0.892,0,1.575-0.892,1.575-1.627v-0.209h-0.262
	c-0.997,0-2.257,0.262-2.257,1.102C42.91,64.553,43.277,64.867,43.854,64.867z"/>
<path fill="#525350" d="M9.332,60.776H9.069c-0.524,0-0.839-0.264-0.839-0.84v-0.367c0-0.577,0.315-0.892,0.839-0.892h0.315v-1.47
	c0-0.577,0.314-0.84,0.839-0.84h0.892c0.577,0,0.892,0.263,0.892,0.84v1.47h0.787c0.525,0,0.84,0.314,0.84,0.892v0.367
	c0,0.576-0.315,0.84-0.84,0.84h-0.787v2.465c0,0.683,0.419,0.945,0.892,1.05c0.629,0.053,0.839,0.263,0.839,0.84v0.734
	c0,0.63-0.419,0.839-1.102,0.839c-1.154,0-3.306-0.576-3.306-2.938V60.776"/>
<path fill="#525350" d="M14.421,59.359L14.421,59.359c0-0.578,0.262-0.893,0.839-0.893h0.944c0.577,0,0.892,0.314,0.892,0.893v6.349
	c0,0.577-0.315,0.892-0.892,0.892h-0.944c-0.578,0-0.839-0.314-0.839-0.892V59.359"/>
<path fill="#525350" d="M49.102,59.359L49.102,59.359c0-0.578,0.262-0.893,0.786-0.893h0.998c0.524,0,0.839,0.314,0.839,0.893v6.349
	c0,0.577-0.315,0.892-0.839,0.892h-0.998c-0.524,0-0.786-0.314-0.786-0.892V59.359"/>
<path fill="#525350" d="M30.843,58.362L30.843,58.362c2.413,0,3.673,1.679,3.673,3.83c0,0.473-0.368,0.944-0.893,0.944h-4.145
	c0.21,0.944,0.997,1.417,1.836,1.417c0.525,0,1.05-0.21,1.469-0.367c0.472-0.263,0.839-0.21,1.102,0.314l0.262,0.419
	c0.21,0.473,0.159,0.893-0.314,1.155c-0.577,0.367-1.521,0.734-2.728,0.734c-2.833,0-4.355-2.046-4.355-4.25
	C26.75,60.198,28.325,58.362,30.843,58.362 M31.997,61.563L31.997,61.563c0-0.683-0.419-1.26-1.154-1.26
	c-0.787,0-1.154,0.577-1.312,1.26H31.997z"/>
<path fill="#525350" d="M23.445,65.812v0.053c0,0.314,0,0.839,0,1.259c0.21-0.209,0.524-0.314,0.892-0.314h0.945
	c0.367,0,0.682,0.105,0.839,0.314v-7.87c0-0.576-0.315-0.892-0.839-0.892h-0.997c-0.472,0-0.787,0.263-0.839,0.734v0.053
	c0,0-0.472-0.787-2.099-0.787c-2.098,0-3.62,1.679-3.62,4.197s1.416,4.25,3.567,4.25C22.553,66.809,23.183,66.126,23.445,65.812
	 M21.923,64.553L21.923,64.553c-0.944,0-1.626-0.734-1.626-1.994c0-1.206,0.787-1.941,1.626-1.941c1.05,0,1.626,0.997,1.626,1.941
	C23.55,63.976,22.711,64.553,21.923,64.553z"/>
<path fill="#F69E25" d="M26.121,68.75v-0.315c0-0.577-0.315-0.892-0.839-0.892h-0.945c-0.262,0-0.472,0.104-0.629,0.263
	c-0.105,0.157-0.158,0.315-0.158,0.629c0,0.525-0.262,0.892-0.472,1.103c-0.21,0.21-0.525,0.314-0.997,0.314
	c-0.524,0-0.839-0.104-1.049-0.314c-0.157-0.21-0.472-0.472-0.42-1.103c0-0.314-0.104-0.472-0.209-0.577
	c-0.105-0.209-0.368-0.314-0.63-0.314h-0.944c-0.578,0-0.84,0.314-0.84,0.892v0.367c0,0,0,0,0.052,0.368
	c0.105,1.731,1.994,3.253,4.04,3.305c1.994-0.052,3.883-1.573,4.04-3.305C26.121,69.17,26.121,68.96,26.121,68.75"/>
</svg>
