<?xml version="1.0" encoding="utf-8"?>
<!-- Generator: Adobe Illustrator 16.2.1, SVG Export Plug-In . SVG Version: 6.00 Build 0)  -->
<!DOCTYPE svg PUBLIC "-//W3C//DTD SVG 1.1//EN" "http://www.w3.org/Graphics/SVG/1.1/DTD/svg11.dtd">
<svg version="1.1" id="Ebene_1" xmlns="http://www.w3.org/2000/svg" xmlns:xlink="http://www.w3.org/1999/xlink" x="0px" y="0px"
	 width="50px" height="50px" viewBox="234.25 100.5 50 50" enable-background="new 234.25 100.5 50 50" xml:space="preserve">
<g>
	<path fill="#25BBE7" d="M248.19,123.738c-0.001,0-2.833,8.16-3.37,13.518c1.942-4.668,5.667-11.175,7.927-14.25
		c-3.193-2.605-9.083-5.344-9.083-5.344s4.662-1.996,14.075-2.493c0,0,3.917-7.571,14.025-14.669
		c-6.115,1.959-11.891,7.188-17.768,12.889c-7.525,0.392-15.668,3.409-16.536,3.787C246.124,121.664,248.19,123.738,248.19,123.738
		L248.19,123.738z"/>
	<path fill="#25BBE7" d="M282.25,117.767c-7.354-2.965-16.433-3.726-16.433-3.726s-0.199-2.328,0.501-6.798
		c-0.864,1.862-2.439,5.84-2.707,8.814c6.616,0.517,11.132,2.017,11.132,2.017s-6.706,2.539-10.42,5.465
		c0.681,1.655,2.17,6.449,3.03,10.154c-1.462-1.315-5.773-4.874-8.904-6.77c-4.184,1.618-15.721,13.028-22.201,23.576
		c2.807-2.919,11.024-12.195,22.154-18.905c2.276,1.338,12.859,8.267,12.859,8.267s-2.31-12.316-3.184-15.124
		C271.396,122.473,276.988,119.389,282.25,117.767L282.25,117.767z"/>
</g>
</svg>
