<?xml version="1.0" encoding="utf-8"?>
<!-- Generator: Adobe Illustrator 16.2.1, SVG Export Plug-In . SVG Version: 6.00 Build 0)  -->
<!DOCTYPE svg PUBLIC "-//W3C//DTD SVG 1.1//EN" "http://www.w3.org/Graphics/SVG/1.1/DTD/svg11.dtd">
<svg version="1.1" id="svg2367" xmlns:svg="http://www.w3.org/2000/svg"
	 xmlns="http://www.w3.org/2000/svg" xmlns:xlink="http://www.w3.org/1999/xlink" x="0px" y="0px" width="50px" height="50px"
	 viewBox="0 0 50 50" enable-background="new 0 0 50 50" xml:space="preserve">
<path id="path16213" fill="#D40000" d="M12.033,10l-0.591,0.674h11.53L22.344,10H12.033z M7.313,11.134l-0.495,0.541h17.155
	l-0.501-0.541H7.313z M6.881,12.102l0.727,0.699h8.196l0.704-0.699H6.881z M25.608,13.261l-15.63,0.005l0.561,0.572h15.609
	L25.608,13.261z M10.726,14.262c0,0,0.076,0.226,0.089,0.373c0.025,0.191,0,0.388,0,0.388h2.755l0.747-0.761H10.726z M10.726,15.421
	l-0.444,0.605h18.07l-0.59-0.605H10.726z M9.874,16.393l-0.734,0.699h2.622l0.515-0.699H9.874z M8.656,17.557l-0.487,0.557h22.255
	l-0.504-0.557H8.656z M7.868,18.554c0,0-0.172,0.199-0.276,0.342c-0.108,0.158-0.196,0.418-0.196,0.418h3.576
	c0,0,0.029-0.26,0.07-0.418c0.053-0.144,0.091-0.342,0.091-0.342H7.868z M7.195,19.711c0,0-0.069,0.119-0.144,0.271
	c-0.077,0.147-0.129,0.286-0.129,0.286h25.703l-0.557-0.558H7.195z M6.752,20.712c0,0-0.102,0.2-0.145,0.362
	c-0.052,0.17-0.095,0.367-0.095,0.367h4.515c0,0-0.015-0.183-0.044-0.351c-0.035-0.166-0.03-0.378-0.03-0.378H6.752z M6.424,21.865
	c0,0-0.063,0.141-0.093,0.292c-0.036,0.148-0.05,0.286-0.05,0.286h28.492l-0.498-0.578H6.424z M6.253,22.888
	c0,0-0.018,0.204-0.027,0.372c-0.013,0.17-0.019,0.354-0.019,0.354h5.826l-0.536-0.726H6.253z M6.218,24.063
	c0,0,0.016,0.158,0.016,0.292c0,0.115,0.004,0.253,0.004,0.253h30.725l-0.47-0.545H6.218z M6.295,25.064
	c0,0,0.024,0.243,0.052,0.378c0.028,0.142,0.103,0.368,0.103,0.368h8.748c0,0-0.475-0.219-0.838-0.359
	c-0.367-0.128-0.79-0.387-0.79-0.387H6.295z M24.688,25.075l-0.73,0.736h5.162l-0.722-0.736H24.688z M6.567,26.273
	c0,0,0.027,0.141,0.083,0.281c0.062,0.129,0.101,0.235,0.101,0.235h32.454l-0.581-0.517H6.567z M0.682,27.236l-0.62,0.668h31.303
	l0.645-0.668H0.682z M0,28.4l0.535,0.558h40.798L40.768,28.4H0z M8.202,29.416l0.533,0.637h24.654l-0.672-0.637H8.202z
	 M0.958,29.424l0.638,0.607h2.219l-0.655-0.607H0.958z M2.191,30.592l0.545,0.525h2.127l-0.448-0.525H2.191z M9.339,30.613
	c0,0,0.172,0.139,0.326,0.238c0.146,0.106,0.33,0.266,0.33,0.266h33.538l-0.479-0.504H9.339z M3.161,31.598l0.706,0.656h2.187
	l-0.663-0.656H3.161z M10.726,31.598c0,0,0.287,0.172,0.603,0.305c0.326,0.143,0.888,0.352,0.888,0.352h6.164l1.37-0.656H10.726z
	 M28.72,31.598c0,0,0.091,0.139,0.231,0.319c0.135,0.186,0.277,0.333,0.277,0.333l6.385-0.005l-0.671-0.647H28.72z M4.351,32.789
	l0.536,0.51h2.159l-0.538-0.51H4.351z M29.74,32.789l0.774,0.516h15.156c0,0-0.095-0.156-0.157-0.23
	c-0.063-0.071-0.259-0.285-0.259-0.285H29.74z M31.127,33.764c0,0,0.275,0.186,0.624,0.348c0.351,0.17,1.015,0.362,1.015,0.362
	h13.089c0,0-0.144-0.181-0.249-0.286c-0.105-0.106-0.445-0.424-0.445-0.424H31.127z M5.362,33.787l0.68,0.658h2.194l-0.711-0.658
	H5.362z M6.512,34.916l0.44,0.506h2.225l-0.486-0.506H6.512z M40.088,34.977c0,0,0.376,0.109,0.966,0.217
	c0.596,0.109,1.641,0.318,1.641,0.318H47.9l-0.481-0.535H40.088z M7.498,35.935l0.738,0.703h0.967v-0.703H7.498z M44.312,35.99
	l1.19,0.714h2.505l-0.652-0.714H44.312z M8.64,37.109l0.582,0.552v-0.552H8.64z M46.682,37.2c0,0,0.219,0.134,0.472,0.238
	c0.262,0.105,0.764,0.268,0.764,0.268H50L49.606,37.2H46.682z"/>
</svg>
