<?xml version="1.0" encoding="utf-8"?>
<!-- Generator: Adobe Illustrator 16.2.1, SVG Export Plug-In . SVG Version: 6.00 Build 0)  -->
<!DOCTYPE svg PUBLIC "-//W3C//DTD SVG 1.1//EN" "http://www.w3.org/Graphics/SVG/1.1/DTD/svg11.dtd">
<svg version="1.1" id="Layer_1" xmlns="http://www.w3.org/2000/svg" xmlns:xlink="http://www.w3.org/1999/xlink" x="0px" y="0px"
	 width="50px" height="50px" viewBox="0 0 50 50" enable-background="new 0 0 50 50" xml:space="preserve">
<g>
	<defs>
		<path id="SVGID_1_" d="M7.877,19.375l0.405-0.11l-0.459,0.34c-0.034,0.162-0.057,0.314-0.065,0.452l0.416-0.282L7.754,20.19v0.007
			c0,0.007,0.001,0.017,0.001,0.024c0.012,0.257,0.082,0.437,0.179,0.584L8.271,20.7l-0.249,0.227
			c0.241,0.293,0.572,0.488,0.672,1.034l-0.005-4.917C8.495,17.586,8.083,18.561,7.877,19.375"/>
	</defs>
	<clipPath id="SVGID_2_">
		<use xlink:href="#SVGID_1_"  overflow="visible"/>
	</clipPath>
	
		<linearGradient id="SVGID_3_" gradientUnits="userSpaceOnUse" x1="9.2437" y1="342.8906" x2="9.3237" y2="342.8906" gradientTransform="matrix(-5.8293 0.4982 -0.5119 -5.6729 238.0312 1960.043)">
		<stop  offset="0" style="stop-color:#009C4F"/>
		<stop  offset="1" style="stop-color:#CDDC29"/>
	</linearGradient>
	<polygon clip-path="url(#SVGID_2_)" fill="url(#SVGID_3_)" points="8.686,16.963 7.314,17.081 7.762,22.04 9.133,21.922 	"/>
</g>
<g>
	<polygon fill="#7ACCC8" points="8.717,17.346 8.692,17.088 8.692,22.009 8.666,24.492 8.718,24.492 	"/>
</g>
<g>
	<defs>
		<path id="SVGID_4_" d="M8.708,21.888v0.071c0.1-0.546,0.431-0.739,0.673-1.035l-0.26-0.229l0.348,0.109
			c0.096-0.147,0.165-0.33,0.176-0.583c0.001-0.014,0.001-0.024,0.001-0.039L9.215,19.76l0.429,0.302
			c-0.009-0.142-0.033-0.297-0.067-0.463L9.109,19.27l0.417,0.108c-0.206-0.814-0.619-1.79-0.812-2.334L8.708,21.888z"/>
	</defs>
	<clipPath id="SVGID_5_">
		<use xlink:href="#SVGID_4_"  overflow="visible"/>
	</clipPath>
	
		<linearGradient id="SVGID_6_" gradientUnits="userSpaceOnUse" x1="-66.6641" y1="336.2715" x2="-66.5838" y2="336.2715" gradientTransform="matrix(5.8291 0.4982 0.5119 -5.6727 225.2305 1960.2422)">
		<stop  offset="0" style="stop-color:#009C4F"/>
		<stop  offset="1" style="stop-color:#CDDC29"/>
	</linearGradient>
	<polygon clip-path="url(#SVGID_5_)" fill="url(#SVGID_6_)" points="8.715,16.963 10.087,17.081 9.64,22.038 8.268,21.92 	"/>
</g>
<g>
	<polygon fill="#7ACCC8" points="8.683,17.346 8.709,17.088 8.708,22.009 8.736,24.492 8.683,24.492 	"/>
</g>
<g>
	<defs>
		<path id="SVGID_7_" d="M10.694,17.278l-1.312,4.747c0.242-0.5,0.614-0.604,0.925-0.829l-0.203-0.3l0.321,0.206
			c0.131-0.119,0.246-0.276,0.325-0.519c0.004-0.013,0.008-0.025,0.011-0.037l-0.308-0.514l0.338,0.386
			c0.027-0.134,0.046-0.283,0.056-0.446l-0.351-0.44l0.361,0.201C10.876,18.896,10.737,17.852,10.694,17.278L10.694,17.278z"/>
	</defs>
	<clipPath id="SVGID_8_">
		<use xlink:href="#SVGID_7_"  overflow="visible"/>
	</clipPath>
	
		<linearGradient id="SVGID_9_" gradientUnits="userSpaceOnUse" x1="-73.3643" y1="324.5605" x2="-73.2842" y2="324.5605" gradientTransform="matrix(5.4954 1.9471 2.0008 -5.348 -236.0703 1898.25)">
		<stop  offset="0" style="stop-color:#009C4F"/>
		<stop  offset="1" style="stop-color:#CDDC29"/>
	</linearGradient>
	<polygon clip-path="url(#SVGID_8_)" fill="url(#SVGID_9_)" points="9.557,16.811 12.444,17.835 10.701,22.493 7.814,21.471 	"/>
</g>
<g>
	<polygon fill="#7ACCC8" points="10.586,17.562 10.678,17.32 9.37,22.074 8.736,24.479 8.686,24.466 	"/>
</g>
<g>
	<defs>
		<path id="SVGID_10_" d="M12.524,18.032l-2.53,4.255l0,0c0.367-0.423,0.752-0.433,1.112-0.569l-0.102-0.316l0.241,0.256
			c0.159-0.082,0.313-0.205,0.455-0.419c0.007-0.013,0.015-0.025,0.021-0.036l-0.158-0.565l0.216,0.461
			c0.065-0.125,0.125-0.273,0.18-0.434l-0.23-0.505l0.302,0.281C12.27,19.636,12.414,18.595,12.524,18.032z"/>
	</defs>
	<clipPath id="SVGID_11_">
		<use xlink:href="#SVGID_10_"  overflow="visible"/>
	</clipPath>
	
		<linearGradient id="SVGID_12_" gradientUnits="userSpaceOnUse" x1="-76.6157" y1="311.7285" x2="-76.5356" y2="311.7285" gradientTransform="matrix(4.7899 3.2668 3.3568 -4.6614 -668.1094 1723.5762)">
		<stop  offset="0" style="stop-color:#009C4F"/>
		<stop  offset="1" style="stop-color:#CDDC29"/>
	</linearGradient>
	<polygon clip-path="url(#SVGID_11_)" fill="url(#SVGID_12_)" points="10.829,16.875 14.579,19.433 11.691,23.443 7.939,20.885 	"/>
</g>
<g>
	<polygon fill="#7ACCC8" points="12.344,18.277 12.498,18.068 9.97,22.329 8.719,24.493 8.672,24.467 	"/>
</g>
<g>
	<defs>
		<path id="SVGID_13_" d="M10.538,22.695L10.538,22.695c0.388-0.261,0.7-0.26,1.028-0.258c0.028,0,0.055,0.002,0.082,0l0.021-0.185
			l0.049,0.18c0.017-0.001,0.035-0.003,0.053-0.004l-0.029-0.343l0.174,0.317c0.175-0.039,0.354-0.119,0.548-0.291
			c0.009-0.007,0.019-0.015,0.027-0.026l-0.004-0.603l0.091,0.515c0.096-0.105,0.194-0.233,0.291-0.376l-0.09-0.539l0.215,0.346
			c0.446-0.718,0.861-1.688,1.119-2.205L10.538,22.695z"/>
	</defs>
	<clipPath id="SVGID_14_">
		<use xlink:href="#SVGID_13_"  overflow="visible"/>
	</clipPath>
	
		<linearGradient id="SVGID_15_" gradientUnits="userSpaceOnUse" x1="-76.4834" y1="298.3672" x2="-76.4033" y2="298.3672" gradientTransform="matrix(3.7598 4.3635 4.4838 -3.6589 -1037.8906 1446.437)">
		<stop  offset="0" style="stop-color:#009C4F"/>
		<stop  offset="1" style="stop-color:#CDDC29"/>
	</linearGradient>
	<polygon clip-path="url(#SVGID_14_)" fill="url(#SVGID_15_)" points="12.636,17.51 15.869,21.263 12.013,24.409 8.78,20.657 	"/>
</g>
<g>
	<polygon fill="#7ACCC8" points="13.873,19.417 14.079,19.254 10.502,22.732 8.717,24.508 8.68,24.47 	"/>
</g>
<g>
	<defs>
		<path id="SVGID_16_" d="M11.007,23.257c0.537-0.188,0.876-0.004,1.261,0.051l0.069-0.334l0.073,0.348
			c0.182,0.007,0.378-0.024,0.612-0.143c0.013-0.006,0.024-0.013,0.036-0.021l0.154-0.57l-0.043,0.506
			c0.741-0.478,1.711-1.724,2.215-2.289L11.007,23.257z"/>
	</defs>
	<clipPath id="SVGID_17_">
		<use xlink:href="#SVGID_16_"  overflow="visible"/>
	</clipPath>
	
		<linearGradient id="SVGID_18_" gradientUnits="userSpaceOnUse" x1="-73.0396" y1="285.2676" x2="-72.9595" y2="285.2676" gradientTransform="matrix(2.4707 5.1597 5.302 -2.4044 -1318.8125 1084.8613)">
		<stop  offset="0" style="stop-color:#009C4F"/>
		<stop  offset="1" style="stop-color:#CDDC29"/>
	</linearGradient>
	<polygon clip-path="url(#SVGID_17_)" fill="url(#SVGID_18_)" points="14.603,19.173 16.376,22.877 11.788,24.96 10.013,21.254 	"/>
</g>
<g>
	<polygon fill="#7ACCC8" points="15.101,20.929 15.342,20.821 10.963,23.283 8.769,24.546 8.742,24.501 	"/>
</g>
<g>
	<defs>
		<path id="SVGID_19_" d="M6.725,17.288c-0.043,0.575-0.182,1.619-0.164,2.457l0.361-0.201c0,0-0.353,0.434-0.351,0.444
			c0.02,0.16,0.029,0.312,0.056,0.444l0.344-0.399c0,0-0.308,0.54-0.302,0.56c0.072,0.243,0.192,0.398,0.323,0.517l0.308-0.188
			l-0.192,0.281c0.312,0.227,0.686,0.329,0.929,0.833L6.725,17.288L6.725,17.288z"/>
	</defs>
	<clipPath id="SVGID_20_">
		<use xlink:href="#SVGID_19_"  overflow="visible"/>
	</clipPath>
	
		<linearGradient id="SVGID_21_" gradientUnits="userSpaceOnUse" x1="-1.6455" y1="350.7461" x2="-1.5654" y2="350.7461" gradientTransform="matrix(-5.4953 1.9471 -2.0007 -5.3479 699.9609 1898.625)">
		<stop  offset="0" style="stop-color:#009C4F"/>
		<stop  offset="1" style="stop-color:#CDDC29"/>
	</linearGradient>
	<polygon clip-path="url(#SVGID_20_)" fill="url(#SVGID_21_)" points="7.861,16.821 4.975,17.844 6.718,22.503 9.604,21.479 	"/>
</g>
<g>
	<polygon fill="#7ACCC8" points="6.833,17.572 6.74,17.33 8.048,22.083 8.683,24.487 8.734,24.474 	"/>
</g>
<g>
	<defs>
		<path id="SVGID_22_" d="M4.897,18.022c0.111,0.566,0.255,1.612,0.495,2.415l0.298-0.286l-0.227,0.512
			c0.055,0.153,0.112,0.297,0.174,0.42l0.219-0.465l-0.158,0.575c0.008,0.012,0.015,0.024,0.023,0.035
			c0.141,0.215,0.292,0.337,0.452,0.42l0.245-0.25l-0.112,0.308c0.362,0.141,0.751,0.146,1.12,0.571L4.897,18.022z"/>
	</defs>
	<clipPath id="SVGID_23_">
		<use xlink:href="#SVGID_22_"  overflow="visible"/>
	</clipPath>
	
		<linearGradient id="SVGID_24_" gradientUnits="userSpaceOnUse" x1="-14.2612" y1="355.4199" x2="-14.1812" y2="355.4199" gradientTransform="matrix(-4.7914 3.2678 -3.3579 -4.6628 1131.2422 1724.0469)">
		<stop  offset="0" style="stop-color:#009C4F"/>
		<stop  offset="1" style="stop-color:#CDDC29"/>
	</linearGradient>
	<polygon clip-path="url(#SVGID_23_)" fill="url(#SVGID_24_)" points="6.593,16.867 2.842,19.425 5.73,23.436 9.481,20.876 	"/>
</g>
<g>
	<polygon fill="#7ACCC8" points="5.077,18.27 4.923,18.061 7.451,22.321 8.703,24.484 8.749,24.458 	"/>
</g>
<g>
	<defs>
		<path id="SVGID_25_" d="M3.308,19.197c0.258,0.518,0.674,1.489,1.12,2.207l0.222-0.378l-0.097,0.569c0,0,0.152,0.208,0.285,0.361
			l0.092-0.466l-0.008,0.564c0.194,0.189,0.411,0.282,0.587,0.323l0.162-0.308l-0.021,0.33c0.387,0.044,0.764-0.049,1.234,0.27
			L3.308,19.197z"/>
	</defs>
	<clipPath id="SVGID_26_">
		<use xlink:href="#SVGID_25_"  overflow="visible"/>
	</clipPath>
	
		<linearGradient id="SVGID_27_" gradientUnits="userSpaceOnUse" x1="-27.3667" y1="356.8418" x2="-27.2866" y2="356.8418" gradientTransform="matrix(-3.7515 4.3539 -4.4739 -3.6509 1498.8594 1442.9277)">
		<stop  offset="0" style="stop-color:#009C4F"/>
		<stop  offset="1" style="stop-color:#CDDC29"/>
	</linearGradient>
	<polygon clip-path="url(#SVGID_26_)" fill="url(#SVGID_27_)" points="4.785,17.485 1.552,21.238 5.408,24.383 8.641,20.632 	"/>
</g>
<g>
	<polygon fill="#7ACCC8" points="3.548,19.391 3.344,19.226 6.919,22.706 8.704,24.48 8.742,24.443 	"/>
</g>
<g>
	<defs>
		<path id="SVGID_28_" d="M8.887,22.424c0.028-0.097,0.064-0.221,0.084-0.35h0.015c0.021,0.129,0.056,0.245,0.091,0.35l0.205,0.677
			H8.683L8.887,22.424z M8.4,20.503l-1.62,4.373v0.001h1.388l0.211-0.687h1.204l0.211,0.687h1.486l-1.62-4.374H8.4z"/>
	</defs>
	<clipPath id="SVGID_29_">
		<use xlink:href="#SVGID_28_"  overflow="visible"/>
	</clipPath>
	
		<linearGradient id="SVGID_30_" gradientUnits="userSpaceOnUse" x1="-23.04" y1="319.2988" x2="-22.9596" y2="319.2988" gradientTransform="matrix(0 -58.053 -59.6536 0 19056.4375 -1312.5312)">
		<stop  offset="0" style="stop-color:#00AEEF"/>
		<stop  offset="0.1098" style="stop-color:#0095D9"/>
		<stop  offset="0.2388" style="stop-color:#007CC4"/>
		<stop  offset="0.3695" style="stop-color:#0067B4"/>
		<stop  offset="0.4992" style="stop-color:#0056A7"/>
		<stop  offset="0.6278" style="stop-color:#18469D"/>
		<stop  offset="0.7548" style="stop-color:#273B97"/>
		<stop  offset="0.8797" style="stop-color:#2D3393"/>
		<stop  offset="1" style="stop-color:#2E3192"/>
	</linearGradient>
	<rect x="6.78" y="20.503" clip-path="url(#SVGID_29_)" fill="url(#SVGID_30_)" width="4.501" height="4.374"/>
</g>
<g>
	<defs>
		<rect id="SVGID_31_" x="11.632" y="20.503" width="1.5" height="4.374"/>
	</defs>
	<clipPath id="SVGID_32_">
		<use xlink:href="#SVGID_31_"  overflow="visible"/>
	</clipPath>
	
		<linearGradient id="SVGID_33_" gradientUnits="userSpaceOnUse" x1="-23.04" y1="319.9453" x2="-22.9596" y2="319.9453" gradientTransform="matrix(0 -58.053 -59.6536 0 19098.3125 -1312.5312)">
		<stop  offset="0" style="stop-color:#00AEEF"/>
		<stop  offset="0.1098" style="stop-color:#0095D9"/>
		<stop  offset="0.2388" style="stop-color:#007CC4"/>
		<stop  offset="0.3695" style="stop-color:#0067B4"/>
		<stop  offset="0.4992" style="stop-color:#0056A7"/>
		<stop  offset="0.6278" style="stop-color:#18469D"/>
		<stop  offset="0.7548" style="stop-color:#273B97"/>
		<stop  offset="0.8797" style="stop-color:#2D3393"/>
		<stop  offset="1" style="stop-color:#2E3192"/>
	</linearGradient>
	<rect x="11.632" y="20.503" clip-path="url(#SVGID_32_)" fill="url(#SVGID_33_)" width="1.5" height="4.374"/>
</g>
<g>
	<defs>
		<path id="SVGID_34_" d="M15.232,21.614h0.302c0.163,0,0.346,0.103,0.346,0.315s-0.184,0.315-0.346,0.315h-0.302V21.614z
			 M13.802,20.503v4.374h1.43v-1.522h0.141l0.993,1.522h1.656l-1.324-1.886c0.324-0.164,0.584-0.624,0.584-1.062
			c0-0.816-0.641-1.427-1.549-1.427H13.802z"/>
	</defs>
	<clipPath id="SVGID_35_">
		<use xlink:href="#SVGID_34_"  overflow="visible"/>
	</clipPath>
	
		<linearGradient id="SVGID_36_" gradientUnits="userSpaceOnUse" x1="-23.04" y1="320.625" x2="-22.9596" y2="320.625" gradientTransform="matrix(0 -58.053 -59.6536 0 19142.375 -1312.5312)">
		<stop  offset="0" style="stop-color:#00AEEF"/>
		<stop  offset="0.1098" style="stop-color:#0095D9"/>
		<stop  offset="0.2388" style="stop-color:#007CC4"/>
		<stop  offset="0.3695" style="stop-color:#0067B4"/>
		<stop  offset="0.4992" style="stop-color:#0056A7"/>
		<stop  offset="0.6278" style="stop-color:#18469D"/>
		<stop  offset="0.7548" style="stop-color:#273B97"/>
		<stop  offset="0.8797" style="stop-color:#2D3393"/>
		<stop  offset="1" style="stop-color:#2E3192"/>
	</linearGradient>
	<rect x="13.802" y="20.503" clip-path="url(#SVGID_35_)" fill="url(#SVGID_36_)" width="4.22" height="4.374"/>
</g>
<g>
	<defs>
		<path id="SVGID_37_" d="M19.556,22.671v0.039c0.01,1.502,1.252,2.29,2.472,2.29c0.507,0,0.965-0.103,1.183-0.253l0.043-1.276
			c-0.211,0.151-0.536,0.255-0.966,0.255c-0.803,0-1.204-0.521-1.204-1.035s0.38-1.034,1.127-1.034c0.506,0,0.76,0.103,1.007,0.251
			l0.042-1.273c-0.268-0.151-0.726-0.254-1.233-0.254C20.808,20.38,19.566,21.182,19.556,22.671"/>
	</defs>
	<clipPath id="SVGID_38_">
		<use xlink:href="#SVGID_37_"  overflow="visible"/>
	</clipPath>
	
		<linearGradient id="SVGID_39_" gradientUnits="userSpaceOnUse" x1="-23.186" y1="321.3721" x2="-23.1059" y2="321.3721" gradientTransform="matrix(0 -61.1347 -62.8203 0 20210.0625 -1392.375)">
		<stop  offset="0" style="stop-color:#00AEEF"/>
		<stop  offset="0.1098" style="stop-color:#0095D9"/>
		<stop  offset="0.2388" style="stop-color:#007CC4"/>
		<stop  offset="0.3695" style="stop-color:#0067B4"/>
		<stop  offset="0.4992" style="stop-color:#0056A7"/>
		<stop  offset="0.6278" style="stop-color:#18469D"/>
		<stop  offset="0.7548" style="stop-color:#273B97"/>
		<stop  offset="0.8797" style="stop-color:#2D3393"/>
		<stop  offset="1" style="stop-color:#2E3192"/>
	</linearGradient>
	<rect x="19.556" y="20.38" clip-path="url(#SVGID_38_)" fill="url(#SVGID_39_)" width="3.705" height="4.62"/>
</g>
<g>
	<defs>
		<path id="SVGID_40_" d="M25.57,22.424c0.028-0.097,0.063-0.221,0.084-0.35h0.014c0.021,0.129,0.057,0.245,0.091,0.35l0.205,0.677
			h-0.599L25.57,22.424z M25.084,20.503l-1.62,4.373v0.001h1.388l0.211-0.687h1.204l0.211,0.687h1.486l-1.62-4.374H25.084z"/>
	</defs>
	<clipPath id="SVGID_41_">
		<use xlink:href="#SVGID_40_"  overflow="visible"/>
	</clipPath>
	
		<linearGradient id="SVGID_42_" gradientUnits="userSpaceOnUse" x1="-23.04" y1="322.5137" x2="-22.9596" y2="322.5137" gradientTransform="matrix(0 -58.053 -59.6536 0 19264.875 -1312.5312)">
		<stop  offset="0" style="stop-color:#00AEEF"/>
		<stop  offset="0.1098" style="stop-color:#0095D9"/>
		<stop  offset="0.2388" style="stop-color:#007CC4"/>
		<stop  offset="0.3695" style="stop-color:#0067B4"/>
		<stop  offset="0.4992" style="stop-color:#0056A7"/>
		<stop  offset="0.6278" style="stop-color:#18469D"/>
		<stop  offset="0.7548" style="stop-color:#273B97"/>
		<stop  offset="0.8797" style="stop-color:#2D3393"/>
		<stop  offset="1" style="stop-color:#2E3192"/>
	</linearGradient>
	<rect x="23.464" y="20.503" clip-path="url(#SVGID_41_)" fill="url(#SVGID_42_)" width="4.501" height="4.374"/>
</g>
<g>
	<defs>
		<path id="SVGID_43_" d="M29.711,21.614h0.302c0.162,0,0.346,0.103,0.346,0.315s-0.184,0.315-0.346,0.315h-0.302V21.614z
			 M28.281,20.503v4.374h1.43v-1.522h0.141l0.994,1.522H32.5l-1.323-1.886c0.324-0.164,0.583-0.624,0.583-1.062
			c0-0.816-0.64-1.427-1.548-1.427H28.281z"/>
	</defs>
	<clipPath id="SVGID_44_">
		<use xlink:href="#SVGID_43_"  overflow="visible"/>
	</clipPath>
	
		<linearGradient id="SVGID_45_" gradientUnits="userSpaceOnUse" x1="-23.04" y1="323.4141" x2="-22.9596" y2="323.4141" gradientTransform="matrix(0 -58.053 -59.6536 0 19323.25 -1312.5312)">
		<stop  offset="0" style="stop-color:#00AEEF"/>
		<stop  offset="0.1098" style="stop-color:#0095D9"/>
		<stop  offset="0.2388" style="stop-color:#007CC4"/>
		<stop  offset="0.3695" style="stop-color:#0067B4"/>
		<stop  offset="0.4992" style="stop-color:#0056A7"/>
		<stop  offset="0.6278" style="stop-color:#18469D"/>
		<stop  offset="0.7548" style="stop-color:#273B97"/>
		<stop  offset="0.8797" style="stop-color:#2D3393"/>
		<stop  offset="1" style="stop-color:#2E3192"/>
	</linearGradient>
	<rect x="28.281" y="20.503" clip-path="url(#SVGID_44_)" fill="url(#SVGID_45_)" width="4.219" height="4.374"/>
</g>
<g>
	<defs>
		<path id="SVGID_46_" d="M34.379,22.424c0.029-0.097,0.063-0.221,0.084-0.35h0.014c0.022,0.129,0.057,0.245,0.092,0.35l0.204,0.677
			h-0.598L34.379,22.424z M33.894,20.503l-1.62,4.373v0.001h1.387l0.211-0.687h1.205l0.211,0.687h1.486l-1.62-4.374H33.894z"/>
	</defs>
	<clipPath id="SVGID_47_">
		<use xlink:href="#SVGID_46_"  overflow="visible"/>
	</clipPath>
	
		<linearGradient id="SVGID_48_" gradientUnits="userSpaceOnUse" x1="-23.04" y1="324.2109" x2="-22.9596" y2="324.2109" gradientTransform="matrix(0 -58.053 -59.6536 0 19374.875 -1312.5312)">
		<stop  offset="0" style="stop-color:#00AEEF"/>
		<stop  offset="0.1098" style="stop-color:#0095D9"/>
		<stop  offset="0.2388" style="stop-color:#007CC4"/>
		<stop  offset="0.3695" style="stop-color:#0067B4"/>
		<stop  offset="0.4992" style="stop-color:#0056A7"/>
		<stop  offset="0.6278" style="stop-color:#18469D"/>
		<stop  offset="0.7548" style="stop-color:#273B97"/>
		<stop  offset="0.8797" style="stop-color:#2D3393"/>
		<stop  offset="1" style="stop-color:#2E3192"/>
	</linearGradient>
	<rect x="32.274" y="20.503" clip-path="url(#SVGID_47_)" fill="url(#SVGID_48_)" width="4.501" height="4.374"/>
</g>
<g>
	<defs>
		<rect id="SVGID_49_" x="37.126" y="20.503" width="1.5" height="4.374"/>
	</defs>
	<clipPath id="SVGID_50_">
		<use xlink:href="#SVGID_49_"  overflow="visible"/>
	</clipPath>
	
		<linearGradient id="SVGID_51_" gradientUnits="userSpaceOnUse" x1="-23.8501" y1="322.6475" x2="-23.77" y2="322.6475" gradientTransform="matrix(0 -75.948 -78.0421 0 25218 -1786.375)">
		<stop  offset="0" style="stop-color:#00AEEF"/>
		<stop  offset="0.1098" style="stop-color:#0095D9"/>
		<stop  offset="0.2388" style="stop-color:#007CC4"/>
		<stop  offset="0.3695" style="stop-color:#0067B4"/>
		<stop  offset="0.4992" style="stop-color:#0056A7"/>
		<stop  offset="0.6278" style="stop-color:#18469D"/>
		<stop  offset="0.7548" style="stop-color:#273B97"/>
		<stop  offset="0.8797" style="stop-color:#2D3393"/>
		<stop  offset="1" style="stop-color:#2E3192"/>
	</linearGradient>
	<rect x="37.126" y="20.503" clip-path="url(#SVGID_50_)" fill="url(#SVGID_51_)" width="1.5" height="4.374"/>
</g>
<g>
	<defs>
		<path id="SVGID_52_" d="M40.613,23.121h0.402c0.189,0,0.401,0.124,0.401,0.371s-0.211,0.356-0.401,0.356h-0.402V23.121z
			 M40.606,21.504h0.231c0.142,0,0.296,0.088,0.296,0.309c0,0.22-0.154,0.308-0.296,0.308h-0.231V21.504z M39.296,20.503v4.374
			h1.937c0.993,0,1.599-0.597,1.599-1.392c0-0.487-0.381-1.016-0.726-1.13c0.218-0.152,0.331-0.482,0.331-0.681
			c0-0.657-0.57-1.172-1.374-1.172H39.296z"/>
	</defs>
	<clipPath id="SVGID_53_">
		<use xlink:href="#SVGID_52_"  overflow="visible"/>
	</clipPath>
	
		<linearGradient id="SVGID_54_" gradientUnits="userSpaceOnUse" x1="-23.04" y1="325.4697" x2="-22.9596" y2="325.4697" gradientTransform="matrix(0 -58.053 -59.6536 0 19456.5625 -1312.5312)">
		<stop  offset="0" style="stop-color:#00AEEF"/>
		<stop  offset="0.1098" style="stop-color:#0095D9"/>
		<stop  offset="0.2388" style="stop-color:#007CC4"/>
		<stop  offset="0.3695" style="stop-color:#0067B4"/>
		<stop  offset="0.4992" style="stop-color:#0056A7"/>
		<stop  offset="0.6278" style="stop-color:#18469D"/>
		<stop  offset="0.7548" style="stop-color:#273B97"/>
		<stop  offset="0.8797" style="stop-color:#2D3393"/>
		<stop  offset="1" style="stop-color:#2E3192"/>
	</linearGradient>
	<rect x="39.296" y="20.503" clip-path="url(#SVGID_53_)" fill="url(#SVGID_54_)" width="3.536" height="4.374"/>
</g>
<g>
	<defs>
		<polygon id="SVGID_55_" points="43.303,20.503 43.303,24.877 46.268,24.877 46.268,23.704 44.802,23.704 44.802,23.294 
			45.846,23.294 45.846,22.086 44.802,22.086 44.802,21.675 46.127,21.675 46.127,20.503 		"/>
	</defs>
	<clipPath id="SVGID_56_">
		<use xlink:href="#SVGID_55_"  overflow="visible"/>
	</clipPath>
	
		<linearGradient id="SVGID_57_" gradientUnits="userSpaceOnUse" x1="-23.04" y1="326.1875" x2="-22.9596" y2="326.1875" gradientTransform="matrix(0 -58.053 -59.6536 0 19503.0625 -1312.5312)">
		<stop  offset="0" style="stop-color:#00AEEF"/>
		<stop  offset="0.1098" style="stop-color:#0095D9"/>
		<stop  offset="0.2388" style="stop-color:#007CC4"/>
		<stop  offset="0.3695" style="stop-color:#0067B4"/>
		<stop  offset="0.4992" style="stop-color:#0056A7"/>
		<stop  offset="0.6278" style="stop-color:#18469D"/>
		<stop  offset="0.7548" style="stop-color:#273B97"/>
		<stop  offset="0.8797" style="stop-color:#2D3393"/>
		<stop  offset="1" style="stop-color:#2E3192"/>
	</linearGradient>
	<rect x="43.303" y="20.503" clip-path="url(#SVGID_56_)" fill="url(#SVGID_57_)" width="2.965" height="4.374"/>
</g>
<g>
	<defs>
		<path id="SVGID_58_" d="M46.682,21.839c0,0.604,0.402,1.138,1.169,1.419c0.57,0.207,0.634,0.221,0.634,0.364
			c0,0.117-0.12,0.172-0.422,0.172c-0.521,0-1.022-0.172-1.458-0.549v0.002l0.042,1.314C47.048,24.869,47.569,25,48.197,25
			C49.394,25,50,24.411,50,23.479c0-0.625-0.528-1.191-1.191-1.404c-0.591-0.193-0.648-0.221-0.648-0.338
			c0-0.11,0.078-0.156,0.395-0.156c0.345,0,0.725,0.122,0.987,0.287l0.041-1.22c-0.232-0.137-0.556-0.268-1.225-0.268
			C47.344,20.38,46.682,20.976,46.682,21.839"/>
	</defs>
	<clipPath id="SVGID_59_">
		<use xlink:href="#SVGID_58_"  overflow="visible"/>
	</clipPath>
	
		<linearGradient id="SVGID_60_" gradientUnits="userSpaceOnUse" x1="-23.186" y1="326.291" x2="-23.1059" y2="326.291" gradientTransform="matrix(0 -61.1347 -62.8203 0 20546 -1392.375)">
		<stop  offset="0" style="stop-color:#00AEEF"/>
		<stop  offset="0.1098" style="stop-color:#0095D9"/>
		<stop  offset="0.2388" style="stop-color:#007CC4"/>
		<stop  offset="0.3695" style="stop-color:#0067B4"/>
		<stop  offset="0.4992" style="stop-color:#0056A7"/>
		<stop  offset="0.6278" style="stop-color:#18469D"/>
		<stop  offset="0.7548" style="stop-color:#273B97"/>
		<stop  offset="0.8797" style="stop-color:#2D3393"/>
		<stop  offset="1" style="stop-color:#2E3192"/>
	</linearGradient>
	<rect x="46.604" y="20.38" clip-path="url(#SVGID_59_)" fill="url(#SVGID_60_)" width="3.396" height="4.62"/>
</g>
<g>
	<path fill="#2E3192" d="M37.326,20.003c0.228,0,0.413-0.179,0.413-0.402c0-0.221-0.185-0.401-0.413-0.401
		c-0.229,0-0.413,0.181-0.413,0.401C36.913,19.824,37.097,20.003,37.326,20.003"/>
	<path fill="#2E3192" d="M38.419,20.003c0.228,0,0.413-0.179,0.413-0.402c0-0.221-0.185-0.401-0.413-0.401s-0.413,0.181-0.413,0.401
		C38.006,19.824,38.191,20.003,38.419,20.003"/>
	<path fill="#FFCB05" d="M8.533,24.367c0.494,0.137,2.441-1.872,6.414-0.916c-2.042-0.139-4.12,0.479-5.88,1.473L8.533,24.367z"/>
	<path fill="#00AEEF" d="M0,22.188c3.24-0.104,7.153,0.26,9.051,2.741C9.077,24.982,6.048,22.425,0,22.188"/>
</g>
</svg>
