<?xml version="1.0" encoding="utf-8"?>
<!-- Generator: Adobe Illustrator 16.2.1, SVG Export Plug-In . SVG Version: 6.00 Build 0)  -->
<!DOCTYPE svg PUBLIC "-//W3C//DTD SVG 1.1//EN" "http://www.w3.org/Graphics/SVG/1.1/DTD/svg11.dtd">
<svg version="1.1" id="Layer_1" xmlns="http://www.w3.org/2000/svg" xmlns:xlink="http://www.w3.org/1999/xlink" x="0px" y="0px"
	 width="100px" height="30px" viewBox="0 0 100 30" enable-background="new 0 0 100 30" xml:space="preserve">
<g>
	<path fill-rule="evenodd" clip-rule="evenodd" fill="#F26822" d="M6.715,12.815H6.393c-0.694,0-0.917-0.05-0.917-0.698
		c0-0.997,0.768-1.769,1.61-1.769c0.817,0,1.437,0.623,1.437,1.594c0,0.848-0.199,0.873-1.561,0.873H6.715L6.715,12.815z
		 M11.918,15.307c0.967,0,1.387-0.5,1.387-1.918c0-3.04-2.502-5.48-6.219-5.48c-2.304,0-4.46,1.096-5.797,2.99
		C0.446,12.093,0,13.488,0,14.908c0,3.836,2.875,6.855,6.962,6.855c1.635,0,3.098-0.451,4.361-1.3
		c1.041-0.698,1.562-1.495,1.562-2.117c0-0.773-0.472-1.295-1.041-1.295c-0.644,0-1.611,1.095-3.196,1.095
		c-1.76,0-3.097-1.369-3.097-2.491c0-0.3,0.223-0.349,0.768-0.349H11.918L11.918,15.307z M21.308,13.688
		c-0.817-0.15-1.461-0.225-1.981-0.225c-3.097,0-5.451,1.844-5.451,4.211c0,2.293,1.686,3.915,4.386,3.915
		c1.238,0,1.957-0.303,2.824-0.926c0.248-0.175,0.421-0.374,0.645-0.374c0.271,0,0.52,0.424,0.991,0.872
		c0.42,0.403,0.916,0.527,1.61,0.527c2.402,0,4.162-1.648,4.162-2.843c0-0.425-0.248-0.748-0.744-0.874
		c-0.718-0.199-0.744-0.548-0.744-2.366v-0.373c0-0.823,0.075-1.794,0.075-2.891c0-2.915-2.081-4.459-6.021-4.459
		c-3.791,0-6.194,1.544-6.194,3.238c0,0.947,0.669,1.62,1.536,1.62c0.818,0,1.462-0.423,2.181-1.295
		c0.569-0.698,0.941-1.321,1.685-1.321c0.793,0,1.09,0.722,1.09,2.317C21.358,12.815,21.333,13.214,21.308,13.688L21.308,13.688z
		 M21.284,16.203c0,1.72-0.049,2.418-0.917,2.418c-0.644,0-0.99-0.499-0.99-1.472c0-1.02,0.47-1.593,1.263-1.593
		C21.209,15.557,21.284,15.605,21.284,16.203L21.284,16.203z M40.511,17.325c0-1.97-1.115-3.14-3.469-4.335
		c-1.338-0.673-2.181-0.922-2.181-1.57c0-0.373,0.347-0.673,0.743-0.673c0.793,0,1.189,0.698,1.859,1.296
		c0.446,0.399,0.867,0.598,1.362,0.598c0.868,0,1.438-0.573,1.438-1.445c0-1.594-1.462-3.288-2.403-3.288
		c-0.396,0-0.868,0.398-1.363,0.398c-0.521,0-1.264-0.324-2.18-0.324c-2.85,0-5.08,2.043-5.08,4.385
		c0,1.793,1.115,3.338,3.246,4.411c1.09,0.548,1.883,0.673,1.883,1.494c0,0.274-0.272,0.549-0.669,0.549
		c-0.544,0-1.189-0.424-1.957-1.247c-0.545-0.571-0.941-1.096-1.734-1.096c-0.718,0-1.065,0.524-1.065,1.521
		c0,1.793,1.511,3.543,2.403,3.543c0.396,0,0.792-0.305,1.164-0.305c0.373,0,1.264,0.452,2.726,0.452
		C38.454,21.688,40.511,19.816,40.511,17.325L40.511,17.325z M45.292,17.374c1.115,2.442,1.858,4.065,1.858,5.037
		c0,0.549-0.247,0.848-0.619,0.848c-0.545,0-0.396-0.797-0.818-1.718c-0.372-0.828-1.09-1.276-1.981-1.276
		c-1.215,0-2.304,1.071-2.304,2.495c0,2.019,1.585,3.488,4.113,3.488c2.428,0,4.162-1.296,5.6-3.887
		c1.437-2.645,2.08-5.884,3.243-9.048c0.522-1.371,0.695-1.868,1.711-2.267c0.745-0.274,1.215-0.474,1.215-1.421
		c0-1.021-0.893-1.519-2.825-1.519c-2.081,0-3.146,0.572-3.146,1.494c0,0.748,0.992,1.022,0.992,1.645
		c0,0.099-0.101,0.697-0.472,1.495c-0.322,0.722-0.595,1.096-1.041,1.096c-0.521,0-0.792-0.374-1.09-1.121
		c-0.322-0.797-0.497-1.321-0.497-1.595c0-0.447,0.818-0.498,0.818-1.419c0-1.32-1.288-1.62-4.013-1.62
		c-3.296,0-4.98,0.748-4.98,2.068c0,0.897,0.57,1.046,1.139,1.346c0.694,0.349,0.844,0.947,1.19,1.719L45.292,17.374L45.292,17.374z
		 M65.41,15.63c0,1.845-0.667,2.815-1.709,2.815c-0.396,0-0.669-0.273-0.669-0.621c0-0.475,0.174-0.949,0.174-1.396
		c0-1.595-1.189-2.79-2.897-2.79c-1.661,0-2.877,1.246-2.877,3.114c0,2.989,2.653,5.111,6.914,5.111
		c3.619,0,5.922-1.448,6.812-4.239c0.546-1.695,0.322-4.734,0.473-8.994c0.05-1.271,0.05-1.67,0.867-2.144
		c0.595-0.349,0.965-0.523,0.965-1.42c0-1.445-1.536-1.819-5.005-1.819c-3.443,0-5.052,0.499-5.052,2.068
		c0,0.847,0.443,1.022,1.063,1.296c0.842,0.349,0.94,0.597,0.94,2.019V15.63L65.41,15.63z M81.343,12.815H81.02
		c-0.693,0-0.915-0.05-0.915-0.698c0-0.997,0.769-1.769,1.61-1.769c0.817,0,1.436,0.623,1.436,1.594
		c0,0.848-0.197,0.873-1.561,0.873H81.343L81.343,12.815z M86.544,15.307c0.968,0,1.39-0.5,1.39-1.918c0-3.04-2.503-5.48-6.219-5.48
		c-2.306,0-4.46,1.096-5.798,2.99c-0.844,1.195-1.29,2.59-1.29,4.011c0,3.836,2.874,6.855,6.963,6.855
		c1.636,0,3.098-0.451,4.359-1.3c1.044-0.698,1.562-1.495,1.562-2.117c0-0.773-0.47-1.295-1.04-1.295
		c-0.645,0-1.61,1.095-3.196,1.095c-1.761,0-3.098-1.369-3.098-2.491c0-0.3,0.223-0.349,0.769-0.349H86.544L86.544,15.307z
		 M90.313,11.022V17.1c0,3.016,1.584,4.613,4.533,4.613c2.973,0,5.153-1.698,5.153-2.993c0-0.896-0.396-1.42-0.844-1.42
		c-0.545,0-1.016,0.498-1.636,0.498c-0.891,0-1.313-0.498-1.313-1.495v-4.583c0-0.623,0.2-0.599,0.818-0.623l1.934-0.074
		c0.841-0.026,1.016-0.075,1.016-0.997V8.929c0-0.673-0.123-0.698-0.842-0.698h-2.751V7.085c0-1.495-0.05-1.944-1.164-1.944
		c-1.188,0-2.775,1.122-5.402,2.966c-1.14,0.797-1.485,0.872-1.485,1.818C88.33,11.047,88.504,10.972,90.313,11.022L90.313,11.022z"
		/>
</g>
</svg>
