<?xml version="1.0" encoding="utf-8"?>
<!-- Generator: Adobe Illustrator 16.2.1, SVG Export Plug-In . SVG Version: 6.00 Build 0)  -->
<!DOCTYPE svg PUBLIC "-//W3C//DTD SVG 1.1//EN" "http://www.w3.org/Graphics/SVG/1.1/DTD/svg11.dtd">
<svg version="1.1" id="svg2367" xmlns:svg="http://www.w3.org/2000/svg"
	 xmlns="http://www.w3.org/2000/svg" xmlns:xlink="http://www.w3.org/1999/xlink" x="0px" y="0px" width="50px" height="50px"
	 viewBox="0 0 50 50" enable-background="new 0 0 50 50" xml:space="preserve">
<g>
	<g>
		<path id="path15564" fill="#205BA5" d="M50,30.477c0,0-35.493,2.987-40.704-3.764c-2.691-4.125,4.311-12.38,4.311-12.38
			S0.047,20.288,0,28.32C1.186,43.079,50,30.477,50,30.477"/>
		<path id="path15582" fill="#98BFE8" d="M0.168,37.31c0,0,17.504-20.419,29.821-23.116c7.059-2.317,7.773,10.572,7.773,10.572
			S44.45,6.788,36.879,5.117C20.638,2.742,0.168,37.31,0.168,37.31"/>
		<path id="path15600" fill="#C5001E" d="M7.539,9.42c0,0,23.686,15.076,28.175,24.303c3.432,7.35-9.023,9.856-9.023,9.856
			s19.476,0.984,19.777-5.622C46.335,24.559,7.539,9.42,7.539,9.42"/>
	</g>
</g>
</svg>
