<?xml version="1.0" encoding="utf-8"?>
<!-- Generator: Adobe Illustrator 16.2.1, SVG Export Plug-In . SVG Version: 6.00 Build 0)  -->
<!DOCTYPE svg PUBLIC "-//W3C//DTD SVG 1.1//EN" "http://www.w3.org/Graphics/SVG/1.1/DTD/svg11.dtd">
<svg version="1.1" id="svg2367" xmlns:svg="http://www.w3.org/2000/svg"
	 xmlns="http://www.w3.org/2000/svg" xmlns:xlink="http://www.w3.org/1999/xlink" x="0px" y="0px" width="50px" height="50px"
	 viewBox="393.414 106.031 50 50" enable-background="new 393.414 106.031 50 50" xml:space="preserve">
<g id="Globe_1_">
	<path id="Globe" fill="#0033A0" d="M443.414,106.031v49.991h-10.358c2.195-5.744,2.681-12.851,1.134-19.077
		c-1.868-7.912-7.045-15.433-14.382-20.075c-6.938-4.421-15.745-6.15-24.402-4.37l-1.992,0.491v-6.96H443.414z M407.178,113.87
		c-2.664-1.472-6.157-1.686-9.289-1.149l1.104,0.13l0.155-0.082c1.454-0.104,2.983-0.054,4.34,0.242
		c-0.446,0.125-1.21,0.374-1.744,0.591c0.302,0.116,0.691,0.311,0.954,0.482c0.576-0.211,1.786-0.533,2.373-0.648
		c0.525,0.155,1.876,0.778,2.712,1.391c-0.994,0.11-2.345,0.305-3.437,0.557c0.257,0.226,0.477,0.49,0.671,0.781
		c1.056-0.192,2.604-0.367,3.942-0.418c0.677,0.582,1.23,1.291,1.608,2.019c-1.473-0.099-3.425-0.07-4.627,0.057
		c0.127,0.215,0.296,0.762,0.367,1.089c1.49-0.062,3.914,0.048,4.933,0.195c0.333,0.802,0.524,1.665,0.601,2.574
		c-1.698-0.339-3.696-0.621-5.262-0.694c0.017,0.505,0,0.984-0.048,1.457c1.859,0.191,3.66,0.527,5.406,0.977
		c-0.025,0.886-0.158,1.99-0.387,2.845c-1.385-0.493-3.598-1.149-5.471-1.53c-0.186,0.769-0.435,1.524-0.762,2.247
		c1.831,0.615,3.64,1.412,5.37,2.27c-0.285,0.821-0.697,1.744-1.078,2.425c-1.735-0.978-3.521-1.928-5.291-2.682
		c-0.533,0.977-1.213,2.018-1.851,2.876c1.724,1.047,3.35,2.183,4.966,3.401c-0.485,0.711-1.182,1.563-1.6,2.069
		c-1.555-1.29-4.734-3.819-4.734-3.819c-0.934,1.127-1.735,1.968-2.915,2.882c1.309,1.338,3.017,3.246,4.08,4.57
		c-0.55,0.575-1.086,1.032-1.738,1.479c-1.292-1.592-2.853-3.602-3.762-4.863c-1.272,0.999-2.048,1.541-3.349,2.21v1.874
		l2.065,4.136c-0.471,0.3-0.852,0.482-1.456,0.742l-0.609-1.206v2.174c7.968-3.542,16.083-11.35,18.442-19.832
		c0.863-2.933,1.013-6.7-0.395-9.436C410.628,116.458,408.956,114.779,407.178,113.87 M405.987,112.636
		c0.35,0.113,0.68,0.269,1.01,0.412l0.189-0.031c1.702,0.282,3.327,0.851,4.792,1.646c-0.793,0.006-1.614-0.006-2.407,0.059
		c0.33,0.294,0.68,0.638,0.965,0.957c1.075-0.02,2.11,0.003,3.132,0.073c1.016,0.74,2.04,1.736,2.616,2.767
		c-1.182-0.274-2.811-0.506-4.261-0.63c0.189,0.432,0.381,0.875,0.539,1.338c1.614,0.238,3.214,0.531,4.766,0.927
		c0.517,1.063,0.906,2.182,1.075,3.367c-1.716-0.612-3.477-1.194-5.279-1.562c0.042,0.585,0.048,1.181,0.051,1.772
		c1.862,0.536,3.674,1.16,5.438,1.96c0.008,1.196-0.119,2.336-0.387,3.418c-1.769-0.884-3.575-1.757-5.457-2.395
		c-0.237,1.056-0.547,2.078-0.912,3.074c1.8,0.926,3.589,1.869,5.296,2.98c-0.322,0.917-0.79,1.911-1.334,2.803
		c-1.676-1.146-3.355-2.258-5.102-3.231c-0.595,1.238-1.349,2.507-2.243,3.661c1.561,1.228,3.152,2.506,4.656,3.861
		c-0.497,0.745-1.157,1.603-1.902,2.391c-1.095-1.157-2.926-2.801-4.45-4.082c-1.078,1.299-2.348,2.732-3.628,3.811
		c0.976,1.031,3.88,4.528,3.88,4.528c-0.579,0.581-1.304,1.177-2.049,1.71c0,0-2.962-3.805-3.696-4.722
		c-1.752,1.391-3.155,2.365-5.206,3.457c0.812,1.386,2.83,5.141,2.83,5.141c-0.519,0.318-1.061,0.618-1.6,0.815
		c-0.954-1.581-2.102-3.872-2.714-5.183c-0.587,0.324-1.18,0.533-1.18,0.533v6.843c6.18-2.01,11.879-5.561,16.699-10.701
		c4.396-4.765,7.87-9.906,8.902-16.052c0.824-4.897-0.799-9.516-4.687-12.635C411.972,113.698,409.045,112.997,405.987,112.636
		 M403.93,115.899c-2.706-2.737-6.857-2.966-10.517-2.104c0-0.003,0,0.336,0,0.336c0.762-0.164,1.755-0.322,2.664-0.319
		c-0.595,0.358-1.165,0.796-1.682,1.216c0.223,0.049,0.454,0.125,0.666,0.215c0.83-0.59,1.628-1.101,2.294-1.465
		c0.863,0.006,1.978,0.17,2.709,0.46c-1.205,0.433-2.661,1.101-3.604,1.733c0.172,0.09,0.355,0.242,0.491,0.385
		c1.154-0.619,2.813-1.33,4.176-1.765c0.649,0.259,1.343,0.717,1.738,1.1c-1.744,0.415-3.412,0.873-5.087,1.554
		c0.161,0.191,0.338,0.479,0.42,0.66c1.213-0.432,3.592-1.126,5.457-1.479c0.344,0.361,0.75,0.945,0.962,1.489
		c-2.063,0.215-4.413,0.573-6.002,1.024c0.099,0.266,0.164,0.528,0.206,0.777c1.953-0.376,4.105-0.656,6.205-0.737
		c0.187,0.602,0.293,1.251,0.299,1.914c-2.099-0.136-4.498-0.043-6.405,0.146c0,0.248-0.037,0.748-0.068,1.056
		c1.933-0.06,4.1-0.04,6.408,0.224c-0.084,0.626-0.234,1.436-0.435,2.136c-2.159-0.491-4.128-0.73-6.304-0.875
		c-0.076,0.418-0.256,0.935-0.46,1.372c2.032,0.37,4.063,0.935,6.024,1.64c-0.271,0.633-0.584,1.253-0.925,1.858
		c-1.47-0.689-4.075-1.666-5.785-2.144c-0.282,0.57-0.756,1.347-1.225,1.923c1.225,0.599,3.583,1.928,5.198,2.973
		c-0.387,0.516-0.824,1.052-1.278,1.526c-1.561-1.216-3.115-2.363-4.811-3.443c-0.542,0.623-1.216,1.295-1.848,1.829v0.197
		l3.899,4.155c-0.432,0.395-0.875,0.759-1.334,1.095l-2.565-3.283v5.792c3.959-2.326,7.968-6.145,10.223-10.188
		c1.842-3.238,3.233-7.622,1.453-11.345C404.771,116.961,404.44,116.403,403.93,115.899 M415.586,115.942l1.151,0.141
		c1.148,0.597,2.207,1.438,3.158,2.444c0.353,0.384,0.731,0.771,0.974,1.189c-0.948-0.271-1.871-0.597-2.853-0.809
		c0.333,0.523,0.567,1.031,0.812,1.627c1.098,0.315,2.184,0.693,3.248,1.075c0.683,1.293,1.179,2.687,1.419,4.161
		c-1.23-0.615-2.461-1.218-3.725-1.714c0.099,0.722,0.124,1.462,0.099,2.179c1.388,0.635,2.943,1.487,3.908,2.106
		c0.037,1.016-0.064,2.825-0.364,3.977c-1.109-0.807-2.706-1.844-4.001-2.513c-0.175,0.999-0.649,2.552-1.146,3.652
		c1.352,0.918,2.703,1.857,3.981,2.958c-0.389,1.082-0.895,2.123-1.436,3.131c-1.281-1.101-2.587-2.156-3.945-3.173
		c-0.77,1.521-1.62,2.894-2.785,4.322c1.303,1.201,2.551,2.379,3.795,3.669c-0.609,0.883-1.292,1.762-2.091,2.585
		c-1.188-1.273-2.407-2.579-3.646-3.796c-1.292,1.487-2.751,3.049-4.27,4.33c0.703,0.73,2.215,2.501,3.318,4.086
		c-0.759,0.653-1.464,1.263-2.223,1.815l-3.203-4.135c-1.978,1.544-4.08,2.814-6.183,3.966l1.679,2.806h5.214
		c7.965-5.442,15.161-13.521,17.376-22.542c1.337-5.513,0.067-11.165-3.733-15.275c-2.029-2.188-4.277-2.919-5.866-3.407
		C414.658,115.064,415.126,115.473,415.586,115.942 M393.414,115.482v0.963l0.539-0.376c0.449,0.106,0.959,0.334,1.301,0.554
		c-0.621,0.367-1.259,0.726-1.834,1.12v0.604c0.767-0.471,1.673-1.016,2.387-1.38c0.288,0.187,0.547,0.46,0.751,0.734
		c-1.036,0.409-2.475,1.111-3.144,1.467v0.625c1.146-0.56,2.41-1.121,3.617-1.494c0.155,0.274,0.311,0.618,0.367,0.938
		c-1.278,0.246-2.768,0.791-3.979,1.262v0.567c1.284-0.449,3.011-0.9,4.139-1.081c0.084,0.361,0.096,0.833,0.096,1.163
		c-1.702,0.166-2.847,0.363-4.23,0.643v0.653c1.23-0.167,3.276-0.317,4.165-0.283c-0.085,0.444-0.184,0.906-0.356,1.311
		c-1.019-0.094-2.666-0.167-3.814-0.139c-0.006,0-0.006,0.869-0.006,0.872c1.12,0.062,2.351,0.339,3.341,0.524
		c-0.135,0.345-0.387,0.822-0.601,1.167c-0.77-0.257-1.902-0.615-2.74-0.752v1.714c0.539,0.242,1.32,0.632,1.588,0.802
		c-0.18,0.265-0.533,0.694-0.773,0.912c-0.361-0.24-0.815-0.509-0.815-0.509v2.188c0.9-0.889,1.786-1.817,2.489-2.797
		c1.747-2.516,3.121-5.778,1.865-8.926C397.011,116.803,395.171,115.718,393.414,115.482 M422.618,120.294
		c0.361,0.618,0.711,1.253,0.999,1.899l1.388,0.644c0.988,1.605,1.772,3.297,2.201,5.14c-0.765-0.482-1.543-0.984-2.328-1.411
		c0.124,0.836,0.155,1.593,0.172,2.468c0.883,0.617,1.8,1.267,2.649,2.023c0.082,1.547-0.031,3.068-0.265,4.499
		c-0.931-0.908-1.905-1.708-2.858-2.377c-0.234,1.319-0.714,2.814-1.267,4.142c0.977,0.778,2.046,1.795,2.982,2.819
		c-0.406,1.186-0.895,2.283-1.481,3.354c-0.942-1.02-1.978-2.078-3.005-2.983c-0.638,1.233-1.921,3.224-3.05,4.756
		c1.033,1.056,1.986,2.165,2.929,3.271c-0.666,0.941-1.434,1.833-2.221,2.701c-0.957-1.103-1.854-2.234-2.85-3.311
		c-1.512,1.762-2.776,3.131-4.583,4.649c1.067,1.292,2.681,3.446,2.681,3.446h0.912c1.69-1.502,3.318-3.189,4.799-4.9
		c3.643-4.459,6.53-9.229,7.534-14.765c1.089-5.81-0.432-11.463-4.275-15.66L422.618,120.294z M426.264,123.204l-0.02,0.045
		c1.667,2.047,2.994,4.245,3.68,6.689l-0.017,0.028l-1.284-0.971c0.167,0.99,0.293,1.916,0.327,2.952
		c0.606,0.455,1.272,1.056,1.789,1.682c0.087,1.688,0.087,3.487-0.201,5.141c-0.581-0.765-1.089-1.32-1.995-2.222
		c-0.2,1.226-0.658,3.158-1.213,4.449c0.793,0.854,1.597,1.937,2.105,2.727c-0.296,1.016-0.869,2.383-1.481,3.522
		c-0.725-0.937-1.239-1.694-2.184-2.809c-0.942,1.733-2.045,3.497-3.265,5.117c0.83,0.974,1.591,1.989,2.311,3.021
		c-0.683,0.957-1.419,1.904-2.215,2.797c-0.753-1.036-1.555-2.063-2.339-3.088c-1.092,1.275-2.195,2.569-3.524,3.737h6.134
		c3.954-4.587,6.82-9.661,7.988-15.402c1.21-5.778,0.254-11.897-3.471-16.259C427.042,123.978,426.678,123.492,426.264,123.204
		 M431.5,131.243c0.24,1.104,0.341,2.015,0.479,3.472c0.458,0.491,1.002,1.332,1.002,1.332c0.054,1.693-0.04,3.396-0.392,5.14
		l-0.934-1.146c-0.276,1.605-0.674,3.1-1.259,4.736l1.03,1.792c-0.305,1.072-0.889,2.555-1.462,3.737
		c-0.389-0.624-0.745-1.312-1.146-1.86c-0.925,1.804-2.034,3.56-3.242,5.25l1.442,2.326h0.336
		c3.474-5.157,5.801-10.848,6.041-17.314c0.119-2.706-0.733-5.066-1.752-7.323L431.5,131.243z M434.257,140.516
		c-0.116,0.872-0.178,1.749-0.333,2.571l-0.276-0.371c-0.296,1.771-0.726,3.417-1.338,5.059l0.426,1.187
		c-0.347,1.19-0.793,2.466-1.363,3.802c-0.133-0.403-0.39-0.892-0.618-1.269c-0.767,1.536-1.679,3.168-2.596,4.528h2.3
		c1.255-2.419,2.232-4.993,2.957-7.646c0.604-2.486,1.157-5.137,0.849-7.86H434.257z M434.398,146.852
		c-0.482,2.535-1.357,5.662-2.085,7.896c-0.087-0.175-0.175-0.346-0.243-0.528c-0.347,0.692-0.866,1.804-0.866,1.804h1.177
		C433.399,153.623,434.116,150.16,434.398,146.852 M397.793,154.067c-1.437,0.652-2.875,1.2-4.379,1.68v0.271h5.471L397.793,154.067
		z M409.779,154.43c-0.573,0.41-1.295,1.051-2.162,1.602h3.206C410.823,156.031,410.132,154.988,409.779,154.43"/>
</g>
</svg>
