<?xml version="1.0" encoding="utf-8"?>
<!-- Generator: Adobe Illustrator 16.2.1, SVG Export Plug-In . SVG Version: 6.00 Build 0)  -->
<!DOCTYPE svg PUBLIC "-//W3C//DTD SVG 1.1//EN" "http://www.w3.org/Graphics/SVG/1.1/DTD/svg11.dtd">
<svg version="1.1"
	 id="svg2" xmlns:dc="http://purl.org/dc/elements/1.1/" xmlns:cc="http://creativecommons.org/ns#" xmlns:rdf="http://www.w3.org/1999/02/22-rdf-syntax-ns#" xmlns:svg="http://www.w3.org/2000/svg" xmlns:sodipodi="http://sodipodi.sourceforge.net/DTD/sodipodi-0.dtd" xmlns:inkscape="http://www.inkscape.org/namespaces/inkscape" inkscape:output_extension="org.inkscape.output.svg.inkscape" sodipodi:docname="1300px-SriLankan_Airlines_Logo.svg" inkscape:version="0.46" sodipodi:version="0.32"
	 xmlns="http://www.w3.org/2000/svg" xmlns:xlink="http://www.w3.org/1999/xlink" x="0px" y="0px" width="50px" height="50px"
	 viewBox="100.5 138.5 50 50" enable-background="new 100.5 138.5 50 50" xml:space="preserve">
<defs>
	
	
		<inkscape:perspective  inkscape:vp_z="1625 : 665.625 : 1" inkscape:vp_x="0 : 665.625 : 1" sodipodi:type="inkscape:persp3d" inkscape:vp_y="0 : 1000 : 0" id="perspective58" inkscape:persp3d-origin="812.5 : 443.75 : 1">
		</inkscape:perspective>
</defs>
<sodipodi:namedview  inkscape:cy="665.625" inkscape:cx="812.5" inkscape:zoom="0.33476923" showgrid="false" pagecolor="#ffffff" bordercolor="#666666" borderopacity="1.0" objecttolerance="10.0" gridtolerance="10.0" guidetolerance="10.0" id="base" inkscape:current-layer="svg2" inkscape:window-y="51" inkscape:window-x="23" inkscape:pageopacity="0.0" inkscape:pageshadow="2" inkscape:window-width="640" inkscape:window-height="669">
	</sodipodi:namedview>
<g id="_x23_dc001cff">
	<path id="path5" fill="#DC001C" d="M149.631,145.637c0.267-0.149,0.562-0.255,0.869-0.285c-0.17,0.264-0.408,0.476-0.569,0.744
		c-0.424,0.672-0.65,1.447-0.807,2.219c-0.154,0.731-0.211,1.485-0.447,2.198c-0.309,1.01-0.808,1.964-1.47,2.784
		c-0.85,1.033-1.911,1.864-3.017,2.602c-1.343,0.916-2.761,1.749-3.922,2.897c-0.828,0.82-1.494,1.819-1.856,2.933
		c-0.708,2.054-1.304,4.158-2.291,6.104c-0.704,1.405-1.637,2.695-2.75,3.803c-1.445,1.458-3.178,2.589-4.943,3.616
		c-3.897,2.228-8.175,3.726-12.537,4.748c-4.874,1.12-9.88,1.654-14.88,1.646c-0.171,0.003-0.342-0.004-0.512-0.022
		c4.421-0.598,8.806-1.626,12.926-3.356c3.771-1.574,7.312-3.758,10.271-6.591c0.651-0.627,1.279-1.277,1.863-1.965
		c1.33-1.601,2.269-3.471,3.168-5.335c0.466-0.96,0.915-1.932,1.46-2.851c0.824-1.396,1.951-2.612,3.292-3.527
		c1.618-1.116,3.479-1.803,5.319-2.458c1.077-0.383,2.153-0.759,3.207-1.198c0.699-0.296,1.4-0.594,2.042-1.003
		c1.219-0.764,2.305-1.797,2.928-3.11c0.426-0.886,0.632-1.855,0.997-2.768c-0.401,0.181-0.683,0.551-0.816,0.963
		c-0.174,0.538-0.72,0.856-1.253,0.942c0.241-0.209,0.454-0.462,0.544-0.772c0.217-0.712,0.86-1.312,1.623-1.354
		C148.432,146.58,148.966,146,149.631,145.637 M148.648,146.862c-0.177,0.103-0.196,0.383-0.033,0.507
		c0.175,0.154,0.503,0.025,0.508-0.217C149.154,146.914,148.847,146.721,148.648,146.862z"/>
</g>
<g id="_x23_00a61cff">
	<path id="path8" fill="#00A61C" d="M131.106,157.722c1.336-0.542,2.724-0.941,4.125-1.285c-0.244,0.136-0.512,0.221-0.765,0.338
		c-1.583,0.701-2.974,1.785-4.139,3.057c-1.306,1.435-2.346,3.093-3.19,4.835c-1.174,2.608-3.063,4.868-5.342,6.587
		c-3.188,2.413-7.037,3.86-10.971,4.464c-0.85,0.121-1.706,0.226-2.563,0.249c1.108-0.351,2.22-0.701,3.294-1.148
		c2.903-1.184,5.606-2.92,7.754-5.218c1.204-1.315,2.335-2.708,3.286-4.221c0.51-0.798,0.993-1.618,1.575-2.366
		c0.672-0.874,1.452-1.662,2.268-2.401C127.804,159.374,129.397,158.402,131.106,157.722z"/>
</g>
<g id="_x23_f16c00ff">
	<path id="path11" fill="#F16C00" d="M140.41,159.835c0.274-0.48,0.563-0.965,0.948-1.366c-0.197,0.893-0.41,1.787-0.487,2.699
		c-0.147,1.431-0.056,2.871-0.006,4.304c0.094,1.703-0.023,3.459-0.69,5.049c-0.664,1.572-1.633,3.032-2.919,4.166
		c-1.755,1.545-4.02,2.423-6.315,2.765c-0.932,0.13-1.877,0.211-2.818,0.147c0.492-0.315,1.023-0.566,1.525-0.861
		c1.51-0.856,2.988-1.803,4.271-2.978c1.293-1.183,2.374-2.59,3.234-4.117c0.845-1.499,1.239-3.193,1.624-4.855
		C139.167,163.092,139.557,161.367,140.41,159.835z"/>
</g>
</svg>
