<?xml version="1.0" encoding="utf-8"?>
<!-- Generator: Adobe Illustrator 16.2.1, SVG Export Plug-In . SVG Version: 6.00 Build 0)  -->
<!DOCTYPE svg PUBLIC "-//W3C//DTD SVG 1.1//EN" "http://www.w3.org/Graphics/SVG/1.1/DTD/svg11.dtd">
<svg version="1.1"
	 id="svg2923" xmlns:svg="http://www.w3.org/2000/svg" xmlns:rdf="http://www.w3.org/1999/02/22-rdf-syntax-ns#" xmlns:cc="http://creativecommons.org/ns#" xmlns:dc="http://purl.org/dc/elements/1.1/" xmlns:sodipodi="http://sodipodi.sourceforge.net/DTD/sodipodi-0.dtd" xmlns:inkscape="http://www.inkscape.org/namespaces/inkscape" inkscape:version="0.48.1 " sodipodi:docname="AJAX.svg"
	 xmlns="http://www.w3.org/2000/svg" xmlns:xlink="http://www.w3.org/1999/xlink" x="0px" y="0px" width="50px" height="50px"
	 viewBox="140.5 71.012 50 50" enable-background="new 140.5 71.012 50 50" xml:space="preserve">
<sodipodi:namedview  id="namedview70" borderopacity="1" inkscape:cx="197.0664" inkscape:cy="-20.976567" fit-margin-top="0" objecttolerance="10" gridtolerance="10" fit-margin-left="0" showgrid="false" inkscape:zoom="1.82629" bordercolor="#666666" guidetolerance="10" pagecolor="#ffffff" inkscape:window-width="1280" inkscape:window-maximized="1" inkscape:window-x="-8" inkscape:pageopacity="0" fit-margin-right="0" inkscape:pageshadow="2" inkscape:window-y="-8" inkscape:current-layer="svg2923" inkscape:window-height="1004" fit-margin-bottom="0">
	</sodipodi:namedview>
<g id="g4591" transform="translate(-10.001192,-8.4888758)">
	<path id="path3099_1_" inkscape:connector-curvature="0" fill="#EE2C30" d="M160.729,103.279"/>
	
		<linearGradient id="path3121_2_" gradientUnits="userSpaceOnUse" x1="105.5371" y1="-27.8454" x2="105.5371" y2="-27.8454" gradientTransform="matrix(102.0885 0 0 9.5293 -10613.415 368.6245)">
		<stop  offset="0" style="stop-color:#EF2C30"/>
		<stop  offset="0.0337" style="stop-color:#EF2C30"/>
		<stop  offset="1" style="stop-color:#FFFFFF"/>
	</linearGradient>
	<path id="path3121_1_" inkscape:connector-curvature="0" fill="url(#path3121_2_)" d="M160.731,103.28"/>
	<path id="path3133_2_" inkscape:connector-curvature="0" fill="#231F20" d="M161.001,103.229"/>
	<path id="path3133_1_" inkscape:connector-curvature="0" fill="#231F20" d="M161.001,103.229"/>
	
		<linearGradient id="path3153_2_" gradientUnits="userSpaceOnUse" x1="106.0029" y1="-37.7169" x2="106.0029" y2="-37.7169" gradientTransform="matrix(92.2685 0 0 11.3295 -9619.7461 530.5461)">
		<stop  offset="0" style="stop-color:#231F20"/>
		<stop  offset="1" style="stop-color:#FFFFFF"/>
	</linearGradient>
	<path id="path3153_1_" inkscape:connector-curvature="0" fill="url(#path3153_2_)" d="M160.995,103.229"/>
</g>
<path id="path2979" inkscape:connector-curvature="0" fill="#FDE449" d="M159.08,99.642l12.157,0.071l4.456,4.563l-8.198,0.082
	l-8.487-4.504L159.08,99.642L159.08,99.642L159.08,99.642z"/>
<path id="path2991" inkscape:connector-curvature="0" fill="#FDE449" d="M153.18,90.336c-0.59-0.146-7.455-2.952-9.744-2.877
	c-3.174,0.368-2.731,4.354-2.731,4.354s0.779-1.208,2.457-0.715c1.678,0.494,14.448,7.506,14.448,7.506l13.592,0.219l-1.413-2.359
	C169.79,96.464,153.771,90.484,153.18,90.336"/>
<path id="path2995" inkscape:connector-curvature="0" fill="#FDE449" d="M185.587,90.702h-31.959c0,0-0.392,0.464-0.392,1.803
	c0.182,0.062,28.808,0.021,28.808,0.021L185.587,90.702"/>
<path id="path2999" inkscape:connector-curvature="0" fill="#3DB94D" d="M178.535,88.679l-23.756,0.232l-1.515,1.822h32.505
	l3.202-1.504l1.411-0.665L178.535,88.679L178.535,88.679z"/>
<linearGradient id="path3019_1_" gradientUnits="userSpaceOnUse" x1="94.5793" y1="-41.9783" x2="94.865" y2="-41.9783" gradientTransform="matrix(129.9917 0 0 10.6956 -12141.3027 538.6371)">
	<stop  offset="0" style="stop-color:#3DB94D"/>
	<stop  offset="1" style="stop-color:#FFFFFF"/>
</linearGradient>
<path id="path3019" inkscape:connector-curvature="0" fill="url(#path3019_1_)" d="M190.253,88.566L154.78,88.91l-1.515,1.823h32.51
	l4.608-2.168H190.253L190.253,88.566z"/>
<path id="path3079" inkscape:connector-curvature="0" fill="#272525" d="M158.677,99.825v-0.333h12.788l5.3,5.199h-9.348
	l-8.891-4.571l0.152-0.628V99.825l0.152-0.297l8.749,4.497h7.561l-3.945-3.868h-12.516L158.677,99.825l0.152-0.297L158.677,99.825
	L158.677,99.825L158.677,99.825z M164.524,100.95l3.399,1.457l0.124-2.06l3.691,2.025l-0.073-0.907l0.663-0.054l0.171,2.135
	l-3.851-2.112l-0.119,1.955l-4.266-1.828L164.524,100.95L164.524,100.95z"/>
<path id="path3083" inkscape:connector-curvature="0" fill="#272525" d="M165.793,101.196v-0.608h1.034v0.608"/>
<path id="path3087" inkscape:connector-curvature="0" fill="#272525" d="M169.959,101.135v-0.608h1.034v0.608"/>
<path id="path3099_2_" inkscape:connector-curvature="0" fill="#EE2C30" d="M179.755,94.156l2.584-1.826"/>
<path id="path3099" inkscape:connector-curvature="0" fill="#EE2C30" d="M182.339,92.33l-29.153,0.03c0,0,0.147,1.354,0.516,1.806
	l26.053-0.01"/>
<linearGradient id="path3121_3_" gradientUnits="userSpaceOnUse" x1="95.5598" y1="-36.4958" x2="95.8455" y2="-36.4958" gradientTransform="matrix(102.0885 0 0 9.5293 -9602.4092 441.0286)">
	<stop  offset="0" style="stop-color:#EF2C30"/>
	<stop  offset="0.0337" style="stop-color:#EF2C30"/>
	<stop  offset="1" style="stop-color:#FFFFFF"/>
</linearGradient>
<path id="path3121" inkscape:connector-curvature="0" fill="url(#path3121_3_)" d="M179.758,94.158l2.578-1.826l-29.149,0.025l0,0
	v0.005c0.01,0.097,0.161,1.368,0.513,1.802l0,0h1.633L179.758,94.158"/>
<path id="path3133" inkscape:connector-curvature="0" fill="#231F20" d="M180.051,94.102l-26.349,0.03c0,0,0.389,1.68,2.631,2.319
	h20.912L180.051,94.102"/>
<linearGradient id="path3153_3_" gradientUnits="userSpaceOnUse" x1="96.0315" y1="-46.158" x2="96.3167" y2="-46.158" gradientTransform="matrix(92.2685 0 0 11.3295 -8706.9521 618.2319)">
	<stop  offset="0" style="stop-color:#231F20"/>
	<stop  offset="1" style="stop-color:#FFFFFF"/>
</linearGradient>
<path id="path3153" inkscape:connector-curvature="0" fill="url(#path3153_3_)" d="M180.045,94.102h-1.579l-24.763,0.03v0.008
	c0.032,0.124,0.477,1.693,2.629,2.312l0,0h20.914L180.045,94.102"/>
<path id="path3177" inkscape:connector-curvature="0" fill="#272525" d="M169.979,96.351l1.613,2.693H157.58l-0.05-0.028
	c-0.002-0.001-0.836-0.467-2.108-1.17c-1.907-1.058-4.793-2.647-7.305-3.997c-1.255-0.674-2.417-1.29-3.313-1.746
	c-0.449-0.229-0.832-0.417-1.125-0.554c-0.29-0.136-0.506-0.222-0.567-0.234c-0.174-0.04-0.335-0.058-0.488-0.058
	c-0.554,0-0.978,0.231-1.272,0.469c-0.146,0.119-0.257,0.237-0.331,0.326l-0.082,0.106l-0.02,0.026l-0.004,0.006l-0.372,0.584
	l-0.036-0.69c0-0.003-0.008-0.15-0.008-0.389c0-0.358,0.018-0.92,0.105-1.503c0.089-0.584,0.244-1.189,0.547-1.65l0.185,0.123
	l-0.191-0.111c0.425-0.734,1.301-1.228,2.685-1.223c0.161,0,0.328,0.007,0.503,0.02l-0.017,0.22l0.008-0.22
	c0.546,0.019,1.371,0.219,2.329,0.506c2.868,0.864,6.872,2.529,6.875,2.531l-0.085,0.204l-0.22-0.033
	c0.079-0.529,0.294-1.113,0.802-1.573c0.506-0.46,1.285-0.782,2.444-0.845h0.009h0.009c0.844,0.021,4.91,0.027,9.944,0.027
	c5.038,0,11.051-0.007,15.805-0.015c2.376-0.003,4.438-0.005,5.906-0.009c1.468-0.002,2.339-0.004,2.34-0.004l0.018,0.442
	l-4.813,0.366l-29.091,0.061h-0.009c-0.136-0.012-0.266-0.017-0.389-0.017c-1.267,0.006-1.902,0.506-2.277,1.118
	c-0.371,0.615-0.443,1.373-0.443,1.825c0,0.124,0.005,0.226,0.01,0.294c0.005,0.068,0.01,0.103,0.01,0.103l-0.44,0.056
	c-0.001-0.007-0.022-0.181-0.022-0.452c0.001-0.497,0.07-1.322,0.506-2.054c0.431-0.731,1.267-1.34,2.656-1.333
	c0.135,0,0.277,0.006,0.423,0.017l-0.018,0.221l0-0.221l29.065-0.061l4.797-0.364l0.017,0.221l0.001,0.221
	c0,0-13.977,0.027-24.052,0.027c-5.038,0-9.095-0.008-9.954-0.027l0.004-0.221l0.012,0.221c-1.091,0.06-1.757,0.354-2.171,0.729
	c-0.412,0.376-0.59,0.847-0.661,1.312l-0.042,0.281l-0.262-0.109c0,0-0.443-0.184-1.141-0.463c-1.046-0.416-2.664-1.043-4.203-1.569
	c-1.535-0.527-3.016-0.954-3.706-0.971h-0.004H144.3c-0.165-0.013-0.321-0.019-0.47-0.019c-1.293,0.004-1.964,0.43-2.303,1.002
	l-0.003,0.007l-0.004,0.005c-0.243,0.362-0.396,0.92-0.478,1.471c-0.083,0.549-0.101,1.092-0.101,1.437
	c0,0.229,0.008,0.365,0.008,0.365l-0.221,0.013l-0.186-0.12c0.008-0.014,0.185-0.29,0.531-0.57c0.344-0.281,0.869-0.568,1.55-0.568
	c0.186,0,0.382,0.021,0.588,0.068c0.188,0.046,0.503,0.189,0.981,0.421c3.31,1.606,13.549,7.324,13.552,7.325l-0.108,0.194v-0.222
	h13.172l-1.21-2.023L169.979,96.351L169.979,96.351L169.979,96.351z"/>
<path id="path3179" inkscape:connector-curvature="0" fill="#FDE449" d="M165.794,101.196h1.034v-0.607h-1.034V101.196z
	 M166.772,101.141h-0.924v-0.496h0.924V101.141z"/>
<path id="path3181" inkscape:connector-curvature="0" fill="#FDE449" d="M169.959,101.135h1.034v-0.608h-1.034V101.135z
	 M170.939,101.079h-0.924v-0.495h0.924V101.079z"/>
<path id="path3193" inkscape:connector-curvature="0" fill="#272525" d="M143.563,88.892c0,0.222-0.179,0.401-0.4,0.401
	c-0.221,0-0.4-0.18-0.4-0.401s0.18-0.401,0.4-0.401C143.385,88.49,143.563,88.67,143.563,88.892"/>
<path id="path3205" inkscape:connector-curvature="0" fill="#FDE449" d="M143.163,88.49c-0.221,0-0.4,0.181-0.4,0.403
	c0,0.22,0.179,0.399,0.4,0.399c0.221,0,0.4-0.181,0.4-0.399C143.563,88.671,143.385,88.49,143.163,88.49 M143.163,89.237
	c-0.19,0-0.346-0.153-0.346-0.343l0.008-0.069c0.032-0.16,0.171-0.277,0.338-0.277c0.191,0,0.346,0.154,0.346,0.347
	C143.509,89.083,143.354,89.237,143.163,89.237"/>
</svg>
