<?xml version="1.0" encoding="utf-8"?>
<!-- Generator: Adobe Illustrator 16.2.1, SVG Export Plug-In . SVG Version: 6.00 Build 0)  -->
<!DOCTYPE svg PUBLIC "-//W3C//DTD SVG 1.1//EN" "http://www.w3.org/Graphics/SVG/1.1/DTD/svg11.dtd">
<svg version="1.1" id="svg2367" xmlns:svg="http://www.w3.org/2000/svg"
	 xmlns="http://www.w3.org/2000/svg" xmlns:xlink="http://www.w3.org/1999/xlink" x="0px" y="0px" width="50px" height="50px"
	 viewBox="0 0 50 50" enable-background="new 0 0 50 50" xml:space="preserve">
<polygon fill-rule="evenodd" clip-rule="evenodd" fill="#0060A9" points="47.108,7.569 25.479,38.246 24.802,38.338 45.847,8.461 
	47.108,7.569 "/>
<polygon fill-rule="evenodd" clip-rule="evenodd" fill="#0060A9" points="42.061,11.322 22.768,38.677 20.062,39.107 37.138,14.953 
	42.061,11.322 "/>
<polygon fill-rule="evenodd" clip-rule="evenodd" fill="#0060A9" points="33.815,17.445 18.338,39.416 15.723,39.847 29.016,20.984 
	33.815,17.445 "/>
<polygon fill-rule="evenodd" clip-rule="evenodd" fill="#0060A9" points="13.786,40.151 0,42.43 25.479,23.567 13.786,40.151 "/>
<polygon fill-rule="evenodd" clip-rule="evenodd" fill="#E03A3E" points="49.447,7.878 28.032,38.186 27.477,37.938 50,6 
	49.447,7.878 "/>
<polygon fill-rule="evenodd" clip-rule="evenodd" fill="#E03A3E" points="46.83,16.309 30.677,39.232 29.416,38.707 48.095,12.245 
	46.83,16.309 "/>
<polygon fill-rule="evenodd" clip-rule="evenodd" fill="#E03A3E" points="45.634,20.153 44.033,25.476 33.571,40.338 31.877,39.693 
	45.634,20.153 "/>
<polygon fill-rule="evenodd" clip-rule="evenodd" fill="#E03A3E" points="43.139,28.493 38.83,42.43 34.494,40.738 43.139,28.493 
	"/>
</svg>
