<?xml version="1.0" encoding="utf-8"?>
<!-- Generator: Adobe Illustrator 16.2.1, SVG Export Plug-In . SVG Version: 6.00 Build 0)  -->
<!DOCTYPE svg PUBLIC "-//W3C//DTD SVG 1.1//EN" "http://www.w3.org/Graphics/SVG/1.1/DTD/svg11.dtd">
<svg version="1.1"
	 id="svg27334" xmlns:dc="http://purl.org/dc/elements/1.1/" xmlns:cc="http://creativecommons.org/ns#" xmlns:rdf="http://www.w3.org/1999/02/22-rdf-syntax-ns#" xmlns:svg="http://www.w3.org/2000/svg"
	 xmlns="http://www.w3.org/2000/svg" xmlns:xlink="http://www.w3.org/1999/xlink" x="0px" y="0px" width="50px" height="50px"
	 viewBox="396.957 151.386 50 50" enable-background="new 396.957 151.386 50 50" xml:space="preserve">
<g id="layer1" transform="translate(25.567578,-341.06902)">
	<g id="g27471" transform="matrix(11.113633,0,0,11.113633,-3675.2785,-5344.2634)">
		<g>
			<path fill="#E60012" d="M368.196,525.766c-0.273,0.254-0.624,0.424-1.018,0.464c-0.041,0.004-0.083,0.007-0.123,0.009
				c-0.078,0.209-0.256,0.501-0.486,0.718c0.541-0.103,0.936-0.38,0.953-0.39c0.017-0.01,0.022-0.026-0.009-0.011
				c-0.183,0.09-0.308,0.111-0.325,0.117c-0.016,0.006-0.039-0.003-0.004-0.013c0.279-0.082,0.554-0.264,0.575-0.281
				c0.021-0.016,0.004-0.015,0.004-0.015s-0.075,0.05-0.089,0.058c-0.015,0.008-0.022,0.002-0.012-0.003
				c0.01-0.005,0.036-0.033-0.006-0.01c-0.114,0.061-0.238,0.113-0.282,0.125c-0.045,0.012-0.014-0.008-0.014-0.008
				s0.059-0.023,0.084-0.034c0.035-0.016,0.036-0.027,0.003-0.015c-0.192,0.072-0.339,0.098-0.386,0.108
				c-0.032,0.007-0.007-0.011-0.007-0.011s0.067-0.013,0.115-0.025c0.282-0.073,0.442-0.174,0.449-0.177
				c0.006-0.003,0.011-0.021,0.002-0.015c-0.008,0.006-0.048,0.026-0.098,0.047c-0.05,0.021-0.127,0.048-0.144,0.051
				c-0.017,0.003-0.01-0.004,0.053-0.028c0.231-0.085,0.356-0.197,0.364-0.202c0.008-0.005,0.015-0.027-0.006-0.009
				c-0.053,0.045-0.128,0.086-0.143,0.093c-0.016,0.008-0.012,0-0.012,0s0.03-0.029-0.017,0.002
				c-0.047,0.031-0.129,0.061-0.142,0.065c-0.012,0.004,0.003-0.011,0.01-0.013c0.008-0.002,0.039-0.016,0.057-0.023
				c0.019-0.007,0.004-0.014,0.004-0.014s-0.004,0.005-0.054,0.023c-0.099,0.037-0.215,0.057-0.215,0.057s-0.037-0.001,0.032-0.02
				C367.841,526.236,368.049,525.949,368.196,525.766z M367.232,526.414c-0.011,0.002-0.017,0.003-0.022,0.001
				c-0.004-0.002,0.003-0.007,0.003-0.007s0.026-0.006,0.032-0.007c0.006-0.002,0.004,0.003,0.008,0.003
				C367.258,526.406,367.242,526.412,367.232,526.414z"/>
			<path fill="#E60012" d="M367.88,526.144c-0.027,0.022-0.048,0.038-0.062,0.047c-0.007,0.005-0.011,0.017-0.005,0.014
				c0.006-0.003,0.008-0.003,0.024-0.014c0.016-0.011,0.042-0.033,0.042-0.033l0.011-0.011
				C367.89,526.146,367.891,526.137,367.88,526.144z"/>
			<path fill="#E60012" d="M367.511,526.45c-0.005,0.003-0.03,0.013-0.03,0.013s-0.006,0.006-0.002,0.007
				c0.005,0.001,0.011-0.001,0.021-0.006c0.01-0.005,0.024-0.014,0.019-0.014C367.515,526.452,367.516,526.447,367.511,526.45z"/>
			<path fill="#E60012" d="M365.464,526.415c0.073-0.008,0.128-0.072,0.121-0.148c-0.001-0.011-0.003-0.022-0.007-0.033
				c0.018,0.022,0.029,0.051,0.032,0.082c0.006,0.078-0.044,0.144-0.126,0.156c-0.02,0.003-0.041,0.004-0.059-0.002
				c-0.003,0.016-0.003,0.035-0.001,0.051c0.001,0.015,0.004,0.03,0.009,0.044v0c0.023,0.074,0.083,0.13,0.156,0.145
				c-0.017-0.019-0.027-0.043-0.03-0.07c-0.004-0.035,0.008-0.068,0.029-0.092c0.015-0.017,0.034-0.029,0.056-0.036
				c0.046-0.014,0.088-0.017,0.214,0.009h0c0.007,0.001,0.014,0.003,0.021,0.004c0.13,0.027,0.276,0.032,0.357,0.03
				c-0.095,0.08-0.233,0.129-0.353,0.128c-0.145-0.001-0.234-0.078-0.234-0.078c0.023,0.058,0.11,0.135,0.265,0.144
				c0.282,0.017,0.568-0.133,0.774-0.313l0,0c0.04-0.035,0.077-0.071,0.11-0.107l-0.007,0.003c-0.107,0.041-0.22,0.068-0.339,0.081
				c-0.209,0.022-0.412-0.007-0.597-0.077c0.137,0.03,0.281,0.038,0.428,0.023c0.246-0.025,0.47-0.114,0.66-0.248
				c0.105,0.012,0.212,0.013,0.321,0.002c0.472-0.048,0.871-0.317,1.11-0.697c-0.257,0.214-0.576,0.355-0.929,0.392
				c-0.066,0.007-0.132,0.01-0.196,0.009c0.092-0.12,0.166-0.255,0.219-0.4c0,0-0.23,0.222-0.616,0.265
				c-0.151,0.016-0.299-0.001-0.415-0.014c-0.25-0.029-0.341,0.025-0.387,0.056c-0.071,0.047-0.117,0.134-0.109,0.225
				c-0.065,0.01-0.116,0.059-0.131,0.121c0.1,0.071,0.221,0.114,0.348,0.12c-0.008,0.001-0.015,0.002-0.022,0.003
				c-0.176,0.018-0.332-0.028-0.488-0.084c-0.068-0.024-0.126-0.032-0.17-0.026c-0.076,0.011-0.134,0.059-0.158,0.122
				c-0.015,0.04-0.013,0.067-0.01,0.089C365.319,526.373,365.391,526.423,365.464,526.415z M366.117,526.029
				c-0.035,0.004-0.066-0.022-0.071-0.058l-0.001-0.006c-0.006-0.058,0.035-0.104,0.089-0.115c0.016-0.003,0.087-0.022,0.212,0.054
				c0.017,0.01,0.034,0.02,0.051,0.03c0.096,0.054,0.197,0.098,0.304,0.129c-0.196,0.064-0.394,0.025-0.394,0.025
				c0.012-0.022,0.017-0.048,0.014-0.075c-0.007-0.072-0.069-0.125-0.139-0.118c-0.013,0.002-0.026,0.005-0.037,0.01
				c0.015,0.011,0.027,0.029,0.029,0.05C366.179,525.993,366.153,526.026,366.117,526.029z"/>
			<path fill="#E60012" d="M365.637,526.834c-0.015,0.032-0.02,0.068-0.014,0.104c0.017,0.113,0.122,0.194,0.251,0.173
				c0.042-0.007,0.107-0.031,0.156-0.065c0.108-0.076,0.268-0.236,0.522-0.322c-0.362,0.026-0.504,0.159-0.623,0.203
				C365.772,526.986,365.678,526.912,365.637,526.834z"/>
			<path fill="#E60012" d="M367.474,527.374c-0.016,0.005-0.044,0.014-0.051,0.016c-0.008,0.002-0.015,0.013-0.011,0.016
				c0.004,0.004,0,0.019,0.012,0.016c0.011-0.003,0.015-0.001,0.039-0.01c0.034-0.014,0.033-0.019,0.034-0.025
				c0.002-0.006-0.003-0.013-0.003-0.013S367.49,527.369,367.474,527.374z"/>
			<path fill="#E60012" d="M367.124,527.23c-0.016,0.005-0.044,0.014-0.051,0.016c-0.008,0.003-0.015,0.013-0.011,0.017
				c0.004,0.003-0.001,0.014,0.01,0.012c0.011-0.003,0.012-0.004,0.036-0.011c0.024-0.007,0.037-0.014,0.039-0.02
				c0.002-0.006-0.003-0.012-0.003-0.012S367.14,527.225,367.124,527.23z"/>
			<path fill="#E60012" d="M366.977,527.123c0.017-0.008,0.128-0.053,0.146-0.056c0.018-0.004,0.091-0.024,0.121-0.033
				c0.055-0.016,0.344-0.091,0.368-0.096c0.024-0.005,0.025-0.021,0.025-0.021s0.002-0.019,0.056-0.033
				c0.054-0.013,0.783-0.177,0.817-0.18c0.035-0.003,0.211-0.065,0.014-0.04c-1.904,0.24-2.854,0.846-3.15,1.063
				c-0.321,0.235-0.563,0.492-0.743,0.727h0c-0.299,0.391-0.428,0.722-0.463,0.803c-0.107,0.25-0.015,0.196,0.001,0.18
				c0.033-0.035,0.157-0.149,0.281-0.259c0.419-0.369,0.86-0.64,1.228-0.831v0c0.404-0.21,0.722-0.326,0.83-0.374
				c0.4-0.175,1.194-0.413,1.216-0.42c0.023-0.007,0.029-0.013,0.047-0.024c0.018-0.01,0.055-0.016,0.096-0.027
				c0.041-0.011,0.046-0.012,0.065-0.022c0.02-0.01,0.021-0.028-0.024-0.019c-0.342,0.064-0.921,0.27-0.941,0.269
				c-0.02-0.001-0.028-0.014,0.02-0.034c0.085-0.037,0.524-0.195,0.524-0.195s0.127-0.046,0.142-0.053
				c0.015-0.006,0.038-0.014,0.061-0.021c0.023-0.008,0.031-0.006,0.057-0.016c0.025-0.009,0.001-0.016-0.008-0.014
				c-0.014,0.002-0.032,0.008-0.045,0.011c-0.028,0.007-0.035,0.003-0.08,0.015c-0.157,0.041-0.563,0.195-0.594,0.208
				c-0.031,0.013-0.032-0.003-0.061,0.008c-0.173,0.068-0.422,0.178-0.453,0.198c-0.031,0.02-0.045,0.026-0.049,0.016
				c-0.004-0.009-0.017,0.002-0.076,0.03c-0.058,0.029-0.051,0.025-0.075,0.039c-0.023,0.014-0.015-0.02-0.012-0.029
				c0.003-0.009,0.147-0.077,0.232-0.118c0.266-0.127,0.811-0.319,0.838-0.333c0.027-0.014,0.001-0.011,0.005-0.023
				c0.004-0.012-0.013-0.013-0.013-0.013s-0.17,0.052-0.236,0.075c-0.028,0.009-0.073,0.026-0.093,0.032
				c-0.021,0.006-0.019-0.012,0.028-0.038c0.047-0.026,0.55-0.206,0.558-0.211c0.008-0.006,0-0.014,0.005-0.026
				c0.006-0.013-0.054,0.002-0.11,0.022c-0.056,0.02-0.831,0.316-0.861,0.325c-0.03,0.008-0.085,0.03-0.059,0.008
				c0.026-0.022,0.59-0.253,0.659-0.282c0.326-0.134,0.786-0.259,0.821-0.269c0.035-0.01,0.075-0.026,0.065-0.034
				c-0.01-0.008,0.015-0.008,0.029-0.014c0.014-0.007-0.004-0.011-0.044-0.001c-0.769,0.195-1.421,0.474-1.471,0.487
				c-0.05,0.013-0.037-0.013-0.004-0.029c0.032-0.017,0.339-0.138,0.349-0.144c0.01-0.005-0.016-0.012,0.005-0.024
				c0.021-0.012,0.011-0.025-0.029-0.011c-0.106,0.038-0.498,0.19-0.523,0.204c-0.025,0.014-0.036,0.016-0.054,0.014
				c-0.018-0.003,0.025-0.027,0.061-0.046c0.037-0.019,0.051-0.023,0.051-0.023s-0.013,0.002,0.04-0.029
				c0.053-0.031,0.465-0.18,0.575-0.22c0.148-0.054,0.683-0.221,0.711-0.229c0.028-0.008,0.012-0.013,0.032-0.023
				c0.02-0.01-0.002-0.008-0.078,0.007c-0.232,0.048-0.772,0.212-0.812,0.228c-0.04,0.016-0.024,0.016-0.047,0.008
				C366.924,527.152,366.96,527.131,366.977,527.123z"/>
		</g>
	</g>
</g>
</svg>
