<?xml version="1.0" encoding="utf-8"?>
<!-- Generator: Adobe Illustrator 16.2.1, SVG Export Plug-In . SVG Version: 6.00 Build 0)  -->
<!DOCTYPE svg PUBLIC "-//W3C//DTD SVG 1.1//EN" "http://www.w3.org/Graphics/SVG/1.1/DTD/svg11.dtd">
<svg version="1.1"
	 id="svg2" xmlns:svg="http://www.w3.org/2000/svg" inkscape:version="0.48.1 " sodipodi:docname="AJAX.svg" xmlns:cc="http://creativecommons.org/ns#" xmlns:sodipodi="http://sodipodi.sourceforge.net/DTD/sodipodi-0.dtd" xmlns:dc="http://purl.org/dc/elements/1.1/" xmlns:rdf="http://www.w3.org/1999/02/22-rdf-syntax-ns#" xmlns:inkscape="http://www.inkscape.org/namespaces/inkscape"
	 xmlns="http://www.w3.org/2000/svg" xmlns:xlink="http://www.w3.org/1999/xlink" x="0px" y="0px" width="50px" height="50px"
	 viewBox="210.853 100.277 50 50" enable-background="new 210.853 100.277 50 50" xml:space="preserve">
<g>
	<path fill="#1B95C2" d="M228.924,124.945h3.903l0.391,1.912h2.381v-2.699c-0.484-0.315-0.829-0.803-0.624-1.555
		c0,0,0.232-0.697,0.624-1.316v-0.529c-0.794,0.228-2.053,0.447-2.342-0.341c0,0-0.39-0.585,0.781-1.131l1.21,0.272
		c0,0-1.288,0.858,0,0.977c0.117,0.014,0.235,0.015,0.351,0.005v-3.128h-4.488l-7.025,9.329h3.239L228.924,124.945z
		 M234.506,123.189c-1.015,0.468-0.897,1.287-0.897,1.287h-0.937c-0.274,0.195-0.429,0.117-0.429,0.117
		C232.789,122.916,234.506,123.189,234.506,123.189z M232.827,119.988v3.044h-2.576L232.827,119.988z"/>
	<path fill="#1B95C2" d="M238.917,124.984h3.902l1.64,1.795h3.239l-7.064-9.328h-4.449v2.954c0.904-0.333,1.64-1.148,1.756-1.236
		l0.195,0.038c0,0-1.444,1.094-1.718,2.498c-0.104,0.457-0.203,0.853-0.233,1.206v0.394c0.054,0.525,0.353,0.966,1.171,1.406
		c0,0-0.578-0.048-1.171-0.267v2.453h2.38L238.917,124.984z M238.917,120.027l2.575,3.045h-2.575V120.027z"/>
	<polygon fill="#1B95C2" points="227.871,117.373 211.009,117.373 211.009,123.305 223.225,123.305 	"/>
	<polygon fill="#1B95C2" points="222.055,124.75 210.931,124.75 210.931,126.857 220.337,126.857 	"/>
	<polygon fill="#1B95C2" points="260.735,123.344 260.735,117.373 243.873,117.373 248.558,123.344 	"/>
	<polygon fill="#1B95C2" points="249.689,124.789 251.406,126.897 260.853,126.897 260.853,124.789 	"/>
	<rect x="216.395" y="128.966" fill="#1B95C2" width="1.562" height="4.098"/>
	<path fill="#1B95C2" d="M234.311,131.425c0,0.43-0.156,0.741-0.703,0.741c-0.625,0-0.742-0.352-0.742-0.741v-2.459h-1.561v2.303
		c0,1.444,0.819,1.912,2.303,1.912c1.561,0,2.264-0.586,2.264-1.873v-2.342h-1.561V131.425z"/>
	<path fill="#1B95C2" d="M238.136,130.018c0-0.116,0.156-0.233,0.508-0.233c0.155,0,0.273,0.039,0.39,0.078
		c0.117,0.077,0.195,0.155,0.234,0.312h1.483c-0.117-0.742-0.741-1.327-2.029-1.327c-1.211,0-2.069,0.429-2.069,1.327
		c0,1.561,2.732,1.132,2.732,1.756c0,0.195-0.273,0.312-0.663,0.312c-0.157,0-0.312-0.039-0.43-0.117s-0.234-0.156-0.273-0.312
		h-1.482c0.038,0.741,0.858,1.366,2.107,1.366c1.288,0,2.225-0.468,2.225-1.404C240.868,130.253,238.136,130.644,238.136,130.018z"
		/>
	<polygon fill="#1B95C2" points="241.298,130.058 242.664,130.058 242.664,133.063 244.225,133.063 244.225,130.058 245.63,130.058 
		245.63,128.966 241.298,128.966 	"/>
	<polygon fill="#1B95C2" points="258.081,128.966 256.559,128.966 256.559,133.063 260.228,133.063 260.228,132.127 
		258.081,132.127 	"/>
	<path fill="#1B95C2" d="M212.57,128.966l-1.718,4.098h1.522l0.196-0.546h1.522l0.195,0.546h1.522l-1.678-4.098H212.57z
		 M212.843,131.658l0.468-1.444l0.507,1.444H212.843z"/>
	<path fill="#1B95C2" d="M223.187,132.244c0-0.859-0.313-0.937-0.781-1.094c0.546-0.155,0.781-0.546,0.781-1.014
		c0-0.82-0.508-1.171-2.108-1.171h-2.225v4.098h1.562v-1.405h0.468c0.702,0,0.82,0.156,0.82,0.703c0,0.352,0.039,0.624,0.078,0.702
		h1.561v-0.116C223.187,132.947,223.187,132.751,223.187,132.244z M221.001,130.722h-0.585v-0.782h0.702
		c0.352,0,0.625,0.118,0.625,0.43C221.742,130.644,221.508,130.722,221.001,130.722z"/>
	<path fill="#1B95C2" d="M227.519,128.966l-1.678,4.098h1.483l0.195-0.546h1.561l0.156,0.546h1.562l-1.718-4.098H227.519z
		 M227.832,131.658l0.468-1.444l0.507,1.444H227.832z"/>
	<path fill="#1B95C2" d="M250.548,132.244c0-0.859-0.273-0.937-0.78-1.094c0.547-0.155,0.78-0.546,0.78-1.014
		c0-0.82-0.507-1.171-2.068-1.171h-2.264v4.098h1.561v-1.405h0.469c0.741,0,0.819,0.156,0.819,0.703
		c0,0.352,0.039,0.624,0.078,0.702h1.601v-0.116C250.548,132.947,250.548,132.751,250.548,132.244z M248.401,130.722h-0.625v-0.782
		h0.742c0.352,0,0.624,0.118,0.624,0.43C249.143,130.644,248.87,130.722,248.401,130.722z"/>
	<path fill="#1B95C2" d="M252.695,128.966l-1.68,4.098h1.522l0.157-0.546h1.561l0.195,0.546h1.522l-1.679-4.098H252.695z
		 M253.007,131.658l0.469-1.444l0.507,1.444H253.007z"/>
</g>
</svg>
