<?xml version="1.0" encoding="utf-8"?>
<!-- Generator: Adobe Illustrator 16.2.1, SVG Export Plug-In . SVG Version: 6.00 Build 0)  -->
<!DOCTYPE svg PUBLIC "-//W3C//DTD SVG 1.1//EN" "http://www.w3.org/Graphics/SVG/1.1/DTD/svg11.dtd">
<svg version="1.1"
	 id="Layer_1" xmlns:inkscape="http://www.inkscape.org/namespaces/inkscape" xmlns:dc="http://purl.org/dc/elements/1.1/" xmlns:cc="http://creativecommons.org/ns#" xmlns:sodipodi="http://sodipodi.sourceforge.net/DTD/sodipodi-0.dtd" xmlns:rdf="http://www.w3.org/1999/02/22-rdf-syntax-ns#" inkscape:version="0.48.1 " sodipodi:docname="AJAX.svg" xmlns:svg="http://www.w3.org/2000/svg"
	 xmlns="http://www.w3.org/2000/svg" xmlns:xlink="http://www.w3.org/1999/xlink" x="0px" y="0px" width="50px" height="50px"
	 viewBox="0.5 30.5 50 50" enable-background="new 0.5 30.5 50 50" xml:space="preserve">
<sodipodi:namedview  inkscape:window-maximized="1" inkscape:current-layer="Layer_1" inkscape:window-height="1004" inkscape:window-x="-8" inkscape:zoom="2.0662113" guidetolerance="10" borderopacity="1" gridtolerance="10" showgrid="false" objecttolerance="10" pagecolor="#ffffff" bordercolor="#666666" inkscape:cy="-51.820203" inkscape:cx="149.95667" inkscape:window-width="1280" inkscape:pageopacity="0" inkscape:pageshadow="2" inkscape:window-y="-8" fit-margin-left="0" fit-margin-top="0" id="namedview9" fit-margin-bottom="0" fit-margin-right="0">
	</sodipodi:namedview>
<g id="g3" transform="translate(-4.99971, -4.67598)">
	<path id="path7" inkscape:connector-curvature="0" fill="#4D82C4" d="M40.046,69.578c2.751-2.129,5.386-5.354,6.941-9.36
		c2.373-0.374,5.361-2.435,7.575-3.968c-1.572,2.909-4.067,6.3-7.854,10.144c-2.214,2.107-4.468,3.865-6.666,5.251
		c-6.738,4.271-12.939,5.1-15.286,2.498c-1.081-1.157-1.405-2.921-0.983-5.077c-1.316,1.111-2.636,2.081-3.93,2.933
		c-5.623,3.614-10.882,4.641-13.197,2.128c-3.155-3.473,0.42-12.295,7.978-19.691c1.696-1.675,3.474-3.12,5.219-4.345
		c5.983-4.148,11.742-5.447,14.197-2.785c1.042,1.16,1.341,2.895,0.996,4.979c1.2-1.029,2.971-2.376,5.006-3.72
		c3.892-2.537,8.677-5.038,12.066-5.35c2.174-0.207,3.33,0.393,3.391,1.926v0.246c-0.022,0.594-0.197,1.325-0.521,2.185
		c-2.229,5.955-9.015,10.625-14.936,13.618c-4.682,2.385-8.845,3.706-9.829,3.807C28.023,73.601,34.287,74.034,40.046,69.578
		 M40.046,50.773c-3.87,2.518-7.734,6.731-8.397,10.245c2.554,0.275,5.602-0.537,8.397-1.86c5.364-2.521,9.793-6.981,8.012-9.641
		C46.805,47.613,43.434,48.563,40.046,50.773z M19.845,69.928c1.636-1.339,3.312-3.183,4.788-5.377l0.439-0.698l0.262-0.438
		c-3.311-2.209-4.888-5.222-5.489-6.838c-0.298-0.826-0.36-1.275-0.238-1.113l0.238,0.396c0.761,1.259,2.473,3.883,7.079,4.525
		c1.992-4.571,2.199-8.748,0.163-10.248c-1.658-1.222-4.426-0.373-7.242,1.938c-1.655,1.343-3.302,3.182-4.785,5.391
		c-3.992,5.998-5.108,12.463-2.469,14.405C14.267,73.086,17.035,72.243,19.845,69.928z"/>
</g>
</svg>
