<?xml version="1.0" encoding="utf-8"?>
<!-- Generator: Adobe Illustrator 16.2.1, SVG Export Plug-In . SVG Version: 6.00 Build 0)  -->
<!DOCTYPE svg PUBLIC "-//W3C//DTD SVG 1.1//EN" "http://www.w3.org/Graphics/SVG/1.1/DTD/svg11.dtd">
<svg version="1.1" id="svg3025" xmlns:svg="http://www.w3.org/2000/svg"
	 xmlns="http://www.w3.org/2000/svg" xmlns:xlink="http://www.w3.org/1999/xlink" x="0px" y="0px" width="50px" height="50px"
	 viewBox="285.641 55.051 50 50" enable-background="new 285.641 55.051 50 50" xml:space="preserve">
<g id="layer1" transform="translate(-44.85937,-501.383)">
	<path id="path5" fill="#FF4F0A" d="M351.015,578.549v5.594l2.603,0.031l5.669-4.477c-2.331,0-4.277,0.488-5.413,2.041
		c0.431,0.174,0.835,0.421,1.224,0.881c-0.878-0.072-1.581,0.203-1.998,0.98C353.143,581.054,352.366,579.469,351.015,578.549
		L351.015,578.549z M378.059,580.053c-0.739-0.003-1.407,0.055-2.004,0.163c-1.54,0.272-2.59,0.863-3.209,1.511
		c-0.92,0.949-0.863,2.012,0,2.328c0.633,0.245,1.7,0.089,3.153-0.817l-0.475,0.924h0.531l2.072,0.013l2.373-3.914
		C379.608,580.123,378.798,580.057,378.059,580.053L378.059,580.053z M365.567,580.06c-0.586,0.015-1.122,0.069-1.611,0.156
		c-1.582,0.288-2.661,0.893-3.265,1.554c-0.834,0.922-0.791,1.928,0,2.273c0.633,0.259,1.715,0.115,3.197-0.806l-0.462,0.924h0.531
		l2.073,0.013l1.455-2.404l0.918-1.51c-0.317-0.043-0.616-0.084-0.918-0.113C366.793,580.075,366.153,580.045,365.567,580.06z
		 M370.742,580.178c-1.281,0.02-2.553,0.365-2.84,1.193c-0.101,0.359,0.111,0.714,0.543,1.073c0.561,0.547,0.637,0.879-0.356,0.749
		c-0.216-0.043-0.418-0.111-0.605-0.212c-0.086-0.058-0.171-0.117-0.244-0.175l-0.662,0.961c0.288,0.13,0.589,0.247,0.905,0.318
		c1.654,0.432,3.481,0.232,4.445-1.005c0.144-0.374-0.201-0.751-0.805-1.111c-1.093-0.733-0.333-1.106,1.479-0.53l0.244-0.199
		l0.605-0.488c-0.158-0.114-0.361-0.207-0.605-0.293C372.28,580.27,371.511,580.167,370.742,580.178L370.742,580.178z
		 M334.445,580.185c-1.765,0.041-3.389,0.825-3.945,2.291v0.706c0.389,1.48,3.553,1.18,4.589,0.705l0.749-1.211
		c-1.827,0.575-2.722,0.502-2.679-0.231c0.576-1.036,1.614-1.409,3.34-0.806l0.187-0.256l0.487-0.662
		c-0.158-0.071-0.329-0.129-0.487-0.187c-0.611-0.212-1.252-0.329-1.885-0.35C334.683,580.181,334.563,580.182,334.445,580.185
		L334.445,580.185z M340.819,580.191c-0.289-0.006-0.593,0.012-0.898,0.056c-0.23,0.028-0.474,0.071-0.718,0.144
		c-1.107,0.287-1.998,0.816-2.516,1.393c-0.388,0.432-0.575,0.881-0.474,1.298c0.057,0.23,0.215,0.444,0.474,0.631
		c0.676,0.475,1.954,0.746,3.234,0.53c0.172-0.028,0.345-0.057,0.518-0.1c1.094-0.287,1.976-0.834,2.479-1.424
		c0.389-0.445,0.575-0.918,0.475-1.336c-0.058-0.23-0.215-0.445-0.475-0.617C342.453,580.42,341.688,580.204,340.819,580.191z
		 M349.029,580.234l-4.189,0.081l-1.923,3.097l-0.474,0.762l0.474,0.012l2.21,0.045c0.432-0.806,1.037-1.537,1.698-2.242
		c0.36-0.389,1.496-1.039,0.806,0.068l-1.367,2.143h2.678l1.28-2.111C351.027,580.736,350.424,580.221,349.029,580.234z
		 M358.681,580.26l-2.435,3.901h2.678l1.767-2.978l0.549-0.924h-0.549H358.681z M340.376,581.189c0.14,0,0.263,0.044,0.35,0.138
		c0.273,0.272,0.132,0.891-0.3,1.38c-0.158,0.158-0.333,0.301-0.505,0.387c-0.302,0.158-0.614,0.16-0.787-0.013
		c-0.273-0.272-0.132-0.905,0.3-1.38c0.158-0.172,0.329-0.307,0.487-0.393C340.079,581.228,340.236,581.189,340.376,581.189
		L340.376,581.189z M364.768,581.209c0.081,0.001,0.157,0.014,0.225,0.043c0.144,0.173-0.446,0.905-1.036,1.38
		c-0.388,0.316-0.762,0.535-0.949,0.405c-0.302-0.402,0.287-1.151,0.949-1.555C364.237,581.31,364.526,581.203,364.768,581.209
		L364.768,581.209z M376.873,581.209c0.08,0.001,0.153,0.014,0.218,0.043c0.144,0.173-0.447,0.905-1.036,1.38
		c-0.375,0.316-0.762,0.535-0.949,0.405c-0.302-0.402,0.287-1.151,0.949-1.555C376.335,581.31,376.633,581.203,376.873,581.209
		L376.873,581.209z"/>
</g>
</svg>
