<?xml version="1.0" encoding="utf-8"?>
<!-- Generator: Adobe Illustrator 16.2.1, SVG Export Plug-In . SVG Version: 6.00 Build 0)  -->
<!DOCTYPE svg PUBLIC "-//W3C//DTD SVG 1.1//EN" "http://www.w3.org/Graphics/SVG/1.1/DTD/svg11.dtd">
<svg version="1.1" id="svg10602" xmlns:svg="http://www.w3.org/2000/svg"
	 xmlns="http://www.w3.org/2000/svg" xmlns:xlink="http://www.w3.org/1999/xlink" x="0px" y="0px" width="50px" height="50px"
	 viewBox="462.5 194.5 50 50" enable-background="new 462.5 194.5 50 50" xml:space="preserve">
<path id="path7150" fill="#28168F" d="M512.5,219.57c0,0-0.14-10.444-7.381-17.689c0,0-7.381-7.381-17.548-7.381
	c0,0-10.447,0-17.688,7.381c0,0-7.383,7.385-7.383,17.689c0,0,0,10.17,7.383,17.551c0,0,7.241,7.241,17.688,7.377
	c0,0,10.307-0.136,17.548-7.377C505.119,237.121,512.36,229.879,512.5,219.57"/>
<path id="path7152" fill="#FFFFFF" d="M510.968,219.57c0,0-0.139-9.747-6.962-16.573c0,0-6.826-6.962-16.435-6.962
	c0,0-9.75,0-16.575,6.962c0,0-6.962,6.826-6.962,16.573c0,0,0,9.611,6.962,16.434c0,0,6.824,6.826,16.575,6.966
	c0,0,9.609-0.14,16.435-6.966C504.006,236.004,510.829,229.182,510.968,219.57"/>
<path id="path7140" fill="#28168F" d="M487.569,205.922c3.762,0.419,3.204,2.646,3.204,2.646l-1.532,5.569h-1.253l0.834-3.343
	l-6.406,1.954c1.81,0.136,1.393,1.389,1.393,1.389l-4.457,0.419l-6.547,1.393c-8.218,2.646-6.824,7.663-6.824,7.663
	c0.417,1.948,3.343,3.2,3.343,3.2l5.57,1.113v-0.278l-3.343-1.529c-1.67-1.396-1.81-2.924-1.81-2.924
	c-0.417-3.483,3.342-5.434,3.342-5.434l5.015-1.672l5.432-0.694l-3.621,11.282c-0.557,1.528-3.343,2.227-3.343,2.227l-0.279,0.14
	h17.131c7.66,0,11.977-2.366,11.977-2.366c3.622-2.094,3.622-5.019,3.622-5.019c0-2.645-3.762-4.731-3.762-4.731
	c-3.343-1.812-6.687-2.091-6.687-2.091c5.434-0.419,5.713-4.596,5.713-4.596c0.279-4.317-5.434-4.317-5.434-4.317H487.569z
	 M495.696,207.44c1.231,0.011,4.402,0.353,3.152,3.633l-2.227,2.09l-3.342,0.974l1.949-6.686
	C495.229,207.451,495.41,207.438,495.696,207.44z M487.708,215.254h1.113l-3.621,12.671h-1.393L487.708,215.254z M493.002,215.529
	c0,0,2.923,0.419,4.317,1.672c0,0,2.646,2.369,0.279,6.132c0,0-2.509,3.897-8.079,4.453L493.002,215.529z M496.342,215.669
	c0,0,5.294,0.978,7.381,3.064c0,0,1.396,1.396,0.977,3.482c0,0-0.418,2.087-3.901,3.762l-5.43,1.529c0,0,6.128-1.669,6.683-5.57
	C502.052,221.937,502.61,217.899,496.342,215.669z"/>
</svg>
