<?xml version="1.0" encoding="utf-8"?>
<!-- Generator: Adobe Illustrator 16.2.1, SVG Export Plug-In . SVG Version: 6.00 Build 0)  -->
<!DOCTYPE svg PUBLIC "-//W3C//DTD SVG 1.1//EN" "http://www.w3.org/Graphics/SVG/1.1/DTD/svg11.dtd">
<svg version="1.1" id="svg2367" xmlns:svg="http://www.w3.org/2000/svg"
	 xmlns="http://www.w3.org/2000/svg" xmlns:xlink="http://www.w3.org/1999/xlink" x="0px" y="0px" width="50px" height="50px"
	 viewBox="393.414 106.031 50 50" enable-background="new 393.414 106.031 50 50" xml:space="preserve">
<g>
	<path fill="#D09B2B" d="M418.412,142.089c-0.436,0.235-3.555,2.887-9.771,2.887c-5.234,0-10.823-2.662-12.574-2.611
		c-0.617-0.021-1.116,0.099-1.503,0.27c-0.729,0.305-1.207-0.179-1.145-0.59c0.068-0.414,0.667-1.184,1.104-1.736
		c0.531-0.688,1.364-1.449,2.251-2.056c2.482-1.69,4.779-1.728,5.799-1.546c0.155,0.026,0.598,0.048,1.303,0.734
		c1.69,1.623,4.74,3.666,7.087,4.088c0.246,0.026,1.312,0.134,1.33-0.171c0.011-0.179-0.286-0.251-0.387-0.272
		c-3.768-0.852-5.942-2.691-8.017-4.585c-1.69-1.538-2.973-3.447-3.942-5.309c-0.764-1.479-1.836-4.406-3.785-5.387
		c-0.436-0.211-0.449-1.007,0.46-1.215c0.633-0.155,4.479-0.516,9.058,1.957c1.803,0.978,2.385,2.064,2.452,2.331
		c0,0,0.107,0.064,0.133,0.532c0.243,6.599,3.146,8.81,4.551,9.83c0.571,0.443,1.282,0.63,1.474,0.435
		c0.088-0.096-0.144-0.302-0.294-0.403c-4.051-2.667-4.833-6.145-5.052-9.875c-0.214-3.707,1.351-6.933,2.342-9.565
		c0.142-0.374,0.713-2.07,0.283-3.509c-0.289-0.976,0.019-1.205,0.553-1.285c0.545-0.08,1.373,1.042,1.661,1.392
		c0.219,0.265,0.951,1.111,2.045,3.287c2.163,4.292,2.179,9.045,2.179,9.59c-0.04,3.09-0.609,3.276-2.083,3.995
		c-1.223,0.478-1.912,1.463-1.912,2.419c0,0.978,0.729,1.701,2.056,2.268c0.088,0.024,0.246,0.075,0.312,0.094
		c0.582,0.142,1.071,0.013,1.071-0.211c0-0.198-0.577-0.27-0.577-0.27c-1.292-0.321-2.192-1.05-2.192-1.883
		c0-1.133,1.589-2.281,3.624-2.281h0.104l0.115-0.002c2.024,0,3.616,1.146,3.616,2.28c0,0.833-0.897,1.562-2.19,1.883
		c0,0-0.577,0.074-0.577,0.27c0.005,0.225,0.483,0.353,1.068,0.211c0.075-0.016,0.224-0.064,0.32-0.096
		c1.327-0.563,2.051-1.29,2.051-2.265c0-0.956-0.684-1.937-1.915-2.42c-1.472-0.713-2.032-0.905-2.08-3.997
		c-0.005-0.543,0.021-5.296,2.173-9.585c1.098-2.179,1.827-3.028,2.051-3.29c0.286-0.347,1.111-1.469,1.661-1.392
		c0.542,0.083,0.838,0.312,0.55,1.285c-0.43,1.444,0.139,3.138,0.283,3.509c0.983,2.636,2.553,5.856,2.339,9.568
		c-0.214,3.73-0.996,7.208-5.047,9.87c-0.16,0.104-0.376,0.307-0.289,0.408c0.187,0.198,0.897,0.006,1.466-0.435
		c1.402-1.018,4.305-3.231,4.548-9.833c0.035-0.465,0.144-0.531,0.144-0.531c0.064-0.265,0.641-1.352,2.441-2.329
		c4.591-2.476,8.428-2.112,9.063-1.96c0.908,0.211,0.895,1.01,0.465,1.215c-1.955,0.985-3.026,3.907-3.79,5.387
		c-0.964,1.866-2.251,3.776-3.939,5.314c-2.078,1.891-4.251,3.73-8.022,4.585c-0.096,0.019-0.395,0.088-0.385,0.272
		c0.016,0.302,1.079,0.194,1.335,0.168c2.339-0.419,5.384-2.465,7.087-4.088c0.705-0.685,1.143-0.705,1.303-0.734
		c1.009-0.18,3.306-0.142,5.792,1.549c0.895,0.598,1.728,1.364,2.246,2.051c0.438,0.558,1.036,1.327,1.108,1.741
		c0.064,0.411-0.414,0.892-1.146,0.59c-0.387-0.171-0.884-0.294-1.501-0.27c-1.754-0.054-7.344,2.614-12.578,2.608
		C421.977,144.974,418.853,142.324,418.412,142.089z"/>
</g>
</svg>
