<?xml version="1.0" encoding="utf-8"?>
<!-- Generator: Adobe Illustrator 16.2.1, SVG Export Plug-In . SVG Version: 6.00 Build 0)  -->
<!DOCTYPE svg PUBLIC "-//W3C//DTD SVG 1.1//EN" "http://www.w3.org/Graphics/SVG/1.1/DTD/svg11.dtd">
<svg version="1.1" id="svg2319" xmlns:svg="http://www.w3.org/2000/svg"
	 xmlns="http://www.w3.org/2000/svg" xmlns:xlink="http://www.w3.org/1999/xlink" x="0px" y="0px" width="50px" height="50px"
	 viewBox="499.712 123.039 50 50" enable-background="new 499.712 123.039 50 50" xml:space="preserve">
<g id="layer1" transform="translate(-2015.314,2220.9234)">
	<g id="g61011" transform="translate(17.716535,17.661845)">
		<path id="path60900" fill="#261B51" d="M2498.894-2072.403c-1.161,0-1.818-0.797-1.508-2.2l3.12-14.66
			c0.26-1.282,0.935-2.2,2.079-3.066l17.208-13.394c1.525-1.18,3.066-2.132,5.111-2.132h22.406l-12.441,32.49
			c-0.796,2.062-2.149,2.962-4.385,2.979L2498.894-2072.403"/>
		<path id="path60902" fill="#E01439" d="M2500.472-2075.157c-0.867,0-1.403-0.468-1.163-1.578l3.016-14.121
			c0.26-1.214,0.728-1.855,1.663-2.583l15.146-11.765c1.144-0.884,2.27-1.439,4.019-1.439h20.587l-11.159,29.129
			c-0.746,1.957-1.576,2.357-3.674,2.357H2500.472"/>
		<path id="path60910" fill="#FFFFFF" d="M2519.394-2108.982c0.692,0.052,1.022,0.642,1.126,0.831
			c0.051,0.191,0.085,0.364,0.122,0.745c0,0.088,0,0.121-0.017,0.209c-0.019,0.294-0.104,0.469-0.243,0.745
			c-0.122,0.226-0.175,0.381-0.381,0.554c-0.279,0.26-0.502,0.364-0.573,0.435c-0.034,0.051-0.328,0.276-0.416,0.381
			c-0.087,0.103-0.417,0.554-0.573,0.797c-0.121,0.209-0.138,0.554-0.537,1.022c-0.172,0.189-0.294,0.276-0.398,0.502
			c-0.104,0.227-0.104,0.398-0.26,0.59c-0.26,0.382-0.485,0.521-0.711,0.918c-0.224,0.382-0.26,0.642-0.416,1.057
			c-0.172,0.415-0.485,0.573-0.571,1.005c-0.053,0.226,0,0.348-0.053,0.554c-0.121,0.644-0.59,0.833-0.971,1.387
			c-0.138,0.191-0.155,0.347-0.207,0.59c-0.087,0.33-0.155,0.503-0.296,0.833c-0.224,0.52-0.241,0.864-0.398,1.42
			c-0.104,0.364-0.155,0.571-0.26,0.936c-0.034,0.191-0.172,0.276-0.189,0.485l-0.017,0.172c0,0.139-0.087,0.192-0.104,0.313
			c-0.053,0.294-0.122,0.449-0.192,0.745c-0.328,1.421-0.658,2.184-1.144,3.587c-0.172,0.502-0.189,0.796-0.362,1.315
			c-0.121,0.364-0.226,0.573-0.279,0.954c-0.051,0.312-0.068,0.486-0.122,0.797c-0.051,0.364-0.034,0.573-0.068,0.938
			c-0.017,0.206-0.036,0.311-0.087,0.52c-0.243,1.16-0.571,1.991-0.692,2.962l-0.053,0.641l-0.19,0.936v0.157
			c-0.053,0.483-0.539,0.936-0.988,0.884c-0.59-0.053-0.729-0.694-0.763-1.318c-0.034-0.397-0.07-0.641-0.087-1.039
			c-0.017-0.226-0.121-0.33-0.155-0.554c0-0.07,0-0.121,0-0.191c0-0.068-0.138-1.127-0.26-1.853c-0.087-0.59-0.155-1.7-0.172-1.717
			c-0.037-0.034-0.07-0.469-0.07-0.884c0-0.243-0.07-0.503-0.07-0.624c-0.017-0.121,0.036-0.173,0.036-0.294
			c-0.017-0.347-0.017-0.537-0.07-0.867c-0.051-0.312-0.068-0.485-0.087-0.813v-0.121c0.019-0.573-0.102-1.265-0.138-2.063
			c-0.017-0.362,0.017-0.571,0.017-0.935c0-0.294,0.019-0.676-0.103-0.746c-0.191-0.087-0.277,0.173-0.347,0.313
			c-0.172,0.276-0.277,0.449-0.432,0.743c-0.226,0.435-0.313,0.694-0.556,1.127c-0.26,0.468-0.381,0.745-0.624,1.23
			c-0.207,0.381-0.486,0.711-0.867,0.692c-0.311-0.034-0.604-0.415-0.604-0.692c0.017-0.243,0.189-0.763,0.381-1.16
			c0.207-0.435,0.364-0.78,0.485-1.145c0.136-0.363,0.224-0.468,0.362-0.884c0.175-0.52,0.417-0.866,0.607-1.386
			c0.243-0.607,0.433-0.884,0.694-1.491c0.122-0.276,0.207-0.485,0.311-0.762c0.051-0.139,0.243-0.554,0.364-0.918
			c0.087-0.277,0.172-0.573,0.26-0.712c0.172-0.206,0.432-0.242,0.711-0.224c0.587,0.052,0.952,0.398,0.918,0.97
			c-0.034,0.397-0.139,0.85-0.104,1.247c-0.017,0.26,0.034,0.156,0.051,0.433c0.07,1.024,0.141,1.163,0.141,1.977
			c0.068,0.485,0.068,1.316,0.068,1.316c-0.034,0.33,0.034,0.902,0.087,1.23c0.034,0.33-0.053,0.433,0.017,0.935
			c0.068,0.4,0.068,0.867,0.068,1.006c0,0.175,0.019,0.485,0.036,0.66c0,0.121,0,0.381,0.051,0.779
			c0.051,0.294,0.017,0.52,0.122,0.83c0.017,0.07,0.051,0.175,0.138,0.175c0.07,0,0.158-0.104,0.226-0.191
			c0.19-0.311,0.19-0.52,0.347-0.85c0.19-0.415,0.294-0.692,0.381-1.107c0.172-0.469,0.364-1.369,0.658-2.219
			c0.294-0.867,0.415-1.37,0.675-2.234c0.175-0.607,0.33-0.972,0.486-1.525c0.087-0.278,0.172-0.417,0.208-0.711
			c0.034-0.155,0.085-0.26,0.139-0.415c0.155-0.607,0.311-1.022,0.398-1.542l0.017-0.139c0.034-0.104,0.104-0.364,0.26-0.606
			c0.173-0.418,0.33-0.642,0.607-1.006c0.416-0.538,0.398-0.987,0.675-1.611c0.036-0.034,0.226-0.382,0.277-0.658
			c0.053-0.034,0.158-0.209,0.208-0.435c0.087-0.085,0.571-1.542,0.867-2.112c0.034-0.158,0.172-0.33,0.26-0.521
			c0.087-0.208,0.502-1.058,0.728-1.595c0.156-0.433,0.156-0.711,0.364-1.127c0.241-0.432,0.398-0.935,0.466-1.178
			c0.139-0.26,0.26-0.397,0.452-0.623c0.277-0.348,0.466-0.554,0.884-0.676C2519.064-2108.931,2519.203-2108.999,2519.394-2108.982z
			 M2530.675-2100.406c0.449,0.036,0.867,0.384,0.813,0.815c-0.034,0.364-0.155,0.416-0.243,0.537
			c-0.139,0.191-0.122,0.52-0.813,0.537c-0.347-0.034-0.746-0.483-0.711-0.936
			C2529.774-2099.972,2530.173-2100.44,2530.675-2100.406z M2534.851-2098.413c0.607,0.054,0.884,0.678,0.796,1.353
			c0,0.068-0.034,0.104-0.034,0.155c-0.017,0.175,0,0.277-0.017,0.452c-0.019,0.155-0.104,0.57-0.104,0.57
			c-0.034,0.33-0.139,0.485-0.175,0.815c0,0.103,0.019,0.156,0,0.241c-0.017,0.191-0.051,0.296-0.085,0.485
			c-0.07,0.451,0.243,0.52,0.328,0.729c0.209,0.121,0.296,0.33,0.556,0.347c0.121,0.018,0.485-0.104,0.571-0.121
			c0.485-0.175,0.762-0.26,1.231-0.451c0.728-0.312,1.039-0.571,1.75-0.936c0.466-0.242,0.901-0.485,1.42-0.451
			c0.432,0.036,0.833,0.398,0.918,0.711c0.053,0.156,0.121,0.348,0.104,0.554c-0.017,0.054,0.017,0.104,0.017,0.175
			c-0.017,0.104-0.034,0.155-0.051,0.26c-0.054,0.277-0.054,0.449-0.192,0.709c-0.122,0.261-0.311,0.348-0.588,0.486
			c-0.279,0.175-0.521,0.242-0.85,0.208l-0.175-0.017c-0.224-0.017-0.328-0.104-0.571-0.121c-0.364-0.036-0.607,0.104-0.952,0.226
			c-0.4,0.172-0.867,0.379-1.005,0.433c-0.398,0.155-1.231,0.502-1.976,0.866c-1.559,0.745-2.618,1.144-4.142,1.957
			c-0.571,0.33-0.746,0.485-1.367,0.745c-0.384,0.173-0.624,0.192-0.988,0.364c-0.624,0.33-0.954,0.554-1.491,1.022
			c-0.452,0.312-1.11,0.884-1.646,1.109c-0.502,0.189-1.073,0.605-1.455,0.988c-0.087,0.068-0.434,0.26-0.521,0.763l-0.017,1.367
			c-0.017,0.279-0.155,0.435-0.172,0.745l-0.07,0.972c-0.017,0.364,0.087,0.415,0.07,0.709l-0.034,0.4
			c-0.036,0.449,0.121,0.709,0.104,1.16c-0.104,0.485-0.07,0.709-0.104,1.178c-0.017,0.469,0.017,0.745,0.104,1.197
			c0.051,0.345,0,0.52,0.119,0.83c0.174,0.469,0.243,0.729,0.417,1.195c0.121,0.312,0.189,0.572,0.172,0.902
			c-0.068,0.658-0.624,1.022-1.316,1.022c-0.07,0-0.607-0.036-0.816-0.209c-0.243-0.208-0.294-0.572-0.277-0.9
			c0.017-0.451,0.034-0.624,0-1.093c0.034-0.242-0.017-0.381-0.07-0.604c-0.085-0.539-0.155-0.85-0.119-1.387
			c0.051-0.694,0.138-1.075,0.189-1.768c0.017-0.451,0-0.711,0-1.18c-0.034-0.449-0.087-0.709-0.104-1.16
			c-0.034-0.763,0.017-1.195,0.034-1.958c0-0.191,0.019-0.276,0.019-0.468c0-0.226-0.087-0.348-0.226-0.364
			c-0.313-0.034-0.468,0.191-0.762,0.33c-0.381,0.172-0.607,0.364-0.954,0.624c-0.675,0.415-0.969,0.658-1.542,1.178
			c-0.364,0.347-0.554,0.59-0.969,0.884c-0.33,0.242-0.539,0.364-0.85,0.606c-0.26,0.207-0.364,0.398-0.573,0.658
			c-0.189,0.243-0.364,0.33-0.605,0.503c-0.884,0.658-1.041,0.606-2.185,1.818c-0.328,0.348-0.554,0.381-0.641,0.503
			c-0.017,0.017-0.381,0.276-0.503,0.381c-0.189,0.155-0.466,0.381-0.624,0.485c-0.345,0.226-0.483,0.452-0.813,0.694
			c-0.381,0.294-0.624,0.449-1.092,0.571c-0.224,0.051-0.311,0.121-0.537,0.104c-0.45-0.054-0.729-0.521-0.692-0.988
			c0.017-0.277,0.173-0.382,0.362-0.607c0.381-0.415,0.643-0.641,1.092-0.969c0.746-0.556,1.04-1.041,1.855-1.491
			c0.294-0.155,0.988-0.468,1.195-0.59c0.33-0.226,0.624-0.466,0.901-0.745c0.121-0.139,0.243-0.155,0.364-0.294
			c0.121-0.139,0.174-0.26,0.313-0.381c0.311-0.294,0.554-0.398,0.935-0.624c0.486-0.277,0.763-0.398,1.231-0.729
			c0.328-0.224,0.486-0.433,0.763-0.727c0.554-0.572,1.022-0.694,1.714-1.092c0.313-0.209,0.415-0.398,0.677-0.658
			c0.138-0.155,0.604-0.658,1.073-0.988c0.313-0.226,0.485-0.348,0.796-0.573c0.52-0.381,0.677-0.206,0.729-0.864
			c0.017-0.104,0.053-0.26-0.122-0.26c-0.155,0-0.208,0.121-0.33,0.224c-0.258,0.191-0.415,0.278-0.726,0.242
			c-0.658-0.067-1.022-0.691-1.04-0.726c-0.157-0.382-0.364-1.525-0.347-1.872c0,0,0.034-0.469,0.068-0.729
			c0.053-0.33,0.192-0.935,0.435-1.265c0.138-0.189,0.294-0.972,0.502-1.681c0.068-0.26,0.243-0.52,0.347-0.763
			c0.155-0.364,0.241-0.59,0.483-0.884c0.452-0.536,0.729-1.144,1.423-1.092c0.138,0.017,0.207,0.07,0.345,0.138
			c0.087,0.07,0.175,0.088,0.226,0.175c0.034,0.085-0.017,0.139,0.053,0.207c0.119,0.104,0.172,0.312,0.155,0.52
			c-0.019,0.121-0.019,0.191-0.053,0.296c-0.085,0.467-0.381,0.624-0.709,0.969c-0.313,0.33-0.4,0.435-0.607,0.833
			c-0.173,0.33-0.243,0.692-0.347,1.039c-0.122,0.435-0.226,0.797-0.277,1.093c-0.017,0.104-0.051,0.172-0.051,0.276
			s0.017,0.486,0.119,0.486c0.175,0.017,0.383-0.348,0.452-0.503c0.174-0.364,0.26-0.658,0.398-1.039
			c0.175-0.557,0.364-0.816,0.641-1.318c0.226-0.449,0.398-0.692,0.59-1.161c0.243-0.554,0.554-1.073,0.988-1.039
			c0.189,0.018,0.328,0.034,0.486,0.139c0.362,0.242,0.415,0.606,0.379,1.039c-0.017,0.139-0.017,0.226-0.051,0.347
			c-0.26,1.3-0.641,1.977-0.867,3.275c-0.034,0.173-0.017,0.277-0.051,0.467c-0.051,0.33-0.138,0.503-0.172,0.833
			c-0.019,0.138,0,0.226,0.034,0.381c0.017,0.07,0.034,0.155,0.104,0.155c0.155,0.018,0.224-0.085,0.362-0.155
			c0.262-0.121,0.435-0.155,0.694-0.294c0.398-0.226,0.641-0.296,1.022-0.539c0.381-0.224,0.814-0.604,1.214-0.83
			c0.398-0.209,0.433-0.139,0.848-0.348c0.52-0.276,0.833-0.397,1.318-0.709c0.294-0.191,0.311-0.33,0.726-0.52
			c0.4-0.191,0.624-0.279,1.022-0.485c0.208-0.104,0.313-0.191,0.539-0.279c0.173-0.051,0.364-0.121,0.381-0.328
			c0.017-0.191-0.104-0.312-0.175-0.485c-0.121-0.242-0.138-0.381-0.121-0.658c0.019-0.138,0.019-0.242,0.053-0.364
			c0.138-0.536,0.364-0.796,0.415-1.352l0.034-0.173c-0.034-0.017-0.034-0.034-0.068-0.051c-0.087,0-0.139,0.085-0.192,0.138
			c-0.155,0.156-0.243,0.243-0.381,0.398c-0.207,0.207-0.328,0.312-0.485,0.554c-0.068,0.122-0.068,0.226-0.139,0.364
			c-0.155,0.294-0.26,0.485-0.398,0.797c-0.364,0.832-0.433,1.977-1.35,1.889c-0.59-0.051-1.042-0.57-0.988-1.16
			c0.034-0.348,0.172-0.867,0.226-0.901c0.156-0.104,0.068-0.451,0.156-0.52c0.085-0.053,0.138-0.347,0.155-0.641
			c0.017-0.139,0.07-0.227,0.07-0.348l0.034-0.226c0.034-0.26,0.121-0.381,0.172-0.604c0.122-0.505,0.26-0.607,0.313-0.746
			c0.034-0.087,0.034-0.121,0.068-0.191c0.191-0.449,0.191-0.709,0.658-1.039c0.175-0.155,0.279-0.313,0.503-0.294
			c0.52,0.051,0.624,0.362,0.762,0.362c0.243-0.018,0.347-0.189,0.539-0.346C2533.742-2097.91,2534.123-2098.48,2534.851-2098.413z
			 M2528.907-2095.829c0.485,0.034,0.952,0.26,0.884,0.884c-0.034,0.361-0.243,0.536-0.398,0.864
			c-0.138,0.279-0.104,0.469-0.208,0.763c-0.155,0.435-0.33,0.364-0.364,1.109c-0.051,0.554-0.068,0.867-0.138,1.421
			c-0.07,0.538-0.554,0.866-1.074,0.832c-0.468-0.034-0.903-0.624-0.867-1.093c0.034-0.327,0.156-0.502,0.189-0.83
			c0.054-0.296,0.037-0.451,0.087-0.745c0.07-0.485,0.226-0.729,0.416-1.178c0.104-0.226,0.121-0.384,0.226-0.607
			c0.156-0.312,0.209-0.502,0.433-0.815C2528.213-2095.569,2528.509-2095.865,2528.907-2095.829z M2515.407-2095.259
			c0.296,0.018,0.486,0.191,0.624,0.451c0.122,0.261,0.243,0.433,0.209,0.727c0,0.054-0.017,0.07-0.017,0.121
			c-0.053,0.503-0.502,0.867-1.005,0.833c-0.502-0.053-0.833-0.606-0.779-1.039c0.017-0.175,0.138-0.279,0.172-0.469
			C2514.698-2095.086,2515.01-2095.293,2515.407-2095.259z M2518.96-2093.596c0.522,0.054,0.711,0.503,0.92,0.972
			c0.207,0.449,0.466,0.709,0.415,1.212c-0.034,0.502-0.381,0.728-0.796,1.005c-0.226,0.175-0.417,0.104-0.711,0.175
			c-0.138,0.034-0.191,0.206-0.208,0.364c-0.051,0.276-0.103,0.449-0.122,0.726c-0.068,0.485-0.068,0.763-0.102,1.248
			c-0.087,0.26-0.053,0.435-0.192,0.675c-0.243,0.348-0.571,0.522-1.005,0.469c-0.503-0.034-0.884-0.469-0.831-0.971
			c0.017-0.139,0.121-0.588,0.138-0.969c0.034-0.59,0.017-0.918,0.068-1.508c0.036-0.294,0.174-0.433,0.191-0.729l0.034-0.243
			c0-0.224,0.226-0.398,0.468-0.554c0.328-0.226,0.486-0.485,0.675-0.85C2518.198-2093.161,2518.372-2093.646,2518.96-2093.596z
			 M2515.08-2091.602c0.26,0.033,0.415,0.138,0.554,0.347c0.208,0.345,0.33,0.588,0.296,0.986c0,0.087-0.019,0.141-0.036,0.226
			c-0.068,0.33-0.189,0.485-0.381,0.745c-0.138,0.173-0.155,0.313-0.26,0.503c-0.189,0.33-0.311,0.658-0.347,0.935
			c-0.068,0.573-0.122,0.901-0.155,1.474c-0.017,0.294,0.034,0.451,0.017,0.745c-0.051,0.607-0.45,1.178-1.057,1.127
			c-0.607-0.053-1.09-0.884-0.988-1.717c0.034-0.294,0.104-0.449,0.174-0.745c0.139-0.449,0.26-0.952,0.362-1.144
			c0.121-0.26,0.14-0.364,0.157-0.433l0.122-0.468c0-0.19,0.085-0.227,0.138-0.416c0.104-0.397,0.173-0.624,0.328-1.005
			c0.104-0.243,0.226-0.347,0.33-0.573C2514.49-2091.359,2514.716-2091.636,2515.08-2091.602"/>
	</g>
</g>
</svg>
