<?xml version="1.0" encoding="utf-8"?>
<!-- Generator: Adobe Illustrator 16.2.1, SVG Export Plug-In . SVG Version: 6.00 Build 0)  -->
<!DOCTYPE svg PUBLIC "-//W3C//DTD SVG 1.1//EN" "http://www.w3.org/Graphics/SVG/1.1/DTD/svg11.dtd">
<svg version="1.1" id="Layer_1" xmlns="http://www.w3.org/2000/svg" xmlns:xlink="http://www.w3.org/1999/xlink" x="0px" y="0px"
	 width="50px" height="50px" viewBox="0 0 50 50" enable-background="new 0 0 50 50" xml:space="preserve">
<g>
	<g>
		<path fill-rule="evenodd" clip-rule="evenodd" fill="#ED1C24" d="M12.907,17.99c0.74-1.123,1.599-1.968,3.128-1.975
			c3.047-0.014,6.092-0.298,9.14-0.01c0.073,0.008,0.147,0.007,0.22,0.016c3.026,0.362,3.559,1.285,2.041,3.875
			c-2.573,4.387-5.629,8.428-9.028,12.215c-1.011,1.126-2.367,1.252-3.695,1.47c-4.45,0.729-8.917,0.654-13.385,0.183
			c-1.324-0.142-1.645-0.719-1.021-1.914c1.797-3.445,4.041-6.571,6.786-9.334c1.038-1.043,2.367-1.34,3.721-1.448
			c2.304-0.187,4.603-0.055,6.876,0.44c0.896,0.195,1.144,0.582,0.805,1.472c-0.434,1.136-0.994,2.204-1.518,3.295
			c-0.488,1.016-1.325,0.713-2.091,0.743c-0.242,0.011-0.288-0.176-0.256-0.381c0.027-0.182,0.042-0.366,0.086-0.543
			c0.235-0.93,0.609-1.832-0.701-2.377c-1.619-0.674-2.884-0.598-3.697,0.459c-0.966,1.257-1.76,2.611-2.288,4.123
			c-0.253,0.723-0.012,1.167,0.641,1.383c2.289,0.757,4.641,1.066,7.052,0.926c0.459-0.025,0.731-0.323,0.996-0.623
			c2.2-2.502,4.029-5.246,5.294-8.338c0.681-1.665,0.393-2.102-1.388-2.477c-2.374-0.5-4.764-0.863-7.189-0.969
			C13.253,18.193,13.063,18.209,12.907,17.99z"/>
		<path fill-rule="evenodd" clip-rule="evenodd" fill="#ED1C24" d="M29.41,32.553c-1.25,0-2.503,0.046-3.75-0.013
			c-1.497-0.069-1.909-0.722-1.326-2.087c2.094-4.914,5.29-9.047,9.138-12.697c1.146-1.088,2.588-1.406,4.148-1.49
			c3.679-0.2,7.333-0.117,10.946,0.66c1.545,0.332,1.735,0.732,1.078,2.117c-0.916,1.928-2.029,3.742-3.193,5.531
			c-0.58,0.893-1.35,1.303-2.351,1.404c-2.419,0.242-4.834,0.303-7.238-0.172c-1.133-0.224-1.397-0.672-1.054-1.789
			c0.305-0.995,0.803-1.888,1.375-2.749c0.244-0.368,0.537-0.558,0.984-0.589c1.364-0.094,1.468-0.005,1.129,1.338
			c-0.235,0.933-0.182,1.643,0.906,1.987c1.592,0.505,2.114,0.399,2.667-0.759c0.508-1.062,0.846-2.184,1.073-3.344
			c0.158-0.808-0.194-1.293-0.901-1.533c-2.178-0.737-4.416-0.648-6.649-0.369c-0.451,0.057-0.91,0.309-1.218,0.706
			c-1.811,2.335-3.466,4.749-3.957,7.761c-0.189,1.16,0.014,1.529,1.19,1.793c3.31,0.744,6.663,0.963,10.047,0.752
			c0.315-0.018,0.733-0.182,0.934,0.113c0.227,0.33-0.237,0.551-0.335,0.852c-0.456,1.391-1.464,1.939-2.886,2.053
			C36.585,32.313,33.008,32.629,29.41,32.553z"/>
	</g>
</g>
</svg>
