<?xml version="1.0" encoding="utf-8"?>
<!-- Generator: Adobe Illustrator 16.2.1, SVG Export Plug-In . SVG Version: 6.00 Build 0)  -->
<!DOCTYPE svg PUBLIC "-//W3C//DTD SVG 1.1//EN" "http://www.w3.org/Graphics/SVG/1.1/DTD/svg11.dtd">
<svg version="1.1" id="Layer_1" xmlns="http://www.w3.org/2000/svg" xmlns:xlink="http://www.w3.org/1999/xlink" x="0px" y="0px"
	 width="50px" height="50px" viewBox="195.46 78.186 50 50" enable-background="new 195.46 78.186 50 50" xml:space="preserve">
<path fill="#003B79" d="M244.878,99.835c-0.047-0.012-0.094-0.012-0.139-0.012c-0.394,0-0.722,0.32-0.722,0.721
	c0,0.392,0.328,0.721,0.722,0.721c0.045,0,0.092-0.008,0.139-0.014c0.334-0.066,0.582-0.361,0.582-0.707
	C245.46,100.188,245.212,99.896,244.878,99.835z M244.878,101.133c-0.047,0.007-0.094,0.012-0.139,0.012
	c-0.334,0-0.603-0.269-0.603-0.601c0-0.335,0.269-0.609,0.603-0.609c0.045,0,0.092,0.005,0.139,0.019
	c0.268,0.059,0.471,0.302,0.471,0.591C245.349,100.825,245.146,101.067,244.878,101.133z M245.06,100.778l-0.018-0.092
	c-0.008-0.059-0.021-0.092-0.041-0.111c-0.013-0.019-0.039-0.025-0.078-0.025c0.053-0.014,0.092-0.033,0.11-0.059
	c0.026-0.026,0.04-0.059,0.04-0.112c0-0.032-0.006-0.06-0.02-0.085c-0.012-0.026-0.027-0.045-0.053-0.059
	c-0.02-0.013-0.039-0.02-0.072-0.026c-0.013-0.007-0.025-0.007-0.051-0.007h-0.381v0.682h0.091v-0.302h0.184
	c0.045,0,0.079,0.007,0.106,0.013c0.012,0,0.018,0,0.025,0.007c0.025,0.014,0.039,0.04,0.045,0.072l0.02,0.111
	c0,0.026,0.008,0.046,0.008,0.065c0.006,0.014,0.012,0.021,0.012,0.033h0.105c-0.006-0.013-0.014-0.02-0.02-0.039
	C245.073,100.831,245.067,100.812,245.06,100.778z M244.878,100.497c-0.027,0.007-0.065,0.007-0.113,0.007h-0.177v-0.223h0.177
	c0.048,0,0.086,0,0.113,0.007c0.025,0,0.045,0.006,0.057,0.012c0.027,0.02,0.041,0.047,0.041,0.085c0,0.048-0.014,0.08-0.041,0.093
	C244.923,100.483,244.903,100.491,244.878,100.497z M238.233,101.113h3.513c0.097,0,0.273,0,0.288,0.249v0.91
	c-0.015,0.162-0.105,0.249-0.288,0.249h-1.174c-0.341,0-0.616,0.294-0.616,0.661c0,0.361,0.275,0.655,0.616,0.655h2.162
	c0.327,0,0.596-0.274,0.614-0.622v-2.831c-0.031-0.327-0.295-0.589-0.614-0.589h-4.501c-0.34,0-0.621,0.295-0.621,0.656
	C237.612,100.818,237.894,101.113,238.233,101.113z M242.197,104.146c-0.21-0.275-0.608-0.321-0.904-0.099
	c-0.288,0.217-0.36,0.617-0.157,0.885l1.042,1.396c0.208,0.274,0.609,0.32,0.903,0.104c0.289-0.217,0.361-0.622,0.15-0.892
	L242.197,104.146z M235.454,105.909c0-0.361-0.281-0.663-0.621-0.663h-1.822c-0.339,0-0.621,0.302-0.621,0.663
	c0,0.359,0.282,0.661,0.621,0.661h1.822C235.173,106.57,235.454,106.269,235.454,105.909z M236.956,100.419
	c0-0.341-0.295-0.623-0.655-0.623c0,0,0,0-0.007,0h-0.4c-0.019,0-0.045,0-0.071,0.007c-0.13,0.021-0.255,0.079-0.354,0.183
	l-1.5,1.606l-3.641,3.897c-0.236,0.248-0.211,0.655,0.059,0.904c0.262,0.243,0.668,0.243,0.903-0.006l2.679-2.864l1.423-1.526
	c0.196-0.189,0.249,0.06,0.249,0.145v3.818c0,0.165,0.071,0.315,0.184,0.428c0.123,0.117,0.295,0.188,0.478,0.188
	c0.36,0,0.655-0.273,0.655-0.615V100.419L236.956,100.419z M229.658,105.96v-5.541c0-0.341-0.296-0.623-0.661-0.623h-0.4
	c-0.157,0.007-0.314,0.066-0.426,0.189l-0.15,0.158l-1.207,1.291v-1.016c0-0.309-0.242-0.57-0.556-0.616
	c-0.032,0-0.065-0.007-0.105-0.007h-0.398c-0.158,0.007-0.314,0.066-0.427,0.189l-0.916,0.983l-1.102,1.186l-0.53,0.577
	c-0.236,0.248-0.203,0.655,0.058,0.896c0.141,0.125,0.309,0.19,0.473,0.185c0.158,0,0.314-0.065,0.426-0.19l0.676-0.727l0.831-0.898
	c0.197-0.189,0.257,0.06,0.257,0.145v1.062c0,0.341,0.295,0.615,0.653,0.615h0.104c0.389-0.032,0.532-0.341,0.617-0.412l1.146-1.331
	l0.066-0.078c0.195-0.189,0.254,0.06,0.254,0.145v3.818c0,0.342,0.295,0.615,0.656,0.615
	C229.362,106.575,229.658,106.302,229.658,105.96z M221.161,106.563c0.439-0.039,0.784-0.406,0.784-0.857v-5.053
	c0-0.445-0.345-0.818-0.784-0.857h-4.095c0,0-0.006,0-0.013,0c-0.465,0.007-0.846,0.393-0.846,0.857v5.053
	c0,0.471,0.381,0.852,0.846,0.857c0.007,0.007,0.013,0.007,0.013,0.007h4.023C221.116,106.57,221.135,106.563,221.161,106.563z
	 M220.63,104.723c0,0.288-0.209,0.523-0.465,0.523h-2.174c-0.256,0-0.466-0.235-0.466-0.523v-3.078c0-0.289,0.21-0.525,0.466-0.525
	h2.174c0.256,0,0.465,0.235,0.465,0.525V104.723z M215.067,105.541l-1.041-1.395c-0.203-0.275-0.602-0.321-0.896-0.099
	c-0.29,0.217-0.361,0.617-0.158,0.885l1.042,1.396c0.209,0.274,0.608,0.32,0.902,0.104
	C215.207,106.216,215.278,105.811,215.067,105.541z M208.262,99.796h-4.494c-0.341,0-0.623,0.295-0.623,0.656
	c0,0.366,0.282,0.661,0.623,0.661h4.494c0.341,0,0.622-0.295,0.622-0.661C208.884,100.091,208.603,99.796,208.262,99.796z
	 M214.57,103.838c0.328,0,0.596-0.274,0.615-0.622v-2.831c-0.032-0.327-0.295-0.589-0.615-0.589h-4.501
	c-0.341,0-0.622,0.295-0.622,0.656c0,0.366,0.281,0.661,0.622,0.661h3.511c0.1,0,0.276,0,0.29,0.249v0.91
	c-0.014,0.162-0.106,0.249-0.29,0.249h-0.585l0,0h-0.588c-0.34,0-0.615,0.294-0.615,0.661c0,0.361,0.275,0.655,0.615,0.655H214.57z
	 M208.262,102.521h-4.494c-0.341,0-0.623,0.294-0.623,0.661c0,0.361,0.282,0.655,0.623,0.655h4.494c0.341,0,0.622-0.294,0.622-0.655
	C208.884,102.815,208.603,102.521,208.262,102.521z M208.262,105.246h-4.494c-0.341,0-0.623,0.302-0.623,0.663
	c0,0.359,0.282,0.661,0.623,0.661h4.494c0.341,0,0.622-0.302,0.622-0.661C208.884,105.548,208.603,105.246,208.262,105.246z
	 M201.598,99.796h-0.405c-0.157,0.007-0.315,0.066-0.426,0.189l-1.546,1.659l-3.603,3.844c-0.099,0.106-0.15,0.243-0.157,0.381
	v0.054c0.007,0.168,0.085,0.34,0.224,0.471c0.262,0.243,0.668,0.243,0.904-0.006l2.632-2.818l1.468-1.572
	c0.196-0.189,0.249,0.06,0.249,0.145v3.818c0,0.342,0.296,0.615,0.661,0.615c0.362,0,0.655-0.273,0.655-0.615v-5.541
	C202.253,100.078,201.959,99.796,201.598,99.796z M200.131,105.246h-1.821c-0.342,0-0.622,0.302-0.622,0.663
	c0,0.359,0.28,0.661,0.622,0.661h1.821c0.34,0,0.615-0.302,0.615-0.661C200.746,105.548,200.471,105.246,200.131,105.246z"/>
</svg>
