<?xml version="1.0" encoding="utf-8"?>
<!-- Generator: Adobe Illustrator 16.2.1, SVG Export Plug-In . SVG Version: 6.00 Build 0)  -->
<!DOCTYPE svg PUBLIC "-//W3C//DTD SVG 1.1//EN" "http://www.w3.org/Graphics/SVG/1.1/DTD/svg11.dtd">
<svg version="1.1" id="svg2367" xmlns:svg="http://www.w3.org/2000/svg"
	 xmlns="http://www.w3.org/2000/svg" xmlns:xlink="http://www.w3.org/1999/xlink" x="0px" y="0px" width="50px" height="50px"
	 viewBox="0 0 50 50" enable-background="new 0 0 50 50" xml:space="preserve">
<g id="g2498" transform="matrix(1.25,0,0,-1.25,-10.63008,170.6625)">
	<path id="path2504" fill="#C6037C" d="M37.109,122.511h11.395l-7.916-10.206h5.659l-0.462-2.873H34.499l7.707,10.206h-5.098
		V122.511"/>
	<path id="path2506" fill="#660F6F" d="M28.499,123.965h12.398l-8.885-11.374h4.877l-2.389-3.159h-9.161l8.522,11.373l-6.122,0.011
		L28.499,123.965"/>
	<path id="path2508" fill="#C6037C" d="M27.034,112.316h-3.083l2.103,13.014h3.104L27.034,112.316"/>
	<path id="path2510" fill="#C6037C" d="M24.976,111.039c1.09,0,1.982-0.891,1.982-1.993c0-1.101-0.892-1.992-1.982-1.992
		c-1.101,0-1.993,0.891-1.993,1.992C22.982,110.147,23.874,111.039,24.976,111.039"/>
	<path id="path2512" fill="#660F6F" d="M8.504,123.238l1.707-13.806h2.62l3.93,7.828l0.584-7.828h2.577l6.848,13.806h-3.843
		l-3.303-7.431l-0.529,7.431h-3.017l-3.501-7.431l-0.573,7.431H8.504"/>
</g>
</svg>
