<?xml version="1.0" encoding="utf-8"?>
<!-- Generator: Adobe Illustrator 16.2.1, SVG Export Plug-In . SVG Version: 6.00 Build 0)  -->
<!DOCTYPE svg PUBLIC "-//W3C//DTD SVG 1.1//EN" "http://www.w3.org/Graphics/SVG/1.1/DTD/svg11.dtd">
<svg version="1.1"
	 id="svg2" xmlns:svg="http://www.w3.org/2000/svg" inkscape:version="0.48.1 " sodipodi:docname="AJAX.svg" xmlns:cc="http://creativecommons.org/ns#" xmlns:sodipodi="http://sodipodi.sourceforge.net/DTD/sodipodi-0.dtd" xmlns:dc="http://purl.org/dc/elements/1.1/" xmlns:rdf="http://www.w3.org/1999/02/22-rdf-syntax-ns#" xmlns:inkscape="http://www.inkscape.org/namespaces/inkscape"
	 xmlns="http://www.w3.org/2000/svg" xmlns:xlink="http://www.w3.org/1999/xlink" x="0px" y="0px" width="50px" height="50px"
	 viewBox="203.441 101.264 50 50" enable-background="new 203.441 101.264 50 50" xml:space="preserve">
<g>
	<path fill="#33AB8F" d="M225.457,104.925l-22.016,42.681h12.143c-3.193-4.754-4.041-12.665,0.143-20.237
		c4.475-8.099,14.705-15.769,27.343-19.245c0,0,3.694,4.684,6.748,13.064l3.623-16.263H225.457z"/>
	<path fill="#33AB8F" d="M240.232,147.532h3.977l3.478-16.188c-1.631,0.854-5.326,4.333-5.326,4.333
		C242.785,142.919,240.232,147.532,240.232,147.532z"/>
	<path fill="#33AB8F" d="M223.615,147.532h12.213c3.69-4.967,3.269-15.056,0.782-21.374
		C230.289,129.784,221.625,138.655,223.615,147.532z"/>
	<path fill="#33AB8F" d="M226.095,129.638c0,0-0.494-4.9-1.487-7.243c-8.666,7.671-9.662,17.896-5.115,24.146
		C218.78,139.085,223.113,132.978,226.095,129.638z"/>
	<path fill="#33AB8F" d="M235.261,122.395c0,0-1.418-3.909-2.914-5.684c-1.562,0.854-4.616,2.986-4.616,2.986
		s1.989,5.325,1.852,6.746C231.354,124.31,235.261,122.395,235.261,122.395z"/>
	<path fill="#33AB8F" d="M241.438,112.734c-2.341,0.854-5.465,2.273-5.465,2.273s2.626,4.618,2.694,5.474
		c1.493-0.93,5.61-2.563,5.61-2.563S242.506,114.512,241.438,112.734z"/>
	<path fill="#33AB8F" d="M241.793,130.845c2.272-1.917,5.755-3.908,5.755-3.908l-1.634-5.392c0,0-4.687,2.058-5.824,2.554
		C240.09,124.099,242.007,129.284,241.793,130.845z"/>
</g>
</svg>
