<?xml version="1.0" encoding="utf-8"?>
<!-- Generator: Adobe Illustrator 16.2.1, SVG Export Plug-In . SVG Version: 6.00 Build 0)  -->
<!DOCTYPE svg PUBLIC "-//W3C//DTD SVG 1.1//EN" "http://www.w3.org/Graphics/SVG/1.1/DTD/svg11.dtd">
<svg version="1.1" id="svg2" xmlns:svg="http://www.w3.org/2000/svg"
	 xmlns="http://www.w3.org/2000/svg" xmlns:xlink="http://www.w3.org/1999/xlink" x="0px" y="0px" width="50px" height="50px"
	 viewBox="279 112 50 50" enable-background="new 279 112 50 50" xml:space="preserve">
<g id="g6" transform="matrix(0.9847643,0,0,0.94794,6,6)">
	<path id="path8" fill="#559E3C" d="M307.632,135.682c-0.593,0.327-1.539,1.217-2.632,2.444c1.376,1.396,2.953,3.199,4.652,5.485
		c2.686-3.603,4.442-6.118,5.712-7.052c1.269-0.929,5.388-2.143,12.633-3.369C317.103,134.183,309.259,134.792,307.632,135.682"/>
	<path id="path10" fill="#1F664F" d="M301.608,135.139c-1.76-1.28-11.737-2.049-24.384-2.359c6.052,0.903,13.803,2.206,16.039,3.613
		c1.773,1.113,3.709,3.218,7.005,7.028l9.387,0.19C306.29,139.084,303.4,136.442,301.608,135.139"/>
</g>
</svg>
