<?xml version="1.0" encoding="utf-8"?>
<!-- Generator: Adobe Illustrator 16.2.1, SVG Export Plug-In . SVG Version: 6.00 Build 0)  -->
<!DOCTYPE svg PUBLIC "-//W3C//DTD SVG 1.1//EN" "http://www.w3.org/Graphics/SVG/1.1/DTD/svg11.dtd">
<svg version="1.1" id="Ebene_1" xmlns="http://www.w3.org/2000/svg" xmlns:xlink="http://www.w3.org/1999/xlink" x="0px" y="0px"
	 width="50px" height="50px" viewBox="46.878 32.267 50 50" enable-background="new 46.878 32.267 50 50" xml:space="preserve">
<path fill="#D62A40" d="M46.878,32.267V82.12h50V32.267H46.878z M91.204,56.593c-1.044,1.049-4.177,2.392-5.969,2.834
	c-2.687,0.745-4.179,0.598-5.074,0.893c0.299,0.156,2.838,0.896,4.03,2.99c0.299,0.598,0.299,1.642-0.596,1.94
	c-1.941,0.746-4.327-0.598-4.777-0.893c1.642,3.879,2.838,5.218,5.674,8.649c0.893,1.049,0.748,2.69-1.493,2.539
	c-3.432-0.446-8.359-4.775-9.555-7.903c-0.297,1.785-0.446,2.678-1.191,3.432c-0.449,0.594-1.196,0.446-1.493,0
	c-0.596-0.754-0.895-3.432-0.895-3.432s-3.582,5.069-8.655,7.457c-2.24,1.044-2.54-0.446-2.091-0.896
	c1.044-1.491,1.941-3.285,2.537-4.775c0.593-1.344,0.893-3.285,2.983-5.373c-2.091,0.598-4.327,0.45-5.374,0
	c-1.044-0.295-1.044-1.045-0.745-1.643c0.895-1.191,3.282-2.24,5.672-2.834c-4.777-0.594-5.822-1.642-8.658-2.235
	c-2.091-0.446-3.282-0.746-3.731-1.344c-0.149-0.299-0.299-1.196,0.748-1.789c1.044-0.3,5.67-1.344,7.761-1.643
	c0.897-0.151,2.985-0.598,4.627,1.343c-1.046-2.687-2.539-4.627-3.434-6.113c-0.598-1.049,0-1.794,1.194-1.495
	c1.343,0.151,3.731,2.093,5.819,4.177c0.15,0.299,0.596,0.152,0.596-0.147c1.343-3.878,1.046-5.524,1.194-9.849
	c0-1.344,1.046-2.687,2.687-1.049c2.387,2.687,2.537,7.912,2.09,12.384c1.044-1.191,2.388-2.235,3.88-2.98
	c3.579-1.639,3.133,0.745,2.537,1.94c-0.448,0.893-1.044,2.24-2.834,3.433c0.147,0.151,1.491-0.746,3.58-0.893
	c2.09,0,2.687,0.146,5.373,0.294c1.64,0.152,2.387,0.152,3.284,0.152C91.949,53.759,93.147,54.803,91.204,56.593z"/>
<polygon fill="#6C6B84" stroke="#FFFFFF" stroke-width="0.1773" stroke-miterlimit="2.6131" points="71.802,62.711 74.64,60.926 
	75.086,56.741 71.952,54.206 67.772,56.446 67.922,61.074 "/>
<path fill="#FFEA00" d="M73.893,56.151c1.193,0.446,2.387,0,2.838-1.048c0.297-1.045-0.299-2.236-1.493-2.687
	c-1.194-0.451-2.537,0-2.834,1.048C71.952,54.504,72.55,55.701,73.893,56.151z M70.162,55.701c1.044-0.745,1.491-2.093,1.044-2.834
	c-0.446-0.901-1.79-0.901-2.983-0.151c-1.047,0.745-1.643,2.088-1.047,2.838C67.625,56.446,68.966,56.446,70.162,55.701z
	 M68.223,58.682c-0.15-1.344-1.047-2.539-1.944-2.384c-1.044,0-1.79,1.192-1.64,2.687c0,1.344,0.897,2.388,1.941,2.388
	C67.625,61.225,68.37,60.03,68.223,58.682z M69.863,61.52c-1.343-0.594-2.838-0.147-3.284,0.745
	c-0.446,1.191,0.297,2.388,1.64,2.985c1.345,0.599,2.836,0.3,3.282-0.745C71.949,63.457,71.206,62.118,69.863,61.52z M78.519,58.985
	c0.151-1.494-0.598-2.842-1.643-2.989c-1.04-0.295-2.08,0.893-2.383,2.374c-0.004-1.282-0.802-2.47-2.093-2.816
	c-1.493-0.45-3.284,0.442-3.73,2.089c-0.596,1.638,0.296,3.432,1.941,3.878c1.493,0.598,3.283-0.446,3.731-2.093
	c0.125-0.338,0.149-0.685,0.149-1.027c-0.13,1.361,0.373,2.548,1.257,2.864c-0.717-0.338-1.692-0.286-2.451,0.256
	c-1.194,0.598-1.642,2.089-1.044,2.985c0.598,1.045,1.941,1.196,3.135,0.446c1.194-0.741,1.493-2.088,1.044-3.133
	c-0.141-0.208-0.338-0.372-0.561-0.498c0.041,0.013,0.069,0.048,0.112,0.052C77.175,61.52,78.219,60.476,78.519,58.985z"/>
<path fill="#3B5FA4" d="M66.769,55.874v-0.008l0,0C66.769,55.874,66.769,55.874,66.769,55.874z M77.052,55.527
	c0.045-0.077,0.113-0.138,0.151-0.216c0.403-1.404-0.392-2.86-1.787-3.38c-0.802-0.304-1.701-0.269-2.405,0.086l-1.112,1.301
	c-0.02,0.043-0.011,0.095-0.03,0.146c-0.015-0.312-0.071-0.61-0.223-0.866c-0.002,0.018-1.09-0.858-1.09-0.858
	c-0.756-0.216-1.735-0.013-2.615,0.538c-0.826,0.58-1.391,1.447-1.504,2.262c0,0,0.325,1.317,0.327,1.326
	c0.004-0.005,0.087,0.052,0.197,0.139c-0.353-0.104-0.763-0.217-0.767-0.217c0,0.03-1.354,0.658-1.354,0.658
	c-0.481,0.528-0.741,1.3-0.741,2.158c0,0.139,0.006,0.286,0.021,0.434l0,0c0,1.438,0.96,2.608,2.173,2.786
	c-0.052,0.078-0.141,0.125-0.18,0.212c-0.552,1.456,0.236,2.946,1.894,3.691c0.91,0.399,1.931,0.46,2.728,0.144l1.122-1.044
	c0.119,0.077,1.38,1.031,1.38,1.031c0.765,0.194,1.62,0.034,2.416-0.464c1.421-0.884,1.705-2.453,1.287-3.618
	c0.999-0.334,1.809-1.335,2.078-2.687c0.017-0.156,0.024-0.312,0.024-0.464C79.049,57.052,78.211,55.761,77.052,55.527z
	 M72.875,53.665c0.024-0.062,0.606-0.72,0.606-0.72c0.449-0.229,1.038-0.243,1.575-0.043c0.895,0.338,1.413,1.239,1.177,2.058
	c-0.319,0.724-1.235,1.045-2.158,0.702c-0.006-0.004-0.011-0.004-0.017-0.009c-0.561-0.187-0.979-0.528-1.172-0.966
	C72.734,54.357,72.731,54.002,72.875,53.665z M74.558,56.792c-0.004,0.009-0.007,0.018-0.011,0.026
	c-0.007-0.014-0.022-0.021-0.028-0.035C74.532,56.784,74.543,56.789,74.558,56.792z M74.367,60.592
	c-0.052,0.014-0.108-0.004-0.16,0.005c0.032-0.048,0.067-0.096,0.1-0.147C74.324,60.501,74.341,60.554,74.367,60.592z M71.77,54.327
	c0.02,0.265,0.054,0.533,0.171,0.789c0,0.004,0.002,0.004,0.002,0.004c-0.173-0.017-0.344-0.056-0.522-0.043
	C71.57,54.83,71.691,54.583,71.77,54.327z M72.283,55.935c0.68,0.186,1.224,0.632,1.551,1.256c0.134,0.261,0.186,0.542,0.228,0.823
	c-0.022,0.096-0.059,0.183-0.078,0.27c-0.018,0.182-0.028,0.363-0.028,0.537c0,0.095,0.03,0.182,0.037,0.277
	c-0.02,0.064-0.007,0.134-0.03,0.194c-0.208,0.759-0.737,1.4-1.424,1.738c-0.591,0.294-1.226,0.338-1.783,0.112l-0.042-0.013
	c-0.669-0.183-1.217-0.629-1.541-1.253c-0.333-0.646-0.381-1.412-0.127-2.105c0.18-0.663,0.604-1.188,1.185-1.534
	c0.069-0.034,0.136-0.061,0.206-0.104l0,0C71.029,55.848,71.694,55.757,72.283,55.935z M68.522,53.135
	c0.598-0.372,1.283-0.533,1.759-0.398l0.463,0.359c0.072,0.126,0.108,0.282,0.108,0.455c0,0.546-0.351,1.257-0.988,1.716
	c-0.622,0.382-1.293,0.546-1.766,0.412l-0.464-0.359c-0.056-0.092-0.171-0.642-0.171-0.642
	C67.541,54.154,67.963,53.534,68.522,53.135z M68.487,60.277c0.095,0.182,0.253,0.312,0.375,0.468
	c-0.219-0.018-0.423,0.025-0.633,0.052C68.331,60.631,68.412,60.462,68.487,60.277z M67.993,56.698
	c0.219,0.043,0.451,0.052,0.693,0.034c-0.119,0.199-0.24,0.398-0.316,0.624C68.266,57.113,68.139,56.892,67.993,56.698z
	 M66.54,60.835c-0.752-0.035-1.384-0.858-1.384-1.851c-0.011-0.121-0.02-0.242-0.02-0.355c0-0.623,0.171-1.156,0.474-1.49
	l0.669-0.329c0.087,0,0.557,0.156,0.557,0.156c0.44,0.329,0.791,1.044,0.871,1.776c0.008,0.091,0.015,0.182,0.015,0.272
	C67.723,59.93,67.22,60.709,66.54,60.835z M71.026,64.302l-0.665,0.602c-0.546,0.217-1.268,0.165-1.933-0.13
	c-0.956-0.425-1.749-1.309-1.367-2.326c0.292-0.581,1.501-0.937,2.589-0.455c0.882,0.39,1.464,1.17,1.464,1.863
	C71.115,64.011,71.087,64.159,71.026,64.302z M71.746,62.539c-0.102-0.183-0.247-0.343-0.388-0.503c0.223,0.013,0.438,0,0.661-0.043
	C71.906,62.157,71.826,62.348,71.746,62.539z M75.113,64.514c-0.544,0.338-1.131,0.468-1.616,0.347l-0.797-0.611
	c-0.202-0.303-0.243-0.68-0.141-1.078c0.137-0.508,0.499-0.954,0.969-1.188c0.509-0.359,1.085-0.485,1.607-0.395l0.867,0.516
	c0.078,0.19,0.124,0.425,0.124,0.663C76.125,63.366,75.849,64.055,75.113,64.514z M76.053,60.857
	c-0.628-0.087-1.07-0.962-1.07-2.027c0-0.131,0.009-0.261,0.022-0.391c0.158-0.784,0.591-1.521,1.101-1.828l0.63-0.117
	c0.828,0.126,1.389,1.252,1.27,2.439C77.76,60.138,76.937,60.965,76.053,60.857z"/>
</svg>
