<?xml version="1.0" encoding="utf-8"?>
<!-- Generator: Adobe Illustrator 16.2.1, SVG Export Plug-In . SVG Version: 6.00 Build 0)  -->
<!DOCTYPE svg PUBLIC "-//W3C//DTD SVG 1.1//EN" "http://www.w3.org/Graphics/SVG/1.1/DTD/svg11.dtd">
<svg version="1.1" id="Ebene_1" xmlns:svg="http://www.w3.org/2000/svg"
	 xmlns="http://www.w3.org/2000/svg" xmlns:xlink="http://www.w3.org/1999/xlink" x="0px" y="0px" width="50px" height="50px"
	 viewBox="517.429 259.634 50 50" enable-background="new 517.429 259.634 50 50" xml:space="preserve">
<g id="g3071" transform="matrix(1.3690911,0,0,1.3690911,-31.233235,8.2439936)">
	<polygon id="polygon2698" fill="#F5A32E" points="417.919,202.788 417.987,203.61 418.145,203.667 	"/>
	<path id="path2700" fill="#4D71B1" d="M419.336,203.035c0,0-0.206,0.013-0.282-0.221c-0.077-0.233-1.088-3.887-1.088-3.887
		s-0.018-0.053-0.053-0.071c-0.067-0.036-0.112,0.058-0.112,0.058l-0.262,0.395l1.06,4.504L419.336,203.035L419.336,203.035z"/>
	<path id="path2702" fill="#E20025" d="M417.58,199.727l1.019,4.086c0,0-0.21-0.112-0.281-0.148c-0.072-0.034-0.17-0.073-0.17-0.073
		l-0.281-1.29L417.58,199.727L417.58,199.727z"/>
	<polygon id="polygon2704" fill="#FCC000" points="417.582,199.747 418.595,203.893 418.658,203.878 417.539,199.308 	"/>
	<polygon id="polygon2706" fill="#FCC000" points="417.866,202.295 417.92,202.8 418.191,203.94 418.254,203.923 	"/>
	<path id="path2708" fill="#BDBEC0" d="M416.341,203.998c0,0-2.839,0.053-5.04,0.044c-3.223-0.014-10.209-0.053-10.209-0.053
		s-0.134,0.001-0.191,0.081c-0.044,0.061-0.14,0.242-0.146,0.285c-0.006,0.043-0.02,0.163,0.03,0.17
		c0.049,0.006,0.113-0.036,0.148-0.072c0.035-0.036,0.077-0.086,0.077-0.086s2.52,0.099,3.743,0.166
		c1.222,0.068,2.449,0.121,3.536,0.189c1.087,0.068,3.402,0.226,4.056,0.298c0.654,0.072,3.078,0.457,3.078,0.457
		s0.462-0.835,0.623-1.092C416.208,204.127,416.341,203.998,416.341,203.998L416.341,203.998z"/>
	<path id="path2710" fill="#9C9D9F" d="M415.537,204.952c0,0-1.066-0.141-1.567-0.188c-1.023-0.098-2.546-0.17-4.016-0.189
		c-0.964-0.012-8.894-0.316-8.894-0.316s0,0,0,0.032c0,0.031,7.391,0.28,8.692,0.35c0.17,0.009,0.394,0.029,0.415,0.061
		c0.022,0.031,0.017,0.085,0.017,0.085l0.377-0.014l0.031-0.063c0,0,1.279,0.042,1.875,0.101c0.597,0.058,0.991,0.098,1.013,0.129
		c0.022,0.031,0.006,0.128,0.006,0.128l0.505-0.068c0,0,1.222,0.159,1.251,0.23c0.07,0.17,0.179,0.247,0.179,0.247L415.537,204.952
		L415.537,204.952z"/>
	<path id="path2712" fill="#E3E4E4" d="M416.073,204.139l0.074-0.087c0,0-0.075,0.022-1.118,0.031
		c-1.044,0.009-6.637,0.001-8.994-0.025c-2.896-0.031-4.914-0.034-4.914-0.034s-0.041-0.004-0.083,0.018
		c-0.041,0.022-0.054,0.042-0.054,0.042s-0.01-0.018,0.132-0.018c0.143-0.002,4.138,0.049,5.241,0.066
		c1.102,0.016,9.658,0.059,9.658,0.059L416.073,204.139L416.073,204.139z"/>
	<path id="path2714" fill="#BDBEC0" d="M424.946,205.584c0,0,0.604-0.186,0.806-0.231c0.202-0.044,1.308-0.277,1.488-0.29
		c0.182-0.012,0.405-0.035,0.554-0.08c0.149-0.044,0.942-0.658,0.993-0.849c0.052-0.193-0.109-0.319-0.109-0.319l-0.928-0.131
		l-1.517,0.653L424.946,205.584L424.946,205.584z"/>
	<path id="path2716" fill="#9C9D9F" d="M427.026,204.117c0,0,1.548-0.023,1.597-0.029c0.049-0.004,0.099-0.051,0.099-0.051
		s-0.02,0.055-0.03,0.072c-0.011,0.017-0.034,0.033-0.034,0.033l-1.828,0.076L427.026,204.117L427.026,204.117z"/>
	<path id="path2718" fill="#9C9D9F" d="M426.456,204.325l2.129-0.114c0,0-0.014,0.023-0.029,0.034
		c-0.015,0.011-0.552,0.428-0.552,0.428s-0.427-0.039-0.639-0.015c-0.213,0.023-1.531,0.3-1.531,0.3L426.456,204.325
		L426.456,204.325z"/>
	<path id="path2720" fill="#9C9D9F" d="M427.962,204.732c0,0-0.053,0.059-0.096,0.081c-0.043,0.021-0.334,0.151-0.334,0.151
		s-0.122-0.004-0.159,0.006c-0.038,0.011-0.112,0.049-0.112,0.049l-1.195,0.298c0,0,0.026-0.01,0.005-0.074
		c-0.022-0.063-0.011-0.059-0.133-0.047c-0.123,0.011-0.623,0.133-0.623,0.133l0.425-0.26c0,0,1.413-0.305,1.61-0.327
		C427.546,204.72,427.962,204.732,427.962,204.732L427.962,204.732z"/>
	<path id="path2722" fill="#E3E4E4" d="M427.476,203.932l1.182,0.034c0,0,0.053,0.004,0.059,0.031
		c0.005,0.026,0.032,0.043,0.032,0.043s0.042-0.091-0.006-0.122c-0.049-0.032-0.198-0.068-0.198-0.068l-0.815-0.1L427.476,203.932
		L427.476,203.932z"/>
	<path id="path2724" fill="#4D71B1" d="M418.547,204.546l-0.006-0.685c0,0,0.478-0.536,0.97-1.009
		c0.493-0.473,2.662-2.525,4.128-3.745c1.465-1.219,2.903-2.066,4.55-2.424c1.826-0.398,2.789,0.6,2.789,0.6s0.651,0.2,0.854,0.305
		c0.204,0.105,0.652,0.272,0.492,1.003c-0.124,0.561-0.243,1.506-1.186,2.708c0,0-0.766-0.177-2.626-0.148
		c-1.859,0.03-3.308,0.014-4.27,0.407c-0.962,0.392-2.488,1.257-2.953,1.63c-0.465,0.374-1.043,0.861-1.043,0.861l-1.651,1.208
		L418.547,204.546L418.547,204.546z"/>
	<path id="path2726" fill="#7891C5" d="M418.596,203.936c0,0,0.585-0.539,1.155-1.096c0.57-0.559,1.669-1.569,2.536-2.323
		c0.866-0.753,3.3-2.562,4.042-2.867c0.744-0.305,1.146-0.457,1.274-0.522c0.127-0.065-0.718-0.072-2.8,1.259
		c-0.821,0.526-1.608,1.207-2.347,1.874c-0.74,0.667-3.927,3.599-3.927,3.599L418.596,203.936L418.596,203.936z"/>
	<path id="path2728" fill="#6484BD" d="M419.356,203.929c0,0,2.912-2.34,3.589-2.75c0.678-0.411,1.468-0.999,1.637-1.108
		c0.169-0.108,1.144-0.67,1.442-0.758c0.298-0.088,1.126-0.307,1.465-0.502c0.339-0.195,0.826-0.455,1.103-0.478
		c0.276-0.024,0.807-0.221,1.254-0.267c0.447-0.046,0.833-0.098,0.833-0.098c0.064-0.001-0.051-0.161-0.774-0.069
		c-0.724,0.091-1.188,0.092-1.888,0.332c-0.7,0.24-2.487,0.639-2.846,0.877c-0.36,0.238-2.774,1.919-3.746,2.758
		c-0.972,0.84-2.399,2.043-2.399,2.043L419.356,203.929L419.356,203.929z"/>
	<path id="path2730" fill="#4B4B4D" d="M424.526,199.594c0.03-0.021,0.057-0.112,0.064-0.192c0.005-0.057,0.012-0.112,0.019-0.169
		c0.008-0.049,0.016-0.098,0.026-0.146c0.016-0.084-0.002-0.132-0.032-0.115c-0.022,0.013-0.042,0.025-0.064,0.039
		c-0.035,0.021-0.085,0.109-0.098,0.193c-0.009,0.056-0.016,0.11-0.022,0.165c-0.005,0.051-0.008,0.099-0.009,0.151
		c-0.002,0.083,0.019,0.139,0.06,0.113C424.488,199.619,424.507,199.606,424.526,199.594L424.526,199.594z"/>
	<path id="path2732" fill="#4B4B4D" d="M424.184,199.824c0.027-0.021,0.054-0.11,0.061-0.188c0.004-0.057,0.01-0.111,0.017-0.167
		c0.009-0.049,0.016-0.096,0.026-0.145c0.014-0.083-0.003-0.13-0.033-0.113c-0.021,0.013-0.04,0.026-0.061,0.038
		c-0.035,0.021-0.081,0.108-0.095,0.191c-0.008,0.054-0.015,0.108-0.02,0.162c-0.005,0.051-0.007,0.098-0.009,0.149
		c-0.002,0.081,0.019,0.137,0.057,0.111C424.146,199.849,424.165,199.837,424.184,199.824L424.184,199.824z"/>
	<path id="path2734" fill="#4B4B4D" d="M423.856,200.068c0.027-0.019,0.053-0.108,0.059-0.185c0.004-0.056,0.011-0.109,0.018-0.165
		c0.006-0.048,0.014-0.094,0.024-0.142c0.014-0.081-0.003-0.128-0.031-0.111c-0.02,0.012-0.039,0.024-0.06,0.037
		c-0.033,0.021-0.078,0.106-0.091,0.188c-0.007,0.053-0.015,0.106-0.019,0.16c-0.004,0.05-0.008,0.098-0.009,0.148
		c-0.002,0.079,0.018,0.135,0.055,0.109C423.821,200.094,423.839,200.082,423.856,200.068L423.856,200.068z"/>
	<path id="path2736" fill="#4B4B4D" d="M423.557,200.296c0.025-0.02,0.05-0.106,0.055-0.183c0.004-0.054,0.01-0.108,0.017-0.163
		c0.007-0.048,0.014-0.093,0.023-0.141c0.014-0.08-0.002-0.126-0.03-0.109c-0.019,0.011-0.037,0.024-0.056,0.036
		c-0.032,0.022-0.076,0.106-0.087,0.186c-0.009,0.053-0.014,0.103-0.02,0.157c-0.004,0.049-0.007,0.096-0.008,0.146
		c-0.001,0.078,0.018,0.133,0.053,0.107C423.521,200.321,423.538,200.309,423.557,200.296L423.557,200.296z"/>
	<path id="path2738" fill="#4B4B4D" d="M423.281,200.52c0.025-0.02,0.049-0.106,0.054-0.182c0.004-0.054,0.01-0.105,0.016-0.16
		c0.006-0.046,0.014-0.091,0.022-0.138c0.014-0.078-0.002-0.124-0.028-0.108c-0.018,0.012-0.036,0.024-0.054,0.035
		c-0.031,0.021-0.071,0.104-0.084,0.183c-0.008,0.052-0.013,0.103-0.018,0.155c-0.004,0.049-0.006,0.095-0.008,0.143
		c-0.001,0.078,0.017,0.131,0.051,0.108C423.249,200.544,423.266,200.532,423.281,200.52L423.281,200.52z"/>
	<path id="path2740" fill="#4B4B4D" d="M423.035,200.737c0.024-0.019,0.045-0.103,0.051-0.177c0.004-0.053,0.009-0.105,0.016-0.158
		c0.005-0.046,0.013-0.09,0.02-0.136c0.013-0.078-0.002-0.123-0.027-0.107c-0.017,0.012-0.034,0.024-0.051,0.035
		c-0.029,0.021-0.069,0.102-0.08,0.181c-0.007,0.05-0.013,0.1-0.017,0.152c-0.004,0.048-0.006,0.093-0.007,0.141
		c0,0.076,0.017,0.129,0.049,0.105C423.003,200.761,423.018,200.75,423.035,200.737L423.035,200.737z"/>
	<path id="path2742" fill="#4B4B4D" d="M422.793,200.926c0.022-0.019,0.044-0.103,0.049-0.175c0.003-0.053,0.007-0.103,0.015-0.155
		c0.005-0.045,0.012-0.088,0.019-0.133c0.012-0.078-0.002-0.121-0.026-0.105c-0.016,0.011-0.032,0.023-0.049,0.034
		c-0.027,0.019-0.065,0.1-0.076,0.177c-0.006,0.051-0.012,0.101-0.016,0.151c-0.004,0.048-0.005,0.092-0.007,0.139
		c0,0.075,0.016,0.127,0.047,0.103C422.762,200.949,422.777,200.937,422.793,200.926L422.793,200.926z"/>
	<path id="path2744" fill="#4B4B4D" d="M422.534,201.171c0.021-0.019,0.042-0.101,0.047-0.173c0.003-0.052,0.007-0.101,0.014-0.153
		c0.004-0.045,0.012-0.088,0.018-0.133c0.012-0.076-0.001-0.119-0.025-0.103c-0.015,0.011-0.031,0.023-0.047,0.034
		c-0.026,0.019-0.062,0.098-0.072,0.174c-0.007,0.05-0.012,0.098-0.015,0.148c-0.003,0.046-0.006,0.091-0.006,0.137
		c-0.001,0.074,0.015,0.126,0.044,0.102C422.505,201.194,422.52,201.182,422.534,201.171L422.534,201.171z"/>
	<path id="path2746" fill="#4B4B4D" d="M422.291,201.383c0.022-0.019,0.04-0.1,0.045-0.17c0.004-0.05,0.009-0.1,0.014-0.15
		c0.006-0.044,0.011-0.086,0.017-0.13c0.012-0.075-0.001-0.118-0.024-0.102c-0.015,0.011-0.03,0.023-0.045,0.034
		c-0.024,0.019-0.059,0.098-0.069,0.171c-0.005,0.05-0.011,0.097-0.014,0.147c-0.003,0.045-0.005,0.088-0.006,0.134
		c-0.001,0.073,0.014,0.123,0.041,0.101C422.265,201.405,422.279,201.395,422.291,201.383L422.291,201.383z"/>
	<path id="path2748" fill="#4B4B4D" d="M422.066,201.569c0.019-0.019,0.037-0.098,0.041-0.168c0.003-0.05,0.007-0.098,0.013-0.148
		c0.005-0.044,0.01-0.084,0.015-0.128c0.011-0.073-0.001-0.116-0.022-0.101c-0.014,0.012-0.028,0.023-0.042,0.034
		c-0.023,0.02-0.056,0.096-0.065,0.169c-0.006,0.049-0.01,0.095-0.014,0.143c-0.004,0.045-0.005,0.088-0.007,0.132
		c0,0.072,0.015,0.122,0.041,0.098C422.039,201.59,422.053,201.58,422.066,201.569L422.066,201.569z"/>
	<path id="path2750" fill="#4B4B4D" d="M421.855,201.754c0.019-0.019,0.036-0.096,0.04-0.165c0.002-0.049,0.006-0.097,0.012-0.146
		c0.004-0.043,0.009-0.083,0.015-0.126c0.01-0.073-0.001-0.114-0.021-0.1c-0.013,0.011-0.025,0.022-0.039,0.033
		c-0.022,0.019-0.053,0.094-0.062,0.167c-0.005,0.048-0.01,0.093-0.013,0.141c-0.003,0.044-0.005,0.086-0.006,0.13
		c0,0.071,0.013,0.12,0.037,0.098C421.831,201.775,421.843,201.765,421.855,201.754L421.855,201.754z"/>
	<path id="path2752" fill="#4B4B4D" d="M421.63,201.931c0.017-0.017,0.033-0.095,0.036-0.162c0.002-0.049,0.006-0.094,0.012-0.143
		c0.004-0.042,0.009-0.081,0.014-0.123c0.01-0.071-0.001-0.112-0.02-0.098c-0.012,0.011-0.025,0.021-0.037,0.033
		c-0.02,0.018-0.05,0.092-0.058,0.163c-0.005,0.048-0.009,0.092-0.012,0.139c-0.002,0.044-0.005,0.085-0.005,0.128
		c-0.001,0.069,0.012,0.118,0.035,0.096C421.606,201.952,421.617,201.942,421.63,201.931L421.63,201.931z"/>
	<path id="path2754" fill="#4B4B4D" d="M421.206,202.226c0.016-0.018,0.03-0.09,0.034-0.154c0.002-0.046,0.006-0.091,0.011-0.137
		c0.003-0.04,0.008-0.078,0.013-0.118c0.007-0.067-0.001-0.106-0.019-0.092c-0.011,0.01-0.022,0.02-0.034,0.031
		c-0.018,0.018-0.045,0.088-0.052,0.155c-0.005,0.044-0.009,0.087-0.012,0.131c-0.002,0.042-0.004,0.081-0.004,0.123
		c-0.001,0.065,0.01,0.111,0.032,0.091C421.185,202.246,421.195,202.236,421.206,202.226L421.206,202.226z"/>
	<path id="path2756" fill="#4B4B4D" d="M421.025,202.388c0.016-0.016,0.028-0.088,0.031-0.151c0.003-0.046,0.005-0.088,0.01-0.133
		c0.004-0.039,0.007-0.076,0.013-0.116c0.008-0.066-0.001-0.103-0.017-0.091c-0.011,0.011-0.021,0.02-0.032,0.03
		c-0.017,0.017-0.042,0.086-0.049,0.152c-0.005,0.044-0.007,0.086-0.011,0.131c-0.002,0.04-0.004,0.078-0.004,0.118
		c0,0.064,0.011,0.11,0.031,0.089C421.006,202.408,421.015,202.398,421.025,202.388L421.025,202.388z"/>
	<path id="path2758" fill="#4B4B4D" d="M420.856,202.545c0.015-0.016,0.028-0.086,0.03-0.148c0.002-0.044,0.005-0.087,0.01-0.131
		c0.003-0.039,0.006-0.075,0.011-0.113c0.007-0.064-0.001-0.101-0.016-0.088c-0.012,0.009-0.021,0.019-0.031,0.029
		c-0.016,0.017-0.04,0.084-0.046,0.15c-0.004,0.043-0.007,0.083-0.009,0.127c-0.002,0.04-0.004,0.077-0.005,0.117
		c-0.001,0.063,0.01,0.108,0.029,0.087C420.837,202.564,420.847,202.555,420.856,202.545L420.856,202.545z"/>
	<path id="path2760" fill="#4B4B4D" d="M420.682,202.707c0.013-0.016,0.025-0.086,0.029-0.146c0.001-0.044,0.004-0.085,0.008-0.128
		c0.003-0.037,0.007-0.073,0.011-0.111c0.006-0.063-0.001-0.1-0.014-0.086c-0.01,0.01-0.02,0.019-0.028,0.029
		c-0.016,0.016-0.038,0.082-0.044,0.146c-0.004,0.043-0.007,0.082-0.009,0.125c-0.002,0.039-0.003,0.076-0.004,0.115
		c0,0.061,0.009,0.106,0.027,0.085C420.665,202.726,420.673,202.716,420.682,202.707L420.682,202.707z"/>
	<path id="path2762" fill="#4B4B4D" d="M420.529,202.853c0.013-0.016,0.023-0.083,0.025-0.143c0.002-0.042,0.005-0.082,0.008-0.126
		c0.003-0.036,0.006-0.071,0.01-0.108c0.006-0.063-0.001-0.098-0.014-0.086c-0.009,0.01-0.018,0.019-0.027,0.029
		c-0.014,0.016-0.034,0.081-0.04,0.143c-0.004,0.041-0.007,0.081-0.009,0.122c-0.002,0.038-0.003,0.074-0.004,0.113
		c0,0.06,0.009,0.103,0.025,0.083C420.513,202.871,420.522,202.862,420.529,202.853L420.529,202.853z"/>
	<path id="path2764" fill="#4B4B4D" d="M420.338,203.017c0.013-0.016,0.022-0.082,0.025-0.139c0.001-0.041,0.004-0.081,0.007-0.123
		c0.003-0.035,0.005-0.07,0.009-0.106c0.006-0.061-0.001-0.096-0.013-0.083c-0.009,0.009-0.016,0.019-0.024,0.027
		c-0.014,0.016-0.032,0.079-0.037,0.14c-0.004,0.041-0.006,0.078-0.007,0.12c-0.003,0.037-0.004,0.073-0.004,0.109
		c0,0.06,0.009,0.101,0.024,0.082C420.324,203.035,420.331,203.026,420.338,203.017L420.338,203.017z"/>
	<path id="path2766" fill="#4B4B4D" d="M420.134,203.181c0.011-0.014,0.019-0.081,0.02-0.139c0-0.041,0.003-0.081,0.005-0.123
		c0.001-0.036,0.004-0.071,0.006-0.106c0.004-0.06-0.004-0.096-0.014-0.083c-0.007,0.009-0.014,0.019-0.023,0.029
		c-0.012,0.015-0.027,0.079-0.032,0.14c-0.002,0.041-0.004,0.079-0.004,0.12c-0.002,0.037-0.002,0.072-0.002,0.109
		c0.001,0.061,0.01,0.102,0.023,0.083C420.121,203.2,420.127,203.19,420.134,203.181L420.134,203.181z"/>
	<path id="path2768" fill="#4B4B4D" d="M419.972,203.315c0.01-0.014,0.017-0.078,0.018-0.136c0.001-0.04,0.003-0.078,0.005-0.118
		c0.002-0.035,0.004-0.068,0.007-0.103c0.003-0.059-0.003-0.093-0.015-0.08c-0.006,0.009-0.014,0.018-0.021,0.027
		c-0.012,0.016-0.027,0.077-0.031,0.136c-0.002,0.039-0.004,0.076-0.005,0.116c-0.001,0.036-0.001,0.071,0,0.107
		c0,0.057,0.007,0.098,0.021,0.079C419.959,203.333,419.965,203.324,419.972,203.315L419.972,203.315z"/>
	<path id="path2770" fill="#4B4B4D" d="M419.82,203.433c0.01-0.013,0.016-0.076,0.018-0.13c0.001-0.04,0.002-0.077,0.004-0.116
		c0.002-0.034,0.004-0.066,0.005-0.101c0.004-0.057-0.003-0.09-0.013-0.078c-0.007,0.009-0.014,0.018-0.02,0.026
		c-0.01,0.016-0.026,0.076-0.029,0.133c-0.002,0.039-0.004,0.074-0.005,0.112c0,0.035,0,0.068,0,0.103
		c0,0.056,0.008,0.095,0.021,0.077C419.808,203.451,419.814,203.443,419.82,203.433L419.82,203.433z"/>
	<path id="path2772" fill="#4B4B4D" d="M419.672,203.555c0.009-0.014,0.016-0.073,0.017-0.127c0.001-0.037,0.002-0.073,0.004-0.111
		c0.001-0.033,0.004-0.063,0.006-0.096c0.003-0.055-0.003-0.088-0.012-0.076c-0.006,0.008-0.012,0.016-0.019,0.025
		c-0.011,0.015-0.025,0.073-0.028,0.128c-0.002,0.036-0.004,0.073-0.005,0.109c-0.001,0.034-0.001,0.066-0.001,0.099
		c0.001,0.053,0.009,0.093,0.021,0.074C419.66,203.572,419.666,203.564,419.672,203.555L419.672,203.555z"/>
	<path id="path2774" fill="#4B4B4D" d="M419.517,203.691c0.009-0.014,0.015-0.072,0.016-0.123c0.001-0.036,0.002-0.071,0.003-0.108
		c0.001-0.031,0.003-0.062,0.006-0.093c0.003-0.054-0.003-0.085-0.012-0.074c-0.007,0.009-0.013,0.017-0.019,0.026
		c-0.011,0.013-0.024,0.069-0.027,0.123c-0.002,0.036-0.003,0.07-0.004,0.105c0,0.033-0.001,0.064,0,0.097
		c0,0.052,0.008,0.089,0.019,0.071C419.506,203.707,419.511,203.699,419.517,203.691L419.517,203.691z"/>
	<path id="path2776" fill="#4B4B4D" d="M419.376,203.808c0.008-0.014,0.015-0.069,0.015-0.118c0.001-0.036,0.002-0.069,0.004-0.105
		c0.001-0.031,0.003-0.059,0.006-0.091c0.003-0.051-0.003-0.081-0.011-0.071c-0.006,0.009-0.012,0.016-0.018,0.024
		c-0.01,0.013-0.022,0.068-0.025,0.119c-0.001,0.035-0.003,0.067-0.004,0.102c0,0.031-0.001,0.061-0.001,0.093
		c0.001,0.051,0.008,0.085,0.019,0.068C419.365,203.824,419.371,203.816,419.376,203.808L419.376,203.808z"/>
	<path id="path2778" fill="#4B4B4D" d="M419.24,203.921c0.007-0.012,0.014-0.067,0.015-0.114c0.001-0.034,0.001-0.066,0.003-0.101
		c0.001-0.029,0.003-0.057,0.005-0.087c0.003-0.05-0.002-0.078-0.01-0.068c-0.006,0.007-0.011,0.015-0.017,0.024
		c-0.009,0.012-0.021,0.064-0.024,0.114c-0.002,0.034-0.003,0.065-0.004,0.098c0,0.031,0,0.059,0,0.091
		c0,0.048,0.007,0.082,0.018,0.066C419.229,203.936,419.235,203.929,419.24,203.921L419.24,203.921z"/>
	<path id="path2780" fill="#4B4B4D" d="M419.125,204.007c0.007-0.012,0.013-0.064,0.014-0.11c0-0.033,0.001-0.064,0.003-0.096
		c0.001-0.029,0.003-0.056,0.005-0.085c0.003-0.048-0.002-0.075-0.009-0.065c-0.006,0.006-0.011,0.014-0.016,0.022
		c-0.009,0.012-0.02,0.062-0.022,0.111c-0.002,0.032-0.003,0.063-0.003,0.094c-0.001,0.029-0.001,0.057-0.001,0.087
		c0.001,0.046,0.007,0.079,0.016,0.065C419.115,204.021,419.12,204.014,419.125,204.007L419.125,204.007z"/>
	<path id="path2782" fill="#4B4B4D" d="M419.01,204.109c0.007-0.011,0.012-0.062,0.013-0.106c0.001-0.031,0.001-0.062,0.003-0.093
		c0-0.027,0.003-0.053,0.004-0.081c0.003-0.046-0.001-0.073-0.009-0.063c-0.005,0.007-0.01,0.014-0.015,0.021
		c-0.008,0.012-0.019,0.061-0.022,0.107c-0.001,0.03-0.002,0.06-0.003,0.091c0,0.029,0,0.055,0,0.083
		c0,0.045,0.006,0.076,0.015,0.062C419.001,204.122,419.006,204.115,419.01,204.109L419.01,204.109z"/>
	<path id="path2784" fill="#4B4B4D" d="M418.912,204.194c0.006-0.011,0.011-0.058,0.012-0.101c0-0.031,0.001-0.059,0.003-0.091
		c0-0.026,0.002-0.051,0.004-0.078c0.003-0.044-0.002-0.069-0.009-0.06c-0.005,0.007-0.01,0.014-0.014,0.02
		c-0.008,0.012-0.019,0.058-0.021,0.103c-0.001,0.029-0.001,0.057-0.002,0.087c0,0.026,0,0.053,0,0.08
		c0,0.043,0.006,0.073,0.014,0.06C418.903,204.208,418.907,204.201,418.912,204.194L418.912,204.194z"/>
	<path id="path2786" fill="#BDBEC0" d="M418.679,203.882c0,0,0.49-0.004,0.959-0.03c0.468-0.026,1.308-0.096,1.308-0.096l0.32-0.024
		l0.513,0.198l-0.123,0.64l-0.403,0.078l-0.941,0.828l-0.701,0.23l-0.222,0.183l-0.33-0.019c0,0,0.139-1.119-0.109-1.511
		C418.702,203.966,418.679,203.882,418.679,203.882L418.679,203.882z"/>
	<path id="path2788" fill="#9C9D9F" d="M419.263,205.279c0,0,0.469-0.004,0.724,0.022c0.256,0.026,0.369,0.096,0.369,0.096
		s-0.598,0.179-0.65,0.223c-0.053,0.044-0.16,0.076-0.16,0.076l-0.372-0.029L419.263,205.279L419.263,205.279z"/>
	<path id="path2790" fill="#9C9D9F" d="M415.883,204.342l-14.899-0.257c0,0-0.095,0.047-0.094,0.133
		c0.001,0.085,0.014,0.159-0.01,0.188c-0.023,0.03-0.083,0.099-0.059,0.095c0.023-0.005,0.166-0.118,0.176-0.146
		c0.009-0.027,0.007-0.103-0.011-0.113c-0.017-0.01-0.03-0.034,0.002-0.036c0.031,0,10.29,0.304,11.703,0.377
		c1.414,0.073,2.913,0.28,2.913,0.28L415.883,204.342L415.883,204.342z"/>
	<path id="path2792" fill="#9C9D9F" d="M421.74,204.433l0.013-0.213c0,0-0.021,0.029-0.17,0.073
		c-0.149,0.043-0.249,0.023-0.425,0.031c-0.178,0.009-2.101,0.032-2.101,0.032s0.025,0.036,0.058,0.12L421.74,204.433
		L421.74,204.433z"/>
	<path id="path2794" fill="#9C9D9F" d="M419.143,204.548c0.03,0.091,0.067,0.253,0.074,0.334c0.016,0.205,0.017,0.283,0.017,0.283
		s0.511-0.011,0.746,0.015c0.234,0.026,0.519,0.144,0.519,0.144l1.209-0.556l-0.009-0.25L419.143,204.548L419.143,204.548z"/>
	<path id="path2796" fill="#E3E4E4" d="M418.884,204.124c0,0,1.888-0.044,2.058-0.053c0.17-0.008,0.624-0.034,0.702-0.056
		c0.078-0.022,0.128-0.086,0.02-0.142c-0.106-0.056-0.298-0.09-0.298-0.09s0.042,0.086-0.134,0.094
		c-0.178,0.009-1.327,0.04-1.548,0.042c-0.22,0.001-0.972,0.022-0.972,0.022L418.884,204.124L418.884,204.124z"/>
	<path id="path2798" fill="#E20025" d="M431.132,201.298l0.003,0.005c-0.194,0.247-0.423,0.504-0.694,0.772
		c-1.045,1.031-4.05,2.396-4.05,2.396s0.016,0.185-0.312,0.432c-0.277,0.21-1.511,1.007-1.864,1.198
		c-0.561,0.302-0.964,0.488-1.093,0.532c-0.142,0.048-0.583,0.175-0.882,0.188c-0.298,0.014-0.618,0.005-0.618,0.005
		s-0.559,0.394-1.774,0.335c-0.915-0.044-1.427-0.496-1.462-0.528l-0.002-0.004l0.014-0.252l0,0c0,0,0.157-0.015,0.362-0.116
		c0.205-0.101,0.408-0.436,0.408-0.436l0.199,0.019c0,0,0.106-0.129,0.176-0.18c0.071-0.049,0.425-0.166,0.517-0.188
		c0.092-0.022,0.156-0.037,0.247-0.088c0.092-0.051,0.515-0.438,0.627-0.551c0.112-0.116,0.275-0.224,0.36-0.273
		c0.084-0.051,0.283-0.053,0.283-0.053s0.189-0.25,0.117-0.497c-0.041-0.14-0.18-0.172-0.407-0.239
		c-0.126-0.036-0.328-0.023-0.488-0.009c-0.101,0.008-0.201,0.015-0.201,0.015s0.127-0.099,0.332-0.279
		c0.203-0.179,1.925-1.365,2.626-1.684c0.699-0.319,1.52-0.51,2.315-0.617c0.794-0.106,3.449-0.051,4.237-0.036
		C430.838,201.179,431.096,201.283,431.132,201.298L431.132,201.298z"/>
	<path id="path2800" fill="#4D71B1" d="M416.206,204.83c0,0-0.33,0.003-0.447,0.046c-0.117,0.044-0.232,0.247-0.263,0.354
		c-0.024,0.083-0.091,0.18-0.091,0.18s0.035-0.295,0.172-0.596c0.146-0.321,0.386-0.668,0.811-0.966
		c0.572-0.401,1.294-0.33,1.294-0.33s-0.964,0.21-1.152,0.638C416.343,204.583,416.206,204.83,416.206,204.83L416.206,204.83z"/>
	<path id="path2802" fill="#E20025" d="M413.488,205.066c0,0-0.025,0.101-0.019,0.245c0.006,0.137,0.04,0.274,0.076,0.294
		c0.035,0.021,0.086,0.024,0.156-0.002c0.069-0.027,0.307-0.205,0.348-0.318c0.042-0.112-0.004-0.436-0.02-0.469
		c-0.016-0.031-0.035-0.077-0.113-0.066c-0.081,0.011-0.175,0.079-0.254,0.143C413.583,204.959,413.488,205.066,413.488,205.066
		L413.488,205.066z"/>
	<path id="path2804" fill="#E20025" d="M410.185,204.786c0,0-0.036,0.197-0.029,0.304c0.006,0.106,0.012,0.218,0.029,0.255
		c0.016,0.037,0.07,0.111,0.118,0.106c0.047-0.006,0.234-0.067,0.286-0.179c0.052-0.112,0.083-0.272,0.081-0.373
		c0-0.101-0.022-0.176-0.05-0.218c-0.027-0.043-0.037-0.091-0.107-0.091c-0.07,0.001-0.173,0.061-0.218,0.088
		C410.243,204.711,410.185,204.786,410.185,204.786L410.185,204.786z"/>
	<path id="path2806" fill="#FCC000" d="M417.786,199.542c-0.013,0.029-0.037,0.096-0.017,0.175c0.011,0.042,0.028,0.078,0.055,0.024
		c0.019-0.041,0.016-0.084,0.011-0.143l-0.005-0.059c-0.008-0.09-0.016-0.176,0.038-0.29c0.027-0.058,0.082-0.133,0.117,0.009
		c0.033,0.133-0.008,0.272-0.038,0.336l-0.021-0.087c0.01-0.026,0.034-0.087,0.015-0.167c-0.008-0.035-0.026-0.061-0.048-0.014
		c-0.019,0.04-0.016,0.077-0.014,0.101l0.012,0.136c0.006,0.076,0.006,0.16-0.039,0.253c-0.074,0.155-0.113,0.036-0.123-0.002
		c-0.04-0.16,0.006-0.295,0.036-0.359L417.786,199.542L417.786,199.542z"/>
	<path id="path2808" fill="#FCC000" d="M418.096,199.701c0.015,0.059,0.037,0.239-0.078,0.481c-0.115,0.242-0.167,0.119-0.181,0.062
		c-0.015-0.058-0.038-0.239,0.078-0.48C418.03,199.522,418.082,199.644,418.096,199.701L418.096,199.701z M417.88,200.153
		c0.013,0.049,0.047,0.082,0.116-0.061c0.069-0.145,0.069-0.249,0.057-0.299c-0.013-0.049-0.047-0.082-0.116,0.063
		C417.868,199.999,417.868,200.104,417.88,200.153L417.88,200.153z"/>
	<path id="path2810" fill="#FCC000" d="M418.081,200.671c-0.065,0.136-0.11,0.124-0.137,0.014c-0.01-0.039-0.019-0.11-0.004-0.2
		c0.009-0.056,0.027-0.106,0.051-0.158l0.163-0.342l0.023,0.093l-0.16,0.335c-0.034,0.071-0.04,0.138-0.03,0.181
		c0.015,0.063,0.039,0.052,0.068-0.011l0.162-0.34l0.023,0.093L418.081,200.671L418.081,200.671z"/>
	<polygon id="polygon2812" fill="#FCC000" points="418.059,201.124 418.036,201.033 418.239,200.61 418.207,200.479 418.25,200.388 
		418.337,200.741 418.294,200.832 418.261,200.701 	"/>
	<path id="path2814" fill="#E20025" d="M430.938,201.229l0.001,0.003c-0.042,0.054-0.743,0.944-1.646,1.488
		c-0.56,0.337-3.462,1.933-3.462,1.933s0.111,0.019,0.199-0.002c0.128-0.029,0.241-0.101,0.241-0.101s0.015,0.128-0.352,0.387
		c-0.367,0.258-1.735,1.126-2.426,1.448c-0.202,0.093-0.697,0.362-1.391,0.374c-0.514,0.009-0.726,0.016-1.108-0.019
		c-0.458-0.042-1.216-0.195-1.29-0.237c-0.048-0.027-0.105-0.05-0.123-0.079l0,0l-0.001-0.003l-0.001-0.002
		c-0.007-0.015-0.003-0.032,0.018-0.053c0.063-0.064,0.212-0.172,0.337-0.355c0.084-0.122,0.211-0.248,0.434-0.355
		c0.222-0.108,0.588-0.253,0.72-0.305c0.255-0.098,0.413-0.206,0.519-0.345c0.104-0.14,0.231-0.343,0.241-0.449
		c0.01-0.106-0.222-0.122-0.222-0.122c0.034-0.057,0.059-0.128,0.07-0.183l0,0c0,0,0.093-0.019,0.2-0.033
		c0.106-0.014,0.539-0.033,0.496-0.132c-0.044-0.098-0.441-0.124-0.441-0.124l0.196-0.257l-0.114-0.071c0,0,0.03-0.153,0.381-0.344
		c0.36-0.196,0.719-0.496,1.21-0.768l0.123-0.067c0.048-0.024,0.098-0.049,0.149-0.073c0.636-0.305,1.278-0.634,1.278-0.634
		l0.812-0.359c0,0-1.268,0.8-1.479,0.959c-0.211,0.158,0.329,0.338,0.034,0.695c-0.295,0.358-0.662,0.574-0.662,0.574
		s-0.055,0.142,0.001,0.17c0.041,0.02,2.366-1.421,3.63-2.204c0.473-0.293,1.102-0.478,1.102-0.478l1.407-0.019l0.256,0.104
		L430.938,201.229L430.938,201.229z"/>
	<path id="path2816" fill="#B1071F" d="M421.758,204.514c-0.012-0.002-0.087-0.002-0.179-0.002c-0.001,0-0.001,0.001-0.001,0.001
		s-0.199,0.001-0.283,0.052c-0.085,0.05-0.247,0.158-0.36,0.273c-0.085,0.086-0.346,0.327-0.509,0.462
		c0.012,0.004,0.023,0.009,0.031,0.014c0.026,0.013,0.101,0.083,0.101,0.083s0.588-0.195,0.812-0.364
		c0.243-0.183,0.349-0.35,0.377-0.415C421.775,204.552,421.791,204.518,421.758,204.514L421.758,204.514z"/>
	<path id="path2818" fill="#B1071F" d="M419.543,205.667c-0.01,0.008-0.021,0.016-0.032,0.027c0.006,0.001,0.012,0.002,0.019,0.004
		c0.062,0.014,0.091,0.036,0.135,0.025c0.057-0.016,0.245-0.083,0.394-0.138c0.151-0.055,0.366-0.139,0.366-0.139
		s-0.024-0.03-0.056-0.046c-0.012-0.006-0.028-0.014-0.045-0.02c-0.005,0.004-0.011,0.008-0.016,0.01
		c-0.091,0.051-0.156,0.066-0.247,0.088C419.968,205.5,419.614,205.617,419.543,205.667L419.543,205.667z"/>
	<polygon id="polygon2820" fill="#FCC000" points="418.235,201.151 418.124,201.383 418.101,201.291 418.347,200.776 
		418.37,200.866 418.276,201.062 418.318,201.232 418.411,201.037 418.434,201.128 418.188,201.642 418.165,201.552 
		418.276,201.321 	"/>
	<path id="path2822" fill="#FCC000" d="M418.444,201.16l0.024,0.097c-0.121,0.337-0.136,0.379-0.163,0.445v0.001
		c0.028-0.046,0.055-0.092,0.195-0.316l0.025,0.096c-0.123,0.333-0.134,0.365-0.165,0.442l0.001,0.001
		c0.025-0.042,0.048-0.079,0.197-0.305l0.023,0.091l-0.277,0.393l-0.021-0.087c0.109-0.297,0.131-0.356,0.175-0.469v-0.001
		c-0.05,0.086-0.071,0.116-0.209,0.335l-0.021-0.086L418.444,201.16L418.444,201.16z"/>
	<polygon id="polygon2824" fill="#FCC000" points="418.627,202.167 418.57,201.936 418.518,202.044 418.57,202.256 418.527,202.347 
		418.474,202.135 418.411,202.268 418.47,202.51 418.427,202.601 418.345,202.271 418.591,201.756 418.671,202.076 	"/>
	<path id="path2826" fill="#FCC000" d="M418.532,202.562c-0.014,0.029-0.037,0.096-0.017,0.174c0.011,0.044,0.028,0.079,0.055,0.025
		c0.019-0.041,0.016-0.084,0.011-0.143l-0.005-0.06c-0.009-0.089-0.016-0.175,0.038-0.29c0.027-0.058,0.082-0.132,0.118,0.009
		c0.032,0.133-0.009,0.272-0.038,0.335l-0.022-0.086c0.011-0.026,0.035-0.088,0.015-0.167c-0.009-0.034-0.026-0.061-0.048-0.014
		c-0.019,0.041-0.016,0.076-0.014,0.101l0.012,0.136c0.006,0.077,0.006,0.16-0.039,0.253c-0.074,0.155-0.113,0.034-0.123-0.003
		c-0.039-0.159,0.006-0.295,0.036-0.358L418.532,202.562L418.532,202.562z"/>
	<path id="path2828" fill="#4D71B1" d="M431.852,198.907l0.038,0.046c0.109,0.211-0.097,0.873-0.277,1.207
		c-0.363,0.67-0.714,1.098-0.714,1.098l-0.619-0.094l-0.321-0.057l-1.189-0.071l0,0c0,0,0.615-0.26,1.556-1.024
		c0.456-0.37,1.152-1.146,1.469-1.124C431.817,198.889,431.836,198.895,431.852,198.907L431.852,198.907z"/>
	<polygon id="polygon2830" fill="#FCC000" points="418.576,203.227 418.554,203.136 418.757,202.712 418.724,202.58 
		418.768,202.489 418.855,202.843 418.811,202.933 418.779,202.803 	"/>
	<path id="path2832" fill="#FCC000" d="M431.227,201.186c0,0-0.047-0.033-0.281-0.068c-0.606-0.091-1.454-0.133-2.754-0.149
		c-0.781-0.01-2.47-0.009-3.766,0.388c-1.228,0.376-2.477,1.228-3.175,1.767c-0.478,0.369-0.741,0.666-0.741,0.666l0.195-0.013
		c0,0,0.264-0.256,0.649-0.541c0.607-0.449,1.887-1.355,3.109-1.695c1.183-0.33,2.615-0.349,3.725-0.341
		c1.038,0.007,1.959,0.065,2.65,0.163c0.233,0.033,0.211,0.051,0.211,0.051L431.227,201.186L431.227,201.186z"/>
	<path id="path2834" fill="#BDBEC0" d="M432.097,204.01l5.102,0.211c0,0,0.096-0.001,0.064,0.052
		c-0.032,0.054-0.126,0.118-0.18,0.141c-0.053,0.022-0.18,0.055-0.18,0.055s-0.105,0.139-0.158,0.17
		c-0.053,0.034-0.167,0.044-0.167,0.044s-0.047,0.008-0.053-0.015c-0.006-0.023-0.012-0.106-0.012-0.106l-4.292,0.248
		L432.097,204.01L432.097,204.01z"/>
	<path id="path2836" fill="#E20025" d="M415.527,206.227l-0.087-0.3c-0.035-0.143-0.05-0.28-0.027-0.499c0,0,0.029-0.345,0.272-0.51
		c0.024-0.016,0.05-0.029,0.078-0.037l0.009-0.003c0.173-0.049,0.402,0.015,0.402,0.015l0,0c0,0,0.41,0.982,0.703,1.215
		c0.294,0.231,1.088,0.196,1.669,0.085c0.581-0.111,0.757-1.128,0.724-0.822c-0.032,0.305-0.071,0.529-0.467,0.977
		c-0.394,0.442-1.063,0.612-1.52,0.708c-0.235,0.049-0.542,0.101-0.983-0.034C415.875,206.891,415.622,206.479,415.527,206.227
		L415.527,206.227z"/>
	<path id="path2838" fill="#E3E4E4" d="M432.144,204.059c0,0,1.832,0.048,2.642,0.091c0.844,0.044,2.4,0.072,2.442,0.081
		c0.04,0.009,0.015,0.023-0.024,0.034c-0.049,0.014-0.032-0.015-0.032-0.015s-1.908-0.043-2.271-0.053
		c-0.361-0.011-2.733-0.075-2.733-0.075L432.144,204.059L432.144,204.059z"/>
	<path id="path2840" fill="#E20025" d="M431.923,205.683L431.923,205.683c-0.015,0.014-0.133,0.121-0.469,0.312
		c-0.36,0.205-1.182,0.505-1.182,0.505s-0.217,0.093-0.483,0.175c-0.26,0.081-0.776,0.054-0.83,0.034
		c-0.053-0.02,0.011-0.043-0.075-0.073c-0.086-0.032-0.278-0.115-0.525-0.337c-0.246-0.221-0.254-0.692-0.254-0.692
		s0.243-0.532,0.508-0.705c0.02-0.013,0.043-0.025,0.067-0.036l0.046-0.019c0.313-0.116,0.865-0.113,0.865-0.113l0,0
		c0,0,0.077,0.265,0.229,0.573c0.151,0.307,0.474,0.571,1.271,0.531C431.676,205.811,431.902,205.695,431.923,205.683
		L431.923,205.683z"/>
	<path id="path2842" fill="#BDBEC0" d="M430.826,197.151c-0.063-0.049-0.161-0.111-0.161-0.111l-0.65-0.195l-1.546,0.17
		l-0.814,0.276l-0.368,0.103c0,0-0.142,0.044-0.191,0.115c-0.049,0.071-0.195,0.385-0.195,0.385s-0.069,0.17,0.03,0.177
		c0.099,0.006,0.71,0.044,0.71,0.044l0.875-0.526c0,0,0.446-0.117,0.794-0.178c0.347-0.059,1.077-0.143,1.077-0.143l0.614,0.02
		C431.002,197.287,430.889,197.201,430.826,197.151L430.826,197.151z"/>
	<path id="path2844" fill="#E20025" d="M431.631,205.768L431.631,205.768c-0.014,0.01-0.157,0.108-0.372,0.19
		c-0.246,0.095-0.481,0.2-0.694,0.287c-0.211,0.087-0.54,0.238-0.752,0.297c-0.212,0.058-0.358,0.068-0.712,0.071l0,0
		c0,0-0.126-0.046-0.301-0.126c-0.19-0.086-0.463-0.264-0.561-0.578c-0.114-0.368-0.069-0.514,0.095-0.738
		c0.035-0.047,0.113-0.129,0.183-0.17l0.037-0.019c0.002,0,0.005-0.001,0.007-0.002c0.066-0.02,0.106,0.035,0.126,0.073
		c0.044,0.086,0.242-0.03,0.497-0.061c0.255-0.03,0.242,0.083,0.115,0.141c-0.128,0.058-0.249,0.133-0.475,0.292
		c-0.225,0.158-0.258,0.425-0.27,0.638c-0.012,0.213,0.28,0.128,0.475,0.048c0.28-0.114,0.394-0.158,0.622-0.272
		c0.189-0.094,0.305-0.243,0.305-0.243s0.171,0.083,0.343,0.196c0.17,0.112,0.596,0.093,0.766,0.091
		C431.231,205.884,431.605,205.776,431.631,205.768L431.631,205.768z"/>
	<path id="path2846" fill="#4B4B4D" d="M427.607,198.046l0.021-0.693l-0.37,0.107c0,0-0.09,0.019-0.124,0.084
		c-0.033,0.064-0.18,0.376-0.18,0.376s-0.023,0.099,0.044,0.101C427.064,198.024,427.607,198.046,427.607,198.046L427.607,198.046z"
		/>
	<polygon id="polygon2848" fill="#4B4B4D" points="427.705,197.335 427.69,197.999 428.445,197.532 428.425,197.085 	"/>
	<path id="path2850" fill="#4B4B4D" d="M428.494,197.066l0.029,0.451c0,0,0.346-0.108,0.809-0.168
		c0.462-0.059,1.027-0.118,1.027-0.118l-0.329-0.338L428.494,197.066L428.494,197.066z"/>
	<polygon id="polygon2852" fill="#4B4B4D" points="430.122,196.914 430.459,197.243 431.012,197.293 430.741,197.089 	"/>
	<path id="path2854" fill="#BDBEC0" d="M426.096,197.651c0.038-0.06,0.168-0.214,0.006-0.135c-0.219,0.107-0.492,0.25-0.586,0.325
		c-0.126,0.101-0.169,0.158-0.169,0.158s-0.289,0.286-0.409,1.004c-0.123,0.718,0.017,1.378,0.017,1.378s0.032,0.268,0.152,0.218
		c0.12-0.051,0.501-0.239,0.501-0.239s0.132-0.051,0.098-0.263c-0.043-0.269-0.128-0.939-0.048-1.356
		C425.822,197.91,426.016,197.783,426.096,197.651L426.096,197.651z M425.628,200.088c0.015,0.106-0.006,0.145-0.07,0.188
		c-0.064,0.044-0.325,0.167-0.424,0.21c-0.067,0.029-0.109-0.008-0.132-0.218c-0.027-0.242-0.065-0.507-0.034-0.962
		c0.051-0.733,0.269-1.091,0.321-1.173c0.06-0.093,0.132-0.169,0.158-0.198c0.027-0.029,0.091-0.071,0.139-0.108
		c0.049-0.036,0.338-0.188,0.438-0.238c0.097-0.046,0.136-0.067-0.017,0.123c-0.212,0.264-0.416,0.712-0.446,1.28
		C425.531,199.559,425.613,199.98,425.628,200.088L425.628,200.088z"/>
	<path id="path2856" fill="#FCC000" d="M416.185,204.755l-0.03,0.213c0,0-0.238-0.016-0.423,0.044
		c-0.184,0.058-0.26,0.19-0.302,0.343c-0.021,0.078-0.03,0.231-0.03,0.231s-0.009-0.169,0.029-0.33
		c0.029-0.128,0.082-0.335,0.315-0.442C415.926,204.727,416.185,204.755,416.185,204.755L416.185,204.755z"/>
	<path id="path2858" fill="#BDBEC0" d="M427.587,204.986l0.529,0.514c0,0,0.172-0.705,0.496-1.005
		c0.324-0.301,1.658-1.172,1.658-1.172s-0.299-0.054-0.653,0.027c-0.355,0.081-0.729,0.332-0.821,0.376
		c-0.091,0.044-0.247,0.081-0.247,0.081s0.172,0.055,0.179,0.155c0.008,0.099-0.048,0.213-0.118,0.285
		c-0.071,0.071-0.472,0.394-0.557,0.473c-0.085,0.078-0.198,0.143-0.304,0.188C427.644,204.95,427.587,204.986,427.587,204.986
		L427.587,204.986z"/>
	<path id="path2860" fill="#E3E4E4" d="M428.677,203.816c0,0,0.059-0.006,0.149-0.054c0.09-0.049,0.365-0.239,0.551-0.304
		c0.24-0.081,0.415-0.115,0.558-0.116c0.144-0.001,0.203,0.036,0.203,0.036l-0.403,0.168c0,0,0.026-0.075-0.096-0.068
		c-0.123,0.006-0.224,0.002-0.378,0.083c-0.154,0.081-0.288,0.183-0.373,0.237c-0.083,0.054-0.152,0.086-0.152,0.086
		s-0.012-0.016-0.029-0.038C428.69,203.821,428.677,203.816,428.677,203.816L428.677,203.816z"/>
	<path id="path2862" fill="#9C9D9F" d="M428.568,204.539l0.081-0.341c-0.012,0.017-0.025,0.034-0.039,0.048
		c-0.071,0.071-0.473,0.394-0.556,0.473c-0.085,0.078-0.198,0.143-0.305,0.188c-0.106,0.043-0.162,0.079-0.162,0.079l0.529,0.514
		C428.117,205.5,428.273,204.859,428.568,204.539L428.568,204.539z"/>
	<path id="path2864" fill="#4D71B1" d="M430.792,203.286c0,0-0.352-0.018-0.617,0.059c-0.265,0.076-0.817,0.316-1.356,0.853
		c-0.537,0.537-0.609,0.847-0.662,1.016c-0.052,0.171-0.061,0.37-0.061,0.37s0.206-0.59,0.594-0.71c0.531-0.165,0.9-0.194,0.9-0.194
		s-0.025-0.469,0.333-0.855C430.282,203.44,430.792,203.286,430.792,203.286L430.792,203.286z"/>
	<path id="path2866" fill="#9C9D9F" d="M432.177,204.189l5.044,0.106c0,0-0.021,0.032-0.091,0.061s-4.897,0.121-4.897,0.121
		L432.177,204.189L432.177,204.189z"/>
	<path id="path2868" fill="#3D5B92" d="M428.157,205.214c-0.002,0.007-0.004,0.016-0.006,0.023c0,0.006,0,0.013,0,0.02
		c-0.004,0.078-0.002,0.153-0.001,0.2c0.06-0.128,0.127-0.274,0.283-0.409c0.084-0.082,0.148-0.15,0.148-0.15
		s-0.068-0.066-0.08-0.17c-0.008-0.068-0.007-0.128-0.005-0.171C428.246,204.881,428.197,205.086,428.157,205.214L428.157,205.214z"
		/>
	<path id="path2870" fill="#9C9D9F" d="M432.276,204.568l4.775-0.168c0,0-0.127,0.029-0.163,0.05
		c-0.035,0.023-0.105,0.079-0.148,0.116c-0.042,0.036-0.191,0.094-0.205,0.058c-0.015-0.035,0.005-0.143,0.005-0.143l-4.272,0.194
		L432.276,204.568L432.276,204.568z"/>
	<path id="path2872" fill="#FCC000" d="M429.599,204.585c0,0-0.719,0.033-1.098,0.336c-0.36,0.287-0.404,0.664-0.404,0.664
		l0.023,0.183c0,0,0.116-0.526,0.5-0.743c0.399-0.224,0.968-0.243,0.968-0.243L429.599,204.585L429.599,204.585z"/>
	<path id="path2874" fill="#E20025" d="M415.698,206.437l-0.062-0.113c-0.007-0.014-0.013-0.028-0.02-0.042
		c-0.108-0.233-0.186-0.534-0.176-0.651c0.001-0.014,0.004-0.024,0.007-0.026l0.003-0.001c0.024-0.001,0.084,0.218,0.084,0.218
		s0.051,0.17,0.159,0.254c0.107,0.083,0.185,0.062,0.29-0.024c0.106-0.086,0.184-0.136,0.248-0.165
		c0.063-0.029,0.176-0.058,0.176-0.058s0.452,0.422,0.729,0.441c0.026,0.002,0.067-0.006,0.118-0.021
		c0.371,0.063,0.885,0.023,1.294-0.056c0.517-0.099,0.713-0.917,0.726-0.879c0.002,0.005,0.001,0.024-0.003,0.056
		c-0.032,0.293-0.068,0.511-0.421,0.924l0,0c-0.08,0.088-0.163,0.165-0.243,0.21c-0.368,0.21-1.146,0.493-1.593,0.511
		c-0.362,0.016,0.475-0.128,0.793-0.29c0.317-0.164,0.148-0.151-0.045-0.15c-0.192,0.002-0.831,0.306-1.118,0.351
		c-0.286,0.045-0.412-0.018-0.576-0.116C415.915,206.719,415.795,206.595,415.698,206.437L415.698,206.437z"/>
	<path id="path2876" fill="#BDBEC0" d="M430.852,203.268c-1.156,0.045-1.44,1.147-1.232,1.87c0.19,0.666,0.929,0.809,1.079,0.807
		c0.221-0.002,0.646,0.016,0.957-0.115c0.311-0.131,0.47-0.292,0.584-0.588c0.132-0.342,0.147-1.179-0.419-1.657
		C431.386,203.219,430.852,203.268,430.852,203.268L430.852,203.268z"/>
	<path id="path2878" fill="#BDBEC0" d="M417.708,203.518c-0.923,0.021-1.648,0.645-1.591,1.561c0.06,0.944,0.68,1.264,1.255,1.31
		c0.319,0.025,0.525,0.023,0.851-0.009c0.327-0.031,1.091-0.229,1.061-1.328C419.251,203.952,418.226,203.505,417.708,203.518
		L417.708,203.518z"/>
	<path id="path2880" fill="#4B4B4D" d="M428.396,196.844c0,0,0.014,0.053,0.016,0.068c0.002,0.017,0.02,0.044-0.026,0.058
		c-0.045,0.014-0.351,0.115-0.378,0.121c-0.026,0.004-0.045-0.019-0.038-0.051l0.039-0.075c0,0,0.005-0.024,0.051-0.039
		c0.045-0.013,0.26-0.079,0.285-0.088C428.373,196.832,428.396,196.844,428.396,196.844L428.396,196.844z"/>
	<path id="path2882" fill="#4B4B4D" d="M428.575,196.935c0,0,0.341-0.039,0.383-0.039c0.043,0,0.064-0.026,0.045-0.057
		c-0.017-0.031-0.044-0.062-0.044-0.062s-0.021-0.015-0.056-0.011c-0.064,0.007-0.334,0.028-0.359,0.032
		c-0.024,0.003-0.05,0.014-0.046,0.043c0.008,0.042,0.005,0.044,0.009,0.058C428.511,196.914,428.532,196.939,428.575,196.935
		L428.575,196.935z"/>
	<path id="path2884" d="M417.219,203.933l1.036-0.009c0.255,0.117,0.445,0.32,0.559,0.544l0.01,1.044
		c-0.147,0.303-0.451,0.525-1.009,0.536c-0.892,0.019-1.234-0.662-1.227-1.113C416.593,204.601,416.773,204.142,417.219,203.933
		L417.219,203.933z"/>
	<path id="path2886" fill="#646567" d="M416.672,204.527c-0.056,0.141-0.083,0.283-0.084,0.408
		c-0.006,0.431,0.304,1.069,1.108,1.111c0.38-0.123,0.641-0.531,0.637-0.894c-0.004-0.442-0.396-0.933-0.932-0.938
		C417.085,204.211,416.839,204.368,416.672,204.527L416.672,204.527z"/>
	<path id="path2888" fill="#BDBEC0" d="M417.687,205.14c0.001,0.154-0.122,0.28-0.276,0.281c-0.153,0-0.279-0.123-0.281-0.277
		c-0.001-0.153,0.123-0.279,0.276-0.28C417.56,204.863,417.685,204.986,417.687,205.14L417.687,205.14z"/>
	<path id="path2890" fill="#E1E1E2" d="M417.429,204.989c0,0,0.149,0.041,0.143,0.091c-0.007,0.05-0.049,0.092-0.085,0.058
		c-0.036-0.035-0.015-0.093-0.015-0.093L417.429,204.989L417.429,204.989z"/>
	<path id="path2892" d="M430.505,203.692l1.01-0.009c0.174,0.092,0.311,0.235,0.402,0.406l0.009,1.037
		c-0.142,0.27-0.406,0.45-0.755,0.468c-0.533,0.026-1.068-0.225-1.108-0.992C430.034,204.096,430.223,203.826,430.505,203.692
		L430.505,203.692z"/>
	<path id="path2894" fill="#646567" d="M431.134,204.672c-0.144-0.679-0.679-0.733-0.934-0.718
		c-0.101,0.153-0.155,0.364-0.138,0.649c0.031,0.583,0.348,0.867,0.732,0.959C430.969,205.46,431.249,205.211,431.134,204.672
		L431.134,204.672z"/>
	<path id="path2896" fill="#BDBEC0" d="M430.112,204.777c0.001,0.16,0.106,0.27,0.231,0.264c0.135-0.005,0.256-0.262,0.247-0.332
		c-0.011-0.08-0.187-0.188-0.279-0.188C430.22,204.522,430.111,204.613,430.112,204.777L430.112,204.777z"/>
	<path id="path2898" fill="#E3E4E4" d="M430.349,204.585c0,0,0.193,0.087,0.193,0.133c0,0.046-0.039,0.085-0.074,0.053
		c-0.036-0.031-0.007-0.075-0.007-0.075s-0.033-0.031-0.068-0.052C430.356,204.624,430.349,204.585,430.349,204.585L430.349,204.585
		z"/>
	<path id="path2900" fill="#E3E4E4" d="M432.246,204.545c-0.043-0.884-0.818-1.163-1.166-1.198
		c-0.226-0.024-0.532-0.035-0.808,0.138c-0.265,0.165-0.379,0.394-0.379,0.394c-0.088,0.127,0.071,0.063,0.093,0.084
		c0.021,0.021-0.202,0.268-0.081,0.825c0.163,0.744,0.734,0.972,1.35,0.926C431.58,205.691,432.291,205.477,432.246,204.545
		L432.246,204.545z M431.164,205.664c-0.695,0.024-1.161-0.528-1.159-1.076c0.002-0.625,0.345-1.127,1.076-1.131
		c0.511-0.003,1.031,0.44,1.066,0.964C432.181,204.924,432.038,205.635,431.164,205.664L431.164,205.664z"/>
	<path id="path2902" fill="#E3E4E4" d="M417.722,203.609c-0.667-0.016-1.366,0.452-1.394,1.29c-0.031,0.917,0.644,1.336,1.517,1.343
		c0.853,0.006,1.323-0.501,1.316-1.24C419.154,204.264,418.524,203.628,417.722,203.609L417.722,203.609z M417.794,206.101
		c-0.497-0.016-1.329-0.209-1.281-1.225c0.048-1.015,0.968-1.183,1.239-1.168c0.561,0.031,1.331,0.443,1.296,1.274
		C419.006,205.955,418.27,206.117,417.794,206.101L417.794,206.101z"/>
	<path id="path2904" fill="#E3E4E4" d="M420.462,203.973c0.033-0.031,0.103-0.048,0.269-0.039c0.165,0.009,0.356,0.006,0.419,0.098
		c0.054,0.078-0.048,0.168-0.225,0.223c-0.164,0.051-0.412,0.076-0.455,0.024c-0.034-0.041-0.052-0.087-0.057-0.17
		C420.408,204.047,420.424,204.009,420.462,203.973L420.462,203.973z"/>
	<path id="path2906" fill="#BDBEC0" d="M420.438,204.119c0.003,0.044,0.013,0.088,0.034,0.124c0.021,0.035,0.084,0.039,0.198,0.034
		c0.172-0.009,0.488-0.093,0.471-0.207c-0.013-0.084-0.17-0.096-0.286-0.104c-0.12-0.008-0.348-0.02-0.386,0.029
		C420.43,204.047,420.434,204.073,420.438,204.119L420.438,204.119z"/>
	<path id="path2908" fill="#BDBEC0" d="M425.064,199.016c0.007,0.008,0.103-0.007,0.114-0.011c0.013-0.004,0.182-0.146,0.188-0.154
		c0.004-0.009,0.021-0.107,0.016-0.114c-0.005-0.007-0.149,0.029-0.162,0.041c-0.015,0.01-0.127,0.124-0.138,0.136
		C425.07,198.925,425.056,199.009,425.064,199.016L425.064,199.016z"/>
	<path id="path2910" fill="#4B4B4D" d="M425.568,198.081c0.016,0.006-0.005,0.046-0.02,0.073c-0.017,0.03-0.048,0.078-0.083,0.089
		c-0.027,0.009-0.012-0.05,0.017-0.091C425.511,198.109,425.552,198.076,425.568,198.081L425.568,198.081z"/>
	<path id="path2912" fill="#BDBEC0" d="M420.459,202.235c-0.014,0.017-0.117,0.133-0.142,0.175l-0.015,0.032
		c-0.014,0.024-0.022,0.04-0.028,0.073l-0.014,0.063c-0.002,0.012-0.046,0.262-0.045,0.428v0.126c0,0.133,0.001,0.271,0.011,0.4
		c0.005,0.071,0.021,0.109,0.05,0.121c0.021,0.006,0.041-0.003,0.053-0.016l0.017-0.016c0.047-0.047,0.072-0.072,0.08-0.086
		c0.01-0.019,0.025-0.103,0.025-0.145l-0.001-0.082l-0.006-0.504c-0.003-0.245,0.032-0.37,0.055-0.454l0.007-0.026
		c0.02-0.078,0.03-0.098,0.007-0.109C420.489,202.204,420.468,202.224,420.459,202.235L420.459,202.235z M420.329,202.455
		l0.023-0.031c0.013-0.026,0.086-0.11,0.121-0.156c0.014-0.001,0.015,0.016,0.01,0.036l-0.01,0.035
		c-0.024,0.085-0.056,0.214-0.054,0.467l0.004,0.496l-0.002,0.107c0,0.039-0.029,0.097-0.034,0.108
		c-0.006,0.01-0.053,0.056-0.071,0.074l-0.017,0.016c-0.004,0.004-0.008,0.005-0.009,0.005c0,0-0.035,0.022-0.04-0.053
		c-0.007-0.083-0.01-0.12-0.011-0.208c0-0.046-0.004-0.15-0.004-0.195l0.003-0.136c-0.001-0.161,0.025-0.363,0.042-0.439
		C420.296,202.512,420.318,202.477,420.329,202.455L420.329,202.455z"/>
	<path id="path2914" fill="#E20025" d="M426.071,205.287c0,0-0.137,0.16-0.18,0.257c-0.041,0.096-0.093,0.224-0.019,0.245
		c0.075,0.02,0.564-0.058,0.851-0.178c0.287-0.121,0.297-0.163,0.37-0.26c0.074-0.096,0.21-0.352,0.21-0.352
		s-0.021-0.021-0.095-0.021c-0.075,0.001-0.298,0.077-0.585,0.165C426.336,205.231,426.071,205.287,426.071,205.287L426.071,205.287
		z"/>
	<path id="path2916" fill="#C00221" d="M410.201,204.797c0,0,0.057-0.068,0.088-0.087c0.031-0.019,0.159-0.108,0.23-0.092
		c0.045,0.011,0.082,0.071,0.092,0.096c0.01,0.031,0.047,0.093,0.045,0.179c-0.004,0.124-0.011,0.14-0.021,0.176
		c-0.004,0.019-0.007-0.316-0.095-0.322c-0.055-0.004-0.142,0.244-0.198,0.346c-0.052,0.098-0.089,0.183-0.094,0.241
		c-0.005,0.051-0.071-0.03-0.018-0.165c0.051-0.126,0.046-0.233,0.016-0.281C410.215,204.841,410.201,204.797,410.201,204.797
		L410.201,204.797z"/>
	<path id="path2918" fill="#C00221" d="M413.513,205.089c0,0,0.098,0.029,0.099,0.088c0,0.084-0.099,0.32-0.055,0.378
		c0.042,0.058,0.073-0.136,0.142-0.267c0.076-0.148,0.178-0.38,0.263-0.37c0.054,0.006,0.09,0.262,0.09,0.262
		s-0.001-0.121-0.011-0.201c-0.011-0.088-0.047-0.2-0.105-0.2c-0.06,0.001-0.183,0.079-0.23,0.11
		C413.643,204.93,413.513,205.089,413.513,205.089L413.513,205.089z"/>
	<path id="path2920" fill="#C00221" d="M426.101,205.324c0,0,0.091,0.015,0.091,0.1c0.001,0.086-0.149,0.294-0.037,0.286
		c0.123-0.009,0.501-0.141,0.579-0.203c0.149-0.12,0.396-0.459,0.289-0.438c-0.107,0.022-0.3,0.11-0.461,0.146
		C426.399,205.251,426.101,205.324,426.101,205.324L426.101,205.324z"/>
	<path id="path2922" fill="#E20025" d="M421.324,206.829L421.324,206.829c-0.014,0.006-0.433,0.196-1.058,0.237
		c-0.241,0.015-0.79-0.024-1.121-0.127c-0.246-0.076-0.488-0.195-0.502-0.202h0c0.013,0.004,0.266,0.084,0.747,0.039
		c0.27-0.026,0.453-0.153,0.453-0.153s0.292,0.069,0.697,0.136C420.979,206.831,421.309,206.829,421.324,206.829L421.324,206.829z"
		/>
	<path id="path2924" fill="#E20025" d="M418.481,206.648L418.481,206.648c0.013-0.006,0.195-0.087,0.3-0.18
		c0.183-0.166,0.293-0.339,0.293-0.339l0.205-0.115l0.089,0.241c0,0,0.047,0.116,0.133,0.2c0.086,0.085,0.129,0.106,0.129,0.106
		s-0.098,0.104-0.432,0.125C418.689,206.716,418.497,206.654,418.481,206.648L418.481,206.648z"/>
	<path id="path2926" fill="#7086BE" d="M430.432,197.395c0,0,0.441,0.044,0.868,0.185c0.316,0.104,0.401,0.192,0.337,0.223
		c-0.084,0.041-0.296-0.024-0.379-0.09c-0.109-0.086-0.245-0.163-0.44-0.215C430.592,197.438,430.432,197.395,430.432,197.395
		L430.432,197.395z"/>
	<path id="path2928" fill="#D5A300" d="M430.183,201.289c0.233,0.021,0.452,0.046,0.651,0.074c0.024-0.028,0.044-0.056,0.062-0.083
		c0.036-0.051,0.072-0.103,0.104-0.153c-0.017-0.003-0.035-0.005-0.054-0.009c-0.163-0.024-0.384-0.054-0.552-0.067
		c-0.126-0.01-0.291-0.019-0.291-0.019c-0.345-0.024-0.748-0.041-1.224-0.051c-0.1,0.049-0.215,0.098-0.34,0.138
		c-0.065,0.021-0.145,0.05-0.226,0.083c0.537,0.006,1.041,0.026,1.496,0.057L430.183,201.289L430.183,201.289z"/>
	<path id="path2930" fill="#9C9D9F" d="M417.281,205.326c0,0,0.048,0.053,0.133,0.047c0.086-0.006,0.17-0.06,0.175-0.081
		c0.005-0.022-0.054-0.106-0.086-0.101c-0.032,0.005-0.047,0.06-0.09,0.086C417.361,205.309,417.281,205.326,417.281,205.326
		L417.281,205.326z"/>
	<path id="path2932" fill="#9C9D9F" d="M430.194,204.915c0,0,0.022,0.053,0.059,0.064c0.037,0.011,0.08,0.02,0.112,0.009
		c0.032-0.011,0.069-0.048,0.095-0.086c0.028-0.038,0.064-0.102,0.064-0.102s-0.101,0.086-0.18,0.113
		C430.263,204.941,430.194,204.915,430.194,204.915L430.194,204.915z"/>
	<path id="path2934" fill="#9C9D9F" d="M431.349,205.812c-0.093,0.022-0.348,0.059-0.796-0.064c-0.289-0.08-0.407-0.238-0.449-0.265
		c-0.043-0.029-0.078,0.029-0.113,0.078c-0.014,0.02-0.037,0.044-0.059,0.066c0.289,0.252,0.664,0.319,0.766,0.318
		c0.156-0.001,0.414,0.006,0.662-0.034c0.062-0.035,0.13-0.068,0.165-0.088C431.633,205.767,431.44,205.79,431.349,205.812
		L431.349,205.812z"/>
	<path id="path2936" fill="#9C9D9F" d="M419.147,205.782c0.032-0.107,0.029-0.183-0.003-0.105c-0.049,0.121-0.085,0.192-0.371,0.419
		c-0.231,0.183-0.546,0.235-1.071,0.239c-0.526,0.005-0.737-0.113-0.946-0.239c-0.206-0.128-0.258-0.219-0.301-0.247
		c-0.032-0.022-0.069-0.014-0.103-0.004c0.244,0.364,0.641,0.513,1.019,0.543c0.32,0.026,0.525,0.024,0.851-0.008
		C418.457,206.358,418.917,206.249,419.147,205.782L419.147,205.782z"/>
	<path id="path2938" fill="#D5A300" d="M428.147,205.403c0,0.025,0.003,0.053,0.008,0.078c0.006,0.031,0.012,0.081,0.017,0.121
		c0.067-0.173,0.203-0.437,0.448-0.576c0.012-0.006,0.025-0.013,0.036-0.019l-0.053-0.069c-0.01-0.017-0.026-0.041-0.042-0.062
		c-0.021,0.014-0.042,0.029-0.061,0.045C428.301,205.081,428.198,205.269,428.147,205.403L428.147,205.403z"/>
</g>
</svg>
