<?xml version="1.0" encoding="utf-8"?>
<!-- Generator: Adobe Illustrator 16.2.1, SVG Export Plug-In . SVG Version: 6.00 Build 0)  -->
<!DOCTYPE svg PUBLIC "-//W3C//DTD SVG 1.1//EN" "http://www.w3.org/Graphics/SVG/1.1/DTD/svg11.dtd">
<svg version="1.1" id="Layer_1" xmlns="http://www.w3.org/2000/svg" xmlns:xlink="http://www.w3.org/1999/xlink" x="0px" y="0px"
	 width="50px" height="50px" viewBox="0 0 50 50" enable-background="new 0 0 50 50" xml:space="preserve">
<g>
	<path fill="#9A247E" d="M50,24.999c0,13.803-11.193,24.998-25.001,24.998C11.193,49.997,0,38.802,0,24.999
		C0,11.193,11.193,0,24.999,0C38.807,0,50,11.193,50,24.999"/>
	<path fill="#FFFFFF" d="M34.04,36.65v-0.021c0-0.867,0.749-1.362,1.833-1.362c0.584,0,0.986,0.077,1.39,0.181v-0.181
		c0-0.841-0.518-1.28-1.382-1.28c-0.509,0-0.929,0.138-1.313,0.337l-0.149-0.351c0.459-0.215,0.911-0.362,1.489-0.362
		c0.568,0,1.017,0.152,1.321,0.46c0.28,0.277,0.428,0.663,0.428,1.186v2.61h-0.394V37.17c-0.29,0.4-0.806,0.794-1.604,0.794
		C34.876,37.964,34.04,37.522,34.04,36.65 M37.269,36.299v-0.48c-0.354-0.089-0.82-0.187-1.421-0.187
		c-0.887,0-1.382,0.392-1.382,0.978v0.019c0,0.605,0.574,0.957,1.217,0.957C36.54,37.585,37.269,37.062,37.269,36.299"/>
	<path fill="#FFFFFF" d="M38.885,32.58h0.501v-0.552h-0.501V32.58z M38.934,37.866h0.403v-4.191h-0.403V37.866z"/>
	<path fill="#FFFFFF" d="M40.677,33.675h0.403v1.187c0.329-0.743,1.025-1.284,1.857-1.251v0.444h-0.044
		c-0.97,0-1.813,0.729-1.813,2.095v1.717h-0.403V33.675z"/>
	<path fill="#FFFFFF" d="M23.143,24.921c0.157-0.672,0.632-1.203,1.281-1.366c0.092-0.913,0.18-1.822,0.189-2.027
		c0.022-0.439,0.416-0.465,0.416,0c0,0.215,0.117,1.121,0.243,2.03c0.631,0.163,1.125,0.678,1.303,1.348
		c1.011,0.032,2.678,0.094,4.416,0.153c-0.181-2.925-2.663-5.335-6.105-5.335c-3.477,0-5.985,2.466-6.145,5.414
		C20.465,25.055,22.113,24.971,23.143,24.921"/>
	<path fill="#FFFFFF" d="M26.52,26.19c-0.248,0.692-0.862,1.189-1.636,1.189c-0.749,0-1.384-0.48-1.654-1.176
		c-1.017-0.037-2.704-0.098-4.471-0.158c0.29,2.826,2.732,5.109,6.086,5.109c3.391,0,5.854-2.344,6.13-5.187
		C29.209,26.057,27.523,26.139,26.52,26.19"/>
	<path fill="#FFFFFF" d="M46.942,19.983h-2.98c-0.273,0-0.508,0.181-0.584,0.429c-0.007,0.021-0.012,0.041-0.015,0.06l-1.032,3.95
		l-1.188-3.969L41.1,20.315c-0.093-0.219-0.306-0.37-0.56-0.37h-2.71c-0.275,0-0.508,0.179-0.588,0.43l-1.188,4.009l-0.995-3.912
		c-0.005-0.019-0.011-0.039-0.016-0.06c-0.077-0.248-0.311-0.429-0.584-0.429h-3.037c-0.338,0-0.613,0.273-0.613,0.613
		c0,0.063,0.011,0.125,0.027,0.184l1.296,4.317c2.532,0.086,4.961,0.168,5.56,0.177c1.345,0.021,1.419,0.415,0,0.415
		c-0.608,0-2.892,0.101-5.315,0.212l1.385,4.623l0.01,0.037c0.085,0.242,0.311,0.417,0.58,0.417h2.875
		c0.275,0,0.508-0.183,0.586-0.432l1.362-4.247l1.313,4.216c0.001,0.01,0.006,0.015,0.01,0.023l0.011,0.037
		c0.001,0.008,0.003,0.017,0.008,0.024c0.096,0.222,0.309,0.378,0.566,0.378h2.894c0.262,0,0.483-0.165,0.571-0.396l0.026-0.085
		c0-0.003,0-0.008,0.003-0.01l2.946-9.698c0.001-0.008,0.003-0.017,0.006-0.024c0.013-0.054,0.023-0.11,0.023-0.169
		C47.552,20.257,47.279,19.983,46.942,19.983"/>
	<path fill="#FFFFFF" d="M12.02,25.831c-1.294-0.021-1.367-0.415,0-0.415c0.601,0,3.024-0.104,5.552-0.224l1.338-4.402
		c0.002-0.007,0.003-0.016,0.007-0.024c0.015-0.054,0.022-0.11,0.022-0.169c0-0.34-0.272-0.613-0.611-0.613h-2.978
		c-0.276,0-0.507,0.182-0.586,0.431c-0.005,0.02-0.009,0.039-0.011,0.058l-1.035,3.95l-1.187-3.971l-0.042-0.135
		c-0.092-0.217-0.308-0.371-0.56-0.371H9.217c-0.273,0-0.505,0.18-0.582,0.43l-1.192,4.004l-0.994-3.907
		c-0.005-0.019-0.012-0.038-0.017-0.058c-0.076-0.249-0.31-0.431-0.583-0.431h-3.04c-0.337,0-0.611,0.273-0.611,0.613
		c0,0.065,0.007,0.124,0.027,0.179l2.922,9.749l0.01,0.042c0.084,0.237,0.314,0.412,0.583,0.412h2.874
		c0.275,0,0.505-0.181,0.583-0.43l1.363-4.249l1.314,4.216c0,0.009,0.004,0.017,0.005,0.023l0.015,0.037
		c0.002,0.008,0.005,0.017,0.007,0.026c0.093,0.22,0.313,0.376,0.566,0.376h2.896c0.258,0,0.483-0.165,0.57-0.395l0.028-0.086
		c0-0.002,0-0.007,0-0.012l1.364-4.485C14.872,25.915,12.572,25.842,12.02,25.831"/>
</g>
</svg>
