<?xml version="1.0" encoding="utf-8"?>
<!-- Generator: Adobe Illustrator 16.2.1, SVG Export Plug-In . SVG Version: 6.00 Build 0)  -->
<!DOCTYPE svg PUBLIC "-//W3C//DTD SVG 1.1//EN" "http://www.w3.org/Graphics/SVG/1.1/DTD/svg11.dtd">
<svg version="1.1" id="Layer_1" xmlns="http://www.w3.org/2000/svg" xmlns:xlink="http://www.w3.org/1999/xlink" x="0px" y="0px"
	 width="50px" height="50px" viewBox="41.75 36.25 50 50" enable-background="new 41.75 36.25 50 50" xml:space="preserve">
<g>
	<g>
		<path fill="#002157" d="M45.501,62.871c1.009,0,1.757-0.261,2.422-0.617v1.068c-0.725,0.32-1.496,0.545-2.528,0.545
			c-2.018,0-3.645-1.02-3.645-2.635c0-1.578,1.638-2.6,3.645-2.6c1.021,0,1.804,0.19,2.48,0.439v1.092
			c-0.593-0.297-1.365-0.534-2.362-0.534c-1.234,0-2.279,0.582-2.279,1.614C43.233,62.207,44.279,62.871,45.501,62.871"/>
		<rect x="49.276" y="58.729" fill="#002157" width="1.33" height="5.045"/>
		<polygon fill="#002157" points="55.521,59.654 55.521,63.773 54.191,63.773 54.191,59.654 51.662,59.654 51.662,58.729 
			58.049,58.729 58.049,59.654 		"/>
		<polygon fill="#002157" points="63.913,58.729 65.267,58.729 62.5,61.803 62.5,63.773 61.171,63.773 61.171,61.934 58.417,58.729 
			60.149,58.729 61.966,60.9 		"/>
		<path fill="#847369" d="M68.163,58.729h1.33v2.742c0,1.626-1.021,2.396-3.17,2.396c-0.843,0-1.769-0.141-2.351-0.379v-0.973
			c0.559,0.213,1.484,0.379,2.351,0.379c1.27,0,1.84-0.545,1.84-1.424V58.729"/>
		<polygon fill="#847369" points="72.305,59.654 72.305,60.746 75.784,60.746 75.784,61.673 72.305,61.673 72.305,62.848 
			75.831,62.848 75.831,63.773 70.976,63.773 70.976,58.729 75.843,58.729 75.843,59.654 		"/>
	</g>
	<g>
		<polygon fill="#847369" points="80.377,59.654 80.377,63.773 79.048,63.773 79.048,59.654 76.52,59.654 76.52,58.729 
			82.906,58.729 82.906,59.654 		"/>
		<path fill="#ED1C24" d="M88.557,62.8c-0.487,0.63-1.163,0.974-2.101,0.974H83.44v-0.19c0.807-0.047,1.472-0.486,1.899-1.032
			l2.992-3.822h3.418L88.557,62.8"/>
	</g>
</g>
</svg>
