<?xml version="1.0" encoding="utf-8"?>
<!-- Generator: Adobe Illustrator 16.2.1, SVG Export Plug-In . SVG Version: 6.00 Build 0)  -->
<!DOCTYPE svg PUBLIC "-//W3C//DTD SVG 1.1//EN" "http://www.w3.org/Graphics/SVG/1.1/DTD/svg11.dtd">
<svg version="1.1" id="svg2367" xmlns:svg="http://www.w3.org/2000/svg"
	 xmlns="http://www.w3.org/2000/svg" xmlns:xlink="http://www.w3.org/1999/xlink" x="0px" y="0px" width="50px" height="50px"
	 viewBox="393.414 106.031 50 50" enable-background="new 393.414 106.031 50 50" xml:space="preserve">
<g id="g106">
	<g id="g108">
		<g id="g114">
			<g id="g116">
				
					<radialGradient id="path124-0_1_" cx="402.2607" cy="98.3225" r="0.6892" gradientTransform="matrix(24.8841 0 0 -41.4735 -9606.6016 4194.7188)" gradientUnits="userSpaceOnUse">
					<stop  offset="0" style="stop-color:#E4E5E6"/>
					<stop  offset="1" style="stop-color:#A7A9AC"/>
				</radialGradient>
				<path id="path124-0" fill="url(#path124-0_1_)" d="M393.414,124.997c0,11.386,11.465,12.911,11.465,28.771l0,0
					c0,0,11.472,0.37,11.472-7.617l0,0c0-8.242-23.971-22.229-19.043-30.829l0,0C393.543,119.176,393.414,124.997,393.414,124.997"
					/>
			</g>
		</g>
	</g>
</g>
<g id="g126">
	<g id="g128">
		<g id="g134">
			<g id="g136">
				
					<radialGradient id="path144-1_1_" cx="402.2661" cy="96.8586" r="0.6891" gradientTransform="matrix(24.8844 0 0 -34.8382 -9607.1719 3491.7307)" gradientUnits="userSpaceOnUse">
					<stop  offset="0" style="stop-color:#E4E5E6"/>
					<stop  offset="1" style="stop-color:#A7A9AC"/>
				</radialGradient>
				<path id="path144-1" fill="url(#path144-1_1_)" d="M397.891,114.694c-5.113,9.042,19.021,23.393,19.021,31.006l0,0
					c0,2.617-0.27,4.43-2.171,5.56l0,0c0,0,9.14-4.185,10.424-9.814l0,0v-2.818c-1.759-9.022-18.501-15.994-18.671-23.035l0,0
					c-0.097-3.946,3.738-5.036,3.738-5.036l0,0c-0.575-0.038-1.127-0.056-1.655-0.056l0,0
					C400.549,110.497,397.891,114.694,397.891,114.694"/>
			</g>
		</g>
	</g>
</g>
<g id="g146">
	<g id="g148">
		<g id="g154">
			<g id="g156">
				
					<linearGradient id="path170-4_1_" gradientUnits="userSpaceOnUse" x1="401.0166" y1="98.2366" x2="401.7063" y2="98.2366" gradientTransform="matrix(38.9913 14.7336 14.7336 -38.9913 -16672.5039 -1968.9099)">
					<stop  offset="0" style="stop-color:#A39161"/>
					<stop  offset="0.766" style="stop-color:#CEC1A6"/>
					<stop  offset="0.766" style="stop-color:#CEC1A6"/>
					<stop  offset="0.8933" style="stop-color:#D4C9B2"/>
					<stop  offset="1" style="stop-color:#B9AA86"/>
				</linearGradient>
				<path id="path170-4" fill="url(#path170-4_1_)" d="M430.599,113.082c-6,0-17.023-2.357-19.09-2.333l0,0
					c-4.125,0.052-6.338,5.084-2.825,8.918l0,0c0,0,1.766-1.975,3.457-2.553l0,0c2.347-0.806,5.068-0.607,8.455-0.407l0,0
					c3.529,0.203,7.789,0.413,13.103-0.521l0,0c6.478-1.138,8.655-3.664,9.716-6.155l0,0
					C440.816,112.185,436.604,113.082,430.599,113.082"/>
			</g>
		</g>
	</g>
</g>
<g id="g172">
	<g id="g174">
		<g id="g180">
			<g id="g182">
				
					<linearGradient id="path196-5_1_" gradientUnits="userSpaceOnUse" x1="401.0166" y1="98.3098" x2="401.7059" y2="98.3098" gradientTransform="matrix(38.9921 14.7339 14.7339 -38.9921 -16675.3945 -1962.1311)">
					<stop  offset="0" style="stop-color:#A39161"/>
					<stop  offset="0.766" style="stop-color:#CEC1A6"/>
					<stop  offset="0.766" style="stop-color:#CEC1A6"/>
					<stop  offset="0.8933" style="stop-color:#D4C9B2"/>
					<stop  offset="1" style="stop-color:#B9AA86"/>
				</linearGradient>
				<path id="path196-5" fill="url(#path196-5_1_)" d="M433.938,116.625c-5.316,0.934-9.572,0.726-13.103,0.52l0,0
					c-3.389-0.198-6.109-0.396-8.458,0.412l0,0c-1.691,0.573-3.403,2.415-3.403,2.415l0,0c0,0,4.286,4.478,6.853,6.237l0,0
					c1.653-5.312,12.117-3.221,16.394-4.748l0,0c5.39-1.924,7.653-5.162,8.508-7.306l0,0l-0.026-0.012
					C439.219,115.192,437.088,116.072,433.938,116.625"/>
			</g>
		</g>
	</g>
</g>
<g id="g198">
	<g id="g200">
		<g id="g206">
			<g id="g208">
				
					<linearGradient id="path222-6_1_" gradientUnits="userSpaceOnUse" x1="401.0205" y1="98.386" x2="401.7099" y2="98.386" gradientTransform="matrix(38.9907 14.7334 14.7334 -38.9907 -16677.9004 -1955.0144)">
					<stop  offset="0" style="stop-color:#A39161"/>
					<stop  offset="0.766" style="stop-color:#CEC1A6"/>
					<stop  offset="0.766" style="stop-color:#CEC1A6"/>
					<stop  offset="0.8933" style="stop-color:#D4C9B2"/>
					<stop  offset="1" style="stop-color:#B9AA86"/>
				</linearGradient>
				<path id="path222-6" fill="url(#path222-6_1_)" d="M432.502,121.817c-4.606,1.474-10.976,0.35-14.46,2.392l0,0
					c-1.451,0.848-1.863,2.32-1.863,2.32l0,0c0,0,3.274,2.636,6.299,6.086l0,0c0-0.81,0.278-2.111,1.333-3.167l0,0
					c1.871-1.869,12.067-3.169,13.97-10.697l0,0C436.334,120.406,433.315,121.555,432.502,121.817"/>
			</g>
		</g>
	</g>
</g>
</svg>
