<?xml version="1.0" encoding="utf-8"?>
<!-- Generator: Adobe Illustrator 16.2.1, SVG Export Plug-In . SVG Version: 6.00 Build 0)  -->
<!DOCTYPE svg PUBLIC "-//W3C//DTD SVG 1.1//EN" "http://www.w3.org/Graphics/SVG/1.1/DTD/svg11.dtd">
<svg version="1.1" id="svg2367" xmlns:svg="http://www.w3.org/2000/svg"
	 xmlns="http://www.w3.org/2000/svg" xmlns:xlink="http://www.w3.org/1999/xlink" x="0px" y="0px" width="50px" height="50px"
	 viewBox="0 0 50 50" enable-background="new 0 0 50 50" xml:space="preserve">
<g id="svg2816" xmlns:svg="http://www.w3.org/2000/svg">
	<path id="path2832" fill="#DA2128" d="M2.376,16.132h11.885c1.166,0,2.043,0.366,2.389,2.02c0.384,1.838,0.226,3.118-1.846,3.263
		l-3.73,0.268c2.746,17.333,18.805,22.981,27.548,4.313c1.446-3.09,1.921-3.652,3.507-3.26c2.145,0.534,2.439,1.638,1.416,4.754
		c-7.559,23.014-32.964,25.318-37.95-5.414l-3.031,0.218C0.098,22.472,0,20.392,0,19.237C0,16.951,0.85,16.132,2.376,16.132
		L2.376,16.132"/>
	<path id="path2834" fill="#DA2128" d="M45.594,5C48.027,5,50,6.974,50,9.406c0,2.434-1.973,4.408-4.406,4.408
		s-4.406-1.974-4.406-4.408C41.188,6.974,43.16,5,45.594,5L45.594,5"/>
</g>
</svg>
