<?xml version="1.0" encoding="utf-8"?>
<!-- Generator: Adobe Illustrator 16.2.1, SVG Export Plug-In . SVG Version: 6.00 Build 0)  -->
<!DOCTYPE svg PUBLIC "-//W3C//DTD SVG 1.1//EN" "http://www.w3.org/Graphics/SVG/1.1/DTD/svg11.dtd">
<svg version="1.1"
	 id="svg6134" xmlns:svg="http://www.w3.org/2000/svg" xmlns:cc="http://creativecommons.org/ns#" xmlns:dc="http://purl.org/dc/elements/1.1/" xmlns:rdf="http://www.w3.org/1999/02/22-rdf-syntax-ns#"
	 xmlns="http://www.w3.org/2000/svg" xmlns:xlink="http://www.w3.org/1999/xlink" x="0px" y="0px" width="50px" height="50px"
	 viewBox="421.957 85.382 50 50" enable-background="new 421.957 85.382 50 50" xml:space="preserve">
<g id="g6037" transform="translate(85.694,312.136)">
	<path id="path6039" fill="#258ACF" d="M353.875-222.351c-0.438,0.616-0.789,1.366-1.169,2.074c1.252,0.161,2.85,0.295,4.276,0.582
		c8.085,1.646,11.229,7.761,18.061,10.138c1.004-3.3,1.932-7.982,2.803-11.436c0.239-0.949,0.429-1.558-0.056-2.251
		c-1.003-0.847-2.855-0.482-3.678-1.355c-0.478-0.509-0.068-1.061-0.637-1.252c-1.922-0.643-3.863,0.482-5.113-0.903
		c-0.76,0.62-2.406,0.287-3.656,0.367c-0.832,0.054-1.605,1.184-2.233-0.011c-1.629,0.226-2.409,2.067-4.083,2.067
		c-0.335,0-0.689-0.303-1.059-0.291c-1.307,0.03-1.642,2.201-2.781,2.63C354.101-221.953,354.231-222.528,353.875-222.351"/>
</g>
<g id="g6041" transform="translate(88.725,285.135)">
	<path id="path6043" fill="#2C59A6" d="M354.997-158.366c0,0,0.53-0.346,3.344-0.391c3.738-0.062,5.5,1.382,5.5,1.382
		c-0.181,0.096-0.881,0.161-2.302,0.26c-1.462,0.104-2.598,0.479-2.598,0.479c-1.858,0.767-1.329,2.439-1.329,2.439
		C356.041-156.384,354.997-158.366,354.997-158.366"/>
</g>
<path fill="#258ACF" d="M430.775,113.272c1.384,0.035,2.36,0.353,2.332,1.374c-0.037,1.19-1.35,1.249-1.531,2.003
	c-0.251,1.03,1.307,1.163,1.696,1.91c-0.088,0.686-1.287,0.904-1.089,2.018c0.395,0.433,0.84,0.318,1.145,0.605
	c1.022,0.977-0.521,2.251-0.649,3.15c-0.237,1.657,2.548,3.354,4.608,3.343c4.715-0.027,10.397-2.86,15.28,0.088
	c-1.805,0.398-6.184-0.227-6.353,2.573c-0.045,0.814,0.969,1.799,1.419,2.53c0.494,0.792,0.955,1.639,1.376,2.515h3.938
	c2.172-8.676,4.221-17.871,6.364-26.604c-5.396-2.352-9.325-5.946-15.707-7.784c-2.71-0.784-5.812-1.033-8.137-0.712
	c0.023,1.141-0.722,1.443-0.758,2.232c-0.046,0.965,1.544,1.492,2.337,2.052c1.021,0.712,1.58,1.489,1.737,2.446
	c-0.773-0.299-0.605-1.003-1.8-1.045c-0.323-0.012-0.882,0.314-1.493,0.364c-0.433,0.038-1.224-0.739-1.451-0.686
	c-0.756,0.172-1.622,2.546-2.063,3.246C431.089,110.32,429.104,112.239,430.775,113.272z"/>
</svg>
