<?xml version="1.0" encoding="utf-8"?>
<!-- Generator: Adobe Illustrator 16.2.1, SVG Export Plug-In . SVG Version: 6.00 Build 0)  -->
<!DOCTYPE svg PUBLIC "-//W3C//DTD SVG 1.1//EN" "http://www.w3.org/Graphics/SVG/1.1/DTD/svg11.dtd">
<svg version="1.1" id="svg2367" xmlns:svg="http://www.w3.org/2000/svg"
	 xmlns="http://www.w3.org/2000/svg" xmlns:xlink="http://www.w3.org/1999/xlink" x="0px" y="0px" width="50px" height="50px"
	 viewBox="0 0 50 50" enable-background="new 0 0 50 50" xml:space="preserve">
<g id="g11905" transform="translate(449.8,35.444)">
	<path id="path11907" fill="#1A428A" d="M-418.323-1.546c-8.581,0.629-20.458,2.52-28.99,2.055c0.902,1.825,2.024,3.541,3.352,5.115
		c0.745,0.871,1.547,1.704,2.415,2.478c4.633,4.164,10.595,6.454,16.786,6.454c6.23,0,12.187-2.25,16.771-6.344
		c1.898-1.689,3.435-3.508,4.653-5.496c0.826-1.353,1.506-2.78,2.05-4.312C-404.96-2.328-411.249-2.064-418.323-1.546"/>
</g>
<g id="g11909" transform="translate(437.54,53.378)">
	<path id="path11911" fill="#1A428A" d="M-426.316-49.107c-0.157-0.036-0.32-0.004-0.45,0.089c-0.456,0.31-0.911,0.652-1.349,1
		c-0.224,0.175-0.284,0.487-0.145,0.729l4.254,7.37l0.22,0.297l-0.01,0.013l-0.295-0.219l-7.375-4.259
		c-0.242-0.141-0.557-0.082-0.73,0.142c-0.347,0.438-0.682,0.895-0.996,1.348c-0.089,0.133-0.122,0.298-0.085,0.45
		c0.036,0.156,0.134,0.289,0.27,0.369l12.581,7.26l0.284,0.076c0.158,0,0.318-0.065,0.43-0.196c0.283-0.32,0.587-0.628,0.906-0.907
		c0.206-0.179,0.255-0.479,0.119-0.713l-7.259-12.575C-426.027-48.976-426.16-49.07-426.316-49.107"/>
</g>
<g id="g11913" transform="translate(458.43,49.168)">
	<path id="path11915" fill="#1A428A" d="M-412.696-37.942c0.033-0.152,0.004-0.314-0.085-0.447c-0.316-0.456-0.653-0.911-1.004-1.35
		c-0.173-0.224-0.484-0.283-0.729-0.141l-7.369,4.256l-0.296,0.217l-0.01-0.008l0.219-0.295l4.256-7.376
		c0.142-0.243,0.082-0.559-0.144-0.732c-0.437-0.345-0.892-0.683-1.348-0.998c-0.131-0.088-0.29-0.122-0.448-0.084
		c-0.154,0.034-0.287,0.13-0.369,0.27l-7.26,12.581l-0.076,0.282c0,0.161,0.067,0.319,0.196,0.431
		c0.323,0.28,0.631,0.586,0.908,0.905c0.178,0.207,0.479,0.257,0.715,0.122l12.573-7.262
		C-412.826-37.653-412.73-37.782-412.696-37.942"/>
</g>
<g id="g11917" transform="translate(452.58,54.325)">
	<path id="path11919" fill="#1A428A" d="M-416.51-51.618c-0.051-0.154-0.156-0.276-0.3-0.344c-0.502-0.24-1.021-0.462-1.545-0.668
		c-0.261-0.105-0.559,0-0.702,0.242l-4.254,7.37l-0.147,0.339l-0.017-0.006l0.044-0.365v-8.514c0-0.283-0.209-0.526-0.491-0.563
		c-0.553-0.083-1.113-0.144-1.662-0.188c-0.161-0.013-0.316,0.042-0.431,0.152c-0.122,0.105-0.186,0.257-0.186,0.416l0.002,14.524
		l0.076,0.287c0.078,0.135,0.217,0.241,0.382,0.274c0.422,0.083,0.84,0.194,1.24,0.332c0.26,0.086,0.544-0.021,0.68-0.257
		l7.26-12.575C-416.48-51.304-416.462-51.467-416.51-51.618"/>
</g>
<g id="g11921" transform="translate(460.92,41.772)">
	<path id="path11923" fill="#1A428A" d="M-411.073-18.326c0.11-0.12,0.161-0.279,0.152-0.434c-0.047-0.551-0.112-1.116-0.194-1.671
		c-0.038-0.28-0.278-0.487-0.562-0.487l-8.513-0.002l-0.362,0.042l-0.005-0.013l0.338-0.146l7.372-4.259
		c0.242-0.143,0.352-0.443,0.242-0.706c-0.207-0.519-0.433-1.036-0.671-1.536c-0.067-0.144-0.191-0.253-0.346-0.3
		c-0.149-0.046-0.314-0.025-0.449,0.051l-12.581,7.264l-0.207,0.208c-0.078,0.135-0.102,0.31-0.047,0.471
		c0.14,0.403,0.254,0.822,0.334,1.237c0.055,0.269,0.289,0.46,0.557,0.46h14.523C-411.333-18.145-411.181-18.212-411.073-18.326"/>
</g>
<g id="g11925" transform="translate(432.38,47.529)">
	<path id="path11927" fill="#1A428A" d="M-429.682-33.595c-0.151,0.048-0.277,0.158-0.345,0.302c-0.237,0.5-0.46,1.019-0.666,1.542
		c-0.107,0.261,0,0.559,0.242,0.702l7.37,4.254l0.336,0.148l-0.007,0.015l-0.36-0.042h-8.515c-0.283,0-0.524,0.207-0.564,0.489
		c-0.081,0.553-0.143,1.114-0.188,1.666c-0.009,0.158,0.043,0.316,0.15,0.43c0.107,0.116,0.26,0.186,0.418,0.186l14.524-0.004
		l0.285-0.076c0.138-0.08,0.241-0.217,0.276-0.384c0.079-0.421,0.19-0.837,0.328-1.237c0.089-0.26-0.019-0.544-0.252-0.682
		l-12.577-7.26C-429.365-33.623-429.529-33.642-429.682-33.595"/>
</g>
<g id="g11929" transform="translate(444.93,55.866)">
	<path id="path11931" fill="#1A428A" d="M-421.498-55.705c-0.116-0.105-0.274-0.16-0.434-0.149
		c-0.549,0.046-1.112,0.109-1.668,0.192c-0.279,0.044-0.486,0.28-0.486,0.563l-0.002,8.512l0.042,0.363l-0.014,0.004l-0.147-0.337
		l-4.255-7.374c-0.141-0.244-0.443-0.35-0.707-0.24c-0.519,0.206-1.036,0.428-1.534,0.668c-0.143,0.068-0.254,0.19-0.302,0.346
		c-0.048,0.15-0.027,0.312,0.052,0.452l7.262,12.58l0.21,0.208c0.14,0.078,0.307,0.101,0.468,0.046
		c0.407-0.137,0.824-0.253,1.241-0.333c0.268-0.053,0.46-0.289,0.46-0.561l-0.002-14.52C-421.315-55.448-421.38-55.6-421.498-55.705
		"/>
</g>
<g id="g11933" transform="translate(460.05,39.762)">
	<path id="path11935" fill="#EE5F2A" d="M-411.64-12.996c-5.241,0-9.259,1.276-19.672,3.487
		c-14.728,3.127-25.189,0.544-27.589,0.233c-0.357-0.044-0.592,0.14-0.471,0.538c0.259,1.199,1.146,3.765,1.813,4.929
		c8.533,0.465,20.409-1.426,28.992-2.055c7.076-0.519,13.363-0.782,17.039-0.05c0.595-1.674,1.033-3.459,1.32-5.388
		C-410.038-12.406-410.173-12.996-411.64-12.996"/>
</g>
<g id="g11937" transform="translate(431.06,38.679)">
	<path id="path11939" fill="#EE5F2A" d="M-430.542-10.127c0.493,0.196,7.303,2.515,17.875,2.667c2.999,0.044,6.829-0.403,9.115-0.9
		c-1.203,0.188-3.755,0.573-6.921,0.561c-6.089-0.021-15.33-2.158-19.715-4.113c-0.181-0.082-0.394-0.051-0.555,0.065
		c-0.162,0.118-0.252,0.31-0.233,0.511c0.023,0.282,0.051,0.562,0.082,0.844C-430.869-10.357-430.828-10.239-430.542-10.127"/>
</g>
</svg>
