<?xml version="1.0" encoding="utf-8"?>
<!-- Generator: Adobe Illustrator 16.2.1, SVG Export Plug-In . SVG Version: 6.00 Build 0)  -->
<!DOCTYPE svg PUBLIC "-//W3C//DTD SVG 1.1//EN" "http://www.w3.org/Graphics/SVG/1.1/DTD/svg11.dtd">
<svg version="1.1"
	 id="svg6107" xmlns:dc="http://purl.org/dc/elements/1.1/" xmlns:cc="http://creativecommons.org/ns#" xmlns:rdf="http://www.w3.org/1999/02/22-rdf-syntax-ns#" xmlns:svg="http://www.w3.org/2000/svg"
	 xmlns="http://www.w3.org/2000/svg" xmlns:xlink="http://www.w3.org/1999/xlink" x="0px" y="0px" width="50px" height="50px"
	 viewBox="308.374 256.445 50 50" enable-background="new 308.374 256.445 50 50" xml:space="preserve">
<g id="layer1" transform="translate(-11.612634,-237.14995)">
	<g id="g6276" transform="matrix(8.8992169,0,0,8.8992169,-698.41941,-903.2356)">
		<g id="g3075" transform="matrix(1.25,0,0,-1.25,158.32631,169.40126)">
			<path id="path3077" fill="#4FBE37" d="M-30.706,6.701c-0.015,0.033-0.084,0.128-0.227,0.265c-1.139,1.082-2.748,1.77-3.237,1.968
				c-0.077,0.031-0.127,0.05-0.143,0.057c-0.003,0.001-0.002,0.003,0,0.003c0.466-0.022,1.263-0.138,1.686-0.204
				c0.004,0.001,0.007,0.002,0.007,0.003c0.001,0.002-0.001,0.004-0.004,0.006c-0.169,0.03-0.423,0.074-0.691,0.116
				c-0.042,0.007-0.086,0.014-0.129,0.02c-0.51,0.078-1.023,0.111-1.093,0.116c-0.003,0-0.002-0.003,0-0.003
				c0.049-0.022,0.097-0.044,0.145-0.066c2.401-1.051,3.081-1.855,3.464-2.186C-30.835,6.716-30.686,6.657-30.706,6.701"/>
		</g>
		<g id="g3079" transform="matrix(1.25,0,0,-1.25,155.79961,163.35751)">
			<path id="path3081" fill="#00674C" d="M-28.837,2.231c-0.048,0.055-0.196,0.183-0.262,0.237
				c-1.223,0.975-2.637,1.503-3.046,1.656c-0.003,0.001-0.002,0.002,0,0.002c0.362-0.024,0.995-0.104,1.412-0.16
				c0.034-0.005,0.105-0.014,0.127-0.011c-0.423,0.066-1.219,0.182-1.686,0.204c-0.002,0-0.003-0.002,0-0.003
				c0.016-0.007,0.066-0.026,0.143-0.057c0.802-0.301,1.986-0.873,2.981-1.671c0.046-0.036,0.118-0.102,0.178-0.147
				C-28.878,2.195-28.795,2.182-28.837,2.231"/>
		</g>
		<g id="g3083" transform="matrix(1.25,0,0,-1.25,159.80221,176.75476)">
			<path id="path3085" fill="#B5DC17" d="M-31.798,12.14c-0.019,0.068-0.135,0.218-0.208,0.307c-0.502,0.613-1.53,1.48-3.57,2.419
				c-0.048,0.022-0.096,0.044-0.145,0.067c-0.001,0-0.002,0.003,0.001,0.003c0.07-0.005,0.583-0.039,1.093-0.116
				c0.314-0.047,0.625-0.101,0.821-0.136c-0.014,0.009-0.059,0.019-0.091,0.027c-0.012,0.002-0.025,0.005-0.037,0.008
				c-0.269,0.055-0.613,0.124-0.695,0.138c-0.52,0.087-1.088,0.18-1.632,0.198c-0.032,0.001-0.041-0.006-0.012-0.016
				c0.822-0.273,2.583-1.16,3.93-2.506C-31.953,12.138-31.783,12.089-31.798,12.14"/>
		</g>
	</g>
</g>
</svg>
