<?xml version="1.0" encoding="utf-8"?>
<!-- Generator: Adobe Illustrator 16.2.1, SVG Export Plug-In . SVG Version: 6.00 Build 0)  -->
<!DOCTYPE svg PUBLIC "-//W3C//DTD SVG 1.1//EN" "http://www.w3.org/Graphics/SVG/1.1/DTD/svg11.dtd">
<svg version="1.1" id="svg11720" xmlns:svg="http://www.w3.org/2000/svg"
	 xmlns="http://www.w3.org/2000/svg" xmlns:xlink="http://www.w3.org/1999/xlink" x="0px" y="0px" width="50px" height="50px"
	 viewBox="334.5 399.5 50 50" enable-background="new 334.5 399.5 50 50" xml:space="preserve">
<path id="path6994" fill="#EEF0F0" d="M334.5,428.064h7.145v-7.142H334.5V428.064z"/>
<path id="path6996" fill="#D7A6CC" d="M341.646,428.064h7.141v-7.142h-7.141V428.064z"/>
<path id="path6998" fill="#B3D4F0" d="M348.787,420.923h7.141v-7.141h-7.141V420.923z"/>
<path id="path7000" fill="#9C3391" d="M348.787,428.064h7.141v-7.142h-7.141V428.064z"/>
<path id="path7002" fill="#D7A6CC" d="M348.787,435.205h7.141v-7.141h-7.141V435.205z"/>
<path id="path7004" fill="#EEF0F0" d="M355.933,406.641h7.139V399.5h-7.139V406.641z"/>
<path id="path7006" fill="#B3D4F0" d="M355.933,413.782h7.139v-7.144h-7.139V413.782z"/>
<path id="path7008" fill="#6BABDE" d="M355.933,420.923h7.139v-7.141h-7.139V420.923z"/>
<path id="path7010" d="M355.933,428.064h7.139v-7.142h-7.139V428.064z"/>
<path id="path7012" fill="#9C3391" d="M355.933,435.205h7.139v-7.141h-7.139V435.205z"/>
<path id="path7014" fill="#D7A6CC" d="M355.933,442.347h7.139v-7.139h-7.139V442.347z"/>
<path id="path7016" fill="#EEF0F0" d="M355.933,449.487h7.139v-7.139h-7.139V449.487z"/>
<path id="path7018" fill="#B3D4F0" d="M363.074,420.923h7.144v-7.141h-7.144V420.923z"/>
<path id="path7020" fill="#8CC540" d="M363.074,428.064h7.144v-7.142h-7.144V428.064z"/>
<path id="path7022" fill="#D9E8A1" d="M363.074,435.205h7.144v-7.141h-7.144V435.205z"/>
<path id="path7024" fill="#D9E8A1" d="M370.218,428.064h7.139v-7.142h-7.139V428.064z"/>
<path id="path7026" fill="#EEF0F0" d="M377.359,428.064h7.141v-7.142h-7.141V428.064z"/>
</svg>
