<?xml version="1.0" encoding="utf-8"?>
<!-- Generator: Adobe Illustrator 16.2.1, SVG Export Plug-In . SVG Version: 6.00 Build 0)  -->
<!DOCTYPE svg PUBLIC "-//W3C//DTD SVG 1.1//EN" "http://www.w3.org/Graphics/SVG/1.1/DTD/svg11.dtd">
<svg version="1.1" id="svg2367" xmlns:svg="http://www.w3.org/2000/svg"
	 xmlns="http://www.w3.org/2000/svg" xmlns:xlink="http://www.w3.org/1999/xlink" x="0px" y="0px" width="50px" height="50px"
	 viewBox="0 0 50 50" enable-background="new 0 0 50 50" xml:space="preserve">
<path id="path5078" fill="#0E55A5" d="M18.309,24.474c-0.367-0.664-0.597-1.41-0.658-2.205c1.494-0.037,2.965-0.012,4.404,0.045
	L18.309,24.474L18.309,24.474z M20.726,16.957c0.968-0.477,3.826-1.565,10.915-2.491c0,0,9.408-1.182,17.079-4.614L50,6
	c-7.183,3.73-13.872,4.696-18.359,5.527c-4.19,0.762-8.536,1.178-12.04,2.748c-2.157,0.991-3.822,2.87-4.521,5.169
	c-1.641,0.098-3.24,0.261-4.759,0.514C4.506,20.663,0,25.615,0,31.619c0,3.592,1.612,6.808,4.152,8.96l0.016,0.041l-0.006-0.032l0,0
	l-0.074-0.335c-0.46-2.413,0.718-4.003,0.718-4.003c1.353-2.132,3.559-3.126,6.942-3.126c7.924,0,16.395,3.546,24.58,6.975
	l1.969,0.831l0.958-2.764c-8.862-3.688-18.382-7.953-27.507-7.953c-3.067,0-6.331,0.718-8.609,3.404
	c-0.151-0.645-0.23-1.312-0.23-1.998c0-4.524,3.416-8.262,7.8-8.776c1.347-0.204,2.694-0.351,4.036-0.444
	c0.146,2.315,1.243,4.378,2.902,5.8l0.006-0.004l0.008,0.012l13.956-8.054c-3.84-0.44-8.64-0.852-13.36-0.811
	c0.546-1.04,1.412-1.875,2.472-2.385"/>
</svg>
