<?xml version="1.0" encoding="utf-8"?>
<!-- Generator: Adobe Illustrator 16.2.1, SVG Export Plug-In . SVG Version: 6.00 Build 0)  -->
<!DOCTYPE svg PUBLIC "-//W3C//DTD SVG 1.1//EN" "http://www.w3.org/Graphics/SVG/1.1/DTD/svg11.dtd">
<svg version="1.1" id="svg2367" xmlns:svg="http://www.w3.org/2000/svg"
	 xmlns="http://www.w3.org/2000/svg" xmlns:xlink="http://www.w3.org/1999/xlink" x="0px" y="0px" width="50px" height="50px"
	 viewBox="0 0 50 50" enable-background="new 0 0 50 50" xml:space="preserve">
<path fill="#731472" d="M24.949,12.091L14.3,31.056l10.648,18.886c0.032,0.078,0.074,0.078,0.104,0l10.661-18.886L25.052,12.091
	C25.023,12.052,24.98,12.052,24.949,12.091"/>
<path fill="#731472" d="M6.844,4.685c0-1.908-1.529-3.427-3.431-3.427C1.539,1.258,0,2.776,0,4.685c0,1.892,1.539,3.422,3.413,3.422
	C5.314,8.106,6.844,6.576,6.844,4.685"/>
<path fill="#731472" d="M25.011,8.214c1.877,0,3.413-1.533,3.413-3.422c0-1.911-1.536-3.43-3.413-3.43
	c-1.899,0-3.442,1.519-3.442,3.43C21.568,6.681,23.111,8.214,25.011,8.214"/>
<path fill="#731472" d="M46.58,1.312c-1.893,0-3.432,1.521-3.432,3.432c0,1.891,1.539,3.417,3.432,3.417
	c1.887,0,3.42-1.526,3.42-3.417C50,2.832,48.467,1.312,46.58,1.312"/>
<path fill="#731472" d="M47.241,10.512L35.715,31.01v18.627c0,0.09,0.055,0.139,0.13,0.139H47.18c0.062,0,0.112-0.049,0.112-0.139
	v-39.11C47.292,10.454,47.261,10.446,47.241,10.512"/>
<path fill="#731472" d="M2.689,10.512v39.125c0,0.076,0.063,0.122,0.143,0.122H14.16c0.059,0,0.138-0.046,0.138-0.122V30.994
	L2.753,10.495C2.72,10.437,2.689,10.439,2.689,10.512"/>
</svg>
