<?xml version="1.0" encoding="utf-8"?>
<!-- Generator: Adobe Illustrator 16.2.1, SVG Export Plug-In . SVG Version: 6.00 Build 0)  -->
<!DOCTYPE svg PUBLIC "-//W3C//DTD SVG 1.1//EN" "http://www.w3.org/Graphics/SVG/1.1/DTD/svg11.dtd">
<svg version="1.1" id="Layer_1" xmlns="http://www.w3.org/2000/svg" xmlns:xlink="http://www.w3.org/1999/xlink" x="0px" y="0px"
	 width="50px" height="50px" viewBox="150.5 90.5 50 50" enable-background="new 150.5 90.5 50 50" xml:space="preserve">
<g>
	<g>
		<path fill="#D12149" d="M155.275,115.441l0.571-1.2h-4.936c0,0,0.117,0.245,0.292,0.613c0.116,0.267,0.167,0.438,0.098,0.853
			c-0.002,0.012-0.732,4.16-0.79,4.475c-0.059,0.329,0.14,0.483,0.398,0.483c0.247,0,4.154,0,4.154,0l-0.271-1.203h-2.663
			l0.258-1.466h2.457l0.212-1.21h-2.455l0.236-1.346L155.275,115.441L155.275,115.441z"/>
		<path fill="#D12149" d="M194.578,115.441l0.572-1.2h-4.702c0,0,0.116,0.245,0.292,0.613c0.115,0.267,0.167,0.438,0.098,0.853
			c-0.002,0.012-0.734,4.16-0.791,4.475c-0.059,0.329,0.141,0.483,0.398,0.483c0.247,0,3.92,0,3.92,0l-0.271-1.203h-2.429
			l0.257-1.466h2.223l0.213-1.21h-2.222l0.237-1.346L194.578,115.441L194.578,115.441z"/>
		<path fill="#D12149" d="M164.172,115.864c0.109-0.347,0.487-0.423,1.04-0.423h0.998l0.437-1.2c0,0-1.55,0-1.707,0
			c-0.619,0-2.032-0.059-2.336,1.319c-0.42,1.917,2.068,2.472,1.943,3.345c-0.075,0.512-0.563,0.558-1.238,0.558
			c-0.376,0-1.49,0-1.49,0l0.28,1.203h1.688c0.874,0,2.094-0.16,2.381-1.247C166.685,117.463,163.893,116.825,164.172,115.864
			L164.172,115.864z"/>
		<path fill="#D12149" d="M182.801,116.137c0.082-1.052-0.575-1.896-2.222-1.896h-2.409l0.29,0.613
			c0.116,0.267,0.167,0.438,0.099,0.852l-0.874,4.96h1.446l0.424-2.408c0,0,0.106-0.015,0.403,0.001
			c0.398,0.023,0.463,0.304,1.265,2.407h1.583c-0.851-2.125-1.004-2.508-1.27-2.772
			C182.183,117.634,182.734,117.006,182.801,116.137L182.801,116.137z M181.349,116.261c-0.092,0.526-0.551,0.918-1.123,0.918
			h-0.481l0.306-1.737h0.556C181.143,115.441,181.431,115.793,181.349,116.261L181.349,116.261z"/>
		<polygon fill="#D12149" points="166.935,114.241 167.372,115.441 168.869,115.441 167.947,120.666 169.458,120.666 
			170.379,115.441 172.058,115.441 172.493,114.241 		"/>
		<polygon fill="#D12149" points="195.277,114.241 195.713,115.441 196.975,115.441 196.054,120.666 197.565,120.666 
			198.485,115.441 200.063,115.441 200.5,114.241 		"/>
		<path fill="#D12149" d="M187.351,112.921c-0.053-0.004-0.146-0.012-0.216-0.019c-1.831-0.192-2.298-0.333-2.428-2.67
			c0,0-0.009-0.121-0.108-0.121c-0.101,0-0.109,0.121-0.109,0.121c-0.129,2.337-0.597,2.478-2.428,2.67
			c-0.069,0.007-0.162,0.015-0.215,0.019c-0.057,0.005-0.119,0.028-0.119,0.07c0,0.046,0.058,0.069,0.119,0.077
			c2.02,0.25,2.472,0.423,2.648,3.337c0.002,0.064,0.032,0.13,0.104,0.13c0.071,0,0.101-0.065,0.104-0.13
			c0.175-2.914,0.627-3.087,2.647-3.337c0.06-0.008,0.12-0.031,0.12-0.077C187.471,112.949,187.408,112.926,187.351,112.921
			L187.351,112.921z"/>
		<path fill="#D12149" d="M187.482,114.241l0.291,0.613c0.116,0.267,0.167,0.438,0.099,0.853l-0.43,2.452
			c-0.417,2.387-1.638,2.388-2.393,2.388c-0.14,0.23,1.446,0.586,2.475,0.097c0.8-0.379,1.196-1.06,1.396-2.222
			c0.055-0.317,0.734-4.182,0.734-4.182L187.482,114.241L187.482,114.241z"/>
		<path fill="#D12149" d="M175.768,114.724c-0.066-0.277-0.281-0.482-0.595-0.482c-0.284,0-1.856,0-1.856,0l0.303,0.642
			c0.127,0.275,0.111,0.461-0.058,0.779l-2.64,5.004h1.526l0.776-1.53h2.137l0.291,1.53h1.5
			C177.15,120.666,175.833,115.003,175.768,114.724L175.768,114.724z M173.827,117.945l0.953-1.881l0.356,1.881H173.827
			L173.827,117.945z"/>
		<path fill="#D12149" d="M160.184,114.724c-0.066-0.277-0.28-0.482-0.595-0.482c-0.284,0-1.856,0-1.856,0l0.304,0.642
			c0.126,0.275,0.111,0.461-0.058,0.779l-2.641,5.004h1.526l0.776-1.53h2.137l0.29,1.53h1.499
			C161.565,120.666,160.25,115.003,160.184,114.724L160.184,114.724z M158.243,117.945l0.953-1.881l0.356,1.881H158.243
			L158.243,117.945z"/>
	</g>
</g>
</svg>
