<?xml version="1.0" encoding="utf-8"?>
<!-- Generator: Adobe Illustrator 16.2.1, SVG Export Plug-In . SVG Version: 6.00 Build 0)  -->
<!DOCTYPE svg PUBLIC "-//W3C//DTD SVG 1.1//EN" "http://www.w3.org/Graphics/SVG/1.1/DTD/svg11.dtd">
<svg version="1.1" id="svg2551" xmlns:svg="http://www.w3.org/2000/svg"
	 xmlns="http://www.w3.org/2000/svg" xmlns:xlink="http://www.w3.org/1999/xlink" x="0px" y="0px" width="50px" height="50px"
	 viewBox="453.847 304.536 50 50" enable-background="new 453.847 304.536 50 50" xml:space="preserve">
<g id="layer1" transform="translate(2702.8715,-1385.5568)">
	<g id="g2545" transform="matrix(7.4380626,0,0,7.4380626,-2667.4384,1420.9947)">
		<path id="path5" fill="#0E417B" d="M62.04,38.878c-0.312-0.077-0.676,0.098-0.947,0.259c-0.404,0.239-0.9,0.738-1.226,1.107
			c-0.123,0.139-0.813,0.812-1.001,0.791c-0.17-0.019-0.071-0.28-0.09-0.419c-0.011-0.077-0.032-0.197-0.102-0.226
			c-0.125-0.051-0.26,0.207-0.313,0.3c-0.084,0.145-0.167,0.324-0.332,0.366c-0.186,0.047-0.325-0.237-0.398-0.395
			c-0.064-0.141-0.437-1.77-1.216-1.655c-0.032,0.005-0.161,0.028-0.161,0.069c0,0.065,0,0.159,0,0.224c0,0.125,0,0.249,0,0.374
			c0.445-0.126,0.709,0.206,0.941,0.706c0.134,0.289,0.237,0.619,0.327,0.93c0.031,0.105,0.034,0.26,0.103,0.34
			c0.097,0.113,0.218,0.056,0.302-0.048c0.138-0.171,0.232-0.441,0.433-0.525c0.208-0.088,0.171,0.322,0.187,0.465
			c0.01,0.082,0.041,0.193,0.127,0.178c0.124-0.02,0.214-0.18,0.296-0.276c0.098-0.116,0.2-0.229,0.301-0.341
			c0.429-0.469,1.128-1.092,1.634-1.436c0.201-0.137,0.435-0.282,0.671-0.282c0.042,0,0.085,0.006,0.125,0.02
			c0.047,0.017,0.04,0.012,0.067-0.038c0.074-0.132,0.147-0.264,0.221-0.397C62.006,38.939,62.024,38.909,62.04,38.878"/>
		<path id="path7" fill="#45A6D9" d="M62.558,38.11c-0.34-0.073-0.736,0.095-1.032,0.251c-0.439,0.23-0.979,0.712-1.334,1.068
			c-0.135,0.134-0.258,0.279-0.396,0.409c-0.14,0.131-0.371,0.374-0.576,0.355c-0.186-0.018-0.118-0.313-0.139-0.447
			c-0.011-0.074-0.034-0.19-0.112-0.218c-0.136-0.049-0.282,0.2-0.34,0.29c-0.092,0.14-0.142,0.355-0.322,0.396
			c-0.202,0.046-0.354-0.229-0.433-0.381c-0.071-0.136-0.258-1.045-0.57-1.318c-0.247-0.217-0.557-0.319-0.874-0.251
			c-0.034,0.007-0.175,0.028-0.175,0.067c0,0.063,0,0.125,0,0.188c0,0.12,0,0.241,0,0.361c0.484-0.121,0.891,0.199,1.144,0.681
			c0.146,0.278,0.258,0.597,0.356,0.897c0.034,0.101,0.038,0.251,0.112,0.328c0.105,0.109,0.237,0.054,0.329-0.047
			c0.15-0.164,0.253-0.425,0.471-0.507c0.227-0.085,0.186,0.311,0.204,0.449c0.011,0.079,0.044,0.186,0.138,0.172
			c0.135-0.019,0.233-0.174,0.322-0.267c0.107-0.112,0.217-0.222,0.328-0.329c0.468-0.453,1.108-1.054,1.66-1.387
			c0.218-0.132,0.474-0.272,0.731-0.272c0.046,0,0.092,0.006,0.137,0.02c0.051,0.016,0.043,0.011,0.074-0.037
			c0.081-0.128,0.16-0.255,0.242-0.383C62.521,38.169,62.539,38.139,62.558,38.11"/>
		<path id="path9" fill="#0E417B" d="M62.975,37.375c-0.362-0.074-0.785,0.095-1.1,0.25c-0.469,0.23-0.887,0.558-1.267,0.913
			c-0.143,0.134-0.275,0.28-0.422,0.409c-0.149,0.131-0.394,0.374-0.614,0.355c-0.198-0.018-0.126-0.313-0.148-0.447
			c-0.012-0.074-0.036-0.19-0.119-0.218c-0.145-0.049-0.301,0.2-0.363,0.29c-0.097,0.14-0.151,0.355-0.343,0.396
			c-0.216,0.046-0.378-0.228-0.462-0.381c-0.075-0.136-0.432-0.891-0.764-1.164c-0.263-0.217-0.594-0.318-0.932-0.251
			c-0.036,0.007-0.187,0.028-0.187,0.067c0,0.062,0,0.125,0,0.188c0,0.121,0,0.241,0,0.361c0.517-0.121,1.107,0.045,1.377,0.527
			c0.156,0.278,0.276,0.598,0.38,0.897c0.035,0.101,0.04,0.251,0.12,0.328c0.112,0.11,0.253,0.054,0.351-0.047
			c0.161-0.164,0.27-0.426,0.503-0.507c0.242-0.084,0.198,0.311,0.218,0.449c0.011,0.079,0.047,0.186,0.147,0.172
			c0.144-0.02,0.249-0.174,0.344-0.267c0.114-0.112,0.231-0.221,0.35-0.329c0.498-0.453,1.026-0.899,1.613-1.232
			c0.234-0.132,0.505-0.272,0.781-0.272c0.049,0,0.098,0.006,0.146,0.019c0.055,0.016,0.046,0.011,0.078-0.037
			c0.085-0.128,0.171-0.256,0.257-0.383C62.936,37.434,62.956,37.405,62.975,37.375"/>
	</g>
</g>
</svg>
