<?xml version="1.0" encoding="utf-8"?>
<!-- Generator: Adobe Illustrator 16.2.1, SVG Export Plug-In . SVG Version: 6.00 Build 0)  -->
<!DOCTYPE svg PUBLIC "-//W3C//DTD SVG 1.1//EN" "http://www.w3.org/Graphics/SVG/1.1/DTD/svg11.dtd">
<svg version="1.1" id="Layer_1" xmlns="http://www.w3.org/2000/svg" xmlns:xlink="http://www.w3.org/1999/xlink" x="0px" y="0px"
	 width="50px" height="50px" viewBox="31 47.5 50 50" enable-background="new 31 47.5 50 50" xml:space="preserve">
<metadata><?xpacket begin="﻿" id="W5M0MpCehiHzreSzNTczkc9d"?>
<x:xmpmeta xmlns:x="adobe:ns:meta/" x:xmptk="Adobe XMP Core 5.3-c011 66.145661, 2012/02/06-14:56:27        ">
   <rdf:RDF xmlns:rdf="http://www.w3.org/1999/02/22-rdf-syntax-ns#">
      <rdf:Description rdf:about=""
            xmlns:dc="http://purl.org/dc/elements/1.1/">
         <dc:format>image/svg+xml</dc:format>
      </rdf:Description>
      <rdf:Description rdf:about=""
            xmlns:xmp="http://ns.adobe.com/xap/1.0/"
            xmlns:xmpGImg="http://ns.adobe.com/xap/1.0/g/img/">
         <xmp:CreatorTool>Adobe Illustrator CS6 (Macintosh)</xmp:CreatorTool>
         <xmp:CreateDate>2014-03-31T14:23:57+02:00</xmp:CreateDate>
         <xmp:ModifyDate>2014-03-31T14:23:57+02:00</xmp:ModifyDate>
         <xmp:MetadataDate>2014-03-31T14:23:57+02:00</xmp:MetadataDate>
         <xmp:Thumbnails>
            <rdf:Alt>
               <rdf:li rdf:parseType="Resource">
                  <xmpGImg:width>256</xmpGImg:width>
                  <xmpGImg:height>84</xmpGImg:height>
                  <xmpGImg:format>JPEG</xmpGImg:format>
                  <xmpGImg:image>/9j/4AAQSkZJRgABAgEASABIAAD/7QAsUGhvdG9zaG9wIDMuMAA4QklNA+0AAAAAABAASAAAAAEA&#xA;AQBIAAAAAQAB/+4ADkFkb2JlAGTAAAAAAf/bAIQABgQEBAUEBgUFBgkGBQYJCwgGBggLDAoKCwoK&#xA;DBAMDAwMDAwQDA4PEA8ODBMTFBQTExwbGxscHx8fHx8fHx8fHwEHBwcNDA0YEBAYGhURFRofHx8f&#xA;Hx8fHx8fHx8fHx8fHx8fHx8fHx8fHx8fHx8fHx8fHx8fHx8fHx8fHx8fHx8f/8AAEQgAVAEAAwER&#xA;AAIRAQMRAf/EAaIAAAAHAQEBAQEAAAAAAAAAAAQFAwIGAQAHCAkKCwEAAgIDAQEBAQEAAAAAAAAA&#xA;AQACAwQFBgcICQoLEAACAQMDAgQCBgcDBAIGAnMBAgMRBAAFIRIxQVEGE2EicYEUMpGhBxWxQiPB&#xA;UtHhMxZi8CRygvElQzRTkqKyY3PCNUQnk6OzNhdUZHTD0uIIJoMJChgZhJRFRqS0VtNVKBry4/PE&#xA;1OT0ZXWFlaW1xdXl9WZ2hpamtsbW5vY3R1dnd4eXp7fH1+f3OEhYaHiImKi4yNjo+Ck5SVlpeYmZ&#xA;qbnJ2en5KjpKWmp6ipqqusra6voRAAICAQIDBQUEBQYECAMDbQEAAhEDBCESMUEFURNhIgZxgZEy&#xA;obHwFMHR4SNCFVJicvEzJDRDghaSUyWiY7LCB3PSNeJEgxdUkwgJChgZJjZFGidkdFU38qOzwygp&#xA;0+PzhJSktMTU5PRldYWVpbXF1eX1RlZmdoaWprbG1ub2R1dnd4eXp7fH1+f3OEhYaHiImKi4yNjo&#xA;+DlJWWl5iZmpucnZ6fkqOkpaanqKmqq6ytrq+v/aAAwDAQACEQMRAD8A9U4q7FXYq7FXYq7FXYq7&#xA;FXYq7FXYq7FXYq7FXYq8S873+o3PmO9jvHbjbytHBEfsrGD8BA/yloc4ztHLOWaQl0O3ue67MxQj&#xA;giY9Rv7+qWWOsarYEGzu5YKfso7BT81rQ5jY8+SH0yIcrLp8eT6ogso0v809ctuK30cd7GOrU9OT&#xA;71HH/hc2eHtrLH6gJfYXVZ+wsUvoJifmPx8Wa6N5/wDLup8U9f6pcH/dVxRKn2f7J++ubjT9qYcm&#xA;18J83R6nsnPi3riHl+LZGCCKjpmxdY7FXYq7FXYq7FXYq7FXYq7FXYq7FXYq7FXYq7FXYq7FXYqo&#xA;3t9ZWNs91e3EdrbRCsk8zrGij3ZiAMIiSaCDIAWXmHmX/nI7yFpTvDp3razcLUVt14Q1HYyyUr81&#xA;Vhmdj7PyS57ODk7Qxx5bvPNU/wCcpPNkzkaZpVlZxnp6xkuHA/1g0K/8LmXHsyA5klxJdpzPIAJb&#xA;Z/8AOSn5iw3MclwLO6hU/vIGh4ch3AZGBB8Dlh7OxkdWA7RyX0fSHkzzVZeavLVjrtmhjiu0JeFj&#xA;UxyISkiE7V4spFab9c02bEccjEu4w5ROIkE6yptdirsVdiqUa35V0TWqNewfvgKLcRnhIB8x1+mu&#xA;Ymp0WLN9Q37+rmaXX5cH0Hbu6MM1T8pZlq+l3gcdobgcT/waih/4EZp83YZ/gl83d4PaAcskfiP1&#xA;ftYdqvl3WtKYi+tHiStBLTlGfk61XNTn0mTF9Qr7ndYNZiy/RIH7/kl2Yzkp3onnHXtHIW2nMluP&#xA;+Paarx09hWq/7EjM3Ta/Li+k7dx5ODquzsOb6hR7xzeiaB+Y+jalxiuz9QujtSQ1jY/5L7U/2VM6&#xA;DS9rY8m0vTL7Pm83q+xsuLePrj9vyZaCCKjpm1dO7FXYq7FXYq7FXYq7FXYq7FXYq7FXYq7FXYq4&#xA;kAEk0A3JOKvH/wAxP+ch9C0NpdP8uKmr6mtVe5r/AKJE3+sprKR4Lt/lds2On7PlLeWw+11+o18Y&#xA;7R3P2PnrzT5180eabv6zrmoSXZUkxQk8YY6/yRLRF+dK+ObfFhjAVEOoy5pTNyKR5a1JjpvlvzFq&#xA;iF9M0u8vkHVraCWYCnuitkJZIx5kBnHHKXIEq+l+T/NOq34sLDSrqe6LcTGInHH3ckAIPdiMjLNC&#xA;IskJjinI0AX2H+W3lKXyn5M0/Q5pRNcwK73Mi/Z9WVzIwWv7KluIPfrnPajL4kzJ6HT4vDgIq+ue&#xA;fvJehO0eq6zaWsy/agMgaUU8Y05P+GRhgnLkCynnhHmQkkX54flXJP6K6/GH8WhuETf/AC2jC/jl&#xA;p0WX+a1DW4v5zMNN1XTNUtVu9Nu4b21f7M9vIsiE+HJSRXMeUTE0RTkRkJCwbRWRZOxV2KtMqspV&#xA;gGVhQqdwRgItINMW1v8ALnQNRDSW6fULk9HhA4E/5UfT/gaZrNR2Tiybj0ny/U7XS9s5se0vXHz5&#xA;/P8Atee695I13RgZZIvrFoP+PmGrKB/lD7S/Tt75oNV2dlw7kXHvD0mk7UxZtgal3Fj+YDsGQeXf&#xA;O+s6KVjR/rNkOtrKSQB/kN1T9Xtmw0naOTDtzj3H8bOu1nZmLPufTLvH6e96l5e83aPriUtpPTuQ&#xA;KvaybOPcdmHyzptLrseYek+rueU1nZ+XAfULj39E6zMcFQvb+zsbdri8mSCFeruaD5DxPtkMmWMB&#xA;cjQbMWKWQ8MRZYVqv5r2ETGPTLVrkj/d0p9NPmFoWP00zTZ+24DaAv7HeafsCZ3yHh8hv+PtST/l&#xA;a/mH1OX1e14fycJOlfHn1zC/lvNfKP2/rc7+QMNc5fZ+pnHlHzbB5htpSIvQurcqJoq8hRq0ZTts&#xA;aH5ZutDrhnidqkHRdodnnTyG9xPJP8z3XOxV2KuxV2KuxV2KoDXNd0nQtLn1TVrlLWytxWSVz37K&#xA;o6sx7AbnJwgZGhzYTmIizyfLn5o/nhrfmySXTtML6d5eqV9EGk1wPGZh2/yBt41zeabRRx7neTpN&#xA;TrZZNhtF5hmc4L0byH+RnnDzUkd5Kg0nSH3F5cqebr4xQ7M3sTxU+OYWfWwx7cy5mDRTyb8g968p&#xA;/kZ+X/l5EdrEarerQm6vwJd/8mKnpLv0+Gvvmqy63JPrQ8na4tFjh0s+b0CONI0WONQiKKKqigAH&#xA;YAZiOWg9a1rTNE0u41TU51trG1TnNM3YdAABuSSaADqclCBkaHNjOYiLPJ8t/mL+fPmfzLNLaaRL&#xA;JpGibqsUTcbiVfGWRdxX+VTTxrm90+hjDc7ydHqNdKew2i8vJJJJNSdyTma4LsKsi8jeeNa8n65D&#xA;qWnSt6XJReWnIiOeIHdHHToTxNNjvlOfDHJGi3YM0scrD7Y0++t7+wtr62bnbXcSTwP4pIoZT9xz&#xA;mZRINF6WMgRYV8CXYq7FXYq7FWIeZfy50zUg1xp/GyvTvRR+6c/5Sj7PzX7jmp1nZMMm8PTL7Hc6&#xA;LtnJi2n6o/a8v1bRtS0m6NtfwmKT9kndWHirdCM5rPp54pcMhT1Wn1MM0eKBtCRSyxSLJE7RyIao&#xA;6khgR3BGUiRBsN0ogijyZxpn5qahb6e8N5bi6u1FILivEH/jIAN6e3X8c3eHtqcYVIcUuh/W6LP2&#xA;DCU7ieGPUfqYnq+t6lq9ybi/mMr/ALC9EQeCr0GarPqJ5ZXI27fT6bHhjwwFIJVZmCqCzMaADckn&#xA;KQLbyaZbo35aa7fqst0VsIG3/eAtLT/jGKU/2RGbXT9j5Z7y9I+35On1PbeHHtH1ny5fN6L5a8ra&#xA;foFvJHbFpJZqGaZ6VbjWgAGwAqc6DR6KGAER5nmXmtbr56iQMtgOQTnMxwnYq7FXYqxn8xvOcXk7&#xA;ynd620QnmjKxWsBNA80hooJ8Bux9hl+nw+JMRadRm8OBk+Y7v89/zTuLhphrRgBPwwwwwKiitaAF&#xA;CT9JJzdjQ4h0dIddlPV7X+X/AOdVnd/l5c6/5qmSG702ZracxhQ1y3EPH6UQp8bBqEDaoJ2HTWZ9&#xA;GRk4YdXZYNYDj4p9HgX5i/mTrvnfVTc3rGHT4WP1DT0P7uJT3PTk5H2mP0UG2bbT6eOIUObqtRqJ&#xA;ZTZ5Mb07Tb/U76CwsIHuby5cRwQRirMx8MulIRFnk0xiZGhzfTP5X/kDpWgpFqnmVI9R1rZ47U/H&#xA;bW56jY7SOP5jsO382aXU68z2jtF3Wm0IjvLeT1/Nc7B2KuxV8w/85Hee5tU8xjyxayEabpJBuVU7&#xA;SXTLUk/8Y1biPflm77PwcMeI8z9zpO0M/FLhHIfe8o0jSb3V9TttMsUD3d3II4lJCrU92Y7AAbk+&#xA;GbCchEWXAhEyNB9C6D+TH5U+WtPW484apbX94VBkM1yLe3U+EaK6O/hVia+AzTz1mWZqAoe528NH&#xA;igLmbLyr82738tJ9Vt4fI1n6MMIk+vXSmURSuSOAjSRjQJRtworX2zP0oygfvC4GqOIn92GB5luK&#xA;+5fIljc6f5K0GyuQwuLfT7aOZW6q6xKGXf8AlO2cvnkDORHeXp8ESIAHuTzKm12KuxV2KuxV2KoL&#xA;V7DS72xki1NEe1ALO0h4hKftBtuNPHKc+KE4kT+lv0+XJCYOMnieGavFpsWpTx6bM09krUhlcUJH&#xA;8fnnE54wEyIG4ve6eUzAGYqSDyluVII0knjjkkESOwVpWBIUE0LEDfbJRAJAJpEyQCQLez+V/KOh&#xA;6TBHcW3G7uHUH681GqCP910qFHy+/Ox0WhxYgDH1Hv8A1PD67tDLmJEvTH+b+tkOZ7rnYq7FXYq7&#xA;FXYq8n/5yY/8l1F/20IP+TcuZ/Zv958HA7R/u/i+Vs3zonYqitK0rUNW1G303ToGub26cRwQp1Zj&#xA;89gB1JPQZGUhEWeTKMTI0Ob64/Kf8p9O8kad603C51+5QC8vAKhAd/RhruEB6nqx3PYDn9VqjlP9&#xA;F3+l0oxD+kz/ADEct2KuxV2KvgvW9Rk1PWb/AFKQkve3EtwxPWsrlz+vOqhHhiB3PKzlxSJ70Fk2&#xA;LsVcASQAKk7ADAr2z8mvyP1S91K28w+ZrZrTTLZhNa2MwpLcOu6F0O6xg7/F9rwpvmt1mtAHDHm7&#xA;LSaIk8UuT6VzSu6dirsVdirsVdiqUeYPNOk6HDyu5OU7CsVsm8jfR2HucxNVrceEeo793VzNJocm&#xA;c+kbd/R5P5k84atrshWZvRswax2iH4RToWP7R+f0Zy2r1+TOd9o9z1+i7Ox4BtvLv/HJI1VnYKoL&#xA;MxoqjcknsMwgLc8mmQ3XkLzDbaP+k5YQFHxSWwNZUSn22X9Y6jM+fZmaOPjI+HV1uPtXDLL4YPx6&#xA;Wx3Ne7JlnknztLo0os7wmTS5D8zCT+0v+T4j6R77Xs7tE4Twy+j7nUdp9mDOOKO2Qfa9dhmimiSa&#xA;FxJFIAyOpqCDuCCM6yMgRY5PHSiYmjsQvwsXYq7FXYq7FXin/OU16E8q6PZd574zD/njC6/8zs2f&#xA;Zg9ZPk63tM+gDzfNObp0raqWIVRVjsAOpOBX1d+SH5Up5U0oavqkQ/xFfoOSt1toW3EQ/wAs/t/d&#xA;230Ot1XiGh9Id9otL4Ys/UXqWYLnOxV2KuxV2KvgnVtPl07Vb3T5QVls55beRT1DROUIPTuM6uEr&#xA;APe8rONEjuTz8ttB8v8AmDzhY6Lrs89tZ3xaKOa3ZEcTFaxLV0kHxsOPTqRlWoyShAyjzDbp4RnM&#xA;RlyL6CtP+cZ/y5gYGWTULoVrxmnQD5fuo4zmoPaWQ9zth2djHezLy7+WnkXy7Is2k6NbwXCfYuXB&#xA;mmB8VklLuv0HMfJqck+ZcnHp8cOQZNlDc7FXYq7FXYqp3FxBbQPPcSLFDGOTyOaKB7k5GcxEWTQZ&#xA;QgZGgLJef+ZPzRQBrbQ1q3Q3sgoB/wAY0P62+7NDq+2emL5/qei0XYR+rL/pf1n9Tzu4uJ7mZ57i&#xA;RpZpDV5HJZifcnOflMyNk2XpIQERQFBFaPompavdi2sYjI/7b9EQfzO3YZbg088suGIatRqYYY8U&#xA;zT1ryt5H03Q1Wd6XOo0+K4YbLXqIx2+fXOq0XZ0MO/Off+p4/X9qTz7D0w7v1skzYusebee/IQjE&#xA;mq6RFSMVa6tEH2fF4wO3iM53tLsyryYx7x+p6fsrtW6x5D7j+gvPM596NmHkTzo2kziwvnJ02Vvh&#xA;c1Pose4/yT3H0/Pb9mdoeEeCX0H7HTdq9m+MOOH1j7f2vXFZWUMpBUioI3BBzqwXjiHYq7FXYq7F&#xA;XzX/AM5TaoJvMmjaWDUWdo9wfY3MnGn3QDN12ZH0k95dN2nL1AeTxLNm6x7X/wA46/lsNU1H/Fup&#xA;xV0/T346dG42luV6yb/sxdv8r/VOaztDUcI4BzPN2XZ+n4jxnkOT6WzSu6dirsVdirsVdir5g/5y&#xA;N8hzaV5k/wATWsZOm6uQLggbR3SrRgf+MiryHvyzedn5+KPCeY+50naGDhlxDkfvePxySRSLJGxS&#xA;RCGR1JDKwNQQR0IzYOufUP5TfnrpevWsGkeY50stdjCxpcyEJDddgwOypIe69z9nwGj1WiMDcd4/&#xA;c7zS60SFS2l9717Ne7B2KuxVxNNz0xVg3m385/IHlrlHcagL69XY2VjSeQHwZgRGlPBmB9sysWjy&#xA;T5Ch5uLl1mOHWz5NeQvzk8o+c7trCxM1nqSqXWzulVWkVd2MbIzq1B1HX2pjn0c8Ys7hcGrhkNDm&#xA;rfmrHdNoELRcvQScG4A6UKkKW9uWc722JeEK5Xu9N2CYjMb58OzyfOVeuZb5Y/L3UtVKXN6Gs7A7&#xA;8iKSuP8AIU9Af5j+ObXR9lTy7y9MftdRru14YvTH1T+wPVNM0qw0u1W1sYRDCvYdSfFidyc6jDgh&#xA;jjwxFB5LPnnllxTNlF5a0uxV2KvMPP8A5HFpz1bS46Wxq11br0jP86j+XxHb5dOa7U7O4f3kBt1H&#xA;c9V2T2px/u8h9XQ9/l72BZonoHo/5bebyeGh30le1jI3/Jon/iP3eGdD2Rr/APJS/wA39X6nmu2u&#xA;z/8AKwH9b9f63oudC807FUp13zRo2iKv16akriqQIOUhHjTsPc5i6nW48P1HfuczS6HLn+gbd/RQ&#xA;0TzroGsT/V7aZkuT9mGVeDNT+XqD9+V6ftHFlNRO/m2anszNhHFIenvD5M/N7zANd/MXWrxG5QRT&#xA;m1t6bjhbARVHsxQt9OdlpMfDjAeL1eTiyEpN5Q8s33mfzHY6JZbS3cgVpKVEcY+KSQ+yqCcsy5BC&#xA;JkWvFjM5CIfbeh6NYaJpFppOnxiKzsolihTvRe58WY7k9znMzmZEk8y9NCAiAByCOyLJ2KuxV2Ku&#xA;xV2KoDXdD0vXdJudJ1SAXFldIUljPX2ZT2ZTuD2OThMxNjmwnASFHk+R/wAzfym13yTevKVa70KR&#xA;6WuoqNhXpHNT7D/g3buBv9Nqo5R/S7nQanSyxn+j3sFzLcVmHlr82/zA8uQpb6fq0jWiABbW5C3E&#xA;aqP2VEgYoPZSMxsmkxz3I3cjHqskNgdmZ2//ADlD55RaT6dpsx2owSdD9P70jMY9mY+8uSO0p9wQ&#xA;t9/zkx+YtwpWCOws/BoYHZv+Sskg/DJR7NxjvLGXaOQ9wYR5g/MPzv5hVk1fWbm5hb7VuG9KE18Y&#xA;ogkf/C5lY9PCHIONk1E58yx3Lmlnn5IaNq2o/mPpMtgjCOwl+s3k4B4pCoPIMf8Aiz7A+eYmtmBj&#xA;N9XK0UCcgro+w5oYpomimRZInBV0YAqQeoIOc5KIIo8no4yMTY2KU2vlDy1a3AuINPiWYHkrGrAH&#xA;xUMSB9GYsNBhibERbmZO0c848JkaTjMtwnYq7FXYq7FXMqspVgCpFCDuCDiQoLyDz75POj3X1yzX&#xA;/cbcNso/3U5/YPsf2fuzk+09B4UuKP0H7Hsuyu0fGjwy+sfb+OrE0d0dXRirqQysNiCNwRmqBrcO&#xA;4IBFF7X5L8yrrmkq8hH123pHdL4mmz08G/XXOy7P1fjY7P1Dm8N2lovAyUPpPL9XwZBme654n59N&#xA;z/iy/wDXrUMvp1/k4DjT2pnGdp348re57J4fy8a/BSWy+s/XIPqvL616i+hx+1zqONPeuYePi4hw&#xA;/VeznZOHhPF9Nb+55JP5D86jWpdKbR7yXUVkKMiwyNyav2g1KFT15VpTfPZhnhw3Yp8SOCfFVG30&#xA;j+Sn5St5NspdS1Xi/mC+QI6qQy28NQ3pBh9pmIBcjbag6VOm1mq8Q0PpDuNHpfDFn6i9QzBc52Ku&#xA;xV2KuxV2KuxV2KqdzbW11byW11Ek9vKpSWGVQ6Mp6hlaoI+eEEjcIIB2Lx7zh/zjT5a1KR7ry9ct&#xA;o9w1SbZgZrYn/JBIeOvzI8Bmww9oyjtLd1+bs6Mt47PLNY/5x7/M3T3b0bGLUYl/3baTIdv9SUxS&#xA;fcuZ8NfiPWnBnoMo6Wxy4/LH8xIK8/Leomh4/u7aWTf/AGAbb3y4anGf4g0nTZB/CVa2/Kb8ybhg&#xA;sfl29Umn95EYhv7ycRgOqxD+IJGlyH+Eso0j/nG78x71l+uJa6XHX4jPMJGp7LB6oP0kZRPtHGOV&#xA;luh2fkPOg9G8t/8AOMXlazKS67fz6rKpq0EY+rQH2NC0h+hxmHk7SmfpFOZj7NgPqNvWdG0LRtEs&#xA;1stJsobG1XpFCgQE+LEbsfc75gTnKRsm3PhCMRQFI7IM3Yq7FXYq7FXYq7FXYqh9QsLW/sprO6Tn&#xA;BMpV1/iPcdRleXFHJExlyLZhyyxyEo8w8O8w6Fd6LqUlnOCVBrBLSgkTsw/jnFarTSwzMT8PN73R&#xA;6qOeAkPj5Fkv5Tx3R1q6kQH6sLcrK3bkXUoPnsc2XYYl4hPSnV9vyj4UQfq4nqmdO8klOu+VtG1s&#xA;Kb6I+rGKJPGeLgeFehHzGYmp0WPN9Q373M0uvy4PoO3d0Q2ieR9A0ecXFvE01yv2JpyHZf8AVACq&#xA;D70yvTdnYsRsCz5tuq7UzZhwk1HuCf5nuudirsVdirsVdirsVdirsVdirsVdirsVdirsVdirsVdi&#xA;rsVdirsVdirsVdirsVdirsVS7W/0B9XX9M/VvRr+7+s8Kcv8nl3+WY+o8Kv3nDXm5Om8a/3XFfkq&#xA;aP8Aof6mP0R6H1Sp/wB5+PDl3rx75LB4fD+7rh8mOo8Xi/eXxeaNy5odirsVf//Z</xmpGImg:image>
               </rdf:li>
            </rdf:Alt>
         </xmp:Thumbnails>
      </rdf:Description>
      <rdf:Description rdf:about=""
            xmlns:xmpMM="http://ns.adobe.com/xap/1.0/mm/"
            xmlns:stRef="http://ns.adobe.com/xap/1.0/sType/ResourceRef#"
            xmlns:stEvt="http://ns.adobe.com/xap/1.0/sType/ResourceEvent#">
         <xmpMM:DocumentID>xmp.did:DE985E021E20681183D1DC88299A35A5</xmpMM:DocumentID>
         <xmpMM:InstanceID>xmp.iid:DE985E021E20681183D1DC88299A35A5</xmpMM:InstanceID>
         <xmpMM:DerivedFrom rdf:parseType="Resource">
            <stRef:instanceID>xmp.iid:DD985E021E20681183D1DC88299A35A5</stRef:instanceID>
            <stRef:documentID>xmp.did:DD985E021E20681183D1DC88299A35A5</stRef:documentID>
            <stRef:originalDocumentID>uuid:57E234D57969DF118E7CED0AD28EA4AC</stRef:originalDocumentID>
         </xmpMM:DerivedFrom>
         <xmpMM:OriginalDocumentID>uuid:57E234D57969DF118E7CED0AD28EA4AC</xmpMM:OriginalDocumentID>
         <xmpMM:History>
            <rdf:Seq>
               <rdf:li rdf:parseType="Resource">
                  <stEvt:action>saved</stEvt:action>
                  <stEvt:instanceID>xmp.iid:DD985E021E20681183D1DC88299A35A5</stEvt:instanceID>
                  <stEvt:when>2014-03-31T14:23:23+02:00</stEvt:when>
                  <stEvt:softwareAgent>Adobe Illustrator CS6 (Macintosh)</stEvt:softwareAgent>
                  <stEvt:changed>/</stEvt:changed>
               </rdf:li>
               <rdf:li rdf:parseType="Resource">
                  <stEvt:action>saved</stEvt:action>
                  <stEvt:instanceID>xmp.iid:DE985E021E20681183D1DC88299A35A5</stEvt:instanceID>
                  <stEvt:when>2014-03-31T14:23:57+02:00</stEvt:when>
                  <stEvt:softwareAgent>Adobe Illustrator CS6 (Macintosh)</stEvt:softwareAgent>
                  <stEvt:changed>/</stEvt:changed>
               </rdf:li>
            </rdf:Seq>
         </xmpMM:History>
      </rdf:Description>
      <rdf:Description rdf:about=""
            xmlns:pdf="http://ns.adobe.com/pdf/1.3/">
         <pdf:Trapped>False</pdf:Trapped>
      </rdf:Description>
      <rdf:Description rdf:about=""
            xmlns:xmpTPg="http://ns.adobe.com/xap/1.0/t/pg/"
            xmlns:stDim="http://ns.adobe.com/xap/1.0/sType/Dimensions#"
            xmlns:xmpG="http://ns.adobe.com/xap/1.0/g/">
         <xmpTPg:MaxPageSize rdf:parseType="Resource">
            <stDim:w>50.000000</stDim:w>
            <stDim:h>50.000000</stDim:h>
            <stDim:unit>Pixels</stDim:unit>
         </xmpTPg:MaxPageSize>
         <xmpTPg:NPages>1</xmpTPg:NPages>
         <xmpTPg:HasVisibleTransparency>False</xmpTPg:HasVisibleTransparency>
         <xmpTPg:HasVisibleOverprint>False</xmpTPg:HasVisibleOverprint>
         <xmpTPg:PlateNames>
            <rdf:Seq>
               <rdf:li>Cyan</rdf:li>
               <rdf:li>Magenta</rdf:li>
               <rdf:li>Yellow</rdf:li>
               <rdf:li>Black</rdf:li>
            </rdf:Seq>
         </xmpTPg:PlateNames>
         <xmpTPg:SwatchGroups>
            <rdf:Seq>
               <rdf:li rdf:parseType="Resource">
                  <xmpG:groupName>Default Swatch Group</xmpG:groupName>
                  <xmpG:groupType>0</xmpG:groupType>
               </rdf:li>
            </rdf:Seq>
         </xmpTPg:SwatchGroups>
      </rdf:Description>
   </rdf:RDF>
</x:xmpmeta>
                                                                                                    
                                                                                                    
                                                                                                    
                                                                                                    
                                                                                                    
                                                                                                    
                                                                                                    
                                                                                                    
                                                                                                    
                                                                                                    
                                                                                                    
                                                                                                    
                                                                                                    
                                                                                                    
                                                                                                    
                                                                                                    
                                                                                                    
                                                                                                    
                                                                                                    
                                                                                                    
                           
<?xpacket end="w"?>
	</metadata>
<path id="_x2E_" fill="#F37B21" d="M81,77.845c0.007,0.725-0.69,1.319-1.445,1.325c-0.756,0.007-1.374-0.575-1.38-1.298
	c-0.006-0.727,0.601-1.319,1.358-1.326C80.289,76.538,80.994,77.12,81,77.845"/>
<path id="x" fill="#F37B21" d="M75.737,79.276c0.001-0.005,0-0.011,0-0.014c-0.003-0.031-0.006-0.059-0.011-0.09
	c-0.002-0.005-0.002-0.009-0.003-0.014c-0.045-0.274-0.165-0.512-0.245-0.642c-2.228-3.666-5.629-6.557-5.629-6.557
	s-0.112-0.121-0.053-0.175c0.059-0.057,0.738-0.513,0.893-0.602c0.155-0.092,1.066-0.634,1.364-0.784
	c0.908-0.452,1.969-0.495,1.924-1.235c-0.02-0.368-0.429-0.648-0.628-0.727c-1.622-0.652-3.899,0.824-4.212,1.004
	c-0.316,0.185-1.005,0.676-1.081,0.733c-0.08,0.054-0.13,0.1-0.237,0.002c-0.449-0.396-2.258-1.61-4.535-2.814
	c-2.275-1.202-5.014-2.393-7.019-2.755c-0.529-0.096-1.275-0.07-1.54,0.551c-0.183,0.425-0.047,0.973,0.664,1.297
	c0.539,0.247,2.758,0.713,6.234,2.483c1.503,0.765,3.902,2.432,3.902,2.432c0.151,0.102,0.39,0.281,0.402,0.335
	c0.011,0.063-0.287,0.225-0.447,0.375c-0.156,0.145-1.636,1.138-1.979,1.377c-0.382,0.267-2.088,1.398-2.417,1.555
	c-0.516,0.246-1.03,0.553-1.052,1.152c-0.006,0.149,0.019,0.292,0.063,0.426c0.004,0.011,0.007,0.018,0.01,0.027
	c0.004,0.016,0.011,0.03,0.017,0.044c0.093,0.233,0.247,0.412,0.399,0.513c0.191,0.139,0.42,0.224,0.672,0.233
	c0.296,0.01,0.512-0.098,0.796-0.226c0.487-0.299,1.019-0.635,1.273-0.809c0.41-0.276,4.345-3.136,4.345-3.136
	s0.06-0.068,0.169,0.031c0.114,0.1,3.509,3.235,5.195,5.622c0.324,0.46,0.477,0.668,0.604,0.864c0.124,0.19,0.231,0.293,0.393,0.426
	c0.158,0.129,0.356,0.217,0.575,0.239c0.07,0.012,0.144,0.015,0.216,0.008c0.289-0.03,0.481-0.102,0.703-0.339
	C75.701,79.832,75.76,79.545,75.737,79.276"/>
<path id="e" fill="#004B85" d="M57.675,76.464c-0.227,0-0.443,0.071-0.622,0.187c-0.407,0.155-0.884,0.366-1.073,0.419
	c-0.232,0.059-4.504,1.831-7.316-0.747c-1.005-0.923-1.042-1.858-1.042-1.858s0.207,0.059,0.78,0.036
	c5.407-0.222,5.34-4.149,3.708-5.137c-1.029-0.619-2.034-0.435-2.321-0.432s-0.981,0.193-0.981,0.193
	c-3.006,0.908-3.577,3.428-3.635,3.926c-0.046,0.387-0.145,0.533-0.05,1.539c0.191,1.974,1.973,3.915,4.174,4.77
	c2.196,0.857,4.739,0.717,7.04,0.01c0.588-0.18,1.014-0.314,1.338-0.474c0.002-0.002,0.005-0.002,0.009-0.002
	c0.147-0.058,0.302-0.127,0.436-0.197c0.429-0.171,0.732-0.594,0.73-1.086C58.838,76.97,58.317,76.457,57.675,76.464 M49.79,71.107
	c0.153,0.001,0.744-0.011,0.829,0.254c0.057,0.177-0.063,0.333-0.186,0.427c-0.44,0.333-1.413,0.59-2.153,0.581
	c-0.226-0.003-0.477-0.011-0.472-0.062C47.829,71.904,48.917,71.102,49.79,71.107"/>
<path id="r" fill="#004B85" d="M35.168,72.295c0.049-0.055,4.99-5.474,10.528-5.67c0.619-0.02,1.14,0.314,1.309,0.831
	c0.217,0.656-0.206,1.391-0.941,1.633c-0.353,0.116-0.726,0.105-1.049-0.034l-0.018-0.01l-0.017-0.001
	c-0.365-0.035-0.837,0.076-1.168,0.178c-4.106,1.236-7.56,4.427-10.271,9.483c-0.144,0.27-0.271,0.432-0.519,0.72
	c-0.207,0.239-0.912,0.768-1.426,0.651c-0.46-0.104-0.54-0.373-0.581-0.641c-0.061-0.373,0.069-0.787,0.233-1.31
	c0.111-0.359,0.239-0.769,0.338-1.259c0.354-1.756,0.51-3.114,0.465-4.039c-0.019-0.379,0-0.863,0.319-1.224
	c0.32-0.36,0.749-0.4,1.124-0.436c0.519-0.05,0.774,0.123,0.96,0.249c0.173,0.116,0.272,0.291,0.279,0.476
	c-0.001,0-0.007,0.059-0.007,0.059c-0.007,0.07-0.016,0.146-0.016,0.219c0,0.122,0.025,0.232,0.123,0.275
	C34.974,72.509,35.11,72.359,35.168,72.295"/>
</svg>
